<svg width="170" height="113" fill="none" xmlns="http://www.w3.org/2000/svg"><path d="M38.498 33.97l-.632.657c-.48-.48-1.086-1.061-1.793-1.743-.707-.682-1.137-1.112-1.288-1.263l-.05.05c.125.253.353.758.656 1.516.631 1.693 1.01 2.627 1.162 2.779l-.505.53c-.228-.227-1.087-.631-2.602-1.212a39.437 39.437 0 01-1.541-.708l-.05.05c.176.152.631.658 1.414 1.491a91.867 91.867 0 001.54 1.617l-.555.58s-.58-.656-1.49-1.742c-.91-1.086-1.541-1.794-1.87-2.097l.91-.934c.303.303 1.01.682 2.097 1.111 1.086.43 1.692.707 1.793.808l.05-.05s-.378-.707-.782-1.819c-.43-1.111-.809-1.819-1.112-2.122l.884-.91c.328.33 1.01.935 2.046 1.87 1.036.935 1.617 1.44 1.718 1.541zm4.267-3.334l-.657.53a1.564 1.564 0 01-.353-.354h-.051c-.101.607-.455 1.137-1.036 1.617-.328.253-.682.38-1.06.354-.38 0-.708-.177-.986-.53-.328-.43-.43-.935-.252-1.466.151-.555.732-1.212 1.717-1.995-.05-.076-.1-.152-.177-.253-.277-.354-.53-.505-.808-.48-.278.025-.606.177-.985.48-.43.354-.834.733-1.187 1.187l-.38-.631c.33-.455.759-.884 1.314-1.314.506-.379.96-.58 1.415-.58.43 0 .833.226 1.238.732.1.126.278.379.53.732.253.354.43.607.53.708.405.505.784.934 1.188 1.288v-.025zm-1.39-.253c-.353-.43-.656-.808-.909-1.137-.53.405-.91.758-1.111 1.061-.354.506-.38.96-.076 1.34.303.378.707.353 1.263-.051.455-.354.733-.758.834-1.213zm5.383-3.334l.328.631c-.151.303-.43.581-.859.834-.783.505-1.515.657-2.197.48-.682-.177-1.213-.556-1.617-1.162-.404-.657-.556-1.339-.404-2.072.151-.732.556-1.338 1.288-1.793.354-.227.682-.379.935-.455l.328.783a3.37 3.37 0 00-1.086.43c-.43.278-.682.631-.733 1.086-.05.455.05.91.329 1.364.303.48.707.808 1.237.935.506.126 1.036.025 1.592-.329.227-.151.505-.404.834-.758l.025.026zm5.027-1.718l-.833.43a35.76 35.76 0 00-1.01-2.122c-.33-.632-.657-1.263-.986-1.82l-.934.48c.1.405.176.81.227 1.188.05.404.1.783.126 1.137 0 .353.025.707 0 1.036 0 .328-.05.606-.1.858a2.072 2.072 0 01-.228.632 1.034 1.034 0 01-.354.379l-.43-.733s.152-.151.203-.303c.05-.151.1-.354.126-.58.025-.228.05-.506.05-.81 0-.302 0-.63-.025-.96-.025-.353-.075-.707-.126-1.085a9.054 9.054 0 00-.227-1.137l1.566-.808.606-.43c.303.682.707 1.516 1.187 2.476a54.69 54.69 0 001.188 2.147l-.026.025zm4.825-5.001c.354.833.379 1.59.076 2.273-.278.682-.758 1.137-1.415 1.414a2.338 2.338 0 01-1.844 0c-.606-.227-1.086-.732-1.39-1.49-.353-.859-.378-1.617-.1-2.299.278-.682.758-1.162 1.414-1.414a2.338 2.338 0 011.844 0c.607.252 1.087.758 1.39 1.515h.025zm-.783.53a2.682 2.682 0 00-.96-1.213c-.43-.303-.884-.353-1.364-.151-.48.202-.758.53-.859 1.01-.101.48-.05.985.152 1.49.202.531.53.935.96 1.213.429.303.884.329 1.364.152.48-.202.757-.53.858-1.01.102-.48.05-.986-.151-1.466v-.025zm7.78-.657c.05.177.151.606.278 1.288.126.682.252 1.213.353 1.567l-.606.201a97.066 97.066 0 00-.682-2.147c-.48.127-1.137.329-1.97.581-.53.177-1.112.354-1.718.581.152 1.036.303 1.794.43 2.223l-.607.202c-.1-.303-.227-.732-.404-1.288-.177-.556-.328-1.036-.48-1.465l.505-.152c-.05-1.338.101-2.93.455-4.749l1.465-.454.657-.303c.177.732.43 1.591.758 2.627.126.404.328.96.631 1.642l.96-.303-.025-.051zm-1.743.53c-.253-.656-.43-1.212-.581-1.667a32.12 32.12 0 00-.632-1.869l-.884.278c-.1.455-.177 1.036-.278 1.768-.075.733-.1 1.49-.075 2.248l2.45-.758zm6.567-4.193c.025.152.076.354.126.607l-3.561.884c.151.505.454.884.884 1.136.43.253.96.329 1.54.177a6.07 6.07 0 001.44-.53l.076.758c-.303.227-.783.404-1.44.555-.909.202-1.641.127-2.248-.252-.58-.38-.96-.935-1.136-1.642-.177-.758-.102-1.465.202-2.097.303-.657.833-1.06 1.54-1.238.683-.151 1.238-.075 1.668.228.43.303.732.783.884 1.414h.025zm-.884.202c-.227-.985-.758-1.364-1.566-1.187-.834.202-1.213.808-1.112 1.87l2.678-.683zm6.897 1.971l-.91.151a28.278 28.278 0 00-.302-2.324c-.127-.707-.228-1.389-.38-2.046l-1.06.177-.152 1.213c-.076.404-.151.758-.227 1.111-.101.354-.202.682-.303.985-.126.303-.228.556-.38.783a1.873 1.873 0 01-.429.53c-.151.127-.303.228-.454.253l-.177-.833s.177-.101.278-.228c.1-.126.202-.303.303-.505a5.83 5.83 0 00.303-.758c.101-.277.177-.606.278-.934.101-.329.152-.682.227-1.061.076-.38.101-.758.152-1.137l1.743-.278.707-.227a84.1 84.1 0 00.354 2.728c.126.834.278 1.642.454 2.4h-.025zm5.406-2.273c.05.555-.126.984-.556 1.338-.43.354-.91.53-1.49.606-.278.026-.91.076-1.844.152-.025-.707-.101-1.516-.177-2.45a17.56 17.56 0 00-.43-2.577l1.011-.252c0 .454.05 1.136.152 2.02.353-.1.656-.176.884-.176 1.515-.152 2.324.303 2.425 1.338h.025zm-.808.176c-.076-.657-.581-.96-1.567-.859-.176 0-.48.076-.909.177.05.632.126 1.238.202 1.844.354 0 .682 0 .985-.025.91-.076 1.34-.455 1.263-1.112l.026-.025zm6.366 1.314h-.934c.025-.657.025-1.44 0-2.324l-2.552.076c0 .808.076 1.591.152 2.349h-.935a25.68 25.68 0 000-2.425 16.399 16.399 0 00-.252-2.577l1.035-.177V15l2.552-.076a16.317 16.317 0 00-.228-1.996l1.036-.177a48.89 48.89 0 000 2.729c0 .858.076 1.667.152 2.45h-.026zm5.482-1.566c0 .555-.252.96-.707 1.263-.455.278-.96.404-1.516.379-.278 0-.859-.051-1.667-.102a31.04 31.04 0 00.152-2.45c.05-1.036 0-1.894-.076-2.602l1.01-.1a24.83 24.83 0 00-.126 2.02 3.8 3.8 0 01.732-.076c1.516.076 2.274.607 2.223 1.642l-.025.026zm-.834.05c.026-.657-.454-1.01-1.414-1.06-.177 0-.43 0-.733.05-.025.631-.05 1.238-.05 1.844.253.05.53.075.833.1.885.026 1.34-.277 1.365-.934zm2.501 1.718l-.934-.05c.075-.708.151-1.516.176-2.45.051-1.037 0-1.896-.075-2.603l1.035-.1a33.66 33.66 0 00-.176 2.727c-.026.86-.05 1.668 0 2.45l-.026.026zm5.809.682l-.96-.127c.127-.606.253-1.414.38-2.425.024-.277.1-.707.201-1.288h-.05c-.101.228-.657.809-1.693 1.743-.96.884-1.465 1.44-1.49 1.642l-.758-.1a64.13 64.13 0 00.379-2.426c.126-1.036.177-1.894.126-2.602h1.061a36.02 36.02 0 00-.379 2.476c-.05.353-.1.808-.202 1.364h.05c.102-.202.658-.783 1.668-1.743.96-.884 1.44-1.44 1.465-1.642l.783-.05c-.126.732-.252 1.641-.404 2.702a48.258 48.258 0 00-.227 2.425l.05.05zm.43-7.376a1.62 1.62 0 01-.506 1.01c-.277.278-.732.38-1.313.329-.606-.076-1.036-.278-1.238-.632-.202-.354-.303-.707-.252-1.111h.782c-.075.707.177 1.086.784 1.162.353.05.606 0 .758-.177.151-.177.252-.43.277-.758l.708.202v-.025zm7.753 9.018l-.935-.228s-.051-.151-.076-.303c-.05-.783-.177-1.339-.379-1.667a1.38 1.38 0 00-.909-.657c-.152-.025-.329-.075-.556-.126-.177.808-.328 1.54-.429 2.223l-.935-.202c.202-.682.43-1.465.632-2.375.227-1.01.353-1.869.378-2.576l1.061.1c-.202.658-.378 1.39-.581 2.198.203.051.379.102.556.127.783.177 1.465-.329 2.046-1.516.051-.076.101-.152.177-.227l.859.202s-.152.202-.278.404c-.657 1.01-1.238 1.54-1.768 1.617v.05c.303.177.53.43.682.808.151.354.253.86.328 1.516 0 .202.051.404.101.632h.026zm6.545-.834c-.278.884-.733 1.465-1.39 1.794-.656.328-1.313.404-1.995.176a2.44 2.44 0 01-1.44-1.162c-.328-.58-.354-1.263-.101-2.046.278-.884.733-1.49 1.389-1.819.657-.328 1.314-.404 1.996-.176.631.202 1.111.58 1.415 1.162.303.58.353 1.263.101 2.046l.025.025zm-.935-.076a2.68 2.68 0 00.051-1.54c-.127-.506-.455-.834-.935-.986-.48-.151-.935-.076-1.314.227-.378.304-.656.733-.833 1.238a2.685 2.685 0 00-.051 1.541c.127.505.455.834.96.985.48.152.935.076 1.314-.227s.657-.732.808-1.238zm6.918 5.457l-.834-.354c.253-.606.581-1.39.985-2.299.379-.909.607-1.465.708-1.667h-.076c-.202.177-.581.581-1.162 1.137-1.364 1.187-2.071 1.895-2.172 2.097l-.683-.278c.127-.278.177-1.238.203-2.88 0-.379.025-.934.101-1.692h-.051c-.101.177-.379.808-.884 1.844-.505 1.035-.808 1.717-.96 2.02l-.732-.328s.404-.758 1.086-2.02c.682-1.238 1.111-2.072 1.288-2.502l1.212.506c-.176.404-.252 1.187-.277 2.349 0 1.162-.051 1.819-.101 1.97h.05s.531-.58 1.389-1.364c.885-.783 1.415-1.39 1.592-1.819l1.162.506c-.177.43-.505 1.288-1.011 2.576-.479 1.314-.757 2.021-.833 2.173v.025zm6.896.909c-.455.783-1.01 1.238-1.718 1.39a2.753 2.753 0 01-1.995-.304c-.834-.48-1.238-1.137-1.187-1.945.025-.631.353-1.465.934-2.526.657-1.162 1.39-1.87 2.223-2.097.657-.202 1.44-.1 2.349.303.506.228 1.087.455 1.693.708l-.455.732c-.278-.126-.859-.404-1.718-.783-.682-.278-1.212-.379-1.591-.303-.505.101-.985.53-1.415 1.288h.051c.631-.202 1.288-.126 1.945.253a2.55 2.55 0 011.213 1.364c.202.581.101 1.213-.304 1.92h-.025zm-.909-.303c.278-.48.379-.935.328-1.39-.05-.454-.303-.808-.783-1.06-.631-.38-1.263-.43-1.869-.177-.531.934-.809 1.692-.809 2.248 0 .556.253.96.733 1.263.429.253.884.278 1.339.101.455-.177.808-.505 1.061-.96v-.025zm4.096 5.759l-.784-.555c.405-.455.91-1.112 1.516-1.92.177-.228.429-.581.808-1.01h-.05c-.202.126-.985.353-2.324.656-1.288.303-1.97.53-2.097.707l-.606-.454a66.7 66.7 0 001.516-1.92 17.61 17.61 0 001.389-2.198l.935.505a34.27 34.27 0 00-1.541 1.996c-.202.278-.505.657-.834 1.086h.051c.202-.1.96-.328 2.324-.657 1.263-.303 1.97-.555 2.071-.707l.707.329a38.789 38.789 0 00-1.667 2.172c-.505.682-.96 1.364-1.389 2.02l-.025-.05zm4.168 3.865l-.682-.657a47.136 47.136 0 001.692-1.642l-1.844-1.768a25.538 25.538 0 00-1.566 1.768l-.682-.656a35.623 35.623 0 001.743-1.718c.707-.758 1.263-1.415 1.642-2.02l.859.605c-.202.177-.707.683-1.541 1.516l1.844 1.768c.53-.58.96-1.111 1.263-1.566l.859.606c-.556.506-1.187 1.162-1.945 1.945a50.62 50.62 0 00-1.642 1.82zm3.411 4.193l-.556-.631c.101-.151.227-.253.354-.354v-.05c-.607-.101-1.137-.455-1.617-1.036a1.704 1.704 0 01-.379-1.06c0-.38.177-.708.53-.986.43-.328.935-.43 1.466-.278.555.152 1.212.733 2.02 1.718.076-.05.152-.101.253-.177.354-.278.505-.556.48-.808-.025-.278-.202-.607-.48-.96-.354-.43-.732-.834-1.187-1.162l.631-.38c.455.33.884.759 1.314 1.315.404.505.581.96.606 1.389 0 .43-.227.859-.732 1.238-.127.1-.379.277-.733.555-.354.253-.581.43-.707.53-.506.405-.935.784-1.289 1.188l.026-.05zm.227-1.389c.404-.353.783-.657 1.137-.934-.404-.53-.758-.91-1.061-1.112-.505-.354-.96-.379-1.339-.05-.379.303-.354.707.05 1.263.354.454.758.732 1.213.833zm6.819 3.385l-.707.354c-.228-.53-.48-1.036-.758-1.541-.43.227-1.011.53-1.693.934-.757.43-1.439.834-2.096 1.264l-.48-.86a31.044 31.044 0 002.172-1.136 75.933 75.933 0 001.667-.985 22.87 22.87 0 00-.909-1.465l.707-.354 2.122 3.764-.025.025zM140.45 77.57c.555.632 1.136 1.263 1.692 1.92.177.202.177.48-.076.682a47.17 47.17 0 01-3.536 2.855c-.329.227-.758.176-1.137.126-.833-.076-1.187-.657-1.591-1.187-1.086-1.39-2.147-2.804-3.234-4.194-.101-.151-.303-.202-.454-.328-.026.025-.076.05-.101.076 0 .96 0 1.894-.051 2.854 0 .606-.025 1.238-.076 1.844-.05.809-.151 1.592-.227 2.4-.076.859-.101 1.692-.177 2.551 0 .202.025.404-.05.581-.101.253-.202.556-.43.708-.909.631-1.869 1.187-2.829 1.717-.429.253-.707.152-.935-.202l-5.304-9.245c-.253-.455-.253-.43-.682-.202-.278.151-.556.48-.91.227-.227-.151-.505-.303-.657-.53-.328-.48-.555-1.01-.858-1.516-.329-.53-.228-1.137.353-1.415.834-.404 1.617-.884 2.425-1.338.556-.329 1.188-.177 1.718.05.328.152.657.505.859.834 1.111 1.667 2.172 3.36 3.258 5.052.076.126.177.202.253.328.051 0 .076 0 .126-.025.051-.48.101-.985.152-1.465.076-.91.101-1.844.126-2.754 0-.707-.025-1.414 0-2.121 0-.657.051-1.289.051-1.946 0-.707-.051-1.414-.076-2.121 0-.127.051-.278.152-.354.732-.581 1.465-1.213 2.223-1.794.303-.252.783-.126 1.086.228a1606.32 1606.32 0 015.759 6.77c.354.429.733.833 1.086 1.288.202.278.379.227.657 0 .227-.177.505-.354.758-.48a.54.54 0 01.682.126h-.025zm13.893-15.964c-.48-.051-.884.075-1.137.631-.252.505-.53.606-.884.354-2.829-2.021-5.633-4.042-8.462-6.063-.505-.353-1.061-.227-1.389.253-.48.682-1.011 1.339-1.491 2.02a.866.866 0 00-.126.556c.025.278.126.581.202.86.177.656.379 1.288.53 1.944.127.556.177 1.137.304 1.718.176.808.353 1.617.505 2.425.05.202 0 .43.05.632.177.858.354 1.692.531 2.576-.354.152-.531.101-.733-.076-1.364-1.313-2.753-2.652-4.143-3.94-.252-.228-.555-.38-.858-.53a1.681 1.681 0 00-1.819.227c-.834.707-1.617 1.49-2.4 2.248-.278.278-.278.53 0 .833.556.632 1.112 1.238 1.667 1.844.152.177.329.228.607.202.353-.05.53-.277.732-.48.354-.328.354-.328.682 0l7.275 7.73c.303.329.682.329 1.086-.05.809-.758 1.617-1.541 2.375-2.4.177-.202.303-.581.303-.834 0-.631-.126-1.237-.202-1.844-.076-.58-.177-1.162-.253-1.743-.126-.934-.252-1.869-.404-2.804a62.867 62.867 0 00-.808-3.789c0-.075 0-.202.076-.277.025-.051.151 0 .227 0 .076 0 .151.075.202.126 1.415 1.136 2.829 2.298 4.244 3.435.353.278.682.581 1.212.606.758.051 1.491-.025 2.072-.757.884-1.087 1.717-2.249 2.526-3.436.227-.328.177-.58-.101-.758-.404-.252-.809-.505-1.162-.808-.303-.227-.48-.632-.96-.682l-.076.05zM35.669 64.814l.859-.935c.202-.227.277-.505.126-.682-.329-.43-.733-.808-1.086-1.213-.127-.151-.278-.278-.43-.429-.252-.202-.48-.43-.758-.581-.126-.05-.353.05-.505.126-.177.101-.303.253-.455.404a466.182 466.182 0 00-5.052 4.952c-.176.176-.353.303-.631.176-.354-.151-.707-.278-1.061-.454-.354-.177-.733-.329-1.036-.581-.53-.48-.985-1.061-1.465-1.617-.43-.48-.556-1.06-.556-1.617 0-.858.48-1.49 1.061-2.02.556-.506 1.162-.935 1.718-1.415.733-.606 1.49-1.187 2.198-1.844.631-.556.833-1.617.404-2.274-.581-.934-1.238-1.869-1.87-2.803-.227-.354-.732-.48-.985-.329-.757.505-1.49 1.01-2.223 1.516-.1.075-.151.278-.176.404-.05.43.252.707.48 1.01.202.253.176.405-.101.632-1.264.985-2.754 1.692-3.79 2.98-.252.329-.53.683-.757 1.062-.303.58-.506 1.187-.53 1.894-.051.733-.051 1.465.227 2.198.1.227.151.48.252.707.177.43.328.91.606 1.288.935 1.188 1.82 2.45 3.107 3.259.329.202.657.379 1.01.53.456.203.632.607.355.885-1.693 1.641-3.385 3.309-5.078 4.95-.43.405-.404.683.101 1.188a61.17 61.17 0 002.248 2.198c.581.53.834.53 1.263.05 2.198-2.374 4.37-4.774 6.543-7.149l5.91-6.441.077-.025zm2.147 25.412a50.905 50.905 0 01-3.512-2.198c-.505-.354-.606-.884-.732-1.39-.05-.15-.05-.302-.101-.504-1.137.1-2.172-.127-3.233-.607-.834-.379-1.541-.91-2.223-1.515-.253-.202-.43-.506-.632-.758-.707-.859-1.162-1.819-1.339-2.855-.05-.379-.126-.783-.075-1.136.075-.53.151-1.112.404-1.567.48-.858 1.136-1.59 2.046-2.02.48-.228.985-.455 1.49-.53.505-.077 1.061 0 1.592.075.48.076.96.177 1.44.303.277.076.555.227.833.329.859.328 1.591.858 2.4 1.237.682.329 1.288.707 1.894 1.112.177.1.278.05.38-.101.404-.657.505-1.794-.304-2.324-.53-.354-1.01-.733-1.54-1.087-.405-.277-.556-.227-.86.152-.202.253-.379.556-.757.48a1.923 1.923 0 01-1.01-.556c-.253-.278-.582-.505-.91-.707-.455-.303-.783-.682-.86-1.212a.42.42 0 01.102-.278c.404-.48.758-.986 1.213-1.39.277-.252.682-.353 1.01-.48.58-.252 1.162-.177 1.743.05.126.051.303 0 .43.051.454.177.934.38 1.363.581.733.354 1.44.733 2.047 1.289.682.656 1.44 1.237 1.92 2.071.555.96.883 1.996.757 3.183-.05.53-.227.985-.354 1.49-.328 1.188-1.111 2.097-1.692 3.132-.632 1.137-1.339 2.249-2.02 3.335-.178.278-.102.43.176.606.303.202.581.43.834.682.202.202.252.43.1.682-.429.708-.808 1.415-1.237 2.122-.177.303-.455.38-.808.177l.025.076zm-1.693-8.665c.228-.353.228-.48-.151-.707-1.036-.606-2.046-1.238-3.208-1.617-.834-.252-1.541-.227-1.92.43-.303.278-.53.732-.354 1.162.177.455.506.91.884 1.212 1.01.86 2.148 1.036 3.284.53.556-.252 1.137-.504 1.49-1.035l-.025.025zm54.79 14.727c.304.53.329 1.087.329 1.617 0 .48-.227.935-.379 1.415-.177.631-.606 1.136-1.086 1.591-.354.354-.884.531-1.339.783-1.036.581-2.198.632-3.36.657-1.793.05-3.612.05-5.405-.051-.43 0-.86-.151-1.263-.252-.506-.152-.682-.581-.834-.96-.152-.379-.177-.783-.152-1.187.076-1.465.177-2.93.278-4.396l.303-4.572c.026-.53 0-.53-.48-.58-.303-.026-.681.1-.858-.279-.127-.202-.253-.454-.253-.682 0-.707.101-1.39.177-2.096.05-.506.379-.809.859-.784.985.051 1.97.127 2.955.152a76.98 76.98 0 004.825.05c.53 0 1.06.076 1.54.329.355.177.759.202 1.087.43a4.28 4.28 0 011.566 1.768c.354.707.329 1.44.43 2.197.05.455-.101.86-.303 1.263-.127.278-.304.506-.405.783-.075.203-.126.43.152.607.783.53 1.238 1.288 1.667 2.096l-.05.101zm-8.866-3.84c0 .253.101.354.354.354.455 0 .934-.025 1.39 0 .504.026.959-.1 1.439-.252.303-.101.632-1.01.48-1.314a1.462 1.462 0 01-.126-.353.622.622 0 00-.455-.556c-.505-.126-1.036-.202-1.566-.278v.076h-1.086c-.228 0-.38.076-.38.379v1.945h-.05zm4.32 4.27c-.505-.606-1.213-.632-1.87-.733-.631-.1-1.313 0-1.945 0-.328 0-.505.177-.53.505 0 .733 0 1.49-.025 2.223 0 .278.126.354.379.354h2.349c.707 0 1.288-.177 1.743-.733.328-.404.252-1.187-.076-1.59l-.025-.026zM56.559 97.93c.127-.252.253-.48.278-.783 0-.252.202-.505.354-.758.227-.353.353-1.364-.253-1.692a2.579 2.579 0 00-.556-.228c-.336-.117-.454-.328-.353-.631 1.086-3.284 2.197-6.568 3.284-9.852.202-.606 0-1.035-.53-1.237a61.437 61.437 0 00-1.971-.708c-.707-.278-.96-.176-1.263.581-.53 1.364-1.086 2.728-1.617 4.093-.101.278-.253.378-.53.252a105.192 105.192 0 01-4.598-1.995c-.328-.152-.354-.329-.202-.632.278-.556.556-1.111.808-1.692.253-.556.556-1.087.657-1.718.101-.53.101-.96-.151-1.39-.152-.252-.278-.555-.506-.681-.96-.556-1.92-1.061-2.88-1.592-.403-.227-.757-.076-1.01.354a47.336 47.336 0 00-1.111 1.92.962.962 0 00-.076.404c-.025.58.43.732.808.934.38.228.404.228.177.607-.859 1.566-1.718 3.107-2.576 4.673-.86 1.566-1.718 3.107-2.552 4.673-.075.126-.075.303-.075.455 0 .353.353.48.631.631.834.455 1.692.91 2.577 1.314.58.278.884.202 1.136-.329.708-1.44 1.415-2.905 2.097-4.344.126-.278.278-.354.581-.203 1.54.758 3.107 1.415 4.698 2.047.53.202.53.202.329.707-.43 1.06-.834 2.147-1.263 3.208-.354.834.151 2.248 1.162 2.627 1.237.48 2.5.91 3.764 1.288.303.102.53 0 .682-.303h.05zm16.9 1.34c-.531.504-1.238.908-1.946 1.237-.707.328-1.465.53-2.248.732-.303.076-.656.076-.96.076-.808 0-1.642-.05-2.45-.101-.934-.227-1.819-.53-2.652-1.01-.303-.177-.657-.278-.935-.48-.682-.43-1.339-.884-1.768-1.566-.328-.53-.809-.986-1.086-1.516-.303-.632-.455-1.314-.632-1.97-.126-.48-.151-.986-.227-1.49v-.102c.227-.91.177-1.869.606-2.728.202-.404.328-.859.606-1.212.581-.708 1.112-1.466 1.844-2.072.556-.43 1.112-.833 1.693-1.162.657-.379 1.364-.606 2.122-.758a9.24 9.24 0 013.99.05c.38.077.759.254 1.138.43.378.177.783.329 1.136.556.43.278.86.581 1.263.935.354.303.682.631.986.985.303.404.606.834.833 1.288.278.556.505 1.162.707 1.768a6.98 6.98 0 01.278 3.739 8.93 8.93 0 01-.808 2.35c-.404.782-.935 1.44-1.541 2.02h.05zm-1.87-7.124a1.71 1.71 0 00-.353-1.036c-.404-.505-.607-1.162-1.213-1.465-.379-.202-.758-.43-1.137-.632-.1-.05-.227-.025-.328-.1-.505-.33-1.086-.228-1.642-.203a2.41 2.41 0 00-1.111.278c-.556.303-1.087.606-1.541 1.112-.43.454-.708.934-.935 1.465-.505 1.136-.505 2.324.05 3.486.582 1.187 1.516 2.046 3.234 2.425.707.202 1.667.075 2.551-.278 1.288-.53 1.996-1.592 2.375-2.83.227-.732.1-1.465.05-2.197v-.025zm53.199-.733c-.303-.606-.657-1.187-.935-1.793-.328-.784-1.288-.657-1.844-.228-.429.329-.934.404-1.288.05-.126-.126-.278-.201-.429-.277-1.061-.505-2.072-1.112-2.931-1.844-.707-.101-.58-.53-.429-1.01.101-.329.101-.657.177-.986.151-.783.328-1.54.429-2.324.101-.657.152-1.339.228-1.995.05-.48.151-.935.176-1.415 0-.227 0-.48-.101-.657-.126-.252-.631-.353-.884-.227-.884.43-1.768.859-2.652 1.314-.152.075-.303.277-.354.454-.101.48-.177.96-.252 1.44-.127.733-.253 1.465-.404 2.223-.076.43-.228.884-.228 1.314 0 .707-.303 1.288-.96 1.566-.454.177-.48.177-.657-.278-.378-1.01-.808-1.996-1.161-3.006-.152-.43-.43-.707-.834-.91-.505-.227-1.036-.379-1.566-.202-.96.329-1.92.657-2.905.96-.278.101-.43.404-.354.733.228.808.455 1.617.733 2.425.126.404.48.53.859.43.202-.051.378-.102.555-.178.303-.126.455 0 .581.303.556 1.693 1.112 3.41 1.667 5.103.531 1.642 1.087 3.31 1.617 4.951.202.581.404.682 1.086.455.809-.253 1.642-.505 2.451-.808.884-.303 1.01-.556.707-1.34a349.678 349.678 0 01-1.768-4.622c-.051-.126-.026-.328.05-.404.404-.379 1.137-.328 1.541 0a44.19 44.19 0 001.718 1.314c.455.328.884.631 1.364.909.556.354 1.036.783 1.667 1.01.531.177 1.086.329 1.642.101a37.507 37.507 0 003.36-1.641c.429-.228.505-.506.303-.885l.025-.025zm-18.844 2.804c-.354-.278-.985-.202-1.238.227-.354.607-.834 1.087-1.389 1.566-.657.556-1.44.783-2.223 1.061-.329.127-.708.05-1.061.102-.91.126-1.743-.177-2.45-.582-.582-.328-.935-.909-1.289-1.465-.404-.631-.404-1.313-.53-1.995-.127-.708 0-1.39.227-2.021.328-.91.935-1.667 1.768-2.122.48-.278 1.036-.43 1.592-.53.454-.076.934.025 1.389.126.328.076.404.404.48.707.177.758.404.884 1.162.733.606-.127 1.162-.43 1.793-.329.076 0 .203-.075.278-.126.101-.05.202-.151.329-.202.278-.126.404-.404.328-.632-.278-.808-.303-1.717-.859-2.45-.353-.455-.758-.833-1.238-1.086-.833-.404-1.717-.606-2.627-.53-.404.025-.833-.026-1.237 0-.53.075-1.087.151-1.592.303-.53.151-1.01.404-1.516.631-.404.202-.833.43-1.212.707-.43.329-.859.682-1.187 1.162-.278.405-.632.758-.884 1.188-.404.707-.783 1.465-.96 2.298-.101.506-.354 1.01-.303 1.49.1 1.163 0 2.375.505 3.512.379.808.606 1.692 1.288 2.35.329.302.581.681.96.934.43.328.985.53 1.415.859.631.454 1.389.581 2.147.732.328.076.707.026 1.06.076.96.126 1.895.051 2.88-.101.632-.227 1.238-.455 1.87-.682.859-.328 1.642-.758 2.273-1.339.682-.631 1.238-1.339 1.819-2.046.278-.328.253-.884-.051-1.162-.555-.505-1.086-1.01-1.667-1.465l-.05.101zm30.514-31.45c.48-.025.96 0 1.415-.277.455-.278.707-.657.935-1.112.252-.48.227-.985.126-1.44-.076-.379-.379-.732-.606-1.06a.82.82 0 00-.329-.253c-.202-.127-.429-.228-.656-.329-.051-.025-.127-.075-.202-.075-.708.025-1.44-.152-1.971.454-.101.127-.379.152-.429.278-.177.455-.43.884-.404 1.44.025.707.252 1.263.808 1.743.354.354.733.657 1.288.631h.025zM95.965 80.904c.43-.151.935 0 1.39-.201.429-.177.934-.152 1.414-.228.43-.05.859-.05 1.288-.227.48-.202 1.061-.202 1.592-.303.126 0 .227-.026.353-.05.884-.203 1.743-.405 2.627-.607h.152c.53-.126 1.036-.278 1.566-.404.051 0 .101 0 .126-.026.379-.151.783-.277 1.162-.429.404-.126.809-.227 1.213-.354.48-.151.935-.328 1.414-.505.329-.1.683-.151.986-.278.53-.202 1.035-.43 1.541-.657.757-.303 1.515-.58 2.248-.909.53-.227 1.061-.53 1.566-.808 1.263-.682 2.526-1.364 3.764-2.046.606-.329 1.162-.733 1.743-1.087.202-.126.379-.303.581-.454.682-.505 1.364-.96 2.021-1.49a63.532 63.532 0 002.349-2.097c.48-.455.96-.91 1.389-1.39.632-.707 1.263-1.44 1.794-2.248.227-.353.48-.707.707-1.086.177-.278.354-.556.505-.834.253-.454.531-.884.758-1.364a19.27 19.27 0 00.808-1.995c.278-.758.556-1.541.733-2.324.151-.733.252-1.49.252-2.223 0-1.415.203-2.855-.176-4.244-.152-.53-.177-1.086-.253-1.617 0-.05 0-.1-.025-.126l-.606-1.591c-.177-.48-.329-.985-.556-1.44-.329-.657-.708-1.288-1.061-1.92-.228-.404-.455-.834-.707-1.213-.253-.378-.581-.732-.859-1.086-.48-.58-.96-1.187-1.465-1.743-.43-.48-.885-.91-1.365-1.338-.808-.733-1.616-1.49-2.45-2.198-.505-.43-1.061-.783-1.591-1.162-.228-.152-.43-.354-.657-.505-.657-.405-1.314-.809-1.97-1.238-.303-.177-.581-.38-.91-.556-.581-.328-1.187-.631-1.768-.934-.505-.278-.985-.581-1.516-.809-.707-.328-1.465-.631-2.172-.934-.227-.102-.455-.152-.682-.253-.455-.202-.884-.404-1.339-.606a90.587 90.587 0 00-2.374-.884 14.15 14.15 0 00-.986-.253 14.39 14.39 0 01-.985-.253 63.899 63.899 0 01-2.046-.656c-.429-.127-.859-.228-1.288-.354-.278-.076-.556-.202-.859-.253a40.318 40.318 0 00-1.718-.252h-.075c-.531-.127-1.036-.278-1.567-.38-.833-.15-1.667-.277-2.5-.404-1.137-.176-2.3-.227-3.436-.454-.884-.202-1.819-.076-2.728-.202-1.692-.227-3.435.076-5.153-.227-.455-.076-.96.1-1.465.126-1.844.126-3.714-.076-5.558.177-1.086.151-2.223.202-3.309.328-.96.101-1.894.303-2.854.404-.859.101-1.718.177-2.551.43-.48.151-1.036.176-1.542.252-.1 0-.176.025-.277.05-.455.127-.91.304-1.364.405-.733.202-1.49.354-2.223.53-.657.177-1.314.38-1.996.581-.278.076-.58.152-.859.253-.353.126-.682.278-1.035.404-.354.126-.708.227-1.036.354a64.59 64.59 0 00-2.021.783c-.404.151-.783.303-1.187.48s-.809.404-1.213.58c-.707.33-1.44.607-2.122.96-.732.38-1.44.834-2.147 1.264-.455.252-.934.43-1.364.707-.556.354-1.086.758-1.642 1.162-.53.379-1.06.758-1.566 1.162-.631.505-1.238 1.036-1.87 1.566-.328.278-.681.53-.984.834-.405.404-.783.833-1.137 1.263-.53.631-1.112 1.238-1.592 1.92-.303.454-.757.783-.96 1.338-.151.405-.454.733-.681 1.112-.253.404-.531.808-.758 1.238-.202.404-.329.833-.506 1.263-.1.252-.126.555-.277.783-.38.58-.43 1.263-.607 1.894-.176.606-.404 1.238-.43 1.87 0 1.667-.176 3.334.153 5.026.252 1.289.58 2.552.985 3.79.075.202.151.404.252.606.177.379.404.758.581 1.111.38.708.783 1.415 1.162 2.122.127.227.253.43.404.606.354.455.733.885 1.087 1.34.303.378.606.782.934 1.136a27.911 27.911 0 001.718 1.743 48.22 48.22 0 001.718 1.465c.505.43 1.01.884 1.54 1.263.556.43 1.188.783 1.769 1.162.328.227.657.455.985.657.455.278.884.556 1.339.834a22 22 0 001.313.732c.657.328 1.364.657 2.021.985.505.253.985.556 1.516.758.833.354 1.692.657 2.551.96.227.076.48.126.733.227.48.202.934.43 1.414.606.809.253 1.642.48 2.45.708.304.076.582.202.885.303.328.101.631.227.96.303.454.101.909.177 1.364.278.53.126 1.06.303 1.591.43.834.176 1.693.302 2.526.454.05 0 .127.025.177.05.53.127 1.036.278 1.566.38.404.075.834 0 1.238.075.58.101 1.162.278 1.768.354.834.1 1.642.025 2.501.202 1.01.202 2.046.202 3.056.253 1.365.05 2.754.075 4.699.151a344.24 344.24 0 004.32-.252c1.06-.076 2.096 0 3.157-.253.808-.202 1.693.05 2.5-.227v-.102zM64.54 46.88c-.026-.683.303-1.213.555-1.794.228-.505.632-.859 1.036-1.187.328-.253.758-.38 1.162-.53.303-.127.632-.178 1.01-.279.48.152.96.303 1.44.43 1.061.303 1.718 1.137 2.425 1.87.329.353.556.807.834 1.237.328.53.682 1.035.985 1.591.354.657.632 1.34.96 2.021.202.404.404.809.581 1.213.101.227.177.48.253.707.227.682.454 1.364.682 2.02l.454 1.213c0 .05 0 .127.026.177.126.455.278.91.404 1.364.025.101.05.202.025.303 0 .101-.05.253-.126.278-.076.026-.228-.025-.303-.1-.38-.279-.733-.582-1.112-.834-.555-.38-1.136-.708-1.692-1.087-.505-.328-.985-.707-1.516-1.035-.303-.177-.631-.303-.934-.455-.405-.177-.784-.379-1.188-.556-.379-.177-.732-.328-1.086-.53-.808-.455-1.617-.884-2.35-1.415-.555-.404-1.01-.985-1.515-1.49-.53-.53-.758-1.213-.985-1.87-.126-.404-.05-.858-.076-1.313l.05.05zm13.54 19.299s-.177.1-.228.1c-.328-.075-.657-.202-.985-.277a10.273 10.273 0 00-1.263-.329c-.632-.126-1.288-.126-1.87-.328-.606-.202-1.263-.076-1.843-.227-.91-.253-1.82-.127-2.729-.177-.985-.025-1.995 0-2.98 0-1.061.05-2.122.05-3.158.252-1.339.253-2.678.38-4.016.455-.708.05-1.44.152-2.148.101a25.492 25.492 0 01-3.107-.404c-.757-.152-1.465-.53-2.197-.783-.682-.253-1.188-.707-1.769-1.112-.555-.404-.884-.96-1.262-1.465-.304-.43-.405-.985-.657-1.465-.329-.657-.202-1.364-.202-2.046 0-.278.126-.556.227-.808.253-.632.455-1.263.91-1.819.454-.556.934-1.036 1.54-1.415.707-.454 1.415-.909 2.274-1.06.53-.102 1.035-.278 1.591-.329.53-.05 1.061 0 1.591 0v-.126c1.011.1 2.021.202 3.032.353.58.076 1.136.203 1.692.354.404.101.809.303 1.213.43.252.1.53.151.783.227.53.202 1.086.43 1.617.657.53.227 1.06.454 1.566.732.303.152.58.38.884.556.555.303 1.111.606 1.642.91a9.35 9.35 0 011.035.707c.38.277.784.555 1.163.833.631.48 1.237.96 1.843 1.465.556.455 1.087.935 1.617 1.44.632.581 1.238 1.187 1.87 1.794.378.378.757.783 1.11 1.187.38.43.759.884 1.138 1.339.05.075.075.202.05.303l.025-.025zM92.124 80.5c-1.187.303-2.425 0-3.587.228-.859.151-1.717.1-2.551.126-.43 0-.53-.101-.53-.581V69.209c0-.38-.228-.632-.304-.935a24.33 24.33 0 00-.404-1.263c-.1-.278-.177-.58-.278-.859-.126-.328-.252-.682-.379-1.01-.303-.758-.606-1.541-.934-2.299-.253-.606-.556-1.212-.808-1.819-.329-.783-.607-1.591-.935-2.374-.253-.632-.581-1.238-.834-1.87-.328-.833-.631-1.692-.96-2.55-.126-.33-.278-.632-.404-.935-.1-.228-.151-.48-.227-.708-.354-1.136-.733-2.248-1.061-3.385-.152-.53-.152-1.086-.354-1.591-.227-.606-.076-1.263-.227-1.819-.202-.657-.126-1.313-.126-1.945 0-.682.025-1.39.227-2.046.278-.985.48-1.97.985-2.88.53-.909 1.086-1.793 1.895-2.475.58-.48 1.212-.935 1.92-1.238.53-.227 1.086-.354 1.641-.53.404-.127.784-.152 1.162-.152.253 0 .38-.101.38-.354v-8.74c0-.43.05-.48.504-.48 1.314 0 2.653 0 3.966.076.935.025 1.895.126 2.83.227.555.05 1.136.026 1.642.203.656.202 1.288.151 1.945.227.429.05.858.1 1.263.202.505.1.985.253 1.49.379h.177l3.107.606c.505.101 1.01.202 1.516.354.606.177 1.212.379 1.844.58l2.955.91c.177.05.354.177.531.253.48.202.959.404 1.439.58.607.253 1.238.455 1.844.708.253.101.48.278.708.404.252.127.53.202.808.303.126.05.253.127.354.177.555.303 1.111.581 1.642.884.454.253.934.506 1.364.783a31.02 31.02 0 011.92 1.213c.606.404 1.212.859 1.818 1.288.581.43 1.087.91 1.667 1.339.96.707 1.769 1.566 2.602 2.45.506.556 1.011 1.112 1.465 1.693.405.505.758 1.01 1.087 1.54a75.204 75.204 0 011.768 3.082c.278.53.404 1.137.606 1.718a4.6 4.6 0 00.202.53l.379 1.137v.101c.101.682.228 1.364.278 2.072.076.985.152 1.97.126 2.955 0 .657-.202 1.339-.303 1.996 0 .1 0 .202-.05.278-.152.58-.278 1.136-.43 1.717-.076.329-.151.682-.278 1.01-.101.33-.277.607-.404.935 0 .026-.025.076-.025.102-.177.631-.48 1.162-.834 1.692-.278.404-.454.884-.707 1.339a9.445 9.445 0 01-.707 1.035 82.937 82.937 0 01-1.87 2.3c-.48.58-.985 1.161-1.54 1.666-.91.834-1.87 1.617-2.804 2.4-.379.303-.834.505-1.238.834-.96.757-2.021 1.338-3.031 1.97-.304.177-.556.379-.859.556-.177.1-.379.177-.556.252-.657.303-1.288.632-1.945.935-.505.227-1.036.455-1.566.682-.733.328-1.465.657-2.198.96-.556.227-1.111.43-1.667.606-.581.202-1.187.43-1.794.632-.505.177-1.035.303-1.541.455-.732.201-1.439.454-2.172.631-.455.126-.935.151-1.415.252-.53.127-1.06.253-1.616.38a.467.467 0 00-.177.05c-.707.101-1.39.202-2.097.303-1.136.152-2.273.202-3.385.455-.682.151-1.364.025-1.995.202l.05-.05z" fill="#F2F3FA"/><path d="M101.169 64.737a9.876 9.876 0 012.854.102c1.137.202 2.324-.05 3.461.227.606.151 1.238.025 1.869.202.758.227 1.617.227 2.425.253 1.44.05 2.88.151 4.32-.127.581-.126 1.187-.202 1.768-.328.278-.05.556-.126.783-.253.505-.227.985-.505 1.465-.783.455-.278.884-.58 1.289-.91.53-.428.909-1.01 1.212-1.59.202-.38.455-.758.505-1.137.152-1.415.202-2.855-.656-4.067a8.127 8.127 0 00-1.693-1.794c-.505-.404-1.162-.682-1.793-.91a7.064 7.064 0 00-1.92-.429c-1.541-.126-3.082-.202-4.623.152-.707.151-1.44.303-2.147.48a18.83 18.83 0 00-2.021.657c-.48.177-.96.379-1.415.606-.353.151-.707.354-1.06.53-.506.253-1.011.455-1.516.708-.303.151-.556.379-.834.556-.656.404-1.339.783-1.97 1.212-.455.303-.834.682-1.263 1.01-.556.43-1.137.784-1.642 1.263a100.617 100.617 0 00-3.334 3.234c-.784.808-1.49 1.667-2.249 2.5 0 .026.05.076.05.102.102 0 .228.025.33 0 .378-.127.732-.303 1.11-.43.506-.151 1.036-.252 1.542-.379.328-.075.656-.227 1.01-.278.48-.075.985-.1 1.49-.176.885-.152 1.794-.127 2.678-.203h-.025zm-7.602-18.566c.026-.606 0-1.212 0-1.819h.102c-.102-1.035-.203-2.096-.304-3.132 0-.05 0-.126-.05-.177-.202-.48-.43-.96-.581-1.44-.303-.934-.859-1.692-1.49-2.425-.607-.707-1.365-1.263-2.173-1.717-.732-.404-1.49-.682-2.324-.758-.1 0-.202-.05-.303-.101-.556-.278-.91-.05-.91.556v26.776c0 2.046-.075 4.117-.1 6.163 0 .127.1.228.176.354.076-.101.177-.227.203-.328.1-.38.176-.783.303-1.162.1-.329.227-.657.353-.986.026-.075.026-.176.076-.277.126-.253.278-.505.379-.783.328-.834.606-1.693.935-2.527.202-.505.454-.985.682-1.49.303-.707.58-1.414.884-2.122.076-.202.126-.404.227-.606.202-.455.455-.91.657-1.39.303-.732.58-1.464.884-2.197.101-.227.177-.48.253-.707.1-.278.252-.556.353-.86.126-.378.253-.757.38-1.161.252-.783.53-1.566.757-2.35.152-.53.303-1.086.404-1.641.101-.556.177-1.112.227-1.668v-.025zm.075 11.418c.505-.379.91-.682 1.339-.985.328-.253.657-.53 1.01-.758a37.735 37.735 0 011.693-1.036c.454-.252.91-.53 1.364-.758.556-.277 1.137-.53 1.667-.808.733-.379 1.465-.758 2.172-1.187a15.558 15.558 0 001.794-1.314c.48-.43.935-.91 1.162-1.566.126-.328.379-.657.404-1.01.076-.506.152-1.01.076-1.567-.076-.631-.329-1.162-.657-1.667-.328-.53-.783-.96-1.389-1.187-.379-.152-.758-.328-1.162-.379-.581-.05-1.162-.126-1.718.177-.379.202-.783.278-1.137.58-.884.733-1.616 1.592-2.248 2.552a29.292 29.292 0 00-.985 1.693c-.379.682-.657 1.414-1.01 2.096-.303.581-.48 1.213-.708 1.82-.151.378-.278.757-.404 1.136-.076.252-.151.505-.252.758-.127.379-.278.758-.405 1.136-.202.607-.404 1.238-.606 1.844-.025.102 0 .203 0 .38v.05z" fill="#F2F3FA"/></svg>