<svg width="117" height="77" fill="none" xmlns="http://www.w3.org/2000/svg"><g opacity=".1"><path d="M115.641 38.392c0 10.38-6.364 19.84-16.784 26.73C88.44 72.008 74.022 76.284 58.07 76.284c-15.951 0-30.37-4.276-40.786-11.162C6.864 58.232.5 48.772.5 38.392c0-10.38 6.364-19.841 16.784-26.73C27.7 4.776 42.12.5 58.07.5c15.952 0 30.37 4.276 40.787 11.162 10.42 6.889 16.784 16.35 16.784 26.73z" stroke="#fff"/><path d="M26.304 23.208l-.432.448c-.328-.328-.742-.724-1.225-1.19-.483-.466-.776-.76-.88-.863l-.034.034c.086.173.241.518.448 1.036.432 1.156.69 1.795.794 1.898l-.345.362c-.155-.155-.742-.431-1.778-.828a26.915 26.915 0 01-1.052-.483l-.035.034c.12.104.432.45.967 1.019.535.57.88.931 1.052 1.104l-.38.397s-.396-.449-1.018-1.19c-.62-.743-1.052-1.226-1.277-1.433l.622-.639c.207.207.69.466 1.432.76.742.293 1.156.483 1.225.552l.035-.035s-.26-.483-.535-1.242c-.294-.76-.552-1.243-.76-1.45l.605-.621c.224.224.69.638 1.397 1.277.708.639 1.105.984 1.174 1.053zm2.916-2.278l-.449.362a1.069 1.069 0 01-.241-.241h-.035c-.069.414-.31.776-.707 1.104-.225.173-.466.26-.725.242-.26 0-.483-.12-.673-.362a1.043 1.043 0 01-.173-1.001c.104-.38.5-.829 1.174-1.364a4.431 4.431 0 00-.121-.172c-.19-.242-.363-.346-.552-.328-.19.017-.415.12-.673.328-.294.241-.57.5-.812.81l-.258-.43a4.41 4.41 0 01.897-.898c.345-.259.656-.397.966-.397.294 0 .57.155.846.5.07.087.19.26.363.5.172.243.293.415.362.484.276.345.535.639.811.88v-.017zm-.95-.173a30.452 30.452 0 01-.62-.776c-.363.276-.622.518-.76.725-.241.345-.259.655-.052.914.207.26.484.242.863-.034.31-.242.5-.518.57-.829zm3.678-2.277l.224.431c-.103.207-.293.397-.587.57-.535.345-1.035.448-1.501.327a1.832 1.832 0 01-1.104-.793c-.277-.45-.38-.915-.277-1.416.104-.5.38-.914.88-1.225.242-.155.466-.259.64-.31l.224.535a2.298 2.298 0 00-.743.293c-.293.19-.466.431-.5.742-.035.31.034.621.224.932.207.328.483.552.846.638.345.087.707.018 1.087-.224.155-.104.345-.276.57-.518l.017.018zm3.432-1.174l-.57.293a23.77 23.77 0 00-.69-1.45 27.02 27.02 0 00-.673-1.242l-.638.328c.069.276.12.552.155.811.035.276.07.535.086.777 0 .241.018.483 0 .707 0 .224-.034.414-.069.587-.034.172-.086.31-.155.431a.707.707 0 01-.242.26l-.293-.501s.104-.104.138-.207a1.97 1.97 0 00.086-.397c.018-.156.035-.345.035-.552 0-.208 0-.432-.017-.656-.018-.242-.052-.483-.087-.742a6.183 6.183 0 00-.155-.777l1.07-.552.414-.294c.207.466.483 1.036.811 1.692.276.517.535 1 .811 1.466l-.017.018zm3.297-3.416c.242.569.259 1.087.052 1.553-.19.466-.518.776-.967.966a1.598 1.598 0 01-1.26 0c-.414-.155-.742-.5-.949-1.018-.241-.587-.258-1.105-.069-1.57a1.67 1.67 0 01.967-.967 1.598 1.598 0 011.26 0c.414.173.742.518.949 1.036h.017zm-.535.362a1.832 1.832 0 00-.656-.829.91.91 0 00-.932-.103c-.328.138-.517.362-.586.69-.07.328-.035.673.103 1.018.138.363.363.639.656.829.293.207.604.224.932.103.328-.138.518-.362.587-.69a1.677 1.677 0 00-.104-1v-.018zm5.315-.45c.034.121.103.415.19.88.086.466.172.829.241 1.07l-.414.138a65.55 65.55 0 00-.466-1.466c-.328.086-.777.224-1.346.396-.362.121-.76.242-1.173.397.103.708.207 1.226.293 1.52l-.414.137c-.07-.207-.156-.5-.276-.88-.121-.38-.225-.707-.328-1l.345-.104c-.035-.915.069-2.002.31-3.245l1.001-.31.45-.208c.12.5.293 1.088.517 1.795.086.276.224.656.431 1.122l.656-.207-.017-.035zm-1.191.363c-.173-.449-.293-.829-.397-1.14a21.966 21.966 0 00-.431-1.276l-.604.19c-.07.31-.121.707-.19 1.208-.052.5-.07 1.018-.052 1.535l1.674-.517zm4.488-2.865c.017.104.051.242.086.414l-2.434.604c.104.345.311.604.605.777.293.172.655.224 1.052.12a4.15 4.15 0 00.984-.362l.052.518c-.207.155-.535.276-.984.38-.621.138-1.122.086-1.536-.173-.397-.259-.656-.638-.776-1.122-.121-.518-.07-1 .138-1.432.207-.449.569-.725 1.052-.846.466-.103.846-.052 1.14.156.293.207.5.535.603.966h.018zm-.604.138c-.156-.673-.518-.932-1.07-.811-.57.138-.829.552-.76 1.277l1.83-.466zm4.711 1.346l-.621.104a19.283 19.283 0 00-.207-1.588c-.086-.483-.155-.95-.259-1.398l-.725.12-.103.83c-.052.275-.104.517-.156.758a16.23 16.23 0 01-.207.674c-.086.207-.155.38-.258.534-.087.156-.19.277-.294.363-.103.086-.207.155-.31.173l-.121-.57s.12-.069.19-.155c.069-.086.138-.207.207-.345a4.02 4.02 0 00.207-.518c.069-.19.12-.414.19-.639.069-.224.103-.466.155-.725.052-.258.069-.517.103-.776l1.191-.19.483-.155c.052.5.138 1.121.242 1.864.086.57.19 1.121.31 1.64h-.017zm3.693-1.554a.986.986 0 01-.38.915c-.293.242-.62.363-1.018.414-.19.018-.62.052-1.26.104-.017-.483-.068-1.036-.12-1.674a11.985 11.985 0 00-.294-1.76l.69-.173c0 .31.035.777.104 1.38.242-.068.449-.12.604-.12 1.036-.104 1.588.207 1.657.915h.017zm-.552.121c-.052-.448-.397-.655-1.07-.586-.12 0-.328.051-.621.12.034.432.086.846.138 1.26.242 0 .466 0 .673-.017.621-.052.915-.31.863-.76l.017-.017zm4.348.899h-.638a24.16 24.16 0 000-1.588l-1.743.051c0 .553.052 1.088.104 1.605h-.639c.018-.466.035-1.035 0-1.656a11.21 11.21 0 00-.172-1.76l.707-.122v1.467l1.743-.051a11.15 11.15 0 00-.155-1.364l.708-.12a33.239 33.239 0 000 1.863c0 .587.051 1.14.103 1.674h-.017zm3.745-1.07c0 .379-.172.655-.483.862-.31.19-.656.276-1.035.259-.19 0-.587-.034-1.14-.07a21.16 21.16 0 00.104-1.673c.035-.708 0-1.294-.052-1.778l.69-.069c-.034.311-.068.76-.086 1.381a2.56 2.56 0 01.5-.052c1.036.052 1.554.414 1.52 1.122l-.018.017zm-.57.034c.018-.449-.31-.69-.966-.725-.12 0-.293 0-.5.034-.017.432-.035.846-.035 1.26.173.035.363.052.57.07.604.017.914-.19.932-.64zm1.71 1.173l-.64-.034a20.29 20.29 0 00.121-1.674c.035-.708 0-1.295-.051-1.778l.707-.069c-.051.5-.103 1.122-.12 1.864-.018.587-.035 1.139 0 1.674l-.018.017zm3.969.467l-.655-.087c.086-.414.172-.966.258-1.657.018-.19.07-.483.138-.88h-.034c-.07.156-.449.553-1.156 1.191-.656.604-1.001.984-1.018 1.122l-.518-.07c.086-.482.172-1.035.259-1.656.086-.707.12-1.294.086-1.777h.725c-.087.431-.173 1-.26 1.69-.034.242-.068.553-.137.933h.034c.07-.138.449-.535 1.14-1.191.655-.604.983-.984 1-1.122l.535-.034c-.086.5-.172 1.121-.276 1.846-.069.587-.12 1.14-.155 1.657l.034.034zm.294-5.04c-.035.26-.138.5-.345.69-.19.19-.5.26-.898.225-.414-.052-.707-.19-.846-.432-.138-.241-.207-.483-.172-.759h.535c-.052.483.12.742.535.794.242.034.414 0 .518-.12a.884.884 0 00.19-.519l.483.138v-.017zm5.298 6.161l-.639-.155s-.034-.104-.051-.208c-.035-.535-.121-.914-.26-1.139a.942.942 0 00-.62-.448c-.104-.018-.225-.052-.38-.087-.12.553-.224 1.053-.293 1.52l-.639-.139c.138-.466.293-1 .431-1.622.156-.69.242-1.277.26-1.76l.724.069c-.138.448-.259.949-.397 1.501.138.034.26.069.38.086.535.121 1-.224 1.398-1.035a.942.942 0 01.12-.155l.587.137s-.103.139-.19.277c-.448.69-.845 1.052-1.208 1.104v.035c.208.12.363.293.466.552.104.242.173.587.225 1.035 0 .138.034.277.069.432h.017zm4.47-.569c-.19.604-.5 1-.949 1.225-.448.224-.897.276-1.363.12a1.669 1.669 0 01-.984-.793c-.224-.397-.241-.863-.069-1.398.19-.604.5-1.018.95-1.242.448-.225.897-.277 1.363-.121.431.138.76.397.966.794.207.396.242.862.07 1.397l.016.018zm-.638-.052c.12-.362.12-.708.034-1.053a.904.904 0 00-.638-.673.93.93 0 00-.898.155c-.258.208-.448.5-.569.846-.12.363-.12.725-.035 1.053.087.345.311.57.656.673a.93.93 0 00.898-.155c.259-.208.448-.5.552-.846zm4.727 3.728l-.57-.242c.173-.414.398-.95.674-1.57.259-.622.414-1.001.483-1.14h-.052c-.138.121-.397.397-.794.777-.931.811-1.415 1.294-1.484 1.433l-.466-.19c.087-.19.121-.846.138-1.968 0-.258.018-.638.07-1.156h-.035c-.07.12-.259.552-.604 1.26-.345.707-.552 1.173-.656 1.38l-.5-.224s.276-.518.742-1.38c.466-.846.759-1.416.88-1.709l.828.345c-.12.276-.172.811-.19 1.605 0 .794-.034 1.243-.069 1.346h.035s.362-.397.949-.932c.604-.535.966-.949 1.087-1.242l.794.345c-.12.293-.345.88-.69 1.76-.328.898-.518 1.38-.57 1.484v.018zm4.711.621c-.31.535-.69.845-1.174.949a1.882 1.882 0 01-1.363-.207c-.57-.328-.846-.777-.811-1.33.017-.43.241-1 .638-1.725.449-.794.95-1.277 1.519-1.432.449-.138.984-.07 1.605.207.345.155.742.31 1.156.483l-.31.5c-.19-.086-.587-.276-1.174-.534-.466-.19-.828-.26-1.087-.208-.345.07-.673.363-.967.88h.035c.431-.137.88-.086 1.329.173.414.225.673.535.828.932.138.397.07.828-.207 1.312h-.017zm-.621-.207c.19-.328.258-.639.224-.95-.035-.31-.207-.552-.535-.724-.432-.26-.863-.294-1.277-.121-.363.638-.552 1.156-.552 1.536 0 .38.172.655.5.863.293.172.604.19.915.069.31-.121.552-.346.725-.656v-.018zm2.797 3.934l-.535-.379c.276-.31.622-.76 1.036-1.312.12-.155.293-.396.552-.69h-.035c-.138.086-.673.242-1.587.449-.88.207-1.346.362-1.433.483l-.414-.31c.31-.38.656-.812 1.036-1.312.414-.57.724-1.07.949-1.502l.638.346c-.293.345-.638.793-1.052 1.363-.138.19-.346.449-.57.742h.035c.138-.07.655-.224 1.587-.449.863-.207 1.346-.38 1.415-.483l.484.224c-.328.397-.708.88-1.14 1.485a28.33 28.33 0 00-.948 1.38l-.018-.034zm2.848 2.64l-.466-.448c.345-.311.725-.69 1.156-1.122l-1.26-1.208a17.3 17.3 0 00-1.07 1.208l-.466-.449c.363-.328.76-.725 1.191-1.173.483-.518.863-.967 1.122-1.38l.587.413c-.138.121-.484.466-1.053 1.036l1.26 1.208c.362-.397.656-.76.863-1.07l.586.414c-.38.345-.81.794-1.329 1.329a35.24 35.24 0 00-1.121 1.242zm2.33 2.865l-.38-.431c.069-.104.155-.173.241-.242v-.035c-.414-.069-.776-.31-1.104-.707a1.166 1.166 0 01-.259-.725c0-.259.12-.483.362-.673a1.095 1.095 0 011.001-.19c.38.104.829.5 1.38 1.174a3.72 3.72 0 00.174-.121c.241-.19.345-.38.327-.552-.017-.19-.138-.415-.328-.656-.241-.294-.5-.57-.81-.794l.43-.259c.312.224.605.518.898.898.276.345.397.655.414.949 0 .293-.155.586-.5.845-.086.07-.259.19-.5.38-.242.172-.398.293-.484.362a6.8 6.8 0 00-.88.811l.017-.034zm.155-.95c.276-.24.535-.448.776-.638-.276-.362-.517-.621-.725-.76-.345-.24-.655-.258-.914-.034-.26.207-.242.484.034.863.242.31.518.5.829.57zm4.659 2.315l-.483.24a11.867 11.867 0 00-.518-1.052c-.293.155-.69.362-1.156.639-.518.293-.984.57-1.433.862l-.328-.586c.45-.207.932-.466 1.485-.777.448-.259.828-.483 1.139-.673-.19-.328-.397-.673-.622-1l.484-.243 1.45 2.572-.018.017zm-2.278 24.695c.38.431.776.863 1.156 1.311.12.139.12.328-.052.466a32.279 32.279 0 01-2.416 1.95c-.224.156-.518.121-.777.087-.57-.052-.81-.449-1.087-.811-.742-.95-1.467-1.916-2.209-2.865-.069-.104-.207-.138-.31-.225-.018.018-.052.035-.07.052 0 .656 0 1.295-.034 1.95 0 .415-.017.846-.052 1.26-.034.552-.103 1.087-.155 1.64-.052.587-.07 1.156-.12 1.743 0 .138.016.276-.035.397-.07.172-.139.38-.294.483a22.18 22.18 0 01-1.933 1.173c-.293.173-.483.104-.638-.138l-3.624-6.316c-.173-.31-.173-.293-.466-.138-.19.103-.38.328-.621.155-.156-.103-.346-.207-.45-.362-.224-.328-.379-.69-.586-1.036-.224-.362-.155-.776.242-.966.57-.276 1.104-.604 1.656-.915.38-.224.811-.12 1.174.035.224.103.449.345.587.57.759 1.138 1.484 2.295 2.226 3.45.052.087.12.139.172.225.035 0 .052 0 .087-.017l.103-1.001c.052-.621.07-1.26.087-1.881 0-.483-.018-.967 0-1.45 0-.448.034-.88.034-1.328 0-.484-.034-.967-.052-1.45 0-.086.035-.19.104-.242.5-.397 1-.828 1.519-1.225.207-.173.535-.086.742.155 1.311 1.536 2.623 3.072 3.934 4.625.242.294.5.57.742.88.138.19.26.156.45 0 .154-.12.344-.241.517-.328a.369.369 0 01.466.087h-.017zm9.491-10.907c-.328-.035-.604.052-.776.431-.173.346-.363.415-.604.242-1.933-1.38-3.849-2.761-5.782-4.142-.345-.241-.724-.155-.949.173-.328.466-.69.914-1.018 1.38a.592.592 0 00-.086.38c.017.19.086.397.138.587.12.449.259.88.362 1.329.086.38.121.776.207 1.173.121.553.242 1.105.345 1.657.035.138 0 .293.035.431.12.587.242 1.157.362 1.76-.241.104-.362.07-.5-.051a205.397 205.397 0 00-2.83-2.692c-.173-.156-.38-.26-.587-.363a1.149 1.149 0 00-1.243.156c-.57.483-1.104 1.018-1.64 1.536-.189.19-.189.362 0 .569.38.431.76.846 1.14 1.26.103.12.224.155.414.138.242-.035.362-.19.5-.328.242-.224.242-.224.466 0l4.97 5.28c.208.225.467.225.743-.034a24.354 24.354 0 001.622-1.64.999.999 0 00.207-.569c0-.431-.086-.845-.138-1.26-.052-.396-.121-.793-.173-1.19a70.113 70.113 0 00-.276-1.916 42.889 42.889 0 00-.552-2.588c0-.052 0-.139.052-.19.017-.035.103 0 .155 0 .052 0 .104.051.138.086.967.777 1.933 1.57 2.899 2.347.242.19.466.397.829.414.518.035 1.018-.017 1.415-.517a34.53 34.53 0 001.726-2.347c.155-.225.121-.398-.069-.518-.276-.173-.553-.345-.794-.553-.207-.155-.328-.431-.656-.465l-.052.034zM24.371 44.28l.587-.639c.138-.155.19-.345.086-.466-.224-.293-.5-.552-.742-.828-.086-.104-.19-.19-.293-.294-.173-.138-.328-.293-.518-.396-.086-.035-.242.034-.345.086-.121.069-.207.172-.31.276a314.754 314.754 0 00-3.452 3.383c-.121.12-.242.207-.432.12-.241-.103-.483-.19-.725-.31-.241-.121-.5-.225-.707-.397-.363-.328-.673-.725-1.001-1.105-.293-.328-.38-.725-.38-1.104 0-.587.328-1.018.725-1.38.38-.346.794-.64 1.174-.967.5-.414 1.018-.811 1.501-1.26.431-.38.57-1.105.276-1.553-.397-.639-.846-1.277-1.277-1.916-.155-.242-.5-.328-.673-.224-.518.345-1.018.69-1.519 1.035-.069.052-.103.19-.12.276-.035.294.172.484.327.69.138.173.121.277-.069.432-.863.673-1.88 1.156-2.588 2.037-.173.224-.363.465-.518.724a2.96 2.96 0 00-.362 1.295c-.035.5-.035 1 .155 1.501.069.155.104.328.173.483.12.294.224.622.414.88.638.812 1.242 1.674 2.122 2.227.225.138.45.258.69.362.311.138.432.414.242.604-1.156 1.122-2.312 2.26-3.469 3.383-.293.276-.276.465.07.81.5.518 1.018 1.019 1.535 1.502.397.363.57.363.863.035 1.502-1.623 2.986-3.262 4.47-4.884l4.038-4.401.052-.017zm1.467 17.36a34.779 34.779 0 01-2.399-1.5c-.345-.242-.414-.605-.5-.95-.035-.103-.035-.207-.07-.345-.776.07-1.483-.086-2.208-.414-.57-.259-1.053-.621-1.519-1.035-.173-.139-.293-.346-.431-.518a4.146 4.146 0 01-.915-1.95c-.035-.26-.086-.535-.052-.777.052-.362.104-.76.276-1.07.328-.587.777-1.087 1.398-1.38.328-.156.673-.311 1.018-.363.346-.052.725 0 1.088.052.328.052.655.12.983.207.19.052.38.155.57.224.586.225 1.087.587 1.64.846.465.224.88.483 1.294.76.12.068.19.034.258-.07.277-.448.346-1.225-.207-1.587-.362-.242-.69-.5-1.052-.742-.277-.19-.38-.156-.587.103-.138.173-.259.38-.518.328a1.314 1.314 0 01-.69-.38 2.855 2.855 0 00-.622-.483c-.31-.207-.534-.466-.586-.828 0-.052.017-.138.069-.19.276-.328.517-.673.828-.95.19-.172.466-.24.69-.327.397-.173.794-.121 1.191.034.087.035.207 0 .294.035.31.12.638.259.932.397.5.241.983.5 1.397.88.466.449.984.846 1.312 1.415.38.656.604 1.363.518 2.174-.035.363-.156.674-.242 1.019-.224.81-.76 1.432-1.156 2.14-.432.776-.915 1.535-1.38 2.278-.122.19-.07.293.12.414.207.138.397.293.57.466.138.138.172.293.069.466-.294.483-.553.966-.846 1.45-.12.206-.31.258-.552.12l.017.052zm-1.156-5.919c.155-.241.155-.327-.104-.483-.707-.414-1.398-.845-2.191-1.104-.57-.173-1.053-.156-1.312.293-.207.19-.363.5-.242.794.121.31.345.621.604.828.69.587 1.467.708 2.244.363.38-.173.776-.345 1.018-.708l-.017.017zm37.431 10.062c.208.362.225.742.225 1.104 0 .328-.156.639-.26.967-.12.431-.413.776-.741 1.087-.242.242-.604.362-.915.535-.707.397-1.501.431-2.295.449a43.951 43.951 0 01-3.693-.035c-.294 0-.587-.103-.863-.173-.345-.103-.466-.397-.57-.655-.103-.26-.12-.535-.103-.811.052-1.001.12-2.002.19-3.003l.207-3.124c.017-.362 0-.362-.328-.397-.207-.017-.466.07-.587-.19-.086-.138-.172-.31-.172-.466 0-.483.069-.949.12-1.432.035-.345.26-.552.587-.535.673.035 1.346.086 2.02.104 1.104.051 2.208.051 3.295.034.363 0 .725.052 1.053.224.242.121.518.139.742.294.449.293.811.673 1.07 1.208.242.483.225.983.294 1.501.034.31-.07.587-.207.863-.087.19-.208.345-.277.535-.051.138-.086.294.104.414.535.363.846.88 1.139 1.433l-.035.069zm-6.057-2.623c0 .172.069.241.242.241.31 0 .638-.017.949 0 .345.017.656-.069.983-.172.208-.07.432-.69.328-.898a.995.995 0 01-.086-.241.425.425 0 00-.31-.38 10.625 10.625 0 00-1.07-.19v.052h-.743c-.155 0-.258.052-.258.259v1.329h-.035zm2.951 2.916c-.345-.414-.828-.431-1.277-.5-.431-.07-.897 0-1.329 0-.224 0-.345.12-.362.345 0 .5 0 1.018-.017 1.518 0 .19.086.242.258.242h1.605c.484 0 .88-.12 1.191-.5.224-.277.173-.811-.052-1.088l-.017-.017zm-20.364.829c.086-.173.173-.329.19-.536 0-.172.138-.345.242-.517.155-.242.241-.932-.173-1.157a1.767 1.767 0 00-.38-.155c-.23-.08-.31-.224-.241-.431.742-2.244 1.501-4.487 2.243-6.73.138-.415 0-.708-.362-.846-.449-.173-.898-.328-1.346-.484-.483-.19-.656-.12-.863.397-.363.932-.742 1.864-1.105 2.796-.069.19-.172.259-.362.173a71.893 71.893 0 01-3.141-1.364c-.224-.103-.242-.224-.138-.431.19-.38.38-.76.552-1.156.173-.38.38-.742.449-1.174.069-.362.069-.656-.104-.949-.103-.173-.19-.38-.345-.466-.656-.38-1.311-.725-1.967-1.087-.276-.156-.518-.052-.69.241-.26.432-.518.863-.76 1.312a.657.657 0 00-.052.276c-.017.397.294.5.553.639.259.155.276.155.12.414-.586 1.07-1.173 2.122-1.76 3.192-.587 1.07-1.173 2.123-1.743 3.193-.052.086-.052.207-.052.31 0 .242.242.329.432.432.57.31 1.156.621 1.76.898.397.19.604.138.777-.225a229.9 229.9 0 001.432-2.968c.086-.19.19-.242.397-.138 1.053.518 2.123.966 3.21 1.398.362.138.362.138.224.483-.293.725-.57 1.467-.863 2.192-.241.57.104 1.535.794 1.794.846.328 1.709.622 2.572.88.207.07.362 0 .466-.207h.034zm11.545.914c-.362.345-.845.621-1.328.846-.484.224-1.001.362-1.536.5-.207.052-.449.052-.656.052-.552 0-1.122-.034-1.674-.07-.639-.154-1.243-.361-1.812-.69-.207-.12-.449-.19-.639-.327-.466-.294-.914-.604-1.208-1.07-.224-.363-.552-.673-.742-1.036-.207-.431-.31-.897-.431-1.346-.087-.328-.104-.673-.156-1.018v-.069c.156-.621.121-1.277.415-1.864.138-.276.224-.587.414-.828.397-.483.76-1.001 1.26-1.415.38-.294.759-.57 1.156-.794.449-.259.932-.414 1.45-.518a6.314 6.314 0 012.726.035c.26.051.518.172.777.293.259.12.535.224.776.38.294.19.587.397.863.638.242.207.466.432.673.673.207.276.415.57.57.88.19.38.345.794.483 1.208a4.77 4.77 0 01.19 2.555 6.107 6.107 0 01-.552 1.605 5.23 5.23 0 01-1.053 1.38h.034zm-1.277-4.867a1.17 1.17 0 00-.241-.707c-.276-.345-.414-.794-.829-1.001-.258-.138-.517-.293-.776-.431-.07-.035-.155-.018-.224-.07-.346-.224-.743-.155-1.122-.138-.26 0-.535.07-.76.19-.38.207-.742.414-1.052.76a3.28 3.28 0 00-.639 1 2.746 2.746 0 00.035 2.382c.397.811 1.035 1.398 2.209 1.657.483.138 1.139.052 1.743-.19.88-.362 1.363-1.087 1.622-1.933.155-.5.069-1 .034-1.501v-.017zm36.345-.5c-.207-.414-.449-.811-.639-1.225-.224-.535-.88-.449-1.26-.156-.293.225-.638.276-.88.035-.086-.086-.19-.138-.293-.19-.725-.345-1.415-.76-2.002-1.26-.483-.069-.397-.362-.293-.69.069-.224.069-.449.12-.673.104-.535.225-1.053.294-1.588.069-.448.103-.914.155-1.363.035-.328.104-.639.121-.966 0-.156 0-.328-.069-.45-.086-.172-.431-.24-.604-.155-.604.294-1.208.587-1.812.898a.551.551 0 00-.242.31c-.069.328-.12.656-.172.984-.087.5-.173 1.001-.276 1.519-.052.293-.156.604-.156.897 0 .483-.207.88-.655 1.07-.311.121-.328.121-.45-.19-.258-.69-.551-1.363-.793-2.053-.103-.294-.293-.484-.57-.622-.345-.155-.707-.259-1.07-.138-.655.225-1.311.449-1.984.656-.19.07-.293.276-.242.5.156.553.31 1.105.5 1.657.087.276.329.363.588.294a2.64 2.64 0 00.38-.121c.206-.086.31 0 .396.207.38 1.156.76 2.33 1.14 3.486.362 1.122.741 2.26 1.104 3.382.138.397.276.466.742.311.552-.172 1.121-.345 1.674-.552.604-.207.69-.38.483-.915a235.866 235.866 0 01-1.208-3.158c-.035-.086-.017-.224.034-.276.277-.259.777-.224 1.053 0 .38.31.777.604 1.174.897.31.225.604.432.931.622.38.241.708.535 1.14.69.362.12.742.224 1.121.069a25.568 25.568 0 002.295-1.122c.294-.155.346-.345.208-.604l.017-.017zm-12.874 1.916c-.242-.19-.673-.138-.846.155-.242.414-.57.742-.95 1.07-.448.38-.983.535-1.518.725-.224.086-.483.034-.725.069-.62.086-1.19-.121-1.674-.397-.397-.224-.638-.621-.88-1.001-.276-.432-.276-.898-.362-1.364-.086-.483 0-.949.155-1.38.225-.621.639-1.14 1.208-1.45.328-.19.708-.293 1.087-.362.311-.052.639.017.95.086.224.052.276.276.328.483.12.518.276.604.793.5.415-.085.794-.293 1.226-.224.051 0 .138-.051.19-.086.069-.034.138-.103.224-.138.19-.086.276-.276.224-.431-.19-.552-.207-1.174-.587-1.674-.241-.31-.517-.57-.845-.742-.57-.276-1.174-.415-1.795-.363-.276.017-.57-.017-.846 0-.362.052-.742.104-1.087.207-.362.104-.69.276-1.035.432-.276.138-.57.293-.829.483-.293.224-.586.466-.81.794-.19.276-.432.518-.605.81-.276.484-.535 1.002-.656 1.571-.069.346-.241.69-.207 1.019.07.793 0 1.622.346 2.398.258.553.414 1.157.88 1.605.224.207.397.466.655.639.294.224.673.362.967.587.431.31.949.397 1.467.5.224.052.483.017.725.052.655.086 1.294.034 1.967-.07.431-.154.846-.31 1.277-.465.587-.225 1.122-.518 1.553-.915.466-.431.846-.914 1.243-1.398.19-.224.172-.604-.035-.794-.38-.345-.742-.69-1.139-1l-.034.069zm20.847-21.486c.328-.017.656 0 .966-.19.31-.19.484-.449.639-.76.172-.327.155-.672.086-.983-.052-.259-.259-.5-.414-.725a.561.561 0 00-.224-.172 3.625 3.625 0 00-.45-.225c-.034-.017-.085-.051-.137-.051-.483.017-.984-.104-1.346.31-.07.087-.26.104-.294.19-.12.31-.293.604-.276.984.017.483.173.863.553 1.19.241.242.5.45.88.432h.017zM65.566 55.273c.293-.104.638 0 .95-.138.292-.121.638-.104.965-.156.294-.034.587-.034.88-.155.328-.138.725-.138 1.088-.207.086 0 .155-.017.242-.035.603-.138 1.19-.276 1.794-.414h.104c.362-.086.707-.19 1.07-.276.034 0 .069 0 .086-.017.259-.104.535-.19.794-.294.276-.086.552-.155.828-.241.328-.104.639-.225.967-.345.224-.07.466-.104.673-.19.362-.138.707-.294 1.052-.449.518-.207 1.036-.397 1.536-.621.363-.155.725-.362 1.07-.552.863-.466 1.726-.932 2.572-1.398.414-.225.794-.5 1.19-.742.139-.087.26-.207.397-.31.466-.346.932-.657 1.381-1.02a42.745 42.745 0 001.605-1.431c.328-.311.656-.622.95-.95.43-.483.862-.983 1.224-1.536.156-.241.328-.483.484-.742.12-.19.241-.38.345-.57.172-.31.362-.603.518-.931.207-.449.397-.897.552-1.363.19-.518.38-1.053.5-1.588a7.55 7.55 0 00.173-1.519c0-.966.138-1.95-.12-2.9-.104-.361-.122-.741-.174-1.104 0-.034 0-.069-.017-.086l-.414-1.087c-.12-.328-.224-.673-.38-.984-.224-.448-.483-.88-.724-1.311-.156-.277-.311-.57-.484-.829-.172-.259-.397-.5-.586-.742-.328-.397-.656-.81-1.001-1.19a11.657 11.657 0 00-.932-.915c-.553-.5-1.105-1.018-1.674-1.502-.345-.293-.725-.535-1.087-.793-.156-.104-.294-.242-.45-.346-.448-.276-.897-.552-1.345-.845-.207-.121-.397-.26-.622-.38-.397-.224-.81-.431-1.208-.638-.345-.19-.673-.397-1.035-.553-.483-.224-1.001-.431-1.484-.638-.156-.07-.31-.104-.466-.173-.31-.138-.604-.276-.915-.414a61.475 61.475 0 00-1.622-.604c-.224-.069-.449-.12-.673-.173a9.226 9.226 0 01-.673-.172 43.613 43.613 0 01-1.398-.449c-.293-.086-.587-.155-.88-.241-.19-.052-.38-.139-.587-.173-.397-.07-.776-.12-1.173-.173h-.052c-.362-.086-.708-.19-1.07-.258-.57-.104-1.14-.19-1.709-.277-.776-.12-1.57-.155-2.347-.31-.604-.138-1.242-.052-1.864-.138-1.156-.156-2.346.052-3.52-.156-.31-.051-.656.07-1.001.087-1.26.086-2.537-.052-3.797.12-.742.104-1.518.139-2.26.225-.656.069-1.295.207-1.95.276-.587.069-1.174.12-1.744.293-.327.104-.707.121-1.052.173-.07 0-.121.017-.19.034-.31.087-.621.208-.932.277-.5.138-1.018.241-1.519.362-.448.12-.897.259-1.363.397-.19.052-.397.103-.587.172-.241.087-.466.19-.707.277-.242.086-.483.155-.708.241-.466.173-.915.345-1.38.535a16.22 16.22 0 00-.812.328c-.276.12-.552.276-.828.397-.483.224-.984.414-1.45.656-.5.259-.983.57-1.467.863-.31.172-.638.293-.931.483-.38.241-.742.518-1.122.794-.362.259-.725.517-1.07.794-.431.345-.846.707-1.277 1.07-.224.19-.466.362-.673.569-.276.276-.535.57-.777.863-.362.431-.76.846-1.087 1.311-.207.311-.518.535-.656.915-.103.276-.31.5-.466.76-.172.276-.362.552-.517.845-.139.276-.225.57-.346.863-.069.173-.086.38-.19.535-.258.397-.293.863-.414 1.294-.12.414-.276.846-.293 1.277 0 1.14-.12 2.278.104 3.435.172.88.396 1.743.672 2.588.052.138.104.276.173.414.12.26.276.518.397.76.259.483.535.966.794 1.45.086.155.172.293.276.414.242.31.5.604.742.914.207.26.414.535.639.777.38.414.759.81 1.173 1.19.38.346.777.674 1.174 1.002.345.293.69.604 1.052.862.38.294.812.535 1.208.794.225.156.45.31.674.449.31.19.604.38.914.57.294.172.587.345.898.5.448.224.931.449 1.38.673.345.173.673.38 1.036.518.57.241 1.156.448 1.743.656.155.051.328.086.5.155.328.138.639.293.966.414.553.173 1.122.328 1.674.483.208.052.397.138.604.207.225.07.432.156.656.207.31.07.621.121.932.19.363.087.725.207 1.087.294.57.12 1.157.207 1.726.31a.32.32 0 01.121.035c.362.086.708.19 1.07.259.276.051.57 0 .846.051.397.07.793.19 1.208.242.57.069 1.121.017 1.708.138.69.138 1.398.138 2.088.173.932.034 1.881.051 3.21.103.725-.034 1.847-.103 2.951-.172.725-.052 1.433 0 2.157-.173.553-.138 1.157.035 1.709-.155v-.07zM44.097 32.027c-.017-.466.208-.829.38-1.226.156-.345.432-.586.708-.81.224-.173.517-.26.794-.363.207-.086.431-.12.69-.19.328.104.656.207.984.294.724.207 1.173.776 1.656 1.277.225.241.38.552.57.845.224.363.466.708.673 1.087.241.449.431.915.656 1.381.138.276.276.552.397.828.069.156.12.328.172.483.155.466.31.932.466 1.381l.31.828c0 .035 0 .087.018.121.086.311.19.622.276.932.017.07.035.138.017.207 0 .07-.034.173-.086.19-.052.017-.155-.017-.207-.069-.259-.19-.5-.397-.76-.57-.38-.258-.776-.483-1.156-.742-.345-.224-.673-.483-1.035-.707-.207-.12-.431-.207-.639-.31-.276-.121-.535-.26-.81-.38-.26-.121-.501-.225-.743-.363-.552-.31-1.104-.604-1.605-.966-.38-.276-.69-.673-1.035-1.018-.363-.363-.518-.829-.673-1.277-.087-.276-.035-.587-.052-.898l.034.035zm9.25 13.184s-.12.07-.155.07c-.224-.052-.449-.139-.673-.19a7.01 7.01 0 00-.863-.225c-.431-.086-.88-.086-1.277-.224-.414-.138-.863-.052-1.26-.155-.62-.173-1.242-.087-1.863-.121-.673-.017-1.364 0-2.037 0-.725.034-1.45.034-2.157.172-.915.173-1.83.26-2.744.311-.483.035-.984.104-1.467.07a17.39 17.39 0 01-2.123-.277c-.517-.104-1-.362-1.5-.535-.467-.173-.812-.483-1.209-.76-.38-.275-.604-.655-.863-1-.207-.294-.276-.673-.448-1.001-.225-.449-.139-.932-.139-1.398 0-.19.087-.38.156-.552.172-.432.31-.863.621-1.243.31-.38.639-.707 1.053-.966.483-.31.966-.621 1.553-.725.362-.07.707-.19 1.087-.224.362-.035.725 0 1.087 0v-.087c.69.07 1.381.138 2.071.242.397.052.777.138 1.156.242.277.069.553.207.829.293.172.069.362.103.535.155.362.138.742.294 1.104.449.363.155.725.31 1.07.5.207.104.397.26.604.38.38.207.76.414 1.122.621.242.138.483.31.708.483.258.19.535.38.793.57.432.328.846.656 1.26 1 .38.312.742.64 1.105.985.431.397.845.81 1.277 1.225.259.259.518.535.76.811.258.293.517.604.776.915a.283.283 0 01.034.207l.018-.017zm9.596 9.786c-.811.207-1.657 0-2.45.155-.588.103-1.174.069-1.744.086-.293 0-.362-.069-.362-.397v-7.559c0-.258-.156-.431-.207-.638a16.61 16.61 0 00-.276-.863c-.07-.19-.121-.397-.19-.587-.087-.224-.173-.466-.26-.69-.206-.518-.413-1.053-.638-1.57-.172-.415-.38-.829-.552-1.243-.224-.535-.414-1.087-.638-1.622-.173-.432-.397-.846-.57-1.277-.224-.57-.431-1.157-.656-1.743-.086-.225-.19-.432-.276-.639-.069-.155-.103-.328-.155-.483-.242-.777-.5-1.536-.725-2.313-.103-.362-.103-.742-.242-1.087-.155-.414-.051-.863-.155-1.242-.138-.45-.086-.898-.086-1.33 0-.465.017-.948.155-1.397.19-.673.328-1.346.673-1.967.363-.622.742-1.226 1.294-1.692.397-.328.829-.638 1.312-.845.362-.156.742-.242 1.122-.363.276-.086.535-.103.794-.103.172 0 .259-.07.259-.242v-5.971c0-.293.034-.328.345-.328.897 0 1.812 0 2.71.052.638.017 1.293.086 1.932.155.38.035.776.017 1.122.138.448.138.88.104 1.329.156.293.034.586.069.862.138.346.069.674.172 1.019.259h.12l2.123.414c.345.069.69.138 1.036.241.414.121.828.26 1.26.397l2.019.622c.12.034.241.12.362.172.328.138.656.276.984.397.414.173.845.31 1.26.483.172.07.327.19.483.276.172.087.362.138.552.207.086.035.172.087.241.121.38.207.76.397 1.122.604.31.173.639.345.932.535.449.26.88.535 1.312.829.414.276.828.586 1.242.88.397.293.742.621 1.14.914.655.484 1.207 1.07 1.777 1.674.345.38.69.76 1 1.157.277.345.519.69.743 1.052.414.69.828 1.398 1.208 2.106.19.362.276.776.414 1.173.034.121.086.242.138.363l.259.776v.07c.069.465.155.931.19 1.414.052.673.103 1.346.086 2.02 0 .448-.138.914-.207 1.363 0 .069 0 .138-.035.19-.103.397-.19.776-.293 1.173-.052.225-.103.466-.19.69-.069.225-.19.415-.276.64 0 .016-.017.05-.017.068-.12.432-.328.794-.57 1.156-.19.276-.31.604-.483.915a6.39 6.39 0 01-.483.708c-.414.535-.846 1.052-1.277 1.57a11.04 11.04 0 01-1.053 1.14c-.621.569-1.277 1.104-1.915 1.639-.26.207-.57.345-.846.569-.656.518-1.38.915-2.071 1.346-.207.12-.38.259-.587.38-.12.069-.259.12-.38.172-.448.208-.88.432-1.328.639-.345.155-.708.31-1.07.466-.5.224-1.001.449-1.502.656-.38.155-.759.293-1.139.414-.397.138-.81.293-1.225.431-.345.121-.707.207-1.053.31-.5.139-.983.312-1.484.432-.31.087-.638.104-.966.173-.363.086-.725.172-1.105.259a.32.32 0 00-.12.034l-1.433.207c-.776.104-1.553.138-2.312.311-.466.104-.932.017-1.364.138l.035-.034z" fill="#fff"/><path d="M69.119 44.228a6.748 6.748 0 011.95.07c.776.137 1.588-.035 2.364.155.414.103.846.017 1.277.138.518.155 1.105.155 1.657.172.984.035 1.967.104 2.951-.086.397-.086.811-.138 1.208-.224.19-.035.38-.087.535-.173.345-.155.673-.345 1.001-.535.31-.19.604-.397.88-.621.363-.294.621-.69.829-1.088.138-.258.31-.517.345-.776.103-.966.138-1.95-.449-2.779a5.55 5.55 0 00-1.156-1.225c-.346-.276-.794-.466-1.226-.621a4.824 4.824 0 00-1.311-.293c-1.053-.087-2.106-.139-3.158.103-.484.104-.984.207-1.467.328-.466.12-.932.276-1.38.449-.329.12-.657.258-.967.414-.242.103-.483.241-.725.362-.345.173-.69.31-1.035.483-.208.104-.38.26-.57.38-.449.276-.915.535-1.346.829-.31.207-.57.465-.863.69-.38.293-.777.535-1.122.863a68.805 68.805 0 00-2.278 2.209c-.535.552-1.018 1.139-1.536 1.708 0 .017.035.052.035.07.069 0 .155.016.224 0 .26-.087.5-.208.76-.294.345-.104.707-.173 1.052-.259.225-.052.449-.155.69-.19.329-.052.674-.069 1.019-.12.604-.104 1.225-.087 1.83-.139h-.018zm-5.193-12.685c.017-.414 0-.828 0-1.242h.07c-.07-.708-.139-1.433-.208-2.14 0-.035 0-.087-.034-.121-.139-.328-.294-.656-.397-.984-.207-.638-.587-1.156-1.019-1.657-.414-.483-.931-.862-1.484-1.173-.5-.276-1.018-.466-1.587-.518a.483.483 0 01-.208-.069c-.38-.19-.62-.034-.62.38v18.293c0 1.398-.053 2.813-.07 4.21 0 .087.07.156.121.242.052-.069.12-.155.138-.224.069-.259.12-.535.207-.794.07-.224.155-.449.242-.673.017-.052.017-.12.052-.19.086-.172.19-.345.258-.535.225-.57.414-1.156.639-1.725.138-.345.31-.673.466-1.018.207-.484.397-.967.604-1.45.052-.138.086-.276.155-.414.138-.311.31-.622.449-.95.207-.5.397-1 .604-1.501.069-.155.12-.328.172-.483.07-.19.173-.38.242-.587.086-.259.173-.518.259-.794.173-.535.362-1.07.518-1.605.103-.362.207-.742.276-1.121.069-.38.12-.76.155-1.14v-.017zm.052 7.801c.345-.258.622-.466.915-.673.224-.172.449-.362.69-.517.38-.242.76-.484 1.157-.708.31-.172.62-.362.931-.518.38-.19.777-.362 1.14-.552.5-.259 1-.518 1.484-.811.431-.276.845-.57 1.225-.898.328-.293.639-.62.794-1.07.086-.224.259-.448.276-.69.052-.345.103-.69.052-1.07-.052-.431-.225-.793-.449-1.139-.224-.362-.535-.655-.95-.81-.258-.104-.517-.225-.793-.26-.397-.034-.794-.086-1.174.121-.258.138-.534.19-.776.397a7.788 7.788 0 00-1.536 1.743c-.242.38-.466.777-.673 1.156-.259.466-.449.967-.69 1.433-.207.397-.328.828-.484 1.242-.103.26-.19.518-.276.777a6.088 6.088 0 01-.172.518c-.087.258-.19.517-.276.776-.139.414-.277.846-.415 1.26-.017.069 0 .138 0 .259v.034z" fill="#fff"/></g></svg>