<svg width="206" height="25" viewBox="0 0 206 25" fill="none" xmlns="http://www.w3.org/2000/svg">
<path d="M43.25 3.81252L43.25 19.1572L39.4138 19.1572L39.4138 7.64868L39.2441 7.64868L33.6511 13.2417L28.0581 7.64868L27.8968 7.64868L27.8968 19.1572L24.0606 19.1572L24.0606 3.81251L29.6536 3.81251L33.6511 7.80994L37.657 3.81252L43.25 3.81252Z" fill="#164194"/>
<path d="M60.207 11.4849C60.207 15.7199 56.7697 19.1572 52.5347 19.1572C48.2996 19.1572 44.8623 15.7199 44.8623 11.4849C44.8623 7.24979 48.2996 3.81251 52.5347 3.81251C56.7697 3.81252 60.207 7.24979 60.207 11.4849ZM56.3624 11.4849C56.3624 9.36308 54.648 7.64868 52.5262 7.64868C50.4044 7.64868 48.69 9.36308 48.69 11.4849C48.69 13.6066 50.4129 15.321 52.5262 15.321C54.6395 15.321 56.3624 13.6066 56.3624 11.4849Z" fill="#164194"/>
<path d="M76.9017 3.81252L76.9017 19.1572L73.0655 19.1572L73.0655 7.64868L67.3112 7.64868L67.3112 12.4439C67.3112 16.1528 64.3068 19.1572 60.5979 19.1572L60.5979 15.321C62.185 15.321 63.475 14.031 63.475 12.4439L63.475 3.81251L76.9102 3.81252L76.9017 3.81252Z" fill="#164194"/>
<path d="M93.9609 11.069C93.9609 15.3041 90.5237 18.7414 86.2886 18.7414C82.0535 18.7414 78.6162 15.3041 78.6162 11.069C78.6162 6.83394 82.0535 3.39666 86.2886 3.39666C90.5237 3.39666 93.9609 6.83394 93.9609 11.069ZM90.1248 11.069C90.1248 8.94723 88.4104 7.23283 86.2886 7.23283C84.1668 7.23283 82.4524 8.94723 82.4524 11.069C82.4524 13.1908 84.1668 14.9052 86.2886 14.9052C88.4104 14.9052 90.1248 13.1908 90.1248 11.069Z" fill="#164194"/>
<path d="M110.357 3.81252L110.357 24.92L96.9223 24.92L96.9223 21.0838L106.513 21.0838L106.513 18.1303C105.384 18.7838 104.077 19.1657 102.677 19.1657C98.4415 19.1657 95.0042 15.7284 95.0042 11.4934C95.0042 7.25828 98.4415 3.821 102.677 3.82101C104.077 3.82101 105.384 4.20293 106.513 4.85643L106.513 3.82101L110.349 3.82101L110.357 3.81252ZM106.521 11.4849C106.521 9.36309 104.807 7.64869 102.685 7.64869C100.563 7.64869 98.8489 9.36309 98.8489 11.4849C98.8489 13.6066 100.563 15.3211 102.685 15.3211C104.807 15.3211 106.521 13.6066 106.521 11.4849Z" fill="#164194"/>
<path d="M127.324 3.81252L127.324 19.1572L123.488 19.1572L123.488 14.2856C122.359 14.9391 121.052 15.3211 119.652 15.3211C115.417 15.3211 111.98 11.8838 111.98 7.64869L111.98 3.81252L115.816 3.81252L115.816 7.64869C115.816 9.77047 117.539 11.4849 119.652 11.4849C121.765 11.4849 123.488 9.77047 123.488 7.64869L123.488 3.81252L127.324 3.81252Z" fill="#164194"/>
<path d="M145.172 3.81252L145.172 19.1572L141.336 19.1572L141.336 18.1218C140.207 18.7753 138.9 19.1572 137.5 19.1572C133.264 19.1572 129.827 15.7199 129.827 11.4849L129.827 3.81252L133.663 3.81252L133.663 11.4849C133.663 13.6066 135.378 15.3211 137.5 15.3211C139.621 15.3211 141.336 13.6066 141.336 11.4849L141.336 3.81252L145.172 3.81252Z" fill="#164194"/>
<path d="M163.014 3.81252L163.014 19.1572L159.177 19.1572L159.177 13.403L151.505 13.403L151.505 19.1572L147.669 19.1572L147.669 3.81252L151.505 3.81252L151.505 9.56679L159.177 9.56679L159.177 3.81252L163.014 3.81252Z" fill="#164194"/>
<path d="M180.852 9.56679L180.852 19.1572L177.015 19.1572L177.015 13.403L169.343 13.403L169.343 19.1572L165.507 19.1572L165.507 3.81252L169.343 3.81252L169.343 9.23579C171.575 8.44649 173.179 6.31622 173.179 3.81252L177.015 3.81252C177.015 5.97674 176.294 7.96272 175.08 9.56679L180.852 9.56679Z" fill="#164194"/>
<path d="M198.191 3.81252L198.191 19.1572L194.355 19.1572L194.355 18.1218C193.226 18.7753 191.919 19.1572 190.519 19.1572C186.284 19.1572 182.847 15.7199 182.847 11.4849C182.847 7.2498 186.284 3.81252 190.519 3.81252C191.919 3.81252 193.226 4.19444 194.355 4.84795L194.355 3.81252L198.191 3.81252ZM194.355 11.4849C194.355 9.36309 192.641 7.64869 190.519 7.64869C188.397 7.64869 186.683 9.36309 186.683 11.4849C186.683 13.6066 188.397 15.3211 190.519 15.3211C192.641 15.3211 194.355 13.6066 194.355 11.4849Z" fill="#164194"/>
<path d="M18.0703 2.54794L18.0703 7.01215C18.0703 9.43098 16.1862 11.4085 13.8013 11.5697C13.6994 11.5697 13.6061 11.5697 13.5043 11.5697L11.3061 11.5697C11.2891 10.3221 10.2792 9.32065 9.04003 9.32065L9.04003 7.12249C9.04003 4.60182 11.0769 2.55642 13.6061 2.55642L18.0703 2.55642L18.0703 2.54794Z" fill="#4292CF"/>
<path d="M9.03906 13.8443L9.03906 16.0255C9.03906 18.5462 6.99365 20.5915 4.46449 20.5915L0.000287615 20.5915L0.00028781 16.1273C0.000287917 13.7 1.88443 11.7225 4.26931 11.5697C4.37115 11.5782 4.473 11.5782 4.56636 11.5782L6.76452 11.5782C6.76452 12.8343 7.78297 13.8443 9.03906 13.8443Z" fill="#4292CF"/>
<path d="M13.8013 11.5697C13.6994 11.5697 13.6061 11.5697 13.5043 11.5697L11.3061 11.5697C11.2891 10.3221 10.2792 9.32065 9.04003 9.32065L9.04003 7.12249C9.04003 4.60182 6.99463 2.55642 4.46546 2.55642L0.00125885 2.55642L0.00125865 7.02065C0.00125855 9.43948 1.8854 11.417 4.27028 11.5782C4.37212 11.5867 4.47397 11.5867 4.56733 11.5867L6.76549 11.5867C6.76549 12.8428 7.78394 13.8528 9.04003 13.8528L9.04003 16.034C9.04003 18.5546 11.0769 20.6 13.6061 20.6L18.0703 20.6L18.0703 16.1358C18.0703 13.7085 16.1862 11.731 13.8013 11.5782L13.8013 11.5697Z" fill="#2EAC6A"/>
<path d="M203.14 0.375244C203.216 0.375244 203.284 0.375244 203.361 0.375244C203.369 0.375244 203.377 0.375244 203.394 0.375244C203.632 0.383731 203.861 0.426162 204.082 0.502546C204.566 0.655314 204.982 0.926907 205.321 1.31731C205.728 1.77562 205.949 2.31879 206 2.92986C206 2.96381 206 2.99777 206 3.03172L206 3.24389C206 3.24389 206 3.26087 206 3.26935C205.992 3.49851 205.949 3.72765 205.881 3.94831C205.72 4.45754 205.44 4.8819 205.032 5.22988C204.718 5.49298 204.37 5.6797 203.972 5.79003C203.819 5.83246 203.658 5.85792 203.496 5.87489C203.445 5.87489 203.403 5.87489 203.352 5.88337L203.131 5.88337C203.131 5.88337 203.114 5.88337 203.106 5.88337C202.987 5.8664 202.868 5.86641 202.758 5.84095C202.469 5.79003 202.189 5.69666 201.926 5.55238C201.536 5.3402 201.213 5.05165 200.967 4.6867C200.687 4.27932 200.534 3.8295 200.492 3.34573C200.492 3.31179 200.492 3.27784 200.492 3.24389C200.492 3.16751 200.492 3.0996 200.492 3.02322C200.492 3.01473 200.492 3.00625 200.492 2.99776C200.5 2.74315 200.551 2.48853 200.636 2.25089C200.899 1.49554 201.4 0.952362 202.13 0.621365C202.418 0.485571 202.724 0.417683 203.038 0.392222C203.072 0.392222 203.106 0.392222 203.14 0.392222L203.14 0.375244ZM203.259 0.833543C201.986 0.833543 200.959 1.86048 200.959 3.12506C200.959 4.38964 201.986 5.41659 203.242 5.42508C204.515 5.42508 205.55 4.39813 205.55 3.12506C205.55 1.86048 204.523 0.833543 203.259 0.833543Z" fill="#164194"/>
<path d="M202.529 3.39666L202.529 4.65275L202.054 4.65275L202.054 1.69075L202.071 1.69075C202.495 1.69075 202.919 1.69075 203.352 1.69923C203.496 1.69923 203.632 1.71621 203.776 1.75865C203.997 1.81806 204.158 1.96234 204.26 2.16603C204.405 2.45459 204.345 2.83651 204.082 3.08264C203.955 3.20994 203.793 3.27783 203.624 3.31178C203.581 3.31178 203.547 3.32027 203.496 3.32876C203.522 3.33724 203.539 3.34573 203.556 3.35422C203.675 3.40514 203.768 3.49851 203.853 3.60035C203.997 3.77009 204.116 3.9568 204.235 4.15201C204.337 4.31326 204.43 4.46603 204.532 4.62729C204.532 4.62729 204.532 4.64426 204.549 4.65275C204.54 4.65275 204.532 4.65275 204.523 4.65275C204.345 4.65275 204.167 4.65275 203.989 4.65275C203.972 4.65275 203.963 4.65275 203.955 4.63578C203.819 4.39814 203.692 4.16899 203.556 3.93135C203.488 3.82102 203.412 3.71916 203.335 3.61732C203.216 3.47304 203.072 3.39666 202.877 3.39666C202.775 3.39666 202.665 3.39666 202.563 3.39666C202.563 3.39666 202.554 3.39666 202.546 3.39666L202.529 3.39666ZM202.529 2.98928L202.546 2.98928C202.707 2.98928 202.868 2.98928 203.021 2.98928C203.165 2.98928 203.31 2.98928 203.454 2.96382C203.53 2.94684 203.598 2.92986 203.658 2.87894C203.768 2.79407 203.827 2.67525 203.819 2.53097C203.819 2.40366 203.768 2.29333 203.666 2.21695C203.564 2.14056 203.446 2.1151 203.327 2.10661C203.064 2.10661 202.809 2.10662 202.546 2.09813C202.546 2.09813 202.537 2.09813 202.529 2.09813L202.529 2.98928Z" fill="#164194"/>
<path d="M6.75558 11.5782C6.75558 12.8344 7.77392 13.8528 9.03012 13.8528C10.2863 13.8528 11.3047 12.8344 11.3047 11.5782C11.3047 10.322 10.2863 9.3037 9.03012 9.3037C7.77392 9.3037 6.75558 10.322 6.75558 11.5782Z" fill="#FDCC68"/>
</svg>
