<svg width="104" height="104" viewBox="0 0 104 104" fill="none" xmlns="http://www.w3.org/2000/svg">
<path d="M15.3652 88.6599C10.7786 84.0732 13.8207 74.4437 11.4861 68.8013C9.06604 62.9521 0.185547 58.2445 0.185547 52.0127C0.185547 45.7809 9.06609 41.0734 11.4862 35.2244C13.8208 29.582 10.7786 19.9525 15.3652 15.3658C19.9519 10.7792 29.5814 13.8213 35.2238 11.4868C41.073 9.06665 45.7806 0.186157 52.0124 0.186157C58.2442 0.186157 62.9517 9.0667 68.8007 11.4868C74.4431 13.8214 84.0726 10.7792 88.6593 15.3658C93.2459 19.9525 90.2038 29.582 92.5383 35.2244C94.9585 41.0736 103.839 45.7812 103.839 52.013C103.839 58.2448 94.9584 62.9523 92.5383 68.8013C90.2037 74.4437 93.2459 84.0732 88.6593 88.6599C84.0726 93.2465 74.4431 90.2044 68.8007 92.539C62.9515 94.9591 58.2439 103.84 52.0121 103.84C45.7803 103.84 41.0728 94.959 35.2238 92.5389C29.5814 90.2043 19.9519 93.2465 15.3652 88.6599Z" fill="#FF4D4D"/>
<path opacity="0.3" d="M18.5212 85.5046C14.3294 81.3129 17.1096 72.5125 14.9761 67.3559C12.7643 62.0103 4.64844 57.708 4.64844 52.0127C4.64844 46.3176 12.7644 42.0154 14.9761 36.6699C17.1097 31.5133 14.3294 22.7129 18.5212 18.5212C22.7129 14.3294 31.5134 17.1096 36.67 14.9761C42.0155 12.7643 46.3178 4.64844 52.0131 4.64844C57.7083 4.64844 62.0105 12.7644 67.3559 14.9761C72.5125 17.1097 81.3129 14.3294 85.5046 18.5212C89.6964 22.7129 86.9162 31.5134 89.0498 36.67C91.2615 42.0155 99.3774 46.3178 99.3774 52.0131C99.3774 57.7083 91.2614 62.0105 89.0497 67.3559C86.9161 72.5125 89.6964 81.3129 85.5046 85.5046C81.3129 89.6964 72.5125 86.9162 67.3559 89.0498C62.0103 91.2615 57.708 99.3774 52.0127 99.3774C46.3176 99.3774 42.0154 91.2614 36.6699 89.0497C31.5133 86.9161 22.7129 89.6964 18.5212 85.5046Z" fill="#FF4D4D" stroke="white" stroke-linecap="round" stroke-linejoin="round"/>
</svg>
