<svg width="118" height="106" viewBox="0 0 118 106" fill="none" xmlns="http://www.w3.org/2000/svg">
<path d="M42.882 97.7055C35.6482 97.7055 23.1937 96.9167 22.2717 96.5223C20.6829 95.8431 19.3063 88.3715 19.0639 82.0919C18.7825 74.9446 19.9686 69.3792 19.9773 69.3222L20.0336 69.0637L20.2803 68.9848C20.4751 68.9235 20.6959 68.8577 20.9297 68.7876C22.566 68.3012 25.0379 67.5694 26.4275 66.1233C27.7262 64.7604 30.224 63.6035 32.9469 63.0952C33.6742 62.955 34.3972 62.8761 35.0985 62.8498C36.0378 62.8191 36.9123 62.9418 37.843 63.2398L38.1547 63.3494C38.8474 63.5948 39.5184 63.9103 40.224 64.2389C41.7997 64.9795 43.5876 65.8165 46.4144 66.2766L47.2066 66.4037C52.7997 67.3108 58.0854 68.1654 61.0291 71.0488C62.6525 72.6439 63.5702 74.651 63.423 76.2899C63.3668 76.899 63.159 77.4161 62.8213 77.7798C64.3408 77.7053 66.0204 77.5739 67.5486 77.381C69.6654 77.1225 71.1719 76.7807 71.791 76.4213C73.3278 75.523 78.9511 71.5572 82.674 68.9322C84.2108 67.8498 85.4662 66.9646 86.068 66.5527C87.358 65.6719 88.6697 65.3564 89.7692 65.6675C90.687 65.9261 91.4229 66.6053 91.8904 67.6264C92.7433 69.4975 88.5398 74.6028 81.9684 81.6975L81.1892 82.5388C80.5961 83.183 79.9295 83.9499 79.2195 84.7562C76.4013 87.9859 72.8905 92.0043 70.107 92.9684C66.6135 94.1823 52.5313 96.6713 47.2499 97.5039C46.3841 97.6398 44.8214 97.6967 42.8776 97.6967L42.882 97.7055ZM20.7998 69.7736C20.5747 70.9349 19.7132 75.8911 19.9557 82.0568C20.2414 89.4758 21.8561 95.3348 22.618 95.6897C23.8344 96.163 43.2413 97.2322 47.1157 96.6187C52.3798 95.7905 66.3841 93.3146 69.8256 92.1183C72.3884 91.2331 75.8083 87.311 78.5615 84.1646C79.2715 83.3495 79.9468 82.5827 80.5442 81.9297L81.3234 81.084C83.9294 78.2706 91.8645 69.7079 91.0896 68.0076C90.7303 67.2232 90.2065 66.728 89.5398 66.5396C88.6957 66.3029 87.6437 66.5702 86.5745 67.3021C85.9727 67.714 84.7216 68.5948 83.1892 69.6772C79.2282 72.4686 73.8083 76.2899 72.2368 77.2058C71.4923 77.6352 69.9511 77.9989 67.6568 78.2794C64.9598 78.6168 61.7823 78.7702 59.8343 78.7702L59.778 77.8718C61.2802 77.679 61.8213 77.4336 62.0161 77.3065C62.3105 77.1094 62.4966 76.7193 62.5399 76.2154C62.6308 75.19 62.1287 73.3933 60.41 71.7061C57.6698 69.0199 52.5226 68.1829 47.0681 67.3021L46.2759 67.175C43.3279 66.6973 41.4794 65.8297 39.8517 65.0628C39.0941 64.7078 38.3755 64.3704 37.6482 64.1338H37.2716V64.0154C36.553 63.8182 35.8647 63.7394 35.1288 63.7613C34.4751 63.7832 33.7954 63.8577 33.1115 63.9892C30.5963 64.4537 28.224 65.5404 27.0682 66.7543C25.5141 68.3757 22.908 69.147 21.1808 69.6597C21.0466 69.6991 20.9167 69.7386 20.7955 69.7736H20.7998Z" fill="#173B91"/>
<path d="M39.3755 83.4284L38.4967 83.2707L38.553 82.9464C38.8344 81.2724 39.2586 78.7395 42.0032 77.7579C44.488 76.8683 48.9296 77.2233 53.2196 77.5739C55.7434 77.7798 58.1287 77.9683 59.804 77.8675L59.8559 78.7658C58.12 78.871 55.7044 78.6782 53.146 78.4678C49.1417 78.1435 44.6049 77.7754 42.2976 78.6037C40.0465 79.41 39.6872 81.5397 39.4274 83.0954L39.3712 83.424L39.3755 83.4284Z" fill="#173B91"/>
<path d="M18.8647 96.1586C18.8474 96.7677 16.5357 97.3637 14.1288 97.8501C12.0076 98.284 9.81283 98.6345 9.0466 98.8449C7.41024 99.2919 4.82151 98.8931 2.94705 96.0447C1.07693 93.2006 -0.0702517 75.4047 0.00334109 72.4467C0.05096 70.707 0.596413 69.3792 1.26741 68.551C1.73494 67.9769 2.26307 67.6439 2.73493 67.5913C3.87779 67.4598 16.5098 68.792 16.5098 68.792C16.5098 68.792 15.9427 75.523 15.999 81.772C16.0682 89.5153 18.8907 95.0061 18.8604 96.1586H18.8647Z" fill="#173B91"/>
<path d="M7.79985 77.8017C9.40888 77.8017 10.7133 76.4813 10.7133 74.8525C10.7133 73.2237 9.40888 71.9033 7.79985 71.9033C6.19082 71.9033 4.88644 73.2237 4.88644 74.8525C4.88644 76.4813 6.19082 77.8017 7.79985 77.8017Z" fill="#EAECF7"/>
<path d="M7.79985 78.5511C7.76522 78.5511 7.73491 78.5511 7.70028 78.5511C5.6873 78.4941 4.09424 76.7895 4.14618 74.7517C4.19813 72.714 5.87778 71.1145 7.89942 71.154C9.9124 71.211 11.5055 72.9112 11.4535 74.9533C11.4016 76.956 9.76954 78.5511 7.80418 78.5511H7.79985ZM7.79985 72.6483C7.24141 72.6483 6.71327 72.863 6.30635 73.253C5.88644 73.6562 5.64401 74.204 5.6267 74.7912C5.59207 76.005 6.54444 77.0217 7.74357 77.0524C8.92972 77.1006 9.9427 76.1234 9.97733 74.9095C9.99465 74.3223 9.78253 73.7614 9.38426 73.3363C8.98599 72.9112 8.44487 72.6658 7.86478 72.6483C7.84314 72.6483 7.82582 72.6483 7.80418 72.6483H7.79985Z" fill="#173B91"/>
<path d="M68.3018 77.7141L67.41 77.6922L68.475 31.0178C68.4793 30.8206 68.41 30.6409 68.2758 30.5007C68.1416 30.3604 67.9598 30.2816 67.765 30.2816H37.908C37.7132 30.2816 37.5313 30.3604 37.3971 30.4963C37.2629 30.6321 37.1937 30.8162 37.198 31.009C37.2283 32.8188 37.3452 39.2475 37.4967 45.9434C37.5227 47.1792 37.553 48.4149 37.5833 49.6288C37.843 60.3388 38.0205 62.9111 38.1071 63.4239L38.1634 63.4764V63.6736H37.7218V64.1294L37.501 63.9059L37.4101 64.0023C37.198 63.8007 37.0292 63.643 36.6872 49.6507C36.6569 48.4369 36.6266 47.2011 36.6006 45.9697C36.4491 39.2694 36.3322 32.8407 36.3019 31.0309C36.2933 30.5971 36.4534 30.1808 36.7565 29.8696C37.0595 29.5541 37.4664 29.3832 37.9036 29.3832H67.7607C68.1979 29.3832 68.6048 29.5585 68.9122 29.874C69.2152 30.1895 69.3754 30.6058 69.3624 31.0441L68.2975 77.7185L68.3018 77.7141Z" fill="#173B91"/>
<path d="M68.9208 31.1361H36.7521V32.0388H68.9208V31.1361Z" fill="#173B91"/>
<path d="M37.4231 43.0117L36.553 42.8277C37.0119 40.5884 38.2586 38.8487 40.1634 37.7838C42.514 36.4736 45.5963 36.3772 48.6265 37.5253C51.2413 38.52 53.8863 38.5069 55.8776 37.499C56.9555 36.9556 57.7391 36.1449 57.9728 35.3342C58.2932 34.2255 57.1503 32.889 55.8257 31.3333C55.7174 31.2018 55.6049 31.0747 55.4923 30.9389H55.2542V30.6453C53.9555 29.0984 52.5832 27.2666 52.3062 25.0799C51.8257 21.3288 55.4057 17.7398 58.6958 17.2665C60.0811 17.065 62.5919 17.2972 63.5875 18.441C65.8949 21.0965 64.6351 22.6435 63.4144 24.1465C62.5659 25.1895 61.6828 26.2719 61.6525 27.902C61.5702 32.3762 68.9685 34.0064 69.0421 34.0195L68.8602 34.9004C68.5269 34.8302 60.6655 33.0993 60.7607 27.8801C60.7953 25.9345 61.8213 24.6768 62.7261 23.5681C63.9295 22.0869 64.7261 21.1097 62.9209 19.0326C62.2152 18.2219 60.0594 17.9721 58.8213 18.1561C55.9295 18.5724 52.7737 21.7013 53.1893 24.9616C53.4447 26.9643 54.791 28.7084 56.0334 30.1852L56.1417 30.3166C56.2629 30.4612 56.3841 30.6015 56.5053 30.7417C57.9988 32.4902 59.2845 34.002 58.83 35.584C58.5226 36.6445 57.5919 37.6348 56.2802 38.3009C54.0638 39.4228 51.1633 39.4447 48.3149 38.3667C45.5313 37.3106 42.7175 37.385 40.5963 38.5682C38.9296 39.4972 37.83 41.0354 37.4274 43.003L37.4231 43.0117Z" fill="#173B91"/>
<path d="M74.7477 8.87908V9.78181C75.9078 9.78181 76.8602 10.1324 77.5052 10.7941C78.0334 11.3375 78.3364 12.0781 78.3364 12.8274C78.3364 13.6863 77.9165 14.6854 76.7303 14.6854C73.2455 14.6854 70.2412 14.8914 68.7737 17.398C68.6048 17.6872 68.4576 17.8055 68.41 17.8406C68.2455 17.7004 67.9858 17.0387 68.2066 15.9957C68.7001 13.6688 70.8516 9.92642 74.5226 9.79057C74.6005 9.79057 74.6741 9.79057 74.7477 9.79057V8.88785M74.7477 8.87908C74.6611 8.87908 74.5745 8.87908 74.4879 8.88346C70.2022 9.04122 67.8516 13.362 67.3321 15.8029C66.9685 17.5163 67.5962 18.7521 68.3927 18.7521C68.765 18.7521 69.1763 18.4804 69.5399 17.8581C70.6784 15.9125 72.9944 15.5882 76.7303 15.5882C80.4663 15.5882 80.2411 8.87908 74.7477 8.87908Z" fill="#173B91"/>
<path d="M45.224 6.90273C45.2976 6.90273 45.3755 6.90273 45.4491 6.90273C49.12 7.03857 51.2716 10.7809 51.7651 13.1079C51.9858 14.1421 51.7304 14.8081 51.5659 14.9528C51.501 14.9133 51.3581 14.7906 51.198 14.5145C49.7304 12.0079 46.7261 11.802 43.2413 11.802C42.0551 11.802 41.6352 10.7985 41.6352 9.94395C41.6352 8.47592 42.7608 6.89834 45.224 6.89834M45.224 6C39.7261 6 39.5573 12.7091 43.2413 12.7091C46.9252 12.7091 49.2932 13.0334 50.4317 14.9791C50.7954 15.6013 51.2066 15.873 51.5789 15.873C52.3754 15.873 53.0031 14.6372 52.6395 12.9238C52.12 10.483 49.7694 6.16652 45.4837 6.00438C45.3971 6.00438 45.3105 6 45.224 6Z" fill="#173B91"/>
<path d="M42.0075 65.9261L42.8344 44.6463L43.6569 65.9261H42.0075Z" fill="#173B91"/>
<path d="M49.3365 67.1662L50.159 45.8908L50.9815 67.1662H49.3365Z" fill="#173B91"/>
<path d="M56.2066 67.5825L57.0291 46.6489L57.8559 67.5825H56.2066Z" fill="#173B91"/>
<path d="M62.423 77.8938L63.2499 44.8961L64.0724 77.8938H62.423Z" fill="#173B91"/>
<path d="M37.0465 45.9609L36.566 46.9951C36.6872 46.351 36.9989 46.0091 37.0465 45.9609Z" fill="#173B91"/>
<path d="M67.9598 73.2005V73.2224L67.6048 77.8324C64.9815 78.1611 61.8603 78.3188 59.8343 78.3188C60.7261 78.2049 61.778 78.0077 62.2629 77.679C63.5399 76.8158 63.2239 73.8359 60.7217 71.3775C57.7477 68.459 52.2196 67.6789 46.3495 66.7236C41.9859 66.0137 40.0162 64.4055 37.7218 63.678C37.7218 63.678 37.7218 63.678 37.7218 63.6736C37.5313 63.494 37.3192 56.9339 37.1417 49.642C37.9123 51.1012 38.908 56.7542 42.185 59.1381C51.0768 65.5974 52.1157 61.6798 58.3581 65.0233C64.6005 68.3669 67.9641 73.2005 67.9641 73.2005H67.9598Z" fill="#173B91"/>
<path d="M58.5053 91.1542C60.5962 90.7554 62.6958 90.4574 64.7823 90.0148C66.6741 89.6117 68.6351 89.2216 70.3797 88.3408C72.1243 87.46 73.462 86.1059 74.8299 84.7957C76.3927 83.3013 77.9381 81.7851 79.4663 80.2514C80.2931 79.4231 81.1156 78.5905 81.9381 77.7535C82.8126 76.864 83.6351 75.9437 84.4792 75.0234C84.687 74.7956 84.3667 74.4713 84.1416 74.6816C81.0983 77.5519 78.1719 80.5493 75.1719 83.4723C73.7866 84.8176 72.423 86.2856 70.7823 87.3198C69.1416 88.354 67.2109 88.7791 65.3321 89.2129C64.1979 89.4758 63.0594 89.7387 61.9382 90.0543C60.817 90.3698 59.6482 90.7773 58.488 91.0885C58.4447 91.1016 58.462 91.1673 58.5053 91.1586V91.1542Z" fill="#173B91"/>
</svg>
