<svg width="118" height="106" viewBox="0 0 118 106" fill="none" xmlns="http://www.w3.org/2000/svg">
<path d="M34.6481 8.6201V9.41526H34.517C30.6349 9.47092 27.325 11.5145 25.2309 13.2241C23.6137 14.5441 22.6124 15.7606 22.0839 17.0568C18.2495 26.4754 26.7965 33.5961 30.6508 36.2201C32.6614 37.5878 34.8269 38.6573 37.0878 39.3928C38.0494 39.7069 38.8521 39.858 39.5435 39.858C40.2348 39.858 40.811 39.7029 41.2719 39.3809C42.456 38.55 42.6865 36.737 42.8097 35.1029L43.5289 25.5332C43.7196 23.0244 43.9143 20.4282 43.6838 17.9076C43.5328 16.2536 43.2189 14.9973 42.7024 13.9517C41.3554 11.2402 38.1209 9.41526 34.6521 9.41526V8.6201M34.6481 8.6201C38.1885 8.6201 41.8362 10.4251 43.4097 13.5978C44.0613 14.9098 44.3395 16.3769 44.4706 17.836C44.705 20.4163 44.5103 23.0125 44.3196 25.5928C44.0812 28.7814 43.8388 31.974 43.6004 35.1626C43.4653 36.9596 43.1991 38.9953 41.7249 40.0329C41.0812 40.4862 40.3262 40.6571 39.5395 40.6571C38.6375 40.6571 37.6958 40.4345 36.8375 40.1522C34.4852 39.3849 32.2441 38.2717 30.1978 36.8801C23.6773 32.4392 17.9316 25.1356 21.3448 16.7586C22.0243 15.0887 23.3276 13.7489 24.7223 12.6078C27.5038 10.3416 30.913 8.67179 34.5011 8.62408C34.5488 8.62408 34.5965 8.62408 34.6441 8.62408L34.6481 8.6201Z" fill="#173B91"/>
<path d="M44.407 15.0569C41.9554 15.9396 40.7474 16.0509 38.6693 16.0549C36.8137 16.0549 34.7276 15.4585 33.2614 16.5876C32.0375 17.5299 31.8309 19.2554 31.6203 20.7861C31.4296 22.1736 31.1514 23.5492 30.7938 24.905C30.6945 25.2867 30.4759 25.7479 30.0826 25.728C29.5978 25.7041 29.5183 25.0362 29.5024 24.5512C29.4468 22.925 28.3541 21.3824 26.8402 20.79C25.5647 20.2931 23.8521 20.6111 23.2521 21.8436C22.5409 23.3067 23.6932 24.9328 24.5753 26.2965C25.2389 27.3223 25.7991 28.527 25.5885 29.7316C25.3779 30.9363 24.0826 31.9939 22.9462 31.5406C22.525 28.4276 20.5064 25.9188 18.8892 23.2272C17.268 20.5356 16.0243 17.1721 17.3316 14.3135C17.8005 13.2837 18.5674 12.421 19.3343 11.5861C20.2839 10.5523 21.2574 9.54249 22.2309 8.52866C23.1806 7.53868 24.1978 6.50895 25.525 6.15113C26.566 5.86884 27.6706 6.04378 28.7435 6.17896C34.4057 6.90255 40.1355 6.57256 45.8454 6.55268C46.4097 6.55268 47.0097 6.56063 47.4944 6.85087C48.4004 7.3876 48.5434 8.65986 48.313 9.68562C47.8401 11.8127 46.505 14.4486 44.411 15.0569H44.407Z" fill="#173B91"/>
<path d="M33.5673 49.4874C33.6428 49.4874 33.7183 49.4834 33.7978 49.4715C34.9382 49.3045 35.5342 48.08 35.3991 46.1994C35.3157 45.0424 35.1567 43.6589 35.0017 42.323C34.8468 40.9951 34.6878 39.6234 34.6084 38.4824L33.8176 38.538C33.9011 39.695 34.06 41.0786 34.215 42.4144C34.37 43.7424 34.5289 45.114 34.6084 46.2551C34.6839 47.3007 34.4892 48.569 33.6865 48.6843C33.2415 48.7479 32.7607 48.4179 32.3355 48.1237C32.0534 47.9249 31.7633 47.7261 31.4733 47.5194C29.3792 46.0523 27.019 44.3944 24.623 43.5157C25.3144 39.1583 25.0601 35.3614 23.8005 31.2424L23.0415 31.473C24.2932 35.5721 24.5197 39.3451 23.7846 43.7145L23.7289 44.0485L24.0508 44.1558C26.4508 44.9629 28.8746 46.6646 31.0163 48.1674C31.3104 48.3742 31.6004 48.5769 31.8825 48.7757C32.3236 49.0819 32.9077 49.4874 33.5713 49.4874H33.5673Z" fill="#173B91"/>
<path d="M24.174 43.7821C22.7197 43.7742 21.5475 44.9391 20.6614 46.096C19.7753 47.253 18.9011 48.5531 17.5303 49.0421C22.5289 51.0817 25.6759 55.9719 28.4971 60.5799C30.9249 57.7332 32.9474 54.5406 34.4852 51.1294C36.5474 53.2127 39.2693 55.2046 40.6997 57.765C40.4772 54.8508 40.0997 53.2445 39.2216 51.0022C38.3514 48.7877 36.1421 47.0304 34.8945 45.0027C34.8945 45.0027 35.7567 48.9268 33.7382 49.0779C31.5925 48.0919 27.6468 45.3963 26.721 44.9192C25.7952 44.4421 24.174 43.7781 24.174 43.7781V43.7821Z" fill="#173B91"/>
<path d="M28.8031 60.8344C31.1395 58.099 33.0905 55.0655 34.6123 51.8093C35.0931 52.2744 35.6017 52.7396 36.0945 53.1929C37.7037 54.6639 39.3646 56.1827 40.358 57.9598L41.1011 57.7372C40.8825 54.8866 40.517 53.2127 39.5951 50.863C39.0587 49.4914 38.0375 48.2986 37.056 47.1496C36.3766 46.3545 35.7329 45.603 35.2402 44.7999L34.513 45.0941C34.6561 45.7422 34.8945 47.5949 34.3223 48.3623C34.1911 48.5412 34.0243 48.6406 33.8097 48.6763C32.4468 48.0323 30.3726 46.7202 28.8468 45.7581C27.9567 45.1935 27.2534 44.7482 26.9077 44.5733C25.9779 44.0962 24.3965 43.4482 24.3289 43.4203L24.1819 43.3885H24.166C22.4455 43.3885 21.166 44.796 20.3554 45.8575L20.0932 46.2034C19.3263 47.2212 18.5316 48.2708 17.4071 48.6684L17.3912 49.4119C22.0879 51.3282 25.0521 55.6976 28.1673 60.7866L28.8071 60.8383L28.8031 60.8344ZM34.7713 50.8471L34.1276 50.9624C32.6772 54.1828 30.8057 57.1846 28.5528 59.9C25.6362 55.1688 22.7952 51.1016 18.476 49.0222C19.3899 48.4457 20.0654 47.5512 20.725 46.6805L20.9832 46.3386C22.0879 44.8953 23.0813 44.2075 24.1024 44.1797C24.4283 44.3149 25.7554 44.8715 26.5461 45.277C26.8601 45.4361 27.5832 45.8933 28.4216 46.426C30.0031 47.424 32.1686 48.7956 33.5792 49.4437L33.7739 49.4795C34.2627 49.4437 34.6759 49.221 34.962 48.8354C35.411 48.231 35.5064 47.3047 35.4825 46.5055C35.7964 46.8992 36.1262 47.2888 36.4521 47.6665C37.3938 48.7678 38.3673 49.9049 38.856 51.1533C39.5633 52.9583 39.9329 54.3458 40.1593 56.2264C39.154 54.9144 37.8786 53.7455 36.6349 52.6084C35.9753 52.0081 35.3554 51.4355 34.7753 50.8511L34.7713 50.8471Z" fill="#173B91"/>
<path d="M59.9791 69.9032C60.2811 69.9032 60.5791 69.8833 60.8732 69.8396C65.4268 69.1637 69.3963 65.16 71.1566 61.7249C72.1897 59.7132 73.4533 57.606 74.7923 55.3716C76.4096 52.672 78.0824 49.881 79.6599 46.768L78.9526 46.4101C77.387 49.4993 75.7221 52.2744 74.1089 54.9621C72.7619 57.2044 71.4943 59.3275 70.4493 61.3592C68.7248 64.7227 64.8387 68.4401 60.754 69.0484C58.8189 69.3346 56.6295 68.5196 54.75 66.81C53.4388 65.6133 52.3699 64.1223 51.3368 62.6831C51.0388 62.2656 50.7408 61.8522 50.4388 61.4426C49.3381 59.9597 48.4401 58.5999 47.6454 57.3993C45.1143 53.5706 43.2825 50.8034 37.8905 48.3106L37.5567 49.0302C42.7461 51.4316 44.4309 53.9801 46.9818 57.8366C47.7805 59.0452 48.6865 60.4129 49.799 61.9118C50.101 62.3173 50.3951 62.7308 50.6891 63.1403C51.7461 64.6153 52.8388 66.1421 54.2136 67.3944C55.9937 69.0126 58.048 69.8952 59.9752 69.8952L59.9791 69.9032Z" fill="#173B91"/>
<path d="M39.5395 28.9762C39.6428 28.9762 39.7501 28.9643 39.8574 28.9404C41.7408 28.523 41.8242 25.9626 41.8878 24.09C41.8918 23.911 41.8997 23.7361 41.9077 23.5691C41.9315 23.0125 41.9196 22.1895 41.5262 21.4858C41.1011 20.7225 40.2785 20.2851 39.5276 20.4203L39.4441 20.4441C39.3686 20.476 37.6203 21.2512 37.5766 24.7102C37.5766 25.0163 37.5686 27.7437 38.7011 28.6661C38.9514 28.8689 39.2375 28.9722 39.5434 28.9722L39.5395 28.9762ZM39.8097 21.1916C40.2309 21.1916 40.6322 21.5176 40.8348 21.8754C41.1289 22.4042 41.1368 23.0761 41.117 23.5373C41.109 23.7043 41.105 23.8832 41.0971 24.0661C41.0454 25.6763 40.9739 27.8829 39.6905 28.1652C39.4997 28.2089 39.3488 28.1731 39.2017 28.0538C38.6335 27.5926 38.3554 26.0302 38.3713 24.7261C38.407 22.0742 39.4958 21.3268 39.7183 21.1995C39.7501 21.1995 39.7779 21.1956 39.8097 21.1956V21.1916Z" fill="#173B91"/>
<path d="M44.411 29.4891C44.4706 29.4891 44.5302 29.4851 44.5898 29.4692C45.0348 29.3778 45.3249 29.0398 45.5474 28.7257C46.4295 27.4813 46.9501 26.0222 47.0494 24.4995C47.1169 23.5214 46.8944 22.8018 46.3938 22.3684C46.0719 22.0901 45.7222 21.9669 45.3686 22.0027C44.864 22.0543 44.3593 22.4161 43.8189 23.1199L44.4507 23.6049C44.9395 22.9688 45.2613 22.8137 45.4481 22.7978C45.5355 22.7899 45.6706 22.7978 45.8732 22.9728C46.1752 23.2352 46.3024 23.7321 46.2547 24.4478C46.1633 25.8234 45.6944 27.1434 44.8958 28.2685C44.7686 28.4474 44.6017 28.6582 44.4269 28.6939C44.3752 28.7059 44.2918 28.6621 44.2759 28.6343L43.505 28.4912C43.4454 28.7456 43.5209 29.0041 43.7156 29.1989C43.8984 29.3857 44.1567 29.4891 44.411 29.4891Z" fill="#173B91"/>
<path d="M37.9262 22.6428L38.0971 21.8675C35.8719 21.3745 33.5912 21.1121 31.3183 21.0882L31.3104 21.8834C33.5316 21.9072 35.7567 22.1657 37.9302 22.6467L37.9262 22.6428Z" fill="#173B91"/>
<path d="M44.407 23.76V22.9648C44.0414 22.9648 43.5805 22.8893 43.1315 22.8137C42.6507 22.7342 42.158 22.6507 41.7289 22.6507V23.4459C42.0944 23.4459 42.5554 23.5214 43.0044 23.597C43.4852 23.6765 43.9779 23.76 44.407 23.76Z" fill="#173B91"/>
<path d="M44.1805 18.1819C44.6256 17.995 44.9474 17.6014 45.2097 17.1919C45.8971 16.1185 46.2865 14.8542 46.3183 13.5819C45.901 13.2638 45.5633 13.1128 45.0587 12.9736C44.5143 12.8265 43.8467 12.8305 43.4931 13.2678C43.2626 13.5541 43.2309 13.9596 43.3103 14.3174C43.3898 14.6753 43.5567 15.0092 43.6958 15.3472C44.0732 16.2735 44.2878 17.188 44.1805 18.1819Z" fill="#173B91"/>
<path d="M28.7634 100C29.8561 100 30.917 99.9443 31.9541 99.833C36.762 99.3201 41.0931 97.4793 44.1527 94.6486L43.6123 94.0641C40.6759 96.7796 36.5077 98.5449 31.8667 99.0418C28.06 99.4513 23.9356 99.0935 18.8813 97.9167L18.5157 97.8332C18.3369 97.7934 18.1541 97.7497 17.9713 97.706C17.5104 97.5986 17.1011 97.4913 16.7117 97.3839C16.2627 97.2567 15.8336 97.1215 15.4402 96.9744C14.9157 96.7876 14.4151 96.5609 13.9462 96.3025C13.7157 96.1753 13.4892 96.0441 13.2667 95.9129C12.7939 95.6266 12.3687 95.3483 11.9714 95.0621C11.5263 94.7519 11.0773 94.414 10.6402 94.0482C10.3184 93.7858 9.98859 93.4996 9.627 93.1656C9.33693 92.9032 9.04687 92.6209 8.76475 92.3267C8.43892 91.9967 8.16475 91.7065 7.92634 91.4282C7.68793 91.1618 7.46144 90.8994 7.23893 90.6251C7.01244 90.3468 6.78992 90.0605 6.57536 89.7742C6.38463 89.5238 6.20184 89.2733 6.02304 89.0109C5.85615 88.7684 5.68529 88.5219 5.52635 88.2754C5.35549 88.009 5.18463 87.7386 5.02171 87.4643C4.89456 87.2496 4.76344 87.0349 4.64423 86.8162C4.49324 86.5538 4.35416 86.2914 4.2151 86.029C4.11576 85.8461 4.02437 85.6712 3.94093 85.4923C3.8098 85.2339 3.68662 84.9874 3.57536 84.7329C3.4959 84.5699 3.42834 84.4188 3.36477 84.2677C-0.183563 76.2923 -0.0484695 67.1479 3.70649 60.9616C7.20714 55.1887 12.0071 51.1294 17.2164 49.5391C17.3475 49.4954 17.4707 49.4556 17.5939 49.4238L17.3833 48.6565C17.2442 48.6962 17.1051 48.736 16.97 48.7837C11.5859 50.4297 6.63098 54.6082 3.02702 60.5521C-0.863037 66.9531 -1.01403 76.3877 2.63364 84.5898C2.70119 84.7488 2.77669 84.9158 2.85218 85.0748C2.96344 85.3293 3.09059 85.5877 3.22569 85.8501C3.30914 86.029 3.40847 86.2159 3.51179 86.4067C3.65086 86.6731 3.79391 86.9435 3.94887 87.2098C4.07205 87.4325 4.20317 87.6551 4.33827 87.8738C4.50913 88.1561 4.67999 88.4344 4.8588 88.7087C5.02569 88.9632 5.19655 89.2176 5.37138 89.4681C5.55814 89.7345 5.74489 89.9929 5.93959 90.2513C6.16211 90.5495 6.39257 90.8437 6.62303 91.13C6.85349 91.4123 7.08793 91.6866 7.33031 91.957C7.58064 92.2432 7.86276 92.5454 8.19653 92.8833C8.49057 93.1855 8.79256 93.4797 9.09057 93.75C9.46011 94.0959 9.8058 94.3941 10.1356 94.6645C10.5886 95.0422 11.0535 95.3921 11.5144 95.7101C11.9237 96.0043 12.3647 96.2906 12.8575 96.5888C13.0919 96.7279 13.3263 96.8671 13.5647 96.9943C14.0654 97.2726 14.6058 97.5151 15.1661 97.7139C15.5753 97.869 16.0283 98.0121 16.4972 98.1433C16.8945 98.2546 17.3197 98.366 17.7846 98.4733C17.9634 98.517 18.1501 98.5608 18.3329 98.6045L18.6945 98.688C22.4693 99.5666 25.7395 99.996 28.7554 99.996L28.7634 100Z" fill="#173B91"/>
<path d="M82.4095 67.0167C82.8864 67.0167 83.3314 66.8855 83.7089 66.6271C84.8135 65.8717 84.9844 64.4563 85.0082 63.0409C85.1195 56.0515 85.2665 40.5339 85.2307 33.0753H84.436C84.4718 40.5339 84.3248 56.0395 84.2135 63.029C84.1936 64.2337 84.0665 65.4224 83.2599 65.9751C82.8148 66.2772 82.3261 66.2534 81.9923 66.1778C81.3327 66.0307 80.6811 65.5536 80.3354 64.9612C79.787 64.0309 79.6678 56.4729 79.7115 53.4791L80.0016 33.1667L79.2069 33.1548L78.9168 53.4672C78.9168 53.5706 78.8175 63.9514 79.648 65.3628C80.1089 66.146 80.9393 66.7543 81.8175 66.9531C82.0162 66.9968 82.2148 67.0207 82.4095 67.0207V67.0167Z" fill="#173B91"/>
<path d="M78.7976 33.5563H85.5724C86.2122 33.5563 86.7327 33.0355 86.7327 32.3954V31.6042C86.7327 30.9641 86.2122 30.4433 85.5724 30.4433H78.8016C78.1619 30.4433 77.6413 30.9641 77.6413 31.6042V32.3954C77.6413 33.0355 78.1619 33.5563 78.8016 33.5563H78.7976ZM85.5724 31.2345C85.7751 31.2345 85.938 31.3975 85.938 31.6003V32.3914C85.938 32.5942 85.7751 32.7572 85.5724 32.7572H78.8016C78.599 32.7572 78.436 32.5942 78.436 32.3914V31.6003C78.436 31.3975 78.599 31.2345 78.8016 31.2345H85.5724Z" fill="#173B91"/>
<path d="M84.4877 52.012C86.1406 53.5189 86.8877 44.8357 86.4069 43.6867C85.9301 42.5377 85.0718 40.5935 83.7883 41.0189C83.0373 41.2694 83.1566 43.305 83.0572 44.3546C82.9579 45.4043 83.3274 50.9585 84.4837 52.012H84.4877Z" fill="#EAECF7"/>
<path d="M84.8652 52.6442C85.044 52.6442 85.2188 52.5885 85.3857 52.4732C86.8638 51.4316 87.2771 44.5852 86.8281 43.5118C86.3552 42.3787 85.3738 40.0131 83.6453 40.5856C82.7513 40.8798 82.6956 42.3031 82.6479 43.5595C82.636 43.8378 82.6281 44.0962 82.6082 44.3149C82.5208 45.273 82.8228 51.1095 84.1817 52.35C84.3963 52.5448 84.6347 52.6442 84.8691 52.6442H84.8652ZM84.134 41.4205C84.8652 41.4205 85.5009 42.7047 85.9857 43.8616C86.24 44.4779 86.0334 49.1932 85.2029 51.1692C85.0281 51.5826 84.893 51.6979 84.8572 51.7258C84.8532 51.7178 84.8294 51.7019 84.7976 51.6741C83.8758 50.8312 83.4029 45.6627 83.5181 44.3984C83.538 44.1678 83.5499 43.8934 83.5618 43.5992C83.5817 43.0943 83.6453 41.5517 83.9354 41.4523C84.0029 41.4284 84.0705 41.4205 84.138 41.4205H84.134Z" fill="#173B91"/>
<path d="M50.3474 95.2529C52.5487 95.2529 54.599 95.1296 55.203 94.7917C56.3831 94.1436 56.856 91.8218 57.2017 90.1241C57.2652 89.814 57.3209 89.5317 57.3765 89.3051C57.4242 89.0984 57.4679 88.8161 57.5116 88.4662C57.6229 87.3967 57.6586 85.7905 57.4242 84.4785C57.0705 82.4468 56.2202 81.9618 55.5686 81.9141C55.3182 81.8942 54.8613 81.9578 54.0785 82.0731C53.4308 82.1685 52.2904 82.3315 51.8335 82.3037C51.8891 81.9856 52.0798 81.274 52.2348 80.6855C52.5805 79.3934 53.0057 77.7832 53.0057 76.8211C53.0057 76.2406 52.8666 75.6601 52.6083 75.1353L52.5686 75.0677C52.2388 74.4396 51.7699 73.9982 51.2692 73.8511C50.9196 73.7478 50.5659 73.7915 50.256 73.9744C50.1924 74.0141 50.1487 74.038 50.105 74.0738C49.1633 74.7298 48.8136 76.0816 48.5077 77.2703C48.4083 77.6639 48.313 78.0337 48.2057 78.3319C48.1461 78.4988 48.0904 78.6261 48.0308 78.7255L47.9116 78.9282C47.3315 79.9142 46.6759 81.0314 45.305 82.8603C44.1448 84.4029 43.4971 85.0629 42.9964 85.214L42.758 85.2855L42.7183 85.532C42.7183 85.5519 42.6348 86.0608 42.6428 87.0588C42.6468 87.8539 42.7064 88.7405 42.8136 89.6868L42.9567 90.967C43.1832 93.0265 43.2984 94.0602 43.5328 94.5333C43.6242 94.7122 43.803 94.7877 43.954 94.8354C44.6732 95.0581 47.6295 95.2529 50.3514 95.2529H50.3474ZM55.4692 82.7092C55.4692 82.7092 55.497 82.7092 55.509 82.7092C56.2123 82.7609 56.5222 83.9298 56.6414 84.6216C56.8599 85.8541 56.8282 87.3689 56.7209 88.3787C56.6811 88.6928 56.6414 88.9512 56.6017 89.1262C56.546 89.3568 56.4864 89.643 56.4229 89.9651C56.1447 91.3328 55.6758 93.6228 54.8176 94.0959C53.7924 94.6605 45.3487 94.4816 44.1964 94.084C44.0415 93.6507 43.9183 92.5215 43.7395 90.8795L43.5964 89.5993C43.4931 88.6809 43.4375 87.8261 43.4335 87.0588C43.4295 86.5022 43.4534 86.1085 43.4732 85.8859C44.0971 85.5957 44.7686 84.8919 45.9368 83.3454C47.3355 81.4807 48.003 80.3436 48.5951 79.3377L48.7103 79.139C48.7977 78.9958 48.8732 78.8249 48.9527 78.6062C49.0719 78.2722 49.1712 77.8826 49.2785 77.4731C49.5487 76.4155 49.8587 75.2188 50.5739 74.7179C50.6057 74.694 50.6255 74.6821 50.6454 74.6702C50.7845 74.5867 50.9076 74.5747 51.0467 74.6145C51.3447 74.702 51.6666 75.0359 51.8931 75.4812L51.9288 75.5448C52.1156 75.9384 52.2189 76.3877 52.2189 76.8171C52.2189 77.6719 51.8057 79.2264 51.4719 80.4748C51.0944 81.8902 50.9792 82.3673 51.0547 82.6456C51.2096 83.2301 52.0401 83.1704 54.1977 82.8524C54.6944 82.7808 55.2547 82.6973 55.4732 82.6973L55.4692 82.7092Z" fill="#173B91"/>
<path d="M78.7221 46.9628L79.3976 46.3505C78.5433 45.4082 77.7208 44.3944 77.84 43.2971C77.9155 42.6212 78.6427 41.9771 79.2864 41.4046C79.4731 41.2416 79.6519 41.0826 79.8109 40.9275L79.1751 40.2715C79.0241 40.4186 78.8533 40.5697 78.6784 40.7247C77.9115 41.4046 77.0413 42.1759 76.9301 43.2017C76.7672 44.6767 77.7685 45.9211 78.7182 46.9707L78.7221 46.9628Z" fill="#173B91"/>
<path d="M58.7394 85.0589C62.0334 85.0589 65.7646 83.9537 67.8467 82.2639C72.3169 78.634 75.4798 72.2926 78.2652 66.6987L78.3923 66.4442C78.9844 65.2515 79.4771 64.2695 79.9658 63.3351L79.2625 62.9654C78.7778 63.8917 78.289 64.8618 77.7089 66.0347L77.5539 66.3408C74.8003 71.8632 71.6811 78.1211 67.346 81.6437C65.0334 83.5243 60.5315 84.6295 57.0944 84.1525C57.0268 84.1445 56.9712 84.1365 56.9116 84.1286L56.7725 84.9118C56.848 84.9238 56.9196 84.9357 56.995 84.9436C57.5553 85.0192 58.1394 85.0589 58.7434 85.0589H58.7394Z" fill="#173B91"/>
<path d="M33.8852 88.7525C37.4812 88.7525 40.7872 87.7704 43.3421 85.9257L42.8772 85.2816C40.0521 87.3251 36.2375 88.2475 32.1329 87.8778C31.7196 87.842 31.3342 87.8062 30.9607 87.7784C27.8495 87.512 26.1329 87.3689 23.0932 85.9018C21.1978 84.9874 19.223 83.4646 17.9356 81.926C17.6296 81.5602 17.3554 81.1865 17.117 80.8128C15.8694 78.801 15.031 76.1014 14.8164 73.4138L14.8084 73.3661C14.7051 72.0064 14.7687 70.7063 14.9872 69.5732L14.2084 69.4221C13.97 70.6546 13.9065 72.0024 14.0177 73.4337C14.0177 73.4337 14.0177 73.4615 14.0257 73.5013C14.2522 76.3042 15.1343 79.1231 16.4415 81.2382C16.6998 81.6477 16.9978 82.0532 17.3276 82.4429C18.6985 84.0849 20.725 85.6473 22.7475 86.6254C25.9183 88.1561 27.7898 88.3151 30.8932 88.5775C31.2627 88.6093 31.6521 88.6411 32.0614 88.6769C32.6772 88.7326 33.2852 88.7604 33.8852 88.7604V88.7525Z" fill="#173B91"/>
<path d="M37.4057 87.9374C38.5978 78.5505 37.0719 56.4451 34.8547 50.9783L34.1196 51.2765C36.305 56.6677 37.7991 78.5346 36.619 87.838L37.4057 87.9374Z" fill="#173B91"/>
<path d="M30.0349 88.1402L30.8296 88.1163C30.6547 81.918 28.5885 62.8183 24.7541 54.5049L24.0309 54.8388C27.766 62.9336 29.864 82.1884 30.0349 88.1402Z" fill="#173B91"/>
<path d="M41.264 87.0667C42.2732 75.0399 42.1262 58.5602 39.8772 51.7099L39.1223 51.9564C41.3395 58.7073 41.4746 75.0479 40.4733 86.9991L41.264 87.0667Z" fill="#173B91"/>
<path d="M79.4533 42.8478H83.1566V43.7622H79.4533V42.8478Z" fill="#173B91"/>
<path d="M79.3301 60.4447L79.6917 59.737C77.697 58.7152 75.9367 57.2243 74.5976 55.4312L73.9619 55.9083C75.3725 57.8008 77.2281 59.3713 79.3301 60.4487V60.4447Z" fill="#173B91"/>
<path d="M76.3619 63.9434C75.9407 65.1441 75.5076 66.3249 74.9314 67.458C74.3553 68.5911 73.6361 69.7322 72.897 70.8017C72.1579 71.8712 71.4228 72.8254 70.5884 73.7637C69.7539 74.702 68.848 75.7635 67.7354 76.3837C67.5963 76.4593 67.4056 76.3002 67.5049 76.1531C68.1963 75.1393 69.1579 74.3004 69.9685 73.378C70.7791 72.4556 71.6096 71.4259 72.3486 70.3882C73.799 68.3566 75.1182 66.1301 76.187 63.8758C76.2307 63.7804 76.3937 63.848 76.3579 63.9474L76.3619 63.9434Z" fill="#173B91"/>
<path d="M17.276 74.2527C19.219 74.1016 21.1621 74.0181 23.1091 73.9346C23.5621 73.9147 24.019 73.8988 24.472 73.867C24.9011 73.8352 25.3422 73.7597 25.7673 73.8313C26.5581 73.9585 26.725 74.8053 26.8044 75.4772C27.0389 77.4453 27.1461 79.465 27.0031 81.4409C26.9435 82.2719 26.7647 83.0909 26.1885 83.7231C25.6799 84.2797 24.9409 84.6335 24.2256 84.8283C23.3832 85.0589 22.4813 85.1146 21.6111 85.0152C20.8164 84.9238 19.9541 84.7727 19.4058 84.1365C19.2707 83.9775 19.3422 83.6356 19.6005 83.6674C20.1806 83.739 20.729 83.9219 21.3011 84.0133C21.9647 84.1167 22.668 84.1127 23.3276 83.9934C23.9395 83.8821 24.5475 83.6833 25.064 83.3255C25.7117 82.8762 25.9024 82.1924 25.9541 81.4409C26.0654 79.7791 25.9899 78.0893 25.8468 76.4314C25.815 76.0498 25.7753 75.6641 25.7316 75.2824C25.6799 74.857 25.6283 74.5191 25.1395 74.4634C24.3885 74.3759 23.5938 74.4435 22.8389 74.4515C20.9833 74.4753 19.1316 74.5191 17.28 74.3799C17.1965 74.372 17.1965 74.2567 17.28 74.2487L17.276 74.2527Z" fill="#173B91"/>
<path d="M30.9369 12.4727C30.6826 12.6317 30.5475 13.0849 30.4918 13.3632C30.4283 13.6932 30.4481 14.0431 30.5196 14.3691C30.6547 14.9774 31.0124 15.534 31.5011 15.9237C32.0415 16.353 32.713 16.5717 33.3965 16.6234C33.7541 16.6512 34.1117 16.6791 34.4733 16.6671C34.6402 16.6592 34.811 16.6512 34.9779 16.6353C35.2362 16.6154 35.4031 16.6353 35.57 16.854C35.6494 16.9574 35.6176 17.1045 35.57 17.2118C35.419 17.5378 34.9223 17.4981 34.6203 17.4941C34.2825 17.4941 33.9488 17.4583 33.615 17.4066C33.015 17.3152 32.423 17.0409 31.9143 16.7148C30.9965 16.1224 30.3965 15.1245 30.3885 14.0192C30.3885 13.737 30.4283 13.4547 30.5157 13.1843C30.5514 13.069 30.5991 12.9577 30.6547 12.8543C30.7263 12.7152 30.8534 12.5959 30.909 12.4488C30.9249 12.413 30.9687 12.4488 30.9369 12.4727Z" fill="#EAECF7"/>
<path d="M7.62833 91.6906C7.9025 92.0047 8.18859 92.3068 8.48263 92.605L24.4164 92.1597L7.62833 91.6906Z" fill="#173B91"/>
<path d="M6.25747 90.0088C6.47601 90.303 6.7025 90.5933 6.93297 90.8755L21.1104 90.4541L6.25747 90.0088Z" fill="#173B91"/>
<path d="M5.19257 88.4901C5.35548 88.7405 5.52634 88.991 5.6972 89.2375L16.7396 88.8717L5.19257 88.4901Z" fill="#173B91"/>
<path d="M4.29456 87.0071C4.41774 87.2297 4.54887 87.4484 4.67999 87.6671L13.7117 87.345L4.29456 87.0071Z" fill="#173B91"/>
<path d="M3.57933 85.6633C3.66675 85.8461 3.76212 86.029 3.86146 86.2119L10.5926 85.9455L3.57933 85.6633Z" fill="#173B91"/>
<path d="M2.99523 84.4228C3.06277 84.5818 3.13431 84.7409 3.2098 84.8959L8.55415 84.6653L2.99523 84.4228Z" fill="#173B91"/>
<path d="M9.36077 93.4558C9.69454 93.7659 10.0363 94.0681 10.3899 94.3544L26.574 93.921L9.36077 93.4558Z" fill="#173B91"/>
<path d="M11.7449 95.3841C12.174 95.6902 12.6151 95.9765 13.068 96.2508L28.9739 95.8334L11.7449 95.3841Z" fill="#173B91"/>
<path d="M15.3051 97.3442C15.7303 97.5032 16.1674 97.6424 16.6084 97.7656C17.0296 97.8849 17.4548 97.9922 17.88 98.0916L31.4534 97.7497L15.3051 97.3442Z" fill="#173B91"/>
<path d="M21.5077 6.42148C21.3369 6.67196 21.2813 6.94629 21.1621 7.22062C21.0548 7.47507 20.9594 7.74145 20.8839 8.00783C20.725 8.55649 20.6614 9.14491 20.6733 9.71345C20.6892 10.8028 21.0866 11.9041 21.8375 12.7033C22.4455 13.3553 21.4879 14.3214 20.8561 13.6853C19.8111 12.6357 19.2945 11.1845 19.3422 9.71345C19.366 8.97395 19.5409 8.29011 19.8667 7.62615C20.0217 7.31206 20.2084 7.03375 20.4389 6.77135C20.6693 6.50895 20.9753 6.35787 21.2495 6.15908C21.4044 6.04776 21.615 6.26642 21.5117 6.42148H21.5077Z" fill="#173B91"/>
</svg>
