<svg width="118" height="106" viewBox="0 0 118 106" fill="none" xmlns="http://www.w3.org/2000/svg">
<path d="M22.6216 42.3081C19.9267 42.3081 17.2657 42.2227 14.8869 42.0593L14.9321 41.4171C22.9189 41.9554 34.0448 41.6621 38.934 40.0585L39.141 40.6673C35.6406 41.8143 29.0351 42.3081 22.6216 42.3081Z" fill="#173B91"/>
<path d="M30.5858 63.3416C29.7465 63.3416 28.8959 63.3416 27.1607 61.9866C26.1332 61.1811 25.9187 58.2669 23.1673 57.8994C20.4122 57.5319 19.9756 55.635 18.391 53.1738C16.8065 50.7126 13.1518 45.07 13.1518 45.07L12.4517 44.8175V42.2301L13.2911 42.1076C14.9095 44.7507 16.3925 47.1562 16.3925 47.1562C16.3925 47.1562 20.4348 54.1167 21.4962 55.0373C22.5576 55.9617 22.6442 56.5074 23.8749 56.8415C25.1057 57.1756 25.6627 57.7658 25.9149 58.267C26.1709 58.7718 27.4468 61.0511 28.8469 61.9866C29.0803 62.1425 30.36 63.2116 30.5783 63.3416H30.5858Z" fill="#173B91"/>
<path d="M21.5 19.8231C32.6032 19.8231 35.2981 20.9553 35.9191 21.6309C36.0848 21.8091 36.0697 21.9316 36.0509 22.1358C36.0208 22.4216 35.3508 22.9933 34.7674 23.3126L34.4362 23.4945V23.8694C34.4287 24.1441 34.3459 30.596 34.3459 31.6799C34.3459 33.0312 35.0798 33.9184 36.3783 35.3736C37.5338 36.6655 38.6103 39.3717 38.7684 40.5707C38.8361 41.109 38.8888 47.9915 38.7684 77.7302C38.7646 78.8438 38.7608 79.5306 38.7608 79.6457C38.7608 79.8684 38.7157 81.8656 37.1988 83.1872C36.0433 84.1932 29.3099 85.0433 22.4936 85.0433C19.5277 85.0433 16.5129 84.9356 13.7804 84.7314C10.5924 84.4939 7.98033 84.1338 6.42588 83.7217C3.667 82.9867 3.34707 82.2851 2.97446 81.4758L2.93682 81.3942C2.63195 80.7334 2.63948 76.8615 2.65077 73.1159C2.65077 72.3809 2.65077 71.6199 2.65077 70.844V69.4779C2.64324 63.3601 2.62819 47.108 3.12877 40.7118C3.1777 40.103 3.22287 39.6204 3.27556 39.2455L3.28309 39.2009C3.32073 38.9188 3.36213 38.6998 3.39977 38.5476C3.9794 36.2571 5.46234 34.7611 6.34307 33.8665C6.7458 33.4581 6.99045 33.2131 7.10713 32.9458C7.36307 32.3519 7.2765 27.6819 7.15982 23.8657L7.14853 23.5168L6.84366 23.3349C6.84366 23.3349 6.38071 23.0564 5.95916 22.6926C5.40212 22.2138 5.37201 21.9799 5.37201 21.9799C5.37201 21.9539 5.39459 21.8945 5.4661 21.8166C6.01186 21.2226 8.66911 19.8379 21.4962 19.8379M21.5 19.1809C6.00057 19.1809 4.64183 21.1929 4.72839 22.0319C4.76603 22.4105 5.13865 22.8263 5.53762 23.1678C6.01186 23.5761 6.51621 23.8768 6.51621 23.8768C6.51621 23.8768 6.77215 32.0957 6.51621 32.686C6.26027 33.2725 3.6256 35.0321 2.77497 38.3842C2.72604 38.5736 2.68088 38.8334 2.63948 39.1527C2.58302 39.5647 2.53409 40.0696 2.48892 40.6561C1.93941 47.6351 2.00716 66.2408 2.00716 70.8366C2.00716 76.1228 1.92059 80.7297 2.34966 81.654C2.77497 82.5784 3.11372 83.499 6.26027 84.338C7.93517 84.7834 10.6263 85.1398 13.739 85.3699C16.4677 85.5741 19.5202 85.6818 22.5011 85.6818C28.8808 85.6818 36.1901 84.9245 37.6392 83.666C39.0845 82.4076 39.4233 80.5626 39.4233 79.642C39.4233 78.7214 39.5964 41.7364 39.4233 40.4816C39.2539 39.2232 38.1473 36.3685 36.8752 34.9467C35.5992 33.5212 35.0045 32.7676 35.0045 31.6762C35.0045 30.5848 35.0911 23.8731 35.0911 23.8731C35.0911 23.8731 36.623 23.0379 36.7095 22.1989C36.7961 21.3599 37.0069 19.1809 21.5113 19.1809H21.5Z" fill="#173B91"/>
<path d="M21.2704 25.7961C20.9467 25.7961 20.6305 25.7961 20.3257 25.7886C17.5103 25.7478 10.5473 25.4842 6.69311 23.9845L6.93399 23.3868C10.6903 24.8494 17.5592 25.1056 20.3369 25.1464C25.1358 25.217 31.3988 24.7232 34.5792 23.4499L34.8239 24.0476C31.5719 25.3469 25.7041 25.7961 21.2741 25.7961H21.2704Z" fill="#173B91"/>
<path d="M14.774 34.724C13.9686 34.724 13.0916 34.6015 12.1883 34.349C11.5522 34.1746 10.9763 34.0112 10.4042 33.7811L10.6489 33.1834C11.1909 33.3987 11.7479 33.5583 12.3652 33.7291C14.8192 34.4084 16.5731 33.989 17.3974 33.3727C17.8378 33.0423 18.0711 32.6377 18.0711 32.1959C18.0711 30.789 16.4075 29.8201 12.9862 29.241C10.7957 28.8735 9.13959 29.3672 8.52609 29.9835C8.30026 30.2099 8.20992 30.4549 8.25885 30.7073C8.38682 31.3718 8.69546 31.9064 9.20734 32.3444L8.77826 32.827C8.16476 32.2999 7.77332 31.6243 7.61901 30.8261C7.52867 30.3621 7.67923 29.9129 8.05937 29.5306C8.96269 28.6211 10.9839 28.2498 13.0954 28.6025C16.8818 29.2447 18.7223 30.4178 18.7223 32.1922C18.7223 32.8307 18.3911 33.4284 17.7888 33.8776C17.0474 34.4307 15.9935 34.7166 14.774 34.7166V34.724Z" fill="#173B91"/>
<path d="M10.1332 24.5116V28.9218C8.68417 29.2039 7.77332 29.9241 7.93893 30.7705C8.09701 31.5797 8.49598 32.1737 9.02667 32.6266C8.74062 33.072 8.37553 33.5064 7.92011 33.9073C5.61289 35.9193 4.08102 36.8919 2.93305 39.9248C2.79379 40.296 2.63948 40.5336 2.48516 40.6561C2.56796 39.6093 2.66206 38.8223 2.77121 38.3842C3.62183 35.0321 6.26027 33.2688 6.51244 32.686C6.76838 32.0994 6.51244 23.8768 6.51244 23.8768L10.1295 24.5153L10.1332 24.5116Z" fill="#173B91"/>
<path d="M13.739 85.3662C10.6263 85.1398 7.93893 84.7834 6.26027 84.338C3.10995 83.499 2.77121 82.5746 2.34966 81.654C1.92435 80.7297 2.00716 76.1228 2.00716 70.8366C2.00716 66.2445 1.94317 47.6351 2.48516 40.6524C2.53033 40.0659 2.57926 39.561 2.63571 39.1527L3.52021 38.6033C5.47363 40.5336 8.55996 41.3614 12.99 41.6102C14.1041 51.5478 13.7427 85.3662 13.7427 85.3662H13.739Z" fill="#173B91"/>
<path d="M20.8112 24.3817C20.1525 24.3817 19.524 24.3669 18.9406 24.3372C14.1041 24.0884 7.94269 23.1233 6.73075 22.4291C6.25274 22.1544 6.01562 21.8722 6.00809 21.5641C5.99304 21.1075 6.48986 20.7437 6.95657 20.4356L7.13724 20.7029C6.73451 20.9664 6.32425 21.2746 6.33178 21.553C6.33931 21.7386 6.5275 21.9391 6.89259 22.1507C8.05185 22.8151 14.2509 23.7729 18.9556 24.0142C23.8975 24.2703 32.2231 23.3349 33.8754 22.9711C35.5014 22.611 36.1751 22.0096 36.1826 22.0022L36.4047 22.236C36.3746 22.262 35.6707 22.9005 33.9469 23.2829C32.479 23.6096 25.7794 24.378 20.8112 24.378V24.3817Z" fill="#173B91"/>
<path d="M9.70792 23.0861C13.7427 21.6235 22.9867 21.7497 27.2624 22.1247C31.5381 22.4996 33.5141 23.2086 33.5141 23.2086" fill="#EAECF7"/>
<path d="M33.4011 23.5093C33.3823 23.5019 31.3988 22.8114 27.2323 22.4439C22.4259 22.0207 13.5696 22.0244 9.82084 23.3868L9.59501 22.7854C13.8519 21.2412 23.3555 21.4602 27.2887 21.8054C31.5531 22.1803 33.5404 22.8782 33.6232 22.9079L33.4011 23.513V23.5093Z" fill="#173B91"/>
<path d="M31.0224 63.4901C30.3374 63.4901 29.6712 63.2228 28.862 62.6808C27.2661 61.6154 25.6929 58.5379 25.6289 58.408C25.3315 57.8215 24.7143 57.3983 23.7921 57.1496C22.8587 56.8971 22.5011 56.5111 22.042 56.0248C21.8387 55.8057 21.6053 55.5607 21.2817 55.2786C20.1902 54.332 16.2795 47.6017 16.1139 47.3122C15.8542 46.8927 9.64394 36.8177 8.97022 35.6112C8.30026 34.4122 8.17981 33.8442 8.40941 32.9681C8.61642 32.1737 10.7166 30.466 11.1344 30.1319L11.3038 29.9983L11.4957 30.0985C11.5183 30.1097 12.0829 30.4104 12.4028 30.6814C12.8018 31.0192 12.8131 31.5389 12.8131 31.5946V31.7431L12.6964 31.8396C12.6738 31.8581 12.1055 32.3296 11.6501 32.5486C11.3264 32.7008 10.5999 33.8071 10.6752 34.1189C10.8559 34.6052 15.1767 41.5805 18.0335 46.1465C19.731 48.7859 23.1636 53.9867 24.0142 54.7589C24.5901 55.286 24.9702 55.4048 25.3692 55.531C25.6929 55.6313 26.0278 55.7389 26.4193 56.0433C26.9462 56.4517 27.7931 57.6544 28.6136 58.8201C29.1217 59.5402 29.5997 60.2196 29.9083 60.5722C30.5218 61.2739 30.9773 61.1328 31.73 60.9063L31.9069 60.8544C32.3887 60.7096 32.7011 60.847 32.878 60.9843C33.3372 61.3407 33.3673 62.0757 33.3447 62.4803L33.3334 62.6474L33.1866 62.7365C32.3586 63.2413 31.6811 63.4938 31.0187 63.4938L31.0224 63.4901ZM11.3715 30.7705C10.4118 31.5537 9.14335 32.7231 9.03796 33.1277C8.87612 33.7439 8.87612 34.1152 9.53855 35.2994C10.2085 36.4947 16.6108 46.8815 16.6748 46.9855C17.7964 48.9158 20.8752 54.0684 21.7145 54.796C22.0645 55.1004 22.3054 55.3603 22.5237 55.5867C22.9566 56.047 23.2163 56.3255 23.969 56.5296C25.0756 56.8303 25.8321 57.3649 26.216 58.1222C26.2311 58.1519 27.778 61.1773 29.2308 62.1499C30.4277 62.9481 31.1956 63.1485 32.7011 62.2762C32.7011 61.8938 32.6183 61.6005 32.4753 61.4892C32.4451 61.4669 32.351 61.3927 32.0951 61.4706L31.922 61.5226C31.1278 61.7639 30.3073 62.0126 29.4153 60.9954C29.084 60.6168 28.5948 59.9226 28.0791 59.1913C27.3602 58.1704 26.4644 56.9008 26.0165 56.5519C25.7154 56.318 25.4633 56.2364 25.1697 56.1473C24.7406 56.0136 24.2551 55.8577 23.5738 55.2378C22.4484 54.2132 17.6835 46.8073 17.484 46.4955C15.7714 43.7558 10.1746 34.7945 10.0467 34.2822C9.866 33.5695 10.8634 32.2182 11.3678 31.9769C11.6312 31.8507 11.9587 31.6094 12.1393 31.4646C12.1168 31.3718 12.0716 31.2568 11.9775 31.1751C11.8119 31.034 11.5522 30.8744 11.3715 30.7742V30.7705Z" fill="#173B91"/>
<path d="M30.4127 63.0112C30.4127 63.0112 31.173 64.1583 32.4489 64.6631C33.7248 65.168 34.4061 65.168 35.3395 64.2436C36.2729 63.3193 37.2101 62.6511 38.2377 62.3987C39.2652 62.1462 41.2073 61.2256 42.1445 60.7838C43.0817 60.3421 43.5898 59.3806 44.1845 58.8758C44.7792 58.3709 45.5432 58.7087 46.3938 58.1222C47.2445 57.5356 46.6498 55.8577 45.882 54.6846C45.1179 53.5116 44.0113 53.3445 43.2473 53.5116C42.4832 53.6786 42.1407 54.8517 41.6326 54.9371C41.1245 55.0225 39.4948 55.1041 38.1473 55.5236C36.7999 55.9431 35.2567 57.7027 34.1501 58.2076C33.0436 58.7124 32.1102 58.46 31.2595 58.627C30.4089 58.7941 29.7277 59.633 29.6637 60.7876C29.6637 60.7876 30.0664 58.8275 31.6848 59.2284C33.3033 59.6293 33.7399 60.2493 34.4701 61.749C35.0497 62.9407 34.6545 63.839 34.3835 64.2214C33.9921 64.7745 32.6446 65.1754 31.7263 64.2696" fill="#EAECF7"/>
<path d="M33.8114 65.3202C33.4727 65.3202 33.1151 65.2422 32.7161 65.1049C32.2908 65.0455 31.8956 64.8636 31.5719 64.5703C30.6761 63.9912 30.1643 63.2265 30.1379 63.1857L30.6837 62.833C30.6837 62.833 31.1579 63.5346 31.9483 64.0432H31.9521C31.9521 64.0432 31.9634 64.0506 31.9709 64.058C32.1516 64.1731 32.351 64.2771 32.5656 64.3624C32.671 64.4033 32.7726 64.4404 32.8667 64.4738C32.9758 64.4849 33.0812 64.4849 33.1716 64.4738C33.6307 64.433 33.9808 64.2177 34.1087 64.032C34.2631 63.8167 34.7185 63.0186 34.169 61.8827C33.4689 60.4423 33.0925 59.9078 31.5983 59.5328C31.2595 59.4474 30.9773 59.4808 30.7288 59.6368C30.168 59.982 29.9798 60.8358 29.9798 60.8432L29.3362 60.7616C29.4077 59.4957 30.153 58.5082 31.1918 58.3041C31.5268 58.2373 31.8542 58.2335 32.2005 58.2261C32.7726 58.215 33.3635 58.2038 34.0071 57.9106C34.4475 57.7101 34.9932 57.2684 35.5691 56.8043C36.3821 56.1473 37.2177 55.4679 38.0419 55.2118C39.0883 54.8851 40.304 54.7552 41.0342 54.6772C41.2675 54.6512 41.452 54.6327 41.5762 54.6141C41.6778 54.5993 41.881 54.3246 42.0128 54.1464C42.2913 53.7752 42.6376 53.3111 43.172 53.1923C43.6086 53.0995 45.1104 52.9102 46.153 54.5065C47.0864 55.9357 47.5794 57.6916 46.5745 58.382C46.0739 58.7273 45.5922 58.7941 45.2007 58.8498C44.8695 58.898 44.606 58.9314 44.3877 59.1171C44.1995 59.2767 44.0076 59.5031 43.8043 59.7444C43.4016 60.2196 42.9462 60.7579 42.2762 61.0734L42.1821 61.1179C41.1847 61.5857 39.3329 62.4581 38.3092 62.7105C37.436 62.9258 36.5665 63.4826 35.5653 64.4701C34.9481 65.0789 34.4061 65.3202 33.8114 65.3202ZM31.6698 58.8943C31.6999 58.9017 31.73 58.9092 31.7601 58.9166C33.499 59.3509 34.0109 60.0711 34.7599 61.6117C35.4637 63.0594 34.854 64.1174 34.647 64.407C34.7938 64.3068 34.9443 64.1768 35.1062 64.0172C36.1939 62.9444 37.165 62.3318 38.1549 62.0868C39.1184 61.853 41.0003 60.9657 41.9036 60.5388L41.9977 60.4943C42.5397 60.2381 42.9274 59.7778 43.3075 59.3324C43.5296 59.0725 43.7366 58.8275 43.9662 58.6307C44.3275 58.3263 44.7265 58.2707 45.1104 58.215C45.4792 58.163 45.8293 58.1147 46.2019 57.8586C46.789 57.454 46.36 56.0136 45.6034 54.8591C44.7905 53.6118 43.6463 53.7529 43.3113 53.8234C43.0139 53.8902 42.7693 54.2132 42.5359 54.5324C42.2838 54.874 42.0429 55.1932 41.6778 55.2526C41.5498 55.2749 41.3503 55.2972 41.1019 55.3232C40.3981 55.3974 39.2238 55.5236 38.2377 55.8317C37.5338 56.0507 36.7434 56.6893 35.9794 57.3055C35.3696 57.7992 34.7938 58.2632 34.2781 58.4971C33.5065 58.8498 32.8178 58.8609 32.208 58.872C32.0198 58.872 31.8392 58.8795 31.6623 58.8943H31.6698Z" fill="#173B91"/>
<path d="M44.5684 53.4967L43.921 53.4114C43.9699 53.0661 43.6576 52.3608 43.379 51.7334C43.2473 51.429 43.108 51.1172 43.0026 50.8314L42.9612 50.7163C42.5999 49.7362 42.0504 48.2588 42.3063 46.644C42.4945 45.4598 41.2939 43.2658 40.4997 41.8106C40.2927 41.432 40.1045 41.0905 39.9577 40.7972C39.205 39.3086 34.4663 31.2568 34.4211 31.1751L34.9857 30.8521C35.1814 31.1862 39.7808 39.0042 40.5449 40.5113C40.6917 40.7972 40.8761 41.135 41.0793 41.5062C41.9676 43.1248 43.1795 45.3447 42.9575 46.7442C42.7241 48.192 43.2398 49.5803 43.5785 50.4972L43.6199 50.6123C43.7178 50.8796 43.8533 51.184 43.9812 51.4773C44.32 52.2457 44.6399 52.9733 44.5722 53.4967H44.5684Z" fill="#173B91"/>
<path d="M46.1341 54.8851L45.626 54.4805C45.961 54.0721 45.3475 52.6132 44.9372 51.6518C44.8544 51.4587 44.7754 51.2694 44.7039 51.0912C44.6474 50.9539 44.591 50.8165 44.5345 50.6791C44.0377 49.4912 43.4769 48.1437 43.3226 45.6268C43.1946 43.5554 42.3703 42.2041 41.4934 40.7749C41.2374 40.3591 40.9739 39.9248 40.7255 39.4682C39.634 37.4785 34.4663 28.2944 34.4136 28.2016L34.982 27.8898C35.0346 27.9826 40.2024 37.1703 41.2976 39.1601C41.5423 39.6019 41.802 40.0288 42.0504 40.4408C42.9688 41.9406 43.8344 43.3549 43.9699 45.586C44.1167 47.9989 44.6587 49.2945 45.133 50.4341C45.1932 50.5752 45.2496 50.7163 45.3061 50.8536C45.3776 51.0281 45.4567 51.2137 45.5357 51.403C46.1116 52.7654 46.7062 54.1761 46.1304 54.8851H46.1341Z" fill="#173B91"/>
<path d="M21.579 36.8103C17.9281 36.8103 14.3487 36.4873 11.6275 36.1569C11.4393 36.1346 11.3038 36.1161 11.2285 36.1086L11.2963 35.4701C11.3753 35.4776 11.5146 35.4961 11.7103 35.5184C18.3873 36.3314 30.3374 37.1035 35.3659 33.1054L35.7761 33.6066C32.6522 36.0901 27.0365 36.8103 21.5828 36.8103H21.579Z" fill="#173B91"/>
<path d="M9.23745 35.6186C7.64535 35.4479 6.27532 34.5755 6.21887 34.5384L6.39577 34.2711C6.39577 34.2711 7.75827 35.1397 9.27132 35.2994L9.23745 35.6186Z" fill="#173B91"/>
<path d="M19.8627 85.3699L20.4687 64.0246L21.0747 85.3699H19.8627Z" fill="#173B91"/>
<path d="M21.2591 85.3699L21.8274 66.6232L22.3958 85.3699H21.2591Z" fill="#173B91"/>
<path d="M22.5764 85.3699L23.0883 70.0607L23.6002 85.3699H22.5764Z" fill="#173B91"/>
<path d="M23.8335 85.3699L24.304 72.4403L24.7745 85.3699H23.8335Z" fill="#173B91"/>
<path d="M24.9965 85.3699L25.4219 74.894L25.8434 85.3699H24.9965Z" fill="#173B91"/>
<path d="M26.0504 85.3699L26.4419 76.4977L26.8333 85.3699H26.0504Z" fill="#173B91"/>
<path d="M18.4362 85.3699L19.0648 62.3244L19.6933 85.3699H18.4362Z" fill="#173B91"/>
<path d="M16.8893 84.9505L17.5404 60.4386L18.1878 84.9505H16.8893Z" fill="#173B91"/>
<path d="M13.9159 84.9505L14.6461 54.1501L15.3725 84.9505H13.9159Z" fill="#173B91"/>
<path d="M15.3386 84.9505L16.0123 58.4897L16.686 84.9505H15.3386Z" fill="#173B91"/>
<path d="M13.5433 51.5367C13.4717 49.4059 14.488 47.1265 15.7413 49.0643C16.9947 51.0021 15.7413 47.2602 15.7413 47.2602L13.1556 44.3052L12.1356 46.4435L13.5433 51.5367Z" fill="#173B91"/>
<path d="M15.8806 33.124C16.419 33.124 16.8554 32.6935 16.8554 32.1625C16.8554 31.6315 16.419 31.2011 15.8806 31.2011C15.3422 31.2011 14.9058 31.6315 14.9058 32.1625C14.9058 32.6935 15.3422 33.124 15.8806 33.124Z" fill="#173B91"/>
<path d="M9.2525 31.2605C9.59965 31.2605 9.88106 30.9829 9.88106 30.6405C9.88106 30.2981 9.59965 30.0206 9.2525 30.0206C8.90536 30.0206 8.62394 30.2981 8.62394 30.6405C8.62394 30.9829 8.90536 31.2605 9.2525 31.2605Z" fill="#173B91"/>
<path d="M35.5541 59.2099C36.5063 58.5157 37.4698 57.7769 38.55 57.2832C39.1222 57.0196 39.7281 56.8489 40.3492 56.7227C40.9702 56.5964 41.6439 56.5519 42.2649 56.3626C42.3477 56.3366 42.3327 56.2178 42.2461 56.2141C41.6063 56.1807 40.9551 56.2958 40.3303 56.4257C39.7055 56.5556 39.0996 56.7375 38.5199 57.0048C37.3795 57.5282 36.4273 58.3152 35.4901 59.1282C35.4449 59.1653 35.5051 59.247 35.5541 59.2099Z" fill="#173B91"/>
<path d="M28.9598 33.5769C28.9824 33.5769 28.9824 33.5435 28.9598 33.5435C28.9373 33.5435 28.9373 33.5769 28.9598 33.5769Z" fill="#173B91"/>
<path d="M29.0878 32.8233C29.1104 32.8233 29.1104 32.7899 29.0878 32.7899C29.0652 32.7899 29.0652 32.8233 29.0878 32.8233Z" fill="#173B91"/>
<path d="M16.9608 23.8509C16.9608 23.8509 16.6635 21.8797 17.4727 21.334C18.2819 20.7883 21.85 20.9553 22.3619 20.9999C22.8738 21.0444 23.5512 21.8945 23.7206 22.2286C22.87 22.0616 19.4412 21.9465 18.8728 22.0616C18.2781 22.1841 18.0448 22.3882 18.0222 23.0676C18.0071 23.5316 18.0222 23.8509 18.0222 23.8509H16.9608Z" fill="#EAECF7"/>
<path d="M16.8215 24.0105L16.799 23.8731C16.7877 23.7877 16.4979 21.7943 17.3786 21.2003C18.3082 20.573 22.3318 20.8328 22.3732 20.8365C22.9754 20.8848 23.6867 21.798 23.8674 22.1544L24.018 22.4476L23.6905 22.3845C22.8662 22.2212 19.4713 22.1024 18.9105 22.2175C18.3948 22.3214 18.2066 22.4662 18.1916 23.0713C18.1765 23.5205 18.1916 23.8397 18.1916 23.8434L18.1991 24.0105H16.8215ZM17.1038 23.6912H17.8566C17.8566 23.5502 17.8566 23.3311 17.8604 23.0639C17.8829 22.3511 18.1389 22.0467 18.8389 21.9056C19.3734 21.798 22.1775 21.8797 23.3894 22.0207C23.1222 21.6569 22.663 21.1892 22.3431 21.1632C21.4924 21.0927 18.2631 20.9961 17.5592 21.4713C17.0135 21.8388 17.0323 23.0936 17.1001 23.6949L17.1038 23.6912Z" fill="#173B91"/>
<path d="M23.7206 22.288C24.0819 22.7298 24.0518 24.133 24.0518 24.133L23.2388 24.1701C23.2388 24.1701 23.2878 22.4699 22.8549 22.1989C23.427 22.1952 23.7206 22.288 23.7206 22.288Z" fill="#EAECF7"/>
<path d="M23.0695 24.3372V24.1627C23.0958 23.3905 22.9829 22.4699 22.7684 22.3326L22.3054 22.0393H22.8549C23.4571 22.0393 23.7583 22.1284 23.7733 22.1321L23.8185 22.1469L23.8486 22.1841C24.2363 22.6592 24.2174 23.9845 24.2137 24.133V24.2815L23.0695 24.3334V24.3372ZM23.1749 22.366C23.3781 22.8263 23.4045 23.6133 23.4007 23.9993L23.8862 23.9771C23.8825 23.5464 23.8298 22.7446 23.619 22.4254C23.5475 22.4105 23.3969 22.3808 23.1711 22.366H23.1749Z" fill="#173B91"/>
<path d="M32.9721 75.0945C32.9947 75.0945 32.9947 75.0611 32.9721 75.0611C32.9495 75.0611 32.9495 75.0945 32.9721 75.0945Z" fill="#173B91"/>
<path d="M30.917 82.6563C31.5983 82.983 32.2419 82.8085 32.9344 82.5932C33.5404 82.4039 34.1502 82.2034 34.7072 81.899C35.9756 81.216 36.4724 80.0763 36.5853 78.6991C36.7284 76.9989 36.6982 75.2653 36.6757 73.5576C36.6531 71.85 36.5552 69.9865 36.3633 68.2046C36.3482 68.0821 36.1563 68.0784 36.1638 68.2046C36.3708 71.2895 36.495 74.3743 36.3595 77.4629C36.2993 78.829 36.2692 80.3287 35.0986 81.2642C34.5642 81.6911 33.9093 81.951 33.2657 82.1737C32.5355 82.4262 31.7338 82.7268 30.9471 82.5858C30.9095 82.5784 30.8756 82.634 30.917 82.6563Z" fill="#173B91"/>
<path d="M36.4348 54.6141C36.3294 53.7083 36.3633 52.7617 36.3557 51.8485C36.3482 50.9353 36.3557 50.0035 36.3633 49.0829C36.3708 48.1623 36.3708 47.2379 36.3859 46.3136C36.4009 45.3892 36.5138 44.4537 36.4385 43.548C36.4273 43.4106 36.2391 43.4143 36.224 43.548C36.1186 44.4537 36.2165 45.4041 36.224 46.3136C36.2315 47.2231 36.2391 48.1585 36.2579 49.0829C36.2767 50.0072 36.3106 50.9279 36.3407 51.8485C36.3708 52.7691 36.4536 53.7009 36.4047 54.6141C36.4047 54.6364 36.4385 54.6327 36.4385 54.6141H36.4348Z" fill="#173B91"/>
<path d="M32.2532 26.4346C32.1102 27.526 32.0123 28.6248 32.0386 29.7273C32.0499 30.2656 32.0838 30.8039 32.1365 31.3421C32.1629 31.6057 32.1854 31.873 32.2381 32.1291C32.2833 32.3556 32.3096 32.6006 32.4903 32.7602C32.5656 32.827 32.6936 32.8233 32.75 32.7268C32.8667 32.5152 32.8178 32.285 32.7989 32.0512C32.7726 31.7728 32.7274 31.4943 32.6936 31.2196C32.6333 30.7036 32.5957 30.1839 32.5731 29.6642C32.5279 28.5839 32.5317 27.5074 32.6446 26.4309C32.671 26.1821 32.2871 26.1896 32.2532 26.4309V26.4346Z" fill="#173B91"/>
<path d="M59.7366 91.6176C56.2023 91.6176 52.6154 91.4914 49.3597 91.2464C45.5508 90.9643 42.423 90.5337 40.5486 90.0325C37.0935 89.1119 36.6568 88.1578 36.1977 87.1518L36.1525 87.0553C35.7535 86.1941 35.7648 81.758 35.7761 77.062C35.7761 76.1859 35.7799 75.2838 35.7799 74.3632V72.7372C35.7724 65.465 35.7535 46.1502 36.3482 38.5364C36.4047 37.8051 36.4611 37.226 36.5251 36.7731V36.7434C36.5778 36.3833 36.6267 36.0975 36.6794 35.9008C37.3946 33.0757 39.2012 31.253 40.2776 30.1654C40.7105 29.7273 40.9965 29.4378 41.1057 29.189C41.4181 28.4689 41.2073 20.8736 41.1358 18.5646L41.1283 18.3568L40.9476 18.2491C40.9476 18.2491 40.368 17.9039 39.841 17.4473C39.3405 17.0203 39.0393 16.6194 39.0092 16.3484C38.9942 16.1925 39.0657 16.0292 39.22 15.8584C40.0706 14.9341 43.7102 13.3824 58.5472 13.3824C71.2162 13.3824 75.0101 14.6185 75.9624 15.6542C76.2748 15.9921 76.2447 16.2742 76.2183 16.5489C76.1581 17.128 75.1306 17.8964 74.4945 18.2417L74.2988 18.3493V18.5721C74.295 18.65 74.1934 26.5608 74.1934 27.8452C74.1934 29.3115 75.0327 30.3213 76.5119 31.9806C77.9309 33.5658 79.2482 36.8882 79.4477 38.3545C79.5267 38.9411 79.5945 47.082 79.4514 82.5487C79.4477 83.8702 79.4439 84.6869 79.4439 84.8243C79.4439 86.1013 78.9245 88.0428 77.4566 89.3198C76 90.5856 68.0508 91.6176 59.7328 91.6176H59.7366Z" fill="#EAECF7"/>
<path d="M58.551 13.7647C71.7394 13.7647 74.9424 15.1085 75.6801 15.9104C75.8758 16.122 75.8608 16.2705 75.8382 16.5118C75.8043 16.8496 75.0026 17.5289 74.3138 17.9076L73.9186 18.1229V18.5683C73.9073 18.895 73.8132 26.5571 73.8132 27.8452C73.8132 29.4489 74.6865 30.5069 76.2296 32.2331C77.6034 33.7662 78.8793 36.9847 79.0713 38.4065C79.1503 39.045 79.2143 47.2231 79.0713 82.5487C79.0675 83.8702 79.0638 84.6869 79.0638 84.8243C79.0638 85.0878 79.0111 87.4637 77.2082 89.0339C75.8382 90.2293 67.8363 91.2353 59.7403 91.2353C56.2136 91.2353 52.638 91.1091 49.3898 90.8678C45.6034 90.5856 42.5021 90.1587 40.6503 89.665C37.372 88.7926 36.9918 87.9574 36.5515 86.9959L36.5063 86.8957C36.145 86.1124 36.1563 81.5129 36.1638 77.062C36.1638 76.1859 36.1676 75.2838 36.1676 74.3632V72.7409C36.16 65.4724 36.1412 46.1651 36.7359 38.5698C36.7923 37.846 36.8488 37.2743 36.909 36.8288L36.9166 36.7731C36.9617 36.439 37.0069 36.1792 37.0558 35.9936C37.7484 33.2725 39.5061 31.4943 40.5562 30.4326C41.0379 29.9463 41.324 29.6531 41.4632 29.3375C41.7681 28.6322 41.6665 23.0824 41.5235 18.5498L41.5084 18.134L41.1471 17.9187C41.1471 17.9187 40.5938 17.5883 40.0932 17.1577C39.4308 16.5897 39.3969 16.3113 39.3969 16.3113C39.3969 16.2816 39.4233 16.2111 39.5098 16.1146C40.1572 15.4092 43.315 13.761 58.551 13.761M58.551 13C40.1384 13 38.5237 15.3907 38.6253 16.3856C38.6705 16.8347 39.1146 17.3285 39.5851 17.7331C40.1459 18.2194 40.7481 18.5721 40.7481 18.5721C40.7481 18.5721 41.0492 28.3352 40.7481 29.0368C40.447 29.731 37.3155 31.8247 36.3031 35.8079C36.2466 36.0344 36.1901 36.3425 36.1412 36.7212C36.0772 37.2112 36.017 37.8088 35.9643 38.5067C35.3169 46.7999 35.396 68.9062 35.396 74.3632C35.396 80.6406 35.2943 86.1161 35.8025 87.2149C36.3068 88.31 36.7095 89.4051 40.447 90.4037C42.4381 90.9346 45.6298 91.3541 49.3296 91.6288C52.5703 91.8701 56.1986 92 59.7366 92C67.3131 92 76 91.1016 77.7163 89.6056C79.4326 88.1133 79.8354 85.9194 79.8354 84.8243C79.8354 83.7291 80.0424 39.7949 79.8354 38.3026C79.6359 36.8065 78.3223 33.4173 76.8092 31.7282C75.2962 30.0317 74.5886 29.1408 74.5886 27.8452C74.5886 26.5496 74.6902 18.5758 74.6902 18.5758C74.6902 18.5758 76.5081 17.5846 76.6098 16.586C76.7114 15.5911 76.9636 13 58.5547 13H58.551Z" fill="#173B91"/>
<path d="M50.7185 39.7986C59.4204 40.3851 73.1922 40.1958 79.3837 38.1652L50.7185 39.7986Z" fill="#EAECF7"/>
<path d="M59.8796 40.4742C56.6804 40.4742 53.5225 40.3703 50.6921 40.181L50.7448 39.42C60.2334 40.0585 73.4519 39.7095 79.2595 37.8051L79.5041 38.529C75.3489 39.8914 67.4976 40.4742 59.8796 40.4742Z" fill="#173B91"/>
<path d="M69.3456 65.4613C68.3519 65.4613 67.3395 65.4613 65.2769 63.8501C64.0537 62.8961 63.8015 59.4326 60.5345 58.9945C57.2637 58.5602 56.7443 56.3069 54.8624 53.3817C52.9805 50.4564 48.6408 43.7558 48.6408 43.7558L47.809 43.4589V40.3851L48.8027 40.2404C50.726 43.3809 52.4875 46.2356 52.4875 46.2356C52.4875 46.2356 57.2901 54.5027 58.551 55.5979C59.8119 56.693 59.9135 57.3426 61.3776 57.7398C62.8417 58.137 63.5004 58.8349 63.8015 59.4326C64.1026 60.034 65.6194 62.7402 67.2868 63.8501C67.5653 64.0358 69.0821 65.3091 69.3456 65.4613Z" fill="#173B91"/>
<path d="M58.2762 20.8588C57.8923 20.8588 57.5197 20.8588 57.1546 20.8514C53.8123 20.7994 45.5395 20.4913 40.9589 18.7094L41.2449 18.0004C45.7051 19.7377 53.8688 20.0421 57.1697 20.0904C62.8718 20.1795 70.3091 19.5855 74.088 18.0746L74.3778 18.7837C70.5161 20.3279 63.5418 20.8625 58.2762 20.8625V20.8588Z" fill="#173B91"/>
<path d="M50.5566 31.4646C49.6006 31.4646 48.558 31.3199 47.4854 31.0229C46.7288 30.815 46.0438 30.6182 45.3663 30.3473L45.6561 29.6382C46.2997 29.8944 46.9584 30.0837 47.6961 30.2842C50.6131 31.0897 52.6945 30.5923 53.6768 29.861C54.2 29.4675 54.4785 28.9849 54.4785 28.4652C54.4785 26.7909 52.5025 25.6439 48.4376 24.9534C45.833 24.5153 43.8646 25.1019 43.1381 25.8369C42.8709 26.1079 42.7618 26.3974 42.822 26.6981C42.9763 27.4888 43.3414 28.1236 43.9474 28.6433L43.4392 29.2187C42.7091 28.5914 42.2461 27.7895 42.0617 26.8392C41.9525 26.2861 42.1332 25.7552 42.5849 25.2986C43.6576 24.2184 46.0626 23.7766 48.5656 24.1998C53.0633 24.9645 55.2501 26.3566 55.2501 28.4652C55.2501 29.2225 54.8587 29.9352 54.1435 30.4698C53.2628 31.1268 52.0095 31.4646 50.5604 31.4646H50.5566Z" fill="#173B91"/>
<path d="M45.0464 19.3368V24.5747C43.3226 24.9126 42.2424 25.7664 42.4418 26.7724C42.6263 27.7338 43.1043 28.4429 43.7366 28.9774C43.3941 29.5046 42.9612 30.0243 42.4193 30.4957C39.6792 32.8864 37.8575 34.0409 36.495 37.6455C36.3294 38.0873 36.145 38.3657 35.9643 38.5142C36.0622 37.2706 36.1751 36.3351 36.3068 35.8154C37.3155 31.8321 40.4508 29.7385 40.7519 29.0443C41.053 28.3464 40.7519 18.5795 40.7519 18.5795L45.0502 19.3405L45.0464 19.3368Z" fill="#173B91"/>
<path d="M49.3296 91.6251H49.3259C45.6298 91.3541 42.4343 90.9346 40.4432 90.4037C36.702 89.4089 36.2993 88.31 35.7987 87.2149C35.2906 86.1198 35.3922 80.6443 35.3922 74.3632C35.3922 68.9062 35.3132 46.8036 35.9605 38.5067C36.0132 37.8088 36.0735 37.2075 36.1374 36.7249L37.1875 36.0715C39.5061 38.362 43.1758 39.3457 48.4376 39.6427C49.7625 51.4476 49.3296 91.6213 49.3296 91.6213V91.6251Z" fill="#173B91"/>
<path d="M57.7305 19.1809C56.9476 19.1809 56.1986 19.166 55.506 19.1289C49.7625 18.8319 42.4418 17.6885 41.0003 16.8607C40.432 16.534 40.1534 16.1999 40.1421 15.8324C40.1271 15.2904 40.7142 14.8561 41.2713 14.4923L41.4858 14.8116C41.0078 15.1271 40.5185 15.4909 40.5298 15.8213C40.5373 16.0403 40.7594 16.2779 41.196 16.5303C42.5698 17.321 49.9394 18.457 55.5286 18.7465C61.4002 19.0509 71.2915 17.941 73.2524 17.5066C75.187 17.076 75.985 16.3633 75.9925 16.3596L76.256 16.638C76.2221 16.6714 75.3865 17.425 73.339 17.8816C71.5964 18.2677 63.6359 19.1846 57.7342 19.1846L57.7305 19.1809Z" fill="#173B91"/>
<path d="M44.542 17.6403C49.3334 15.903 60.3162 16.0515 65.3936 16.5006C70.471 16.9498 72.8196 17.7888 72.8196 17.7888" fill="#EAECF7"/>
<path d="M72.6879 18.1452C72.6653 18.1377 70.3091 17.3173 65.356 16.8793C59.6462 16.3744 49.1264 16.3818 44.6738 18.0004L44.4065 17.2839C49.4614 15.4501 60.7528 15.7062 65.4275 16.122C70.4936 16.5712 72.8535 17.3953 72.9513 17.4324L72.6879 18.1526V18.1452Z" fill="#173B91"/>
<path d="M69.8612 65.6394C69.0483 65.6394 68.2541 65.3202 67.2943 64.6817C65.3974 63.4158 63.5305 59.763 63.4515 59.6071C63.0977 58.9129 62.3637 58.408 61.2722 58.111C60.1656 57.8103 59.7366 57.3537 59.1946 56.7746C58.9537 56.5148 58.6789 56.2215 58.2913 55.8874C56.9965 54.7626 52.3482 46.7665 52.1525 46.4249C51.8438 45.9238 44.4668 33.9593 43.6651 32.5226C42.8671 31.1008 42.7241 30.4252 42.9951 29.3821C43.2398 28.4392 45.7352 26.4086 46.232 26.0114L46.4315 25.8517L46.6573 25.9705C46.6874 25.9854 47.3536 26.3418 47.7375 26.6647C48.2118 27.0656 48.2268 27.6819 48.2268 27.7524V27.9306L48.0913 28.0457C48.0612 28.0679 47.3913 28.6285 46.8455 28.8884C46.4616 29.0702 45.5959 30.3844 45.69 30.7519C45.9045 31.331 51.0346 39.6167 54.4296 45.0403C56.4432 48.1734 60.5232 54.3505 61.5357 55.2712C62.2207 55.8948 62.6686 56.0359 63.1428 56.1844C63.5267 56.3069 63.9219 56.4294 64.3924 56.7932C65.0172 57.2795 66.0221 58.7087 66.997 60.0934C67.5992 60.9472 68.1675 61.7565 68.5364 62.1759C69.2628 63.0075 69.8048 62.8441 70.7006 62.5731L70.9113 62.51C71.4834 62.3393 71.8523 62.5026 72.0631 62.6659C72.6088 63.0928 72.6465 63.9615 72.6201 64.4404L72.6088 64.6409L72.4357 64.7448C71.4496 65.3425 70.6479 65.6432 69.8612 65.6432V65.6394ZM46.5181 26.7724C45.3776 27.7041 43.8721 29.0888 43.7441 29.5751C43.5522 30.3101 43.5522 30.7482 44.3388 32.1551C45.133 33.5769 52.7396 45.9126 52.8149 46.0389C54.1473 48.333 57.8057 54.4508 58.7994 55.3157C59.2134 55.6758 59.5032 55.9839 59.7592 56.2549C60.271 56.8006 60.5797 57.131 61.4755 57.376C62.7928 57.7324 63.6886 58.3709 64.144 59.2655C64.1628 59.3027 65.9958 62.8961 67.7272 64.0469C69.1499 64.9972 70.0607 65.2348 71.8523 64.1954C71.8523 63.7425 71.7544 63.3898 71.5851 63.2599C71.5474 63.2302 71.4383 63.1448 71.1334 63.2376L70.9264 63.3007C69.9817 63.5866 69.0069 63.8836 67.9492 62.6734C67.554 62.2242 66.9744 61.4001 66.3609 60.5277C65.5065 59.3175 64.4451 57.8066 63.9106 57.3909C63.5531 57.1124 63.252 57.0196 62.9057 56.9083C62.3976 56.7486 61.8217 56.5667 61.0087 55.828C59.6726 54.6141 54.0118 45.8161 53.7747 45.4412C51.7385 42.1893 45.0916 31.5426 44.9372 30.9338C44.7227 30.0874 45.9045 28.4837 46.5068 28.1979C46.8003 28.0568 47.188 27.7784 47.4251 27.5928C47.3988 27.4851 47.3461 27.3441 47.2294 27.2475C47.0337 27.0805 46.7213 26.8912 46.5105 26.7724H46.5181Z" fill="#173B91"/>
<path d="M69.1348 65.0715C69.1348 65.0715 70.0381 66.4339 71.5512 67.0315C73.0642 67.6292 73.8735 67.6292 74.9838 66.5341C76.0941 65.439 77.2044 64.6409 78.4239 64.3439C79.6434 64.0469 81.9506 62.9481 83.0647 62.4246C84.1788 61.9012 84.781 60.7541 85.4886 60.1565C86.1962 59.5588 87.1033 59.956 88.1158 59.2581C89.1282 58.5602 88.4206 56.5667 87.5098 55.1747C86.5989 53.7826 85.2891 53.5821 84.3783 53.7789C83.4674 53.9756 83.0647 55.3714 82.4587 55.4716C81.8528 55.5719 79.9182 55.6721 78.3185 56.1695C76.7189 56.667 74.8859 58.7607 73.5724 59.3583C72.2588 59.956 71.1485 59.659 70.1398 59.8558C69.1311 60.0562 68.3218 61.0511 68.2466 62.4209C68.2466 62.4209 68.7246 60.0897 70.6441 60.5722C72.5637 61.0511 73.0831 61.7824 73.9525 63.568C74.6413 64.9824 74.1708 66.0515 73.8509 66.5081C73.3842 67.1689 71.7883 67.6403 70.693 66.5638" fill="#EAECF7"/>
<path d="M73.1772 67.8111C72.7744 67.8111 72.3491 67.7183 71.8786 67.5587C71.3743 67.4881 70.9038 67.2691 70.5161 66.9239C69.4548 66.2371 68.845 65.3276 68.8111 65.2831L69.4585 64.8636C69.4585 64.8636 70.0231 65.6988 70.964 66.3002H70.9678C70.9678 66.3002 70.9829 66.3114 70.9904 66.3188C71.2049 66.4561 71.442 66.5786 71.698 66.6789C71.8222 66.7271 71.9426 66.7717 72.0555 66.8125C72.1873 66.8274 72.3115 66.8236 72.4206 66.8125C72.9664 66.7643 73.3804 66.5081 73.5347 66.2891C73.7154 66.0292 74.2611 65.0826 73.6062 63.7351C72.7744 62.0274 72.3265 61.3889 70.5538 60.9435C70.1511 60.8432 69.8161 60.8841 69.5225 61.066C68.8563 61.478 68.6342 62.4915 68.6305 62.4989L67.8627 62.4024C67.9455 60.8989 68.8337 59.7259 70.0683 59.4846C70.4635 59.4066 70.8549 59.3992 71.2689 59.3918C71.9464 59.3769 72.6502 59.3658 73.418 59.0168C73.9412 58.7792 74.5886 58.2558 75.2698 57.7027C76.2334 56.9231 77.2308 56.1176 78.2094 55.8132C79.4552 55.4271 80.9005 55.2712 81.7624 55.1784C82.0372 55.1487 82.2593 55.1264 82.4023 55.1004C82.5227 55.0819 82.7636 54.7589 82.9217 54.5436C83.2529 54.1018 83.6632 53.5487 84.2992 53.4114C84.8186 53.2963 86.6027 53.0735 87.841 54.9705C88.9476 56.6707 89.5347 58.7533 88.3416 59.5737C87.7469 59.9857 87.1748 60.0637 86.7119 60.1305C86.3167 60.1862 86.0042 60.2307 85.7445 60.4497C85.5187 60.6391 85.2929 60.9101 85.052 61.1922C84.574 61.7565 84.032 62.395 83.2378 62.7699L83.1362 62.8181C81.9506 63.375 79.7488 64.4144 78.5256 64.7114C77.4905 64.9638 76.4555 65.6283 75.2661 66.8014C74.5321 67.5253 73.8885 67.8111 73.1809 67.8111H73.1772ZM70.6291 60.1787C70.6667 60.1862 70.7006 60.1936 70.7382 60.2047C72.8046 60.7207 73.4105 61.5783 74.2988 63.4047C75.1343 65.1272 74.4079 66.3819 74.167 66.7271C74.3402 66.6083 74.5208 66.4524 74.7128 66.2631C76.0076 64.9861 77.1555 64.2585 78.3336 63.9726C79.4778 63.6905 81.7173 62.6362 82.7975 62.1314L82.8991 62.0831C83.5427 61.7824 84.0057 61.233 84.4536 60.7059C84.717 60.3978 84.9617 60.1045 85.2364 59.8706C85.6655 59.5068 86.1397 59.44 86.5989 59.3769C87.0355 59.3138 87.4496 59.2581 87.8937 58.95C88.59 58.4674 88.0781 56.7598 87.1823 55.3863C86.215 53.9051 84.8563 54.0721 84.4611 54.1575C84.1073 54.2355 83.8175 54.6215 83.5389 54.9965C83.2378 55.4011 82.9518 55.7835 82.5227 55.854C82.3684 55.88 82.1313 55.906 81.8377 55.9357C81.0021 56.0248 79.6058 56.1733 78.4352 56.5371C77.5996 56.7969 76.6625 57.5579 75.7554 58.2892C75.0327 58.8758 74.3477 59.4289 73.7342 59.7073C72.8196 60.1231 71.9991 60.1416 71.2764 60.1528C71.0506 60.1565 70.8361 60.1602 70.6291 60.1787Z" fill="#173B91"/>
<path d="M85.9516 53.7677L85.1837 53.6638C85.2402 53.2554 84.8676 52.4128 84.5401 51.6703C84.382 51.3102 84.2164 50.939 84.0922 50.5975L84.0433 50.4601C83.6105 49.2982 82.9593 47.5386 83.268 45.6231C83.4938 44.2162 82.0635 41.6102 81.1188 39.884C80.8742 39.4348 80.6483 39.0265 80.4752 38.6812C79.5832 36.9142 73.9525 27.3478 73.8961 27.2513L74.566 26.8689C74.7994 27.2624 80.2644 36.5541 81.1677 38.3434C81.3409 38.6849 81.5592 39.0858 81.8001 39.5239C82.8539 41.4468 84.2955 44.0825 84.032 45.7456C83.7572 47.4681 84.367 49.1126 84.7697 50.204L84.8224 50.3413C84.9391 50.6606 85.1009 51.0207 85.2552 51.3696C85.658 52.2828 86.0381 53.1478 85.9553 53.7677H85.9516Z" fill="#173B91"/>
<path d="M87.8146 55.416L87.2124 54.9371C87.6114 54.4508 86.8812 52.7209 86.3957 51.5738C86.2978 51.3436 86.2037 51.1209 86.1172 50.9093C86.0532 50.7497 85.9854 50.5863 85.9139 50.4193C85.3268 49.0086 84.6568 47.4087 84.4724 44.4166C84.3218 41.9554 83.3395 40.3517 82.3007 38.6515C81.9958 38.1541 81.6834 37.6418 81.386 37.1035C80.0875 34.7425 73.9487 23.8286 73.8885 23.7209L74.566 23.3497C74.6262 23.4611 80.7688 34.375 82.0673 36.7397C82.3571 37.2669 82.6657 37.7717 82.9631 38.258C84.0508 40.0399 85.0821 41.7215 85.244 44.3684C85.4209 47.2342 86.0607 48.7711 86.629 50.1297C86.7006 50.2968 86.7683 50.4638 86.8361 50.6272C86.9189 50.8351 87.013 51.0541 87.1108 51.2805C87.7958 52.8991 88.5034 54.577 87.8146 55.416Z" fill="#173B91"/>
<path d="M46.3863 32.7305C47.8918 32.8864 67.81 35.7634 75.2623 29.8424L46.3863 32.7305Z" fill="#EAECF7"/>
<path d="M58.6413 33.9444C54.3054 33.9444 50.0523 33.5621 46.8229 33.1686C46.6009 33.1426 46.439 33.1203 46.3449 33.1129L46.424 32.3519C46.5181 32.363 46.6837 32.3816 46.917 32.4113C60.6098 34.0818 70.5914 33.0646 75.0177 29.5454L75.5032 30.1394C71.7921 33.0869 65.1226 33.9444 58.6413 33.9444Z" fill="#173B91"/>
<path d="M43.985 32.5263C42.0918 32.3259 40.4658 31.2865 40.3981 31.2419L40.6089 30.9227C40.6089 30.9227 42.2273 31.9547 44.0226 32.144L43.9812 32.5226L43.985 32.5263Z" fill="#173B91"/>
<path d="M56.6051 91.6288L57.324 66.2705L58.0429 91.6288H56.6051Z" fill="#173B91"/>
<path d="M58.2649 91.6288L58.9386 69.3591L59.6124 91.6288H58.2649Z" fill="#173B91"/>
<path d="M59.8269 91.6288L60.4366 73.4426L61.0464 91.6288H59.8269Z" fill="#173B91"/>
<path d="M61.3249 91.6288L61.882 76.2713L62.4428 91.6288H61.3249Z" fill="#173B91"/>
<path d="M62.7062 91.6288L63.2068 79.1854L63.7112 91.6288H62.7062Z" fill="#173B91"/>
<path d="M63.9558 91.6288L64.4188 81.0898L64.8817 91.6288H63.9558Z" fill="#173B91"/>
<path d="M54.9114 91.6288L55.6566 64.2548L56.4056 91.6288H54.9114Z" fill="#173B91"/>
<path d="M53.0746 91.1313L53.8424 62.0126L54.614 91.1313H53.0746Z" fill="#173B91"/>
<path d="M49.5442 91.1313L50.4061 54.5399L51.268 91.1313H49.5442Z" fill="#173B91"/>
<path d="M51.2304 91.1313L52.032 59.6962L52.83 91.1313H51.2304Z" fill="#173B91"/>
<path d="M49.1 51.4364C49.0172 48.9047 50.2216 46.1985 51.7084 48.5001C53.1951 50.8017 51.7084 46.3581 51.7084 46.3581L48.6371 42.8463L47.4251 45.3855L49.1 51.4364Z" fill="#173B91"/>
<path d="M51.874 29.5603C52.5121 29.5603 53.0295 29.05 53.0295 28.4206C53.0295 27.7912 52.5121 27.281 51.874 27.281C51.2358 27.281 50.7185 27.7912 50.7185 28.4206C50.7185 29.05 51.2358 29.5603 51.874 29.5603Z" fill="#173B91"/>
<path d="M44.0038 27.3478C44.4154 27.3478 44.7491 27.0187 44.7491 26.6128C44.7491 26.2068 44.4154 25.8777 44.0038 25.8777C43.5922 25.8777 43.2586 26.2068 43.2586 26.6128C43.2586 27.0187 43.5922 27.3478 44.0038 27.3478Z" fill="#173B91"/>
<path d="M75.2435 60.5537C76.3764 59.7296 77.5206 58.8535 78.8041 58.267C79.4853 57.9551 80.2042 57.7509 80.9381 57.6025C81.6721 57.454 82.4776 57.402 83.2153 57.1718C83.3131 57.1421 83.2943 57.0011 83.1927 56.9974C82.4324 56.9565 81.657 57.0939 80.9193 57.2498C80.1816 57.4057 79.4552 57.621 78.7702 57.9366C77.4152 58.5565 76.2823 59.492 75.172 60.4572C75.1193 60.5017 75.1908 60.5982 75.2473 60.5574L75.2435 60.5537Z" fill="#173B91"/>
<path d="M67.411 30.1023C67.4373 30.1023 67.4373 30.0651 67.411 30.0651C67.3846 30.0651 67.3846 30.1023 67.411 30.1023Z" fill="#173B91"/>
<path d="M67.5653 29.2076C67.5917 29.2076 67.5917 29.1705 67.5653 29.1705C67.539 29.1705 67.539 29.2076 67.5653 29.2076Z" fill="#173B91"/>
<path d="M53.1574 18.5498C53.1574 18.5498 52.8036 16.2074 53.7634 15.5614C54.7232 14.9155 58.965 15.1123 59.571 15.1642C60.1769 15.2162 60.9862 16.2259 61.1856 16.6269C60.1769 16.4264 56.1007 16.2927 55.427 16.4264C54.7194 16.5712 54.4409 16.8162 54.4183 17.6217C54.4032 18.1711 54.4183 18.5498 54.4183 18.5498H53.1574Z" fill="#EAECF7"/>
<path d="M54.4221 18.7391H52.9918L52.9655 18.5758C52.9504 18.4755 52.6041 16.1071 53.6542 15.4018C54.757 14.6557 59.5409 14.9675 59.586 14.9712C60.3049 15.0306 61.1442 16.1146 61.3588 16.5378L61.5357 16.8867L61.148 16.8087C60.1694 16.6157 56.1346 16.4746 55.4684 16.6083C54.8549 16.7308 54.6328 16.9053 54.614 17.6217C54.599 18.1563 54.614 18.5349 54.614 18.5386L54.6215 18.7391H54.4183H54.4221ZM53.3306 18.3568H54.2226C54.2226 18.1897 54.2188 17.9298 54.2263 17.6106C54.2527 16.7642 54.5576 16.4041 55.3894 16.2334C56.0255 16.1034 59.3564 16.2037 60.7942 16.3707C60.4743 15.9401 59.9323 15.3795 59.5521 15.3498C58.5434 15.2682 54.7081 15.1494 53.8688 15.7136C53.2176 16.1517 53.244 17.6403 53.323 18.353L53.3306 18.3568Z" fill="#173B91"/>
<path d="M61.1894 16.69C61.6185 17.2171 61.5808 18.8839 61.5808 18.8839L60.6135 18.9284C60.6135 18.9284 60.67 16.909 60.1581 16.586C60.8394 16.5823 61.1894 16.69 61.1894 16.69Z" fill="#EAECF7"/>
<path d="M60.4141 19.1289L60.4216 18.9247C60.4479 18.0041 60.3162 16.9127 60.0565 16.7494L59.5032 16.4004H60.1581C60.862 16.3818 61.2308 16.5043 61.2496 16.5081L61.3061 16.5266L61.3437 16.5712C61.8029 17.1354 61.7841 18.7094 61.7803 18.8876V19.0658L60.4216 19.1252L60.4141 19.1289ZM60.5383 16.7865C60.7829 17.3359 60.8093 18.2714 60.8093 18.728L61.3889 18.702C61.3851 18.1897 61.3249 17.2394 61.0727 16.8607C60.9862 16.8422 60.8093 16.805 60.5383 16.7902V16.7865Z" fill="#173B91"/>
<path d="M72.1798 79.423C72.2061 79.423 72.2061 79.3858 72.1798 79.3858C72.1534 79.3858 72.1534 79.423 72.1798 79.423Z" fill="#173B91"/>
<path d="M69.7333 88.4066C70.8624 88.9634 72.2475 88.3435 73.3352 87.9165C74.423 87.4896 75.4731 86.8586 75.9925 85.7635C76.5684 84.5458 76.5194 83.1055 76.5533 81.7951C76.5947 80.158 76.6022 78.5172 76.5646 76.8801C76.5194 74.9943 76.4103 73.1196 76.207 71.2449C76.192 71.1001 75.9624 71.0927 75.9699 71.2449C76.2221 75.0017 76.3689 78.7622 76.1882 82.5264C76.1092 84.2006 75.9624 85.9194 74.438 86.9514C73.8283 87.3634 73.132 87.6307 72.4395 87.8683C71.6039 88.1541 70.6667 88.4994 69.7709 88.3286C69.722 88.3212 69.6881 88.388 69.737 88.4103L69.7333 88.4066Z" fill="#173B91"/>
<path d="M76.2936 55.093C76.1543 54.0387 76.2108 52.9139 76.1995 51.8522C76.1882 50.7905 76.1995 49.6286 76.207 48.5186C76.2146 47.4087 76.2183 46.3581 76.2334 45.2779C76.2484 44.1976 76.4103 43.0282 76.2974 41.9443C76.2823 41.7809 76.064 41.7846 76.0414 41.9443C75.8984 42.9948 76.0301 44.1271 76.0377 45.185C76.0452 46.295 76.0527 47.4087 76.0753 48.5186C76.0979 49.6286 76.1355 50.6791 76.1732 51.7594C76.2108 52.8397 76.3275 54.0016 76.2522 55.093C76.2522 55.119 76.2936 55.1153 76.2898 55.093H76.2936Z" fill="#173B91"/>
<path d="M71.3216 21.6198C71.1522 22.9191 71.0356 24.2221 71.0657 25.5288C71.0807 26.171 71.1221 26.8095 71.1823 27.448C71.2124 27.7598 71.2388 28.0754 71.3028 28.3835C71.3555 28.6545 71.3894 28.944 71.6001 29.1334C71.6905 29.215 71.8448 29.2076 71.905 29.0962C72.0443 28.8475 71.9878 28.5728 71.9615 28.2944C71.9313 27.964 71.8749 27.6336 71.8372 27.3032C71.7657 26.6907 71.7206 26.0745 71.6942 25.4545C71.6415 24.1738 71.6453 22.8931 71.7808 21.6161C71.8109 21.3228 71.3555 21.3302 71.3178 21.6161L71.3216 21.6198Z" fill="#173B91"/>
</svg>
