<svg width="118" height="106" viewBox="0 0 118 106" fill="none" xmlns="http://www.w3.org/2000/svg">
<path d="M58.3392 61.31C56.0646 62.1251 54.0084 63.4121 52.5065 65.2654C51.4282 66.5953 50.686 68.1569 49.6688 69.534C48.6472 70.9068 47.2371 72.1466 45.5214 72.3611C44.168 72.5327 42.8234 72.0479 41.4744 71.8334C40.6187 71.7004 39.667 71.7133 38.8811 72.0179L36.7419 63.4636C36.8598 63.2577 36.9777 63.056 37.0999 62.8544C37.7722 61.7304 38.4795 60.6193 39.3483 59.6369L56.8592 55.4026L58.3392 61.31Z" fill="#173B91"/>
<path d="M15.7472 56.4408L34.9301 61.0783L34.0919 64.4331L24.71 101.881L17.7598 91.4646L17.3145 90.7953L16.6028 91.1814L5.52701 97.2389L15.7472 56.4365M15.1098 55.4026L14.6252 57.3288L12.3681 66.3422L4.19983 98.9506L17.0263 91.9365L25.0767 104L34.0221 68.2899L34.9389 64.639L35.9867 60.452L15.1098 55.4026Z" fill="#173B91"/>
<path d="M34.9389 64.639L34.0221 68.2899C32.7953 68.3671 31.5031 68.8433 30.3418 69.298C28.6479 69.9672 26.8972 70.5893 25.068 70.6708C23.2431 70.7566 21.3091 70.2332 20.0736 68.9119C19.5846 68.3885 19.2179 67.7622 18.7115 67.256C17.4105 65.9518 15.3411 65.6472 13.525 66.0247C13.1321 66.1062 12.7435 66.2135 12.3681 66.3422L14.6252 57.3288C15.7515 57.1873 16.9434 57.4189 18.0086 57.8436C19.5148 58.4442 20.842 59.3966 22.2303 60.2289C25.5176 62.198 29.2023 63.5193 33.0092 64.0942C33.6597 64.1929 34.3408 64.2787 34.9083 64.6176C34.917 64.6262 34.9301 64.6305 34.9389 64.639Z" fill="#173B91"/>
<path d="M56.2218 56.4408L66.4419 97.2432L55.3661 91.1857L54.6545 90.7996L54.2092 91.4688L47.2589 101.885L37.0432 61.0826L56.2218 56.4451M56.8592 55.4026L39.3483 59.6369L35.9867 60.452L36.7419 63.4636L38.8811 72.0179L46.8922 104L54.9426 91.9365L67.7691 98.9506L58.3392 61.31L56.8592 55.4026Z" fill="#173B91"/>
<path d="M44.1811 68.4829C42.8146 68.4829 41.3565 68.0453 39.8067 67.5863C38.2219 67.1144 36.5804 66.621 35 66.621C33.4196 66.621 31.7781 67.1101 30.1933 67.5863C28.6479 68.0496 27.1854 68.4829 25.8189 68.4829C25.2644 68.4829 24.7711 68.4143 24.3171 68.2684C22.4791 67.6807 21.1301 65.9132 19.8291 64.2057C18.8643 62.9445 17.8689 61.636 16.6596 60.7694C15.4285 59.8857 13.8393 59.3537 12.307 58.8346C10.1721 58.1139 8.15954 57.4361 7.03755 55.926C6.15567 54.7291 5.96794 53.1375 5.90246 51.7347C5.87626 51.207 5.86753 50.675 5.85443 50.1388C5.82387 48.5343 5.79331 46.8784 5.31745 45.4326C4.86342 44.0641 3.92042 42.7471 3.00798 41.4772C1.74629 39.7183 0.440938 37.9036 0.440938 35.956C0.440938 34.0083 1.74629 32.1936 3.00798 30.439C3.92042 29.1648 4.86778 27.8478 5.31745 26.475C5.79331 25.0336 5.82387 23.3733 5.85443 21.7688C5.89373 19.5638 5.93302 17.4788 7.03755 15.9902C8.15517 14.4844 10.1721 13.8023 12.307 13.0816C13.8437 12.5625 15.4285 12.0262 16.6596 11.1468C17.8689 10.2845 18.8599 8.98029 19.8247 7.72331C20.4709 6.87818 21.1388 5.99873 21.8592 5.28229C22.6756 4.45432 23.4832 3.91806 24.3214 3.65208C24.7755 3.50193 25.2688 3.43329 25.8233 3.43329C27.1897 3.43329 28.6479 3.87087 30.1933 4.32991C31.7781 4.80181 33.4196 5.29516 35.0044 5.29516C36.5891 5.29516 38.2263 4.8061 39.811 4.32991C41.3565 3.86658 42.819 3.43329 44.1855 3.43329C44.7443 3.43329 45.2333 3.50622 45.6873 3.65208C47.5296 4.23553 48.8743 6.00302 50.1796 7.71473C51.1401 8.976 52.1355 10.2845 53.3491 11.151C54.5803 12.0305 56.1694 12.5668 57.7018 13.0858C59.8366 13.8066 61.8536 14.4844 62.9712 15.9945C64.0714 17.4831 64.1106 19.5681 64.1543 21.7731C64.1849 23.3776 64.2154 25.0378 64.6956 26.4793C65.1453 27.8521 66.0927 29.1691 67.0095 30.4476C68.2712 32.2022 69.5722 34.0212 69.5722 35.9602C69.5722 37.8993 68.2668 39.7226 67.0051 41.4772C66.0927 42.7514 65.1453 44.0641 64.6956 45.4369C64.2198 46.8783 64.1849 48.5386 64.1543 50.1431C64.1106 52.3524 64.0714 54.4331 62.9712 55.926C61.8536 57.4361 59.8366 58.1182 57.7018 58.8346C56.1694 59.3537 54.5803 59.8857 53.3491 60.7694C52.1398 61.636 51.1444 62.9445 50.1796 64.2057C48.8743 65.9175 47.5296 67.685 45.6873 68.2727C45.242 68.4143 44.7356 68.4872 44.1898 68.4872L44.1811 68.4829Z" fill="#EAECF7"/>
<path d="M44.1811 3.858C44.6919 3.858 45.1372 3.92235 45.5476 4.05535C47.2546 4.59589 48.4988 6.23468 49.8216 7.96356C50.8039 9.25056 51.8168 10.5848 53.0828 11.49C54.3663 12.408 55.986 12.9571 57.5533 13.4848C59.6227 14.1841 61.5742 14.8405 62.6088 16.239C63.6304 17.6204 63.6697 19.6367 63.709 21.7731C63.7396 23.4076 63.7745 25.0979 64.2678 26.5994C64.7393 28.0366 65.7041 29.3793 66.6384 30.6835C67.9175 32.4639 69.1225 34.1456 69.1225 35.9517C69.1225 37.7578 67.9132 39.4437 66.634 41.2241C65.6998 42.524 64.7349 43.8668 64.2634 45.2996C63.7657 46.8054 63.7352 48.4957 63.7046 50.1302C63.6653 52.2666 63.626 54.2872 62.6045 55.6686C61.5698 57.0714 59.6139 57.7278 57.5446 58.4271C55.9817 58.9548 54.362 59.4996 53.0785 60.4177C51.8124 61.3229 50.7996 62.6571 49.8173 63.9441C48.4944 65.6772 47.2502 67.316 45.5389 67.8609C45.1372 67.9896 44.6788 68.0539 44.1768 68.0539C42.8758 68.0539 41.4438 67.6249 39.9333 67.1744C38.318 66.6897 36.6459 66.192 34.9956 66.192C33.3454 66.192 31.6777 66.6897 30.058 67.1744C28.5431 67.6249 27.1111 68.0539 25.8145 68.0539C25.3081 68.0539 24.8584 67.9896 24.448 67.8609C22.7411 67.316 21.4925 65.6815 20.174 63.9484C19.1917 62.6613 18.1745 61.3271 16.9084 60.422C15.6249 59.5039 14.0052 58.9548 12.4379 58.4271C10.373 57.7278 8.41711 57.0714 7.38244 55.6729C6.56605 54.5661 6.39142 53.0517 6.3303 51.7132C6.3041 51.1984 6.29537 50.6579 6.28664 50.1345C6.25608 48.5 6.22552 46.8097 5.72783 45.3039C5.25633 43.871 4.29151 42.5326 3.36161 41.2327C2.08245 39.4523 0.873145 37.7663 0.873145 35.956C0.873145 34.1456 2.08245 32.4682 3.35724 30.6835C4.29151 29.3836 5.25196 28.0409 5.72783 26.608C6.22552 25.1065 6.25608 23.4119 6.28664 21.7774C6.32593 19.641 6.36522 17.6247 7.38244 16.2433C8.42148 14.8448 10.373 14.1841 12.4423 13.4891C14.0096 12.9614 15.6293 12.4123 16.9128 11.4942C18.1745 10.5933 19.1874 9.26343 20.1696 7.98072C20.807 7.14416 21.4663 6.28187 22.1691 5.5783C22.9331 4.80181 23.6797 4.30417 24.4568 4.05964C24.8628 3.92664 25.3125 3.86229 25.8189 3.86229C27.1199 3.86229 28.5475 4.2913 30.0624 4.74175C31.6777 5.22652 33.3498 5.72416 35 5.72416C36.6502 5.72416 38.318 5.22652 39.9376 4.74175C41.4525 4.2913 42.8845 3.86229 44.1811 3.86229M44.1811 3C41.291 3 38.008 4.86187 35 4.86187C31.992 4.86187 28.709 3 25.8189 3C25.2557 3 24.71 3.06864 24.1817 3.24024C23.1689 3.56199 22.3132 4.19263 21.5405 4.9777C19.7331 6.78809 18.3535 9.40071 16.3977 10.7993C13.5774 12.8199 8.74018 12.9614 6.67956 15.7371C4.64513 18.487 5.98977 23.043 4.89834 26.342C3.8462 29.5295 0 32.4253 0 35.956C0 39.4866 3.8462 42.3824 4.89834 45.5656C5.50954 47.4146 5.35674 49.654 5.46152 51.7518C5.5401 53.4035 5.78458 54.9608 6.67956 56.1748C8.74018 58.9505 13.5774 59.092 16.3977 61.1126C19.1961 63.1161 20.8201 67.6034 24.1817 68.676C24.71 68.8433 25.2557 68.9119 25.8189 68.9119C28.709 68.9119 31.992 67.05 35 67.05C38.008 67.05 41.291 68.9119 44.1811 68.9119C44.7399 68.9119 45.29 68.8433 45.8139 68.676C49.1799 67.6034 50.7995 63.1161 53.598 61.1126C56.4226 59.092 61.2598 58.9548 63.3161 56.1748C65.3505 53.4249 64.0102 48.8689 65.1017 45.5656C66.1494 42.3824 70 39.4909 70 35.956C70 32.421 66.1494 29.5295 65.1017 26.342C64.0102 23.043 65.3505 18.487 63.3161 15.7371C61.2598 12.9614 56.4226 12.8199 53.598 10.7993C50.7995 8.79582 49.1799 4.30846 45.8183 3.24024C45.29 3.06864 44.7443 3 44.1811 3Z" fill="#173B91"/>
<path d="M35 14.8791C46.8267 14.8791 56.4488 24.3343 56.4488 35.956C56.4488 42.6741 53.1439 49.0448 47.6126 53.0045C43.9279 55.6386 39.5665 57.0328 35 57.0328C23.1733 57.0328 13.5512 47.5776 13.5512 35.956C13.5512 28.4484 17.6681 21.4514 24.2909 17.689C27.5302 15.8486 31.2324 14.8791 35 14.8791ZM35 14.0211C30.9399 14.0211 27.133 15.085 23.8543 16.9469C17.1748 20.7392 12.6781 27.8307 12.6781 35.956C12.6781 48.071 22.6712 57.8908 35 57.8908C39.9071 57.8908 44.4431 56.3336 48.1277 53.6995C53.7028 49.7098 57.3219 43.249 57.3219 35.956C57.3219 23.8409 47.3288 14.0211 35 14.0211Z" fill="#173B91"/>
<path d="M50.4634 51.7776C49.7299 52.4683 48.9529 53.1118 48.1277 53.6995C44.4431 56.3336 39.9071 57.8908 35 57.8908C22.6712 57.8908 12.6781 48.071 12.6781 35.956C12.6781 28.2425 16.7295 21.46 22.8589 17.5518C18.6198 21.5415 15.9829 27.1571 15.9829 33.3819C15.9829 45.497 25.976 55.3168 38.3049 55.3168C42.7884 55.3168 46.9664 54.0169 50.4634 51.7776Z" fill="#173B91"/>
<path d="M47.4248 8.82585C47.8003 9.67527 48.0666 10.529 48.5337 11.3441C48.9703 12.1034 49.5029 12.807 50.1185 13.4376C51.3322 14.6903 52.8776 15.6899 54.5453 16.2476C55.5145 16.5736 56.5579 16.7409 57.4791 17.1914C58.4003 17.6418 58.9635 18.3283 59.3171 19.2206C59.9981 20.9495 59.7449 22.8285 59.8977 24.6346C60.0505 26.4407 60.5657 28.2296 62.36 29.0147C62.4473 29.0533 62.5041 28.9503 62.4342 28.8946C61.0372 27.8349 60.6792 25.8186 60.6006 24.1884C60.522 22.5582 60.7272 20.7264 60.1466 19.0747C59.5354 17.3415 58.0772 16.4321 56.3266 16.0116C55.4054 15.7886 54.4449 15.6684 53.5587 15.3295C52.6724 14.9906 51.8517 14.5316 51.1095 13.9782C50.2495 13.339 49.4942 12.5667 48.8655 11.7087C48.2369 10.8507 47.63 9.83401 47.4729 8.81298C47.4729 8.78295 47.4205 8.80011 47.4336 8.83014L47.4248 8.82585Z" fill="#173B91"/>
<path d="M16.6378 65.4799L12.6257 77.4233L14.9482 65.0552L16.6378 65.4799Z" fill="#173B91"/>
<path d="M15.053 65.3383L11.0409 77.2775L13.3635 64.9136L15.053 65.3383Z" fill="#173B91"/>
<path d="M18.6635 65.8746L14.6514 77.8137L16.9739 65.4456L18.6635 65.8746Z" fill="#173B91"/>
<path d="M20.5757 66.9385L16.5636 78.8776L18.8818 66.5138L20.5757 66.9385Z" fill="#173B91"/>
<path d="M22.5228 67.1273L18.5107 79.0664L20.8332 66.7025L22.5228 67.1273Z" fill="#173B91"/>
<path d="M25.9149 68.8004L22.0687 79.8386L24.3214 68.3799L25.9149 68.8004Z" fill="#173B91"/>
<path d="M28.0629 68.9548L24.2167 79.993L26.4694 68.5387L28.0629 68.9548Z" fill="#173B91"/>
<path d="M30.3374 68.307L26.4912 79.3452L28.7439 67.8909L30.3374 68.307Z" fill="#173B91"/>
<path d="M32.6119 67.5734L28.7657 78.6159L31.0185 67.1573L32.6119 67.5734Z" fill="#173B91"/>
<path d="M24.1075 67.8609L20.0911 79.8L22.4136 67.4318L24.1075 67.8609Z" fill="#173B91"/>
<path d="M41.8673 69.564L43.7445 82.0008L40.1603 69.9286L41.8673 69.564Z" fill="#173B91"/>
<path d="M43.8537 69.0149L45.7353 81.4559L42.1511 69.3838L43.8537 69.0149Z" fill="#173B91"/>
<path d="M46.0496 69.1264L47.9269 81.5632L44.3426 69.4911L46.0496 69.1264Z" fill="#173B91"/>
<path d="M47.8745 68.4314L49.7561 80.8725L46.1719 68.8004L47.8745 68.4314Z" fill="#173B91"/>
<path d="M50.8738 65.7716L53.2225 79.8643L49.2672 66.1234L50.8738 65.7716Z" fill="#173B91"/>
<path d="M52.4542 64.3774L54.8029 78.4701L50.8432 64.7291L52.4542 64.3774Z" fill="#173B91"/>
<path d="M54.2572 62.9788L56.606 77.0715L52.6506 63.3306L54.2572 62.9788Z" fill="#173B91"/>
<path d="M55.9249 61.8419L58.2737 75.9347L54.314 62.1937L55.9249 61.8419Z" fill="#173B91"/>
<path d="M57.5664 61.3186L59.9152 75.4113L55.9598 61.6703L57.5664 61.3186Z" fill="#173B91"/>
<path d="M49.5771 67.9037L51.4588 80.3405L47.8745 68.2727L49.5771 67.9037Z" fill="#173B91"/>
<path d="M31.0578 33.2103C31.813 32.9873 32.04 32.7642 33.3279 30.6792C34.6158 28.5943 36.659 27.702 37.4186 26.4364C38.1782 25.1708 38.6323 24.4287 38.5537 23.3862C38.4751 22.3437 38.6279 20.9323 39.9944 20.8551C41.3609 20.7779 43.2512 21.8203 43.2512 23.7551C43.2512 25.6899 41.5093 29.2635 41.6621 29.8212C41.8149 30.3789 45.4472 30.3789 46.2068 30.5291C46.9664 30.6792 48.1758 31.6445 48.023 33.6565C47.8702 35.6685 48.429 37.2301 48.036 38.8646C47.6431 40.4991 47.1149 41.1726 46.7351 42.361C46.3552 43.5493 47.1149 44.3687 45.6 45.1881C44.0851 46.0075 40.9068 46.6767 38.331 46.0075C35.7553 45.3382 32.8783 45.8573 32.577 45.2653C32.2758 44.6733 31.4419 42.6613 31.0621 39.388C30.6823 36.1147 31.0621 33.2103 31.0621 33.2103H31.0578Z" fill="#173B91"/>
<path d="M29.473 32.9873C29.473 32.9873 23.5662 32.5411 23.0379 32.614C22.5097 32.687 21.8242 33.5064 21.8242 34.8448C21.8242 36.1833 22.5795 44.2228 23.492 45.4841C24.4044 46.7454 25.6137 46.8998 26.369 46.6767C27.1242 46.4536 30.9137 45.8573 30.9137 45.3382C30.9137 44.8191 29.5297 42.3695 29.3988 38.8646C29.294 36.0375 29.473 32.9873 29.473 32.9873Z" fill="#173B91"/>
<path d="M25.4216 36.4536C26.0196 36.4536 26.5043 35.9773 26.5043 35.3897C26.5043 34.8021 26.0196 34.3257 25.4216 34.3257C24.8236 34.3257 24.3389 34.8021 24.3389 35.3897C24.3389 35.9773 24.8236 36.4536 25.4216 36.4536Z" fill="#EAECF7"/>
<path d="M5.26506 33.2618C4.44867 34.6303 3.74579 36.2605 4.0252 37.8779C4.28714 39.3751 5.44842 40.4991 6.39142 41.6188C6.95896 42.2966 7.44792 43.013 7.7186 43.8539C7.98927 44.6947 8.08968 45.6557 8.11588 46.5738C8.16827 48.4271 7.99364 50.3704 8.68779 52.1422C9.26406 53.6094 10.469 54.8406 12.1236 54.9736C12.2764 54.9865 12.3026 54.7548 12.1585 54.7162C10.696 54.3344 9.66571 53.026 9.22041 51.6531C8.67033 49.9543 8.85369 48.1396 8.74454 46.385C8.65286 44.8749 8.35599 43.3734 7.44356 42.1207C6.61844 40.9796 5.45715 40.0872 4.74554 38.8689C3.67157 37.0242 4.34389 35.0164 5.33055 33.3004C5.35674 33.2532 5.28689 33.2146 5.2607 33.2618H5.26506Z" fill="#173B91"/>
</svg>
