<svg width="88" height="88" viewBox="0 0 88 88" fill="none" xmlns="http://www.w3.org/2000/svg">
<g clip-path="url(#clip0_558_18952)">
<rect width="88" height="88" fill="#2EAC6A"/>
<path d="M45.075 69.3102C41.7844 69.3102 37.77 68.8559 34.9415 68.4693H34.9228C34.3111 68.3827 33.6995 68.2962 33.0985 68.207C31.3838 67.9447 29.7599 67.6689 28.2695 67.385C28.1279 67.358 27.9864 67.3309 27.8502 67.3039C26.4933 67.0416 25.2781 66.7766 24.2417 66.5225C23.9746 66.4576 23.7343 66.4116 23.5072 66.3792C21.3491 66.0547 19.2898 66.6171 17.6365 67.0714C15.6333 67.6202 14.0521 68.0502 13.2562 66.7118C12.933 66.1656 12.917 65.6086 13.2001 65.0083C13.3817 64.6217 13.6809 64.2134 14.2044 63.6483L14.2258 63.6294C14.2258 63.6294 14.2418 63.6131 14.2498 63.605L14.2738 63.5807C14.4581 63.3833 14.6611 63.1751 14.8748 62.9561C15.0324 62.7939 15.1953 62.6289 15.3609 62.4559L15.417 62.3964C15.8737 61.9178 16.2343 61.5068 16.5468 61.1067L16.5682 61.0823C16.8459 60.7254 17.089 60.3793 17.3027 60.0332C17.3187 60.0035 17.3427 59.9602 17.3748 59.917C17.5911 59.5519 17.7861 59.1653 17.9437 58.7786L17.9651 58.7273C18.1226 58.3433 18.2508 57.9513 18.3417 57.5646C18.363 57.4808 18.3817 57.397 18.3977 57.3131L18.4031 57.2834C18.4752 56.9346 18.5286 56.5885 18.5767 56.2046L18.582 56.1532C18.5927 56.0613 18.6034 55.972 18.6114 55.8828C18.6461 55.5665 18.6729 55.2339 18.6969 54.831L18.7102 54.5579C18.7236 54.2335 18.7343 53.8982 18.7396 53.5575L18.745 53.2574C18.745 52.9572 18.7503 52.6436 18.745 52.3326C18.745 52.2326 18.745 52.1353 18.745 52.0379C18.745 51.7621 18.745 51.489 18.7423 51.216C18.7423 51.0943 18.7423 50.9726 18.7423 50.8536L18.753 49.1259C18.753 48.9988 18.7583 48.8744 18.7637 48.75C18.769 48.5716 18.7743 48.3877 18.7824 48.2066C18.7984 47.8605 18.8198 47.5036 18.8518 47.1169L18.8598 47.0601C19.1109 44.2995 19.8427 42.231 21.1515 40.5871C20.5585 40.2248 19.2925 39.2649 19.1643 37.5966C19.1189 36.9937 19.2765 36.5016 19.6371 36.1311C20.0297 35.7283 20.5879 35.5606 21.0286 35.493C20.6066 35.0334 20.0564 34.179 19.7813 32.6864C19.6531 31.9942 19.7813 31.3994 20.1579 30.9127C21.1194 29.677 23.5607 29.3958 25.8229 29.2796L26.3117 29.2552C29.1295 29.1173 31.1648 29.02 34.8613 27.1462C36.5734 26.281 37.6071 24.8723 38.606 23.5122C39.8854 21.771 41.2075 19.9675 43.9265 19.2618C49.0573 17.9261 52.7379 21.9278 56.0685 26.1404C58.8222 29.6284 61.0284 29.2742 63.8196 28.8226C64.6235 28.6928 65.4568 28.5603 66.3596 28.5063C67.8153 28.4224 68.881 28.8118 69.3644 29.6013C69.7837 30.2881 69.7223 31.2182 69.1961 32.1511C68.296 33.7544 67.882 34.8198 69.7276 36.1149C70.1069 36.3799 70.2939 36.6665 70.2992 36.9883C70.3072 37.5804 69.6796 38.0509 69.0145 38.5484C68.4616 38.9621 67.8366 39.4298 67.7832 39.8598C67.7645 40.0112 67.8206 40.1653 67.9541 40.3302C69.1374 41.793 72.1876 47.6333 70.7533 55.0365C69.8532 59.6817 70.6598 60.0846 71.9979 60.7497C72.6416 61.0715 73.4456 61.4717 74.2015 62.3883C74.9173 63.2562 75.1363 63.9106 74.8719 64.3864C74.3484 65.3274 72.1475 65.0786 69.5407 64.6812C67.8099 64.4189 67.2624 64.8163 66.1753 65.6086C65.4248 66.1548 64.49 66.8361 62.8313 67.577C59.0733 69.2534 53.0691 69.2804 47.2651 69.3048C46.6268 69.3075 45.9884 69.3102 45.3554 69.3156C45.27 69.3156 45.1818 69.3156 45.0937 69.3156L45.075 69.3102ZM34.9762 67.9285H34.9976C37.8848 68.3287 42.0168 68.7937 45.3341 68.7694C45.9671 68.764 46.6054 68.7613 47.2464 68.7586C52.997 68.7342 58.9451 68.7099 62.6016 67.0768C64.2095 66.3603 65.1203 65.6978 65.8495 65.1651C66.9793 64.3432 67.6603 63.8457 69.6075 64.1404C71.0364 64.3567 74.0091 64.8082 74.3938 64.1133C74.4739 63.97 74.4979 63.6023 73.7794 62.729C73.0957 61.8989 72.3825 61.542 71.7522 61.2283C70.1497 60.428 69.2869 59.7412 70.2191 54.9256C71.616 47.728 68.6726 42.0796 67.5321 40.6682C67.3051 40.387 67.209 40.0896 67.2464 39.7867C67.3265 39.127 68.0209 38.6079 68.6887 38.1077C69.1908 37.7318 69.7624 37.3046 69.757 36.991C69.757 36.8585 69.6395 36.7125 69.4151 36.5556C67.2116 35.0117 67.7992 33.5246 68.7234 31.878C69.1507 31.1236 69.2148 30.3963 68.9023 29.8825C68.5284 29.2687 67.631 28.9713 66.3836 29.0443C65.5076 29.0957 64.6876 29.2282 63.897 29.3553C61.0498 29.8122 58.5925 30.2097 55.6438 26.4757C51.7122 21.5033 48.403 18.648 44.052 19.7809C41.5173 20.4407 40.3074 22.0873 39.028 23.8313C37.9917 25.2427 36.918 26.7055 35.0937 27.6275C31.2983 29.5499 29.1055 29.6581 26.3304 29.7933L25.8443 29.8176C23.8277 29.9204 21.4052 30.1745 20.5719 31.2453C20.2888 31.6076 20.2006 32.0456 20.3021 32.5837C20.7241 34.8657 21.8245 35.4714 21.8352 35.4768L22.9383 36.0608L21.6963 35.9878C21.6963 35.9878 20.5746 35.9283 20.011 36.507C19.7626 36.7638 19.6584 37.1045 19.6931 37.5507C19.832 39.3785 21.6536 40.2491 21.6723 40.2572L21.9955 40.4086L21.7631 40.6817C20.3876 42.2878 19.6317 44.3427 19.3833 47.1548L19.378 47.2088C19.3486 47.5684 19.3272 47.901 19.3139 48.2282C19.3059 48.4093 19.3005 48.5878 19.2952 48.7663C19.2898 48.8906 19.2872 49.0123 19.2845 49.1313L19.2738 50.8455C19.2738 50.9645 19.2738 51.0862 19.2738 51.2105C19.2765 51.4809 19.2765 51.7567 19.2765 52.0271C19.2765 52.1217 19.2765 52.2245 19.2765 52.3272C19.2765 52.6409 19.2765 52.9545 19.2765 53.2655L19.2711 53.5683C19.2658 53.909 19.2551 54.2497 19.2418 54.5822L19.2284 54.8607C19.2044 55.2717 19.1777 55.6151 19.1429 55.9369C19.1349 56.0288 19.1216 56.1234 19.1109 56.2181L19.1055 56.2695C19.0575 56.6696 18.9987 57.0292 18.9293 57.3726L18.9213 57.4051C18.8972 57.5186 18.8785 57.6079 18.8545 57.6971C18.761 58.0919 18.6328 58.492 18.4725 58.8868V58.9057L18.4432 58.9625C18.2722 59.3789 18.0639 59.8007 17.8182 60.2117C17.7914 60.2522 17.7754 60.2793 17.7594 60.3063C17.527 60.6849 17.2733 61.0499 16.9955 61.4014C16.9795 61.423 16.9661 61.4392 16.9554 61.4528C16.6323 61.8637 16.2637 62.2855 15.7936 62.7776L15.7375 62.8371C15.5719 63.0102 15.409 63.1778 15.2514 63.34C15.0404 63.5564 14.8401 63.7618 14.6531 63.9619L14.6317 63.9836C14.6157 63.9998 14.5997 64.016 14.5837 64.0295C14.2632 64.3756 13.8759 64.8245 13.6782 65.2436C13.4726 65.6816 13.4832 66.0493 13.7103 66.436C14.2712 67.3796 15.4517 67.1092 17.4923 66.5522C19.1937 66.0872 21.3117 65.5085 23.5793 65.8492C23.8224 65.8844 24.0788 65.933 24.3646 66.0033C25.3929 66.2575 26.6002 66.5171 27.949 66.7793C28.0852 66.8064 28.2241 66.8334 28.3657 66.8605C29.8507 67.1417 31.4666 67.4175 33.1733 67.677C33.7663 67.7663 34.3699 67.8501 34.9735 67.9339L34.9762 67.9285Z" fill="white"/>
<path d="M23.9838 32.1316C25.3086 32.6021 26.6735 32.9211 28.0463 33.2131C29.4165 33.5051 30.792 33.7836 32.1756 34.0054C34.9346 34.4461 37.7097 34.7841 40.4982 34.995C46.1152 35.4222 51.7695 35.4168 57.3811 34.922C58.941 34.7841 60.4954 34.6137 62.0446 34.3947C62.8218 34.2839 63.5991 34.1703 64.3683 34.0216C64.7315 33.9513 65.1428 33.9297 65.4927 33.8107C65.6637 33.7512 65.832 33.6512 65.9895 33.5646C66.2192 33.4376 66.4169 33.3754 66.676 33.3267C66.6947 33.324 66.6866 33.2915 66.6679 33.297C66.2727 33.3645 65.9281 33.278 65.5408 33.2456C65.1936 33.2158 64.8357 33.3105 64.4911 33.351C63.7887 33.4348 63.0889 33.5214 62.3865 33.6052C61.0163 33.7701 59.6434 33.9215 58.2679 34.0486C55.4955 34.3028 52.7097 34.4569 49.9266 34.5056C44.3604 34.6056 38.7835 34.2676 33.2653 33.5268C31.6895 33.3159 30.1136 33.0915 28.5485 32.8238C27.0314 32.5642 25.5196 32.2614 23.9892 32.0775C23.9518 32.0721 23.9491 32.1289 23.9812 32.1397L23.9838 32.1316Z" fill="white"/>
<path d="M26.6455 33.1242C26.6855 32.8809 26.7683 32.6375 26.8485 32.4023C26.9286 32.1671 27.0087 31.9264 27.1182 31.6966C27.3239 31.2532 27.5883 30.8395 27.9275 30.488C28.2667 30.1365 28.662 29.8499 29.1027 29.6444C29.3191 29.5443 29.5488 29.4876 29.7731 29.4091C30.0162 29.3253 30.2673 29.2361 30.5103 29.1685C30.6252 29.1361 30.6278 28.963 30.5103 28.9306C30.2325 28.8521 29.9868 28.8224 29.6984 28.8521C29.4099 28.8819 29.1268 28.9982 28.865 29.1198C28.3682 29.3497 27.9115 29.6876 27.5349 30.0905C27.1583 30.4934 26.8431 30.972 26.6508 31.4992C26.5573 31.7588 26.4906 32.0508 26.4799 32.3266C26.4692 32.6024 26.5226 32.8593 26.5894 33.1269C26.5947 33.154 26.6401 33.1567 26.6428 33.1269L26.6455 33.1242Z" fill="white"/>
<path d="M60.73 29.466C61.0532 29.2903 61.4378 29.2768 61.7931 29.2741C62.1082 29.2741 62.4047 29.2714 62.7172 29.3281C63.3128 29.4363 63.8016 29.7499 64.1648 30.2366C64.5147 30.7071 64.7525 31.2479 64.8513 31.8292C64.902 32.1239 64.9047 32.4295 64.8833 32.7269C64.8726 32.8756 64.8459 33.0189 64.8192 33.1649C64.7925 33.319 64.8112 33.4488 64.8486 33.6002C64.8807 33.73 65.0302 33.749 65.121 33.6732C65.4042 33.438 65.4335 33.0784 65.4683 32.7296C65.503 32.3808 65.4709 32.0239 65.4068 31.6778C65.2813 31.0154 64.9848 30.3718 64.5334 29.8716C64.082 29.3714 63.4918 29.0686 62.824 29.0037C62.4982 28.9712 62.1536 29.0172 61.8358 29.0956C61.4619 29.1875 61.112 29.393 60.7247 29.4444C60.7033 29.4471 60.714 29.4796 60.7327 29.4687L60.73 29.466Z" fill="white"/>
<path d="M20.2182 39.6051C20.3971 39.6862 20.5494 39.8187 20.723 39.916C20.8592 39.9917 21.0034 40.0593 21.145 40.1242C21.4735 40.2783 21.8127 40.4216 22.1519 40.5541C22.8303 40.8164 23.5194 41.0489 24.2139 41.2571C25.6241 41.6789 27.0638 41.998 28.5141 42.2467C31.4307 42.7415 34.4008 42.9065 37.3522 42.9416C38.9708 42.9606 40.6721 43.0795 42.2667 42.7632C42.3441 42.747 42.3441 42.6172 42.2667 42.6036C40.8538 42.3576 39.3794 42.4685 37.9505 42.4576C36.5215 42.4468 35.0392 42.4198 33.5862 42.3441C30.6936 42.1927 27.7876 41.8682 24.9751 41.1409C24.1979 40.9408 23.426 40.7109 22.6674 40.446C22.2962 40.3162 21.9276 40.1837 21.559 40.0458C21.356 39.9701 21.1557 39.8944 20.9527 39.8187C20.7176 39.7294 20.4559 39.6916 20.2315 39.5807C20.2155 39.5726 20.2021 39.597 20.2182 39.6051Z" fill="white"/>
<path d="M44.8999 43.0093C48.0195 43.3743 51.2594 43.2121 54.331 42.5523C54.371 42.5442 54.363 42.4739 54.3203 42.4766C52.7524 42.5659 51.1873 42.6821 49.6194 42.766C48.0516 42.8498 46.4704 42.8768 44.8972 42.9444C44.8572 42.9444 44.8572 43.0039 44.8972 43.0066L44.8999 43.0093Z" fill="white"/>
<path d="M58.7178 42.1122C59.503 42.0906 60.2803 41.9094 61.0495 41.7391C61.8187 41.5688 62.6066 41.3416 63.3732 41.1064C64.1397 40.8712 64.8956 40.5954 65.6435 40.3006C66.3913 40.0059 67.1686 39.7436 67.839 39.3218C68.0206 39.2083 67.9058 38.8919 67.6894 38.9622C66.9496 39.2029 66.2498 39.5814 65.5286 39.8707C64.8075 40.16 64.0276 40.4412 63.2664 40.7035C62.5051 40.9658 61.776 41.1821 61.0254 41.4038C60.2749 41.6255 59.4656 41.804 58.7178 42.0852C58.7044 42.0906 58.7071 42.1095 58.7204 42.1095L58.7178 42.1122Z" fill="white"/>
<path d="M25.786 36.6392C26.4885 37.0097 27.1215 37.4288 27.8854 37.6802C28.6492 37.9317 29.4238 38.102 30.2117 38.221C31.8917 38.4779 33.5931 38.5779 35.2892 38.6834C38.9617 38.9159 42.6369 39.1917 46.3174 39.2133C47.3618 39.2187 48.4061 39.2025 49.4504 39.1484C49.9713 39.1214 50.4921 39.0862 51.0129 39.0403C51.5337 38.9943 52.0492 38.9835 52.522 38.8104C52.8532 38.6888 52.7864 38.2345 52.4392 38.1994C52.0092 38.1561 51.5711 38.2399 51.1411 38.2805C50.6657 38.3265 50.1876 38.3616 49.7095 38.3886C48.8201 38.4427 47.928 38.4671 47.0359 38.4752C45.2277 38.4887 43.4168 38.4211 41.6113 38.3346C39.8057 38.248 38.0135 38.1615 36.2133 38.0831C34.5199 38.0101 32.8186 37.9966 31.1252 37.8776C30.2304 37.8154 29.333 37.7127 28.4569 37.5207C27.5809 37.3287 26.5579 37.1016 25.7994 36.6149C25.786 36.6068 25.77 36.6311 25.786 36.6392Z" fill="white"/>
<path d="M36.8912 54.0603L18.9746 54.5659C18.988 54.2334 18.9986 53.8954 19.004 53.5547L36.8912 54.0603Z" fill="white"/>
<path d="M34.4611 52.79L19.0098 53.2578C19.0124 52.9496 19.0151 52.6359 19.0124 52.3223L34.4611 52.79Z" fill="white"/>
<path d="M31.2441 51.6134L19.0085 52.0216C19.0085 51.7513 19.0085 51.4782 19.0059 51.2051L31.2441 51.6134Z" fill="white"/>
<path d="M28.3556 47.5333L19.1062 47.9416C19.1062 47.6712 19.1062 47.3981 19.1035 47.125L28.3556 47.5333Z" fill="white"/>
<path d="M29.635 46.4083L19.1062 46.8166C19.1062 46.5462 19.1062 46.2731 19.1035 46L29.635 46.4083Z" fill="white"/>
<path d="M30.8897 45.5919L19.3113 46.0002C19.3113 45.7298 19.3113 45.4567 19.3086 45.1836L30.8897 45.5919Z" fill="white"/>
<path d="M32.226 44.6671L19.5925 45.0754C19.5925 44.805 19.5925 44.5319 19.5898 44.2588L32.226 44.6671Z" fill="white"/>
<path d="M32.9544 43.7432L19.6745 44.1515C19.6745 43.8811 19.6745 43.6081 19.6719 43.335L32.9544 43.7432Z" fill="white"/>
<path d="M29.0172 50.4756L19.0039 50.8406V50.1133L29.0172 50.4756Z" fill="white"/>
<path d="M26.7222 49.4338L19.0059 49.7447C19.0085 49.5365 19.0112 49.3283 19.0139 49.1201L26.7222 49.4338Z" fill="white"/>
<path d="M25.2246 48.4803L19.0254 48.7534C19.0307 48.5723 19.0361 48.3911 19.0441 48.21L25.2246 48.4803Z" fill="white"/>
<path d="M38.4796 55.3688L18.875 55.9015C18.9124 55.5527 18.9391 55.1985 18.9605 54.8389L38.4796 55.3688Z" fill="white"/>
<path d="M40.2461 56.7938L18.6543 57.3644C18.657 57.3481 18.6623 57.3292 18.665 57.313C18.7371 56.9588 18.7932 56.5992 18.8386 56.2314L40.2461 56.7938Z" fill="white"/>
<path d="M46.1284 59.4979L19.745 60.1197L17.5228 60.1711L17.3145 60.1765V60.0576L17.5869 60.0657C17.8139 59.6844 18.0222 59.2761 18.1985 58.8408L46.1284 59.4979Z" fill="white"/>
<path d="M42.0698 58.2216L18.2051 58.8272C18.36 58.4487 18.4935 58.0485 18.595 57.624L42.0698 58.2216Z" fill="white"/>
<path d="M44.0984 61.9121L15.5996 62.5826C15.9816 62.1825 16.3768 61.7471 16.7508 61.2686L44.0984 61.9121Z" fill="white"/>
<path d="M16.7852 61.2257C17.0442 60.8958 17.2926 60.5443 17.5223 60.1712L17.314 60.1766V60.0576L17.5864 60.0657L19.7445 60.1198L46.8384 60.6335L16.7852 61.2257Z" fill="white"/>
<path d="M41.3159 64.4674L13.4395 65.1245C13.6318 64.7135 13.9763 64.289 14.3983 63.832L41.3159 64.4674Z" fill="white"/>
<path d="M41.771 65.4971L18.9746 66.0785C19.3031 65.727 19.6771 65.3538 20.0643 64.9482L41.771 65.4971Z" fill="white"/>
<path d="M43.9836 66.6278L27.9019 67.0388C26.5478 66.7765 25.3245 66.5115 24.3042 66.26C24.0478 66.1979 23.794 66.1465 23.543 66.1113L43.9836 66.6278Z" fill="white"/>
<path d="M46.8393 67.5879L33.1348 67.9394C31.4494 67.6825 29.8095 67.404 28.3164 67.1201L46.8393 67.5879Z" fill="white"/>
<path d="M37.9772 63.1885L14.457 63.7699C14.7856 63.4184 15.1595 63.0452 15.5468 62.6396L37.9772 63.1885Z" fill="white"/>
<path d="M34.958 68.1989C30.9035 67.6446 26.9239 66.9037 24.3037 66.2602C19.2743 65.0272 14.8566 68.8829 13.4837 66.5711C13.1899 66.0736 13.2113 65.6059 13.4383 65.1246C13.6306 64.7136 13.9752 64.2891 14.3972 63.8321C14.4186 63.8132 14.4373 63.7916 14.4586 63.7699C14.7872 63.4184 15.1611 63.0453 15.5484 62.6397C15.5671 62.6208 15.5831 62.6019 15.6018 62.583C15.9837 62.1828 16.379 61.7475 16.753 61.2689C16.7663 61.2554 16.777 61.2391 16.7877 61.2256C17.0468 60.8957 17.2952 60.5442 17.5249 60.1711C17.5436 60.136 17.5649 60.1008 17.589 60.0657C17.816 59.6844 18.0243 59.2761 18.2006 58.8408C18.2033 58.8354 18.2059 58.8327 18.2059 58.8273C18.3609 58.4488 18.4944 58.0486 18.5959 57.6241C18.6173 57.5403 18.636 57.4537 18.6547 57.3645C18.6573 57.3483 18.6627 57.3294 18.6653 57.3131C18.7375 56.9589 18.7936 56.5993 18.839 56.2316C18.8523 56.1207 18.8657 56.0126 18.8763 55.9017C18.9137 55.5529 18.9405 55.1987 18.9618 54.8391C18.9672 54.7499 18.9698 54.6579 18.9752 54.566C18.9885 54.2334 18.9992 53.8955 19.0046 53.5548C19.0046 53.4547 19.0046 53.3574 19.0099 53.2573C19.0126 52.9491 19.0152 52.6355 19.0126 52.3218C19.0126 52.2218 19.0126 52.1217 19.0099 52.0217C19.0099 51.7513 19.0099 51.4782 19.0072 51.2051C19.0072 51.0834 19.0072 50.9618 19.0072 50.8401V50.1128C19.0072 49.9911 19.0072 49.8694 19.0072 49.745C19.0099 49.5368 19.0126 49.3286 19.0152 49.1204C19.0179 48.9988 19.0206 48.8744 19.0259 48.7527C19.0313 48.5716 19.0366 48.3904 19.0446 48.2092C19.0606 47.8469 19.0847 47.4873 19.1141 47.1304V47.125C19.5815 51.224 20.7113 54.5255 20.2278 57.3239C19.7471 60.1197 18.3822 62.0151 18.8763 63.2048C19.3705 64.3945 22.816 64.1593 25.7967 65.1246C28.7748 66.0899 31.1039 67.1335 34.958 68.1989Z" fill="white"/>
<path d="M38.3298 29.5041C38.4767 29.588 38.6343 29.6393 38.7972 29.6799C38.888 29.7015 38.9841 29.715 39.0776 29.7231C39.1845 29.7313 39.2833 29.7177 39.3875 29.7042L39.4756 29.6664L39.5504 29.6096C39.6065 29.5528 39.6412 29.4771 39.6519 29.3987C39.6599 29.3311 39.6519 29.2689 39.6278 29.2067C39.5958 29.1283 39.5477 29.0796 39.4783 29.031C39.1978 28.8309 38.7838 28.8363 38.4954 29.0201L38.9895 29.6691L39.0002 29.661L38.9174 29.7259C38.9494 29.7015 38.9815 29.6826 39.0162 29.6664L38.9174 29.7069C38.9548 29.6934 38.9895 29.6826 39.0296 29.6772L38.92 29.6907C38.9654 29.6853 39.0135 29.6853 39.0616 29.6826C39.1631 29.6772 39.2726 29.642 39.3447 29.5636C39.4062 29.496 39.4435 29.423 39.4542 29.3311C39.4649 29.2392 39.4542 29.1499 39.4061 29.0742L39.3447 28.9931C39.294 28.9417 39.2352 28.9093 39.1684 28.8904C39.1043 28.8633 39.0349 28.8552 38.9654 28.8579C38.896 28.8606 38.8266 28.8687 38.7625 28.8877C38.6289 28.9255 38.5194 28.9958 38.4126 29.085C38.3405 29.1472 38.2897 29.2824 38.2924 29.3771C38.295 29.4717 38.3244 29.5528 38.3805 29.6258C38.498 29.7799 38.7357 29.8448 38.9067 29.7313C38.9441 29.7069 38.9815 29.688 39.0215 29.6691L38.9254 29.7096C38.9735 29.6907 39.0242 29.6772 39.075 29.6691L38.9708 29.6826C39.0349 29.6745 39.099 29.6745 39.1631 29.6826L39.0616 29.6691C39.1097 29.6772 39.1551 29.6853 39.2005 29.7015L39.1123 29.0256L39.099 29.031L39.1845 28.9931C39.0776 29.0364 38.9708 29.0715 38.8559 29.0877L38.9387 29.0769C38.8666 29.0877 38.7972 29.0904 38.7224 29.0796L38.7972 29.0904C38.7064 29.0769 38.6182 29.0553 38.5328 29.0228C38.4767 29.0012 38.3859 29.0174 38.3351 29.0499C38.2844 29.0823 38.2523 29.1202 38.2309 29.1743C38.1829 29.2905 38.2229 29.4338 38.3351 29.4987L38.3298 29.5041Z" fill="white"/>
<path d="M47.3255 23.0823L47.3683 23.1093L47.2401 22.9417C47.2561 22.9877 47.2721 23.0255 47.3015 23.0634C47.3442 23.1201 47.3976 23.1553 47.4644 23.1769C47.4858 23.185 47.5071 23.1877 47.5285 23.1959C47.5712 23.2067 47.6167 23.2202 47.6594 23.231L47.5766 23.1959C47.6541 23.2418 47.7502 23.2689 47.8357 23.2986C47.8998 23.3202 47.9639 23.3419 48.028 23.3608L48.2577 22.5172C48.2176 22.5091 48.1802 22.4983 48.1428 22.482L48.2523 22.528C48.2363 22.5226 48.223 22.5145 48.2096 22.5091C48.1161 22.4658 48.044 22.4307 47.9372 22.4307C47.8891 22.4307 47.8223 22.4469 47.7662 22.455C47.7475 22.455 47.7315 22.4604 47.7155 22.4631C47.6006 22.4956 47.4911 22.5794 47.4297 22.6848C47.395 22.7389 47.3763 22.8011 47.3736 22.8633C47.3602 22.9282 47.3629 22.9904 47.3816 23.0553C47.419 23.1715 47.4911 23.2851 47.6006 23.3446L47.7155 23.3932C47.801 23.4149 47.8838 23.4149 47.9692 23.3932H47.9772C48.0387 23.377 48.0921 23.35 48.1375 23.3067C48.1882 23.2743 48.2283 23.2283 48.2577 23.1742C48.3164 23.0607 48.3378 22.9363 48.3058 22.8092V22.7984C48.1081 22.9958 47.9131 23.1932 47.7182 23.3905C47.7422 23.3986 47.7689 23.4041 47.7956 23.4095C47.8864 23.4284 47.9826 23.4419 48.0707 23.4122C48.0841 23.4068 48.0948 23.4041 48.1081 23.3986C48.1589 23.3797 48.2069 23.3662 48.2604 23.3581C48.3164 23.3446 48.3645 23.3175 48.4073 23.2797C48.4553 23.2499 48.4901 23.2067 48.5194 23.158L48.5622 23.0526C48.5809 22.9958 48.5835 22.9363 48.5702 22.8795C48.5702 22.8389 48.5595 22.8038 48.5408 22.7686C48.5221 22.7146 48.4927 22.6686 48.4527 22.628C48.3725 22.5523 48.2604 22.4929 48.1482 22.501C48.0814 22.5064 48.012 22.5091 47.9452 22.5172L47.849 22.528C47.7876 22.5361 47.7208 22.5361 47.6621 22.555L47.7529 22.5415C47.7075 22.5415 47.6621 22.5442 47.6167 22.5469C47.5953 22.5469 47.5766 22.5469 47.5552 22.5469C47.4965 22.5496 47.4404 22.5604 47.3896 22.5902C47.3389 22.6199 47.3015 22.6686 47.2694 22.7173L47.435 22.5875L47.387 22.6037C47.2908 22.6362 47.2187 22.7119 47.2053 22.8173C47.192 22.9228 47.2401 23.0174 47.3255 23.0742V23.0823Z" fill="white"/>
<path d="M59.8214 32.1077L59.8401 32.1023C59.8401 32.1023 59.8455 32.1023 59.8481 32.1023C59.8668 32.0968 59.8828 32.0914 59.8989 32.0806C59.9149 32.0725 59.9336 32.0671 59.9496 32.059C60.0084 32.0238 60.0565 31.9752 60.0912 31.9157C60.1259 31.8535 60.1446 31.7859 60.1446 31.7156C60.1446 31.6426 60.1259 31.5777 60.0912 31.5155C60.0565 31.456 60.0084 31.4074 59.9496 31.3722C59.9122 31.356 59.8775 31.3371 59.8401 31.3262L59.8214 31.3208C59.7493 31.3019 59.6772 31.3019 59.6077 31.3208C59.5383 31.3398 59.4795 31.3749 59.4288 31.4263L59.3647 31.5101C59.3273 31.575 59.3086 31.6426 59.3086 31.7156C59.3086 31.7724 59.3193 31.8238 59.3433 31.8724C59.3593 31.9238 59.3887 31.9671 59.4261 32.0049C59.5303 32.1104 59.6799 32.1455 59.8187 32.1104L59.8214 32.1077Z" fill="white"/>
<path d="M30.899 31.6238L31.3076 31.7942L31.2622 31.7753C31.3103 31.8023 31.3584 31.8293 31.4065 31.8564L31.3611 31.8185C31.3611 31.8185 31.3717 31.8293 31.3744 31.8347C31.3985 31.8645 31.4465 31.8888 31.4812 31.8969C31.5347 31.9104 31.5908 31.905 31.6388 31.8834C31.7216 31.8483 31.7964 31.7563 31.7884 31.659C31.7884 31.6536 31.7884 31.6482 31.7884 31.6428L31.7136 31.8239C31.7296 31.7996 31.7457 31.7807 31.7617 31.759C31.7831 31.7239 31.7964 31.686 31.7964 31.6455C31.8044 31.5779 31.7964 31.5103 31.7617 31.4508C31.7083 31.3562 31.6362 31.2642 31.5534 31.1912C31.4439 31.0912 31.3076 31.0317 31.1661 30.9857C30.907 30.9046 30.6426 31.1263 30.6426 31.3913C30.6426 31.4995 30.688 31.613 30.7628 31.6887C30.8135 31.7401 30.8749 31.778 30.9444 31.7969C31.0192 31.8158 31.0913 31.8158 31.1661 31.7969H31.1741C31.1367 31.7996 31.102 31.805 31.0646 31.8104C31.118 31.805 31.1688 31.805 31.2222 31.8104L31.1207 31.7969C31.1874 31.8077 31.2569 31.8185 31.3183 31.8429L31.2382 31.8104C31.2756 31.8266 31.3103 31.8456 31.345 31.8672C31.4332 31.924 31.5614 31.924 31.6495 31.8672L31.6575 31.8618L31.4626 31.8888C31.4626 31.8888 31.4732 31.8915 31.4759 31.8942V31.4183C31.4759 31.4183 31.4626 31.4238 31.4545 31.4238L31.516 31.4156C31.4626 31.4156 31.4065 31.4129 31.353 31.4102L31.4038 31.4183L30.9684 31.3453C30.931 31.3399 30.8936 31.3399 30.8589 31.3589C30.8295 31.3751 30.8028 31.4102 30.7948 31.4454C30.7761 31.5292 30.8189 31.5914 30.8936 31.6211L30.899 31.6238Z" fill="white"/>
<path d="M46.1385 30.9344L46.1091 30.9047L46.1812 31.0804C46.1839 31.0615 46.1812 31.0453 46.1785 31.0263C46.1785 30.9858 46.1652 30.9479 46.1438 30.9128C46.1438 30.9101 46.1411 30.9074 46.1385 30.9047C46.1358 30.9019 46.1358 30.8992 46.1331 30.8965L46.0824 30.8316L46.077 30.8262L46.1705 31.0561C46.1758 31.0101 46.1705 30.9641 46.1571 30.9209L46.1144 30.8208C46.0877 30.7722 46.053 30.7343 46.0076 30.7046C45.9675 30.6667 45.9221 30.6424 45.866 30.6289C45.8099 30.6126 45.7565 30.6099 45.7004 30.6207C45.6443 30.6207 45.5936 30.6397 45.5455 30.6694C45.4974 30.6965 45.46 30.7316 45.4307 30.7776C45.3933 30.8181 45.3692 30.8641 45.3559 30.9209L45.3398 31.0317C45.3398 31.1074 45.3585 31.1777 45.3959 31.2426L45.46 31.3265C45.5108 31.3778 45.5722 31.413 45.6417 31.4346L45.7512 31.4508C45.8073 31.4508 45.8607 31.44 45.9114 31.4157C45.9622 31.3995 46.0076 31.3697 46.045 31.3292C46.077 31.2994 46.1037 31.2643 46.1198 31.2237L45.9274 31.3724C45.9595 31.3643 45.9889 31.3481 46.0183 31.3346C46.0209 31.3346 46.0236 31.3319 46.0263 31.3292L46.0877 31.2805C46.1117 31.2589 46.1278 31.2345 46.1411 31.2075L45.9942 31.321L46.0343 31.3102C46.1091 31.2913 46.1678 31.2291 46.1892 31.1534C46.2106 31.0777 46.1892 30.9912 46.1331 30.9344H46.1385Z" fill="white"/>
<path d="M46.5736 28.9984L46.7606 29.0309C46.7927 29.039 46.8247 29.039 46.8541 29.0309C46.8835 29.0228 46.9102 29.0066 46.9315 28.9849C46.9636 28.9498 46.985 28.9065 46.985 28.8578C46.985 28.8335 46.9796 28.8092 46.9689 28.7875C46.9609 28.7659 46.9502 28.747 46.9315 28.7308C46.9102 28.7091 46.8835 28.6929 46.8541 28.6848C46.822 28.6767 46.79 28.6767 46.7606 28.6848L46.5736 28.7172L46.5389 28.7308C46.5229 28.7389 46.5095 28.7524 46.4988 28.7686C46.4908 28.7767 46.4828 28.7875 46.4802 28.8011C46.4721 28.8173 46.4668 28.8362 46.4668 28.8578C46.4668 28.8849 46.4748 28.9092 46.4855 28.9308C46.4935 28.9471 46.5069 28.9606 46.5229 28.9714C46.5362 28.9849 46.5523 28.993 46.571 28.9984H46.5736Z" fill="white"/>
<path d="M36.1658 28.9955L36.2433 28.9901L36.1632 28.9685H36.1658C36.1658 28.9685 36.1445 28.9522 36.1311 28.9441C36.1311 28.9441 36.1551 28.9631 36.1658 28.9712C36.1845 28.9847 36.2059 28.9901 36.2299 28.9928C36.246 28.9982 36.2593 28.9982 36.2753 28.9928C36.2967 28.9928 36.3181 28.9847 36.3394 28.9712L36.4489 28.9036C36.4676 28.8928 36.4837 28.8792 36.4944 28.863C36.5077 28.8468 36.5184 28.8279 36.5237 28.8089L36.5291 28.7657C36.5291 28.744 36.5264 28.7224 36.5157 28.7035C36.5131 28.69 36.505 28.6791 36.4944 28.6683C36.4837 28.6494 36.4676 28.6359 36.4489 28.6278L36.4116 28.6116C36.3822 28.6034 36.3555 28.6034 36.3261 28.6116L36.2112 28.6602L36.1712 28.6764C36.1525 28.6873 36.1365 28.7008 36.1231 28.7197C36.1124 28.7305 36.1044 28.744 36.1017 28.7576C36.091 28.7792 36.0857 28.8008 36.0884 28.8225C36.0884 28.8306 36.091 28.8603 36.0937 28.8684L36.1097 28.744C36.1097 28.744 36.1258 28.7251 36.1338 28.7143L36.0804 28.7765C36.067 28.7927 36.0537 28.8116 36.0483 28.8333L36.043 28.8657C36.043 28.8819 36.0456 28.8982 36.0537 28.9144C36.0563 28.9252 36.0617 28.9333 36.0697 28.9414C36.075 28.9522 36.083 28.9576 36.091 28.9631C36.1124 28.9793 36.1391 28.9928 36.1658 28.9901V28.9955Z" fill="white"/>
<path d="M39.0734 31.5966C39.1161 31.6237 39.1668 31.6453 39.2176 31.6534C39.2523 31.6588 39.2897 31.6669 39.3271 31.6642C39.3645 31.6615 39.4019 31.6561 39.4393 31.648C39.4553 31.6453 39.4686 31.6399 39.4847 31.6345C39.5114 31.6237 39.5381 31.6129 39.5648 31.5993C39.5648 31.5993 39.5701 31.5993 39.5728 31.5939L39.6262 31.5507C39.6449 31.5344 39.661 31.5128 39.6716 31.4885C39.6877 31.456 39.7037 31.4236 39.7117 31.3884C39.7197 31.3533 39.7251 31.3208 39.7277 31.2857C39.7277 31.2451 39.717 31.2073 39.6983 31.1721C39.6797 31.137 39.6529 31.1126 39.6182 31.091C39.5514 31.0505 39.4606 31.0477 39.3939 31.091C39.3832 31.0991 39.3725 31.1045 39.3618 31.1099L39.4206 31.0856C39.4206 31.0856 39.3992 31.0937 39.3885 31.0964C39.3832 31.0964 39.3778 31.0964 39.3725 31.0991C39.3191 31.1099 39.2844 31.1424 39.2443 31.1748L39.2977 31.1316C39.279 31.1451 39.2603 31.1559 39.2416 31.1667L39.3031 31.1397C39.2817 31.1478 39.2603 31.1559 39.2363 31.1586L39.3031 31.1505C39.2817 31.1505 39.263 31.1532 39.2416 31.1505L39.3057 31.1586C39.2897 31.1586 39.2737 31.1532 39.2576 31.1478C39.2256 31.137 39.1935 31.137 39.1615 31.1424C39.1294 31.1424 39.1001 31.1532 39.0707 31.1721L39.0226 31.21C38.9986 31.2316 38.9825 31.2586 38.9719 31.2884C38.9612 31.3073 38.9558 31.3289 38.9558 31.3506C38.9478 31.383 38.9505 31.4155 38.9612 31.4479C38.9799 31.5101 39.0173 31.5615 39.0707 31.5939L39.0734 31.5966Z" fill="white"/>
<path d="M44.3923 23.1338L44.6139 23.1906L44.7235 23.2176C44.7421 23.223 44.7608 23.2284 44.7795 23.2311C44.8169 23.2392 44.849 23.2365 44.881 23.2149C44.9211 23.1906 44.9345 23.1392 44.9104 23.0986C44.8917 23.0662 44.8677 23.0473 44.833 23.0364C44.8143 23.031 44.7956 23.0283 44.7769 23.0229L44.6674 22.9959L44.4457 22.9418C44.3976 22.931 44.3388 22.958 44.3255 23.0094C44.3121 23.0608 44.3415 23.1176 44.3923 23.1311V23.1338Z" fill="white"/>
<path d="M48.405 24.3694C48.5759 24.3207 48.7495 24.2802 48.9151 24.218C48.9311 24.2126 48.9285 24.1855 48.9098 24.1855C48.7362 24.1937 48.5599 24.2234 48.3863 24.245C48.3489 24.2504 48.3195 24.2748 48.3248 24.318C48.3302 24.3559 48.3676 24.3802 48.4023 24.3694H48.405Z" fill="white"/>
<path d="M50.7935 27.2275L51.1594 27.2762C51.2182 27.2843 51.2796 27.2843 51.3384 27.287C51.3811 27.287 51.4265 27.287 51.4666 27.2681C51.5066 27.2492 51.5414 27.2384 51.5707 27.2086C51.6028 27.1789 51.6188 27.1356 51.6322 27.0951L51.6001 27.1518L51.6081 27.1437C51.6535 27.1032 51.6535 27.0139 51.6081 26.9734L51.6001 26.9653L51.6322 27.0221C51.6188 26.9869 51.6081 26.9572 51.5868 26.9301C51.5547 26.8896 51.52 26.8706 51.4719 26.8517C51.4292 26.8328 51.3838 26.8301 51.3357 26.8301C51.2743 26.8301 51.2155 26.8301 51.1567 26.8409L50.7908 26.8896C50.7454 26.895 50.708 26.9031 50.6733 26.9382C50.6439 26.968 50.6226 27.0139 50.6252 27.0572C50.6279 27.1005 50.6412 27.1464 50.6733 27.1762C50.708 27.2086 50.7454 27.2194 50.7908 27.2248L50.7935 27.2275Z" fill="white"/>
<path d="M50.791 24.3526L51.0848 24.312L51.229 24.2931C51.2824 24.285 51.3358 24.2823 51.3839 24.2634C51.4533 24.2336 51.4881 24.1876 51.5335 24.1282L51.4961 24.1768L51.5041 24.1687L51.456 24.2066C51.5121 24.166 51.5815 24.1309 51.6243 24.0768C51.6857 24.0011 51.6777 23.9037 51.5949 23.847C51.5335 23.8037 51.456 23.7929 51.3866 23.7658L51.4453 23.7902C51.3973 23.755 51.3385 23.7334 51.2797 23.7334C51.237 23.7334 51.1916 23.7469 51.1515 23.7523L51.01 23.7767L50.7242 23.8226C50.6654 23.8334 50.5933 23.8929 50.5639 23.947C50.5345 24.0011 50.5239 24.0579 50.5319 24.12C50.5399 24.1768 50.5613 24.2363 50.604 24.2742C50.6521 24.3174 50.7242 24.3634 50.791 24.3526Z" fill="white"/>
<path d="M56.9571 30.7313L57.2589 30.7367C57.3283 30.7367 57.4005 30.7232 57.4699 30.7123L57.6141 30.6907L57.6756 30.6637C57.7049 30.6474 57.729 30.6258 57.7477 30.5961C57.7797 30.5528 57.8038 30.496 57.8011 30.4393C57.8011 30.3933 57.7877 30.35 57.7664 30.3095C57.7397 30.2608 57.6702 30.1986 57.6141 30.1905L57.4699 30.1689C57.4005 30.1581 57.3283 30.1445 57.2589 30.1445L56.9571 30.1499C56.8823 30.1499 56.8075 30.1824 56.7568 30.2338C56.7087 30.2824 56.6713 30.3662 56.674 30.4365C56.682 30.5961 56.7995 30.7232 56.9598 30.7259L56.9571 30.7313Z" fill="white"/>
<path d="M62.4469 32.1157L62.4977 32.1265C62.4977 32.1265 62.5057 32.1265 62.511 32.1265C62.5538 32.1346 62.5805 32.1373 62.6232 32.1265H62.6285C62.6526 32.1184 62.6793 32.113 62.698 32.0995C62.7274 32.0805 62.7514 32.0589 62.7674 32.0292C62.7861 31.9994 62.7941 31.9643 62.7941 31.9291C62.7941 31.894 62.7861 31.8588 62.7674 31.8291C62.7487 31.7993 62.7274 31.775 62.698 31.7588C62.6793 31.7453 62.6526 31.7372 62.6285 31.7317C62.6285 31.7317 62.6232 31.7317 62.6205 31.7317L62.5644 31.7236C62.5457 31.7236 62.527 31.7263 62.5083 31.7317C62.503 31.7317 62.5003 31.7317 62.495 31.7317L62.4442 31.7426L62.3988 31.7615C62.3775 31.775 62.3588 31.7912 62.3454 31.8129C62.3321 31.8264 62.3241 31.8399 62.3214 31.8561C62.308 31.8805 62.3027 31.9048 62.3054 31.9318L62.3134 31.9832L62.3321 32.0292C62.3454 32.0508 62.3614 32.0697 62.3828 32.0832C62.4015 32.0995 62.4229 32.113 62.4496 32.1184L62.4469 32.1157Z" fill="white"/>
<path d="M33.3788 32.1425L33.4268 32.1641L33.3574 32.0721C33.3574 32.0938 33.3654 32.1127 33.3788 32.1289L33.4081 32.1695C33.4268 32.1884 33.4455 32.2019 33.4696 32.21C33.4936 32.2236 33.5176 32.229 33.5444 32.2263C33.5711 32.2263 33.5951 32.2209 33.6191 32.21C33.6432 32.2019 33.6645 32.1884 33.6806 32.1695C33.6993 32.1506 33.7126 32.1316 33.7206 32.1073C33.734 32.083 33.7393 32.0586 33.7367 32.0316L33.7286 31.9802C33.7206 31.9478 33.7019 31.918 33.6779 31.8937L33.6378 31.864C33.6085 31.845 33.5737 31.8369 33.539 31.8369L33.4883 31.845C33.4642 31.8504 33.4402 31.864 33.4215 31.8802C33.4001 31.8937 33.3841 31.9126 33.3707 31.9343C33.3574 31.9532 33.352 31.9721 33.3494 31.991L33.4188 31.8991L33.3707 31.9207C33.352 31.9315 33.336 31.9478 33.3253 31.9667C33.3147 31.9856 33.3066 32.01 33.3066 32.0316C33.3066 32.0559 33.312 32.0776 33.3253 32.0965C33.336 32.1154 33.352 32.1316 33.3707 32.1425H33.3788Z" fill="white"/>
<path d="M42.7082 33.2164C42.7376 33.2246 42.767 33.2327 42.7963 33.2381C42.8177 33.2435 42.8364 33.2462 42.8578 33.2408C42.8791 33.2408 42.8978 33.2327 42.9139 33.2219C42.9486 33.2002 42.9726 33.1678 42.9833 33.1299V33.1191C42.9593 33.1461 42.9299 33.1759 42.9032 33.2029L42.9352 33.1921C42.9513 33.1867 42.9673 33.1813 42.9806 33.1705C43.0047 33.1516 43.0234 33.1191 43.0207 33.0894C43.0207 33.0623 43.01 33.0353 42.9913 33.0164C42.978 33.0028 42.9566 32.992 42.9379 32.9866L42.9032 32.9758L42.986 33.0596V33.0488C42.978 33.0299 42.9699 33.011 42.9566 32.9974C42.9459 32.9812 42.9326 32.9677 42.9139 32.9569L42.8765 32.9407C42.8498 32.9325 42.823 32.9325 42.7963 32.9407C42.767 32.9461 42.7376 32.9542 42.7082 32.9623L42.6761 32.9758C42.6601 32.9839 42.6494 32.9947 42.6388 33.011C42.6227 33.0326 42.6094 33.0623 42.6094 33.0921C42.6094 33.1164 42.6174 33.138 42.6281 33.1597C42.6414 33.1867 42.6761 33.2137 42.7055 33.2219L42.7082 33.2164Z" fill="white"/>
<path d="M48.9823 33.1083L49.1773 33.1461C49.22 33.1542 49.2681 33.1678 49.3108 33.1705C49.3455 33.1705 49.3829 33.1651 49.4176 33.1623C49.4657 33.1569 49.5084 33.1461 49.5405 33.111C49.5699 33.0812 49.5939 33.0299 49.5912 32.9866C49.5886 32.9433 49.5752 32.892 49.5405 32.8622C49.5058 32.8325 49.4657 32.8135 49.4176 32.8108C49.3829 32.8081 49.3482 32.8027 49.3161 32.8027C49.2734 32.8027 49.22 32.8163 49.1773 32.8271L48.9823 32.8649C48.9289 32.8757 48.8861 32.9379 48.8888 32.9893C48.8915 33.0407 48.9262 33.1029 48.9823 33.1137V33.1083Z" fill="white"/>
<path d="M44.4171 26.6781C44.4732 26.6781 44.4732 26.5889 44.4171 26.5889C44.361 26.5889 44.361 26.6781 44.4171 26.6781Z" fill="white"/>
<path d="M41.6358 23.3985L41.7988 23.3445L41.8789 23.3174C41.9136 23.3066 41.9483 23.2931 41.975 23.266C41.983 23.2552 41.9911 23.2471 42.0017 23.2363C42.0338 23.2011 42.0471 23.1579 42.0338 23.1092C42.0231 23.0687 41.9884 23.0281 41.943 23.0173C41.9323 23.0173 41.9189 23.0119 41.9083 23.0092C41.8762 23.0038 41.8495 22.9984 41.8175 23.0092C41.8094 23.0092 41.8041 23.0146 41.7961 23.0173L41.716 23.0443L41.553 23.0984C41.5156 23.1119 41.4809 23.1336 41.4622 23.1687C41.4435 23.2011 41.4355 23.2498 41.4462 23.2877C41.4569 23.3255 41.4809 23.3607 41.5156 23.3796C41.5504 23.3985 41.5958 23.4093 41.6332 23.3958L41.6358 23.3985Z" fill="white"/>
<path d="M39.4282 26.4516L39.4575 26.4706L39.3774 26.3651C39.3881 26.4273 39.4362 26.4787 39.4896 26.5084C39.5163 26.5246 39.5483 26.5436 39.5777 26.549C39.6098 26.5544 39.6445 26.5598 39.6765 26.5652C39.73 26.5733 39.7807 26.5787 39.8341 26.5787C39.8876 26.5787 39.9463 26.5679 39.9917 26.5354L40.0318 26.5057C40.0638 26.4868 40.0905 26.4597 40.1092 26.4273C40.1279 26.3948 40.1386 26.357 40.1386 26.3191C40.1386 26.2813 40.1279 26.2434 40.1092 26.211C40.0905 26.1785 40.0638 26.1515 40.0318 26.1326L39.9944 26.1055C39.949 26.0731 39.8929 26.0596 39.8395 26.0596C39.7861 26.0596 39.7326 26.065 39.6792 26.0731C39.6472 26.0785 39.6151 26.0812 39.5857 26.0866C39.5564 26.092 39.5243 26.1082 39.4976 26.1245C39.4415 26.1542 39.3934 26.2029 39.3827 26.2705L39.4629 26.165L39.4335 26.1839C39.3347 26.2461 39.3347 26.3894 39.4335 26.4516H39.4282Z" fill="white"/>
<path d="M52.569 30.5283L52.6518 30.5364L52.5904 30.5202H52.5931C52.5931 30.5202 52.577 30.5093 52.5664 30.5012C52.5797 30.5175 52.6091 30.5337 52.6251 30.5391C52.6385 30.5418 52.6518 30.5445 52.6652 30.5445C52.6972 30.5445 52.7239 30.531 52.7507 30.5148L52.8067 30.4823L52.8602 30.4526C52.8842 30.439 52.9109 30.4255 52.9323 30.4066C52.959 30.3796 52.9643 30.339 52.951 30.3039C52.9456 30.2876 52.9349 30.2768 52.9216 30.266C52.9029 30.2525 52.8869 30.2498 52.8655 30.2471C52.8468 30.2471 52.8228 30.2525 52.8041 30.2552L52.7426 30.2633L52.6839 30.2714C52.6545 30.2768 52.6224 30.2768 52.5957 30.293C52.5557 30.3201 52.529 30.3606 52.529 30.412L52.5343 30.3769C52.545 30.3633 52.5557 30.3444 52.5664 30.3255L52.5103 30.3796C52.4862 30.4039 52.4809 30.4417 52.4916 30.4742C52.5049 30.5066 52.5343 30.5229 52.569 30.5256V30.5283Z" fill="white"/>
<path d="M55.9468 32.1234C55.9094 32.1207 55.8747 32.1234 55.8373 32.1234C55.7999 32.1234 55.7652 32.1234 55.7278 32.118L55.6317 32.1315C55.5836 32.1423 55.5435 32.164 55.5061 32.1991C55.4447 32.2478 55.3913 32.3154 55.3753 32.3911C55.3619 32.456 55.3619 32.5236 55.3753 32.5885C55.3966 32.6858 55.4687 32.7561 55.5435 32.8102C55.6103 32.8561 55.6877 32.8886 55.7652 32.9048L55.5916 32.8021C55.6744 32.8886 55.7946 32.9427 55.9148 32.9373C55.9308 32.9373 55.9495 32.9373 55.9655 32.9319C56.035 32.9237 56.1071 32.9156 56.1765 32.894C56.2727 32.8616 56.3715 32.8237 56.4383 32.7453C56.481 32.6966 56.5211 32.6452 56.5558 32.5885L56.5932 32.5019L56.6065 32.4046L56.5932 32.3073C56.5825 32.2586 56.5611 32.218 56.5291 32.1829C56.5131 32.1558 56.4917 32.1342 56.465 32.118C56.4436 32.0964 56.4169 32.0801 56.3849 32.072C56.3555 32.0558 56.3261 32.0477 56.2941 32.0477C56.246 32.0369 56.1979 32.0396 56.1498 32.0531C56.1285 32.0585 56.1071 32.0612 56.0857 32.0666L56.1872 32.0531C56.1712 32.0531 56.1578 32.0531 56.1418 32.0558C56.067 32.0612 56.0457 32.0693 55.9896 32.0855C55.9548 32.0964 55.9201 32.1045 55.8854 32.1099L55.9949 32.0964C55.9709 32.0991 55.9495 32.1018 55.9255 32.1018C55.8774 32.1018 55.848 32.1018 55.7892 32.1153C55.7064 32.1396 55.6584 32.1775 55.5943 32.2343L55.8747 32.118C55.8266 32.1207 55.7786 32.1207 55.7305 32.118L55.9148 32.8102C55.9335 32.7994 55.9548 32.7913 55.9735 32.7804L55.8907 32.8156L55.9682 32.794C56.0189 32.7804 56.0643 32.7561 56.1124 32.7345L56.1792 32.6831C56.2112 32.6534 56.2326 32.6182 56.246 32.5776C56.2727 32.5128 56.2834 32.4343 56.262 32.364C56.246 32.31 56.2166 32.2613 56.1792 32.2207C56.1498 32.1883 56.1151 32.1667 56.075 32.1531C56.0376 32.1315 55.9949 32.1234 55.9495 32.1261L55.9468 32.1234Z" fill="white"/>
<path d="M19.5607 50.113C19.5821 46.9846 22.8112 42.4205 24.3684 41.1416C22.7444 40.6251 21.5559 40.498 21.5559 40.498C21.5559 40.498 19.6969 43.2695 19.3043 45.5921C18.9117 47.9147 19.558 50.113 19.558 50.113H19.5607Z" fill="white"/>
<path d="M65.2651 42.3827C64.4184 42.8531 63.6011 43.3344 62.6823 43.6589C61.8249 43.9617 60.9408 44.178 60.0514 44.3457C59.608 44.4295 59.1647 44.4971 58.7186 44.562C58.3607 44.6134 57.9895 44.6864 57.7037 44.9297C57.1855 45.3704 57.2069 46.1356 57.4847 46.7061C57.8559 47.4686 58.6732 47.8255 59.381 48.1879C60.0888 48.5502 60.7592 49.0477 61.3068 49.6777C62.3858 50.9215 63.0001 52.5384 63.2245 54.1634C63.5557 56.5752 63.1043 59.006 62.6716 61.3719C62.6342 61.5746 62.7864 61.7288 62.9868 61.6909C65.9702 61.1204 67.6662 58.0569 68.5476 55.3882C69.6053 52.176 69.9018 48.5042 68.6278 45.3082C68.0322 43.8157 66.9157 41.9447 65.1021 41.969C64.7309 41.9744 64.7309 42.5665 65.1021 42.553C66.662 42.4908 67.5594 44.2105 68.0589 45.4678C68.6331 46.9116 68.8735 48.4664 68.8628 50.0184C68.8521 51.5704 68.569 53.2441 68.1123 54.7934C67.7143 56.1399 67.1775 57.4432 66.3975 58.6112C65.5428 59.8874 64.3756 60.896 62.8505 61.1934L63.1657 61.5125C63.8121 57.9082 64.4585 53.9498 62.5621 50.6024C62.1748 49.9183 61.686 49.2829 61.0984 48.7638C60.4761 48.2149 59.7736 47.8796 59.0471 47.5038C58.3207 47.1279 57.5327 46.5223 57.7197 45.6111C57.8105 45.1622 58.1898 44.973 58.5984 44.8783C59.0285 44.7783 59.4665 44.7215 59.9018 44.6404C60.9034 44.4565 61.9024 44.224 62.8612 43.8644C63.7426 43.5345 64.6481 43.1262 65.3238 42.4503C65.3586 42.4151 65.3131 42.3556 65.2704 42.38L65.2651 42.3827Z" fill="white"/>
</g>
<defs>
<clipPath id="clip0_558_18952">
<rect width="88" height="88" fill="white"/>
</clipPath>
</defs>
</svg>
