<svg width="88" height="88" viewBox="0 0 88 88" fill="none" xmlns="http://www.w3.org/2000/svg">
<g clip-path="url(#clip0_558_18920)">
<rect width="88" height="88" fill="#2EAC6A"/>
<path d="M37.4271 55.6521L37.3894 55.403L37.2438 55.6093L22.7763 45.2404C22.5152 45.0542 22.2792 44.8278 22.0783 44.5686C21.7318 44.1208 21.5058 43.5899 21.4255 43.0338C21.4155 42.9885 21.4104 42.9331 21.4029 42.8778C21.3903 42.7746 21.3828 42.6614 21.3828 42.5356V29.3789C21.3828 29.2229 21.4079 29.0744 21.4581 28.931C21.6239 28.4253 22.0758 28.0529 22.6106 27.9849L52.6126 24.173C53.2604 24.0925 53.9032 24.2108 54.4756 24.5127L69.4402 32.4007C69.7641 32.5718 69.9625 32.9039 69.9625 33.2688V48.7454C69.9625 49.8826 69.149 50.8312 68.0266 50.9998L37.4245 55.6496L37.4271 55.6521ZM53.0093 24.6511C52.8988 24.6511 52.7884 24.6586 52.6754 24.6712L22.6734 28.4831C22.3269 28.5284 22.0432 28.7624 21.9327 29.092C21.9 29.1851 21.885 29.2807 21.885 29.3789V42.5331C21.885 42.6388 21.89 42.7319 21.9 42.8199C21.9051 42.8652 21.9076 42.9055 21.9176 42.9457C21.9879 43.4288 22.1787 43.8767 22.4725 44.2566C22.6433 44.478 22.8416 44.6693 23.0651 44.8278L37.4497 55.1388L67.9513 50.5041C68.8251 50.3708 69.4603 49.631 69.4603 48.7454V33.2688C69.4603 33.0901 69.3624 32.9291 69.2042 32.8461L54.2421 24.9581C53.8605 24.7568 53.4387 24.6536 53.0068 24.6536L53.0093 24.6511Z" fill="white"/>
<path d="M21.6328 29.7364C22.5317 30.4032 23.5059 30.9769 24.4475 31.5807C25.389 32.1846 26.3005 32.7683 27.2295 33.3596C29.09 34.5472 30.948 35.7373 32.801 36.9375C33.6371 37.4785 34.4532 38.0698 35.0106 38.9152C35.4952 39.6524 35.7739 40.5003 35.9396 41.3608C36.3062 43.2832 36.2283 45.2986 36.2785 47.246C36.3438 49.7722 36.4091 52.3009 36.4744 54.8271C36.4819 55.1013 36.9088 55.1038 36.9012 54.8271C36.841 52.5299 36.7807 50.2326 36.7204 47.9354C36.6903 46.7755 36.6602 45.6156 36.6275 44.4557C36.6024 43.5624 36.5648 42.6692 36.4317 41.7836C36.3036 40.923 36.0827 40.0701 35.6885 39.2901C35.2943 38.5101 34.6691 37.8182 33.9384 37.2747C33.0772 36.6356 32.1281 36.1072 31.2167 35.5436C30.245 34.9448 29.2733 34.3459 28.3041 33.7421C27.2119 33.0627 26.1197 32.3808 25.025 31.704C23.9177 31.0171 22.8255 30.2749 21.673 29.666C21.6278 29.6408 21.5927 29.7037 21.6328 29.7339V29.7364Z" fill="white"/>
<path d="M38.1958 55.1284C38.354 53.7245 38.4143 52.3054 38.5047 50.8964C38.5951 49.5049 38.6855 48.116 38.7733 46.7246C38.8637 45.3332 38.9516 43.9443 39.042 42.5529C39.0847 41.8761 39.1123 41.1967 39.1826 40.5199C39.2504 39.8582 39.4613 39.3625 40.074 39.0505C41.1938 38.4768 42.4618 38.2177 43.6971 38.034C45.0529 37.8327 46.4163 37.6918 47.7747 37.5207C50.4789 37.181 53.183 36.8212 55.8772 36.3935C57.4138 36.1494 58.9454 35.8777 60.472 35.5858C61.2353 35.4399 61.9986 35.2864 62.7594 35.1254C63.5201 34.9643 64.2935 34.836 65.0216 34.5643C65.235 34.4838 65.2275 34.1089 64.9639 34.134C64.2684 34.1994 63.593 34.3781 62.9125 34.5215C62.2321 34.6649 61.509 34.8134 60.8059 34.9492C59.4199 35.2185 58.0289 35.465 56.6354 35.6965C53.8107 36.1645 50.9785 36.5797 48.1413 36.9571C46.7678 37.1408 45.3919 37.2993 44.0185 37.4955C42.743 37.6767 41.4725 37.9359 40.2874 38.4592C39.7752 38.6857 39.278 38.965 39.0294 39.4908C38.801 39.9764 38.7909 40.5325 38.7608 41.0584C38.6754 42.5127 38.5725 43.9645 38.4771 45.4163C38.3716 47.014 38.2687 48.6117 38.1632 50.2095C38.0552 51.8449 37.9071 53.4879 37.877 55.1284C37.8745 55.3348 38.1682 55.3247 38.1908 55.1284H38.1958Z" fill="white"/>
<path d="M23.6684 28.9258C24.384 29.2453 25.067 29.7058 25.7424 30.1008C26.4278 30.5009 27.1108 30.9085 27.7962 31.3111C29.1295 32.0961 30.4602 32.8811 31.7935 33.6687C33.1267 34.4562 34.3621 35.1909 35.6928 35.8526C36.9281 36.4666 38.2237 36.9069 39.6047 37C41.1062 37.1006 42.6127 36.8817 44.0991 36.6981C45.5855 36.5144 47.0569 36.3055 48.5307 36.0766C51.4835 35.6186 54.4237 35.0827 57.3689 34.5669C60.6631 33.9882 63.9623 33.4372 67.2867 33.0421C67.5553 33.0094 67.5578 32.5842 67.2867 32.6169C61.4565 33.3189 55.6992 34.4914 49.9042 35.4299C46.9414 35.9105 43.9635 36.3533 40.9706 36.5924C39.4967 36.7106 38.0907 36.5773 36.7147 36.0162C35.3689 35.4677 34.116 34.6827 32.8531 33.9656C31.344 33.1101 29.8074 32.2974 28.2858 31.4671C27.515 31.0469 26.7442 30.6267 25.9734 30.204C25.6068 30.0027 25.2427 29.7989 24.8786 29.5926C24.4819 29.3686 24.0551 29.1673 23.681 28.9057C23.6684 28.8956 23.6533 28.9208 23.6684 28.9283V28.9258Z" fill="white"/>
<path d="M32.7804 49.9481L23.1337 43.9119L21.6724 42.9961L21.5645 42.9281L21.6272 42.8325L21.6523 42.8501C21.6398 42.7445 21.6348 42.6388 21.6348 42.5331V41.8814L21.5921 41.8538L21.6297 41.7959H21.6348L22.3303 42.3092L32.7804 49.9481Z" fill="white"/>
<path d="M34.2844 51.896L22.275 44.4131C21.9587 44.003 21.7477 43.5149 21.6724 42.9966L21.5645 42.9286L21.6272 42.833L21.6523 42.8506L23.1337 43.9124L34.2844 51.896Z" fill="white"/>
<path d="M30.8467 47.5474L22.33 42.3088L21.6345 41.8811L21.5918 41.8534L21.6295 41.7955L21.6345 41.798V40.7237L21.6219 40.7161L21.6295 40.7061L21.6345 40.7086L21.745 40.7916L30.8467 47.5474Z" fill="white"/>
<path d="M30.4059 46.0377L21.7461 40.7916L21.6356 40.7237L21.623 40.7162L21.6306 40.7061L21.6356 40.7086V39.6418L21.5879 39.6141L21.6281 39.5537L21.6356 39.5587L22.1076 39.906L30.4059 46.0377Z" fill="white"/>
<path d="M29.5796 44.1158L22.1074 39.9064L21.6353 39.6422L21.5876 39.6145L21.6278 39.5541L21.6353 39.5592V38.6156L21.5625 38.5754L21.6177 38.4873L21.6353 38.4999L22.4237 39.0559L29.5796 44.1158Z" fill="white"/>
<path d="M29.1703 42.8298L22.4237 39.0556L21.6353 38.6153L21.5625 38.575L21.6177 38.4869L21.6353 38.4995V37.5535L21.5801 37.5233L21.6177 37.4629L21.6353 37.4755L22.145 37.8378L29.1703 42.8298Z" fill="white"/>
<path d="M28.758 41.512L22.1445 37.8385L21.6348 37.5542L21.5795 37.524L21.6172 37.4636L21.6348 37.4762V36.5251L21.5645 36.4873L21.6172 36.4043L21.6348 36.4169L22.3202 36.9075L28.758 41.512Z" fill="white"/>
<path d="M28.4349 39.2418L22.2332 35.8174L21.6356 35.4878L21.5703 35.4525L21.618 35.377L21.6356 35.3896V34.3958L21.5954 34.3731L21.618 34.3379L21.6356 34.3505L21.8942 34.5367L28.4349 39.2418Z" fill="white"/>
<path d="M28.758 40.4856L22.3202 36.9077L21.6348 36.5253L21.5645 36.4875L21.6172 36.4045L21.6348 36.4171V35.4886L21.5695 35.4534L21.6172 35.3779L21.6348 35.3905L22.2323 35.8182L28.758 40.4856Z" fill="white"/>
<path d="M28.0109 37.8858L21.8945 34.5368L21.6359 34.3959L21.5957 34.3733L21.6183 34.3381L21.6359 34.3506V33.2637L28.0109 37.8858Z" fill="white"/>
<path d="M21.6367 33.2435V32.1867L21.584 32.1565L21.6191 32.0986L21.6367 32.1112L22.0535 32.4131L28.0117 36.7333L21.6367 33.2435Z" fill="white"/>
<path d="M28.0098 35.6737L22.0516 32.4129L21.6348 32.1864L21.582 32.1562L21.6172 32.0983L21.6348 32.1109V31.1598L21.5645 31.1221L21.6172 31.0391L21.6348 31.0516L22.2348 31.4869L28.0098 35.6737Z" fill="white"/>
<path d="M27.8189 34.5296L22.2348 31.4877L21.6348 31.1606L21.5645 31.1228L21.6172 31.0398L21.6348 31.0524V30.0283L27.8189 34.5296Z" fill="white"/>
<path d="M30.1063 34.919L21.6348 30.1132V29.3785C21.6348 29.2527 21.6549 29.1294 21.695 29.0137L30.1063 34.919Z" fill="white"/>
<path d="M35.5698 60.5186C33.7043 60.5186 31.8538 59.9324 30.3297 58.8328L11.4532 45.2156C10.3811 44.5916 9.83374 43.4216 10.0446 42.1737C10.2556 40.9257 11.1569 39.9997 12.3948 39.7582L22.1419 38.3643L22.2122 38.8624L12.4776 40.2539C11.2599 40.4904 10.6749 41.444 10.5393 42.2567C10.4037 43.0694 10.6422 44.1614 11.7269 44.7929L30.6235 58.4227C32.4313 59.7286 34.7287 60.267 36.9232 59.9047L76.2855 53.3376C77.6414 53.1137 78.2942 52.0846 78.4524 51.1939C78.6106 50.3057 78.3545 49.1131 77.1593 48.4312L69.5866 44.1262L69.8352 43.6883L77.4079 47.9934C78.5805 48.6602 79.1856 49.9509 78.9495 51.282C78.7135 52.613 77.6991 53.6144 76.3684 53.8333L37.006 60.4004C36.529 60.4784 36.0494 60.5186 35.5698 60.5186Z" fill="white"/>
<path d="M35.5673 63.5121C33.7043 63.5121 31.8538 62.9258 30.3272 61.8288L11.4532 48.2116C10.0396 47.3889 10.0346 46.4126 10.012 43.5216C10.012 43.1794 10.007 42.8095 10.002 42.407L10.5041 42.3994C10.5091 42.802 10.5117 43.1744 10.5142 43.5166C10.5343 46.3396 10.5418 47.097 11.7269 47.7889L30.6235 61.4187C32.4338 62.722 34.7287 63.2605 36.9231 62.8982L76.2855 56.3336C78.2239 56.0116 78.5528 54.2075 78.4825 50.9919L78.9847 50.9819C79.0475 53.8251 78.8943 56.4142 76.3684 56.8318L37.006 63.3964C36.5289 63.4744 36.0494 63.5146 35.5698 63.5146L35.5673 63.5121Z" fill="white"/>
<path d="M38.0506 57.9522C36.4537 57.9522 34.8694 57.4489 33.5662 56.5079L17.2759 45.3364C16.3469 44.7954 15.8749 43.7839 16.0557 42.7045C16.2364 41.6251 17.0173 40.825 18.0869 40.6162L21.8708 40.0752L21.9411 40.5734L18.1698 41.1118C17.1529 41.3106 16.6633 42.1082 16.5503 42.7876C16.4348 43.4669 16.6357 44.3828 17.5421 44.9086L33.8525 56.0978C35.3891 57.2074 37.335 57.6628 39.1955 57.3558L70.4027 52.1399C71.5401 51.9512 72.085 51.0907 72.2181 50.3434C72.3511 49.5987 72.1352 48.5998 71.1334 48.0311L69.5842 47.1505L69.8328 46.7127L71.382 47.5933C72.3938 48.1695 72.9161 49.2842 72.7127 50.4315C72.5093 51.5814 71.633 52.4444 70.4856 52.6356L39.2784 57.8515C38.8716 57.9194 38.4599 57.9522 38.0481 57.9522H38.0506Z" fill="white"/>
<path d="M78.628 50.7426C78.6983 53.9381 78.377 55.9812 76.2202 56.3384L36.8552 62.903C34.5779 63.2804 32.2428 62.7319 30.3672 61.3807L11.4933 47.7635C10.027 46.9081 10.1952 45.9016 10.1475 42.1602V42.3262L10.15 42.3287C10.145 42.4193 10.145 42.5124 10.1525 42.608V42.6282C10.2077 43.4585 10.6371 44.2687 11.4933 44.7668L30.3698 58.384C32.2454 59.7377 34.5804 60.2862 36.8578 59.9088L76.2227 53.3418C77.6664 53.1027 78.5176 51.9604 78.6306 50.7426H78.628Z" fill="white"/>
<path d="M43.0169 34.2048C39.3159 31.6987 35.3915 29.5751 31.5423 27.3106L31.4821 27.2754L31.4545 27.2201C30.5983 25.7456 31.1456 24.4322 32.8254 24.0724C35.0123 23.6422 36.8729 25.2273 38.643 26.2438C41.4451 28.0202 44.197 29.9173 46.6099 32.207L46.5019 32.3227C45.2666 31.2232 43.9685 30.1991 42.6176 29.243C40.5939 27.8164 38.4823 26.4954 36.3255 25.2877C35.6074 24.8977 34.8592 24.563 34.0758 24.4523C32.4362 24.246 30.7916 25.1971 31.8888 26.9685C35.163 28.8857 39.6423 31.5754 43.1374 34.0287L43.0169 34.2048Z" fill="white"/>
<path d="M41.8457 35.8373C43.2166 35.5655 44.7256 35.9958 46.0237 35.3668C46.6489 35.1252 47.1561 34.6044 47.136 33.9074C47.116 32.5487 45.5944 31.585 44.3515 31.5272C43.0158 31.4265 41.8658 33.0771 43.2417 33.8948C43.759 34.1615 44.4042 33.6457 44.3666 33.1048L44.8688 33.0821C44.8838 33.7665 44.349 34.3628 43.6836 34.4308C43.0258 34.4987 42.4383 33.9779 42.2575 33.3841C41.8507 32.1386 43.2091 31.0214 44.3641 31.1372C45.8229 31.2454 47.4323 32.3348 47.4449 33.9074C47.4097 35.5882 45.3433 36.0184 43.9975 35.9731L42.9329 35.958C42.5814 35.958 42.2248 35.9631 41.9009 36.036L41.8482 35.8322L41.8457 35.8373Z" fill="white"/>
<path d="M32.9948 26.8328C32.829 26.6114 33.0023 26.2264 33.1203 26.0201C33.276 25.7534 33.5396 25.6729 33.8083 25.5572C34.0769 25.4414 34.3205 25.3131 34.6168 25.3106C34.913 25.3081 35.1767 25.4037 35.4604 25.4263C35.6211 25.4389 35.6236 25.215 35.4955 25.1646C35.1917 25.0464 34.8051 25.0061 34.4837 25.0464C34.1422 25.0892 33.8585 25.2653 33.5722 25.4439C33.4467 25.5219 33.3061 25.5924 33.1981 25.6981C33.1052 25.7912 33.045 25.9094 32.9973 26.0302C32.9496 26.151 32.9069 26.2868 32.8943 26.4227C32.8767 26.5837 32.9245 26.6919 32.9822 26.8379C32.9847 26.8479 32.9998 26.8379 32.9948 26.8328Z" fill="white"/>
<path d="M35.0441 28.0879C34.9763 27.8061 35.2802 27.4916 35.4961 27.3557C35.7421 27.1997 36.0334 27.0689 36.3121 26.9808C36.6159 26.8852 36.9273 26.8475 37.2436 26.8449C37.3968 26.8449 37.55 26.8475 37.7006 26.8575C37.8513 26.8676 37.9969 26.8953 38.1249 26.7896C38.1726 26.7493 38.1651 26.6713 38.1249 26.6285C38.0044 26.5002 37.8061 26.5279 37.6454 26.5279C37.4545 26.5279 37.2637 26.5355 37.0729 26.5606C36.7063 26.6059 36.3673 26.7141 36.0284 26.86C35.7396 26.9858 35.4157 27.1217 35.1873 27.3482C34.9588 27.5746 34.9362 27.8036 35.0316 28.0904C35.0341 28.098 35.0466 28.0954 35.0441 28.0879Z" fill="white"/>
<path d="M37.7841 29.824C37.8695 29.5598 37.9975 29.3434 38.2285 29.1824C38.4419 29.0339 38.6905 28.9534 38.9341 28.8779C39.1927 28.7999 39.4588 28.7396 39.725 28.7069C39.9911 28.6741 40.2724 28.6741 40.546 28.6641C40.7544 28.6565 40.7519 28.3546 40.546 28.3395C39.9359 28.2967 39.2806 28.4703 38.7232 28.7119C38.2988 28.8956 37.6686 29.2679 37.7264 29.8165C37.7289 29.8467 37.7716 29.8567 37.7816 29.824H37.7841Z" fill="white"/>
<path d="M40.2965 31.2312C40.3894 30.9972 40.6606 30.8211 40.864 30.6903C41.09 30.5443 41.336 30.4412 41.5921 30.3632C41.8482 30.2852 42.0893 30.2424 42.3454 30.2298C42.4709 30.2248 42.5965 30.2248 42.722 30.2323C42.8676 30.2424 42.9907 30.255 43.0986 30.1342C43.1388 30.0889 43.1463 30.031 43.1187 29.9782C43.0359 29.8172 42.8852 29.8046 42.722 29.8021C42.5588 29.7996 42.4056 29.8121 42.25 29.8323C41.9411 29.875 41.6474 29.9631 41.3636 30.0914C41.0799 30.2198 40.8414 30.3833 40.6129 30.572C40.412 30.7406 40.2011 30.9444 40.2413 31.2287C40.2463 31.2614 40.2915 31.2539 40.3016 31.2287L40.2965 31.2312Z" fill="white"/>
</g>
<defs>
<clipPath id="clip0_558_18920">
<rect width="88" height="88" fill="white"/>
</clipPath>
</defs>
</svg>
