<svg width="1024" height="142" viewBox="0 0 1024 142" fill="none" xmlns="http://www.w3.org/2000/svg">
<path d="M54.0777 142C42.8616 142 33.181 140.404 25.036 137.213C17.0245 134.022 10.8155 129.435 6.40921 123.452C2.1364 117.336 0 110.156 0 101.913C0 93.9354 2.06964 87.1545 6.20893 81.5702C10.4817 75.853 16.6239 71.4654 24.6354 68.4073C32.7805 65.3493 42.5946 63.8202 54.0777 63.8202C65.4274 63.8202 75.1747 65.3493 83.3198 68.4073C91.4648 71.4654 97.6737 75.853 101.947 81.5702C106.353 87.1545 108.556 93.9354 108.556 101.913C108.556 110.156 106.353 117.336 101.947 123.452C97.5402 129.435 91.2645 134.022 83.1195 137.213C74.9744 140.404 65.2939 142 54.0777 142ZM54.0777 129.834C66.4956 129.834 76.1762 127.308 83.1195 122.256C90.1963 117.203 93.7347 110.356 93.7347 101.713C93.7347 93.0712 90.1963 86.2903 83.1195 81.3708C76.1762 76.3184 66.4956 73.7921 54.0777 73.7921C41.6599 73.7921 31.9793 76.3184 25.036 81.3708C18.0927 86.2903 14.621 93.0712 14.621 101.713C14.621 110.356 18.0927 117.203 25.036 122.256C31.9793 127.308 41.6599 129.834 54.0777 129.834ZM54.0777 71.9972C43.6628 71.9972 34.7833 70.6011 27.4394 67.809C20.2291 65.0168 14.6878 61.0281 10.8155 55.8427C6.94331 50.5243 5.0072 44.2088 5.0072 36.8961C5.0072 29.1845 7.01008 22.603 11.0158 17.1517C15.1551 11.5674 20.8967 7.31273 28.2406 4.38764C35.5845 1.46255 44.1969 0 54.0777 0C63.9586 0 72.571 1.46255 79.9149 4.38764C87.3923 7.31273 93.2006 11.5674 97.3399 17.1517C101.479 22.603 103.549 29.1845 103.549 36.8961C103.549 44.2088 101.613 50.5243 97.7405 55.8427C93.8683 61.0281 88.1935 65.0168 80.716 67.809C73.3721 70.6011 64.4927 71.9972 54.0777 71.9972ZM54.0777 62.4242C65.0268 62.4242 73.5724 60.1639 79.7146 55.6433C85.8568 51.1227 88.9278 45.073 88.9278 37.4944C88.9278 29.5169 85.7232 23.3343 79.314 18.9466C73.0383 14.426 64.6262 12.1657 54.0777 12.1657C43.5292 12.1657 35.1171 14.426 28.8415 18.9466C22.5658 23.3343 19.4279 29.4504 19.4279 37.2949C19.4279 45.0065 22.4322 51.1227 28.4409 55.6433C34.583 60.1639 43.1287 62.4242 54.0777 62.4242Z" fill="#2EAC6A"/>
<path d="M168.381 142C157.566 142 147.952 139.208 139.54 133.624C131.128 127.906 124.518 119.796 119.711 109.292C114.904 98.6554 112.501 85.8914 112.501 71C112.501 56.1086 114.904 43.411 119.711 32.9073C124.518 22.2706 131.128 14.1601 139.54 8.57584C147.952 2.85861 157.566 0 168.381 0C179.197 0 188.81 2.85861 197.223 8.57584C205.635 14.1601 212.244 22.2706 217.051 32.9073C221.992 43.411 224.462 56.1086 224.462 71C224.462 85.8914 221.992 98.6554 217.051 109.292C212.244 119.796 205.635 127.906 197.223 133.624C188.81 139.208 179.197 142 168.381 142ZM168.381 128.837C176.66 128.837 183.87 126.643 190.012 122.256C196.154 117.735 200.961 111.22 204.433 102.711C207.905 94.0684 209.64 83.4981 209.64 71C209.64 58.5019 207.905 47.9981 204.433 39.4888C200.961 30.8464 196.154 24.3315 190.012 19.9438C183.87 15.4232 176.66 13.1629 168.381 13.1629C160.37 13.1629 153.226 15.4232 146.95 19.9438C140.675 24.3315 135.801 30.8464 132.329 39.4888C128.858 47.9981 127.122 58.5019 127.122 71C127.122 83.4981 128.858 94.0684 132.329 102.711C135.801 111.22 140.675 117.735 146.95 122.256C153.226 126.643 160.37 128.837 168.381 128.837Z" fill="#2EAC6A"/>
<path d="M284.971 142C274.155 142 264.541 139.208 256.129 133.624C247.717 127.906 241.108 119.796 236.301 109.292C231.494 98.6554 229.09 85.8914 229.09 71C229.09 56.1086 231.494 43.411 236.301 32.9073C241.108 22.2706 247.717 14.1601 256.129 8.57584C264.541 2.85861 274.155 0 284.971 0C295.786 0 305.4 2.85861 313.812 8.57584C322.224 14.1601 328.834 22.2706 333.641 32.9073C338.581 43.411 341.051 56.1086 341.051 71C341.051 85.8914 338.581 98.6554 333.641 109.292C328.834 119.796 322.224 127.906 313.812 133.624C305.4 139.208 295.786 142 284.971 142ZM284.971 128.837C293.249 128.837 300.46 126.643 306.602 122.256C312.744 117.735 317.551 111.22 321.022 102.711C324.494 94.0684 326.23 83.4981 326.23 71C326.23 58.5019 324.494 47.9981 321.022 39.4888C317.551 30.8464 312.744 24.3315 306.602 19.9438C300.46 15.4232 293.249 13.1629 284.971 13.1629C276.959 13.1629 269.815 15.4232 263.54 19.9438C257.264 24.3315 252.39 30.8464 248.919 39.4888C245.447 47.9981 243.711 58.5019 243.711 71C243.711 83.4981 245.447 94.0684 248.919 102.711C252.39 111.22 257.264 117.735 263.54 122.256C269.815 126.643 276.959 128.837 284.971 128.837Z" fill="#2EAC6A"/>
<path d="M401.56 142C390.744 142 381.131 139.208 372.719 133.624C364.306 127.906 357.697 119.796 352.89 109.292C348.083 98.6554 345.68 85.8914 345.68 71C345.68 56.1086 348.083 43.411 352.89 32.9073C357.697 22.2706 364.306 14.1601 372.719 8.57584C381.131 2.85861 390.744 0 401.56 0C412.376 0 421.989 2.85861 430.401 8.57584C438.814 14.1601 445.423 22.2706 450.23 32.9073C455.17 43.411 457.641 56.1086 457.641 71C457.641 85.8914 455.17 98.6554 450.23 109.292C445.423 119.796 438.814 127.906 430.401 133.624C421.989 139.208 412.376 142 401.56 142ZM401.56 128.837C409.839 128.837 417.049 126.643 423.191 122.256C429.333 117.735 434.14 111.22 437.612 102.711C441.084 94.0684 442.819 83.4981 442.819 71C442.819 58.5019 441.084 47.9981 437.612 39.4888C434.14 30.8464 429.333 24.3315 423.191 19.9438C417.049 15.4232 409.839 13.1629 401.56 13.1629C393.549 13.1629 386.405 15.4232 380.129 19.9438C373.854 24.3315 368.98 30.8464 365.508 39.4888C362.037 47.9981 360.301 58.5019 360.301 71C360.301 83.4981 362.037 94.0684 365.508 102.711C368.98 111.22 373.854 117.735 380.129 122.256C386.405 126.643 393.549 128.837 401.56 128.837Z" fill="#2EAC6A"/>
<path d="M518.149 142C507.334 142 497.72 139.208 489.308 133.624C480.896 127.906 474.286 119.796 469.48 109.292C464.673 98.6554 462.269 85.8914 462.269 71C462.269 56.1086 464.673 43.411 469.48 32.9073C474.286 22.2706 480.896 14.1601 489.308 8.57584C497.72 2.85861 507.334 0 518.149 0C528.965 0 538.579 2.85861 546.991 8.57584C555.403 14.1601 562.013 22.2706 566.819 32.9073C571.76 43.411 574.23 56.1086 574.23 71C574.23 85.8914 571.76 98.6554 566.819 109.292C562.013 119.796 555.403 127.906 546.991 133.624C538.579 139.208 528.965 142 518.149 142ZM518.149 128.837C526.428 128.837 533.638 126.643 539.781 122.256C545.923 117.735 550.73 111.22 554.201 102.711C557.673 94.0684 559.409 83.4981 559.409 71C559.409 58.5019 557.673 47.9981 554.201 39.4888C550.73 30.8464 545.923 24.3315 539.781 19.9438C533.638 15.4232 526.428 13.1629 518.149 13.1629C510.138 13.1629 502.994 15.4232 496.719 19.9438C490.443 24.3315 485.569 30.8464 482.098 39.4888C478.626 47.9981 476.89 58.5019 476.89 71C476.89 83.4981 478.626 94.0684 482.098 102.711C485.569 111.22 490.443 117.735 496.719 122.256C502.994 126.643 510.138 128.837 518.149 128.837Z" fill="#2EAC6A"/>
<path d="M645.098 140.803V44.6742L648.703 48.4635H605.24V36.0983H699.175V48.4635H655.713L659.318 44.6742V140.803H645.098Z" fill="#2EAC6A"/>
<path d="M742.085 141.801C731.938 141.801 722.791 139.54 714.646 135.02C706.634 130.366 700.292 124.051 695.619 116.073C690.945 107.963 688.609 98.7219 688.609 88.3511C688.609 77.8474 690.945 68.6067 695.619 60.6292C700.292 52.6517 706.634 46.4026 714.646 41.882C722.658 37.3614 731.804 35.1011 742.085 35.1011C752.5 35.1011 761.714 37.3614 769.725 41.882C777.87 46.4026 784.213 52.6517 788.753 60.6292C793.426 68.6067 795.763 77.8474 795.763 88.3511C795.763 98.7219 793.426 107.963 788.753 116.073C784.213 124.051 777.87 130.366 769.725 135.02C761.58 139.54 752.367 141.801 742.085 141.801ZM742.085 129.236C749.696 129.236 756.439 127.574 762.315 124.25C768.19 120.793 772.796 116.007 776.134 109.89C779.606 103.641 781.342 96.4616 781.342 88.3511C781.342 80.1077 779.606 72.9279 776.134 66.8118C772.796 60.6957 768.19 55.9757 762.315 52.6517C756.439 49.1948 749.763 47.4663 742.286 47.4663C734.808 47.4663 728.132 49.1948 722.257 52.6517C716.382 55.9757 711.708 60.6957 708.237 66.8118C704.765 72.9279 703.029 80.1077 703.029 88.3511C703.029 96.4616 704.765 103.641 708.237 109.89C711.708 116.007 716.382 120.793 722.257 124.25C728.132 127.574 734.742 129.236 742.085 129.236Z" fill="#2EAC6A"/>
<path d="M810.132 140.803V36.0983H824.352V82.368H890.647V36.0983H904.868V140.803H890.647V94.5337H824.352V140.803H810.132Z" fill="#2EAC6A"/>
<path d="M929.264 140.803V36.0983H943.484V82.368H1009.78V36.0983H1024V140.803H1009.78V94.5337H943.484V140.803H929.264Z" fill="#2EAC6A"/>
</svg>
