<svg width="88" height="88" viewBox="0 0 88 88" fill="none" xmlns="http://www.w3.org/2000/svg">
<g clip-path="url(#clip0_558_19043)">
<rect width="88" height="88" fill="#2EAC6A"/>
<path d="M44.114 23.4308C43.9465 23.4308 43.7817 23.4177 43.6273 23.3914C42.1277 23.1527 41.0391 21.8724 41.0391 20.3454C41.0391 18.8185 42.0754 17.6116 43.5043 17.323C43.7084 17.2837 43.9125 17.2627 44.1166 17.2627C45.8124 17.2627 47.1916 18.6453 47.1916 20.3454C47.1916 22.0455 45.8124 23.4282 44.1166 23.4282L44.114 23.4308Z" fill="#2EAC6A"/>
<path d="M44.114 17.5247C45.6685 17.5247 46.9273 18.7867 46.9273 20.3451C46.9273 21.9035 45.6685 23.1655 44.114 23.1655C43.9622 23.1655 43.8131 23.155 43.6691 23.1287C42.3266 22.9162 41.3007 21.7487 41.3007 20.3425C41.3007 18.9362 42.269 17.8369 43.554 17.5772C43.7345 17.5405 43.923 17.5221 44.114 17.5221M44.114 17C43.8942 17 43.6717 17.021 43.4545 17.0656C41.9026 17.3804 40.7773 18.7604 40.7773 20.3477C40.7773 21.935 41.9602 23.3937 43.588 23.6508C43.7555 23.6797 43.9334 23.6928 44.114 23.6928C45.9537 23.6928 47.4507 22.1921 47.4507 20.3477C47.4507 18.5033 45.9537 17 44.114 17Z" fill="white"/>
<path d="M49.2581 29.4909H38.9707C39.0911 26.6574 41.1611 24.3775 43.7598 24.186C43.8776 24.1781 43.9953 24.1729 44.1131 24.1729C46.8766 24.1729 49.1299 26.5315 49.2581 29.4909Z" fill="white"/>
<path d="M52.8371 32.0409C52.578 32.0409 52.3267 32.0199 52.086 31.9805C49.7726 31.6132 48.0898 29.6377 48.0898 27.2817C48.0898 24.9257 49.6888 23.0603 51.8923 22.6143C52.2064 22.5513 52.523 22.5225 52.8371 22.5225C55.454 22.5225 57.5843 24.6581 57.5843 27.2817C57.5843 29.9053 55.454 32.0409 52.8371 32.0409Z" fill="#2EAC6A"/>
<path d="M52.8377 22.7825C55.316 22.7825 57.3232 24.7948 57.3232 27.2794C57.3232 29.7639 55.316 31.7762 52.8377 31.7762C52.5969 31.7762 52.3588 31.7579 52.1285 31.7185C49.9878 31.3774 48.3522 29.5199 48.3522 27.2768C48.3522 25.0336 49.8936 23.281 51.9453 22.8665C52.2332 22.8088 52.5341 22.7799 52.8377 22.7799M52.8377 22.2578C52.508 22.2578 52.173 22.2919 51.8432 22.3549C49.5141 22.8271 47.8262 24.8972 47.8262 27.2794C47.8262 29.6616 49.6005 31.8497 52.0448 32.238C52.296 32.28 52.5629 32.301 52.8351 32.301C55.596 32.301 57.844 30.0473 57.844 27.2794C57.844 24.5115 55.5986 22.2578 52.8351 22.2578H52.8377Z" fill="white"/>
<path d="M61.5569 41.8331C61.3423 36.7984 57.5084 32.8525 52.8345 32.8525C52.633 32.8525 52.4315 32.8604 52.2326 32.8762C47.8099 33.2015 44.3214 37.0529 44.1173 41.8331L44.0938 42.3815H61.5831L61.5595 41.8331H61.5569Z" fill="white"/>
<path d="M35.3527 32.0409C35.0936 32.0409 34.8424 32.0199 34.6016 31.9805C32.2882 31.6132 30.6055 29.6377 30.6055 27.2817C30.6055 24.9257 32.2044 23.0603 34.408 22.6143C34.722 22.5513 35.0386 22.5225 35.3527 22.5225C37.9697 22.5225 40.0999 24.6581 40.0999 27.2817C40.0999 29.9053 37.9697 32.0409 35.3527 32.0409Z" fill="#2EAC6A"/>
<path d="M35.3533 22.7825C37.8316 22.7825 39.8388 24.7948 39.8388 27.2794C39.8388 29.7639 37.8316 31.7762 35.3533 31.7762C35.1126 31.7762 34.8744 31.7579 34.6441 31.7185C32.5034 31.3774 30.8678 29.5199 30.8678 27.2768C30.8678 25.0336 32.4092 23.281 34.4609 22.8665C34.7488 22.8088 35.0498 22.7799 35.3533 22.7799M35.3533 22.2578C35.0236 22.2578 34.6886 22.2919 34.3589 22.3549C32.0298 22.8271 30.3418 24.8972 30.3418 27.2794C30.3418 29.6616 32.1161 31.8497 34.5604 32.238C34.8116 32.28 35.0785 32.301 35.3507 32.301C38.1116 32.301 40.3596 30.0473 40.3596 27.2794C40.3596 24.5115 38.1143 22.2578 35.3507 22.2578H35.3533Z" fill="white"/>
<path d="M44.0725 41.8331C43.8579 36.7984 40.0241 32.8525 35.3501 32.8525C35.1486 32.8525 34.9471 32.8604 34.7482 32.8762C30.3255 33.2015 26.8371 37.0529 26.6329 41.8331L26.6094 42.3815H44.0987L44.0752 41.8331H44.0725Z" fill="white"/>
<path d="M25.8102 49.307C30.6188 49.307 34.517 45.3991 34.517 40.5783C34.517 35.7576 30.6188 31.8496 25.8102 31.8496C21.0016 31.8496 17.1035 35.7576 17.1035 40.5783C17.1035 45.3991 21.0016 49.307 25.8102 49.307Z" fill="#2EAC6A"/>
<path d="M44.0966 52.6732C49.703 52.6732 54.2479 48.1169 54.2479 42.4963C54.2479 36.8757 49.703 32.3193 44.0966 32.3193C38.4902 32.3193 33.9453 36.8757 33.9453 42.4963C33.9453 48.1169 38.4902 52.6732 44.0966 52.6732Z" fill="#2EAC6A"/>
<path d="M62.2343 49.3546C67.0689 49.3546 70.9881 45.4255 70.9881 40.5787C70.9881 35.7319 67.0689 31.8027 62.2343 31.8027C57.3997 31.8027 53.4805 35.7319 53.4805 40.5787C53.4805 45.4255 57.3997 49.3546 62.2343 49.3546Z" fill="#2EAC6A"/>
<path d="M62.234 47.5707C61.8546 47.5707 61.483 47.5418 61.1297 47.4815C57.7302 46.941 55.2598 44.0393 55.2598 40.5788C55.2598 37.1183 57.6098 34.3792 60.8444 33.7233C61.305 33.6315 61.7734 33.5869 62.2314 33.5869C66.0758 33.5869 69.2031 36.7221 69.2031 40.5788C69.2031 44.4355 66.0758 47.5707 62.2314 47.5707H62.234Z" fill="#2EAC6A"/>
<path d="M62.234 33.8489C65.9397 33.8489 68.944 36.8608 68.944 40.5785C68.944 44.2961 65.9397 47.308 62.234 47.308C61.8729 47.308 61.517 47.2818 61.1741 47.2241C57.9709 46.7151 55.5241 43.9341 55.5241 40.5811C55.5241 37.2281 57.8322 34.6045 60.8994 33.9827C61.3312 33.8988 61.7787 33.8516 62.234 33.8516M62.234 33.3242C61.7577 33.3242 61.2736 33.3714 60.7973 33.4659C57.4371 34.1454 54.998 37.1363 54.998 40.5785C54.998 44.0206 57.5601 47.1795 61.0904 47.7409C61.4542 47.8012 61.8389 47.8327 62.234 47.8327C66.2223 47.8327 69.4674 44.5795 69.4674 40.5785C69.4674 36.5775 66.2223 33.3242 62.234 33.3242Z" fill="white"/>
<path d="M62.3183 44.4903C61.1642 44.4903 60.2404 43.3622 60.2012 43.3149L60.6068 42.9844C60.6068 42.9844 61.4155 43.9656 62.3183 43.9656C63.2212 43.9656 63.8388 43.0159 63.844 43.0054L64.2811 43.294C64.2497 43.3438 63.4881 44.4903 62.3183 44.4903Z" fill="white"/>
<path d="M49.6921 62.6476L49.7025 62.3748C49.9983 55.4852 55.0124 49.9389 61.3665 49.4719C61.6491 49.4509 61.9396 49.4404 62.2274 49.4404C68.9452 49.4404 74.4488 55.1231 74.7576 62.3748L74.768 62.6476H49.6895H49.6921Z" fill="#2EAC6A"/>
<path d="M62.2301 49.7005C68.8197 49.7005 74.1976 55.3229 74.5011 62.3856H49.9669C50.2574 55.6272 55.1878 50.1885 61.3874 49.732C61.6674 49.711 61.9474 49.7005 62.2301 49.7005ZM62.2301 49.1758C61.9344 49.1758 61.6386 49.1863 61.3482 49.2099C54.8633 49.6874 49.7444 55.3412 49.4435 62.362L49.4199 62.9103H75.0455L75.0219 62.362C74.7053 54.9687 69.0866 49.1758 62.2301 49.1758Z" fill="white"/>
<path d="M61.3847 49.7321C59.7648 51.0151 58.3464 52.2481 57.3833 54.2998C56.8259 55.4857 56.5695 56.7922 56.4229 58.0909C56.2607 59.5155 56.2266 60.9533 56.3182 62.3831H49.9668C50.2573 55.6247 55.1877 50.186 61.3873 49.7295L61.3847 49.7321Z" fill="white"/>
<path d="M55.5215 40.5778C55.5215 37.3193 57.8297 34.6013 60.8968 33.9795C60.3498 34.3809 59.8264 34.819 59.3972 35.4513C57.9893 37.5292 57.7067 40.2735 58.4211 42.682C58.9314 44.3952 59.9102 45.9431 61.1716 47.2208C57.9684 46.7118 55.5215 43.9308 55.5215 40.5778Z" fill="white"/>
<path d="M25.8102 47.5707C25.4307 47.5707 25.0591 47.5418 24.7058 47.4815C21.3064 46.941 18.8359 44.0393 18.8359 40.5788C18.8359 37.1183 21.186 34.3792 24.4206 33.7233C24.8812 33.6315 25.3496 33.5869 25.8076 33.5869C29.6519 33.5869 32.7792 36.7221 32.7792 40.5788C32.7792 44.4355 29.6519 47.5707 25.8076 47.5707H25.8102Z" fill="#2EAC6A"/>
<path d="M25.8141 33.8489C29.5198 33.8489 32.5241 36.8608 32.5241 40.5785C32.5241 44.2961 29.5198 47.308 25.8141 47.308C25.453 47.308 25.097 47.2818 24.7542 47.2241C21.551 46.7151 19.1041 43.9341 19.1041 40.5811C19.1041 37.2281 21.4123 34.6045 24.4794 33.9827C24.9112 33.8988 25.3587 33.8516 25.8141 33.8516M25.8141 33.3242C25.3378 33.3242 24.8537 33.3714 24.3774 33.4659C21.0172 34.1454 18.5781 37.1363 18.5781 40.5785C18.5781 44.0206 21.1402 47.1795 24.6705 47.7409C25.0342 47.8012 25.4189 47.8327 25.8141 47.8327C29.8024 47.8327 33.0474 44.5795 33.0474 40.5785C33.0474 36.5775 29.8024 33.3242 25.8141 33.3242Z" fill="white"/>
<path d="M25.8964 44.4903C24.7423 44.4903 23.8186 43.3622 23.7793 43.3149L24.1849 42.9844C24.1849 42.9844 24.9936 43.9656 25.8964 43.9656C26.7993 43.9656 27.4169 43.0159 27.4221 43.0054L27.8592 43.294C27.8278 43.3438 27.0662 44.4903 25.8964 44.4903Z" fill="white"/>
<path d="M13.2734 62.6476L13.2839 62.3748C13.5796 55.4852 18.5938 49.9389 24.9452 49.4719C25.2278 49.4509 25.5183 49.4404 25.8088 49.4404C32.5266 49.4404 38.0301 55.1231 38.3389 62.3748L38.3494 62.6476H13.2734Z" fill="#2EAC6A"/>
<path d="M25.8102 49.7005C32.3997 49.7005 37.7776 55.3229 38.0812 62.3856H13.547C13.8374 55.6272 18.7678 50.1885 24.9675 49.732C25.2475 49.711 25.5275 49.7005 25.8102 49.7005ZM25.8102 49.1758C25.5144 49.1758 25.2187 49.1863 24.9282 49.2099C18.4433 49.6848 13.3245 55.3412 13.0236 62.362L13 62.9103H38.6255L38.602 62.362C38.2853 54.9687 32.6667 49.1758 25.8102 49.1758Z" fill="white"/>
<path d="M24.9674 49.7321C23.3475 51.0151 21.9291 52.2481 20.966 54.2998C20.4086 55.4857 20.1522 56.7922 20.0056 58.0909C19.8433 59.5155 19.8093 60.9533 19.9009 62.3831H13.5469C13.8374 55.6247 18.7678 50.186 24.9674 49.7295V49.7321Z" fill="white"/>
<path d="M19.1016 40.5788C19.1016 37.3203 21.4097 34.6023 24.4769 33.9805C23.9299 34.3819 23.4065 34.82 22.9773 35.4523C21.5694 37.5302 21.2867 40.2745 22.0012 42.683C22.5115 44.3962 23.4903 45.9441 24.7516 47.2218C21.5484 46.7128 19.1016 43.9318 19.1016 40.5788Z" fill="white"/>
<path d="M44.1162 51.1742C43.6504 51.1742 43.1924 51.1375 42.7606 51.0666C38.5787 50.4029 35.543 46.8348 35.543 42.5793C35.543 38.3238 38.4321 34.9577 42.4099 34.1523C42.9778 34.0421 43.551 33.9844 44.1162 33.9844C48.8425 33.9844 52.6869 37.8411 52.6869 42.5793C52.6869 47.3175 48.8425 51.1742 44.1162 51.1742Z" fill="#2EAC6A"/>
<path d="M44.1162 34.2471C48.7064 34.2471 52.4251 37.9778 52.4251 42.5796C52.4251 47.1814 48.7064 50.9122 44.1162 50.9122C43.6687 50.9122 43.229 50.8781 42.8025 50.8072C38.8351 50.1776 35.8046 46.7328 35.8046 42.5796C35.8046 38.4265 38.6624 35.1784 42.4623 34.4097C42.9961 34.3048 43.5509 34.2471 44.1162 34.2471ZM44.1162 33.7224C43.5352 33.7224 42.9438 33.7801 42.3628 33.8955C38.2594 34.7246 35.2812 38.3792 35.2812 42.5796C35.2812 44.6995 36.0402 46.7512 37.4193 48.3568C38.7828 49.9441 40.667 50.9988 42.7213 51.3241C43.1662 51.3976 43.6347 51.4343 44.1162 51.4343C48.9864 51.4343 52.9485 47.4621 52.9485 42.577C52.9485 37.6919 48.9864 33.7197 44.1162 33.7197V33.7224Z" fill="white"/>
<path d="M44.217 47.3597C42.8196 47.3597 41.6916 45.9876 41.6445 45.9273L42.0502 45.5967C42.0502 45.5967 43.0708 46.835 44.217 46.835C45.3633 46.835 46.151 45.6308 46.1588 45.6203L46.5959 45.9063C46.5566 45.9666 45.6328 47.3597 44.217 47.3597Z" fill="white"/>
<path d="M28.6504 69.8468L28.6609 69.5739C29.0246 61.0735 35.2086 54.2311 43.0464 53.6565C43.3945 53.6303 43.753 53.6172 44.1089 53.6172C52.3917 53.6172 59.1802 60.6274 59.5649 69.5765L59.5753 69.8494H28.6504V69.8468Z" fill="#2EAC6A"/>
<path d="M44.1103 53.8773C52.27 53.8773 58.9303 60.8403 59.3045 69.5848H28.9239C29.2824 61.2155 35.3905 54.4807 43.0661 53.9166C43.4115 53.8904 43.7596 53.8773 44.1103 53.8773ZM44.1103 53.3525C43.7491 53.3525 43.3828 53.3657 43.0268 53.3945C35.0581 53.9796 28.7721 60.9321 28.4005 69.5638L28.377 70.1121H59.8515L59.8279 69.5638C59.438 60.473 52.5344 53.3552 44.1103 53.3552V53.3525Z" fill="white"/>
<path d="M43.066 53.917C41.0588 55.5069 39.3028 57.0338 38.1095 59.5735C37.4212 61.0401 37.1019 62.6588 36.9187 64.2697C36.7172 66.0328 36.6753 67.8142 36.7905 69.5851H28.9238C29.2824 61.2158 35.3904 54.4811 43.066 53.917Z" fill="white"/>
<path d="M35.8047 42.58C35.8047 38.545 38.6624 35.1789 42.4623 34.4102C41.7845 34.9086 41.1381 35.4491 40.6069 36.2336C38.8639 38.8073 38.5133 42.2049 39.3978 45.1879C40.0285 47.3104 41.2402 49.2256 42.8025 50.8077C38.8352 50.178 35.8047 46.7332 35.8047 42.58Z" fill="white"/>
<path d="M37.2988 61.0924C37.4114 60.6726 37.5291 60.2686 37.6521 59.8672L44.2338 60.4627L37.2988 61.0898V61.0924Z" fill="white"/>
<path d="M36.4922 62.9311C36.5838 62.5376 36.6754 62.1493 36.7722 61.7715L42.629 62.3356L36.4922 62.9311Z" fill="white"/>
<path d="M36.043 64.5055C36.111 64.1696 36.1817 63.8338 36.2523 63.5059L40.8137 63.9965L36.043 64.5081V64.5055Z" fill="white"/>
<path d="M35.8086 65.9252C35.8583 65.6261 35.9133 65.3349 35.9682 65.041L39.7001 65.4713L35.8086 65.9225V65.9252Z" fill="white"/>
<path d="M35.8496 67.1789C35.8862 66.9349 35.9255 66.6883 35.9674 66.4443L38.7492 66.8011L35.8522 67.1789H35.8496Z" fill="white"/>
<path d="M35.3457 68.4516C35.3745 68.2391 35.4033 68.0266 35.4347 67.8193L37.6434 68.1289L35.3457 68.4542V68.4516Z" fill="white"/>
<path d="M37.9531 59.3032C38.0918 58.8886 38.2331 58.4846 38.3771 58.1016L45.0635 58.6814L37.9531 59.3032Z" fill="white"/>
<path d="M38.4316 57.5766C38.6096 57.1673 38.7902 56.7843 38.9786 56.417L45.5498 56.9758L38.4316 57.5766Z" fill="white"/>
<path d="M39.6992 56.0103C39.8746 55.7978 40.0551 55.6115 40.2383 55.4463C40.411 55.2862 40.589 55.1419 40.7643 55.0107L46.3725 55.4672L39.7018 56.0103H39.6992Z" fill="white"/>
</g>
<defs>
<clipPath id="clip0_558_19043">
<rect width="88" height="88" fill="white"/>
</clipPath>
</defs>
</svg>
