<svg width="202" height="118" viewBox="0 0 202 118" fill="none" xmlns="http://www.w3.org/2000/svg">
<g clip-path="url(#clip0_558_19377)">
<path d="M187.69 55.0158C188.591 53.9407 189.471 52.8762 190.366 51.8241C191.083 50.9828 191.777 50.1158 192.555 49.333C193.594 48.2862 196.078 48.2986 197.11 49.1381C197.757 49.6633 197.99 50.3532 197.992 51.1263C198.003 56.4407 198 61.7543 197.99 67.0687C197.987 68.6761 196.953 69.6892 195.332 69.6724C194.737 69.6662 194.127 69.6405 193.552 69.5023C192.337 69.211 191.829 68.2891 191.822 67.0802C191.807 64.3889 191.813 61.6967 191.81 59.0054C191.809 58.8389 191.81 58.6724 191.81 58.5059C191.766 58.4856 191.722 58.4652 191.678 58.4448C190.35 59.9972 189.02 61.5506 187.649 63.1518C186.312 61.5949 184.985 60.0504 183.555 58.3846C183.541 58.6831 183.528 58.838 183.527 58.9939C183.523 61.6161 183.543 64.2392 183.503 66.8606C183.494 67.4079 183.342 67.9844 183.121 68.4892C182.779 69.273 182.006 69.5749 181.237 69.6493C180.395 69.7308 179.53 69.7893 178.701 69.3952C177.939 69.0321 177.345 68.2926 177.345 67.4477C177.337 61.9438 177.33 56.4399 177.342 50.9359C177.346 49.3498 178.447 48.7051 179.729 48.5519C181.524 48.3375 182.8 49.1443 183.863 50.5232C184.976 51.9658 186.18 53.3367 187.349 54.7351C187.433 54.836 187.554 54.906 187.69 55.0158Z" fill="#264796"/>
<path d="M165.076 70.0925C162.323 70.1252 159.963 69.5894 157.896 68.1114C155.925 66.7006 154.567 64.8347 153.921 62.4728C153.365 60.436 153.325 58.3699 153.771 56.334C154.391 53.5134 155.963 51.2985 158.437 49.7717C160.798 48.3149 163.389 47.9757 166.109 48.2069C168.219 48.3867 170.125 49.0597 171.805 50.3403C173.675 51.767 174.929 53.5966 175.514 55.9035C176.021 57.8988 176.079 59.8975 175.634 61.8821C174.869 65.2917 172.822 67.6889 169.631 69.1192C168.09 69.8099 166.81 70.0278 165.076 70.0925ZM169.894 59.0394C170.033 56.6395 168.391 54.1793 165.961 53.7551C164.546 53.508 163.188 53.5921 161.94 54.3759C160.364 55.366 159.646 56.86 159.516 58.6639C159.436 59.7735 159.579 60.8628 160.099 61.8653C160.842 63.2991 161.991 64.229 163.6 64.5017C165.203 64.7745 166.723 64.5717 168.013 63.4895C169.366 62.3533 169.929 60.8593 169.894 59.0394Z" fill="#264796"/>
<path d="M10.1781 55.7C11.9201 55.7 13.5903 55.7159 15.2614 55.6965C18.864 55.6557 21.3091 57.7554 22.1416 61.0047C22.8881 63.9165 22.2177 66.544 19.8178 68.5614C18.7533 69.455 17.4984 69.7543 16.1355 69.7481C13.0988 69.7348 10.063 69.7454 7.02626 69.7392C6.30273 69.7375 5.58717 69.6764 4.96105 69.2451C4.1401 68.6792 4.00195 67.8361 4.00195 66.9302C4.00195 62.0647 3.9993 57.1993 4.00018 52.3348C4.00018 51.8521 4.0356 51.3686 4.02763 50.8868C4.01435 50.011 4.72814 49.1404 5.53403 48.8827C6.06804 48.7118 6.64368 48.5923 7.2016 48.5887C10.9273 48.5639 14.6548 48.548 18.3805 48.5869C20.5333 48.61 21.0957 50.0632 20.7344 51.9655C20.5431 52.9688 19.7204 53.5613 18.5842 53.5471C15.9796 53.5144 13.3733 53.5471 10.7688 53.5143C10.2622 53.5081 10.1462 53.6817 10.1719 54.1316C10.2002 54.6276 10.1781 55.1261 10.1781 55.7ZM12.7189 64.741V64.7454C12.9597 64.7454 13.2015 64.7561 13.4424 64.7437C14.0915 64.7082 14.7717 64.7693 15.3836 64.5975C16.4012 64.3115 16.8192 63.6012 16.8493 62.4402C16.8758 61.4174 16.5615 60.5566 15.5528 60.1404C15.1675 59.9809 14.7168 59.9305 14.2943 59.9207C13.089 59.8924 11.882 59.9189 10.6767 59.9048C10.3348 59.9003 10.1746 59.9863 10.1781 60.3635C10.1923 61.6901 10.1896 63.0167 10.171 64.3434C10.1666 64.6772 10.303 64.7507 10.5996 64.7454C11.3054 64.7321 12.0121 64.741 12.7189 64.741Z" fill="#264796"/>
<path d="M140.981 61.6226C140.981 63.4451 140.989 65.2207 140.978 66.9963C140.973 67.696 140.857 68.3991 140.301 68.8747C139.937 69.1855 139.479 69.4804 139.022 69.569C137.867 69.7948 136.695 69.8453 135.663 69.0881C135.078 68.6604 134.799 68.0431 134.797 67.3559C134.78 61.8838 134.78 56.4118 134.791 50.9406C134.793 49.6698 135.711 48.6841 137.059 48.5779C137.768 48.523 138.505 48.5885 139.203 48.7302C140.493 48.9905 140.954 50.0612 140.971 51.1239C140.996 52.7118 140.982 54.2997 140.984 55.8875C140.985 56.093 140.984 56.2976 140.984 56.534C141.161 56.5553 141.293 56.5836 141.426 56.5845C142.755 56.588 144.085 56.5765 145.413 56.5951C145.816 56.6013 145.954 56.4711 145.949 56.0593C145.929 54.4715 145.955 52.8836 145.939 51.2957C145.923 49.7176 146.604 48.8993 148.019 48.6151C148.984 48.4202 149.987 48.453 150.9 48.9046C151.555 49.2279 151.92 49.8115 152.046 50.5244C152.109 50.8786 152.137 51.2435 152.138 51.6039C152.145 56.627 152.147 61.65 152.143 66.6731C152.143 67.6411 152.007 68.5807 151.124 69.1785C150.821 69.3839 150.449 69.5451 150.09 69.5982C148.977 69.7603 147.863 69.8214 146.864 69.1368C146.283 68.7392 145.991 68.16 145.976 67.4896C145.936 65.7131 145.947 63.9348 145.938 62.1575C145.938 61.9883 145.938 61.82 145.938 61.6226C144.28 61.6226 142.667 61.6226 140.981 61.6226Z" fill="#264796"/>
<path d="M29.9645 54.8897C30.7031 54.8897 31.3726 54.8711 32.0403 54.8941C33.3138 54.9384 34.5979 54.9154 35.8546 55.0881C37.6532 55.336 38.9914 56.389 39.8894 57.9352C40.9654 59.7869 41.3559 61.8353 41.1265 63.9422C40.8644 66.3598 39.1455 68.9245 36.4967 69.5125C36.0663 69.6082 35.6181 69.6702 35.178 69.6719C32.2617 69.6861 29.3446 69.7224 26.4292 69.6631C24.6536 69.6268 23.7875 68.688 23.7751 67.0346C23.7352 61.7716 23.7521 56.5086 23.7636 51.2455C23.7671 49.5859 24.8343 48.5683 26.4912 48.5462C27.3768 48.5347 28.2464 48.548 29.0107 49.0811C29.6501 49.5265 29.9503 50.1615 29.9601 50.9231C29.976 52.2152 29.9645 53.5073 29.9645 54.8897ZM29.9928 64.7055C31.145 64.7055 32.2458 64.7073 33.3466 64.702C33.4644 64.702 33.5839 64.6701 33.6991 64.6391C35.6668 64.1087 35.9139 61.9133 35.3418 60.4184C35.0655 59.6966 34.4571 59.2104 33.7239 59.1529C32.4964 59.0563 31.2557 59.1272 29.9928 59.1272C29.9928 60.9799 29.9928 62.813 29.9928 64.7055Z" fill="#264796"/>
<path d="M89.738 59.0621C89.738 56.4576 89.7327 53.8531 89.7407 51.2486C89.746 49.349 90.8379 48.629 92.354 48.5821C95.404 48.4882 98.4621 48.4696 101.511 48.5847C103.552 48.6617 105.049 49.8387 106.103 51.5638C107.028 53.0782 107.267 54.721 107.048 56.4674C106.861 57.9498 106.478 59.3685 105.652 60.6128C104.319 62.6186 102.352 63.4051 99.9994 63.3785C98.8269 63.3652 97.6534 63.3909 96.4818 63.3634C96.0169 63.3528 95.9071 63.5202 95.9106 63.9647C95.9186 65.186 95.8964 66.4099 95.8362 67.6302C95.8025 68.3174 95.4422 68.8594 94.8303 69.1933C93.5453 69.8964 92.2141 69.8672 90.9238 69.2686C90.086 68.8807 89.7478 68.0916 89.7443 67.1865C89.7346 64.4784 89.7407 61.7703 89.7407 59.0621H89.738ZM95.9212 52.6681C95.9212 54.5642 95.9257 56.2849 95.9169 58.0065C95.9151 58.3041 96.04 58.3988 96.3181 58.3944C97.3002 58.3802 98.2858 58.4209 99.2635 58.3545C100.115 58.2969 100.851 57.949 101.24 57.113C101.683 56.1601 101.669 55.1956 101.291 54.225C101.044 53.5936 100.59 53.0357 99.9765 52.9462C98.6613 52.7549 97.3187 52.7523 95.9212 52.6681Z" fill="#264796"/>
<path d="M62.5864 70.17C59.8977 70.046 57.6456 69.7423 55.5415 68.7522C53.5391 67.8099 52.0735 66.3239 51.0665 64.3481C50.1916 62.6327 49.8551 60.7987 49.9029 58.9168C49.9905 55.4019 51.2074 52.3918 54.1652 50.2708C55.4644 49.3391 56.9301 48.7865 58.4834 48.4402C60.3945 48.0143 62.3331 48.0373 64.2424 48.2844C65.9242 48.5022 67.5483 49.023 68.7271 50.4036C70.0395 51.9392 69.6251 54.1213 67.8441 54.8511C67.5156 54.9857 67.087 55.0414 66.7478 54.9573C65.5194 54.6553 64.3142 54.2648 63.0929 53.9336C61.2057 53.4217 59.3849 53.4934 57.7599 54.7147C56.8034 55.4329 56.4226 56.4938 56.2039 57.6265C55.9577 58.9035 56.0338 60.1725 56.3916 61.4097C56.8388 62.9551 57.9379 64.0816 59.6364 64.3924C60.2094 64.4978 60.8081 64.6501 61.3696 64.5792C62.3295 64.4579 63.2745 64.194 64.2185 63.9585C65.1289 63.7309 66.0225 63.4324 66.9364 63.2243C67.6307 63.0658 68.6607 63.7211 69.1088 64.5244C69.858 65.8678 69.6561 66.9216 68.3967 68.1402C67.4598 69.0453 66.2997 69.5412 65.0536 69.8078C64.1176 70.0088 63.1558 70.0894 62.5864 70.17Z" fill="#264796"/>
<path d="M82.6575 53.5415C82.6575 53.8009 82.6575 54.0055 82.6566 54.2092C82.6549 58.4361 82.6513 62.6639 82.6496 66.8909C82.6496 67.8145 82.5264 68.7099 81.6258 69.2031C81.191 69.4422 80.6773 69.6211 80.1867 69.6574C79.4092 69.7141 78.6174 69.7725 77.8558 69.405C77.1102 69.0455 76.6576 68.5035 76.5753 67.6976C76.5044 67.0131 76.492 66.3205 76.4911 65.6324C76.4832 61.8023 76.4787 57.9721 76.4982 54.1419C76.5009 53.6504 76.3787 53.4839 75.8712 53.5043C74.9413 53.5415 74.0053 53.5468 73.0772 53.4892C72.2881 53.4405 71.546 53.1987 71.1448 52.4212C70.6435 51.4515 70.6639 50.0212 71.4016 49.2224C71.7266 48.87 72.3209 48.5848 72.7955 48.5795C77.3156 48.5317 81.8357 48.5441 86.3567 48.5547C87.4468 48.5582 88.3112 49.4421 88.3554 50.6412C88.3758 51.1769 88.2988 51.7508 88.1146 52.2529C87.7745 53.181 86.9349 53.4538 86.0414 53.4972C85.077 53.5441 84.1099 53.5131 83.1437 53.5176C83.0091 53.5184 82.8736 53.53 82.6575 53.5415Z" fill="#264796"/>
<path d="M42.3842 59.115C42.3842 56.4946 42.4072 53.8733 42.3754 51.2519C42.3576 49.7907 43.0174 48.929 44.3352 48.6474C45.3554 48.4304 46.395 48.4348 47.3532 48.9184C48.2299 49.3612 48.5053 50.2052 48.562 51.1058C48.6178 51.9816 48.5896 52.8637 48.5896 53.7431C48.5896 58.1223 48.5966 62.5024 48.578 66.8826C48.5735 67.7974 48.3654 68.691 47.502 69.1957C47.076 69.4446 46.5579 69.619 46.0682 69.6571C45.2897 69.7182 44.5017 69.7528 43.7401 69.3932C43.0192 69.0523 42.3983 68.2942 42.3956 67.4954C42.3877 64.7022 42.3931 61.9091 42.3931 59.115C42.3904 59.115 42.3878 59.115 42.3842 59.115Z" fill="#264796"/>
<path d="M114.755 57.4971C117.377 57.4971 119.503 55.3711 119.503 52.7485C119.503 50.126 117.377 48 114.755 48C112.132 48 110.006 50.126 110.006 52.7485C110.006 55.3711 112.132 57.4971 114.755 57.4971Z" fill="#E31E24"/>
<path d="M126.783 57.5821C129.406 57.5821 131.532 55.4561 131.532 52.8335C131.532 50.211 129.406 48.085 126.783 48.085C124.161 48.085 122.035 50.211 122.035 52.8335C122.035 55.4561 124.161 57.5821 126.783 57.5821Z" fill="#F6B511"/>
<path d="M114.489 70.1035C117.111 70.1035 119.237 67.9775 119.237 65.3549C119.237 62.7324 117.111 60.6064 114.489 60.6064C111.866 60.6064 109.74 62.7324 109.74 65.3549C109.74 67.9775 111.866 70.1035 114.489 70.1035Z" fill="#264796"/>
<path d="M126.815 70.0713C129.437 70.0713 131.563 67.9453 131.563 65.3227C131.563 62.7002 129.437 60.5742 126.815 60.5742C124.192 60.5742 122.066 62.7002 122.066 65.3227C122.066 67.9453 124.192 70.0713 126.815 70.0713Z" fill="#722E85"/>
</g>
<defs>
<clipPath id="clip0_558_19377">
<rect width="194" height="23" fill="white" transform="translate(4 48)"/>
</clipPath>
</defs>
</svg>
