<svg width="202" height="118" viewBox="0 0 202 118" fill="none" xmlns="http://www.w3.org/2000/svg">
<g clip-path="url(#clip0_558_19459)">
<path fill-rule="evenodd" clip-rule="evenodd" d="M53.8843 55.7537H58.3714C60.1221 55.7537 60.7878 56.3595 60.7878 57.8431C60.7878 59.2717 60.1217 59.8768 58.3714 59.8768H53.8843V55.7537ZM46.933 70.7599H53.8847V64.6579H61.3306C66.2605 64.6579 68.0355 61.746 68.0355 57.9812C68.0355 53.611 66.2103 51.1381 61.2805 51.1381H46.933V70.7599ZM70.328 51.1381H89.0376V55.9188H77.2796V58.5572H88.2008V63.34H77.2796V65.9781H89.0376V70.7599H70.328V51.1381ZM98.899 55.7537H103.386C105.136 55.7537 105.802 56.3595 105.802 57.8431C105.802 59.2717 105.136 59.8768 103.386 59.8768H98.899V55.7537ZM91.9473 70.7599H98.899V64.6579H106.344C111.275 64.6579 113.05 61.746 113.05 57.9812C113.05 53.611 111.225 51.1381 106.294 51.1381H91.9473V70.7599ZM119.779 62.4328C116.377 61.8547 114.973 59.6563 114.973 56.9088C114.973 51.8238 119.435 50.4509 125.153 50.4509C132.991 50.4509 136.222 52.7311 136.468 56.8815H128.382C128.382 56.0843 127.963 55.5886 127.323 55.3141C126.707 55.0126 125.918 54.9029 125.153 54.9029C123.083 54.9029 122.368 55.4792 122.368 56.3044C122.368 56.8531 122.589 57.2117 123.28 57.3211L131.587 58.6947C135.088 59.2717 137.258 61.0856 137.258 64.4101C137.258 69.1935 133.757 71.447 125.942 71.447C120.593 71.447 114.75 70.6228 114.726 64.8514H123.107C123.131 65.5101 123.354 65.9497 123.847 66.2523C124.364 66.5275 125.128 66.6652 126.213 66.6652C128.382 66.6652 128.974 66.0051 128.974 65.0705C128.974 64.4935 128.653 63.9168 127.718 63.7527L119.779 62.4328ZM139.525 51.1381H146.476V70.7599H139.525V51.1381ZM172.239 63.1199C171.795 65.7033 171.005 67.792 169.279 69.2206C167.579 70.6498 164.916 71.447 160.677 71.447C156.462 71.447 148.647 71.1165 148.647 60.9495C148.647 50.7805 156.462 50.4506 160.677 50.4506C164.867 50.4506 171.326 51.0547 172.239 58.8331H164.4C164.202 57.4302 163.363 55.3968 160.677 55.3968C157.841 55.3968 156.041 56.9632 156.041 60.9491C156.041 64.9341 157.792 66.4994 160.331 66.4994C162.526 66.4994 163.832 65.4828 164.399 63.1196H172.239V63.1199ZM181.334 60.9498C181.334 56.9635 183.135 55.3975 185.97 55.3975C188.804 55.3975 190.605 56.9639 190.605 60.9498C190.605 64.9348 188.804 66.5001 185.97 66.5001C183.135 66.4998 181.334 64.9344 181.334 60.9498ZM173.938 60.9498C173.938 71.1165 181.753 71.4474 185.97 71.4474C190.185 71.4474 198 71.1168 198 60.9498C198 50.7808 190.185 50.4509 185.97 50.4509C181.753 50.4509 173.938 50.7805 173.938 60.9498ZM36.4287 51.3325C36.8776 41.9185 28.7811 31.317 17.7431 30.0066L17.7619 29.8779C28.6437 29.8779 36.9857 39.9791 36.9857 47.9479C36.9753 49.6068 36.8446 50.6346 36.6116 51.3808L36.4287 51.3325ZM35.7694 52.5292C35.0454 53.4162 34.1349 54.3093 33.0681 55.1571C31.1056 43.8394 22.8113 33.9429 16.9474 31.0543L16.8218 31.1421C22.7191 35.9951 29.7529 45.4206 32.4882 55.6011C31.093 56.6288 29.5859 57.4942 27.9958 58.1808C22.4308 51.8174 17.2427 39.5452 15.5708 31.7576L15.4007 31.8089C15.4384 39.3683 20.7909 52.201 27.3183 58.4627C25.8212 59.0567 24.2648 59.4879 22.676 59.7488C16.419 57.2634 11.9653 49.3029 11.9653 41.1483C11.9653 35.825 13.584 32.5319 13.8972 31.8579L13.7638 31.8049C13.385 32.3796 11.0137 35.671 11.0137 41.4181C11.0137 50.6356 15.5472 57.681 21.5661 59.8997C19.4137 60.1371 17.2376 60.0347 15.1168 59.5962L15.0721 59.7366C15.7159 59.9744 17.9003 60.8938 21.2327 60.8938C28.7699 60.8938 33.8652 56.1981 35.9162 52.6288L35.7694 52.5292Z" fill="#28458E"/>
<path fill-rule="evenodd" clip-rule="evenodd" d="M20.48 26.5518C14.7662 26.5518 8.06641 30.6866 8.06641 34.4663C8.06641 35.9283 9.40023 37.1634 12.1608 37.1634C18.5693 37.1634 24.5232 32.7486 24.5232 29.3158C24.5232 27.5093 22.793 26.5518 20.48 26.5518ZM22.761 29.2091C22.761 32.1027 17.2193 35.6399 12.5868 35.6399C10.5401 35.6399 9.43424 34.8323 9.43424 33.4996C9.43424 30.5644 15.0389 27.0873 19.3842 27.0873C22.2172 27.0873 22.761 28.5328 22.761 29.2091Z" fill="#0096D6"/>
<path fill-rule="evenodd" clip-rule="evenodd" d="M5.79013 36.2165C5.6295 36.4951 4.98633 37.7579 4.98633 39.0518C4.98633 41.4514 7.40445 43.6792 11.8521 43.6792C20.4083 43.6792 30.2937 37.3642 30.2937 31.5022C30.2937 28.8709 27.8095 27.4403 26.0847 27.1445L26.0524 27.2472C26.5888 27.4174 28.5541 28.3334 28.5541 30.6774C28.5541 35.3481 19.8261 41.7121 11.1322 41.7121C7.80383 41.7121 5.70695 40.0647 5.70695 37.665C5.70695 36.906 5.86454 36.4059 5.9063 36.2611L5.79013 36.2165Z" fill="#EB7B30"/>
<path fill-rule="evenodd" clip-rule="evenodd" d="M33.8211 31.9404C34.0558 32.119 35.465 33.2968 35.465 35.5239C35.465 43.1177 23.599 50.5848 13.1086 50.5848C6.85263 50.5848 4.00078 47.4875 4.12706 44.7374H4.23919C4.48434 46.1656 6.51555 48.7213 11.9909 48.7213C22.4945 48.7213 34.2221 40.9948 34.2221 34.2253C34.2221 33.0641 33.9076 32.3405 33.7298 32.0188L33.8211 31.9404Z" fill="#00984A"/>
<path fill-rule="evenodd" clip-rule="evenodd" d="M37.788 39.0293C37.8372 39.191 38.0928 39.918 38.0928 41.0565C38.0928 49.5039 26.0843 56.7357 15.6403 56.7357C10.265 56.7357 7.4579 54.1175 6.86523 53.0543L6.96087 52.9834C8.44825 54.2877 11.3779 55.2787 14.7968 55.2787C24.0208 55.2787 37.7843 48.2421 37.6614 39.06L37.788 39.0293Z" fill="#DF002C"/>
</g>
<defs>
<clipPath id="clip0_558_19459">
<rect width="194" height="54" fill="white" transform="translate(4 22)"/>
</clipPath>
</defs>
</svg>
