<svg width="202" height="118" viewBox="0 0 202 118" fill="none" xmlns="http://www.w3.org/2000/svg">
<rect width="162" height="64" transform="translate(20 27)" fill="#012D72"/>
<path fill-rule="evenodd" clip-rule="evenodd" d="M55.4 71L60.0721 55.9V71H67.1279V47H57.593L53.0163 59L48.5349 47H39V71H46.0558V55.9L50.8233 71H55.4ZM131.012 61.7C133.205 61.5 135.398 59.9 135.398 57.3V51.9V51.4C135.112 48.7 133.205 47.2 131.012 47H112.895V71H119.951V61.7H122.716L127.293 71H135.398L129.963 61.7H131.012ZM129.105 55.4C129.105 55.9 129.009 56.4 128.151 56.4H119.951V51.7H128.151C129.105 51.7 129.105 52.4 129.105 52.8V55.4ZM88.2953 51.7V47H69.9884V71H88.486V66.3H77.0442V61.2H88.2953V56.5H77.0442V51.7H88.2953ZM97.0674 51.7H90.393V47H110.798V51.7H104.123V71H97.0674V51.7ZM157.614 47H142.644C140.356 47.2 138.544 48.4 138.258 51.1V66.6C138.544 69.3 140.451 70.8 142.644 70.9H157.614C159.902 70.7 161.714 69.3 162 66.6V51.1C161.714 48.4 159.807 47.2 157.614 47ZM154.944 65.2C154.944 65.5 154.849 66.2 153.991 66.3H146.363C145.505 66.2 145.314 65.5 145.314 65.2V52.7C145.314 52.4 145.505 51.9 146.363 51.8H153.991C154.849 51.9 154.944 52.5 154.944 52.7V65.2Z" fill="#FFE500"/>
</svg>
