<svg width="216" height="57" viewBox="0 0 216 57" fill="none" xmlns="http://www.w3.org/2000/svg">
<g clip-path="url(#clip0_115_247)">
<path d="M57.348 0H0V56.64H57.348V0Z" fill="#C32420"/>
<path fill-rule="evenodd" clip-rule="evenodd" d="M46.5183 18.5956C43.0595 15.6831 37.3929 11.5988 33.5326 9.23516C28.9176 6.41018 28.5737 6.31366 23.8018 9.23516C19.9413 11.5993 14.2744 15.6836 10.8161 18.596C6.68174 22.0771 6.48307 22.3714 7.80924 27.777C8.88207 32.1504 11.0463 38.7594 12.7693 42.9228C14.829 47.9 15.0498 48.1776 20.6415 48.5976C25.1653 48.9369 32.1696 48.9369 36.6928 48.5976C42.0998 48.1917 42.4355 48.0694 44.5653 42.9228C46.2883 38.7589 48.4523 32.1504 49.5254 27.777C50.8072 22.5499 50.7935 22.1956 46.5183 18.5956ZM44.8822 26.5148C43.8628 30.6693 41.782 37.0241 40.1447 40.9802C39.2007 43.2602 39.0155 43.5266 36.3321 43.7277C32.034 44.0503 25.2996 44.0503 21.0013 43.7277C18.5236 43.5421 18.2112 43.4492 17.189 40.9797C15.5519 37.0241 13.471 30.6693 12.4517 26.5138C11.8643 24.1187 11.8566 23.7952 13.9081 22.0678C17.1943 19.3006 22.6425 15.3732 26.3111 13.1274C28.4256 11.8329 28.7332 11.7261 31.0236 13.1279C34.6914 15.3732 40.1396 19.3006 43.4263 22.0682C45.3203 23.6638 45.5182 23.9204 44.8822 26.5148Z" fill="white"/>
<path d="M122.88 0H60.4805V26.88H122.88V0Z" fill="#0C359C"/>
<path fill-rule="evenodd" clip-rule="evenodd" d="M63.4434 3.36952H72.3505C73.5861 3.36952 74.6372 3.55673 75.504 3.93117C76.3707 4.3056 77.0761 4.80003 77.6201 5.41448C78.1641 6.02893 78.5606 6.73458 78.8096 7.53145C79.0585 8.32832 79.183 9.13957 79.183 9.96524C79.183 10.8101 79.0585 11.6262 78.8096 12.4134C78.5606 13.2007 78.1641 13.9015 77.6201 14.516C77.0761 15.1305 76.3707 15.6249 75.504 15.9993C74.6372 16.3737 73.5861 16.561 72.3505 16.561H67.7863V23.9343H63.4434V3.36952ZM71.1611 13.0471C71.659 13.0471 72.1385 13.0087 72.5995 12.9319C73.0605 12.8551 73.4662 12.7063 73.8166 12.4854C74.167 12.2646 74.4482 11.9526 74.6603 11.5494C74.8724 11.1461 74.9784 10.6181 74.9784 9.96524C74.9784 9.31239 74.8724 8.78435 74.6603 8.38112C74.4482 7.97788 74.167 7.66586 73.8166 7.44504C73.4662 7.22422 73.0605 7.07541 72.5995 6.99861C72.1385 6.9218 71.659 6.8834 71.1611 6.8834H67.7863V13.0471H71.1611ZM90.1615 24.3952C88.6094 24.3952 87.2257 24.1216 86.0102 23.5743C84.7948 23.0271 83.7663 22.2734 82.9249 21.3133C82.0834 20.3533 81.4383 19.2252 80.9895 17.9291C80.5407 16.633 80.3163 15.2361 80.3163 13.7383C80.3163 12.2214 80.5407 10.8005 80.9895 9.4756C81.4383 8.15069 82.0834 6.99861 82.9249 6.01933C83.7663 5.04005 84.7948 4.272 86.0102 3.71515C87.2257 3.1583 88.6094 2.87988 90.1615 2.87988C91.6948 2.87988 93.0738 3.1583 94.2986 3.71515C95.5234 4.272 96.5566 5.04005 97.398 6.01933C98.2395 6.99861 98.8846 8.15069 99.3334 9.4756C99.7822 10.8005 100.007 12.2214 100.007 13.7383C100.007 15.2361 99.7822 16.633 99.3334 17.9291C98.8846 19.2252 98.2395 20.3533 97.398 21.3133C96.5566 22.2734 95.5234 23.0271 94.2986 23.5743C93.0738 24.1216 91.6948 24.3952 90.1615 24.3952ZM90.1615 20.6221C91.1525 20.6221 91.994 20.4253 92.6858 20.0316C93.3777 19.638 93.9387 19.1148 94.3688 18.4619C94.7988 17.8091 95.1121 17.0746 95.3084 16.2585C95.5047 15.4425 95.6029 14.6024 95.6029 13.7383C95.6029 12.8359 95.5047 11.9622 95.3084 11.1173C95.1121 10.2725 94.7988 9.51881 94.3688 8.85635C93.9387 8.1939 93.3777 7.66586 92.6858 7.27223C91.994 6.8786 91.1525 6.68178 90.1615 6.68178C89.1704 6.68178 88.3289 6.8786 87.6371 7.27223C86.9452 7.66586 86.3842 8.1939 85.9541 8.85635C85.5241 9.51881 85.2109 10.2725 85.0145 11.1173C84.8182 11.9622 84.72 12.8359 84.72 13.7383C84.72 14.6024 84.8182 15.4425 85.0145 16.2585C85.2109 17.0746 85.5241 17.8091 85.9541 18.4619C86.3842 19.1148 86.9452 19.638 87.6371 20.0316C88.3289 20.4253 89.1704 20.6221 90.1615 20.6221ZM111.067 24.3952C109.536 24.3952 108.172 24.1216 106.973 23.5743C105.774 23.0271 104.76 22.2734 103.93 21.3133C103.1 20.3533 102.464 19.2252 102.021 17.9291C101.579 16.633 101.358 15.2361 101.358 13.7383C101.358 12.2214 101.579 10.8005 102.021 9.4756C102.464 8.15069 103.1 6.99861 103.93 6.01933C104.76 5.04005 105.774 4.272 106.973 3.71515C108.172 3.1583 109.536 2.87988 111.067 2.87988C112.136 2.87988 113.16 3.04309 114.137 3.36952C115.115 3.69595 115.986 4.17118 116.751 4.79523C117.517 5.41929 118.148 6.19214 118.646 7.11382C119.144 8.03549 119.458 9.09157 119.587 10.2821H115.382C115.308 9.76362 115.142 9.28839 114.884 8.85635C114.626 8.42432 114.303 8.04509 113.916 7.71866C113.529 7.39224 113.091 7.13782 112.602 6.9554C112.113 6.77299 111.602 6.68178 111.067 6.68178C110.09 6.68178 109.26 6.8786 108.577 7.27223C107.895 7.66586 107.342 8.1939 106.918 8.85635C106.493 9.51881 106.185 10.2725 105.991 11.1173C105.797 11.9622 105.701 12.8359 105.701 13.7383C105.701 14.6024 105.797 15.4425 105.991 16.2585C106.185 17.0746 106.493 17.8091 106.918 18.4619C107.342 19.1148 107.895 19.638 108.577 20.0316C109.26 20.4253 110.09 20.6221 111.067 20.6221C112.395 20.6221 113.432 20.1996 114.179 19.3548C114.926 18.5099 115.382 17.3962 115.548 16.0137H119.753C119.642 17.3194 119.356 18.4859 118.895 19.5132C118.434 20.5405 117.826 21.4189 117.07 22.1486C116.313 22.8783 115.428 23.4351 114.414 23.8191C113.4 24.2032 112.284 24.3952 111.067 24.3952Z" fill="white"/>
<path d="M216 0H125.76V26.88H216V0Z" fill="#C32420"/>
<path fill-rule="evenodd" clip-rule="evenodd" d="M128.88 2.94936H131.366C131.711 2.94936 132.004 2.99953 132.246 3.09988C132.488 3.20023 132.685 3.33275 132.837 3.49743C132.988 3.66211 133.099 3.85123 133.169 4.0648C133.238 4.27836 133.273 4.49579 133.273 4.71708C133.273 4.94351 133.238 5.16222 133.169 5.37322C133.099 5.58421 132.988 5.77205 132.837 5.93672C132.685 6.1014 132.488 6.23392 132.246 6.33427C132.004 6.43462 131.711 6.4848 131.366 6.4848H130.092V8.46094H128.88V2.94936ZM131.034 5.54304C131.173 5.54304 131.307 5.53275 131.436 5.51216C131.564 5.49158 131.677 5.4517 131.775 5.39251C131.873 5.33333 131.951 5.24971 132.011 5.14164C132.07 5.03357 132.099 4.89205 132.099 4.71708C132.099 4.5421 132.07 4.40059 132.011 4.29251C131.951 4.18444 131.873 4.10082 131.775 4.04164C131.677 3.98246 131.564 3.94257 131.436 3.92199C131.307 3.9014 131.173 3.89111 131.034 3.89111H130.092V5.54304H131.034ZM138.143 8.56129C137.829 8.56129 137.546 8.5124 137.294 8.41462C137.042 8.31684 136.826 8.17661 136.646 7.99392C136.466 7.81123 136.327 7.59123 136.229 7.33392C136.131 7.07661 136.082 6.78842 136.082 6.46936C136.082 6.15029 136.131 5.86082 136.229 5.60094C136.327 5.34105 136.466 5.11977 136.646 4.93708C136.826 4.75439 137.042 4.61287 137.294 4.51251C137.546 4.41216 137.829 4.36199 138.143 4.36199C138.457 4.36199 138.742 4.41216 138.996 4.51251C139.251 4.61287 139.469 4.75439 139.649 4.93708C139.829 5.11977 139.968 5.34105 140.065 5.60094C140.163 5.86082 140.212 6.15029 140.212 6.46936C140.212 6.78842 140.163 7.07661 140.065 7.33392C139.968 7.59123 139.829 7.81123 139.649 7.99392C139.469 8.17661 139.251 8.31684 138.996 8.41462C138.742 8.5124 138.457 8.56129 138.143 8.56129ZM138.143 7.74304C138.329 7.74304 138.484 7.70702 138.61 7.63497C138.736 7.56292 138.837 7.46643 138.911 7.3455C138.986 7.22456 139.039 7.08819 139.07 6.93637C139.101 6.78456 139.116 6.62889 139.116 6.46936C139.116 6.30982 139.101 6.15287 139.07 5.99848C139.039 5.84409 138.986 5.70772 138.911 5.58936C138.837 5.47099 138.736 5.3745 138.61 5.29988C138.484 5.22526 138.329 5.18795 138.143 5.18795C137.958 5.18795 137.804 5.22526 137.68 5.29988C137.557 5.3745 137.458 5.47099 137.383 5.58936C137.308 5.70772 137.256 5.84409 137.225 5.99848C137.194 6.15287 137.178 6.30982 137.178 6.46936C137.178 6.62889 137.194 6.78456 137.225 6.93637C137.256 7.08819 137.308 7.22456 137.383 7.3455C137.458 7.46643 137.557 7.56292 137.68 7.63497C137.804 7.70702 137.958 7.74304 138.143 7.74304ZM145.106 8.56129C144.802 8.56129 144.527 8.51111 144.28 8.41076C144.033 8.31041 143.822 8.17018 143.647 7.99006C143.472 7.80994 143.336 7.59509 143.238 7.3455C143.14 7.09591 143.091 6.82187 143.091 6.52339C143.091 6.21462 143.136 5.92772 143.226 5.66269C143.316 5.39766 143.449 5.16866 143.624 4.97567C143.799 4.78269 144.012 4.63216 144.265 4.52409C144.517 4.41602 144.805 4.36199 145.129 4.36199C145.366 4.36199 145.594 4.39286 145.812 4.45462C146.031 4.51637 146.227 4.61029 146.399 4.73637C146.571 4.86246 146.712 5.0207 146.82 5.21111C146.928 5.40152 146.989 5.62281 147.005 5.87497H145.932C145.86 5.41696 145.59 5.18795 145.121 5.18795C144.946 5.18795 144.8 5.22784 144.681 5.3076C144.563 5.38737 144.467 5.49029 144.392 5.61637C144.317 5.74246 144.265 5.88269 144.234 6.03708C144.203 6.19146 144.187 6.3407 144.187 6.4848C144.187 6.62889 144.203 6.77555 144.234 6.9248C144.265 7.07404 144.315 7.20912 144.384 7.33006C144.454 7.45099 144.548 7.55006 144.666 7.62725C144.784 7.70444 144.928 7.74304 145.098 7.74304C145.361 7.74304 145.563 7.66971 145.704 7.52304C145.846 7.37637 145.934 7.17953 145.97 6.93251H147.028C146.956 7.46258 146.75 7.86655 146.41 8.14444C146.071 8.42234 145.636 8.56129 145.106 8.56129ZM151.829 8.56129C151.526 8.56129 151.25 8.51111 151.003 8.41076C150.756 8.31041 150.545 8.17018 150.37 7.99006C150.195 7.80994 150.059 7.59509 149.961 7.3455C149.863 7.09591 149.814 6.82187 149.814 6.52339C149.814 6.21462 149.859 5.92772 149.95 5.66269C150.04 5.39766 150.172 5.16866 150.347 4.97567C150.522 4.78269 150.736 4.63216 150.988 4.52409C151.24 4.41602 151.528 4.36199 151.852 4.36199C152.089 4.36199 152.317 4.39286 152.536 4.45462C152.754 4.51637 152.95 4.61029 153.122 4.73637C153.295 4.86246 153.435 5.0207 153.543 5.21111C153.651 5.40152 153.713 5.62281 153.728 5.87497H152.655C152.583 5.41696 152.313 5.18795 151.845 5.18795C151.67 5.18795 151.523 5.22784 151.405 5.3076C151.286 5.38737 151.19 5.49029 151.115 5.61637C151.041 5.74246 150.988 5.88269 150.957 6.03708C150.926 6.19146 150.911 6.3407 150.911 6.4848C150.911 6.62889 150.926 6.77555 150.957 6.9248C150.988 7.07404 151.038 7.20912 151.107 7.33006C151.177 7.45099 151.271 7.55006 151.389 7.62725C151.508 7.70444 151.652 7.74304 151.821 7.74304C152.084 7.74304 152.286 7.66971 152.427 7.52304C152.569 7.37637 152.658 7.17953 152.694 6.93251H153.751C153.679 7.46258 153.473 7.86655 153.134 8.14444C152.794 8.42234 152.359 8.56129 151.829 8.56129ZM156.661 4.47006H157.711V7.17181L159.216 4.47006H160.459V8.46094H159.409V5.75918L157.904 8.46094H156.661V4.47006ZM163.585 4.47006H164.635V7.17181L166.14 4.47006H167.383V8.46094H166.333V5.75918L164.828 8.46094H163.585V4.47006ZM165.476 3.99146C165.296 3.99146 165.128 3.97088 164.971 3.92971C164.814 3.88854 164.676 3.82292 164.558 3.73287C164.439 3.64281 164.346 3.5283 164.276 3.38936C164.207 3.25041 164.172 3.08059 164.172 2.87988H164.99C165 3.05485 165.042 3.18351 165.114 3.26585C165.186 3.34819 165.307 3.38936 165.476 3.38936C165.641 3.38936 165.762 3.34947 165.839 3.26971C165.916 3.18994 165.958 3.06 165.963 2.87988H166.781C166.781 3.08059 166.746 3.25041 166.677 3.38936C166.607 3.5283 166.513 3.64281 166.395 3.73287C166.277 3.82292 166.138 3.88854 165.978 3.92971C165.819 3.97088 165.651 3.99146 165.476 3.99146ZM172.4 8.56129C172.097 8.56129 171.821 8.51111 171.574 8.41076C171.327 8.31041 171.116 8.17018 170.941 7.99006C170.767 7.80994 170.63 7.59509 170.532 7.3455C170.435 7.09591 170.386 6.82187 170.386 6.52339C170.386 6.21462 170.431 5.92772 170.521 5.66269C170.611 5.39766 170.743 5.16866 170.918 4.97567C171.093 4.78269 171.307 4.63216 171.559 4.52409C171.811 4.41602 172.099 4.36199 172.424 4.36199C172.66 4.36199 172.888 4.39286 173.107 4.45462C173.325 4.51637 173.521 4.61029 173.693 4.73637C173.866 4.86246 174.006 5.0207 174.114 5.21111C174.222 5.40152 174.284 5.62281 174.299 5.87497H173.226C173.154 5.41696 172.884 5.18795 172.416 5.18795C172.241 5.18795 172.094 5.22784 171.976 5.3076C171.858 5.38737 171.761 5.49029 171.686 5.61637C171.612 5.74246 171.559 5.88269 171.528 6.03708C171.497 6.19146 171.482 6.3407 171.482 6.4848C171.482 6.62889 171.497 6.77555 171.528 6.9248C171.559 7.07404 171.609 7.20912 171.679 7.33006C171.748 7.45099 171.842 7.55006 171.96 7.62725C172.079 7.70444 172.223 7.74304 172.393 7.74304C172.655 7.74304 172.857 7.66971 172.999 7.52304C173.14 7.37637 173.229 7.17953 173.265 6.93251H174.323C174.25 7.46258 174.045 7.86655 173.705 8.14444C173.365 8.42234 172.93 8.56129 172.4 8.56129ZM177.232 4.47006H178.329V6.09883L179.795 4.47006H181.084L179.417 6.23006L181.301 8.46094H179.973L178.56 6.80129L178.329 7.05602V8.46094H177.232V4.47006ZM185.145 8.56129C184.954 8.56129 184.777 8.53813 184.612 8.49181C184.447 8.4455 184.303 8.37345 184.18 8.27567C184.056 8.17789 183.96 8.05439 183.89 7.90515C183.821 7.75591 183.786 7.57836 183.786 7.37251C183.786 7.14608 183.826 6.95953 183.906 6.81287C183.985 6.6662 184.088 6.54912 184.214 6.46164C184.34 6.37415 184.485 6.30854 184.647 6.2648C184.809 6.22105 184.972 6.18632 185.137 6.16058C185.301 6.13485 185.464 6.11427 185.623 6.09883C185.783 6.08339 185.924 6.06023 186.048 6.02936C186.171 5.99848 186.269 5.95345 186.341 5.89427C186.413 5.83509 186.447 5.74889 186.441 5.63567C186.441 5.52246 186.422 5.42983 186.383 5.35778C186.345 5.28573 186.293 5.23041 186.229 5.19181C186.165 5.15322 186.09 5.12749 186.005 5.11462C185.92 5.10175 185.829 5.09532 185.731 5.09532C185.515 5.09532 185.345 5.14164 185.222 5.23427C185.098 5.3269 185.026 5.48129 185.006 5.69743H183.909C183.925 5.44526 183.989 5.23298 184.102 5.06058C184.216 4.88819 184.36 4.75053 184.535 4.6476C184.71 4.54468 184.905 4.47134 185.121 4.4276C185.338 4.38386 185.559 4.36199 185.785 4.36199C185.986 4.36199 186.189 4.37614 186.395 4.40444C186.601 4.43275 186.789 4.48807 186.959 4.57041C187.128 4.65275 187.267 4.76854 187.375 4.91778C187.483 5.06702 187.538 5.26 187.538 5.49673V7.57322C187.538 7.75333 187.548 7.92573 187.568 8.09041C187.589 8.25509 187.625 8.3786 187.676 8.46094H186.565C186.544 8.39918 186.528 8.33614 186.515 8.27181C186.502 8.20748 186.493 8.14187 186.488 8.07497C186.313 8.25509 186.107 8.38117 185.87 8.45322C185.633 8.52526 185.392 8.56129 185.145 8.56129ZM185.554 7.83567C185.77 7.83567 185.937 7.79965 186.055 7.7276C186.174 7.65555 186.261 7.56936 186.318 7.46901C186.374 7.36865 186.409 7.26702 186.422 7.16409C186.435 7.06117 186.441 6.97883 186.441 6.91708V6.50795C186.395 6.54912 186.338 6.58129 186.272 6.60444C186.205 6.6276 186.13 6.6469 186.048 6.66234C185.965 6.67778 185.88 6.69064 185.793 6.70094C185.705 6.71123 185.618 6.72409 185.53 6.73953C185.443 6.75497 185.361 6.77556 185.283 6.80129C185.206 6.82702 185.138 6.86175 185.079 6.9055C185.02 6.94924 184.972 7.00456 184.936 7.07146C184.9 7.13836 184.882 7.22327 184.882 7.3262C184.882 7.42912 184.9 7.51275 184.936 7.57708C184.972 7.6414 185.021 7.69287 185.083 7.73146C185.145 7.77006 185.217 7.79708 185.299 7.81251C185.381 7.82795 185.466 7.83567 185.554 7.83567ZM191.528 6.96339C191.245 6.91708 191.015 6.7807 190.837 6.55427C190.66 6.32784 190.571 6.04994 190.571 5.72058C190.571 5.54561 190.603 5.38222 190.667 5.23041C190.732 5.0786 190.823 4.94608 190.941 4.83287C191.06 4.71965 191.199 4.63088 191.358 4.56655C191.518 4.50222 191.695 4.47006 191.891 4.47006H194.307V8.46094H193.211V7.05602H192.694L191.605 8.46094H190.262L191.528 6.96339ZM193.211 5.26515H192.339C192.087 5.26515 191.914 5.31018 191.821 5.40023C191.729 5.49029 191.683 5.60994 191.683 5.75918C191.683 5.91357 191.728 6.03708 191.818 6.12971C191.908 6.22234 192.081 6.26865 192.339 6.26865H193.211V5.26515ZM130.656 16.2806C130.352 16.2806 130.077 16.2304 129.83 16.1301C129.583 16.0297 129.372 15.8895 129.197 15.7094C129.022 15.5292 128.886 15.3144 128.788 15.0648C128.69 14.8152 128.641 14.5412 128.641 14.2427C128.641 13.9339 128.686 13.647 128.776 13.382C128.866 13.117 128.999 12.888 129.174 12.695C129.349 12.502 129.562 12.3515 129.814 12.2434C130.067 12.1353 130.355 12.0813 130.679 12.0813C130.916 12.0813 131.143 12.1122 131.362 12.1739C131.581 12.2357 131.776 12.3296 131.949 12.4557C132.121 12.5818 132.261 12.74 132.37 12.9304C132.478 13.1208 132.539 13.3421 132.555 13.5943H131.482C131.41 13.1363 131.14 12.9073 130.671 12.9073C130.496 12.9073 130.35 12.9471 130.231 13.0269C130.113 13.1067 130.016 13.2096 129.942 13.3357C129.867 13.4618 129.814 13.602 129.784 13.7564C129.753 13.9108 129.737 14.06 129.737 14.2041C129.737 14.3482 129.753 14.4949 129.784 14.6441C129.814 14.7933 129.865 14.9284 129.934 15.0494C130.004 15.1703 130.098 15.2694 130.216 15.3465C130.334 15.4237 130.478 15.4623 130.648 15.4623C130.911 15.4623 131.113 15.389 131.254 15.2423C131.396 15.0957 131.484 14.8988 131.52 14.6518H132.578C132.506 15.1819 132.3 15.5858 131.96 15.8637C131.621 16.1416 131.186 16.2806 130.656 16.2806ZM135.488 12.1894H136.538V14.8911L138.043 12.1894H139.286V16.1802H138.236V13.4785L136.731 16.1802H135.488V12.1894ZM144.303 16.2806C143.999 16.2806 143.724 16.2304 143.477 16.1301C143.23 16.0297 143.019 15.8895 142.844 15.7094C142.669 15.5292 142.533 15.3144 142.435 15.0648C142.337 14.8152 142.288 14.5412 142.288 14.2427C142.288 13.9339 142.333 13.647 142.423 13.382C142.514 13.117 142.646 12.888 142.821 12.695C142.996 12.502 143.21 12.3515 143.462 12.2434C143.714 12.1353 144.002 12.0813 144.326 12.0813C144.563 12.0813 144.791 12.1122 145.009 12.1739C145.228 12.2357 145.424 12.3296 145.596 12.4557C145.769 12.5818 145.909 12.74 146.017 12.9304C146.125 13.1208 146.187 13.3421 146.202 13.5943H145.129C145.057 13.1363 144.787 12.9073 144.319 12.9073C144.144 12.9073 143.997 12.9471 143.879 13.0269C143.76 13.1067 143.664 13.2096 143.589 13.3357C143.514 13.4618 143.462 13.602 143.431 13.7564C143.4 13.9108 143.385 14.06 143.385 14.2041C143.385 14.3482 143.4 14.4949 143.431 14.6441C143.462 14.7933 143.512 14.9284 143.581 15.0494C143.651 15.1703 143.745 15.2694 143.863 15.3465C143.981 15.4237 144.126 15.4623 144.295 15.4623C144.558 15.4623 144.76 15.389 144.901 15.2423C145.043 15.0957 145.132 14.8988 145.168 14.6518H146.225C146.153 15.1819 145.947 15.5858 145.608 15.8637C145.268 16.1416 144.833 16.2806 144.303 16.2806ZM150.108 13.0153H148.796V12.1894H152.516V13.0153H151.204V16.1802H150.108V13.0153ZM157.148 16.2806C156.834 16.2806 156.551 16.2304 156.298 16.1301C156.046 16.0297 155.833 15.8869 155.658 15.7016C155.483 15.5164 155.348 15.2951 155.252 15.0378C155.157 14.7805 155.11 14.4974 155.11 14.1887C155.11 13.8902 155.159 13.6123 155.256 13.355C155.354 13.0977 155.493 12.8751 155.673 12.6873C155.853 12.4994 156.068 12.3515 156.318 12.2434C156.567 12.1353 156.844 12.0813 157.148 12.0813C157.467 12.0813 157.748 12.1405 157.993 12.2588C158.237 12.3772 158.441 12.5354 158.603 12.7336C158.765 12.9317 158.887 13.162 158.969 13.4244C159.052 13.6869 159.093 13.9596 159.093 14.2427V14.3469C159.093 14.3804 159.09 14.4151 159.085 14.4511H156.206C156.221 14.8062 156.311 15.0635 156.476 15.223C156.641 15.3826 156.877 15.4623 157.186 15.4623C157.407 15.4623 157.598 15.407 157.757 15.2964C157.917 15.1857 158.015 15.0687 158.051 14.9451H159.016C158.861 15.4237 158.625 15.766 158.305 15.9718C157.986 16.1777 157.6 16.2806 157.148 16.2806ZM157.989 13.7564C157.938 13.4785 157.846 13.2675 157.715 13.1234C157.584 12.9793 157.384 12.9073 157.117 12.9073C156.937 12.9073 156.79 12.9368 156.677 12.996C156.563 13.0552 156.472 13.1285 156.403 13.216C156.333 13.3035 156.284 13.3961 156.256 13.4939C156.228 13.5917 156.211 13.6792 156.206 13.7564H157.989ZM162.026 12.1894H163.616L164.442 15.0918H164.473L165.299 12.1894H166.889V16.1802H165.855V13.1466H165.832L164.975 16.1802H163.94L163.083 13.1466H163.06V16.1802H162.026V12.1894ZM171.204 16.2806C171.014 16.2806 170.836 16.2574 170.671 16.2111C170.507 16.1648 170.363 16.0928 170.239 15.995C170.116 15.8972 170.019 15.7737 169.95 15.6244C169.88 15.4752 169.845 15.2977 169.845 15.0918C169.845 14.8654 169.885 14.6788 169.965 14.5322C170.045 14.3855 170.148 14.2684 170.274 14.1809C170.4 14.0934 170.544 14.0278 170.706 13.9841C170.868 13.9404 171.032 13.9056 171.196 13.8799C171.361 13.8542 171.523 13.8336 171.683 13.8181C171.842 13.8027 171.984 13.7795 172.107 13.7487C172.231 13.7178 172.328 13.6727 172.4 13.6136C172.472 13.5544 172.506 13.4682 172.501 13.355C172.501 13.2418 172.481 13.1491 172.443 13.0771C172.404 13.005 172.353 12.9497 172.289 12.9111C172.224 12.8725 172.15 12.8468 172.065 12.8339C171.98 12.8211 171.888 12.8146 171.791 12.8146C171.574 12.8146 171.405 12.8609 171.281 12.9536C171.158 13.0462 171.086 13.2006 171.065 13.4167H169.969C169.984 13.1646 170.049 12.9523 170.162 12.7799C170.275 12.6075 170.419 12.4698 170.594 12.3669C170.769 12.264 170.965 12.1906 171.181 12.1469C171.397 12.1032 171.618 12.0813 171.845 12.0813C172.045 12.0813 172.249 12.0954 172.454 12.1237C172.66 12.152 172.848 12.2074 173.018 12.2897C173.188 12.372 173.327 12.4878 173.435 12.6371C173.543 12.7863 173.597 12.9793 173.597 13.216V15.2925C173.597 15.4726 173.607 15.645 173.628 15.8097C173.648 15.9744 173.684 16.0979 173.736 16.1802H172.624C172.604 16.1185 172.587 16.0554 172.574 15.9911C172.561 15.9268 172.552 15.8612 172.547 15.7943C172.372 15.9744 172.166 16.1005 171.93 16.1725C171.693 16.2446 171.451 16.2806 171.204 16.2806ZM171.613 15.555C171.829 15.555 171.996 15.5189 172.115 15.4469C172.233 15.3749 172.321 15.2887 172.377 15.1883C172.434 15.088 172.469 14.9863 172.481 14.8834C172.494 14.7805 172.501 14.6981 172.501 14.6364V14.2273C172.454 14.2684 172.398 14.3006 172.331 14.3237C172.264 14.3469 172.189 14.3662 172.107 14.3816C172.025 14.3971 171.94 14.4099 171.852 14.4202C171.765 14.4305 171.677 14.4434 171.59 14.4588C171.502 14.4743 171.42 14.4949 171.343 14.5206C171.266 14.5463 171.198 14.5811 171.138 14.6248C171.079 14.6685 171.032 14.7239 170.996 14.7908C170.959 14.8577 170.941 14.9426 170.941 15.0455C170.941 15.1484 170.959 15.232 170.996 15.2964C171.032 15.3607 171.08 15.4122 171.142 15.4508C171.204 15.4894 171.276 15.5164 171.358 15.5318C171.441 15.5473 171.526 15.555 171.613 15.555ZM128.765 19.9087H129.861V21.5374L131.327 19.9087H132.617L130.949 21.6687L132.833 23.8995H131.505L130.092 22.2399L129.861 22.4946V23.8995H128.765V19.9087ZM136.677 23.9999C136.486 23.9999 136.309 23.9767 136.144 23.9304C135.979 23.8841 135.835 23.812 135.712 23.7143C135.588 23.6165 135.492 23.493 135.422 23.3437C135.353 23.1945 135.318 23.017 135.318 22.8111C135.318 22.5847 135.358 22.3981 135.438 22.2515C135.518 22.1048 135.62 21.9877 135.747 21.9002C135.873 21.8127 136.017 21.7471 136.179 21.7034C136.341 21.6597 136.504 21.6249 136.669 21.5992C136.834 21.5735 136.996 21.5529 137.155 21.5374C137.315 21.522 137.456 21.4988 137.58 21.468C137.703 21.4371 137.801 21.392 137.873 21.3329C137.945 21.2737 137.979 21.1875 137.974 21.0743C137.974 20.9611 137.954 20.8684 137.916 20.7964C137.877 20.7243 137.826 20.669 137.761 20.6304C137.697 20.5918 137.622 20.5661 137.537 20.5532C137.452 20.5403 137.361 20.5339 137.263 20.5339C137.047 20.5339 136.877 20.5802 136.754 20.6729C136.63 20.7655 136.558 20.9199 136.538 21.136H135.442C135.457 20.8839 135.521 20.6716 135.635 20.4992C135.748 20.3268 135.892 20.1891 136.067 20.0862C136.242 19.9833 136.437 19.9099 136.654 19.8662C136.87 19.8225 137.091 19.8006 137.317 19.8006C137.518 19.8006 137.721 19.8147 137.927 19.843C138.133 19.8713 138.321 19.9267 138.491 20.009C138.661 20.0913 138.799 20.2071 138.908 20.3564C139.016 20.5056 139.07 20.6986 139.07 20.9353V23.0118C139.07 23.1919 139.08 23.3643 139.101 23.529C139.121 23.6937 139.157 23.8172 139.209 23.8995H138.097C138.076 23.8378 138.06 23.7747 138.047 23.7104C138.034 23.6461 138.025 23.5805 138.02 23.5136C137.845 23.6937 137.639 23.8198 137.402 23.8918C137.166 23.9639 136.924 23.9999 136.677 23.9999ZM137.086 23.2743C137.302 23.2743 137.469 23.2382 137.588 23.1662C137.706 23.0942 137.793 23.008 137.85 22.9076C137.907 22.8073 137.941 22.7056 137.954 22.6027C137.967 22.4998 137.974 22.4174 137.974 22.3557V21.9466C137.927 21.9877 137.871 22.0199 137.804 22.043C137.737 22.0662 137.662 22.0855 137.58 22.1009C137.498 22.1164 137.413 22.1292 137.325 22.1395C137.238 22.1498 137.15 22.1627 137.063 22.1781C136.975 22.1936 136.893 22.2142 136.816 22.2399C136.738 22.2656 136.67 22.3004 136.611 22.3441C136.552 22.3878 136.504 22.4432 136.468 22.5101C136.432 22.577 136.414 22.6619 136.414 22.7648C136.414 22.8677 136.432 22.9513 136.468 23.0157C136.504 23.08 136.553 23.1315 136.615 23.1701C136.677 23.2087 136.749 23.2357 136.831 23.2511C136.913 23.2666 136.998 23.2743 137.086 23.2743ZM144.712 22.4329C144.609 22.4637 144.458 22.5011 144.257 22.5448C144.056 22.5885 143.848 22.6104 143.632 22.6104C143.086 22.6104 142.695 22.4843 142.458 22.2322C142.221 21.98 142.103 21.6378 142.103 21.2055V19.9087H143.192V20.9816C143.192 21.275 143.248 21.4782 143.361 21.5915C143.475 21.7047 143.66 21.7613 143.917 21.7613C144.077 21.7613 144.226 21.7484 144.365 21.7227C144.504 21.697 144.62 21.6712 144.712 21.6455V19.9087H145.808V23.8995H144.712V22.4329ZM150.779 23.9999C150.465 23.9999 150.182 23.9497 149.93 23.8494C149.678 23.749 149.465 23.6062 149.29 23.4209C149.115 23.2357 148.979 23.0144 148.884 22.7571C148.789 22.4998 148.741 22.2167 148.741 21.908C148.741 21.6095 148.79 21.3316 148.888 21.0743C148.986 20.817 149.125 20.5944 149.305 20.4065C149.485 20.2187 149.7 20.0708 149.95 19.9627C150.199 19.8546 150.476 19.8006 150.779 19.8006C151.098 19.8006 151.38 19.8598 151.625 19.9781C151.869 20.0965 152.072 20.2547 152.234 20.4529C152.397 20.651 152.519 20.8813 152.601 21.1437C152.683 21.4062 152.725 21.6789 152.725 21.962V22.0662C152.725 22.0997 152.722 22.1344 152.717 22.1704H149.838C149.853 22.5255 149.943 22.7828 150.108 22.9423C150.272 23.1019 150.509 23.1816 150.818 23.1816C151.039 23.1816 151.23 23.1263 151.389 23.0157C151.549 22.905 151.647 22.788 151.683 22.6644H152.647C152.493 23.143 152.256 23.4853 151.937 23.6911C151.618 23.897 151.232 23.9999 150.779 23.9999ZM151.621 21.4757C151.569 21.1978 151.478 20.9868 151.347 20.8427C151.216 20.6986 151.016 20.6266 150.749 20.6266C150.568 20.6266 150.422 20.6561 150.309 20.7153C150.195 20.7745 150.104 20.8478 150.034 20.9353C149.965 21.0228 149.916 21.1154 149.888 21.2132C149.859 21.311 149.843 21.3985 149.838 21.4757H151.621ZM157.549 23.9999C157.245 23.9999 156.97 23.9497 156.723 23.8494C156.476 23.749 156.265 23.6088 156.09 23.4287C155.915 23.2485 155.779 23.0337 155.681 22.7841C155.583 22.5345 155.534 22.2605 155.534 21.962C155.534 21.6532 155.579 21.3663 155.669 21.1013C155.759 20.8363 155.892 20.6073 156.067 20.4143C156.242 20.2213 156.455 20.0708 156.708 19.9627C156.96 19.8546 157.248 19.8006 157.572 19.8006C157.809 19.8006 158.037 19.8315 158.255 19.8932C158.474 19.955 158.67 20.0489 158.842 20.175C159.014 20.3011 159.155 20.4593 159.263 20.6497C159.371 20.8401 159.432 21.0614 159.448 21.3136H158.375C158.303 20.8556 158.033 20.6266 157.564 20.6266C157.389 20.6266 157.243 20.6664 157.124 20.7462C157.006 20.826 156.91 20.9289 156.835 21.055C156.76 21.1811 156.708 21.3213 156.677 21.4757C156.646 21.6301 156.63 21.7793 156.63 21.9234C156.63 22.0675 156.646 22.2142 156.677 22.3634C156.708 22.5126 156.758 22.6477 156.827 22.7687C156.897 22.8896 156.991 22.9887 157.109 23.0658C157.227 23.143 157.371 23.1816 157.541 23.1816C157.804 23.1816 158.006 23.1083 158.147 22.9616C158.289 22.815 158.378 22.6181 158.414 22.3711H159.471C159.399 22.9012 159.193 23.3051 158.854 23.583C158.514 23.8609 158.079 23.9999 157.549 23.9999ZM163.354 20.7346H162.041V19.9087H165.762V20.7346H164.45V23.8995H163.354V20.7346ZM168.579 19.9087H170.872C171.047 19.9087 171.212 19.928 171.366 19.9665C171.52 20.0051 171.656 20.0643 171.771 20.1441C171.887 20.2239 171.978 20.3281 172.045 20.4567C172.112 20.5854 172.146 20.7372 172.146 20.9122C172.146 21.1077 172.097 21.2763 171.999 21.4178C171.901 21.5593 171.77 21.6661 171.605 21.7381C171.811 21.7947 171.984 21.9015 172.123 22.0585C172.261 22.2154 172.331 22.4329 172.331 22.7108C172.331 22.9063 172.296 23.0774 172.227 23.2241C172.157 23.3708 172.061 23.4943 171.937 23.5946C171.814 23.695 171.67 23.7709 171.505 23.8223C171.34 23.8738 171.165 23.8995 170.98 23.8995H168.579V19.9087ZM170.471 23.1894C170.563 23.1894 170.653 23.1829 170.741 23.1701C170.828 23.1572 170.905 23.1327 170.972 23.0967C171.039 23.0607 171.093 23.008 171.134 22.9385C171.176 22.869 171.196 22.7777 171.196 22.6644C171.196 22.5512 171.174 22.4586 171.131 22.3866C171.087 22.3145 171.029 22.2605 170.957 22.2244C170.885 22.1884 170.803 22.164 170.71 22.1511C170.617 22.1382 170.522 22.1318 170.424 22.1318H169.66V23.1894H170.471ZM170.386 21.5143C170.468 21.5143 170.548 21.5091 170.625 21.4988C170.702 21.4885 170.772 21.4667 170.833 21.4332C170.895 21.3998 170.944 21.3535 170.98 21.2943C171.016 21.2351 171.034 21.154 171.034 21.0511C171.034 20.9533 171.016 20.8749 170.98 20.8157C170.944 20.7565 170.896 20.7115 170.837 20.6806C170.778 20.6497 170.709 20.6291 170.629 20.6188C170.549 20.6085 170.468 20.6034 170.386 20.6034H169.66V21.5143H170.386ZM176.515 23.9999C176.324 23.9999 176.147 23.9767 175.982 23.9304C175.817 23.8841 175.673 23.812 175.55 23.7143C175.426 23.6165 175.33 23.493 175.26 23.3437C175.191 23.1945 175.156 23.017 175.156 22.8111C175.156 22.5847 175.196 22.3981 175.276 22.2515C175.355 22.1048 175.458 21.9877 175.584 21.9002C175.71 21.8127 175.855 21.7471 176.017 21.7034C176.179 21.6597 176.342 21.6249 176.507 21.5992C176.672 21.5735 176.834 21.5529 176.993 21.5374C177.153 21.522 177.294 21.4988 177.418 21.468C177.541 21.4371 177.639 21.392 177.711 21.3329C177.783 21.2737 177.817 21.1875 177.811 21.0743C177.811 20.9611 177.792 20.8684 177.754 20.7964C177.715 20.7243 177.663 20.669 177.599 20.6304C177.535 20.5918 177.46 20.5661 177.375 20.5532C177.29 20.5403 177.199 20.5339 177.101 20.5339C176.885 20.5339 176.715 20.5802 176.592 20.6729C176.468 20.7655 176.396 20.9199 176.376 21.136H175.279C175.295 20.8839 175.359 20.6716 175.472 20.4992C175.586 20.3268 175.73 20.1891 175.905 20.0862C176.08 19.9833 176.275 19.9099 176.491 19.8662C176.708 19.8225 176.929 19.8006 177.155 19.8006C177.356 19.8006 177.559 19.8147 177.765 19.843C177.971 19.8713 178.159 19.9267 178.329 20.009C178.498 20.0913 178.637 20.2071 178.745 20.3564C178.854 20.5056 178.908 20.6986 178.908 20.9353V23.0118C178.908 23.1919 178.918 23.3643 178.938 23.529C178.959 23.6937 178.995 23.8172 179.047 23.8995H177.935C177.914 23.8378 177.898 23.7747 177.885 23.7104C177.872 23.6461 177.863 23.5805 177.858 23.5136C177.683 23.6937 177.477 23.8198 177.24 23.8918C177.003 23.9639 176.762 23.9999 176.515 23.9999ZM176.924 23.2743C177.14 23.2743 177.307 23.2382 177.425 23.1662C177.544 23.0942 177.631 23.008 177.688 22.9076C177.745 22.8073 177.779 22.7056 177.792 22.6027C177.805 22.4998 177.811 22.4174 177.811 22.3557V21.9466C177.765 21.9877 177.709 22.0199 177.642 22.043C177.575 22.0662 177.5 22.0855 177.418 22.1009C177.335 22.1164 177.25 22.1292 177.163 22.1395C177.076 22.1498 176.988 22.1627 176.901 22.1781C176.813 22.1936 176.731 22.2142 176.654 22.2399C176.576 22.2656 176.508 22.3004 176.449 22.3441C176.39 22.3878 176.342 22.4432 176.306 22.5101C176.27 22.577 176.252 22.6619 176.252 22.7648C176.252 22.8677 176.27 22.9513 176.306 23.0157C176.342 23.08 176.391 23.1315 176.453 23.1701C176.515 23.2087 176.587 23.2357 176.669 23.2511C176.751 23.2666 176.836 23.2743 176.924 23.2743Z" fill="white"/>
<path d="M216 29.7598H60.4805V56.6398H216V29.7598Z" fill="#C32420"/>
<path fill-rule="evenodd" clip-rule="evenodd" d="M81.1139 53.132L81.5994 53.7601H76.1467L69.1718 44.5964L67.7049 46.2442V53.7601H63.3594V33.1201H67.7049V41.3877L75.4271 33.1201H80.8521L72.3271 41.7635L81.1139 53.132L88.5848 33.1201H93.1795L100.799 53.7601H96.1476L94.6065 49.1638H86.9866L85.3885 53.7601H80.8794L81.1139 53.132ZM93.4364 45.7816L90.8679 38.2079H90.8108L88.1567 45.7816H93.4364ZM111.211 45.9262C110.717 46.0418 110.12 46.1671 109.418 46.302C108.716 46.4369 107.985 46.5043 107.226 46.5043C105.993 46.5043 104.902 46.3791 103.953 46.1285C103.005 45.878 102.208 45.4685 101.563 44.9C100.918 44.3314 100.429 43.5895 100.097 42.6741C99.7654 41.7587 99.5994 40.6361 99.5994 39.3064V33.1201H104.039V39.3642C104.039 40.6168 104.385 41.4937 105.077 41.9948C105.77 42.4958 106.666 42.7464 107.767 42.7464C108.488 42.7464 109.161 42.6885 109.788 42.5729C110.414 42.4573 110.888 42.3609 111.211 42.2838V33.1201H115.679V53.7601H111.211V45.9262ZM119.033 33.1201H134.409V36.9359H123.554V41.3588H133.516V44.8855H123.554V49.9443H134.639V53.7601H119.033V33.1201ZM142.273 53.416C141.054 52.8666 140.021 52.11 139.177 51.1462C138.332 50.1823 137.685 49.0498 137.234 47.7486C136.784 46.4474 136.559 45.045 136.559 43.5413C136.559 42.0184 136.784 40.592 137.234 39.2618C137.685 37.9317 138.332 36.7751 139.177 35.7919C140.021 34.8088 141.054 34.0377 142.273 33.4787C143.493 32.9197 144.882 32.6401 146.44 32.6401C147.528 32.6401 148.57 32.804 149.564 33.1317C150.559 33.4594 151.446 33.9365 152.225 34.563C153.003 35.1895 153.646 35.9654 154.153 36.8907C154.66 37.816 154.979 38.8763 155.11 40.0715H150.831C150.756 39.551 150.587 39.0739 150.324 38.6401C150.062 38.2064 149.733 37.8257 149.339 37.498C148.945 37.1703 148.499 36.9148 148.002 36.7317C147.505 36.5486 146.984 36.457 146.44 36.457C145.445 36.457 144.6 36.6546 143.906 37.0498C143.212 37.445 142.649 37.9751 142.217 38.6401C141.785 39.3052 141.471 40.0618 141.274 40.91C141.077 41.7582 140.978 42.6353 140.978 43.5413C140.978 44.4088 141.077 45.2522 141.274 46.0715C141.471 46.8907 141.785 47.6281 142.217 48.2835C142.649 48.9389 143.212 49.4642 143.906 49.8594C144.6 50.2546 145.445 50.4522 146.44 50.4522C147.791 50.4522 148.847 50.0281 149.607 49.1799C150.367 48.3317 150.831 47.2136 151 45.8257H155.279C155.166 47.1365 154.875 48.3076 154.406 49.3389C153.937 50.3703 153.318 51.2522 152.548 51.9847C151.779 52.7172 150.878 53.2763 149.846 53.6618C148.814 54.0474 147.678 54.2401 146.44 54.2401C144.882 54.2401 143.493 53.9654 142.273 53.416ZM162.057 36.9359H155.999V33.1201H172.559V36.9359H166.501V53.7601H162.057V36.9359ZM174.239 33.1201H183.813C184.782 33.1201 185.665 33.2069 186.463 33.3803C187.261 33.5538 187.945 33.838 188.515 34.2331C189.085 34.6281 189.526 35.1533 189.84 35.8085C190.153 36.4638 190.31 37.2732 190.31 38.2368C190.31 39.2775 190.077 40.1447 189.612 40.8385C189.146 41.5322 188.458 42.1007 187.546 42.544C188.8 42.9102 189.735 43.5509 190.353 44.4664C190.97 45.3818 191.279 46.4851 191.279 47.7763C191.279 48.8169 191.079 49.7179 190.68 50.4791C190.282 51.2404 189.745 51.8619 189.071 52.3437C188.396 52.8255 187.627 53.182 186.762 53.4132C185.898 53.6445 185.01 53.7601 184.098 53.7601H174.239V33.1201ZM183.5 50.2334C183.937 50.2334 184.355 50.1901 184.754 50.1033C185.152 50.0166 185.504 49.8721 185.808 49.6697C186.112 49.4674 186.354 49.1927 186.534 48.8458C186.715 48.499 186.805 48.0557 186.805 47.5161C186.805 46.4562 186.511 45.6997 185.922 45.2469C185.333 44.794 184.554 44.5675 183.585 44.5675H178.713V50.2334H183.5ZM183.243 41.4744C184.041 41.4744 184.697 41.2817 185.209 40.8963C185.722 40.5108 185.979 39.8845 185.979 39.0173C185.979 38.5355 185.893 38.1404 185.722 37.8321C185.551 37.5237 185.323 37.2828 185.038 37.1094C184.754 36.9359 184.426 36.8155 184.055 36.748C183.685 36.6806 183.3 36.6469 182.901 36.6469H178.713V41.4744H183.243ZM202.623 54.2401C201.061 54.2401 199.669 53.9654 198.447 53.416C197.224 52.8666 196.189 52.11 195.343 51.1462C194.496 50.1823 193.848 49.0498 193.396 47.7486C192.945 46.4474 192.719 45.045 192.719 43.5413C192.719 42.0184 192.945 40.592 193.396 39.2618C193.848 37.9317 194.496 36.7751 195.343 35.7919C196.189 34.8088 197.224 34.0377 198.447 33.4787C199.669 32.9197 201.061 32.6401 202.623 32.6401C204.165 32.6401 205.553 32.9197 206.785 33.4787C208.017 34.0377 209.056 34.8088 209.903 35.7919C210.749 36.7751 211.398 37.9317 211.849 39.2618C212.301 40.592 212.527 42.0184 212.527 43.5413C212.527 45.045 212.301 46.4474 211.849 47.7486C211.398 49.0498 210.749 50.1823 209.903 51.1462C209.056 52.11 208.017 52.8666 206.785 53.416C205.553 53.9654 204.165 54.2401 202.623 54.2401ZM202.623 50.4522C203.62 50.4522 204.466 50.2546 205.162 49.8594C205.858 49.4642 206.423 48.9389 206.855 48.2835C207.288 47.6281 207.603 46.8907 207.8 46.0715C207.998 45.2522 208.097 44.4088 208.097 43.5413C208.097 42.6353 207.998 41.7582 207.8 40.91C207.603 40.0618 207.288 39.3052 206.855 38.6401C206.423 37.9751 205.858 37.445 205.162 37.0498C204.466 36.6546 203.62 36.457 202.623 36.457C201.626 36.457 200.779 36.6546 200.083 37.0498C199.387 37.445 198.823 37.9751 198.39 38.6401C197.958 39.3052 197.643 40.0618 197.445 40.91C197.248 41.7582 197.149 42.6353 197.149 43.5413C197.149 44.4088 197.248 45.2522 197.445 46.0715C197.643 46.8907 197.958 47.6281 198.39 48.2835C198.823 48.9389 199.387 49.4642 200.083 49.8594C200.779 50.2546 201.626 50.4522 202.623 50.4522Z" fill="white"/>
</g>
<defs>
<clipPath id="clip0_115_247">
<rect width="216" height="57" fill="white"/>
</clipPath>
</defs>
</svg>
