<svg width="202" height="118" viewBox="0 0 202 118" fill="none" xmlns="http://www.w3.org/2000/svg">
<path fill-rule="evenodd" clip-rule="evenodd" d="M65.2653 40.001C63.8886 40.001 62.1301 41.0223 62.1301 43.3674C62.1301 44.309 62.4109 45.1441 63.0309 45.7839C63.362 46.1304 64.0076 46.6544 65.2395 46.6544C66.412 46.6544 67.2193 46.2547 67.678 46.0237V43.2787H65.3757V44.1497H66.4969V45.597C66.2166 45.7125 65.9112 45.8373 65.452 45.8373C64.0501 45.8373 63.4216 44.4155 63.4216 43.261C63.4216 41.7951 64.3559 40.8362 65.605 40.8362C65.9871 40.8362 66.2932 40.9248 66.5821 41.1202C66.9304 41.3421 67.0494 41.5559 67.1427 41.7156L67.4744 41.5822C67.4235 41.3687 67.3466 41.0314 67.0149 40.6758C66.5648 40.1878 65.911 40.001 65.2653 40.001ZM94.0641 40.0015C91.83 40.0015 91.1329 41.8221 91.1329 43.3944C91.1329 44.8512 91.8301 46.6544 94.0561 46.6544C96.384 46.6544 97.0378 44.7447 97.0378 43.3145C97.0378 41.9465 96.4348 40.01 94.0641 40.0015ZM134.887 40.1874V46.4676H138.999V45.6151H136.102V43.6519H138.327V42.7902H136.102V41.0495H138.642V40.1874L134.887 40.1874ZM121.441 40.1878V46.4681H122.656V43.6784C122.852 43.7055 123.073 43.7411 123.31 43.7411C124.61 43.7411 125.672 43.0389 125.672 41.8397C125.672 41.1914 125.307 40.1878 123.718 40.1878L121.441 40.1878ZM77.3709 40.1967V46.4676H78.5856V43.696C78.9254 43.7674 78.9934 43.7676 79.2908 43.7676L80.82 46.4676H82.1799L80.506 43.492C80.7525 43.3589 81.0326 43.2073 81.2791 42.8167C81.5084 42.4526 81.5509 42.0972 81.5509 41.8662C81.5509 41.4217 81.3891 40.8539 80.9052 40.5164C80.5569 40.2764 80.1405 40.1967 79.5028 40.1967L77.3709 40.1967ZM106.535 40.1967V44.0869C106.535 45.2329 106.713 45.7218 107.078 46.1125C107.427 46.4766 107.911 46.6637 108.549 46.6637C108.761 46.6637 109.245 46.628 109.67 46.3528C109.934 46.1841 110.112 45.9614 110.291 45.7304V46.4676H111.497V40.1967H110.291V45.1262C110.095 45.3396 109.636 45.8285 108.931 45.8285C108.472 45.8285 108.107 45.6061 107.911 45.1531C107.843 44.9935 107.759 44.7267 107.759 44.1673V40.1967L106.535 40.1967ZM94.073 40.8358C94.9566 40.8267 95.7379 41.4937 95.7379 43.3503C95.7379 43.7761 95.738 45.8197 94.073 45.8197C92.4589 45.8197 92.4497 43.7055 92.4497 43.2169C92.4497 41.8223 93.0109 40.8448 94.073 40.8358ZM122.991 41.0458C123.3 41.0466 123.534 41.0648 123.744 41.1379C124.169 41.2896 124.398 41.6445 124.398 42.1065C124.398 42.5328 124.177 42.8795 123.727 43.0839C123.345 43.2612 122.996 43.2698 122.656 43.2698V41.0496C122.777 41.0473 122.888 41.0456 122.991 41.0458ZM79.0873 41.0584C79.3252 41.0584 79.6054 41.0757 79.8519 41.2178C80.2763 41.4579 80.302 41.9193 80.302 42.0614C80.302 42.6661 79.8939 42.9764 79.5879 43.11C79.2568 43.2521 78.9173 43.2524 78.5856 43.2615V41.0668C78.7389 41.0668 78.9254 41.0584 79.0873 41.0584ZM151.678 50.9867C150.158 50.9867 148.927 51.9272 148.927 53.0875C148.927 54.2484 150.158 55.1884 151.678 55.1884C153.198 55.1884 154.43 54.2484 154.43 53.0875C154.43 51.9272 153.198 50.9867 151.678 50.9867ZM76.9497 51.7973C68.5536 51.9157 65.1551 56.5911 65.0814 60.0835C64.9683 65.4477 69.9616 68.6181 76.42 68.7523C84.2213 68.9141 86.3975 65.2649 86.703 64.7886C86.703 64.7886 85.7726 64.4739 85.3417 64.3749C84.7115 64.9753 82.5778 66.8646 78.4055 66.7778C72.6046 66.6576 70.1046 63.1977 70.1716 60.0184C70.2365 56.9249 73.2641 53.6796 78.7648 53.794C83.0513 53.8834 84.934 55.4416 85.7212 56.0543L86.826 55.2005C84.3819 52.5588 80.1787 51.8501 77.778 51.8001C77.4967 51.7942 77.2206 51.7935 76.9497 51.7973ZM167.742 51.8145C163.15 51.8596 159.19 53.5132 159.19 56.7073C159.19 63.1828 171.97 59.9101 171.97 64.1667C171.97 66.0727 169.359 66.9321 166.254 66.8406C162.745 66.7368 160.065 65.2976 159.677 63.6912C159.299 63.6326 158.32 63.6608 158.086 63.6619C158.082 65.7234 160.343 68.5111 166.794 68.7597C174.391 69.0524 176.92 65.9535 176.92 63.8553C176.92 56.9917 163.894 60.08 164.027 56.3062C164.09 54.5188 166.264 53.6826 169.749 53.8061C171.896 53.8822 173.94 54.4739 175.389 55.6369L176.338 54.6627C175.135 53.3512 172.502 51.9665 168.668 51.827C168.357 51.8157 168.048 51.8115 167.742 51.8145ZM24.8789 52.2988V68.3047L36.3865 68.3023C38.5037 68.3183 40.1375 67.2109 40.6723 66.0606L29.7749 66.0601V52.2988H24.8789ZM52.6267 52.2988L41.1576 68.3047L42.5834 68.3023C44.968 68.2539 46.1815 67.1566 46.6788 66.4232L47.799 64.7676H57.7965L58.8821 66.3702C59.9228 67.943 61.8975 68.3023 62.9869 68.3023L65.3972 68.3047L54.3048 52.2988H52.6267ZM87.9757 52.2988V54.4982H94.5915V68.3047H99.488V54.4982L102.42 54.4958C104.532 54.5437 106.277 53.2488 106.643 52.2987L87.9757 52.2988ZM115.158 52.2988L103.689 68.3047L105.115 68.3023C107.5 68.2539 108.713 67.1566 109.211 66.4232L110.332 64.7676H120.329L121.414 66.3702C122.454 67.943 124.429 68.3023 125.518 68.3023L127.929 68.3047L116.836 52.2988H115.158ZM130.704 52.2988V68.3047L142.212 68.3023C144.329 68.3183 145.962 67.2109 146.498 66.0606L135.6 66.0601V52.2988H130.704ZM154.13 55.9622L149.232 55.9897L149.233 68.3024H154.129L154.13 55.9622ZM52.7297 57.4677L56.3244 62.6594H49.2374L52.7297 57.4677ZM115.262 57.4677L118.856 62.6594H111.769L115.262 57.4677Z" fill="#003A80"/>
<path fill-rule="evenodd" clip-rule="evenodd" d="M96.0208 30.4446C49.1125 30.2611 11.8105 41.7278 11.8105 56.6786C11.8105 62.0752 16.0983 64.8331 16.0983 60.8677C16.0983 46.4353 51.5513 32.6688 102.542 33.6823C126.084 34.1501 145.289 36.045 159.557 39.4531C162.725 40.2099 163.528 39.9476 160.647 39.0566C144.84 34.1704 123.751 30.9593 100.589 30.4989C99.057 30.4685 97.534 30.4505 96.0208 30.4446ZM186.967 54.785C186.392 54.8357 185.973 55.4185 185.973 56.6576C185.973 71.09 150.52 84.8565 99.5285 83.8431C75.9869 83.3752 56.7825 81.4804 42.5143 78.0718C39.3462 77.3154 38.5431 77.5777 41.4245 78.4687C57.2318 83.3549 78.321 86.5655 101.482 87.0259C150.514 88 190.26 76.2793 190.26 60.8468C190.26 57.1366 188.234 54.6734 186.967 54.785Z" fill="#84D0F0"/>
</svg>
