<svg width="202" height="118" viewBox="0 0 202 118" fill="none" xmlns="http://www.w3.org/2000/svg">
<path d="M22.591 28.8602L69.5831 28.8281C73.3169 29.0601 76.1882 31.7632 76.5503 35.4753V82.7209C76.3332 86.0369 73.8572 88.7401 70.5964 89.3379C54.6676 89.6188 38.6943 89.3737 22.7484 89.4614C19.1672 89.2596 16.2836 86.5366 15.877 83.0019L15.8817 35.2914C16.2599 31.8226 19.0904 29.094 22.591 28.8592V28.8602ZM47.7289 49.1024C48.1478 46.6604 48.3696 44.1166 47.7421 41.6896C46.2984 36.1042 40.7512 33.2567 35.3206 32.8004C34.5433 36.157 34.9206 39.9048 36.6581 42.9088C38.9123 46.8065 43.3713 48.6951 47.7289 49.1014V49.1024ZM24.6006 71.7319V72.0138L24.9248 71.8177L27.634 71.8262V62.9633H38.6298C38.7047 65.7221 38.5284 68.5036 38.6298 71.2605C38.6355 71.417 38.626 71.5754 38.6298 71.7319C38.6402 71.8582 38.7672 71.8243 38.862 71.83C39.7701 71.8903 40.7474 71.7781 41.6631 71.8243L41.5683 71.731L41.6157 68.3357C43.6756 72.8878 49.4607 72.7973 52.9121 69.8584L54.7918 71.8252H57.4933C57.535 71.6593 57.4232 71.6367 57.3512 71.5424C56.6478 70.6165 54.6524 68.2141 53.7965 67.5824C53.7642 67.5579 53.7386 67.5117 53.7017 67.4881C53.5813 67.1911 53.2979 66.8856 53.0874 66.6376C51.239 64.4596 48.9555 62.2288 47.2577 59.9905C45.7572 58.0124 45.1572 54.8095 48.2985 54.2881V52.4024C45.25 52.4278 43.0822 55.3328 43.9381 58.2481C43.9429 58.3094 43.9305 58.3763 43.9381 58.4367C44.0642 59.3852 44.7818 60.2545 45.1704 61.0757C44.2917 61.4915 43.213 62.1138 42.7058 62.9624C42.6727 62.9662 42.6357 62.9539 42.611 62.9624C42.3835 63.0388 41.7674 64.2004 41.6631 64.471C41.6461 64.5143 41.6745 64.6001 41.6622 64.6595L41.5683 64.5652V52.3072L38.7672 52.3053L38.6298 52.4024V60.1338H27.633C27.5269 59.224 27.8131 52.6768 27.5392 52.4024C27.4472 52.3109 27.4444 52.3166 27.3117 52.3034C26.4614 52.2176 25.467 52.3779 24.5997 52.3081V71.7319H24.6006ZM50.2892 52.4033C50.1631 52.5287 50.201 52.5721 50.1887 52.7248C49.9839 55.2668 50.3536 58.0812 50.1934 60.6533L50.2882 60.6062C51.2883 61.6066 52.1414 62.755 53.1035 63.7893C53.1708 63.8619 53.1329 63.9562 53.3216 63.9062L53.4173 57.8728L53.9851 58.249L65.9762 71.8262H68.2038V52.309H65.1705V66.6405L52.6381 52.3298C52.2106 52.3571 50.51 52.1827 50.2882 52.4033H50.2892Z" fill="#0163B4"/>
<path d="M85.834 82.1955V62.5894H88.2509C88.2606 62.7839 88.3331 62.9591 88.4362 63.1214C91.3784 67.7497 94.5768 72.2237 97.4352 76.8923C97.5077 77.0096 97.8106 77.1108 97.7607 77.3728C97.8815 77.4676 98.0797 77.0465 98.0797 76.9726V62.9912C98.0797 62.9462 98.2457 62.6168 98.352 62.583L100.337 62.5878L100.174 82.3563C99.4992 82.2711 98.6066 82.5877 98.0749 82.12L88.7069 68.0004L88.2509 67.732L88.0914 82.1972H85.834V82.1955Z" fill="#0663B3"/>
<path d="M187.742 48.1738L184.838 52.9006L188.871 57.461H186.049L183.307 54.742C176.975 62.0821 167.625 53.6244 175.957 47.2707C174.204 45.0433 172.142 43.2403 173.625 40.1612C175.412 36.4463 181.034 36.6304 182.309 40.68C183.288 43.7896 180.92 45.3828 179.196 47.4484L182.996 51.2097C183.213 51.2674 183.263 51.0864 183.363 50.9503C183.978 50.1225 184.375 48.9696 185.081 48.1738H187.742ZM177.542 39.7208C174.033 40.2236 175.483 44.5822 177.8 45.7591C179.291 44.7743 181.067 42.7568 179.978 40.9121C179.471 40.0555 178.542 39.5783 177.544 39.7208H177.542ZM181.186 52.6012C180.668 52.0536 178.181 48.9648 177.662 48.968C171.846 52.9006 177.102 58.4505 181.865 53.4546C182.086 53.0207 181.391 52.8158 181.186 52.5996V52.6012Z" fill="#0C65B0"/>
<path d="M100.502 46.084V37.4082H103.085V57.2501L102.83 57.4734L100.502 57.3304V48.5743L100.26 48.3333H90.9759C91.0276 48.4907 90.8145 48.6819 90.8145 48.7349V57.4911L88.3926 57.3304V37.4082H90.7337C90.8145 37.4082 91.0001 37.6733 90.9808 37.8083L90.8096 45.6743C90.7951 45.8109 90.9678 46.084 91.0566 46.084H100.502Z" fill="#0864AF"/>
<path d="M119.336 51.3815H108.879C109.307 54.5802 112.89 56.484 115.621 54.5077C115.827 54.3579 116.458 53.6364 116.52 53.6364H119.014C117.249 58.6149 110.15 58.8726 107.463 54.49C104.407 49.5051 107.711 42.2878 113.929 43.0238C117.782 43.4796 120.113 47.7591 119.336 51.3815ZM117.083 49.2876C116.255 43.9161 109.698 43.9193 108.879 49.2876H117.083Z" fill="#0A65B0"/>
<path d="M133.038 57.4226L131.257 57.349L130.778 55.9834C129.991 56.212 129.431 56.8517 128.632 57.1331C125.493 58.2382 121.437 56.7669 121.574 53.0234C121.727 48.8384 127.501 48.6529 130.62 48.6273C131.16 45.0276 125.702 43.7323 124.812 47.348H122.472C122.09 47.1113 122.353 46.5964 122.479 46.2334C123.868 42.2228 129.815 41.9429 132.206 45.2163C132.456 45.5586 133.04 46.5804 133.04 46.9482V57.4226H133.038ZM130.62 50.8645C129.071 50.8965 124.97 50.8101 124.204 52.4205C123.616 53.655 124.325 54.816 125.581 55.139C128.19 55.8075 131.207 53.6822 130.62 50.8645Z" fill="#0B64AF"/>
<path d="M162.737 48.4773C162.087 46.3068 160.799 44.8902 158.332 45.3073C157.123 45.5111 155.465 47.1891 155.465 48.397V57.4608C154.699 57.3549 153.649 57.7191 153.041 57.2202V37.4082H155.465V44.7876C158.214 41.8663 162.916 42.5722 164.543 46.2827C165.503 48.4724 165.275 53.9476 165.16 56.4983L164.839 57.1416H162.898L162.9 47.9158L162.738 48.4773H162.737Z" fill="#0A65B2"/>
<path d="M166.602 67.903C176.28 66.958 176.33 83.2152 166.718 82.4515C158.704 81.8145 158.519 68.6923 166.602 67.903ZM166.757 70.1379C161.428 70.8791 162.037 80.5214 167.517 80.2102C173.173 79.8893 172.552 69.3325 166.757 70.1379Z" fill="#0B65B0"/>
<path d="M188.68 82.2635C188.188 82.1663 186.45 82.5106 186.282 82.0021C185.99 79.2543 186.602 75.9502 186.246 73.2709C185.904 70.6952 182.909 69.2687 180.691 70.7861C180.234 71.0985 179.159 72.4214 179.159 72.9394V82.2635H176.738V68.0781L178.491 68.1004L179.082 69.5126C181.893 67.1058 186.111 67.4581 187.938 70.8052C188.135 71.1654 188.682 72.4469 188.682 72.78V82.2635H188.68Z" fill="#0864B1"/>
<path d="M104.861 68.0518H107.126V77.1033C107.126 77.1722 107.527 78.244 107.603 78.393C109.02 81.1565 113.288 80.6086 114.166 77.6672C114.281 77.2796 114.131 76.8166 114.406 76.5426C114.409 76.6419 114.328 77.2123 114.567 76.9431C114.54 74.3798 114.601 71.815 114.569 69.2517C114.566 68.9809 114.672 68.5388 114.404 68.3722C114.404 68.3626 114.186 68.3257 114.313 68.212L116.831 68.0518V82.31L114.907 82.2908L114.323 80.8713C111.236 83.7438 106.474 82.6144 105.056 78.6701C104.961 78.4026 104.705 77.5663 104.697 77.3436C104.697 77.3148 104.877 77.0937 104.87 76.8021C104.804 73.8864 104.896 70.9659 104.859 68.0518H104.861Z" fill="#0B66B3"/>
<path d="M124.005 68.0548H127.067V70.2951H124.005V78.5364C124.005 78.5924 124.48 79.4645 124.538 79.5285C125.033 80.0822 126.369 80.3911 127.067 80.0566L127.046 82.0345C125.644 83.0939 123.331 82.0857 122.42 80.7495C122.232 80.4743 121.589 79.1077 121.589 78.8548V70.2935H119.01V68.0532C119.764 68.0228 120.994 68.2388 121.506 67.5715C121.576 67.4819 121.911 66.741 121.911 66.693V64.2126C122.58 64.3054 123.494 63.9726 124.006 64.4527V68.0532L124.005 68.0548Z" fill="#0A65B1"/>
<path d="M149.059 64.3092V68.0031H152.282V70.2515H149.22C149.146 70.5454 149.075 70.8185 149.051 71.1268C148.92 72.773 148.94 75.4262 149.051 77.0852C149.193 79.1923 149.87 80.6378 152.28 80.0499L152.259 82.035C150.532 83.2492 147.987 81.7555 147.206 80.0483C146.983 79.5617 146.642 78.2078 146.642 77.7196V70.2515H144.225V68.0031C144.871 68.1027 146.964 68.032 146.964 67.1198V64.3895L147.198 64.1855L149.059 64.3092Z" fill="#0864B1"/>
<path d="M142.298 45.4548C142.483 45.0278 142.005 44.9734 141.981 44.8647C141.888 44.4361 142.035 43.8364 141.976 43.3759C143.03 43.3855 144.188 43.6094 144.588 42.4612C144.635 42.3908 144.857 42.4308 144.857 42.4164V39.5379C147.244 39.1205 146.26 41.1451 146.449 42.6627C146.485 42.9585 146.804 43.9068 147.093 43.6925C147.113 43.6781 147.06 43.467 147.129 43.4175C147.234 43.3423 148.831 43.3311 149.106 43.3631C149.402 43.3983 149.344 43.8604 149.816 43.6957C149.819 43.8029 149.813 43.9084 149.816 44.0156C149.528 44.1691 149.72 44.612 149.646 44.8551C149.427 45.5827 148.205 45.0726 147.736 45.4548C147.631 45.4596 147.522 45.4452 147.416 45.4548V44.975L146.877 44.9686C146.703 45.0102 146.661 45.4548 146.617 45.6163C146.572 45.7778 146.474 45.8338 146.445 46.1568C146.23 48.5987 146.637 51.3605 146.449 53.8375C146.477 54.0278 146.738 53.8983 146.777 53.9319C147.028 54.1382 147.009 54.4036 147.145 54.5236C148.023 55.2992 148.666 55.28 149.816 55.2096L149.794 57.2661C148.14 57.7874 146.479 57.4052 145.331 56.0891C145.214 55.9548 145.225 55.7597 145.177 55.6894C145.439 55.1121 144.871 54.8322 144.859 54.781C144.806 54.5396 144.911 54.2565 144.859 54.0342C144.819 53.8631 144.535 53.9479 144.535 53.9303V45.2949L142.616 45.4548C142.51 45.4484 142.4 45.4676 142.296 45.4548H142.298Z" fill="#0764B2"/>
<path d="M137.116 67.8705V70.2735C135.681 70.1502 134.144 70.6853 133.307 71.8852C133.192 72.0518 132.729 72.9698 132.729 73.0771V82.289H130.291V68.0307L132.056 68.0531L132.649 69.4757C133.978 68.5049 135.394 67.7743 137.116 67.8721V67.8705Z" fill="#0864B1"/>
<path d="M137.396 37.4082L139.037 37.572V57.1682L137.173 57.1714C137.001 57.1505 137.132 56.4582 136.736 57.1682V37.4082H139.201V57.4911H136.736V37.8933L136.905 38.5358H137.066L137.068 37.4082H137.396Z" fill="#0A67B5"/>
<path d="M157.686 68.0518H155.316V82.2889H157.686V68.0518Z" fill="#0D67B2"/>
<path d="M139.391 68.0518H141.95V82.2889H139.391V68.0518ZM139.711 68.3717V82.1289H141.63V69.0116C140.747 68.9684 141.848 68.6116 141.63 68.3733C141.397 68.1189 140.086 68.1973 139.711 68.3717Z" fill="#337BA8"/>
<path d="M97.3984 76.8218C97.8963 76.9116 97.7183 76.5764 97.7281 76.2685C97.8864 71.6855 97.5913 67.0769 97.7512 62.4922L97.8831 62.2998L100.46 62.38C100.397 68.7718 100.791 75.3449 100.532 81.7191C100.519 82.0302 100.704 82.3621 100.203 82.2739L100.369 62.5484L98.3381 62.5436C98.2293 62.5756 98.0595 62.906 98.0595 62.9509V76.902C98.0595 76.9757 97.8567 77.3959 97.7331 77.3012C97.7858 77.0399 97.4743 76.9388 97.4001 76.8218H97.3984Z" fill="#4F7DA3"/>
<path d="M156.595 65.5997C157.459 65.5997 158.159 64.9032 158.159 64.044C158.159 63.1848 157.459 62.4883 156.595 62.4883C155.732 62.4883 155.031 63.1848 155.031 64.044C155.031 64.9032 155.732 65.5997 156.595 65.5997Z" fill="#1166AB"/>
<path d="M140.67 65.5997C141.533 65.5997 142.234 64.9032 142.234 64.044C142.234 63.1848 141.533 62.4883 140.67 62.4883C139.806 62.4883 139.105 63.1848 139.105 64.044C139.105 64.9032 139.806 65.5997 140.67 65.5997Z" fill="#1166AB"/>
<path d="M142.284 45.4225C142.038 45.3919 141.772 45.4822 141.666 45.1579L141.714 43.1543C141.959 42.7994 143.537 43.2624 144.164 42.6365C144.202 42.5978 144.528 41.9945 144.528 41.9557V39.2939L146.692 39.4472L146.784 42.9914L149.817 43.0027C149.822 43.2173 149.81 43.4334 149.817 43.648C149.344 43.8158 149.402 43.3479 149.105 43.3124C148.83 43.2802 147.231 43.2915 147.125 43.3673C147.058 43.4157 147.109 43.6302 147.09 43.6448C146.8 43.8625 146.481 42.9059 146.444 42.6059C146.253 41.0749 147.24 39.031 144.85 39.4537V42.3574C144.85 42.3719 144.627 42.3316 144.581 42.4026C144.182 43.5609 143.02 43.335 141.964 43.3253C142.023 43.79 141.876 44.3949 141.969 44.8272C141.993 44.9369 142.472 44.9934 142.286 45.4225H142.284Z" fill="#337BA8"/>
<path d="M137.396 37.4082H139.201V57.4895L136.736 57.4911V57.1682C137.132 56.4599 137.001 57.1505 137.173 57.1714L139.037 57.1682V37.572L137.396 37.4082Z" fill="#226188"/>
<path d="M142.613 45.3954L144.55 45.2344V53.929C144.55 53.9467 144.836 53.8613 144.877 54.0336C144.928 54.2574 144.822 54.5424 144.877 54.7855C144.888 54.8387 145.463 55.1188 145.198 55.7001C144.697 54.9852 144.331 54.47 144.228 53.5281C143.96 51.0759 144.423 48.168 144.236 45.6643C144.153 45.3117 142.914 45.4163 142.615 45.3954H142.613Z" fill="#337BA8"/>
<path d="M88.2969 67.6738L88.2986 82.2881L85.834 82.1259L88.1344 82.1275L88.2969 67.6738Z" fill="#226188"/>
<path d="M162.712 48.4382L162.876 47.874V57.143H164.843L165.169 56.4966C165.164 56.603 165.182 56.7142 165.169 56.819L165.005 57.3026H162.709V48.4366L162.712 48.4382Z" fill="#2B5779"/>
<path d="M104.697 77.2918L104.874 68.0518C104.915 70.948 104.814 73.8538 104.887 76.7533C104.894 77.0432 104.696 77.2647 104.697 77.2918Z" fill="#2B5779"/>
<path d="M146.783 53.8957C146.745 53.8639 146.496 53.9913 146.47 53.8017C146.65 51.3323 146.26 48.581 146.466 46.1498C146.494 45.828 146.589 45.7691 146.63 45.6113L146.783 53.8957Z" fill="#226188"/>
<path d="M114.396 68.334C114.629 68.5012 114.536 68.9433 114.539 69.2167C114.567 71.7892 114.512 74.3633 114.538 76.9358C114.328 77.2075 114.398 76.6351 114.397 76.5338C114.337 73.8134 114.377 71.056 114.397 68.334H114.396Z" fill="#226188"/>
<path d="M149.813 44.0088C149.829 44.4766 149.801 44.9507 149.813 45.4185C149.124 45.4373 148.422 45.3903 147.732 45.4185C148.201 45.0461 149.423 45.5452 149.642 44.8318C149.715 44.5924 149.523 44.1606 149.811 44.0104L149.813 44.0088Z" fill="#337BA8"/>
<path d="M146.596 45.6112C146.643 45.4466 146.688 44.9935 146.874 44.9512L147.449 44.9577V45.4466C147.15 45.471 146.872 45.4172 146.596 45.6095V45.6112Z" fill="#337BA8"/>
<path d="M137.115 37.4082L137.114 38.5396H136.93L136.736 37.8949V37.4082H137.115Z" fill="#226188"/>
<path d="M164.984 57.3025L165.171 56.8311C165.147 57.0023 165.259 57.2192 164.984 57.3025Z" fill="#0A65B2"/>
<path d="M27.5392 52.4041V60.2308L38.6298 60.1356V52.4041H41.285L41.2793 64.5151L41.5693 64.567L41.6632 64.6613C41.6755 64.6028 41.648 64.5161 41.6641 64.4727H42.4215C42.3381 64.1031 42.5808 64.0465 42.8026 63.84L42.612 62.9641C42.6367 62.9556 42.6736 62.9679 42.7068 62.9641C43.123 62.9113 43.5296 63.0245 43.9391 63.0575V62.7756H43.4652V62.3994C44.0225 62.6473 44.5591 61.4574 44.8813 61.3971C45.1534 61.3462 45.1297 61.5376 45.269 61.5951C45.6169 61.7394 46.2037 61.5951 46.5942 61.6441C46.6018 61.5828 46.5857 61.5159 46.5942 61.4556C46.7194 61.449 46.8473 61.4612 46.9725 61.4556V61.2679H46.5942C46.5857 61.3292 46.6018 61.3962 46.5942 61.4565C46.2179 61.4763 45.8331 61.4424 45.4567 61.4565C45.2804 61.1802 45.671 60.3807 45.6406 60.3307C45.634 60.3194 45.5288 60.3307 45.4965 60.2902C45.1411 59.8329 45.0614 59.9998 44.5221 59.8414C44.3998 59.5576 44.6491 59.3596 44.6946 59.1408C44.8311 58.4874 44.6358 58.7128 44.3941 58.6242C44.3031 58.5902 44.2614 58.3121 43.942 58.4384C43.9344 58.3781 43.9467 58.3111 43.942 58.2498C43.923 58.0085 43.8984 57.3768 43.959 57.1825C44.0235 56.977 44.2614 56.976 44.2993 56.9091C44.3543 56.8129 44.2993 56.6413 44.3439 56.5329C44.4614 56.2529 44.6927 56.1671 44.5098 55.7984C44.9003 55.8371 44.9363 56.2444 44.8889 56.5527H44.5079L44.5164 56.9214L45.0766 57.0232L45.2671 55.4203H44.5079C44.397 55.1526 44.6804 55.1469 44.6956 55.0743C44.7344 54.8914 44.6775 54.6679 44.6956 54.4765C45.3638 54.6613 45.3003 53.892 45.8084 53.743C46.1497 53.643 45.8909 53.9702 46.2132 53.9099C45.8283 52.4588 46.9156 53.2499 47.7308 53.1556V53.7222L47.0606 53.7628C46.8767 53.891 47.1241 55.0771 46.2141 54.6651V55.4194H45.4548C45.3316 55.8248 45.7259 56.2265 45.6454 56.5829C45.6274 56.663 45.4368 56.6112 45.4444 56.7846C45.4577 57.108 46.0056 57.7699 45.2662 57.966C45.2984 57.719 45.2055 57.389 44.887 57.4003C44.7799 57.7633 44.6027 57.9613 44.6965 58.4375H46.2141C46.2568 58.478 46.1715 59.0607 46.2141 59.2238C46.234 59.3002 46.4084 59.2766 46.4075 59.3341C46.4037 59.4935 46.1108 59.6896 46.2151 59.946L46.6397 59.5689C46.6833 59.913 46.8303 59.9234 47.162 59.947C47.2521 60.0441 46.8179 60.3449 47.0132 60.6126L47.7317 60.6994C47.7147 60.8597 47.7659 61.0548 47.7327 61.2048C47.7109 61.3038 47.4417 61.2076 47.5422 61.4537H48.4901C48.291 62.3164 49.1422 62.0807 49.438 62.7284C49.0114 62.8368 49.3659 63.2696 49.346 63.4733C49.3422 63.511 48.8711 63.7043 49.0588 64.0937H49.437C49.4598 63.9362 49.3982 63.7344 49.4351 63.5902C49.4626 63.4865 49.6143 63.5402 49.6266 63.528C49.6399 63.5148 49.6067 63.4063 49.6399 63.3582L49.9157 63.3809L50.0048 64.2822L50.5328 64.3699L50.5745 65.3184L50.9376 65.2091C50.9802 65.1374 50.9129 64.1889 51.1423 64.4708L51.0475 65.2242L51.4798 65.3137L51.658 65.8955L52.2628 65.9964L52.2798 67.1108L53.0372 66.7346V67.3003C52.9775 67.3607 52.5661 67.1523 52.659 67.488H53.3225L53.368 67.2994C53.4259 67.5898 53.6373 67.4493 53.7008 67.4889C53.7377 67.5125 53.7633 67.5587 53.7956 67.5832C53.8117 67.7595 53.7453 67.9566 53.8259 68.1253C53.8638 68.2045 54.0799 68.1376 53.8903 68.6203H54.7425L54.3634 68.9975C54.8316 68.8117 54.7842 69.3878 54.9605 69.5302C55.0686 69.6179 55.3558 69.6867 55.5009 69.7536C55.5994 70.0148 55.1757 69.8866 55.3141 70.127C55.3615 70.209 55.9189 70.3986 55.9777 70.4561C56.1881 70.6663 56.262 71.4084 55.7587 71.2566C55.6961 71.2377 55.6374 70.9756 55.407 71.0708L55.5018 70.6956L55.1719 70.8822C54.8108 70.2477 54.5567 70.5532 53.9861 70.6946V70.3156L53.606 70.3175C53.605 70.161 53.6079 70.0026 53.606 69.8451C53.6581 69.8574 53.7339 69.8394 53.7956 69.8451V69.3737H53.6069C53.6069 69.5302 53.606 69.6876 53.6069 69.8451C53.388 69.7923 53.424 69.5594 53.4135 69.3774L52.66 69.3737L53.0382 69.7499C52.823 69.7791 52.5471 69.7037 52.3462 69.7527C52.2865 69.7668 52.2988 69.8809 52.204 69.9328C52.1443 69.9658 51.9822 69.9036 51.9187 69.9545C51.8447 70.0139 51.9026 70.3241 51.4476 70.4759C50.7584 70.7059 50.4627 70.3524 49.8162 70.3156L50.0067 70.6494L50.384 70.5966C50.2826 71.0048 50.6475 70.8313 50.7632 71.068C50.1385 70.9284 49.9461 71.612 49.2465 71.447V70.8804H48.583V71.2594L47.7441 71.2462C47.3933 70.6937 48.1014 70.7116 48.1109 70.458L47.7308 70.2222C48.0066 70.2977 48.3735 69.9384 48.5394 69.9375C48.6683 69.9375 49.1214 70.4674 49.437 70.1261C49.6162 69.9328 49.1091 69.9733 49.2475 69.7508C49.584 69.912 49.6551 69.4491 49.8143 69.5651C49.8541 69.5943 49.8001 69.8866 50.3347 69.7565L50.5755 69.467L50.7651 69.7499V68.9956H52.2827V69.1823C52.5718 69.2417 52.5718 68.9409 52.2827 68.9956V67.487L51.5253 67.6756C51.5661 67.4814 51.3727 67.3729 51.3243 67.3088C51.3698 67.3541 51.3698 67.4276 51.3243 67.4738C51.2788 67.52 51.2049 67.5191 51.1584 67.4738C51.112 67.4286 51.1129 67.355 51.1584 67.3088C51.2039 67.2626 51.2779 67.2636 51.3243 67.3088C51.2968 67.2258 51.3698 66.9948 51.1869 66.9222L50.6712 67.1099C50.6428 67.0769 50.6058 67.0495 50.5764 67.0156C50.9167 66.827 50.7452 66.184 50.766 65.7899C50.8267 65.7814 50.894 65.7984 50.9556 65.7899V65.4137H50.767C50.7613 65.5381 50.7736 65.6654 50.767 65.7899C50.3849 65.8408 50.5707 66.282 50.3413 66.1661C50.1262 66.0576 50.3006 65.5212 49.8219 65.5928L49.8172 64.848L49.2503 64.8461L49.3441 64.4699L48.5801 64.4284L48.4815 63.8184L47.7336 63.7137V62.7708C47.271 62.8661 46.9525 62.6568 46.8777 62.2051C46.2302 62.3343 45.1051 62.0052 45.0785 62.9604L44.5107 62.7718C44.4519 63.1423 44.9079 62.7737 44.7941 63.1951C44.3733 63.3149 44.4567 63.4959 44.2946 63.6882C44.232 63.7618 44.0491 63.7788 43.9875 63.9004C43.8074 64.2558 44.3572 65.2704 43.3723 65.2232C43.286 65.5438 43.5277 65.7399 43.5675 66.0199C43.6443 66.5611 43.3798 67.2588 43.7514 67.7227C43.2718 67.9188 43.4775 68.4006 43.941 68.1451V68.8061C43.7732 68.7608 43.7543 68.9786 43.686 68.9928C43.5344 69.0229 43.3021 68.9475 43.1978 69.0097C43.1798 69.0201 42.9988 69.352 42.994 69.3718H42.4253C42.3362 69.0333 42.5836 69.1172 42.6073 69.0842C42.7457 68.8919 42.4547 68.9202 42.4272 68.8353C42.3788 68.6882 42.4841 68.46 42.2831 68.3356L42.2338 68.5194C41.9769 68.626 42.0765 68.3139 41.8945 68.2545C41.3039 68.0593 41.3219 68.4421 40.9105 68.6203L40.957 68.8089L41.2878 68.7127V70.6927H40.0555C39.9749 71.0708 40.3797 71.0491 40.4129 71.0859C40.4669 71.1472 40.4783 71.5102 40.5285 71.6346C40.082 71.7864 40.1512 71.3546 39.8953 71.2754C39.5683 71.1745 38.9976 71.3103 38.6327 71.2584C38.5313 68.5015 38.7076 65.7201 38.6327 62.9613L27.5421 62.867V71.7299H24.6035V52.3061C25.4699 52.3758 26.4652 52.2156 27.3146 52.3014C27.4473 52.3146 27.4501 52.3089 27.5421 52.4004L27.5392 52.4041ZM44.5543 58.4384V58.5327C44.6159 58.5016 44.6159 58.4695 44.5543 58.4384ZM46.2132 60.1346V60.7013H46.4028V60.1346H46.2132ZM45.4548 61.8327L44.6472 61.7403C44.7799 62.1118 44.4377 61.9449 44.5069 62.3032C44.8738 62.158 45.0558 62.1203 45.4539 62.2089V61.8327H45.4548ZM44.3164 62.3984H44.1761C44.0273 62.4984 44.0112 62.6011 44.033 62.7746H44.3164V62.3984ZM42.8481 63.1527V63.247C42.9097 63.2159 42.9097 63.1838 42.8481 63.1527ZM43.1798 63.5289V64.4727H43.3694V63.5289H43.1798ZM51.1423 65.4146V65.7927H51.331V65.4146H51.1423ZM43.1798 65.9803V66.3584H43.3685V65.9803H43.1798ZM42.9903 68.0546V68.6213H43.1798V68.0546H42.9903ZM52.8732 69.0908C52.8732 69.0267 52.8211 68.9748 52.7566 68.9748C52.6922 68.9748 52.64 69.0267 52.64 69.0908C52.64 69.1549 52.6922 69.2068 52.7566 69.2068C52.8211 69.2068 52.8732 69.1549 52.8732 69.0908ZM53.0382 68.9975V69.186H53.4183V68.9975H53.0382ZM53.8211 69.0908C53.8211 69.0267 53.769 68.9748 53.7046 68.9748C53.6401 68.9748 53.588 69.0267 53.588 69.0908C53.588 69.1549 53.6401 69.2068 53.7046 69.2068C53.769 69.2068 53.8211 69.1549 53.8211 69.0908ZM52.4941 69.468C52.4941 69.4038 52.4419 69.352 52.3775 69.352C52.313 69.352 52.2609 69.4038 52.2609 69.468C52.2609 69.5321 52.313 69.5839 52.3775 69.5839C52.4419 69.5839 52.4941 69.5321 52.4941 69.468ZM49.8153 69.9403V70.1289H50.1954V69.9403H49.8153ZM50.7878 70.0337C50.7878 69.9696 50.7357 69.9177 50.6712 69.9177C50.6068 69.9177 50.5546 69.9696 50.5546 70.0337C50.5546 70.0978 50.6068 70.1496 50.6712 70.1496C50.7357 70.1496 50.7878 70.0978 50.7878 70.0337Z" fill="#FBFDFC"/>
<path d="M50.2891 52.4036C50.5109 52.183 52.2114 52.3565 52.639 52.3301L65.1714 66.6408V52.3093H68.2047V71.8265H65.9771L53.9859 58.2493L53.3233 57.4017V63.9065C53.1338 63.9565 53.1707 63.8622 53.1044 63.7896C52.1422 62.7553 51.2901 61.6069 50.2891 60.6065V52.4036Z" fill="#F9FCFB"/>
<path d="M47.7287 49.1028C43.3712 48.6964 38.9122 46.8079 36.658 42.9101C34.9205 39.9062 34.5432 36.1583 35.3205 32.8018C40.7511 33.2581 46.2983 36.1055 47.742 41.691C48.3695 44.1179 48.1477 46.6618 47.7287 49.1038V49.1028ZM46.9704 48.0666C47.4605 45.1136 47.3543 42.0955 45.8149 39.4583C43.8537 36.0989 39.8383 34.2962 36.0807 33.8408C35.5736 36.6995 35.9945 39.9486 37.4751 42.4726C39.4458 45.833 43.2081 47.5735 46.9704 48.0657V48.0666Z" fill="#EDF8F4"/>
<path d="M43.938 68.8099V68.149C43.4736 68.4036 43.2679 67.9218 43.7475 67.7266C43.3759 67.2618 43.6404 66.565 43.5636 66.0238C43.5238 65.7447 43.2821 65.5486 43.3683 65.2271C44.3542 65.2742 43.8034 64.2597 43.9835 63.9042C44.0452 63.7836 44.2281 63.7666 44.2907 63.6921C44.4528 63.4998 44.3693 63.3187 44.7902 63.199C44.904 62.7775 44.448 63.1462 44.5068 62.7756L45.0746 62.9642C45.1011 62.01 46.2263 62.3382 46.8737 62.209C46.9486 62.6606 47.2671 62.8699 47.7297 62.7747V63.7176L48.4776 63.8222L48.5762 64.4322L49.3402 64.4737L49.2464 64.8499L49.8132 64.8518L49.818 65.5967C50.2967 65.525 50.1223 66.0606 50.3374 66.1699C50.5668 66.2859 50.381 65.8446 50.763 65.7937C50.7697 65.6693 50.7574 65.542 50.763 65.4175H50.9517V65.7937C50.8901 65.8022 50.8228 65.7862 50.7621 65.7937C50.7412 66.1878 50.9128 66.8309 50.5725 67.0194C49.3971 65.6646 48.0586 64.0466 46.8292 62.7756C46.7391 62.6823 46.6102 62.4928 46.4652 62.5069C44.1836 63.6676 42.5598 67.0364 44.8348 69.0023C46.7524 70.6589 49.8483 69.7622 51.6133 68.2923C51.3688 67.9453 51.0285 67.6691 50.7574 67.3494C50.6872 67.2665 50.6882 67.1382 50.6664 67.1137L51.182 66.9261C51.365 66.9978 51.292 67.2297 51.3195 67.3127C51.274 67.2674 51.2 67.2674 51.1536 67.3127C51.1071 67.3579 51.1081 67.4315 51.1536 67.4777C51.1991 67.5239 51.273 67.5229 51.3195 67.4777C51.3659 67.4324 51.365 67.3589 51.3195 67.3127C51.3678 67.3768 51.5612 67.4852 51.5204 67.6794L52.2769 67.4909V68.9994C52.5669 68.9448 52.5669 69.2465 52.2778 69.1861V68.9994H50.7602V69.7537L50.5706 69.4709L50.3298 69.7603C49.7952 69.8914 49.8493 69.5982 49.8094 69.5689C49.6502 69.453 49.5791 69.9159 49.2426 69.7547C49.1042 69.9772 49.6113 69.9366 49.4322 70.1299C49.1165 70.4712 48.6634 69.9404 48.5345 69.9414C48.3686 69.9414 48.0018 70.3015 47.7259 70.2261L48.106 70.4618C48.0966 70.7154 47.3885 70.6985 47.7392 71.25L48.58 71.2632V70.8842H49.2435V71.4509C49.9421 71.6168 50.1346 70.9323 50.7593 71.0718C50.6436 70.8361 50.2787 71.0087 50.3801 70.6004L50.0028 70.6532L49.8123 70.3194C50.4588 70.3572 50.7545 70.7098 51.4437 70.4797C51.8996 70.3279 51.8418 70.0177 51.9148 69.9583C51.9783 69.9065 52.1404 69.9696 52.2001 69.9366C52.2949 69.8848 52.2816 69.7707 52.3423 69.7566C52.5432 69.7075 52.8181 69.783 53.0343 69.7537L52.656 69.3775L53.4096 69.3813C53.421 69.5633 53.384 69.7952 53.603 69.849C53.603 69.6924 53.603 69.534 53.603 69.3775H53.7916V69.849C53.731 69.8424 53.6542 69.8612 53.6021 69.849C53.6021 70.0064 53.6002 70.1639 53.6021 70.3213L53.9831 70.3194V70.6985C54.5528 70.557 54.8078 70.2516 55.169 70.8861L55.4988 70.6994L55.404 71.0747C55.6344 70.9804 55.6932 71.2416 55.7557 71.2604C56.2591 71.4122 56.1851 70.6702 55.9747 70.4599C55.9169 70.4015 55.3585 70.2129 55.3111 70.1309C55.1728 69.8895 55.5965 70.0187 55.4979 69.7575C55.3519 69.6906 55.0647 69.6217 54.9576 69.534C54.7822 69.3917 54.8287 68.8156 54.3604 69.0013L54.7396 68.6251H53.8874C54.077 68.1414 53.8608 68.2084 53.8229 68.1292C53.7414 67.9614 53.8087 67.7643 53.7926 67.587C54.6486 68.2188 56.6439 70.6212 57.3473 71.547C57.4193 71.6413 57.5312 71.6649 57.4895 71.8299H54.7879L52.9082 69.8631C49.4559 72.802 43.6717 72.8925 41.6119 68.3404L41.5645 71.7356H38.6259C38.6221 71.5791 38.6316 71.4207 38.6259 71.2642C38.9909 71.317 39.5606 71.1803 39.8885 71.2812C40.1445 71.3604 40.0753 71.7922 40.5218 71.6404C40.4715 71.5159 40.4601 71.152 40.4061 71.0916C40.3729 71.0549 39.9682 71.0766 40.0487 70.6994H41.281V68.7185L40.9502 68.8146L40.9038 68.6261C41.3152 68.4479 41.2962 68.066 41.8877 68.2602C42.0688 68.3196 41.9702 68.6317 42.2271 68.5252L42.2763 68.3413C42.4783 68.4648 42.3721 68.693 42.4204 68.841C42.4479 68.9259 42.7389 68.8976 42.6005 69.09C42.5759 69.1239 42.3294 69.039 42.4185 69.3775H42.9873C42.9143 69.6915 43.2015 70.1356 43.2669 70.4665L45.1675 70.509C45.2718 70.1601 44.7608 70.3902 44.6935 70.3204V69.9442L45.2481 69.9291L45.3571 69.567L44.7059 69.5538L44.6945 69.0004C44.6092 68.9127 43.8603 69.1965 43.9361 68.8128L43.938 68.8099Z" fill="#F5FBFA"/>
<path d="M43.9383 58.249C43.0823 55.3337 45.2502 52.4288 48.2987 52.4033V54.289C45.1573 54.8104 45.7574 58.0133 47.2579 59.9914C48.9556 62.2298 51.2392 64.4615 53.0876 66.6386C53.298 66.8865 53.5815 67.192 53.7019 67.489C53.6383 67.4494 53.427 67.5899 53.3691 67.2995L53.3236 67.4881H52.6601C52.5672 67.1524 52.9786 67.3608 53.0393 67.3005V66.7347L52.2809 67.1109L52.2639 65.9965L51.6591 65.8956L51.4809 65.3139L51.0486 65.2243L51.1434 64.4709C50.914 64.189 50.9813 65.1375 50.9387 65.2092L50.5756 65.3186L50.5339 64.3701L50.0059 64.2824L49.9168 63.381L49.641 63.3584C49.6078 63.4055 49.641 63.5139 49.6277 63.5281C49.6154 63.5403 49.4637 63.4857 49.4362 63.5903C49.3983 63.7346 49.4599 63.9373 49.4381 64.0947H49.0599C48.8722 63.7044 49.3433 63.5111 49.3471 63.4734C49.3661 63.2697 49.0125 62.836 49.4391 62.7285C49.1433 62.0808 48.2921 62.3175 48.4912 61.4538H47.5432C47.4428 61.2077 47.712 61.3039 47.7338 61.2049C47.7669 61.055 47.7158 60.8607 47.7328 60.6995L47.0143 60.6128C46.819 60.345 47.2532 60.0442 47.1631 59.9471C46.8314 59.9226 46.6844 59.9132 46.6408 59.569L46.2162 59.9462C46.1119 59.6897 46.4048 59.4936 46.4086 59.3343C46.4095 59.2777 46.2351 59.3013 46.2152 59.2239C46.1726 59.0608 46.2579 58.4781 46.2152 58.4367H44.6976C44.6038 57.9615 44.781 57.7625 44.8881 57.4005C45.2066 57.3891 45.2995 57.7191 45.2673 57.9662C46.0067 57.7701 45.4597 57.1082 45.4455 56.7848C45.4379 56.6113 45.6284 56.6631 45.6465 56.583C45.727 56.2275 45.3318 55.8249 45.4559 55.4195H46.2152V54.6662C47.1243 55.0782 46.8778 53.8921 47.0617 53.7639L47.7319 53.7233V53.1567C46.9167 53.2509 45.8294 52.4599 46.2143 53.9109C45.892 53.9713 46.1507 53.6441 45.8095 53.7441C45.3014 53.8921 45.3659 54.6624 44.6966 54.4776C44.6777 54.669 44.7346 54.8925 44.6966 55.0754C44.6815 55.147 44.3981 55.1536 44.509 55.4214H45.2682L45.0777 57.0243L44.5175 56.9224L44.509 56.5528H44.89C44.9374 56.2445 44.9004 55.8381 44.5109 55.7985C44.6938 56.1672 44.4625 56.253 44.345 56.533C44.2995 56.6415 44.3554 56.8131 44.3004 56.9092C44.2616 56.9762 44.0236 56.9771 43.9601 57.1827C43.8994 57.3769 43.9241 58.0077 43.9431 58.25L43.9383 58.249ZM50.7159 64.189V64.2833C50.7775 64.2522 50.7775 64.2201 50.7159 64.189Z" fill="#F5FBFA"/>
<path d="M38.6289 52.4038L38.7664 52.3066L41.5684 52.3085L41.5674 64.5666L41.2774 64.5148L41.284 52.4028L38.6289 52.4038Z" fill="#F5FBFA"/>
<path d="M43.9383 58.438C44.2577 58.3116 44.2994 58.5898 44.3904 58.6237C44.6331 58.7133 44.8274 58.487 44.6909 59.1404C44.6454 59.3591 44.3961 59.5571 44.5184 59.8409C45.0578 59.9993 45.1383 59.8325 45.4928 60.2897C45.5251 60.3312 45.6303 60.319 45.6369 60.3303C45.6673 60.3803 45.2767 61.1798 45.453 61.4561C45.8303 61.441 46.2142 61.4759 46.5905 61.4561C46.5991 61.3957 46.582 61.3288 46.5905 61.2675H46.9688V61.4551C46.8436 61.4608 46.7157 61.4495 46.5905 61.4551C46.582 61.5155 46.5991 61.5824 46.5905 61.6437C46.2 61.5937 45.6132 61.738 45.2653 61.5947C45.126 61.5371 45.1497 61.3457 44.8776 61.3967C44.5554 61.457 44.0188 62.6459 43.4615 62.3989V62.7751H43.9364V63.057C43.5269 63.024 43.1202 62.9099 42.7031 62.9637C43.2103 62.1151 44.289 61.4928 45.1677 61.077C44.7791 60.2558 44.0615 59.3874 43.9354 58.438H43.9383Z" fill="#F5FBFA"/>
<path d="M38.6307 62.9634H27.6349V71.8263L24.9257 71.8178L24.6025 72.0139L24.6016 71.732H27.5401V62.8691L38.6307 62.9634Z" fill="#2B5779"/>
<path d="M27.54 52.4033C27.814 52.6777 27.5277 59.2249 27.6339 60.1357H38.6306L27.5391 60.23V52.4033H27.54Z" fill="#2D628E"/>
<path d="M42.612 62.9639L42.8025 63.8398C42.5807 64.0463 42.338 64.1028 42.4214 64.4715H41.6641C41.7683 64.2018 42.3845 63.0402 42.612 62.9639Z" fill="#F5FBFA"/>
<path d="M50.2886 60.6062L50.1938 60.6533C50.353 58.0821 49.9834 55.2668 50.1891 52.7248C50.2014 52.5711 50.1635 52.5287 50.2895 52.4033V60.6062H50.2886Z" fill="#2B5779"/>
<path d="M53.3223 63.9061L53.3232 57.4014L53.9858 58.249L53.418 57.8728L53.3223 63.9061Z" fill="#226188"/>
<path d="M41.5674 71.7324L41.6622 71.8258C40.7466 71.7786 39.7693 71.8908 38.8611 71.8314C38.7664 71.8248 38.6393 71.8597 38.6289 71.7334H41.5674V71.7324Z" fill="#2B5779"/>
<path d="M139.676 68.4012C140.058 68.2264 141.398 68.1494 141.636 68.4028C141.86 68.6418 140.736 68.9979 141.636 69.0428V82.1945H139.676V68.4012Z" fill="#0463B4"/>
<path d="M50.573 67.0181C50.6024 67.0521 50.6394 67.0794 50.6678 67.1124C50.6887 67.1369 50.6887 67.2652 50.7588 67.3481C51.029 67.6678 51.3693 67.944 51.6148 68.291C49.8498 69.76 46.7539 70.6566 44.8362 69.001C42.5612 67.0361 44.1841 63.6672 46.4667 62.5056C46.6117 62.4915 46.7406 62.681 46.8307 62.7743C48.0601 64.0444 49.3986 65.6633 50.574 67.0181H50.573Z" fill="#0564B2"/>
<path d="M43.9372 68.8099C43.8614 69.1936 44.6112 68.9107 44.6955 68.9975L44.7069 69.5509L45.3581 69.5641L45.2491 69.9262L44.6946 69.9413V70.3175C44.7619 70.3873 45.2728 70.1572 45.1686 70.5061L43.268 70.4636C43.2026 70.1317 42.9154 69.6886 42.9883 69.3746C42.9931 69.3548 43.1741 69.0229 43.1922 69.0126C43.2964 68.9503 43.5287 69.0258 43.6803 68.9956C43.7495 68.9815 43.7675 68.7637 43.9363 68.8089L43.9372 68.8099Z" fill="#FEFEFE"/>
<path d="M45.4553 61.8326V62.2088C45.0562 62.1202 44.8742 62.1579 44.5074 62.3031C44.4382 61.9439 44.7813 62.1108 44.6477 61.7402L45.4553 61.8326Z" fill="#F5FBFA"/>
<path d="M43.1781 63.5289L43.1777 64.4727L43.3683 64.4727L43.3686 63.5289L43.1781 63.5289Z" fill="#F5FBFA"/>
<path d="M42.9966 68.0574L42.9961 68.624L43.1866 68.6242L43.1871 68.0575L42.9966 68.0574Z" fill="#F5FBFA"/>
<path d="M46.2192 60.1374L46.2188 60.7041L46.4093 60.7043L46.4098 60.1376L46.2192 60.1374Z" fill="#F5FBFA"/>
<path d="M44.3167 62.3984V62.7746H44.0333C44.0115 62.6012 44.0276 62.4984 44.1764 62.3994H44.3167V62.3984Z" fill="#F5FBFA"/>
<path d="M49.8149 69.9403L49.8145 70.1289L50.1946 70.1298L50.195 69.9412L49.8149 69.9403Z" fill="#F5FBFA"/>
<path d="M43.1805 65.9803L43.1797 66.3584L43.3693 66.3588L43.3701 65.9807L43.1805 65.9803Z" fill="#F5FBFA"/>
<path d="M51.1434 65.4149L51.1426 65.793L51.3322 65.7934L51.333 65.4153L51.1434 65.4149Z" fill="#F5FBFA"/>
<path d="M53.0375 68.997L53.0371 69.1855L53.4172 69.1864L53.4177 68.9978L53.0375 68.997Z" fill="#F5FBFA"/>
<path d="M53.7045 69.2066C53.7689 69.2066 53.8211 69.1546 53.8211 69.0906C53.8211 69.0265 53.7689 68.9746 53.7045 68.9746C53.6401 68.9746 53.5879 69.0265 53.5879 69.0906C53.5879 69.1546 53.6401 69.2066 53.7045 69.2066Z" fill="#F5FBFA"/>
<path d="M52.7553 69.2066C52.8197 69.2066 52.8719 69.1546 52.8719 69.0906C52.8719 69.0265 52.8197 68.9746 52.7553 68.9746C52.6909 68.9746 52.6387 69.0265 52.6387 69.0906C52.6387 69.1546 52.6909 69.2066 52.7553 69.2066Z" fill="#F5FBFA"/>
<path d="M50.6693 70.1489C50.7337 70.1489 50.7859 70.097 50.7859 70.033C50.7859 69.9689 50.7337 69.917 50.6693 69.917C50.6049 69.917 50.5527 69.9689 50.5527 70.033C50.5527 70.097 50.6049 70.1489 50.6693 70.1489Z" fill="#F5FBFA"/>
<path d="M52.3764 69.5835C52.4408 69.5835 52.493 69.5316 52.493 69.4675C52.493 69.4035 52.4408 69.3516 52.3764 69.3516C52.312 69.3516 52.2598 69.4035 52.2598 69.4675C52.2598 69.5316 52.312 69.5835 52.3764 69.5835Z" fill="#F5FBFA"/>
<path d="M44.5547 58.4385C44.6156 58.4696 44.6156 58.5016 44.5547 58.5328V58.4385Z" fill="#F5FBFA"/>
<path d="M42.8477 63.1523C42.9086 63.1835 42.9086 63.2155 42.8477 63.2466V63.1523Z" fill="#F5FBFA"/>
<path d="M46.9699 48.0667C43.2076 47.5736 39.4453 45.8331 37.4746 42.4737C35.994 39.9496 35.5731 36.7005 36.0802 33.8418C39.8378 34.2972 43.8522 36.099 45.8144 39.4593C47.3538 42.0965 47.46 45.1146 46.9699 48.0676V48.0667Z" fill="#038A32"/>
<path d="M50.7148 64.1895C50.7758 64.2206 50.7758 64.2526 50.7148 64.2837V64.1895Z" fill="#FBFDFC"/>
</svg>
