<svg width="202" height="118" viewBox="0 0 202 118" fill="none" xmlns="http://www.w3.org/2000/svg">
<path d="M151.454 49.7833C151.901 49.9532 152.384 50.1659 152.81 50.3859C153.091 50.5317 153.367 50.698 153.635 50.8679C156.652 52.7835 158.629 55.9537 158.824 59.6331C159.082 64.5098 158.623 69.6209 158.824 74.5217C158.315 81.358 152.722 85.0633 146.417 85.3387C131.167 85.3097 115.469 84.257 100.851 89.376C86.2044 84.2787 70.5036 85.2971 55.2297 85.3387C48.9047 85.0621 43.2929 81.3279 42.8231 74.4615C43.023 69.5805 42.5656 64.4893 42.8231 59.6331C43.0182 55.9537 44.9951 52.7835 48.0123 50.8679C48.2805 50.6974 48.5558 50.5323 48.8375 50.3859C49.2224 50.1858 49.734 49.9369 50.1342 49.7833C52.3846 48.9198 54.3379 48.8252 56.7038 48.8216C71.5115 48.8011 86.6606 49.7212 100.848 44.7246C115.004 49.7333 130.161 48.8011 144.944 48.8216C147.349 48.8252 149.168 48.9138 151.454 49.7833H151.454ZM100.693 50.0388C99.9435 50.1201 98.5466 50.7022 97.7244 50.924C85.6273 54.1833 73.034 53.9369 60.5933 53.8845C55.723 53.864 49.0514 52.9505 47.783 59.4023C47.8514 64.1609 47.4677 69.1792 47.7147 73.9197C47.9121 77.7166 50.7154 79.7256 54.1781 80.2071C61.7898 80.4517 69.4368 80.0112 77.0378 80.3372C85.0609 80.6819 93.1211 81.6304 100.793 84.0757C107.828 81.8118 115.245 80.9561 122.601 80.5753C130.26 80.1788 137.919 80.6837 145.591 80.5728C149.481 80.5168 153.487 79.0718 153.872 74.5223C153.663 69.6474 154.142 64.5417 153.872 59.6934C153.65 55.6928 150.178 53.7254 146.592 53.5175C143.226 53.3223 139.548 53.6103 136.16 53.6428C124.915 53.7507 113.603 53.6977 102.695 50.61C102.218 50.4751 101.087 49.996 100.691 50.0388H100.693Z" fill="#E61F13"/>
<path d="M153.634 50.8676C153.366 50.6977 153.091 50.5314 152.809 50.3855C149.347 35.3156 137.034 24.1847 123.294 18.8253C109.118 13.2954 92.5287 13.3099 78.3516 18.8253C64.6172 24.1684 52.2944 35.3324 48.8369 50.3855C48.5552 50.532 48.2799 50.6971 48.0117 50.8676C48.172 48.7429 48.6041 46.5863 49.1481 44.5272C54.7257 23.4393 75.0492 10.2186 95.6072 8.44641C119.598 6.37774 145.904 19.5972 152.498 44.5278C153.042 46.5845 153.476 48.7441 153.634 50.8682V50.8676Z" fill="#27358C"/>
<path d="M100.693 50.0388C101.089 49.996 102.22 50.4751 102.698 50.6101C113.605 53.6971 124.917 53.7507 136.162 53.6429C139.55 53.6103 143.229 53.3223 146.594 53.5175C150.18 53.7254 153.652 55.6935 153.874 59.6934C154.144 64.5418 153.665 69.6475 153.874 74.5224C153.489 79.0719 149.483 80.5168 145.593 80.5729C137.921 80.6838 130.262 80.1788 122.603 80.5753C115.247 80.9561 107.831 81.8118 100.795 84.0757C93.1231 81.6304 85.0629 80.682 77.0399 80.3373C69.4394 80.0107 61.7918 80.4512 54.1802 80.2071C50.7168 79.7257 47.9142 77.7166 47.7167 73.9198C47.4697 69.1793 47.8534 64.161 47.7851 59.4024C49.0535 52.9505 55.725 53.864 60.5953 53.8845C73.036 53.9375 85.6294 54.184 97.7264 50.924C98.5481 50.7029 99.9456 50.1202 100.695 50.0388H100.693ZM56.9716 57.9785H52.4921V74.9713H56.9716V68.4031H60.2134V74.8809L60.3018 74.9713H64.6929V57.9785H60.2134V63.8235H56.9716V57.9785ZM95.4601 57.9785H91.0396V74.9713H95.4601V67.5896C95.4601 67.2908 95.6712 66.6117 95.8486 66.3598C96.4091 65.5638 98.0323 65.562 98.4897 66.4815C98.5551 66.6135 98.7019 67.104 98.7019 67.2287V74.8815L98.7903 74.9719H103.122V65.4812C103.122 64.3972 102.333 63.0197 101.467 62.4135C99.9856 61.3782 97.0769 61.4469 95.8126 62.828C95.6835 62.969 95.6004 63.1649 95.4607 63.2818V57.9791L95.4601 57.9785ZM109.488 57.9785H105.009V74.9713H109.488V57.9785ZM149.568 57.9785H145.147V62.6786L144.847 62.3526C142.54 61.0185 139.547 61.5138 138.123 63.9036C135.721 67.9373 137.516 77.0502 143.569 75.0749C144.329 74.8267 144.516 74.5453 145.089 74.0975C145.148 74.0511 145.163 73.9812 145.266 74.0078V74.9719H149.539L149.569 57.9791L149.568 57.9785ZM131.532 74.9713H135.923L136.015 74.7634C135.89 71.8463 136.17 68.8014 136.015 65.9C135.844 62.7142 133.856 61.2457 130.803 61.662C129.777 61.8018 128.916 62.214 128.32 63.1004L128.231 62.0158H123.811V74.9713H128.231V67.6499C128.231 67.2317 128.388 66.596 128.63 66.2501C129.148 65.5144 130.685 65.4336 131.204 66.1772C131.336 66.367 131.531 66.9497 131.531 67.1678V74.9713H131.532ZM72.1071 61.6723C67.5085 61.8404 65.3666 65.9627 66.2436 70.2826C67.5716 76.82 76.7245 77.0261 78.2912 70.5857C79.3916 66.0627 77.031 61.4921 72.1065 61.6723H72.1071ZM89.2713 66.4749V62.4074C88.5811 61.926 87.6457 61.7892 86.8247 61.7151C84.226 61.4801 81.6579 62.0368 80.3612 64.5665C78.9973 67.2269 79.2124 72.3525 81.7316 74.2729C83.3607 75.5148 85.5433 75.4075 87.473 75.2117C88.0512 75.1533 88.7485 75.0749 89.2713 74.8206V71.1148C88.2074 71.4576 86.5477 71.9023 85.4667 71.5396C84.0268 71.0563 83.7191 69.0178 84.0881 67.7132C84.7111 65.5095 87.6422 65.5529 89.2713 66.4743V66.4749ZM122.043 74.9713V65.2396C122.043 62.8509 119.713 61.7681 117.713 61.6512C115.903 61.5457 113.715 61.7838 112.348 63.1016L112.082 66.3544C113.62 65.5192 115.123 64.6623 116.944 64.8485C117.65 64.9208 118.257 65.627 117.741 66.2646C117.264 66.8533 114.533 67.4324 113.633 67.85C111.564 68.8111 110.706 70.4664 111.249 72.7791C111.675 74.5983 113.236 75.2786 114.938 75.3346C116.246 75.378 117.17 74.9002 118.094 74.0065V74.9707H122.043V74.9713Z" fill="#FEFEFE"/>
<path d="M150.628 47.0118C150.941 47.9193 151.307 48.8238 151.453 49.7837C149.166 48.9142 147.347 48.8256 144.942 48.822C130.161 48.8015 115.003 49.7331 100.847 44.725C86.6592 49.7222 71.5107 48.8015 56.7024 48.822C54.3365 48.825 52.3832 48.9202 50.1328 49.7837C50.279 49.2793 50.4511 48.778 50.6043 48.2772C50.6922 48.3628 50.9085 48.2724 51.0181 48.2477C59.5398 46.3357 68.0674 44.3996 76.6457 42.7521C83.0779 41.5175 88.0272 40.569 94.6545 41.4765C98.0678 41.9441 101.43 42.9323 104.809 43.3879C108.707 43.9133 111.275 42.7455 114.957 42.0899C126.558 40.0237 139.23 43.9169 150.362 47.0124C150.44 47.0341 150.573 47.1311 150.627 47.0124L150.628 47.0118Z" fill="#76B628"/>
<path d="M152.81 50.3859C152.384 50.1659 151.902 49.9532 151.454 49.7833C151.308 48.8234 150.943 47.9189 150.629 47.0114C150.007 45.2139 149.321 43.5755 148.448 41.8894C146.795 38.6964 144.762 35.8588 142.377 33.2123C140.68 31.3286 138.876 29.5166 136.837 28.03L136.539 27.7034C135.012 26.4874 133.42 25.4395 131.768 24.4145C129.651 23.1015 127.56 21.9922 125.284 20.9798C122.827 19.8861 120.439 19.0208 117.858 18.2682C116.406 17.8446 115.023 17.5499 113.555 17.2438C113.537 17.2402 113.413 17.154 113.26 17.1233C113.207 17.1125 113.137 17.1341 113.084 17.1233C105.842 15.6879 98.8199 15.4891 91.5112 16.581C89.9846 16.8088 88.4775 17.0805 86.9728 17.4246C84.9776 17.8807 83.016 18.4514 81.0787 19.1118C78.286 20.0639 75.6142 21.2251 73.0037 22.6068C71.1371 23.5944 69.4979 24.6026 67.758 25.8005C65.3844 27.4347 63.3451 29.0816 61.2745 31.1032C57.9378 34.3608 55.2271 37.9443 53.0816 42.1305C52.0407 44.1612 51.2769 46.087 50.6061 48.2768C50.4529 48.7776 50.2808 49.2789 50.1346 49.7833C49.7344 49.9369 49.2228 50.1858 48.8379 50.3859C52.2954 35.3333 64.6182 24.1687 78.3526 18.8256C92.5297 13.3102 109.118 13.2957 123.295 18.8256C137.035 24.185 149.348 35.3159 152.81 50.3859Z" fill="#FCFCFD"/>
<path d="M56.9717 57.9785V63.8236H60.2135V57.9785H64.693V74.9713H60.3019L60.2135 74.881V68.4032H56.9717V74.9713H52.4922V57.9785H56.9717Z" fill="#27368C"/>
<path d="M149.567 57.9781L149.537 74.971H145.264V74.0068C145.161 73.9803 145.146 74.0502 145.087 74.0966C144.514 74.5449 144.328 74.8263 143.567 75.074C137.514 77.0493 135.719 67.9364 138.122 63.9027C139.545 61.5129 142.539 61.0176 144.846 62.3517L145.146 62.6777V57.9775H149.566L149.567 57.9781ZM142.775 65.3453C139.912 65.7268 140.119 71.9183 143.403 71.4706C145.935 71.1253 145.837 64.9374 142.775 65.3453Z" fill="#27368C"/>
<path d="M95.4602 57.9781V63.2809C95.6005 63.164 95.6836 62.9681 95.8121 62.8271C97.077 61.446 99.9851 61.3767 101.466 62.4125C102.333 63.0187 103.122 64.3962 103.122 65.4803V74.971H98.7898L98.7014 74.8806V67.2278C98.7014 67.103 98.5546 66.6125 98.4892 66.4806C98.0312 65.561 96.408 65.5635 95.8481 66.3589C95.6707 66.6107 95.4596 67.2898 95.4596 67.5887V74.9704H91.0391V57.9775H95.4596L95.4602 57.9781Z" fill="#27368C"/>
<path d="M131.531 74.971V67.1676C131.531 66.9501 131.336 66.3668 131.204 66.177C130.685 65.4334 129.148 65.5141 128.63 66.2499C128.387 66.5952 128.231 67.2315 128.231 67.6497V74.971H123.811V62.0155H128.231L128.32 63.1002C128.916 62.2138 129.777 61.8016 130.803 61.6618C133.855 61.246 135.843 62.7145 136.014 65.8998C136.17 68.8018 135.891 71.8461 136.014 74.7632L135.923 74.971H131.532H131.531Z" fill="#27368C"/>
<path d="M72.1065 61.6722C77.031 61.492 79.391 66.0626 78.2912 70.5855C76.7245 77.026 67.571 76.8199 66.2436 70.2824C65.3666 65.9625 67.5085 61.8409 72.1071 61.6722H72.1065ZM72.0476 65.4684C70.1785 65.6474 69.7795 67.4642 69.9451 69.0887C70.2263 71.8413 73.8983 72.1041 74.552 69.5949C75.0441 67.707 74.348 65.2479 72.0476 65.4684Z" fill="#27368C"/>
<path d="M122.043 74.9715H118.094V74.0073C117.171 74.901 116.246 75.3788 114.938 75.3354C113.236 75.2788 111.676 74.5991 111.249 72.7799C110.707 70.4672 111.564 68.8113 113.634 67.8508C114.533 67.4332 117.264 66.8541 117.741 66.2654C118.257 65.6278 117.651 64.9216 116.944 64.8493C115.123 64.6631 113.621 65.52 112.082 66.3552L112.348 63.1024C113.715 61.7846 115.903 61.5465 117.713 61.652C119.713 61.7683 122.043 62.8517 122.043 65.2404V74.9721V74.9715ZM118.447 69.0059C117.571 69.5049 115.313 69.6121 115.102 70.8583C114.898 72.0586 116.057 72.4557 117.021 72.1574C117.821 71.9098 118.447 71.0384 118.447 70.181V69.0059Z" fill="#27368C"/>
<path d="M89.2699 66.4752C87.6402 65.5538 84.7096 65.5098 84.0866 67.7141C83.7177 69.0187 84.0253 71.0572 85.4653 71.5405C86.5462 71.9032 88.206 71.4585 89.2699 71.1157V74.8215C88.7471 75.0758 88.0498 75.1542 87.4716 75.2126C85.5419 75.4085 83.3587 75.5157 81.7302 74.2738C79.211 72.3534 78.9959 67.2278 80.3598 64.5674C81.6565 62.0378 84.224 61.481 86.8233 61.716C87.6443 61.7901 88.5797 61.9269 89.2699 62.4083V66.4758V66.4752Z" fill="#27358C"/>
<path d="M109.487 57.9785H105.008V74.9713H109.487V57.9785Z" fill="#28378D"/>
<path d="M148.448 41.8896C149.321 43.5756 150.007 45.2141 150.628 47.0116C150.574 47.1309 150.441 47.0339 150.363 47.0116C139.232 43.9161 126.559 40.0228 114.958 42.0891C111.276 42.7447 108.708 43.9125 104.81 43.387C101.431 42.9315 98.0689 41.9432 94.6557 41.4756C88.0283 40.5681 83.0785 41.5166 76.6468 42.7513C68.0691 44.3982 59.5415 46.3349 51.0192 48.2469C50.9096 48.2716 50.6933 48.3619 50.6055 48.2764C51.2762 46.0866 52.0401 44.1607 53.081 42.13L63.6603 41.6474C69.156 41.2466 74.687 40.9725 80.1562 40.2536C83.9078 39.7607 87.2126 38.8261 91.0679 38.9972C95.808 39.2081 99.9197 40.8785 104.458 41.5781C108.323 42.174 110.895 40.767 114.497 39.93C119.321 38.8092 124.239 39.0273 129.144 39.419C135.611 39.9354 142.04 40.9327 148.448 41.889L148.448 41.8896Z" fill="#FDEC00"/>
<path d="M75.6551 29.1148C76.6541 29.1853 77.6827 29.3865 78.6611 29.5968C79.1686 29.7059 79.6931 29.8216 80.1936 29.9584C81.0152 30.1831 81.8616 30.4651 82.6691 30.7417C83.3799 30.9852 84.1184 31.3003 84.8499 31.5853C85.8678 31.9818 86.9105 32.3627 87.9148 32.7905C89.7455 33.5709 91.5609 34.4687 93.3964 35.2611C94.963 35.9378 96.5108 36.597 98.1116 37.1894C99.9989 37.8878 101.641 38.4542 103.652 38.7561C105.826 39.0821 107.367 38.8531 109.498 38.4964C114.382 37.6793 119.173 36.3283 123.987 35.2611C124.083 35.2394 124.182 35.2225 124.281 35.2008C124.884 35.0677 125.503 34.967 126.109 34.8393C127.304 34.5862 128.502 34.3361 129.704 34.1162C131.055 33.8691 132.408 33.6299 133.771 33.4533C135.21 33.2665 136.564 33.1502 138.015 33.0918C138.605 33.0683 139.213 32.9863 139.815 33.0291L142.376 33.2123C144.761 35.8589 146.794 38.6964 148.447 41.8895C142.039 40.9332 135.61 39.9359 129.144 39.4195C124.238 39.0278 119.32 38.8097 114.496 39.9305C110.894 40.7675 108.322 42.1745 104.457 41.5786C99.9188 40.879 95.807 39.2086 91.067 38.9977C87.2117 38.826 83.9068 39.7612 80.1552 40.2541C74.6867 40.973 69.1551 41.2478 63.6594 41.6479L53.0801 42.1305C55.2255 37.9444 57.9362 34.3608 61.2729 31.1033C63.0712 30.8701 64.8506 30.5043 66.6365 30.1994C68.0299 29.9614 69.4286 29.7035 70.8213 29.4763C72.4552 29.2094 74 28.9985 75.6545 29.1148H75.6551Z" fill="#016A3A"/>
<path d="M113.083 17.1236V17.3044C113.28 17.3261 113.275 17.311 113.26 17.1236C113.412 17.1544 113.537 17.2405 113.555 17.2441C113.102 17.4002 113.665 17.5141 113.843 17.6424C116.407 19.4954 118.686 21.4797 120.476 24.1787C120.547 24.6764 121.138 25.1133 121.302 25.4435C121.508 25.8599 121.686 26.445 121.9 26.8204C122.351 27.6122 122.869 28.6619 123.108 29.5627C123.18 29.8363 123.264 30.2792 123.35 30.5202C123.387 30.6245 123.533 30.6209 123.566 30.7209C123.622 30.8944 123.604 31.2705 123.649 31.4802C123.869 32.5112 124.204 33.5633 124.282 34.6286C124.296 34.8185 124.275 35.0113 124.283 35.2005C124.184 35.2222 124.085 35.2391 123.988 35.2608C123.214 34.6847 122.425 34.1195 121.631 33.5735C121.674 33.4277 121.709 33.2819 121.688 33.1258C121.627 32.6901 121.391 31.8989 121.26 31.4512C120.521 28.9162 119.038 25.8906 117.328 23.9021C117.114 23.6544 116.783 23.4236 116.597 23.2031C116.411 22.9825 116.249 22.577 116.029 22.398C114.687 21.3104 113.402 20.1703 111.886 19.2815C106.266 15.9884 99.2205 15.6648 93.34 18.4794C89.2636 20.4306 85.6564 23.9907 83.6996 28.1473C83.3035 28.9885 83.0259 29.8833 82.6711 30.7414C81.8636 30.4648 81.0172 30.1828 80.1955 29.958C80.1849 29.6977 80.5539 29.8098 80.6388 29.6579C80.6977 29.5525 80.6441 29.3964 80.6806 29.2789C80.9459 28.4347 81.5247 27.1699 81.9255 26.457C82.3298 25.7381 82.773 24.7595 83.2599 24.1431C83.4786 23.8665 83.4013 23.9286 83.5511 23.6574C83.6218 23.5297 83.8428 23.4315 83.9312 23.323C84.0438 23.1856 84.1469 22.8542 84.2371 22.7319C84.378 22.5408 84.7369 22.3088 84.876 22.1196C86.2376 20.2625 88.1384 18.903 89.9562 17.6147C90.1218 17.4972 90.5456 17.0977 90.5821 17.0784C90.7012 17.017 91.0271 17.0525 91.2334 16.9422C91.2664 16.9248 91.5293 16.6614 91.511 16.5807C98.8197 15.4888 105.841 15.6877 113.083 17.123V17.1236Z" fill="#D4EDFC"/>
<path d="M125.284 20.9799C125.341 21.3198 125.524 21.5024 125.486 21.888L125.924 22.0429L125.958 22.8516L126.404 22.9076L126.429 23.3342L126.822 23.4746L126.901 24.2984L127.294 24.4388L127.375 25.1992C127.439 25.3282 127.863 25.3432 127.929 25.603C127.959 25.7223 127.836 25.8313 127.821 25.9549C127.805 26.1007 127.795 26.417 127.82 26.5526C127.879 26.8678 128.223 26.6882 128.282 26.8636L128.316 28.1549L128.827 28.2465C128.952 28.6749 128.672 29.0274 128.762 29.5071C128.813 29.7843 129.16 29.5547 129.225 29.7566L129.241 31.4872L129.33 31.5782L129.637 31.5944C129.781 31.6818 129.667 33.7866 129.705 34.1174C128.502 34.3374 127.304 34.5875 126.109 34.8405C125.954 33.833 125.842 32.8098 125.622 31.8138C124.482 26.6563 122.049 22.634 118.409 19.0318C118.233 18.8589 117.9 18.5069 117.857 18.2695C120.438 19.0222 122.827 19.8875 125.284 20.9812V20.9799ZM125.932 22.9691H125.756V23.089H125.932V22.9691ZM126.875 25.0166L126.849 24.4111C126.765 24.2875 126.42 24.3345 126.463 24.5346L126.69 24.6039C126.746 24.6979 126.604 25.0383 126.875 25.0172V25.0166ZM128.289 28.2712C128.109 28.2549 128.097 28.423 128.113 28.5719H128.289V28.2712ZM129.233 32.6098V31.6758C129.233 31.6264 129.086 31.5553 129.028 31.5866C128.788 31.6643 129.127 32.3422 129.1 32.5351L129.233 32.6098Z" fill="#C4E6FA"/>
<path d="M131.767 24.4144C131.612 24.6284 131.81 24.7639 131.859 24.9525C132.054 25.6973 132.314 26.3891 132.548 27.1405C133.054 28.7669 133.53 30.4626 133.757 32.1715C133.791 32.4282 133.886 32.9115 133.886 33.1308C133.886 33.2676 133.791 33.3296 133.771 33.4532C132.408 33.6297 131.055 33.869 129.704 34.116C129.667 33.7858 129.78 31.681 129.637 31.593L129.329 31.5767L129.241 31.4857L129.224 29.7551C129.159 29.5533 128.812 29.7828 128.761 29.5057C128.671 29.026 128.951 28.6735 128.826 28.2451L128.315 28.1535L128.282 26.8621C128.223 26.6868 127.878 26.8663 127.819 26.5512C127.794 26.4156 127.804 26.0993 127.821 25.9534C127.835 25.8299 127.958 25.7208 127.928 25.6015C127.862 25.3418 127.439 25.3274 127.374 25.1978L127.293 24.4373L126.9 24.2969L126.822 23.4732L126.428 23.3328L126.404 22.9062L125.957 22.8501L125.923 22.0415L125.485 21.8866C125.524 21.501 125.34 21.3184 125.283 20.9785C127.558 21.9909 129.65 23.1002 131.767 24.4132V24.4144Z" fill="#B9E2F9"/>
<path d="M81.078 19.1116C81.0868 19.4731 80.5817 19.487 80.3907 19.6744C80.2605 19.8021 80.2363 20.0498 80.1791 20.1203C80.142 20.1655 80.0229 20.1739 79.9616 20.2281C79.6186 20.5324 79.5926 20.8807 79.361 21.2453C79.2696 21.3887 78.8683 21.7623 78.8117 21.8858C78.751 22.019 78.7964 22.1582 78.6879 22.3016C78.5653 22.4637 78.2588 22.4806 78.2158 22.5421C78.1592 22.6222 78.2064 22.9151 78.1568 23.0862C78.1185 23.2176 77.9865 23.2537 77.9382 23.3447C77.6423 23.9015 77.4272 24.6101 77.1177 25.1549C76.968 25.4176 76.8548 25.5797 76.734 25.9075C76.5937 26.2889 76.3338 26.5474 76.2572 26.8059C76.21 26.9632 76.2896 27.1524 76.2165 27.3067C76.1664 27.4121 75.9312 27.4579 75.8982 27.5887L76.012 28.1069C75.6642 28.3009 75.7915 28.7758 75.656 29.1138C74.0015 28.9975 72.4567 29.2084 70.8228 29.4754C70.8918 29.2759 70.6843 29.288 70.6554 29.197C70.5599 28.8999 70.8222 28.4353 70.9 28.1382C71.2584 26.7716 71.701 25.5339 72.2209 24.2462C72.3553 23.9135 72.505 23.3501 72.6647 23.0729C72.7885 22.8572 73.0272 22.8403 73.003 22.6053C75.6135 21.2236 78.2853 20.0624 81.078 19.1104V19.1116ZM77.7336 22.8464C77.7336 22.8054 77.7012 22.7722 77.6612 22.7722C77.6211 22.7722 77.5887 22.8054 77.5887 22.8464C77.5887 22.8873 77.6211 22.9205 77.6612 22.9205C77.7012 22.9205 77.7336 22.8873 77.7336 22.8464Z" fill="#B9E2F9"/>
<path d="M86.9716 17.4248C86.8619 17.7725 86.4323 17.9286 86.177 18.1491C83.5795 20.3919 81.516 23.2319 79.947 26.302L78.6603 29.5964C77.6819 29.3861 76.6533 29.1848 75.6543 29.1143C75.7899 28.7763 75.6626 28.302 76.0103 28.1074L75.8965 27.5892C75.9296 27.4578 76.1647 27.4126 76.2148 27.3072C76.2879 27.1529 76.2083 26.9637 76.2555 26.8064C76.3321 26.5479 76.5921 26.2894 76.7323 25.908C76.8532 25.5796 76.9663 25.4181 77.116 25.1553C77.4255 24.6106 77.6406 23.9026 77.9365 23.3452C77.9848 23.2542 78.1169 23.218 78.1552 23.0867C78.2053 22.9149 78.1581 22.6227 78.2141 22.5425C78.2571 22.4811 78.5636 22.4642 78.6862 22.3021C78.7947 22.1587 78.7493 22.0189 78.81 21.8863C78.8666 21.7622 79.2686 21.3892 79.3593 21.2458C79.5904 20.8812 79.6169 20.5329 79.9599 20.2286C80.0212 20.1744 80.1403 20.166 80.1774 20.1208C80.2352 20.0503 80.2594 19.8026 80.389 19.6748C80.58 19.4874 81.0851 19.4736 81.0763 19.112C83.0137 18.4516 84.9752 17.881 86.9704 17.4248H86.9716Z" fill="#C4E6FA"/>
<path d="M117.856 18.2679C117.899 18.5047 118.233 18.8573 118.407 19.0302C122.047 22.6324 124.481 26.6547 125.621 31.8122C125.84 32.8082 125.952 33.8308 126.108 34.8389C125.503 34.9667 124.884 35.0673 124.281 35.2005C124.273 35.0107 124.294 34.8179 124.28 34.6286C124.203 33.5633 123.867 32.5118 123.647 31.4802C123.602 31.2705 123.62 30.8944 123.564 30.7209C123.532 30.6203 123.385 30.6239 123.348 30.5202C123.262 30.2792 123.178 29.8363 123.106 29.5627C122.867 28.6619 122.349 27.6122 121.898 26.8204C121.684 26.445 121.506 25.8599 121.3 25.4435C121.136 25.1133 120.545 24.6764 120.474 24.1787C118.684 21.4797 116.405 19.4954 113.841 17.6424C113.663 17.5141 113.1 17.4002 113.553 17.2441C115.021 17.5503 116.403 17.8449 117.856 18.2685L117.856 18.2679Z" fill="#CCEAFC"/>
<path d="M131.767 24.415C133.419 25.4394 135.011 26.4879 136.538 27.7039L136.836 28.0305C136.827 28.2372 136.901 28.7386 137.113 28.8024C137.239 28.8404 137.497 28.7651 137.546 28.8531C137.625 29.252 137.417 30.3884 137.633 30.6813C137.685 30.7512 137.81 30.7452 137.872 30.7988C138.188 31.0706 137.991 32.6566 138.015 33.0928C136.564 33.1513 135.211 33.2676 133.771 33.4544C133.791 33.3309 133.887 33.2688 133.887 33.132C133.887 32.9127 133.792 32.4294 133.758 32.1727C133.53 30.4638 133.054 28.7681 132.549 27.1417C132.315 26.3903 132.055 25.6985 131.86 24.9537C131.81 24.7651 131.612 24.6296 131.767 24.4156V24.415Z" fill="#ADDDF7"/>
<path d="M91.5101 16.5811C91.5289 16.6618 91.2655 16.9251 91.2325 16.9426C91.0262 17.0529 90.6996 17.0173 90.5812 17.0788C90.544 17.0981 90.1202 17.4982 89.9552 17.6151C88.1375 18.9034 86.2366 20.2628 84.8751 22.12C84.736 22.3098 84.3776 22.5412 84.2362 22.7322C84.146 22.8545 84.0428 23.1854 83.9303 23.3234C83.8418 23.4318 83.6208 23.53 83.5501 23.6578C83.4004 23.9289 83.4776 23.8669 83.2589 24.1435C82.7715 24.7599 82.3282 25.7385 81.9245 26.4574C81.5237 27.1702 80.9449 28.4351 80.6797 29.2793C80.6425 29.3968 80.6968 29.5528 80.6378 29.6583C80.5529 29.8101 80.184 29.6981 80.1946 29.9584C79.6942 29.8216 79.1696 29.7059 78.6621 29.5968L79.9488 26.3025C81.5178 23.2324 83.5813 20.3924 86.1789 18.1496C86.4341 17.929 86.8638 17.773 86.9734 17.4253C88.4782 17.0812 89.9853 16.8094 91.5118 16.5817L91.5101 16.5811Z" fill="#CCEAFC"/>
<path d="M73.0037 22.6064C73.0273 22.8415 72.7892 22.8577 72.6654 23.074C72.5063 23.3518 72.356 23.9147 72.2216 24.2473C71.7011 25.5344 71.2591 26.7727 70.9007 28.1394C70.8229 28.4364 70.5606 28.901 70.6561 29.1981C70.685 29.2891 70.893 29.277 70.8235 29.4765C69.4307 29.7037 68.032 29.9616 66.6387 30.1996L66.7118 28.9185C66.6929 28.6606 67.0194 28.3967 67.0501 28.2406C67.0913 28.0279 66.977 27.779 67.0035 27.6531C67.0194 27.5778 67.1238 27.5097 67.1432 27.4319C67.2122 27.1547 67.3218 26.384 67.5246 26.1954C67.6495 26.0791 67.943 26.102 67.758 25.8013C69.4979 24.6034 71.1371 23.5953 73.0037 22.6076V22.6064Z" fill="#ADDDF7"/>
<path d="M67.7564 25.8004C67.9414 26.1011 67.6473 26.0782 67.523 26.1945C67.3202 26.3831 67.21 27.1532 67.1416 27.431C67.1222 27.5087 67.0178 27.5774 67.0019 27.6521C66.9754 27.7787 67.0897 28.027 67.0485 28.2397C67.0178 28.3963 66.6913 28.6597 66.7102 28.9176L66.6371 30.1987C64.8512 30.5036 63.0717 30.8693 61.2734 31.1025C63.344 29.0809 65.3834 27.434 67.757 25.7998L67.7564 25.8004Z" fill="#A4DAF6"/>
<path d="M142.377 33.2121L139.816 33.0289C139.214 32.9861 138.605 33.0681 138.015 33.0916C137.992 32.6559 138.188 31.0693 137.872 30.7976C137.81 30.7439 137.685 30.7506 137.634 30.6801C137.418 30.3872 137.625 29.2507 137.547 28.8518C137.497 28.7632 137.24 28.8392 137.113 28.8012C136.901 28.7373 136.828 28.236 136.837 28.0293C138.875 29.5159 140.68 31.3278 142.377 33.2115V33.2121Z" fill="#A4DAF6"/>
<path d="M113.259 17.1232C113.274 17.3107 113.279 17.3257 113.082 17.304V17.1232C113.135 17.1341 113.205 17.1124 113.259 17.1232Z" fill="#CCEAFC"/>
<path d="M142.775 65.3455C145.837 64.9375 145.935 71.1261 143.403 71.4707C140.119 71.9184 139.913 65.7263 142.775 65.3455Z" fill="#FDFDFD"/>
<path d="M72.0485 65.4689C74.349 65.2484 75.0445 67.7075 74.5529 69.5954C73.8993 72.1046 70.2272 71.8418 69.9461 69.0892C69.7805 67.4653 70.1795 65.6479 72.0485 65.4689Z" fill="#FDFDFD"/>
<path d="M118.447 69.0059V70.1809C118.447 71.0384 117.821 71.9097 117.021 72.1574C116.056 72.4556 114.898 72.0585 115.102 70.8582C115.313 69.6121 117.571 69.5054 118.447 69.0059Z" fill="#FCFCFD"/>
<path d="M84.8509 31.5857C84.7914 31.3103 85.0413 31.188 85.1067 30.9735C85.3195 30.2787 85.4468 29.8244 85.7533 29.1639C85.8941 28.8614 86.2348 28.4692 86.2879 28.3276C86.4759 27.8268 86.5313 27.6533 86.8295 27.1917C86.9881 26.9458 87.1844 26.5819 87.3217 26.3842C87.3736 26.3095 87.5645 26.2746 87.6806 26.1329C87.7767 26.016 87.8044 25.8552 87.8881 25.7413C88.5895 24.7892 89.4182 24.0342 90.3336 23.3014C90.5652 23.1158 90.8016 22.691 91.0421 22.5193C91.2083 22.3999 91.5095 22.3216 91.6827 22.2107C91.9545 22.0366 92.2439 21.7022 92.492 21.5316C92.7401 21.3611 94.5697 20.3976 94.7335 20.3891C94.819 20.3849 95.0495 20.5862 95.2239 20.4982L95.1715 20.2065C95.4461 20.0185 95.8045 20.0173 96.0968 19.9155C97.1065 19.5636 98.1515 19.2472 99.2019 19.1129C102.183 18.7314 104.858 18.902 107.671 19.9155C108.086 20.0649 108.559 20.1722 108.957 20.3488C109.126 20.4241 109.558 20.6055 109.685 20.6898C109.811 20.7742 109.764 20.8887 109.79 20.9122C109.823 20.9423 110.417 21.0315 110.628 21.1719C110.745 21.2502 110.705 21.3605 110.737 21.39C110.755 21.4069 111.065 21.4551 111.179 21.5117C111.489 21.666 111.816 22.0245 112.086 22.2113C112.207 22.2951 112.498 22.3668 112.607 22.462C112.715 22.5572 112.731 22.7338 112.875 22.8507C112.982 22.9375 113.118 22.9441 113.196 23.0049C114.094 23.7027 114.819 24.5698 115.558 25.4105C115.751 25.6292 115.954 25.9907 116.113 26.1685C116.204 26.2697 116.364 26.277 116.413 26.3445C116.466 26.4186 116.46 26.6078 116.515 26.7223C116.638 26.9844 116.793 27.0308 116.97 27.4616C117.04 27.6328 117.197 27.7539 117.148 27.969C116.856 27.9178 116.892 28.3203 117.204 28.2034L117.209 28.0305C117.275 28.0275 117.327 28.019 117.388 28.0588C117.422 28.0811 117.784 28.6843 117.823 28.759C118.087 29.2857 118.349 29.9172 118.487 30.4902C118.546 30.7367 118.715 30.947 118.624 31.2838C118.546 31.3724 118.077 30.853 118.153 31.2838C115.557 29.7213 113.885 28.806 110.785 29.5966C109.762 29.8575 108.875 30.1853 107.899 30.5927C106.745 31.0735 105.481 31.8394 104.36 32.248C103.483 32.5673 102.604 32.6499 101.708 32.3685C100.767 32.0732 100.189 31.4272 99.4093 31.103C98.7958 30.6385 98.0024 30.1275 97.2432 29.9732C96.2053 29.7629 94.6675 30.3354 93.6472 30.665C91.711 31.2898 89.8202 32.0756 87.9164 32.7903C86.9121 32.3624 85.8694 31.9816 84.8515 31.5851L84.8509 31.5857Z" fill="#DDF0FC"/>
<path d="M82.6686 30.7421C83.024 29.884 83.301 28.9892 83.6971 28.148C85.6539 23.9913 89.2611 20.4313 93.3375 18.4801C99.218 15.6655 106.263 15.989 111.884 19.2822C113.4 20.1704 114.684 21.3104 116.026 22.3987C116.247 22.5771 116.418 22.9941 116.594 23.2038C116.781 23.4237 117.113 23.6545 117.325 23.9028C119.035 25.8913 120.518 28.9168 121.258 31.4519C121.389 31.9002 121.624 32.6908 121.685 33.1265C121.707 33.282 121.67 33.4284 121.628 33.5742C120.5 32.7987 119.32 31.9888 118.15 31.2844C118.075 30.8535 118.544 31.3724 118.621 31.2844C118.713 30.9475 118.544 30.7372 118.485 30.4908C118.347 29.9177 118.084 29.2862 117.82 28.7596C117.783 28.6842 117.42 28.0817 117.385 28.0594C117.325 28.0196 117.273 28.0286 117.207 28.0311L117.202 28.204C116.89 28.3209 116.854 27.9184 117.146 27.9696C117.195 27.7545 117.038 27.6333 116.968 27.4622C116.791 27.0314 116.636 26.985 116.513 26.7228C116.458 26.6084 116.464 26.4191 116.411 26.345C116.362 26.2775 116.202 26.2703 116.111 26.1691C115.952 25.9907 115.749 25.6298 115.556 25.411C114.817 24.5704 114.092 23.7027 113.194 23.0055C113.116 22.9453 112.98 22.938 112.873 22.8513C112.728 22.7343 112.713 22.559 112.605 22.4626C112.496 22.3662 112.205 22.2957 112.084 22.2119C111.814 22.0251 111.487 21.666 111.177 21.5123C111.063 21.4557 110.753 21.4075 110.735 21.3906C110.703 21.3611 110.743 21.2502 110.625 21.1725C110.414 21.0321 109.821 20.9429 109.788 20.9127C109.762 20.8892 109.805 20.7717 109.682 20.6904C109.56 20.609 109.125 20.4247 108.955 20.3493C108.557 20.1728 108.084 20.0655 107.669 19.9161C104.856 18.9025 102.181 18.7314 99.1998 19.1134C98.1494 19.2478 97.105 19.5642 96.0947 19.9161C95.8018 20.0179 95.444 20.0197 95.1694 20.2071L95.2218 20.4988C95.0474 20.5873 94.8169 20.3861 94.7314 20.3897C94.5676 20.3975 92.7257 21.3695 92.4899 21.5322C92.2418 21.7033 91.9524 22.0372 91.6806 22.2113C91.5074 22.3228 91.2062 22.4011 91.04 22.5198C90.7995 22.6916 90.5631 23.1164 90.3315 23.302C89.4161 24.0347 88.5874 24.7892 87.886 25.7418C87.8023 25.8557 87.774 26.016 87.6785 26.1335C87.563 26.2751 87.3715 26.3101 87.3196 26.3848C87.1829 26.583 86.986 26.9464 86.8274 27.1923C86.5298 27.6538 86.4738 27.828 86.2858 28.3281C86.2327 28.4697 85.8915 28.8626 85.7512 29.1645C85.4441 29.8243 85.3174 30.2793 85.1046 30.9741C85.0392 31.188 84.7893 31.3103 84.8488 31.5863C84.1173 31.3013 83.3788 30.9861 82.668 30.7427L82.6686 30.7421Z" fill="#D8EEFC"/>
<path d="M118.152 31.2845C119.322 31.9889 120.501 32.7988 121.629 33.5743C122.424 34.1202 123.213 34.6855 123.987 35.2615C119.173 36.3287 114.382 37.6791 109.499 38.4968C107.367 38.8535 105.826 39.0831 103.652 38.7565C103.927 37.6827 104.261 36.6047 104.772 35.6231C105.854 33.5466 107.442 33.2326 109.152 31.9961C110.078 31.3273 110.51 30.7512 110.784 29.5973C113.885 28.8067 115.556 29.722 118.152 31.2845Z" fill="#FEFEFE"/>
<path d="M99.4085 31.1035C100.188 31.4276 100.766 32.0736 101.707 32.3689C101.555 33.0673 101.24 33.7922 100.924 34.4303C100.199 35.897 99.6212 36.1549 98.3764 37.0684C98.2921 37.1305 98.2208 37.1841 98.1118 37.1889C96.5109 36.5966 94.9631 35.9374 93.3965 35.2607C93.6093 34.8817 93.8179 34.4942 93.9965 34.0965C94.9867 31.8862 94.9508 29.7428 98.0528 30.6515C98.4342 30.763 99.0536 30.9558 99.4085 31.1035Z" fill="#FDFEFE"/>
<path d="M104.359 32.248C104.106 32.759 104.292 33.4472 104.388 33.9961C104.482 34.5361 104.622 35.0965 104.772 35.6225C104.261 36.6041 103.926 37.6821 103.652 38.7559C101.641 38.454 99.9986 37.8876 98.1113 37.1892C98.2204 37.1844 98.2917 37.1302 98.376 37.0687C99.6208 36.1552 100.198 35.8973 100.923 34.4306C101.239 33.7925 101.554 33.0676 101.707 32.3692C102.603 32.6506 103.481 32.568 104.359 32.2487V32.248Z" fill="#E8F6FC"/>
<path d="M99.4095 31.1036C99.0547 30.956 98.4352 30.7638 98.0539 30.6517C94.9518 29.743 94.9878 31.8864 93.9976 34.0967C93.819 34.495 93.6103 34.8818 93.3975 35.2609C91.5621 34.4685 89.7467 33.5706 87.916 32.7903C89.8204 32.0762 91.7106 31.2904 93.6469 30.665C94.6671 30.3353 96.2049 29.7623 97.2428 29.9732C98.002 30.1275 98.7954 30.6384 99.4089 31.103L99.4095 31.1036Z" fill="#17BAEE"/>
<path d="M129.233 32.61L129.1 32.5352C129.127 32.3424 128.788 31.6639 129.028 31.5868C129.087 31.5554 129.233 31.6271 129.233 31.6759V32.61Z" fill="#B9E2F9"/>
<path d="M126.875 25.0167C126.604 25.0384 126.746 24.6973 126.69 24.6033L126.463 24.534C126.42 24.3339 126.765 24.2875 126.849 24.4105L126.875 25.0161V25.0167Z" fill="#B9E2F9"/>
<path d="M128.289 28.2716V28.5729L128.113 28.5723C128.097 28.4235 128.108 28.2553 128.289 28.2716Z" fill="#B9E2F9"/>
<path d="M125.932 22.9688H125.756V23.0887H125.932V22.9688Z" fill="#B9E2F9"/>
<path d="M77.6604 22.9207C77.7004 22.9207 77.7329 22.8875 77.7329 22.8466C77.7329 22.8056 77.7004 22.7725 77.6604 22.7725C77.6204 22.7725 77.5879 22.8056 77.5879 22.8466C77.5879 22.8875 77.6204 22.9207 77.6604 22.9207Z" fill="#C4E6FA"/>
<path d="M110.784 29.5967C110.51 30.7506 110.078 31.3267 109.152 31.9956C107.442 33.2321 105.854 33.546 104.772 35.6225C104.623 35.0965 104.483 34.536 104.389 33.9961C104.293 33.4472 104.106 32.759 104.36 32.248C105.481 31.8401 106.745 31.0736 107.898 30.5927C108.875 30.1854 109.761 29.8576 110.784 29.5967Z" fill="#93D4F5"/>
</svg>
