<svg width="202" height="118" viewBox="0 0 202 118" fill="none" xmlns="http://www.w3.org/2000/svg">
<g clip-path="url(#clip0_558_19410)">
<mask id="mask0_558_19410" style="mask-type:luminance" maskUnits="userSpaceOnUse" x="7" y="42" width="188" height="35">
<path d="M195 42H7V77H195V42Z" fill="white"/>
</mask>
<g mask="url(#mask0_558_19410)">
<path d="M107.371 71.1307V47.8711H121.972V53.2735H113.46V71.1307H107.371Z" fill="#E30613"/>
<path d="M140.342 71.1297V62.0201H131.297V71.1297H125.209V47.8701H131.297V56.5504H140.342V47.8701H146.431V71.1297H140.342Z" fill="#E30613"/>
<path d="M181.763 71.1307V53.2735H174.652V47.8711H195.001V53.2735H187.855V71.1307H181.763Z" fill="#E30613"/>
<path d="M165.693 71.1263V57.8735L156.001 71.1263H150.91V47.873H156.999V60.988L166.528 47.873H171.784V71.1263H165.693Z" fill="#E30613"/>
<path d="M72.3828 71.1297V57.3066L66.3039 64.6092L60.2251 57.3066V71.1297H54.1367V47.8701H60.1455L66.3039 55.8679L72.4624 47.8701H78.471V71.1297H72.3828Z" fill="#E30613"/>
<path d="M90.0294 62.9493H95.6876L92.8585 55.6564L90.0294 62.9493ZM98.8609 71.1266L97.5866 67.8677H88.1211L86.8466 71.1266H80.7266L90.0901 47.8701H95.7197L105.086 71.1266H98.8609Z" fill="#E30613"/>
<path d="M6.99414 52.5965C7.00004 49.7874 8.1124 47.0951 10.0877 45.109C12.063 43.123 14.7402 42.0051 17.5333 42H41.8645V47.3863H17.5397C16.1672 47.3922 14.8527 47.9429 13.8819 48.9187C12.9112 49.8944 12.3628 51.2162 12.3561 52.5965L12.3242 61.6389C12.2132 62.7974 11.7238 63.8862 10.9324 64.7356C10.141 65.5848 9.09226 66.1465 7.94993 66.3331L6.99414 66.4805V52.5965Z" fill="#E30613"/>
<path d="M6.99609 77.0001V71.6136H31.3272C32.7 71.6069 34.0145 71.0554 34.9852 70.0793C35.9557 69.103 36.5041 67.7809 36.5108 66.4004V57.8194C36.5175 56.5744 36.9641 55.3724 37.7706 54.428C38.5771 53.4836 39.6912 52.8583 40.9137 52.6637L41.8696 52.5195V66.4004C41.8636 69.2098 40.7514 71.9024 38.7761 73.8889C36.801 75.8755 34.1238 76.994 31.3304 77.0001H6.99609Z" fill="#E30613"/>
<path d="M27.6081 66.5001V59.5374L24.4348 63.3472L21.2648 59.5374V66.5001H17.0625V52.7988H21.0418L24.4348 57.2047L27.8279 52.7988H31.8072V66.5001H27.6081Z" fill="#E30613"/>
</g>
</g>
<defs>
<clipPath id="clip0_558_19410">
<rect width="188" height="35" fill="white" transform="translate(7 42)"/>
</clipPath>
</defs>
</svg>
