<svg width="104" height="104" fill="none" xmlns="http://www.w3.org/2000/svg"><path d="M15.365 88.66c-4.586-4.587-1.544-14.216-3.879-19.859-2.42-5.849-11.3-10.556-11.3-16.788 0-6.232 8.88-10.94 11.3-16.789 2.335-5.642-.707-15.271 3.88-19.858 4.586-4.587 14.215-1.545 19.858-3.88C41.073 9.067 45.78.187 52.012.187c6.232 0 10.94 8.88 16.789 11.3 5.642 2.335 15.272-.707 19.858 3.88 4.587 4.587 1.545 14.216 3.88 19.858 2.42 5.85 11.3 10.557 11.3 16.789 0 6.232-8.88 10.94-11.3 16.788-2.335 5.643.707 15.272-3.88 19.859-4.586 4.587-14.216 1.544-19.858 3.879-5.85 2.42-10.557 11.301-16.789 11.301-6.232 0-10.94-8.881-16.788-11.301-5.643-2.335-15.272.707-19.859-3.88z" fill="#FF4D4D"/><path opacity=".3" d="M18.521 85.505c-4.192-4.192-1.411-12.992-3.545-18.15-2.212-5.345-10.328-9.647-10.328-15.342s8.116-9.998 10.328-15.343c2.134-5.157-.647-13.957 3.545-18.149s12.992-1.411 18.149-3.545c5.346-2.212 9.648-10.328 15.343-10.328s9.998 8.116 15.343 10.328c5.157 2.134 13.957-.647 18.149 3.545 4.191 4.192 1.411 12.992 3.545 18.149 2.212 5.346 10.327 9.648 10.327 15.343s-8.116 9.998-10.327 15.343c-2.134 5.157.646 13.957-3.545 18.149-4.192 4.191-12.992 1.411-18.15 3.545-5.345 2.212-9.647 10.327-15.342 10.327S42.015 91.261 36.67 89.05c-5.157-2.134-13.957.646-18.149-3.545z" fill="#FF4D4D" stroke="#fff" stroke-linecap="round" stroke-linejoin="round"/></svg>