<svg width="20" height="20" fill="none" xmlns="http://www.w3.org/2000/svg"><path fill-rule="evenodd" clip-rule="evenodd" d="M10 0a1 1 0 011 1v10.586l2.293-2.293a1 1 0 111.414 1.414L11.414 14a2 2 0 01-2.828 0l-3.293-3.293a1 1 0 011.414-1.414L9 11.586V1a1 1 0 011-1zM1 13a1 1 0 011 1v.2c0 .857 0 1.439.038 1.889.035.438.1.663.18.819a2 2 0 00.874.874c.156.08.38.145.819.18C4.361 18 4.943 18 5.8 18h8.4c.857 0 1.439 0 1.889-.038.438-.035.663-.1.819-.18a2 2 0 00.874-.874c.08-.156.145-.38.18-.819.037-.45.038-1.032.038-1.889V14a1 1 0 112 0v.241c0 .805 0 1.47-.044 2.01-.046.563-.145 1.08-.392 1.565a4 4 0 01-1.748 1.748c-.485.247-1.002.346-1.564.392-.541.044-1.206.044-2.01.044H5.758c-.805 0-1.47 0-2.01-.044-.563-.046-1.08-.145-1.565-.392a4 4 0 01-1.748-1.748c-.247-.485-.346-1.002-.392-1.564C0 15.71 0 15.046 0 14.242V14a1 1 0 011-1z" fill="#fff"/></svg>