<svg width="22" height="18" fill="none" xmlns="http://www.w3.org/2000/svg"><path fill-rule="evenodd" clip-rule="evenodd" d="M4.179.5H17.82c.542 0 .98 0 1.333.029.365.03.685.093.981.243a2.5 2.5 0 011.092 1.093c.151.296.214.616.244.98.029.355.029.792.029 1.334v9.641c0 .542 0 .98-.029 1.333-.03.365-.093.685-.244.981a2.5 2.5 0 01-1.092 1.092c-.296.151-.616.214-.98.244-.355.029-.792.029-1.334.029H4.18c-.542 0-.98 0-1.333-.029-.365-.03-.685-.093-.981-.244a2.5 2.5 0 01-1.093-1.092c-.15-.296-.213-.616-.243-.98A17.765 17.765 0 01.5 13.82V4.18c0-.542 0-.98.029-1.333.03-.365.093-.685.243-.981A2.5 2.5 0 011.865.772c.296-.15.616-.213.98-.243C3.2.5 3.638.5 4.18.5zM2.358 1.645l7.721 6.005a1.5 1.5 0 001.842 0l7.721-6.005c-.127-.057-.295-.097-.57-.12-.307-.025-.704-.025-1.272-.025H4.2c-.568 0-.964 0-1.273.026-.274.022-.442.062-.57.119zm17.424.075l.525.675-7.772 6.045a2.5 2.5 0 01-3.07 0L1.693 2.395l.525-.675a1.5 1.5 0 00-.555.599c-.067.132-.113.306-.137.608C1.5 3.236 1.5 3.632 1.5 4.2v9.6c0 .568 0 .964.026 1.273.024.303.07.476.137.608a1.5 1.5 0 00.656.656c.132.067.306.113.608.137.309.026.705.026 1.273.026h13.6c.568 0 .965 0 1.273-.026.302-.024.476-.07.608-.137a1.5 1.5 0 00.655-.656c.068-.132.114-.305.138-.608.026-.309.026-.705.026-1.273V4.2c0-.568 0-.964-.026-1.273-.024-.302-.07-.476-.137-.608a1.5 1.5 0 00-.555-.599z" fill="#424E67"/></svg>