<svg width="132" height="87" fill="none" xmlns="http://www.w3.org/2000/svg"><path d="M34.578 11.72c-4.388.806-3.959 3.53-3.668 5.324.138.834.29 1.78.235 2.947 0 .112 0 .209-.014.306-.083-.055-.18-.097-.263-.153-.623-.361-1.398-.806-2.311-1.21-.997-.444-1.87-.667-2.658-.667-3.904 0-4.596 4.81-5.163 8.675-.083.57-.166.988-.25 1.307a35.33 35.33 0 01-.72-.75c-.36-.376-.719-.765-1.107-1.127-.858-.806-1.702-.973-2.27-.973-.609 0-1.495.195-2.34 1.099-1.55 1.682-2.075 4.893-1.896 7.187.042.473 0 .584-1.19 1.265-1.163.667-3.267 1.89-2.796 4.81H3.17c-.872 0-1.675.362-2.243.932A3.236 3.236 0 000 42.958c0 1.765 1.412 3.197 3.17 3.197h5.01c0 9.454 5.206 19.533 13.94 26.957C29.567 79.452 43.23 87 66 87c22.77 0 36.433-7.549 43.88-13.888 8.721-7.424 13.925-17.503 13.925-26.957h5.011a3.21 3.21 0 002.257-.931 3.238 3.238 0 00.927-2.266 3.191 3.191 0 00-3.184-3.198h-6.575c.762-3.781-1.647-6.256-4.208-8.369.623-.32 1.204-.82 1.564-1.64.942-2.169-.166-3.42-.83-4.171-.471-.528-.9-1.029-1.191-2.085-.484-1.85-1.425-2.795-2.796-2.795-.858 0-1.564.431-2.173.82-.485.306-.983.612-1.44.654-.18 0-.36.028-.526.028-1.093 0-1.661-.209-3.709-2.6-.997-1.154-1.786-1.974-2.547-2.766-1.025-1.057-1.98-2.058-3.323-3.74-.885-1.126-2.007-2.266-3.64-2.266-1.329 0-2.395.764-3.737 1.724-.582.417-1.232.876-2.008 1.376-1.08.681-1.605.765-1.785.765-.305 0-.637-.431-1.287-1.335-.264-.361-.554-.778-.886-1.182-1.69-2.03-3.447-4.129-7.268-5.2a3.865 3.865 0 00-1.107-.152c-2.52 0-3.46 2.391-4.097 3.962-.208.542-.499 1.28-.79 1.71-.207-1-.235-2.794-.248-3.754 0-.68-.014-1.334-.056-1.918-.18-2.85-1.993-3.337-3.308-3.684-.955-.25-2.16-.57-3.807-1.752C65.668.417 64.698 0 63.8 0c-2.588 0-2.727 2.794-2.796 4.296-.042.82-.083 1.751-.29 2.544-.098.361-.194.486-.222.514h-.083c-.596 0-1.924-.57-3.89-2.168-.817-.668-1.827-1.349-3.06-1.349-.94 0-1.674.375-2.435.779-.886.472-2.008 1.042-4.084 1.431-4.208.793-5.108 2.294-5.827 4.157-.263.695-.499 1.293-1.246 1.988-.263.25-.457.39-.582.473-.041-.028-.096-.056-.138-.083-.595-.362-1.592-.988-3.211-.988-.43 0-.886.042-1.357.126zM66 85.193c-3.834 0-7.433-.223-10.839-.626-.512-.153-1.01-.32-1.495-.486h2.977c4.11-.056 8.208-.181 12.305-.418 4.098-.264 8.195-.542 12.237-1.292-4.07.514-8.167.584-12.25.611-4.084 0-8.181-.097-12.265-.278a359.05 359.05 0 01-7.724-.472 38.5 38.5 0 01-2.63-1.293c3.032.125 6.05.18 9.08.194 4.749 0 9.497-.125 14.217-.403 4.72-.32 9.482-.667 14.105-1.724-4.665.82-9.413.932-14.119 1.029-4.72.056-9.44-.056-14.16-.292a222.811 222.811 0 01-12.93-1.029 48.319 48.319 0 01-2.311-1.585c4.54.265 9.094.417 13.635.445 5.44.028 10.866-.083 16.292-.347 5.412-.32 10.866-.626 16.195-1.682-5.37.82-10.796.89-16.209.987a287.353 287.353 0 01-16.237-.348c-5.398-.264-10.797-.667-16.168-1.265l-.387-.042a71.832 71.832 0 01-1.55-1.362h.096c5.911.361 11.822.514 17.732.542a341.42 341.42 0 0017.705-.361c5.883-.306 11.807-.598 17.62-1.613-5.84.779-11.751.834-17.634.918a356.38 356.38 0 01-17.663-.334c-5.883-.25-11.752-.64-17.593-1.237-.886-.084-1.758-.195-2.644-.292-.388-.418-.776-.835-1.136-1.252.499.028.997.07 1.495.098 6.437.361 12.86.528 19.297.542 6.422.028 12.86-.097 19.268-.348 6.41-.305 12.846-.584 19.2-1.543-6.382.737-12.805.779-19.214.848a422.048 422.048 0 01-19.227-.347c-6.409-.25-12.804-.64-19.171-1.238-1.19-.11-2.395-.236-3.585-.375l-.914-1.21c.872.056 1.744.112 2.63.153 6.907.362 13.815.5 20.722.529a514.02 514.02 0 0020.708-.362c6.893-.292 13.8-.57 20.639-1.487-6.866.68-13.773.723-20.653.792a538.67 538.67 0 01-20.666-.334c-6.88-.25-13.76-.625-20.611-1.209a414.483 414.483 0 01-4.333-.403c-.25-.39-.485-.765-.706-1.154 1.744.097 3.474.18 5.218.264 7.157.306 14.327.417 21.484.403 7.156 0 14.313-.139 21.455-.389 7.143-.292 14.3-.556 21.4-1.404-7.128.612-14.271.653-21.414.709a611.945 611.945 0 01-21.428-.306c-7.142-.222-14.27-.556-21.386-1.098a359.74 359.74 0 01-6.672-.57c-.194-.362-.36-.723-.54-1.099 2.201.112 4.388.223 6.59.293 7.502.264 15.004.36 22.507.347a758.776 758.776 0 0022.493-.417c7.49-.278 14.992-.556 22.439-1.335-7.475.543-14.964.584-22.452.64a805.091 805.091 0 01-22.453-.278 573.427 573.427 0 01-22.424-1.043 356.02 356.02 0 01-7.752-.598c-.138-.361-.29-.709-.415-1.07 2.644.125 5.302.222 7.946.306 7.807.222 15.614.306 23.407.264 7.793-.042 15.6-.18 23.393-.431 7.793-.278 15.587-.542 23.352-1.251-7.78.486-15.572.528-23.366.556-7.793 0-15.572-.07-23.365-.264-7.78-.195-15.56-.5-23.325-.96-2.948-.18-5.896-.389-8.831-.611-.11-.362-.208-.723-.305-1.085 2.492.098 4.984.195 7.475.264 8.264.223 16.528.292 24.792.265a984.217 984.217 0 0024.777-.431c8.25-.264 16.514-.529 24.737-1.196-8.25.431-16.5.473-24.75.5-8.25 0-16.5-.069-24.75-.264-8.25-.194-16.487-.5-24.723-.959-2.699-.153-5.398-.334-8.097-.514-.028-.167-.056-.32-.083-.487 7.24.111 40.571.056 40.571.056 6.285-.14 12.583-.153 18.867-.417l18.867-.654c6.285-.389 12.583-.625 18.867-1.154a.15.15 0 00.139-.139.132.132 0 00-.139-.139l-97.45-.097a18.439 18.439 0 01-.027-.862h100.274c0 16.14-16.777 39.038-56.006 39.038L66 85.192zm64.201-42.235c0 .473-.222.806-.388.973a1.393 1.393 0 01-.997.417H50.704c-.775-.848-.678-1.988-.29-2.78h78.402c.762 0 1.385.625 1.385 1.39zm-90.93-28.416c.443 0 .982-.264 1.813-1.043 2.824-2.67.526-4.616 6.173-5.686 3.973-.737 4.97-2.183 6.202-2.183.526 0 1.08.265 1.924.946 1.703 1.39 3.599 2.572 5.025 2.572.955 0 1.688-.529 2.048-1.863.665-2.544-.069-5.492 1.343-5.492.457 0 1.149.32 2.201 1.057 4.236 3.017 6.174 1.237 6.354 4.073.166 2.642-.277 7.73 1.771 7.73.153 0 .333-.028.526-.097 2.464-.82 2.174-5.95 4.68-5.95.193 0 .387.027.622.097 3.184.89 4.596 2.488 6.367 4.615 1.232 1.488 1.91 3.17 3.572 3.17.706 0 1.578-.306 2.74-1.043 2.45-1.557 3.655-2.822 4.79-2.822.678 0 1.343.459 2.229 1.585 2.394 3.017 3.626 3.907 5.924 6.562 2.076 2.419 3.128 3.225 5.08 3.225.208 0 .429 0 .651-.028 1.578-.125 2.671-1.46 3.488-1.46.429 0 .761.362 1.052 1.46.858 3.198 2.99 3.017 2.104 5.06-.886 2.03-5.426.251-2.104 2.92 3.336 2.67 5.399 4.616 4.554 7.813H9.98c-.886-3.725 4.236-2.669 3.973-6.214-.221-2.933.886-6.353 2.45-6.353.332 0 .678.153 1.038.5 1.218 1.14 2.45 2.878 3.447 2.878.692 0 1.273-.848 1.633-3.364.692-4.783 1.398-7.132 3.378-7.132.54 0 1.163.167 1.924.514 1.993.904 3.322 1.988 4.125 1.988.623 0 .927-.64.997-2.502.18-4.268-1.938-5.867 1.951-6.576.388-.07.734-.097 1.039-.097 1.882 0 2.408 1.14 3.335 1.14zm-2.727 12.665c1.453 1.014 2.962 2.071 3.986 1.723.97-.32 1.495.07 1.73.32.706.807.374 2.308-.166 3.434-.72 1.502-2.159 3.073-4.055 3.073h-.166a.623.623 0 01-.596-.654.622.622 0 01.65-.598c1.399.056 2.492-1.237 3.046-2.363.54-1.112.485-1.905.346-2.072-.028-.027-.152-.041-.401.028-1.62.543-3.392-.695-5.094-1.877-1.717-1.195-3.336-2.335-4.499-1.612-.512.32-1.038.611-1.536.903-2.243 1.252-4.18 2.336-5.26 6.02a.618.618 0 01-.776.417.622.622 0 01-.415-.778c1.232-4.171 3.585-5.492 5.855-6.77.485-.279.983-.557 1.481-.863 1.855-1.154 3.987.334 5.87 1.655v.014zm40.488 5.81c2.381.612 5.094 1.307 4.956 3.365a.64.64 0 01-.665.584.623.623 0 01-.581-.667c.07-1.015-2.2-1.6-4.028-2.072-2.118-.542-4.111-1.056-4.443-2.433-.084-.347-.333-.597-.776-.764-1.425-.556-4.194-.028-5.924 1.14-2.713 1.82-3.53 1.82-6.783.027-.913-.5-2.242-.987-3.377-.43-1.177.583-2.021 2.196-2.423 4.67l-.235 1.488-.886-1.21c-.65-.889-2.284-1.542-3.89-1.556-.94-.028-2.56.194-3.585 1.557a.625.625 0 01-.997-.75c.997-1.336 2.603-2.059 4.54-2.059h.056c1.509 0 2.976.473 4 1.196.54-2.294 1.51-3.795 2.88-4.463 1.287-.625 2.851-.472 4.526.46 2.824 1.57 3.184 1.57 5.482.027 2.09-1.404 5.26-1.974 7.073-1.265.83.32 1.357.89 1.537 1.64.152.64 2.104 1.14 3.53 1.516h.013zm-31.242-2.64c-1.3-4.088-1.356-6.41-.194-7.313.665-.515 1.606-.473 2.81.097.125-1.78 1.08-3.24 2.714-4.101 1.522-.806 3.377-.904 4.401-.278.194-.612.513-1.64 1.578-2.155 1.066-.514 2.617-.375 4.707.459 2.657 1.056 4.9 1.098 6.533 1.126 1.495.028 2.672.055 3.392.862.526.598.692 1.501.54 2.92-.236 2.28.706 2.571 1.605 2.863.485.153 1.025.334 1.19.89.167.57-.207 1.182-.816 1.89a.62.62 0 01-.941-.806c.29-.347.429-.57.498-.681-.097-.028-.208-.07-.305-.097-.982-.32-2.796-.904-2.463-4.185.11-1.015.027-1.668-.236-1.96-.346-.39-1.287-.417-2.477-.431-1.73-.028-4.098-.083-6.963-1.223-1.703-.682-2.99-.848-3.71-.5-.581.277-.761.875-.927 1.403-.139.459-.291.932-.776 1.07-.47.14-.844-.194-.969-.305-.442-.39-1.896-.473-3.266.25-.872.459-2.298 1.599-2.021 4.004l.152 1.307-1.107-.71c-1.121-.722-2.008-.986-2.367-.722-.166.139-.942 1.043.609 5.936a.624.624 0 01-.402.793c-.069.013-.124.027-.194.027a.623.623 0 01-.595-.43zm31.851-.21c-.263-.222-.276-.625-.055-.889 1.855-2.113 3.793-1.14 5.343-.361 1.453.736 2.7 1.362 4.111.278.775-.598 1.44-.807 2.063-.654.955.237 1.44 1.251 1.896 2.238.817 1.752 1.288 2.42 2.672 1.822 3.654-1.585 6.713 1.807 7.821 3.823a.623.623 0 01-.25.848.586.586 0 01-.304.083.6.6 0 01-.54-.32c-.111-.194-2.7-4.81-6.229-3.28-2.616 1.126-3.627-1.015-4.291-2.433-.318-.681-.678-1.46-1.066-1.557-.221-.056-.581.097-1.01.43-2.035 1.572-3.918.612-5.44-.152-1.675-.848-2.686-1.265-3.849.07a.617.617 0 01-.886.055h.014zm4.956-9.133c1.813-1.418 5.454-.028 7.018.57.581.223 1.204.014 1.993-.236 1.454-.473 3.433-1.112 5.98.32 6.091 3.433 6.88 4.99 6.949 5.866.028.39-.097.737-.36 1.029.194.083.443.18.637.25.955.376 2.048.793 2.242 1.71.111.542-.111 1.098-.664 1.654-.277.279-.305.418-.305.418.139.11 1.038.305 1.578.417 1.08.236 2.09.458 2.492 1.14.166.292.208.625.111.973a.637.637 0 01-.596.445.41.41 0 01-.18-.028.622.622 0 01-.415-.779c-.124-.194-1.135-.403-1.661-.528-1.163-.25-2.27-.486-2.519-1.349-.222-.75.415-1.39.623-1.598.304-.306.346-.473.332-.515-.055-.264-1.052-.64-1.467-.806-.831-.32-1.537-.598-1.634-1.237-.041-.25.014-.626.485-.987.097-.07.083-.112.083-.14-.014-.222-.402-1.529-6.312-4.865-2.063-1.168-3.613-.653-4.984-.223-.94.306-1.827.598-2.713.265-1.232-.473-4.664-1.78-5.924-.793-.415.334-.581.96-.485 1.877a.626.626 0 01-.553.695.634.634 0 01-.692-.556c-.153-1.376.166-2.391.955-3.003l-.014.014zm-43.7 3.114c-.65-2.1-.554-3.753.29-4.907.859-1.168 2.45-1.766 4.72-1.766.347 0 .624.278.624.626a.622.622 0 01-.623.625c-1.855 0-3.101.417-3.724 1.252-.595.806-.637 2.085-.11 3.795a.622.622 0 11-1.191.361l.014.014zm13.413-9.022c.235-1.113.609-1.794 1.177-2.141.664-.417 1.398-.209 2.034-.042.914.25 1.454.348 2.049-.39 1.564-1.96 5.55-1.028 7.641-.166.997.417 3.322 1.515 3.184 2.92a.63.63 0 01-.679.555.613.613 0 01-.553-.68c-.014-.307-1.163-1.266-3.295-1.961-2.45-.806-4.637-.75-5.329.111-1.135 1.418-2.464 1.057-3.336.82-.457-.125-.844-.222-1.066-.097-.138.084-.387.362-.595 1.335a.622.622 0 01-.61.486c-.04 0-.082 0-.138-.014a.617.617 0 01-.47-.75l-.014.014zM33.83 32.045c0 .736-.595 1.334-1.328 1.334a1.332 1.332 0 01-1.33-1.334c0-.737.596-1.335 1.33-1.335.733 0 1.328.598 1.328 1.335zm33.499-7.021a1.149 1.149 0 01-1.15-1.154 1.149 1.149 0 112.299 0c0 .64-.512 1.154-1.15 1.154zm13.69-11.803a1.149 1.149 0 112.298 0 1.149 1.149 0 11-2.298 0zM55.314 27.512a1.149 1.149 0 01-1.15-1.153 1.149 1.149 0 112.299 0c0 .64-.513 1.153-1.15 1.153zM97.27 25.83c0 1.03-.83 1.863-1.855 1.863a1.859 1.859 0 01-1.855-1.863 1.86 1.86 0 011.855-1.863 1.86 1.86 0 011.855 1.863zm-75.8 10.385c0 .876-.707 1.599-1.592 1.599a1.587 1.587 0 01-1.592-1.599c0-.89.706-1.599 1.591-1.599.886 0 1.592.71 1.592 1.6zm91.538-.097a1.676 1.676 0 113.35 0 1.675 1.675 0 11-3.35 0zm-3.003-9.05c0-.25.193-.445.443-.445.249 0 .443.194.443.445 0 .25-.194.444-.443.444a.438.438 0 01-.443-.444zm-11.143-8.606c0-.486.401-.89.886-.89.484 0 .885.404.885.89 0 .487-.401.89-.885.89a.894.894 0 01-.886-.89zm-.845 58.417a.353.353 0 01.153-.473c15.821-8.23 20.749-19.365 22.092-27.248a.329.329 0 01.401-.278.33.33 0 01.277.403c-1.37 8.05-6.381 19.394-22.452 27.75a.367.367 0 01-.166.04.344.344 0 01-.305-.18v-.014z" fill="#424E67"/></svg>