<svg width="192" height="109" fill="none" xmlns="http://www.w3.org/2000/svg"><path d="M56.319 19.65c-2.874 4.073-8.187 5.575-8.328.735-.303-10.338-10.485 1.058-2.765-9.042 2.082-2.712 3.687-2.712 8.382-3.792 4.695-1.091.13 5.499 4.576 6.503 4.435 1.005 1.008 1.513-1.865 5.596zM174.8 67.507c-.315 1.047 1.843 2.992 2.559.993-.401-.831-1.442-1.123-2.559-.993zm16.373 22.815c-.705.886-2.613 2.906-5.443 3.111-.922.789-2.05 1.102-3.199 1.102-1.442 0-2.928-.486-4.099-1.123a9.13 9.13 0 01-1.735-1.178c-3.545-4.072-8.099-7.389-13.597-9.928-4.684-1.782-7.536-5.163-8.685-10.305-.011-.065-.033-.152-.044-.227-2.927-3.176-6.516-6.6-8.717-7.595-2.158-.961-3.123-.453-3.839-.075a6.217 6.217 0 01-.271.14c-.52.227-1.431 1.858-2.038 2.939-.608 1.09-1.182 2.117-1.724 2.646-.065.065-.152.119-.228.184.401 1.696.922 3.63 1.431 5.53.423 1.6.868 3.263 1.225 4.7.239.93.358 1.76.337 2.474-.055 2.28 1.702 5.164 3.404 7.95 1.605 2.637 3.134 5.132 3.177 7.13l4.001 5.661a.29.29 0 01.022.281.27.27 0 01-.238.14h-8.512a.282.282 0 01-.217-.108.26.26 0 01-.043-.237s.162-.616.227-1.34c.076-.875 0-1.977-.802-2.333-1.03-.443-1.8-1.47-2.06-2.744-1.258-5.736-3.882-9.615-5.997-12.726-.401-.594-.791-1.166-1.16-1.728a.244.244 0 01-.043-.065 10.87 10.87 0 00-2.483-2.69c-4.012-3.1-4.251-7.032-4.153-8.674-1.475.053-2.798.183-3.99.41-3.633.724-5.715-1.566-7.721-3.781-.715-.789-1.463-1.588-2.298-2.301-.38.713-.748 1.426-1.095 2.128-1.421 2.852-2.505 5.412-3.036 7.195-.64 2.096-.933 3.716-1.182 5.131-.217 1.188-.402 2.215-.738 3.284a15.165 15.165 0 01-.748 1.89c-.564 1.157-1.334 2.345-2.44 3.717-1.561 3.49-2.071 6.914-2.44 9.43-.27 1.859-.476 3.198-.975 4.019-.195.314-.195.54 0 .908.184.367.531.799.932 1.296.694.853 1.562 1.923 2.267 3.446a.702.702 0 01-.044.67.706.706 0 01-.596.324h-6.723c-.867 0-1.67-.27-2.32-.789a3.38 3.38 0 01-1.193-2.128c-.184-1.296-.52-2.387-.965-3.187-.466-.821-.531-1.825-.184-2.743.791-2.053 1.583-3.857 2.342-5.596.423-.951.824-1.87 1.182-2.744 1.268-3.068 2.081-5.65 1.919-8.286-.109-1.944.412-4.256 1.008-6.935.228-1.027.477-2.096.694-3.22.586-2.938 1.171-6.838.532-11.008-.011-.108-.044-.205-.055-.313-14.074-3.22-26.522 8.88-40.206 2.14a.938.938 0 01-.108.172c-.835.907-1.93 1.75-3.188 2.506-.25.908-.661 1.761-1.139 2.712-.856 1.685-1.919 3.791-2.374 7.27-.672 5.002.77 13.244 3.665 21.011.368.357 5.714 5.51 5.714 5.51a.297.297 0 01-.206.507l-10.442-.043c-.585 0-1.16-.194-1.648-.551a3.165 3.165 0 01-1.236-1.652c-.13-.422-.282-.821-.423-1.167-.39-.983-.791-2.031-.835-3.133-.401-8.696-2.917-16.582-7.861-24.511-.054.13-.109.259-.163.378-.292.626-.954.95-1.637.842a1.528 1.528 0 01-1.28-1.36c-.151-1.405-.162-2.69-.021-3.825-2.874-1.037-5.15-2.344-5.248-2.398l-1.171-.67c-.12.162-.217.313-.336.475-1.594 2.226-3.535 4.591-5.227 6.644l-1.615 1.934c-1.952 2.322-3.785 4.515-5.27 6.481-2.754 3.652-3.59 8.318-4.467 13.266-.423 2.334-.879 4.861-1.583 7.292.368.41.715.843 1.04 1.296 1.009 1.329 1.822 2.723 2.267 3.468.14.248.249.421.303.497.195.205.217.475.098.735-.163.378-.228.518-2.809.518-1.051 0-2.526-.022-4.597-.065a3.684 3.684 0 01-2.212-.767c-.846-.616-1.377-1.62-1.431-2.733a74.656 74.656 0 00-.206-3.543 4.086 4.086 0 01.4-2.128c.933-1.988 1.964-5.186 2.896-8.999 1.54-6.255 3.285-17.965 3.459-23.204.043-1.113.553-2.16 1.42-2.971.51-.486.987-.886 1.453-1.286 1.865-1.588 3.33-2.84 5.845-8.264.715-1.534 1.312-4.04 1.778-7.475.792-5.737 1.073-13.115 1.171-19.11a210.672 210.672 0 01-.835 4.3c-1.691 8.252-4.478 10.575-8.512 13.178-3.307 2.129-5.085 6.212-5.649 9.366.336 1.794.38 3.306-.325 5.218-.792 2.107-3.817 3.144-4.164 3.252a.754.754 0 01-.217.032.741.741 0 01-.303-.075c-.022 0-.033-.022-.055-.033a.861.861 0 01-.227-.216s-.011 0-.011-.01c0-.022 0-.033-.022-.055-.01-.032-.032-.054-.043-.097v-.054a.613.613 0 01-.011-.14v-.13c0-.043.022-.086.033-.13a.398.398 0 01.054-.118c.021-.033.054-.065.076-.098a.955.955 0 01.108-.097c.01-.01.022-.032.043-.043.098-.065.976-.67.716-3.198-.314-2.949 1.28-4.278 2.039-4.742.292-1.62 1.832-8.059 8.186-11.602 6.593-3.684 7.352-15.664 7.352-24.36 0-3.976 1.29-7.012 3.838-9.032 4.294-3.413 10.605-2.582 10.659-2.57 2.31.54 3.687-.098 5.432-.897 1.952-.897 4.38-2.02 8.707-1.567.868.087 1.757.13 2.646.108 3.73-.054 8.425-.432 13.868-.875 2.83-.227 5.812-.464 8.87-.68 4.662-.465 13.705-1.437 19.105-2.02C94.645.155 96.124 0 96.167 0c3.307 0 14.107.583 24.332 3.262h.021c.727.184 1.562.27 2.527.357 5.107.497 12.827 1.264 21.805 18.548.868 1.642 2.451 4.17 4.218 6.882.098.032.174.097.195.205v.097c3.177 4.84 6.929 10.155 8.404 11.894 2.223 2.614 6.039 7.292 8.934 10.857.716-2.215 1.735-3.565 3.069-4.008 1.789-.594 3.481.616 4.337 1.393.51.465.987 1.016 1.442 1.556 1.475 1.729 2.863 3.36 5.823 2.97a.668.668 0 01.412 1.243c-.119.065-2.45 1.372-5.042 1.372a6.581 6.581 0 01-1.811-.237 5.593 5.593 0 01-2.765-1.783c.044.346.196.627.261.735 1.203 1.101 1.745 2.052 2.277 2.97.466.821.9 1.588 1.81 2.474 2.158 2.085 3.535 4.289 4.088 6.547 2.353 2.398 4.153 4.494 4.392 7.486.097 1.35 1.626 3.792 2.971 5.963.802 1.286 1.561 2.496 1.995 3.457v.022c.206.464.325.8.379 1.09.109.606.467.973.857 1.362.846.875 1.485 1.804.065 3.586l.011.022zm-14.909-24.058c-1.757-.054-3.405.897-3.156 2.712.239 1.825 4.544 2.193 4.934.702.52-1.988-.022-3.349-1.778-3.414zm7.416 8.556c-2.364-4.559-5.118-4.267-4.218-1.631.889 2.636 3.936 7.68 5.888 9.97.792.94 3.069-.032.672-2.56-2.396-2.517.033-1.22-2.331-5.79l-.011.011zm-17.522 5.293a.474.474 0 00.466-.453.46.46 0 00-.455-.465c-4.207-.021-7.688-2.517-8.469-6.06a.47.47 0 00-.553-.357.467.467 0 00-.358.551c.868 3.965 4.717 6.752 9.369 6.784zm-10.81-29.393c.391 3.533 2.256 7.022 3.557 8.178.856-.378 1.962-.486 2.45-.519-.206-3.921-1.962-6.179-6.007-7.659zm4.175-5.131c-.065-.076-6.387-7.487-9.249-12.1a.268.268 0 00-.369-.086.266.266 0 00-.087.367c2.885 4.657 9.239 12.1 9.304 12.164a.267.267 0 00.379.033c.12-.097.13-.27.033-.378h-.011zm19.94 9.074c-.661 0-2.721-.659-4.109-2.377-2.418-2.981-4.392-4.007-5.855-3.057a.258.258 0 00-.076.357.26.26 0 00.357.075c1.215-.777 2.95.206 5.173 2.95 1.463 1.814 3.665 2.56 4.51 2.56h.044a.254.254 0 10-.011-.508h-.033zm-148.105 2.44c-.14-.064-.293 0-.358.14C28.235 63.5 19.095 74.54 16.08 77.857a.27.27 0 00.022.378c.054.043.12.065.184.065a.254.254 0 00.195-.087C19.517 74.874 28.701 63.77 31.5 57.45c.065-.14 0-.291-.14-.356v.01zM3.34 101.2c.097 1.286.173 2.496.206 3.598.032.626.314 1.188.77 1.577.889-.799 2.808-2.366 4.63-2.874-.25-.313-.5-.648-.77-.929a.687.687 0 01-.163-.68c.748-2.474 1.214-5.11 1.637-7.443l.098-.551c-.477-.8-1.215-1.026-1.984-1.253-.553-.162-1.106-.335-1.508-.724-.867 3.316-1.767 6.017-2.645 7.864-.217.465-.315.94-.271 1.415zm26.5-35.919s1.496.864 3.524 1.707c.629.27 1.312.53 2.028.767a.698.698 0 01.466.789c-.206 1.123-.217 2.517-.054 4.029 0 .032 0 .097.119.119.098.022.12-.032.13-.065.488-1.026.868-2.3 1.074-3.587a.696.696 0 01.292-.464.75.75 0 01.543-.119c.66.13 1.279.216 1.832.26.661.043 1.355.053 2.082.043h.672c.184 0 .38.064.52.194a.68.68 0 01.217.508c0 1.112.152 2.171.445 3.165.022.097.087.14.184.14.098 0 .163-.043.195-.14a11.72 11.72 0 00.467-3.381c0-.357.25-.66.596-.702a35.983 35.983 0 001.68-.292c.185-.043.38 0 .532.097a.69.69 0 01.304.454c.173.864.498 2.128 1.04 3.176.066.13.207.119.272.108.162-.032.173-.151.173-.184.087-1.253-.097-2.614-.25-3.521a.693.693 0 01.478-.778 20.74 20.74 0 004.576-2.118c.932-.594 1.745-1.231 2.385-1.9-2.375-1.535-4.055-4.138-6.766-5.791-7.644-4.645-13.11.01-18.227 2.809a9.497 9.497 0 00-.922 1.371c-.455.854-1.019 1.761-1.648 2.712l1.074.616-.033-.022zm21.317 28.012a.28.28 0 00.272.183c.032 0 .075 0 .108-.021a.282.282 0 00.163-.378c-2.32-5.931-3.026-12.424-1.985-18.29a.28.28 0 00-.238-.334c-.152-.022-.315.075-.336.237-1.063 5.963-.347 12.575 2.017 18.603zm35.5-33.165a.263.263 0 00-.314-.216c-3.795.66-6.95 1.631-9.726 2.496-4.326 1.34-7.742 2.398-11.7 1.814a.267.267 0 00-.303.227.261.261 0 00.227.303c.77.108 1.519.162 2.267.162 3.21 0 6.245-.94 9.672-1.999 2.765-.853 5.898-1.825 9.66-2.474a.257.257 0 00.218-.313zm13.739 30.032c-1.854 1.231-4.218 1.847-5.346 2.096-.022.043-.824 1.944-1.247 2.906-.759 1.728-1.54 3.51-2.32 5.531-.195.529-.163 1.102.097 1.566.543.962.922 2.193 1.128 3.673.065.411.26.756.52 1.048.846-.929 2.625-2.712 4.349-3.392-.228-.659-.185-1.286.195-1.912.347-.584.553-1.934.78-3.5.326-2.172.749-5.002 1.844-8.016zm36.118-18.764c-.043-.14-.206-.216-.347-.173-.141.043-.217.205-.173.345 1.94 5.704 2.938 9.29 3.155 11.29.011.14.13.237.271.237h.032a.264.264 0 00.239-.302c-.217-2.064-1.193-5.575-3.177-11.398zm-9.965-21.714a.27.27 0 00.022-.378.273.273 0 00-.38-.022c-3.513 3.176-5.258 6.774-7.47 11.322a200.605 200.605 0 01-2.006 4.061.284.284 0 00.119.368.283.283 0 00.119.032.26.26 0 00.239-.151c.748-1.459 1.388-2.787 2.016-4.073 2.267-4.677 3.904-8.059 7.341-11.159zm27.607 19.834c0-.54 0-1.113.043-1.707-2.385-2.463-5.183-5.099-7.352-6.298-.13-.076-.184-.238-.108-.367a.282.282 0 01.369-.108c2.125 1.166 4.814 3.651 7.145 6.05.239-2.518.944-5.262 2.321-7.098-2.483-1.934-3.85-6.244-3.882-9.615 0-.756.336-1.469.932-1.944.608-.476 1.377-.648 2.115-.476 2.266.551 6.202 2.031 8.49 5.899.26-.335.542-.54.856-.637.109-.033.217-.033.315-.044-1.681-2.495-4.327-4.494-7.981-6.038-3.426-1.448-6.711-.768-9.108-.27-1.572.324-2.711.561-3.274.01-.326-.313-.402-.82-.239-1.599.39-1.922 1.898-3.338 3.112-4.483.867-.81 1.616-1.523 1.518-2.02-.054-.291-.401-.572-1.052-.853-.564-.249-1.236-.508-1.951-.8-3.373-1.34-7.569-3.014-7.797-4.893-.076-.616.261-1.189.987-1.696 1.778-1.264 4.099-.443 5.964.227 1.203.432 2.353.842 2.83.453a.81.81 0 00.195-.26c-2.093-3.164-4.023-6.221-5.02-8.112-8.621-16.615-15.885-17.328-20.689-17.803-.987-.097-1.908-.184-2.732-.4h-.033a84.716 84.716 0 00-3.556-.842c-1.605-.033-3.264.108-4.945.313-1.138 1.588 1.399 1.75 1.312 2.7-.108 1.2 4.262.357 4.565 2.01.315 1.653 3.849-.518 6.961-1.34 3.112-.831 1.247 2.788 0 3.555-1.247.767 1.345 4.926 2.906 8.188 1.551 3.263-2.179 6.255-3.947 4.494-1.767-1.76-3.112-2.895-3.22.313-.098 3.198-5.497 1.75-5.085.724.412-1.037-.618-3.111-3.221-5.607-2.591-2.506-3.003 1.048-3.838-2.257-.835-3.306-4.771-.616-6.333-3.425-1.561-2.798-4.358.735-5.29 4.462-.933 3.716-3.124 4.753-5.51 1.22.11-5.088.63-4.634 4.989-9.139 4.359-4.494 3.73-2.949 8.023-4.494.543-.194 1.128-.389 1.703-.594-1.518.195-3.004.335-4.424.335-.998 0-1.974-.065-2.906-.227-1.084-.183-2.31-.41-3.632-.648-3.004-.55-6.604-1.21-10.215-1.696-4.326.465-8.858.94-11.743 1.232-3.068.216-6.05.453-8.87.68-5.28.421-9.856.789-13.564.875a1.1 1.1 0 01-.14.422c-.402.713-1.53 1.101-3.373 1.155-2.537.054-3.73.951-4.88 1.815-.726.551-1.42 1.07-2.385 1.318-.412.108-.477.216-.477.238-.043.097.163.4.314.616.326.464.727 1.048.553 1.75-.14.583-.65 1.112-1.572 1.63-.51.282-.965.4-1.388.4-1.366 0-2.331-1.306-3.415-2.776-1.128-1.523-2.386-3.208-4.392-4.159-1.908.238-4.229.875-6.05 2.43-.174.141-.325.303-.477.465-1.128 1.772-1.02 4.116-.878 7.033.075 1.674.151 3.554.021 5.585.033.518.065 1.059.087 1.556 0 .043-.01.075-.022.119-.043 6.395-.282 15.383-1.214 22.134-.054.378-.109.735-.163 1.091 1.854 3.22 3.069-3.878 2.277-8.512-.878-5.067 2.527 1.242 5.422 6.309 2.906 5.066 6.679-2.517 4.066-6.536-4.869-7.508 6.582-12.726 9.921-5.736.77 1.62 1.334 4.688-2.407 10.694-3.6 5.802-3.036 6.374.727 4.548.238-.334.466-.67.694-1.026a27.468 27.468 0 002.58-5.174c.792-2.085 1.388-4.408 1.79-6.914a.706.706 0 01.802-.584c.38.065.65.422.585.8a36.345 36.345 0 01-1.691 6.687c.531 3.079 2.049 4.407 4.814 5.725 3.047 1.448 5.974-3.208 8.295-1.35 2.31 1.869 3.947-8.664 5.085-4.559 1.139 4.094 3.741-3.64 4.262-.745.51 2.895.032 4.796 3.665 5.725 3.632.93 6.408-6.503 7.546-2.83 1.139 3.673 2.245 4.948 4.912 3.651 2.7-1.307 5.465-6.082 7.547-8.156 2.082-2.074-1.388 15.286 1.626 10.425.207-.335.39-.594.564-.8 2.527-6.46 8.631-11.32 11.982-12.585a.705.705 0 01.846.281.705.705 0 01-.12.886c-.054.054-5.302 5.034-7.47 11.31-1.085 3.144-1.215 6.093-.37 8.761.38 1.178.662 2.388.836 3.609.661 4.386.054 8.437-.542 11.483a78.331 78.331 0 01-.445 2.096c.195 1.858.846 4.342 2.147 6.254.889 1.308 1.973 2.14 3.199 2.496.238-.497.444-1.016.629-1.599.303-.983.487-1.966.694-3.111.26-1.459.563-3.122 1.225-5.293.553-1.859 1.67-4.494 3.123-7.411a84.532 84.532 0 014.011-7.238 68.04 68.04 0 012.896-4.364c2.06-2.885 5.128-6.633 8.11-8.092 5.736-2.82 6.82-10.24 7.688-16.215.097-.691.195-1.35.293-1.987a.705.705 0 011.398.065c.857 12.833-3.708 18.591-7.037 22.793-1.247 1.567-2.309 2.939-2.906 4.397.727 1.826 1.388 5.93-1.735 7.184-3.372 1.35 2.559 4.418 4.381 4.418.401 0 .868-.086 1.355-.291 2.7-1.113 7.168-4.516 8.415-2.863.477.637 1.008 1.113 1.572 1.437.184.097.325.237.434.389l.119-.216c1.052-1.88 1.811-3.144 2.667-3.533l.206-.108c.803-.421 2.299-1.21 5.075.043 2.125.95 5.205 3.781 7.926 6.6l.033-.01zm29.092 23.636c-1.302-.389-2.592-1.156-3.882-2.3 0 0-.022-.011-.022-.022-.022.01-.032.021-.054.043-.174.194-.347.583-.325 1.318a.437.437 0 00.097.054c1.215.659 2.808 1.134 4.196.907h-.01zm6.896-5.498c-.434-.443-1.02-1.059-1.204-2.042a3.626 3.626 0 00-.184-.562c-1.15-.453-1.572.12-2.472 1.837-.846 1.62-2.05 3.889-5.151 3.683 1.464 1.092 2.928 1.61 4.305 1.556 2.407-.086 4.088-1.869 4.695-2.625.813-1.016.64-1.188.022-1.837l-.011-.01zm-2.874.313c-.347.594-.303 1.253.087 1.48.39.227.987-.076 1.323-.67.347-.594.304-1.253-.087-1.48-.39-.227-.987.076-1.323.67zM91.559 10.068c-.662.4-1.236.918-1.865 1.372a6.478 6.478 0 00-.868.767l-.813.821c-.575.53-1.03 1.156-1.518 1.761-1.908 2.452-3.296 5.272-4.316 8.178a38.575 38.575 0 00-1.919 9.02c-.26 3.046-.347 6.168.336 9.16-.13-1.522-.108-3.035 0-4.547.076-1.513.25-3.014.488-4.505.467-2.982 1.128-5.93 2.126-8.772.965-2.84 2.277-5.563 3.968-8.037a23.778 23.778 0 016.398-6.341c-.673.367-1.345.745-2.006 1.134l-.011-.01zm-7.233 4.408a23.603 23.603 0 015.931-5.845 79.77 79.77 0 00-1.854 1.037c-.629.346-1.149.832-1.735 1.254-.585.41-1.062.95-1.572 1.458-.25.26-.51.508-.759.767l-.672.832c-1.81 2.236-3.145 4.818-4.142 7.486a36.674 36.674 0 00-1.92 8.307 50.737 50.737 0 00-.27 4.246c.043 1.415.065 2.841.314 4.235.01-2.82.293-5.607.78-8.362.5-2.744 1.15-5.455 2.115-8.059.944-2.603 2.201-5.099 3.784-7.356zm-2.84-.8a22.603 22.603 0 015.475-5.358c-.574.303-1.15.616-1.724.94-.564.324-1.073.756-1.615 1.134-.553.368-.976.886-1.464 1.318-.499.443-.911.95-1.334 1.459-1.702 2.03-2.96 4.386-3.925 6.827a33.117 33.117 0 00-1.92 7.616c-.335 2.593-.444 5.218-.162 7.8.098-1.297.174-2.582.369-3.857.151-1.275.357-2.55.607-3.803.52-2.506 1.182-4.99 2.114-7.356.911-2.377 2.093-4.646 3.568-6.709l.01-.01zm-2.69-.994a21.744 21.744 0 014.869-4.677c-.51.26-1.02.518-1.529.8-.499.29-.954.647-1.442.96a18.897 18.897 0 00-2.537 2.388c-1.55 1.74-2.744 3.781-3.676 5.898a29.756 29.756 0 00-1.952 6.644c-.39 2.269-.575 4.57-.455 6.86.184-1.134.314-2.258.553-3.37.184-1.113.423-2.226.715-3.317.564-2.182 1.226-4.332 2.126-6.384a27.94 27.94 0 013.318-5.802h.01zm-.26-3.802a14.056 14.056 0 00-3.87 3.284c-1.107 1.307-1.996 2.776-2.733 4.321a24.22 24.22 0 00-2.256 9.83c.9-3.24 1.844-6.405 3.242-9.365 1.378-2.971 3.2-5.704 5.628-8.049l-.01-.021zm-4.88 1.07c-1.788 1.155-3.133 2.884-4.13 4.753-.965 1.88-1.616 3.921-1.746 6.027.954-1.88 1.746-3.748 2.7-5.53.932-1.805 1.995-3.5 3.166-5.25h.01zm55.214 18.612a.269.269 0 00-.25.292c.456 5.218.564 11.613-2.721 14.778a.26.26 0 000 .379.271.271 0 00.195.086c.076 0 .141-.022.184-.076 3.448-3.327 3.351-9.873 2.884-15.21-.01-.151-.151-.27-.292-.248zM37.94 67.28c-.141-.022-.282.097-.293.248a.27.27 0 00.25.292c.617.054 1.637.119 2.895.119 3.437 0 8.642-.486 12.371-3.003.066-.044.152-.087.217-.13a.274.274 0 00.065-.378.277.277 0 00-.38-.065c-.13.086-.27.173-.4.26-4.945 3.186-12.47 2.851-14.714 2.657h-.011z" fill="#424E67"/></svg>