<svg width="120" height="95" fill="none" xmlns="http://www.w3.org/2000/svg"><path d="M51.468 0l-18.46 67.059-6.154-25.147c8.019 0 14.546 2.328 19.58 6.985 5.035 4.657 7.553 11.083 7.553 19.28 0 8.01-2.61 14.529-7.832 19.558C41.119 92.578 34.779 95 27.133 95c-7.832 0-14.36-2.422-19.58-7.265C2.516 82.705 0 76.186 0 68.177c0-2.422.186-4.75.56-6.986.372-2.421 1.118-5.216 2.237-8.382 1.12-3.167 2.704-7.358 4.755-12.574L23.776 0h27.692zm66.015 0L99.021 67.059l-6.154-25.147c8.019 0 14.546 2.328 19.581 6.985S120 59.98 120 68.177c0 8.01-2.611 14.529-7.832 19.558C107.133 92.578 100.793 95 93.147 95c-7.832 0-14.36-2.422-19.58-7.265-5.035-5.03-7.553-11.549-7.553-19.558 0-2.422.187-4.75.56-6.986.372-2.421 1.118-5.216 2.237-8.382 1.12-3.167 2.704-7.358 4.755-12.574L89.79 0h27.693z" fill="#EAECF7"/></svg>