<svg width="20" height="20" fill="none" xmlns="http://www.w3.org/2000/svg"><circle cx="9.616" cy="9.616" r="9.616" fill="#2EAC6A"/><path d="M7.595 8.357a6.99 6.99 0 001.362 1.919 6.99 6.99 0 001.92 1.362.5.5 0 00.54-.016c.03-.023.058-.05.113-.105.167-.168.25-.251.335-.306a.957.957 0 011.043 0c.085.055.168.138.336.306l.093.093c.254.254.381.382.45.518a.957.957 0 010 .864c-.069.137-.196.264-.45.518l-.076.076c-.253.253-.38.38-.552.477a1.617 1.617 0 01-.708.184c-.197-.001-.332-.04-.602-.116a9.112 9.112 0 01-3.965-2.332 9.111 9.111 0 01-2.332-3.965c-.077-.27-.115-.405-.116-.603 0-.219.077-.516.184-.707.097-.172.224-.299.477-.552l.076-.076c.254-.254.381-.381.518-.45a.957.957 0 01.864 0c.136.069.264.196.518.45l.093.093c.167.168.251.251.306.335a.957.957 0 010 1.044c-.055.084-.139.168-.306.335a.5.5 0 00-.121.654z" fill="#fff"/></svg>