<svg width="133" height="94" fill="none" xmlns="http://www.w3.org/2000/svg"><path d="M132.116 62.737s.07-.028.098-.043c.056-.014.113-.028.155-.056.056-.028.098-.07.154-.113.028-.028.07-.057.098-.085a1.07 1.07 0 00.169-.268c0-.028 0-.043.014-.07.028-.071.042-.142.056-.213 1.067-16.274-4.002-39.16-14.055-47.763C98.965-2.841 64.016-.312 53.766.86 20.657 4.675 4.608 14.21 1.716 31.784c-1.46 8.844-2.809 20.33-.38 30.628 1.826 7.869 5.715 14.141 11.57 18.662l.674.508c.169.127.351.255.534.382a55.818 55.818 0 003.356 2.274c.477.297.983.594 1.46.862.983.58 2.036 1.158 3.23 1.752.842.423 1.713.833 2.597 1.229.997.438 2.036.861 3.075 1.243 1.292.508 2.598.96 4.016 1.384.955.297 1.938.58 2.934.834 1.798.452 3.553.833 5.252 1.144.927.156 1.853.311 2.794.452 2.148.311 4.465.551 6.894.692.885.057 1.798.1 2.696.114 1.04.042 2.106.056 3.188.056a105.341 105.341 0 007.877-.297c5.153-.381 10.503-1.13 15.894-2.218a.914.914 0 00.73-.847c.043-.834 1.025-19.708.478-27.209 14.462.622 42.882.904 51.545-.692h-.014zM53.78 85.567c-.393 2.217-.884 4.393-1.418 6.554-.842-.028-1.699-.056-2.527-.113-.197 0-.365-.028-.562-.042l-.38-8.886-1.445 8.73a62.109 62.109 0 01-2.472-.254l-.533-11.386-1.376 11.146a53.634 53.634 0 01-2.092-.34l-.702-14.437-1.306 14.056c-.604-.127-1.222-.254-1.84-.395l-.856-18.38-1.278 17.857c-.632-.17-1.25-.353-1.867-.537-.492-7.332-.632-14.734-.773-22.123-.59 7.12-1.193 14.255-1.46 21.431a69.24 69.24 0 01-1.825-.65c-.674-8.137-.787-16.387-.744-24.595-.773 7.855-1.419 15.738-1.559 23.691-.421-.17-.857-.325-1.264-.509-.112-.042-.21-.098-.323-.155a173.27 173.27 0 01-.702-10.835 243.792 243.792 0 010-16.02c-.631 5.311-1.123 10.651-1.404 16.005a186.83 186.83 0 00-.252 9.734c-.295-.155-.576-.297-.857-.452-.421-3.8-.688-7.629-.829-11.471-.196-5.58-.154-11.175.141-16.755a190.392 190.392 0 00-1.545 16.755c-.154 3.376-.21 6.753-.154 10.157-.225-.127-.45-.254-.66-.395a141.49 141.49 0 01-.969-12.206c-.21-5.82-.14-11.67.295-17.504-.899 5.778-1.446 11.627-1.699 17.49a148.817 148.817 0 00-.07 10.623l-.421-.296c-.59-4.239-.97-8.533-1.138-12.842-.238-5.962-.154-11.966.365-17.941-.969 5.919-1.544 11.923-1.769 17.941-.126 3.645-.112 7.29.042 10.949-.042-.043-.084-.071-.14-.113a123.514 123.514 0 01-1.362-13.492c-.28-6.004-.21-12.05.323-18.068-.997 5.961-1.545 12.008-1.727 18.082a129.81 129.81 0 00.042 9.056 123.85 123.85 0 01-1.306-12.093c-.337-5.976-.295-12.008.21-18.012-.968 5.947-1.488 11.98-1.614 18.04-.042 2.218 0 4.436.056 6.668a125.225 125.225 0 01-1.362-10.764c-.491-6.09-.59-12.22-.042-18.337-1.011 6.06-1.39 12.234-1.362 18.393.014 2.896.14 5.778.351 8.674a117.817 117.817 0 01-1.474-15.413c-.197-7.063.154-14.183 1.32-21.19-1.63 6.922-2.458 14.042-2.724 21.19-.099 2.755-.07 5.51 0 8.265-1.784-9.48-.52-19.849.814-27.986C6.293 15.439 21.851 6.37 54.005 2.669A136.162 136.162 0 0169.66 1.75c20.247 0 37.574 4.846 47.978 13.76 3.609 3.08 6.572 8.32 8.818 14.494-1.418-3.023-3.019-5.24-4.746-6.244-4.872-2.797-55.153-3.927-60.868-4.054-.351-.07-.646.17-.815.452a.923.923 0 000 .932c.085.142 8.495 14.156 12.623 20.075 3.974 5.707 4.985 10.327 6.01 21.346.66 5.778-.168 23.493-.35 27.28-5.084.988-10.125 1.68-14.983 2.048-.898.07-1.797.127-2.682.17-2.204.112-4.366.126-6.473.098-.07-2.204-.196-4.408-.393-6.583v.042zm26.608-23.974c-1.01-10.624-2.176-15.583-6.248-21.431-3.314-4.747-9.436-14.805-11.696-18.535 22.269.495 55.041 1.879 58.341 3.772 4.886 2.811 9.59 19.354 10.208 35.67-9.408 1.442-36.718 1.131-50.605.523zm-8.48-7.318c-5.66 1.808-11.528 2.613-17.313 2.613-15.375 0-30.175-5.622-38.698-12.813-6.543-5.524-9.702-11.966-8.888-18.167a.907.907 0 011.025-.792.91.91 0 01.786 1.032c-.73 5.552 2.19 11.414 8.243 16.514 11.359 9.578 34.246 16.275 54.283 9.861a.918.918 0 011.151.593.926.926 0 01-.59 1.159zM110.66 35.91a3.024 3.024 0 003.019-3.038 3.024 3.024 0 00-3.019-3.037 3.024 3.024 0 00-3.019 3.037 3.024 3.024 0 003.019 3.038zm-1.966-2.896a.349.349 0 01.45.211c.112.311.645.876 1.305 1.06.394.113.731.07 1.011-.141a.354.354 0 01.492.07.36.36 0 01-.07.495c-.309.226-.66.353-1.039.353-.197 0-.394-.028-.604-.085-.857-.254-1.573-.96-1.769-1.497a.35.35 0 01.21-.452l.014-.014zm-9.112 7.459c0-2.656-2.317-4.818-5.168-4.818-2.85 0-5.167 2.162-5.167 4.818 0 2.656 2.317 4.817 5.167 4.817 2.85 0 5.167-2.161 5.167-4.817zm-3.216 3.277c-.52.31-1.151.466-1.811.466-.8 0-1.657-.226-2.415-.65-1.236-.706-1.952-1.836-1.952-3.08 0-.197.154-.352.351-.352.197 0 .351.155.351.353 0 .989.576 1.893 1.587 2.472 1.165.664 2.611.749 3.524.198a.345.345 0 01.477.127.35.35 0 01-.126.48l.014-.014zm16.569 7.614c0 .975-1.011 1.78-2.261 1.78-1.25 0-2.261-.79-2.261-1.78 0-.988 1.011-1.78 2.261-1.78 1.25 0 2.261.792 2.261 1.78zm4.268-8.476c0-.763.73-1.398 1.643-1.398s1.643.621 1.643 1.398c0 .777-.73 1.399-1.643 1.399s-1.643-.622-1.643-1.399zm-38.529-14.96a1.65 1.65 0 01-1.643 1.653 1.641 1.641 0 01-1.642-1.653c0-.919.73-1.653 1.642-1.653.913 0 1.643.735 1.643 1.653zM89.01 47.31a2.519 2.519 0 00-2.514 2.529 2.519 2.519 0 002.514 2.529c1.39 0 2.513-1.13 2.513-2.53a2.519 2.519 0 00-2.513-2.528zm1.067 3.758c-.436.24-.815.353-1.166.353-.196 0-.393-.042-.561-.113-.45-.212-.773-.664-.927-1.37a.353.353 0 01.267-.424.345.345 0 01.42.268c.113.467.296.763.534.876.323.142.787-.028 1.11-.212.168-.099.379-.028.477.142.098.169.028.381-.14.48h-.014zm-2.71-21.487c-.899 0-1.643-.566-1.643-1.272 0-.706.73-1.271 1.643-1.271.912 0 1.642.565 1.642 1.271s-.73 1.272-1.642 1.272zm-2.64 7.727c0 .636-.562 1.144-1.264 1.144s-1.263-.508-1.263-1.144c0-.636.561-1.144 1.263-1.144.702 0 1.264.508 1.264 1.144zm14.982 16.345c-1.6 0-2.893 1.356-2.893 3.037 0 1.681 1.292 3.038 2.893 3.038 1.601 0 2.892-1.357 2.892-3.038 0-1.68-1.291-3.037-2.892-3.037zm.983 4.648l-.211.07c-.309.114-.66.24-1.039.24-.52 0-1.067-.24-1.572-1.101a.35.35 0 01.126-.48.345.345 0 01.477.127c.576.989 1.053.819 1.783.55l.225-.084a.367.367 0 01.449.226.37.37 0 01-.224.452h-.014zm-81.65-34.287c-.73-5.142 2.135-9.493 8.51-12.926 18.52-9.973 65.094-9.338 76.65 1.046.267.24.281.635.056.904a.638.638 0 01-.898.056C92.941 3.728 47.728 1.68 28.141 12.22c-5.855 3.15-8.495 7.063-7.849 11.626a.636.636 0 01-.534.72h-.084a.622.622 0 01-.617-.55h-.015zm47.08 19.877a.642.642 0 01.689.58.635.635 0 01-.576.692c-1.812.17-4.62.353-7.99.353-6.304 0-14.602-.65-22.114-3.277a.632.632 0 01-.394-.806.626.626 0 01.8-.395c11.64 4.068 25.584 3.22 29.585 2.868v-.015zM29.686 20.327c-.436 2.247.224 4.55 1.923 6.668 4.016 5.001 13.087 8.25 23.66 8.463.35 0 .632.296.617.65a.628.628 0 01-.631.62c-11.107-.225-20.318-3.56-24.629-8.927-1.937-2.416-2.696-5.086-2.19-7.7a.646.646 0 01.744-.508c.337.07.562.395.506.748v-.014zM75.684 55.42a.336.336 0 01.281-.41.34.34 0 01.407.283c1.18 6.188 1.405 17.574.632 32.902 0 .183-.168.339-.35.339h-.015c-.196 0-.337-.17-.337-.368.758-15.27.548-26.6-.618-32.732v-.014z" fill="#424E67"/></svg>