<svg width="118" height="106" fill="none" xmlns="http://www.w3.org/2000/svg"><path d="M22.622 42.308a115 115 0 01-7.735-.249l.045-.642c7.987.538 19.113.245 24.002-1.358l.207.608c-3.5 1.147-10.106 1.641-16.52 1.641zm7.964 21.034c-.84 0-1.69 0-3.425-1.355-1.028-.806-1.242-3.72-3.994-4.088-2.755-.367-3.191-2.264-4.776-4.725a4822.98 4822.98 0 00-5.24-8.104l-.7-.252V42.23l.84-.122a2200.88 2200.88 0 003.101 5.048s4.043 6.96 5.104 7.881c1.062.925 1.148 1.47 2.379 1.805 1.23.334 1.788.924 2.04 1.425.256.505 1.532 2.784 2.932 3.72.233.155 1.513 1.225 1.731 1.355h.008z" fill="#173B91"/><path d="M21.5 19.823c11.103 0 13.798 1.132 14.42 1.808.165.178.15.3.13.505-.03.286-.7.857-1.283 1.177l-.33.181v.375c-.008.275-.091 6.727-.091 7.81 0 1.352.734 2.24 2.032 3.695 1.156 1.291 2.232 3.998 2.39 5.197.068.538.12 7.42 0 37.16-.003 1.113-.007 1.8-.007 1.915 0 .222-.045 2.22-1.562 3.541-1.156 1.006-7.89 1.856-14.705 1.856-2.966 0-5.981-.107-8.714-.312-3.188-.237-5.8-.597-7.354-1.01-2.759-.734-3.079-1.436-3.452-2.245l-.037-.082c-.305-.66-.298-4.532-.286-8.278v-3.638c-.008-6.118-.023-22.37.478-28.766a26.4 26.4 0 01.147-1.467l.007-.044a6.55 6.55 0 01.117-.653c.58-2.29 2.062-3.787 2.943-4.681.403-.409.647-.654.764-.921.256-.594.17-5.264.053-9.08l-.011-.35-.305-.181s-.463-.279-.885-.642c-.557-.48-.587-.713-.587-.713 0-.026.023-.085.094-.163.546-.594 3.203-1.98 16.03-1.98m.004-.656c-15.5 0-16.858 2.012-16.772 2.85.038.38.41.795.81 1.137.474.408.978.709.978.709s.256 8.219 0 8.809c-.256.587-2.89 2.346-3.741 5.698-.049.19-.094.45-.136.769-.056.412-.105.917-.15 1.503-.55 6.98-.482 25.585-.482 30.18 0 5.287-.086 9.894.343 10.818.425.924.764 1.845 3.91 2.684 1.675.445 4.366.802 7.479 1.032 2.729.204 5.781.312 8.762.312 6.38 0 13.69-.758 15.138-2.016 1.445-1.258 1.784-3.103 1.784-4.024 0-.92.173-37.906 0-39.16-.17-1.259-1.276-4.114-2.548-5.535-1.276-1.426-1.87-2.18-1.87-3.27 0-1.092.086-7.804.086-7.804s1.532-.835 1.618-1.674c.087-.84.298-3.018-15.198-3.018H21.5z" fill="#173B91"/><path d="M21.27 25.796c-.323 0-.64 0-.944-.007-2.816-.041-9.779-.305-13.633-1.805l.241-.597c3.756 1.462 10.625 1.719 13.403 1.76 4.799.07 11.062-.424 14.242-1.697l.245.598c-3.252 1.299-9.12 1.748-13.55 1.748h-.004zm-6.496 8.928a9.679 9.679 0 01-2.586-.375c-.636-.174-1.212-.338-1.784-.568l.245-.598c.542.216 1.099.375 1.716.546 2.454.68 4.208.26 5.032-.356.44-.33.674-.735.674-1.177 0-1.407-1.664-2.376-5.085-2.955-2.19-.367-3.846.126-4.46.742-.226.227-.316.472-.267.724.128.665.436 1.2.948 1.637l-.429.483a3.443 3.443 0 01-1.159-2c-.09-.465.06-.914.44-1.296.904-.91 2.925-1.281 5.036-.928 3.787.642 5.627 1.815 5.627 3.59 0 .638-.33 1.235-.933 1.685-.742.553-1.796.839-3.015.839v.007z" fill="#173B91"/><path d="M10.133 24.512v4.41c-1.449.282-2.36 1.002-2.194 1.848.158.81.557 1.404 1.088 1.857-.286.445-.651.88-1.107 1.28-2.307 2.012-3.839 2.985-4.987 6.018-.14.371-.294.609-.448.731.083-1.047.177-1.834.286-2.272.85-3.352 3.49-5.115 3.741-5.698.256-.587 0-8.81 0-8.81l3.618.64.003-.004z" fill="#173B91"/><path d="M13.739 85.366c-3.113-.226-5.8-.583-7.479-1.028-3.15-.839-3.489-1.763-3.91-2.684-.426-.924-.343-5.531-.343-10.817 0-4.593-.064-23.202.478-30.185a26.33 26.33 0 01.15-1.5l.885-.549c1.954 1.93 5.04 2.758 9.47 3.007 1.114 9.938.753 43.756.753 43.756h-.004zm7.072-60.984c-.659 0-1.287-.015-1.87-.045-4.837-.249-10.998-1.214-12.21-1.908-.478-.275-.715-.557-.723-.865-.015-.456.482-.82.949-1.128l.18.267c-.402.263-.813.572-.805.85.007.186.196.386.56.598 1.16.664 7.359 1.622 12.064 1.863 4.942.256 13.267-.68 14.92-1.043 1.625-.36 2.3-.961 2.307-.969l.222.234c-.03.026-.734.665-2.458 1.047-1.468.327-8.168 1.095-13.136 1.095v.004z" fill="#173B91"/><path d="M9.708 23.086c4.035-1.462 13.279-1.336 17.554-.961 4.276.375 6.252 1.084 6.252 1.084" fill="#EAECF7"/><path d="M33.401 23.51c-.019-.008-2.002-.699-6.169-1.066-4.806-.423-13.662-.42-17.411.943l-.226-.602c4.257-1.544 13.76-1.325 17.694-.98 4.264.375 6.251 1.073 6.334 1.103l-.222.605v-.004zm-2.379 39.98c-.685 0-1.35-.267-2.16-.81-1.596-1.065-3.17-4.142-3.233-4.272-.298-.587-.915-1.01-1.837-1.258-.933-.253-1.29-.639-1.75-1.125a9.552 9.552 0 00-.76-.746c-1.092-.947-5.003-7.677-5.168-7.967-.26-.42-6.47-10.494-7.144-11.7-.67-1.2-.79-1.768-.56-2.644.206-.794 2.307-2.502 2.724-2.836l.17-.134.192.1c.022.012.587.312.907.583.399.338.41.858.41.914v.148l-.117.097c-.022.018-.59.49-1.046.709-.324.152-1.05 1.258-.975 1.57.18.486 4.502 7.462 7.358 12.028 1.698 2.639 5.13 7.84 5.981 8.612.576.527.956.646 1.355.772.324.1.659.208 1.05.512.527.409 1.374 1.611 2.195 2.777.508.72.986 1.4 1.294 1.752.614.702 1.07.56 1.822.334l.177-.052c.482-.144.794-.007.971.13.46.357.49 1.092.467 1.496l-.012.167-.146.09c-.828.504-1.506.757-2.168.757l.003-.004zm-19.65-32.72c-.96.784-2.229 1.953-2.334 2.358-.162.616-.162.987.5 2.171.67 1.196 7.073 11.583 7.137 11.687 1.121 1.93 4.2 7.082 5.04 7.81.35.304.59.564.809.79.433.461.692.74 1.445.944 1.107.3 1.863.835 2.247 1.592.015.03 1.562 3.055 3.015 4.028 1.197.798 1.965.998 3.47.126 0-.382-.083-.676-.226-.787-.03-.022-.124-.096-.38-.018l-.173.052c-.794.24-1.615.49-2.507-.528-.331-.378-.82-1.072-1.336-1.804-.719-1.02-1.615-2.29-2.063-2.64-.3-.233-.553-.315-.846-.404-.43-.133-.915-.29-1.596-.91-1.126-1.024-5.89-8.43-6.09-8.742-1.713-2.74-7.31-11.7-7.437-12.213-.181-.712.816-2.064 1.32-2.305.264-.126.592-.368.772-.512a.55.55 0 00-.162-.29 4.154 4.154 0 00-.606-.4v-.005z" fill="#173B91"/><path d="M30.413 63.011s.76 1.147 2.036 1.652c1.276.505 1.957.505 2.89-.42.934-.924 1.871-1.592 2.899-1.844 1.027-.253 2.97-1.173 3.907-1.615.937-.442 1.445-1.403 2.04-1.908.594-.505 1.358-.167 2.209-.754.85-.586.256-2.264-.512-3.437-.764-1.173-1.87-1.34-2.635-1.173-.764.167-1.106 1.34-1.614 1.425-.509.086-2.138.167-3.486.587-1.347.42-2.89 2.179-3.997 2.684-1.106.504-2.04.252-2.89.419-.851.167-1.532 1.006-1.596 2.16 0 0 .402-1.96 2.02-1.559 1.62.401 2.056 1.021 2.786 2.521.58 1.192.184 2.09-.087 2.472-.39.553-1.738.954-2.657.049" fill="#EAECF7"/><path d="M33.811 65.32c-.338 0-.696-.078-1.095-.215a2.133 2.133 0 01-1.144-.535 5.303 5.303 0 01-1.434-1.384l.546-.353s.474.702 1.264 1.21h.004l.019.015c.18.115.38.22.595.304.105.041.207.078.3.112.11.01.215.01.306 0 .459-.041.809-.256.937-.442.154-.215.61-1.013.06-2.15-.7-1.44-1.076-1.974-2.57-2.35-.34-.085-.622-.051-.87.105-.561.345-.75 1.199-.75 1.206l-.643-.081c.072-1.266.817-2.254 1.856-2.458.335-.067.662-.07 1.008-.078.573-.011 1.163-.022 1.807-.315.44-.2.986-.643 1.562-1.107.813-.657 1.649-1.336 2.473-1.592 1.046-.327 2.262-.457 2.992-.535.233-.026.418-.044.542-.063.102-.015.305-.29.437-.468.278-.37.625-.835 1.159-.954.437-.093 1.938-.282 2.981 1.315.933 1.429 1.426 3.185.422 3.875-.501.345-.983.412-1.374.468-.331.048-.595.081-.813.267-.188.16-.38.386-.584.627-.402.476-.858 1.014-1.528 1.33l-.094.044c-.997.468-2.85 1.34-3.873 1.593-.873.215-1.742.772-2.744 1.76-.617.608-1.159.85-1.754.85zm-2.141-6.426l.09.023c1.739.434 2.25 1.154 3 2.695.704 1.447.094 2.505-.113 2.795.147-.1.297-.23.46-.39 1.087-1.073 2.058-1.685 3.048-1.93.963-.234 2.845-1.121 3.749-1.548l.094-.045c.542-.256.93-.716 1.31-1.162.222-.26.429-.505.658-.701.361-.305.76-.36 1.144-.416.37-.052.72-.1 1.092-.356.587-.405.158-1.845-.599-3-.813-1.247-1.957-1.106-2.292-1.036-.297.067-.542.39-.775.71-.252.341-.493.66-.858.72a9.978 9.978 0 01-.576.07c-.704.074-1.878.2-2.864.509-.704.219-1.495.857-2.259 1.474-.61.493-1.185.957-1.7 1.191-.773.353-1.461.364-2.071.375-.188 0-.369.008-.546.022h.008z" fill="#173B91"/><path d="M44.568 53.497l-.647-.086c.049-.345-.263-1.05-.542-1.678-.132-.304-.271-.616-.376-.902l-.042-.115c-.361-.98-.91-2.457-.655-4.072.189-1.184-1.012-3.378-1.806-4.833-.207-.379-.395-.72-.542-1.014-.753-1.488-5.492-9.54-5.537-9.622l.565-.323c.195.334 4.795 8.152 5.559 9.66.147.285.331.623.534.994.889 1.619 2.1 3.839 1.879 5.238-.234 1.448.282 2.836.62 3.753l.042.115c.098.268.233.572.361.865.339.769.659 1.496.591 2.02h-.004z" fill="#173B91"/><path d="M46.134 54.885l-.508-.404c.335-.409-.279-1.868-.689-2.83a26.094 26.094 0 01-.233-.56l-.17-.412c-.496-1.188-1.057-2.535-1.211-5.052-.128-2.072-.953-3.423-1.83-4.852-.256-.416-.52-.85-.768-1.307-1.091-1.99-6.259-11.174-6.311-11.266l.568-.312c.053.093 5.22 9.28 6.316 11.27.244.442.504.869.752 1.28.919 1.5 1.784 2.915 1.92 5.146.147 2.413.689 3.709 1.163 4.848.06.141.117.282.173.42l.23.549c.576 1.362 1.17 2.773.594 3.482h.004zM21.579 36.81c-3.65 0-7.23-.323-9.952-.653-.188-.022-.323-.04-.399-.048l.068-.639c.08.008.219.026.414.048 6.677.813 18.627 1.585 23.656-2.413l.41.502c-3.124 2.483-8.74 3.203-14.193 3.203h-.004zM9.237 35.619c-1.592-.171-2.962-1.044-3.018-1.08l.177-.268s1.362.869 2.875 1.028l-.034.32zM19.863 85.37l.606-21.345.606 21.345h-1.212zm1.397 0l.567-18.747.569 18.747h-1.137zm1.316 0l.512-15.31.512 15.31h-1.024zm1.258 0l.47-12.93.47 12.93h-.94zm1.163 0l.425-10.476.421 10.476h-.846zm1.053 0l.392-8.872.391 8.872h-.783zm-7.614 0l.629-23.046.628 23.046h-1.257zm-1.546-.42l.65-24.511.648 24.512h-1.299zm-2.974 0l.73-30.8.726 30.8h-1.456z" fill="#173B91"/><path d="M15.339 84.95l.673-26.46.674 26.46h-1.347zm-1.796-33.413c-.071-2.131.945-4.41 2.198-2.473 1.254 1.938 0-1.804 0-1.804l-2.585-2.955-1.02 2.139 1.407 5.093zm2.337-18.413c.539 0 .975-.43.975-.962a.968.968 0 00-.974-.96.968.968 0 00-.975.96c0 .532.436.962.975.962zM9.252 31.26a.624.624 0 00.63-.62.624.624 0 00-.63-.62.624.624 0 00-.628.62c0 .343.281.62.628.62zm26.302 27.95c.952-.694 1.916-1.433 2.996-1.927a8.159 8.159 0 011.8-.56c.62-.127 1.294-.171 1.915-.36.083-.026.068-.145-.019-.149-.64-.033-1.29.082-1.916.212-.624.13-1.23.311-1.81.579-1.14.523-2.093 1.31-3.03 2.123-.045.037.015.119.064.082zM28.96 33.577c.022 0 .022-.033 0-.033-.023 0-.023.033 0 .033zm.128-.754c.022 0 .022-.033 0-.033-.023 0-.023.033 0 .033z" fill="#173B91"/><path d="M16.96 23.85s-.297-1.97.513-2.516c.809-.546 4.377-.379 4.889-.334.512.044 1.19.895 1.359 1.229-.851-.167-4.28-.282-4.848-.167-.595.122-.828.326-.85 1.006-.016.464 0 .783 0 .783H16.96z" fill="#EAECF7"/><path d="M16.822 24.01l-.023-.137c-.011-.085-.301-2.079.58-2.673.93-.627 4.953-.367 4.994-.363.602.048 1.314.961 1.494 1.317l.151.294-.328-.064c-.824-.163-4.219-.282-4.78-.166-.515.103-.703.248-.718.853-.015.45 0 .769 0 .772l.007.168h-1.378zm.282-.319h.753c0-.14 0-.36.003-.627.023-.713.279-1.017.979-1.158.534-.108 3.338-.026 4.55.115-.267-.364-.726-.832-1.046-.858-.85-.07-4.08-.167-4.784.308-.546.368-.527 1.623-.459 2.224l.004-.004z" fill="#173B91"/><path d="M23.72 22.288c.362.442.332 1.845.332 1.845l-.813.037s.049-1.7-.384-1.971c.572-.004.866.089.866.089z" fill="#EAECF7"/><path d="M23.07 24.337v-.174c.026-.773-.087-1.693-.302-1.83l-.463-.294h.55c.602 0 .903.09.918.093l.046.015.03.037c.387.475.368 1.8.365 1.949v.149l-1.144.051v.004zm.105-1.971c.203.46.23 1.247.226 1.633l.485-.022c-.003-.43-.056-1.232-.267-1.552a3.127 3.127 0 00-.448-.059h.004zm9.797 52.728c.023 0 .023-.033 0-.033s-.023.033 0 .033zm-2.055 7.562c.681.327 1.325.152 2.017-.063.606-.19 1.216-.39 1.773-.694 1.269-.683 1.765-1.823 1.878-3.2.143-1.7.113-3.434.09-5.141a58.22 58.22 0 00-.312-5.353c-.015-.123-.207-.127-.2 0 .208 3.085.332 6.17.197 9.258-.06 1.366-.09 2.866-1.261 3.801-.535.427-1.19.687-1.833.91-.73.252-1.532.553-2.319.412-.037-.008-.071.048-.03.07zm5.518-28.042c-.106-.906-.072-1.852-.08-2.765-.007-.914 0-1.845.008-2.766.008-.92.008-1.845.023-2.77.015-.924.128-1.86.052-2.765-.01-.137-.199-.134-.214 0-.105.906-.007 1.856 0 2.766.008.91.015 1.844.034 2.769.019.924.053 1.845.083 2.766.03.92.113 1.852.064 2.765 0 .022.033.019.033 0h-.003zm-4.182-28.179c-.143 1.091-.24 2.19-.214 3.292.01.539.045 1.077.097 1.615.027.264.05.531.102.787.045.227.072.472.252.631.076.067.204.063.26-.033.117-.212.068-.442.049-.676-.026-.278-.072-.557-.105-.831a21.428 21.428 0 01-.12-1.556c-.046-1.08-.042-2.157.07-3.233.027-.249-.357-.241-.39 0v.004z" fill="#173B91"/><path d="M59.737 91.618c-3.535 0-7.122-.127-10.377-.372-3.81-.282-6.937-.712-8.811-1.213-3.456-.921-3.892-1.875-4.351-2.881l-.045-.097c-.4-.86-.388-5.297-.377-9.993 0-.876.004-1.778.004-2.699v-1.626c-.008-7.272-.026-26.587.568-34.2.057-.732.113-1.311.177-1.764v-.03c.053-.36.102-.646.154-.842.716-2.825 2.522-4.648 3.599-5.736.433-.438.718-.727.828-.976.312-.72.101-8.315.03-10.624l-.008-.208-.18-.108s-.58-.345-1.107-.802c-.5-.427-.802-.828-.832-1.099-.015-.155.057-.319.211-.49.85-.924 4.49-2.476 19.327-2.476 12.67 0 16.463 1.236 17.415 2.272.313.338.283.62.256.895-.06.579-1.087 1.347-1.724 1.693l-.195.107v.223c-.004.078-.106 7.989-.106 9.273 0 1.466.84 2.476 2.319 4.136 1.419 1.585 2.736 4.907 2.936 6.373.079.587.147 8.728.003 44.195-.003 1.321-.007 2.138-.007 2.275 0 1.277-.52 3.219-1.987 4.496-1.457 1.266-9.406 2.298-17.724 2.298h.004z" fill="#EAECF7"/><path d="M58.551 13.765c13.188 0 16.391 1.343 17.13 2.145.195.212.18.36.157.602-.034.338-.835 1.017-1.524 1.396l-.395.215v.445c-.012.327-.106 7.99-.106 9.277 0 1.604.873 2.662 2.417 4.388 1.373 1.533 2.65 4.752 2.841 6.174.08.638.143 8.816 0 44.142l-.007 2.275c0 .264-.053 2.64-1.856 4.21-1.37 1.195-9.372 2.201-17.468 2.201-3.526 0-7.102-.126-10.35-.367-3.787-.282-6.888-.71-8.74-1.203-3.278-.872-3.658-1.708-4.099-2.67l-.045-.1c-.361-.783-.35-5.382-.342-9.833 0-.876.004-1.778.004-2.699v-1.622c-.008-7.269-.027-26.576.568-34.171a32.13 32.13 0 01.173-1.741l.008-.056c.045-.334.09-.594.139-.78.692-2.72 2.45-4.499 3.5-5.56.482-.487.768-.78.907-1.096.305-.705.203-6.255.06-10.787l-.015-.416-.36-.215s-.554-.33-1.055-.761c-.662-.568-.696-.847-.696-.847 0-.03.026-.1.113-.196.647-.706 3.805-2.354 19.041-2.354m0-.761c-18.413 0-20.027 2.39-19.926 3.386.045.449.49.942.96 1.347.56.486 1.163.84 1.163.84s.301 9.762 0 10.464c-.301.694-3.432 2.788-4.445 6.77a8.307 8.307 0 00-.162.914c-.064.49-.124 1.088-.177 1.786-.647 8.293-.568 30.4-.568 35.856 0 6.278-.102 11.753.407 12.852.504 1.095.907 2.19 4.644 3.189 1.991.53 5.183.95 8.883 1.225 3.24.241 6.869.371 10.407.371 7.576 0 16.263-.898 17.98-2.394 1.716-1.493 2.118-3.687 2.118-4.782 0-1.095.207-45.03 0-46.521-.2-1.496-1.513-4.886-3.026-6.575-1.513-1.696-2.22-2.587-2.22-3.883 0-1.295.101-9.27.101-9.27s1.818-.99 1.92-1.989c.101-.995.354-3.586-18.055-3.586h-.004z" fill="#173B91"/><path d="M50.718 39.799c8.702.586 22.474.397 28.666-1.634L50.718 39.8z" fill="#EAECF7"/><path d="M59.88 40.474c-3.2 0-6.358-.104-9.188-.293l.053-.761c9.488.639 22.707.29 28.515-1.615l.244.724c-4.155 1.362-12.006 1.945-19.624 1.945zm9.466 24.987c-.994 0-2.007 0-4.07-1.61-1.222-.955-1.474-4.418-4.741-4.856-3.271-.435-3.79-2.688-5.673-5.613a5594.346 5594.346 0 00-6.221-9.626l-.832-.297v-3.074l.994-.145a2365.19 2365.19 0 003.684 5.996s4.803 8.267 6.064 9.362c1.26 1.095 1.362 1.745 2.827 2.142 1.464.397 2.122 1.095 2.423 1.693.302.601 1.818 3.307 3.486 4.417.278.186 1.795 1.46 2.059 1.611zm-11.07-44.602c-.384 0-.756 0-1.121-.008-3.343-.052-11.616-.36-16.196-2.142l.286-.709c4.46 1.738 12.624 2.042 15.925 2.09 5.702.09 13.14-.505 16.918-2.015l.29.709c-3.862 1.544-10.836 2.079-16.102 2.079v-.004zm-7.719 10.606c-.956 0-1.999-.145-3.072-.442-.756-.208-1.441-.405-2.119-.676l.29-.709c.644.256 1.302.446 2.04.646 2.917.806 4.998.308 5.98-.423.524-.393.802-.876.802-1.396 0-1.674-1.976-2.821-6.04-3.512-2.605-.438-4.573.149-5.3.884-.267.27-.376.56-.316.861.154.79.52 1.426 1.125 1.945l-.508.576a4.093 4.093 0 01-1.377-2.38c-.11-.553.071-1.084.523-1.54 1.073-1.08 3.478-1.522 5.98-1.1 4.498.765 6.685 2.158 6.685 4.266 0 .758-.391 1.47-1.106 2.005-.881.657-2.134.995-3.584.995h-.003z" fill="#173B91"/><path d="M45.046 19.337v5.238c-1.723.338-2.804 1.191-2.604 2.197a3.72 3.72 0 001.295 2.205 7.223 7.223 0 01-1.318 1.519c-2.74 2.39-4.561 3.545-5.924 7.15-.166.441-.35.72-.53.868.097-1.243.21-2.179.342-2.699 1.008-3.983 4.144-6.076 4.445-6.77.301-.699 0-10.466 0-10.466l4.298.761-.004-.003z" fill="#173B91"/><path d="M49.33 91.625h-.004c-3.696-.27-6.892-.69-8.883-1.221-3.741-.995-4.144-2.094-4.644-3.19-.508-1.094-.407-6.57-.407-12.85 0-5.458-.079-27.56.569-35.857.052-.698.113-1.3.176-1.782l1.05-.654c2.32 2.291 5.989 3.275 11.25 3.572 1.326 11.805.893 51.978.893 51.978v.004zm8.4-72.445a42.07 42.07 0 01-2.224-.051c-5.743-.297-13.064-1.44-14.506-2.268-.568-.327-.847-.661-.858-1.029-.015-.542.572-.976 1.13-1.34l.214.32c-.478.315-.967.679-.956 1.01.007.218.23.456.666.708 1.374.791 8.743 1.927 14.333 2.216 5.871.305 15.762-.805 17.723-1.24 1.935-.43 2.733-1.143 2.74-1.146l.264.278c-.034.033-.87.787-2.917 1.244-1.743.386-9.703 1.303-15.605 1.303l-.004-.004z" fill="#173B91"/><path d="M44.542 17.64c4.791-1.737 15.774-1.588 20.852-1.14 5.077.45 7.426 1.289 7.426 1.289" fill="#EAECF7"/><path d="M72.688 18.145c-.023-.007-2.379-.828-7.332-1.266-5.71-.505-16.23-.497-20.682 1.121l-.267-.716c5.054-1.834 16.346-1.578 21.02-1.162 5.067.45 7.426 1.273 7.524 1.31l-.263.72v-.007zM69.861 65.64c-.813 0-1.607-.32-2.567-.958-1.897-1.266-3.763-4.919-3.842-5.075-.354-.694-1.088-1.199-2.18-1.496-1.106-.3-1.535-.757-2.077-1.336a10.65 10.65 0 00-.904-.888c-1.294-1.124-5.943-9.12-6.138-9.462-.31-.501-7.686-12.466-8.488-13.902-.798-1.422-.94-2.098-.67-3.14.245-.944 2.74-2.974 3.237-3.372l.2-.16.225.12c.03.014.697.37 1.08.694.475.4.49 1.017.49 1.087v.179l-.136.115c-.03.022-.7.582-1.245.842-.384.182-1.25 1.496-1.156 1.864.215.579 5.345 8.865 8.74 14.288 2.013 3.133 6.093 9.31 7.106 10.231.685.624 1.133.765 1.607.913.384.123.779.245 1.25.61.624.486 1.63 1.915 2.604 3.3.602.853 1.17 1.663 1.54 2.082.726.831 1.268.668 2.164.397l.21-.063c.572-.17.941-.007 1.152.156.546.427.584 1.296.557 1.774l-.011.2-.173.105c-.986.597-1.788.898-2.575.898v-.004zM46.518 26.771c-1.14.932-2.646 2.317-2.774 2.803-.192.735-.192 1.173.595 2.58.794 1.422 8.4 13.758 8.476 13.884 1.332 2.294 4.99 8.412 5.984 9.277.414.36.704.668.96.939.512.546.82.876 1.716 1.121 1.318.356 2.214.995 2.669 1.89.019.037 1.852 3.63 3.583 4.78 1.423.951 2.334 1.189 4.125.15 0-.453-.098-.806-.267-.936-.038-.03-.147-.115-.452-.022l-.207.063c-.944.286-1.92.583-2.977-.628-.395-.449-.975-1.273-1.588-2.145-.855-1.21-1.916-2.721-2.45-3.137-.358-.279-.659-.371-1.005-.483-.508-.16-1.084-.341-1.897-1.08-1.336-1.214-6.997-10.012-7.234-10.387-2.036-3.252-8.683-13.898-8.838-14.507-.214-.847.968-2.45 1.57-2.736.293-.141.681-.42.918-.605a.637.637 0 00-.196-.346 5.108 5.108 0 00-.718-.475h.007z" fill="#173B91"/><path d="M69.135 65.072s.903 1.362 2.416 1.96c1.513.597 2.323.597 3.433-.498 1.11-1.095 2.22-1.893 3.44-2.19 1.22-.297 3.527-1.396 4.64-1.92 1.115-.523 1.717-1.67 2.425-2.267.707-.598 1.614-.201 2.627-.899 1.012-.698.305-2.691-.606-4.083-.911-1.392-2.22-1.593-3.132-1.396-.91.197-1.313 1.592-1.92 1.693-.605.1-2.54.2-4.14.697-1.6.498-3.432 2.592-4.746 3.19-1.313.597-2.424.3-3.432.497-1.009.2-1.818 1.195-1.893 2.565 0 0 .478-2.331 2.397-1.849 1.92.48 2.44 1.21 3.308 2.996.69 1.414.219 2.484-.101 2.94-.467.66-2.063 1.132-3.158.056" fill="#EAECF7"/><path d="M73.177 67.811c-.403 0-.828-.093-1.298-.252a2.582 2.582 0 01-1.363-.635c-1.061-.687-1.671-1.596-1.705-1.64l.647-.42s.565.835 1.506 1.436h.004s.015.011.022.019c.215.137.452.26.708.36.124.048.245.093.358.133.131.015.255.012.365 0 .545-.048.96-.304 1.114-.523.18-.26.726-1.206.071-2.554-.832-1.708-1.28-2.346-3.052-2.791-.403-.1-.738-.06-1.032.122-.666.412-.888 1.425-.892 1.433l-.767-.097c.082-1.503.97-2.676 2.205-2.917.395-.078.787-.086 1.2-.093.678-.015 1.382-.026 2.15-.375.523-.238 1.17-.761 1.852-1.314.963-.78 1.96-1.585 2.94-1.89 1.245-.386 2.69-.542 3.552-.635.275-.03.497-.052.64-.078.12-.018.362-.341.52-.556.33-.442.741-.995 1.377-1.133.52-.115 2.304-.337 3.542 1.56 1.107 1.7 1.694 3.782.5 4.603-.594.412-1.166.49-1.63.556-.394.056-.707.1-.966.32-.226.19-.452.46-.693.742-.478.565-1.02 1.203-1.814 1.578l-.102.048c-1.185.557-3.387 1.596-4.61 1.893-1.035.253-2.07.917-3.26 2.09-.734.724-1.378 1.01-2.085 1.01h-.004zM70.63 60.18c.038.007.072.015.11.026 2.066.516 2.671 1.373 3.56 3.2.835 1.722.109 2.977-.132 3.322a4.11 4.11 0 00.546-.464c1.295-1.277 2.443-2.005 3.62-2.29 1.145-.282 3.384-1.337 4.465-1.842l.101-.048c.644-.3 1.107-.85 1.555-1.377.263-.308.508-.602.782-.835.43-.364.904-.431 1.363-.494.436-.063.85-.119 1.295-.427.696-.483.184-2.19-.712-3.564-.967-1.48-2.326-1.314-2.72-1.229-.355.079-.645.465-.923.84-.301.404-.587.786-1.016.857a12.48 12.48 0 01-.685.082c-.836.089-2.232.237-3.403.601-.835.26-1.773 1.02-2.68 1.752-.722.587-1.407 1.14-2.02 1.418-.915.416-1.736.435-2.459.446a9 9 0 00-.647.026z" fill="#173B91"/><path d="M85.952 53.768l-.768-.104c.056-.409-.316-1.251-.644-1.994-.158-.36-.324-.731-.448-1.073l-.049-.137c-.433-1.162-1.084-2.921-.775-4.837.226-1.407-1.204-4.013-2.15-5.739-.244-.45-.47-.858-.643-1.203-.892-1.767-6.522-11.333-6.579-11.43l.67-.382c.233.393 5.698 9.685 6.602 11.474.173.342.391.743.632 1.18 1.054 1.924 2.496 4.56 2.232 6.223-.275 1.722.335 3.367.738 4.458l.052.137c.117.32.279.68.433 1.029.403.913.783 1.778.7 2.398h-.003z" fill="#173B91"/><path d="M87.815 55.416l-.603-.479c.4-.486-.33-2.216-.816-3.363-.098-.23-.192-.453-.279-.665-.064-.16-.132-.323-.203-.49-.587-1.41-1.257-3.01-1.442-6.002-.15-2.462-1.132-4.065-2.171-5.766a39.526 39.526 0 01-.915-1.548c-1.298-2.36-7.437-13.274-7.498-13.382l.678-.371c.06.111 6.203 11.025 7.501 13.39.29.527.599 1.032.896 1.518 1.088 1.782 2.12 3.463 2.281 6.11.177 2.866.817 4.403 1.385 5.762.072.167.14.334.207.497.083.208.177.427.275.654.685 1.618 1.392 3.296.704 4.135z" fill="#173B91"/><path d="M46.386 32.73c1.506.156 21.424 3.033 28.876-2.888l-28.876 2.889z" fill="#EAECF7"/><path d="M58.641 33.944c-4.336 0-8.589-.382-11.818-.775-.222-.026-.384-.049-.478-.056l.079-.761c.094.011.26.03.493.06 13.693 1.67 23.674.653 28.1-2.867l.486.594c-3.71 2.948-10.38 3.805-16.862 3.805zm-14.656-1.418c-1.893-.2-3.52-1.24-3.587-1.284l.21-.32s1.62 1.033 3.415 1.222l-.042.379.004.003zm12.62 59.103l.719-25.359.719 25.359h-1.438zm1.66 0l.674-22.27.673 22.27h-1.347zm1.562 0l.61-18.186.61 18.186h-1.22zm1.498 0l.557-15.358.56 15.358h-1.117zm1.381 0l.5-12.444.505 12.444h-1.005zm1.25 0l.463-10.54.463 10.54h-.926zm-9.045 0l.746-27.374.749 27.374H54.91zm-1.836-.498l.767-29.118.772 29.118h-1.54zm-3.531 0l.862-36.591.862 36.591h-1.724z" fill="#173B91"/><path d="M51.23 91.131l.802-31.435.798 31.435h-1.6zM49.1 51.436c-.083-2.531 1.122-5.237 2.608-2.936 1.487 2.302 0-2.142 0-2.142l-3.07-3.512-1.213 2.54 1.675 6.05zm2.774-21.876c.638 0 1.155-.51 1.155-1.14 0-.629-.517-1.139-1.155-1.139s-1.156.51-1.156 1.14c0 .629.518 1.14 1.156 1.14zm-7.87-2.212a.74.74 0 00.745-.735.74.74 0 00-.745-.735.74.74 0 00-.745.735.74.74 0 00.745.735zm31.239 33.206c1.133-.824 2.278-1.7 3.561-2.287.681-.312 1.4-.516 2.134-.665.734-.148 1.54-.2 2.277-.43.098-.03.08-.17-.022-.175-.76-.04-1.536.097-2.274.253-.737.156-1.464.371-2.149.687-1.355.62-2.488 1.555-3.598 2.52-.053.045.019.141.075.1l-.004-.003zm-7.832-30.452c.026 0 .026-.037 0-.037s-.026.037 0 .037zm.154-.894a.019.019 0 000-.037c-.026 0-.026.037 0 .037z" fill="#173B91"/><path d="M53.157 18.55s-.353-2.343.606-2.989c.96-.646 5.202-.449 5.808-.397.606.052 1.415 1.062 1.615 1.463-1.01-.2-5.085-.334-5.759-.2-.708.144-.986.39-1.009 1.195-.015.55 0 .928 0 .928h-1.26z" fill="#EAECF7"/><path d="M54.422 18.74h-1.43l-.026-.164c-.016-.1-.362-2.469.688-3.174 1.103-.746 5.887-.434 5.932-.43.719.059 1.558 1.143 1.773 1.566l.177.349-.388-.078c-.979-.193-5.013-.334-5.68-.2-.613.122-.835.296-.854 1.013-.015.534 0 .913 0 .917l.008.2h-.204.004zm-1.091-.383h.892c0-.167-.004-.427.003-.746.027-.847.332-1.207 1.163-1.378.636-.13 3.967-.03 5.405.138-.32-.43-.862-.991-1.242-1.021-1.009-.082-4.844-.2-5.683.364-.651.438-.625 1.926-.546 2.639l.008.004z" fill="#173B91"/><path d="M61.19 16.69c.428.527.39 2.194.39 2.194l-.966.044s.056-2.019-.456-2.342c.681-.004 1.031.104 1.031.104z" fill="#EAECF7"/><path d="M60.414 19.129l.008-.204c.026-.92-.106-2.012-.365-2.176l-.554-.349h.655c.704-.018 1.073.104 1.092.108l.056.019.038.044c.459.564.44 2.138.436 2.317v.178l-1.358.06-.008.003zm.124-2.343c.245.55.271 1.485.271 1.942l.58-.026c-.004-.512-.064-1.463-.316-1.841a3.265 3.265 0 00-.535-.07v-.005zM72.18 79.423c.026 0 .026-.037 0-.037a.019.019 0 000 .037zm-2.447 8.984c1.13.556 2.514-.063 3.602-.49s2.138-1.058 2.658-2.154c.575-1.217.526-2.657.56-3.968.042-1.637.05-3.278.012-4.915a67.088 67.088 0 00-.358-5.635c-.015-.145-.245-.152-.237 0 .252 3.757.399 7.517.218 11.281-.079 1.675-.226 3.393-1.75 4.425-.61.412-1.306.68-1.999.917-.835.286-1.772.631-2.668.46-.049-.007-.083.06-.034.082l-.004-.003zm6.561-33.314c-.14-1.054-.083-2.18-.094-3.24-.012-1.063 0-2.224.007-3.334.008-1.11.011-2.16.026-3.241.015-1.08.177-2.25.064-3.334-.015-.163-.233-.16-.256 0-.143 1.05-.01 2.183-.003 3.241.007 1.11.015 2.224.037 3.334.023 1.11.06 2.16.098 3.24.038 1.08.154 2.243.08 3.334 0 .026.04.022.037 0h.004zM71.322 21.62c-.17 1.3-.286 2.602-.256 3.909.015.642.056 1.28.116 1.919.03.312.057.627.12.936.053.27.087.56.298.75.09.081.245.074.305-.038.14-.248.083-.523.056-.802-.03-.33-.086-.66-.124-.99a25.172 25.172 0 01-.143-1.85c-.053-1.28-.049-2.56.087-3.838.03-.293-.425-.286-.463 0l.004.004z" fill="#173B91"/></svg>