<svg width="202" height="118" fill="none" xmlns="http://www.w3.org/2000/svg"><g clip-path="url(#clip0_558_19459)" fill-rule="evenodd" clip-rule="evenodd"><path d="M53.884 55.754h4.487c1.751 0 2.417.605 2.417 2.09 0 1.428-.666 2.033-2.417 2.033h-4.487v-4.123zM46.933 70.76h6.952v-6.102h7.446c4.93 0 6.704-2.912 6.704-6.677 0-4.37-1.825-6.843-6.754-6.843H46.933V70.76zm23.395-19.622h18.71v4.78H77.28v2.64H88.2v4.782H77.28v2.638h11.758v4.782h-18.71V51.138zm28.571 4.616h4.487c1.75 0 2.416.605 2.416 2.09 0 1.428-.666 2.033-2.416 2.033h-4.487v-4.123zM91.947 70.76H98.9v-6.102h7.445c4.931 0 6.706-2.912 6.706-6.677 0-4.37-1.825-6.843-6.756-6.843H91.947V70.76zm27.832-8.327c-3.402-.578-4.806-2.777-4.806-5.524 0-5.085 4.462-6.458 10.18-6.458 7.838 0 11.069 2.28 11.315 6.43h-8.086c0-.797-.419-1.292-1.059-1.567-.616-.301-1.405-.411-2.17-.411-2.07 0-2.785.576-2.785 1.401 0 .55.221.908.912 1.017l8.307 1.374c3.501.577 5.671 2.39 5.671 5.715 0 4.784-3.501 7.037-11.316 7.037-5.349 0-11.192-.824-11.216-6.596h8.381c.024.66.247 1.099.74 1.401.517.276 1.281.413 2.366.413 2.169 0 2.761-.66 2.761-1.595 0-.576-.321-1.153-1.256-1.317l-7.939-1.32zm19.746-11.295h6.951V70.76h-6.951V51.138zm32.714 11.982c-.444 2.583-1.234 4.672-2.96 6.1-1.7 1.43-4.363 2.227-8.602 2.227-4.215 0-12.03-.33-12.03-10.498s7.815-10.498 12.03-10.498c4.19 0 10.649.604 11.562 8.382H164.4c-.198-1.403-1.037-3.436-3.723-3.436-2.836 0-4.636 1.566-4.636 5.552 0 3.985 1.751 5.55 4.29 5.55 2.195 0 3.501-1.016 4.068-3.38h7.84zm9.095-2.17c0-3.986 1.801-5.553 4.636-5.553 2.834 0 4.635 1.567 4.635 5.553 0 3.985-1.801 5.55-4.635 5.55-2.835 0-4.636-1.566-4.636-5.55zm-7.396 0c0 10.166 7.815 10.497 12.032 10.497 4.215 0 12.03-.33 12.03-10.497 0-10.17-7.815-10.5-12.03-10.5-4.217 0-12.032.33-12.032 10.5zm-137.51-9.617c.45-9.414-7.647-20.016-18.685-21.326l.019-.13c10.882 0 19.224 10.102 19.224 18.07-.01 1.66-.141 2.688-.374 3.434l-.183-.048zm-.659 1.196c-.724.887-1.634 1.78-2.7 2.628C31.105 43.84 22.81 33.943 16.946 31.054l-.125.088c5.897 4.853 12.93 14.279 15.666 24.46a22.844 22.844 0 01-4.492 2.579C22.43 51.817 17.243 39.545 15.57 31.758l-.17.05c.037 7.56 5.39 20.393 11.917 26.655a22.453 22.453 0 01-4.642 1.286c-6.257-2.486-10.71-10.446-10.71-18.6 0-5.324 1.618-8.617 1.931-9.291l-.133-.053c-.379.575-2.75 3.866-2.75 9.613 0 9.218 4.533 16.263 10.552 18.482a20.663 20.663 0 01-6.45-.304l-.044.14c.644.238 2.828 1.158 6.16 1.158 7.538 0 12.633-4.696 14.684-8.265l-.147-.1z" fill="#28458E"/><path d="M20.48 26.552c-5.714 0-12.414 4.135-12.414 7.914 0 1.462 1.334 2.697 4.095 2.697 6.408 0 12.362-4.414 12.362-7.847 0-1.807-1.73-2.764-4.043-2.764zm2.281 2.657c0 2.894-5.542 6.43-10.174 6.43-2.047 0-3.153-.807-3.153-2.14 0-2.935 5.605-6.412 9.95-6.412 2.833 0 3.377 1.446 3.377 2.122z" fill="#0096D6"/><path d="M5.79 36.217c-.16.278-.804 1.54-.804 2.835 0 2.4 2.418 4.627 6.866 4.627 8.556 0 18.442-6.315 18.442-12.177 0-2.631-2.485-4.062-4.21-4.357l-.032.102c.537.17 2.502 1.086 2.502 3.43 0 4.671-8.728 11.035-17.422 11.035-3.328 0-5.425-1.647-5.425-4.047 0-.759.158-1.26.2-1.404l-.117-.044z" fill="#EB7B30"/><path d="M33.821 31.94c.235.179 1.644 1.357 1.644 3.584 0 7.594-11.866 15.06-22.356 15.06-6.256 0-9.108-3.097-8.982-5.847h.112c.245 1.429 2.277 3.984 7.752 3.984 10.503 0 22.231-7.726 22.231-14.496 0-1.16-.314-1.885-.492-2.206l.091-.079z" fill="#00984A"/><path d="M37.788 39.03c.05.161.305.888.305 2.026 0 8.448-12.009 15.68-22.453 15.68-5.375 0-8.182-2.618-8.775-3.682l.096-.07c1.487 1.304 4.417 2.295 7.836 2.295 9.224 0 22.987-7.037 22.864-16.219l.127-.03z" fill="#DF002C"/></g><defs><clipPath id="clip0_558_19459"><path fill="#fff" transform="translate(4 22)" d="M0 0h194v54H0z"/></clipPath></defs></svg>