<svg width="12" height="12" viewBox="0 0 12 12" fill="none" xmlns="http://www.w3.org/2000/svg">
<path opacity="0.5" fill-rule="evenodd" clip-rule="evenodd" d="M11 6C11 8.76142 8.76142 11 6 11C3.23858 11 1 8.76142 1 6C1 3.23858 3.23858 1 6 1C8.76142 1 11 3.23858 11 6ZM12 6C12 9.31371 9.31371 12 6 12C2.68629 12 0 9.31371 0 6C0 2.68629 2.68629 0 6 0C9.31371 0 12 2.68629 12 6ZM4.36596 4.6593C4.1778 4.45719 3.86142 4.44588 3.6593 4.63404C3.45719 4.8222 3.44588 5.13858 3.63404 5.3407L5.39834 7.23582C5.72625 7.58806 6.27374 7.58806 6.60166 7.23582L8.36596 5.3407C8.55412 5.13858 8.54281 4.8222 8.3407 4.63404C8.13858 4.44588 7.8222 4.45719 7.63404 4.6593L6 6.41452L4.36596 4.6593Z" fill="#424E67"/>
</svg>
