<svg width="20" height="20" viewBox="0 0 20 20" fill="none" xmlns="http://www.w3.org/2000/svg">
<path fill-rule="evenodd" clip-rule="evenodd" d="M10 0C10.5523 0 11 0.447715 11 1L11 11.5858L13.2929 9.29289C13.6834 8.90237 14.3166 8.90237 14.7071 9.29289C15.0976 9.68342 15.0976 10.3166 14.7071 10.7071L11.4142 14C10.6332 14.781 9.36684 14.781 8.58579 14L5.29289 10.7071C4.90237 10.3166 4.90237 9.68342 5.29289 9.29289C5.68342 8.90237 6.31658 8.90237 6.70711 9.29289L9 11.5858L9 1C9 0.447715 9.44772 5.96046e-08 10 0ZM1 13C1.55229 13 2 13.4477 2 14V14.2C2 15.0566 2.00078 15.6389 2.03755 16.089C2.07337 16.5274 2.1383 16.7516 2.21799 16.908C2.40973 17.2843 2.71569 17.5903 3.09202 17.782C3.24842 17.8617 3.47262 17.9266 3.91104 17.9624C4.36113 17.9992 4.94342 18 5.8 18H14.2C15.0566 18 15.6389 17.9992 16.089 17.9624C16.5274 17.9266 16.7516 17.8617 16.908 17.782C17.2843 17.5903 17.5903 17.2843 17.782 16.908C17.8617 16.7516 17.9266 16.5274 17.9624 16.089C17.9992 15.6389 18 15.0566 18 14.2V14C18 13.4477 18.4477 13 19 13C19.5523 13 20 13.4477 20 14V14.2V14.2413C20 15.0463 20 15.7106 19.9558 16.2518C19.9099 16.8139 19.8113 17.3306 19.564 17.816C19.1805 18.5686 18.5686 19.1805 17.816 19.564C17.3306 19.8113 16.8139 19.9099 16.2518 19.9558C15.7106 20 15.0463 20 14.2413 20H14.2H5.8H5.75868C4.95372 20 4.28936 20 3.74817 19.9558C3.18608 19.9099 2.66937 19.8113 2.18404 19.564C1.43139 19.1805 0.819469 18.5686 0.435975 17.816C0.188684 17.3306 0.0901197 16.8139 0.0441946 16.2518C-2.2769e-05 15.7106 -1.22786e-05 15.0463 4.76837e-07 14.2413L9.53674e-07 14.2V14C9.53674e-07 13.4477 0.447716 13 1 13Z" fill="white"/>
</svg>
