<svg width="21" height="21" viewBox="0 0 21 21" fill="none" xmlns="http://www.w3.org/2000/svg">
<path d="M9.24791 0C4.14875 0 0 4.14877 0 9.24795C0 14.3474 4.14875 18.4959 9.24791 18.4959C14.3474 18.4959 18.4958 14.3474 18.4958 9.24795C18.4958 4.14877 14.3474 0 9.24791 0ZM9.24791 16.7886C5.09006 16.7886 1.70731 13.4059 1.70731 9.24799C1.70731 5.09012 5.09006 1.70731 9.24791 1.70731C13.4058 1.70731 16.7885 5.09007 16.7885 9.24795C16.7885 13.4058 13.4058 16.7886 9.24791 16.7886Z" fill="#424E67"/>
<path d="M20.7499 19.5428L15.8556 14.6485C15.5221 14.315 14.982 14.315 14.6485 14.6485C14.315 14.9817 14.315 15.5224 14.6485 15.8556L19.5428 20.7499C19.7095 20.9166 19.9278 21 20.1463 21C20.3646 21 20.5831 20.9166 20.7499 20.7499C21.0834 20.4167 21.0834 19.876 20.7499 19.5428Z" fill="#424E67"/>
</svg>
