<svg width="20" height="20" viewBox="0 0 20 20" fill="none" xmlns="http://www.w3.org/2000/svg">
<circle cx="9.61644" cy="9.61644" r="9.61644" fill="#2EAC6A"/>
<path d="M7.59484 8.35685C7.92793 9.0506 8.382 9.70082 8.95704 10.2759C9.53209 10.8509 10.1823 11.305 10.8761 11.6381C10.9357 11.6667 10.9656 11.681 11.0033 11.692C11.1375 11.7312 11.3022 11.7031 11.4159 11.6217C11.4478 11.5988 11.4752 11.5714 11.5299 11.5167C11.6972 11.3494 11.7809 11.2658 11.865 11.2111C12.1822 11.0048 12.5912 11.0048 12.9085 11.2111C12.9926 11.2658 13.0762 11.3494 13.2436 11.5167L13.3368 11.61C13.5912 11.8643 13.7183 11.9915 13.7874 12.1281C13.9248 12.3997 13.9248 12.7205 13.7874 12.9921C13.7183 13.1287 13.5912 13.2558 13.3368 13.5102L13.2614 13.5856C13.0079 13.8391 12.8812 13.9658 12.7089 14.0626C12.5177 14.17 12.2207 14.2472 12.0014 14.2466C11.8038 14.246 11.6687 14.2076 11.3986 14.131C9.94691 13.7189 8.57705 12.9415 7.43423 11.7987C6.2914 10.6559 5.51397 9.286 5.10193 7.83429C5.02526 7.56416 4.98692 7.42909 4.98633 7.23147C4.98568 7.01217 5.0629 6.71522 5.17031 6.52403C5.2671 6.35173 5.39383 6.22499 5.64729 5.97153L5.72273 5.89609C5.97707 5.64175 6.10424 5.51459 6.24081 5.44551C6.51243 5.30812 6.83321 5.30812 7.10483 5.44551C7.2414 5.51459 7.36857 5.64175 7.6229 5.89609L7.71616 5.98935C7.88348 6.15666 7.96713 6.24032 8.02183 6.32444C8.22809 6.64168 8.22809 7.05066 8.02183 7.36791C7.96713 7.45203 7.88348 7.53569 7.71616 7.703C7.66146 7.75771 7.6341 7.78506 7.61121 7.81703C7.52984 7.93066 7.50175 8.09542 7.54086 8.22959C7.55187 8.26734 7.56619 8.29718 7.59484 8.35685Z" fill="white"/>
</svg>
