<svg width="20" height="20" viewBox="0 0 20 20" fill="none" xmlns="http://www.w3.org/2000/svg">
<circle cx="9.61644" cy="9.61644" r="9.61644" fill="#E66969"/>
<path d="M11.75 8.4C11.75 9.61503 9.5 10.6 9.5 10.6C9.5 10.6 7.25 9.61503 7.25 8.4C7.25 7.18497 8.25736 6.2 9.5 6.2C10.7426 6.2 11.75 7.18497 11.75 8.4Z" fill="white"/>
<path d="M14 8.4C14 10.8301 10.625 15 9.5 15C8.375 15 5 10.8301 5 8.4C5 5.96995 7.01472 4 9.5 4C11.9853 4 14 5.96995 14 8.4Z" fill="white"/>
<circle cx="9.5" cy="8.5" r="2.5" fill="#E66969"/>
</svg>
