<svg width="22" height="18" viewBox="0 0 22 18" fill="none" xmlns="http://www.w3.org/2000/svg">
<path fill-rule="evenodd" clip-rule="evenodd" d="M4.1786 0.5L4.2 0.5H17.8L17.8214 0.5C18.3633 0.499995 18.8004 0.499991 19.1543 0.528909C19.5187 0.558684 19.8388 0.62159 20.135 0.772484C20.6054 1.01217 20.9878 1.39462 21.2275 1.86502C21.3784 2.16117 21.4413 2.48126 21.4711 2.84569C21.5 3.19963 21.5 3.6367 21.5 4.17858V4.2V13.8V13.8214C21.5 14.3633 21.5 14.8004 21.4711 15.1543C21.4413 15.5187 21.3784 15.8388 21.2275 16.135C20.9878 16.6054 20.6054 16.9878 20.135 17.2275C19.8388 17.3784 19.5187 17.4413 19.1543 17.4711C18.8004 17.5 18.3633 17.5 17.8214 17.5H17.8H4.2H4.17859C3.6367 17.5 3.19963 17.5 2.84569 17.4711C2.48126 17.4413 2.16117 17.3784 1.86502 17.2275C1.39462 16.9878 1.01217 16.6054 0.772484 16.135C0.62159 15.8388 0.558684 15.5187 0.528909 15.1543C0.499991 14.8004 0.499995 14.3633 0.5 13.8214L0.5 13.8V4.2L0.5 4.1786C0.499995 3.6367 0.499991 3.19963 0.528909 2.84569C0.558684 2.48126 0.62159 2.16117 0.772484 1.86502C1.01217 1.39462 1.39462 1.01217 1.86502 0.772484C2.16117 0.62159 2.48126 0.558684 2.84569 0.528909C3.19963 0.499991 3.6367 0.499995 4.1786 0.5ZM2.35785 1.6449L10.0791 7.65031C10.6208 8.0716 11.3792 8.0716 11.9209 7.65031L19.6422 1.6449C19.515 1.58781 19.3467 1.54796 19.0729 1.52559C18.7645 1.50039 18.3683 1.5 17.8 1.5H4.2C3.6317 1.5 3.23554 1.50039 2.92712 1.52559C2.65335 1.54796 2.48497 1.58781 2.35785 1.6449ZM19.7824 1.7202L20.307 2.39468L12.5349 8.43966C11.6321 9.14182 10.3679 9.14182 9.46515 8.43966L1.69303 2.39468L2.21762 1.7202C1.98178 1.86437 1.78967 2.07138 1.66349 2.31901C1.5964 2.45069 1.55031 2.62454 1.52559 2.92712C1.50039 3.23554 1.5 3.6317 1.5 4.2V13.8C1.5 14.3683 1.50039 14.7645 1.52559 15.0729C1.55031 15.3755 1.5964 15.5493 1.66349 15.681C1.8073 15.9632 2.03677 16.1927 2.31901 16.3365C2.45069 16.4036 2.62454 16.4497 2.92712 16.4744C3.23554 16.4996 3.6317 16.5 4.2 16.5H17.8C18.3683 16.5 18.7645 16.4996 19.0729 16.4744C19.3755 16.4497 19.5493 16.4036 19.681 16.3365C19.9632 16.1927 20.1927 15.9632 20.3365 15.681C20.4036 15.5493 20.4497 15.3755 20.4744 15.0729C20.4996 14.7645 20.5 14.3683 20.5 13.8V4.2C20.5 3.6317 20.4996 3.23554 20.4744 2.92712C20.4497 2.62454 20.4036 2.45069 20.3365 2.31901C20.2103 2.07138 20.0182 1.86437 19.7824 1.7202Z" fill="#424E67"/>
</svg>
