<svg width="18" height="18" viewBox="0 0 18 18" fill="none" xmlns="http://www.w3.org/2000/svg">
<path fill-rule="evenodd" clip-rule="evenodd" d="M9 1.5C6.51472 1.5 4.5 3.51472 4.5 6C4.5 8.48528 6.51472 10.5 9 10.5C11.4853 10.5 13.5 8.48528 13.5 6C13.5 3.51472 11.4853 1.5 9 1.5ZM11.6497 10.8208C13.3488 9.88491 14.5 8.07689 14.5 6C14.5 2.96243 12.0376 0.5 9 0.5C5.96243 0.5 3.5 2.96243 3.5 6C3.5 8.07689 4.65117 9.88491 6.35025 10.8208C5.09711 11.1336 3.96838 11.6634 3.04315 12.3574C1.50072 13.5142 0.5 15.1505 0.5 17C0.5 17.2761 0.723858 17.5 1 17.5C1.27614 17.5 1.5 17.2761 1.5 17C1.5 15.5358 2.29014 14.1721 3.64315 13.1574C4.9963 12.1425 6.88859 11.5 9 11.5C11.1114 11.5 13.0037 12.1425 14.3569 13.1574C15.7099 14.1721 16.5 15.5358 16.5 17C16.5 17.2761 16.7239 17.5 17 17.5C17.2761 17.5 17.5 17.2761 17.5 17C17.5 15.1505 16.4993 13.5142 14.9569 12.3574C14.0316 11.6634 12.9029 11.1336 11.6497 10.8208Z" fill="#424E67"/>
</svg>
