<svg width="118" height="106" fill="none" xmlns="http://www.w3.org/2000/svg"><path d="M42.882 97.706c-7.234 0-19.688-.79-20.61-1.184-1.59-.679-2.966-8.15-3.208-14.43-.282-7.147.905-12.713.913-12.77l.057-.258.246-.08c.195-.06.416-.126.65-.196 1.636-.487 4.108-1.219 5.497-2.665 1.3-1.363 3.797-2.52 6.52-3.028a14.2 14.2 0 012.151-.245 7.92 7.92 0 012.745.39l.312.11c.692.245 1.363.56 2.069.889 1.576.74 3.364 1.578 6.19 2.038l.793.127c5.593.907 10.878 1.761 13.822 4.645 1.623 1.595 2.541 3.602 2.394 5.24-.056.61-.264 1.127-.602 1.49 1.52-.074 3.2-.205 4.728-.398 2.116-.258 3.623-.6 4.242-.96 1.537-.898 7.16-4.864 10.883-7.489 1.537-1.082 2.792-1.967 3.394-2.38 1.29-.88 2.602-1.196 3.701-.885.918.26 1.654.938 2.121 1.96.853 1.87-3.35 6.976-9.922 14.07l-.779.842c-.593.644-1.26 1.41-1.97 2.217-2.818 3.23-6.328 7.248-9.112 8.212-3.493 1.214-17.576 3.703-22.857 4.536-.866.136-2.429.193-4.372.193l.004.008zM20.8 69.773c-.225 1.16-1.087 6.117-.844 12.283.285 7.419 1.9 13.278 2.662 13.633 1.216.473 20.623 1.542 24.498.929 5.264-.829 19.268-3.304 22.71-4.5 2.562-.886 5.982-4.808 8.736-7.954.71-.816 1.385-1.582 1.982-2.235l.78-.846c2.605-2.813 10.54-11.376 9.766-13.076-.36-.785-.883-1.28-1.55-1.468-.844-.237-1.896.03-2.966.762-.601.412-1.852 1.293-3.385 2.375-3.96 2.792-9.38 6.613-10.952 7.529-.745.43-2.286.793-4.58 1.073a70.193 70.193 0 01-7.823.491l-.056-.898c1.502-.193 2.043-.438 2.238-.566.294-.197.48-.587.524-1.09.09-1.026-.411-2.823-2.13-4.51-2.74-2.686-7.887-3.523-13.342-4.404l-.792-.127c-2.948-.478-4.797-1.345-6.424-2.112-.758-.355-1.476-.693-2.204-.93h-.376v-.118a7.108 7.108 0 00-2.143-.254 13.09 13.09 0 00-2.017.228c-2.516.465-4.888 1.551-6.044 2.765-1.554 1.622-4.16 2.393-5.887 2.906l-.386.114h.005z" fill="#173B91"/><path d="M39.376 83.428l-.88-.157.057-.325c.281-1.674.706-4.206 3.45-5.188 2.485-.89 6.927-.535 11.217-.184 2.523.206 4.909.394 6.584.294l.052.898c-1.736.105-4.152-.088-6.71-.298-4.004-.325-8.541-.693-10.848.136-2.252.806-2.61 2.936-2.87 4.491l-.057.329.005.004zM18.865 96.159c-.018.609-2.33 1.205-4.736 1.691-2.121.434-4.316.785-5.082.995-1.637.447-4.225.048-6.1-2.8C1.077 93.2-.07 75.405.003 72.447c.048-1.74.593-3.068 1.264-3.896.468-.574.996-.907 1.468-.96 1.143-.131 13.775 1.201 13.775 1.201s-.567 6.731-.511 12.98c.07 7.743 2.892 13.234 2.861 14.387h.005z" fill="#173B91"/><path d="M7.8 77.802c1.609 0 2.913-1.32 2.913-2.95 0-1.628-1.304-2.949-2.913-2.949-1.61 0-2.914 1.32-2.914 2.95 0 1.628 1.305 2.949 2.914 2.949z" fill="#EAECF7"/><path d="M7.8 78.551h-.1c-2.013-.057-3.606-1.761-3.554-3.8A3.684 3.684 0 017.9 71.155c2.013.057 3.606 1.757 3.554 3.8-.051 2.002-1.683 3.597-3.649 3.597H7.8zm0-5.903c-.559 0-1.087.215-1.494.605-.42.403-.662.951-.68 1.538-.034 1.214.918 2.23 2.118 2.261 1.186.049 2.199-.929 2.233-2.143a2.196 2.196 0 00-.593-1.573 2.162 2.162 0 00-1.52-.688H7.8zm60.502 5.066l-.892-.022 1.065-46.674a.712.712 0 00-.71-.736H37.908a.716.716 0 00-.51.214.701.701 0 00-.2.513 2978.19 2978.19 0 00.385 18.62c.26 10.71.438 13.282.524 13.795l.056.052v.198h-.441v.455l-.221-.223-.09.096c-.213-.201-.382-.359-.724-14.351a2987.246 2987.246 0 01-.385-18.62 1.61 1.61 0 011.602-1.648H67.76a1.609 1.609 0 011.602 1.66L68.296 77.72l.005-.005z" fill="#173B91"/><path d="M68.92 31.136H36.753v.903h32.169v-.903z" fill="#173B91"/><path d="M37.423 43.012l-.87-.184c.459-2.24 1.706-3.98 3.61-5.044 2.351-1.31 5.433-1.407 8.464-.259 2.614.995 5.26.982 7.25-.026 1.078-.543 1.862-1.354 2.096-2.165.32-1.109-.823-2.445-2.147-4-.109-.132-.221-.26-.334-.395h-.238v-.294c-1.298-1.547-2.67-3.378-2.948-5.565-.48-3.751 3.1-7.34 6.39-7.813 1.385-.202 3.896.03 4.892 1.174 2.307 2.655 1.047 4.203-.174 5.706-.848 1.043-1.731 2.125-1.761 3.755-.083 4.474 7.316 6.104 7.39 6.117l-.183.881c-.333-.07-8.194-1.8-8.1-7.02.035-1.945 1.061-3.203 1.966-4.312 1.203-1.481 2-2.458.195-4.535-.706-.811-2.862-1.06-4.1-.877-2.892.416-6.047 3.545-5.632 6.806.256 2.002 1.602 3.746 2.844 5.223l.109.132c.12.144.242.285.363.425 1.494 1.748 2.78 3.26 2.325 4.842-.307 1.06-1.238 2.05-2.55 2.717-2.216 1.122-5.117 1.144-7.965.066-2.784-1.056-5.597-.982-7.719.201-1.666.93-2.766 2.467-3.169 4.435l-.004.009zM74.748 8.88v.902c1.16 0 2.112.35 2.757 1.012.528.543.831 1.284.831 2.033 0 .86-.42 1.858-1.606 1.858-3.484 0-6.489.206-7.956 2.713-.17.29-.316.407-.364.443-.164-.14-.424-.802-.203-1.845.493-2.327 2.645-6.07 6.316-6.205h.225v-.903m0-.009c-.087 0-.174 0-.26.004-4.286.158-6.636 4.479-7.156 6.92-.363 1.713.264 2.95 1.06 2.95.373 0 .784-.273 1.148-.895 1.138-1.946 3.454-2.27 7.19-2.27s3.511-6.709-1.982-6.709zM45.224 6.903h.225c3.671.136 5.823 3.878 6.316 6.205.22 1.034-.035 1.7-.2 1.845-.064-.04-.207-.162-.367-.438-1.468-2.507-4.472-2.713-7.957-2.713-1.186 0-1.606-1.003-1.606-1.858 0-1.468 1.126-3.046 3.589-3.046m0-.898c-5.498 0-5.667 6.71-1.983 6.71 3.684 0 6.052.323 7.19 2.27.364.621.776.893 1.148.893.796 0 1.424-1.236 1.06-2.95-.519-2.44-2.87-6.756-7.155-6.919-.087 0-.174-.004-.26-.004zm-3.216 59.926l.826-21.28.823 21.28h-1.65zm7.329 1.24l.822-21.275.822 21.275h-1.645zm6.87.416l.822-20.933.827 20.933h-1.65zm6.216 10.312l.827-32.998.822 32.998h-1.649zM37.047 45.96l-.481 1.035c.121-.644.433-.986.48-1.034z" fill="#173B91"/><path d="M67.96 73.2v.022l-.355 4.61a69.307 69.307 0 01-7.77.487c.891-.114 1.943-.311 2.428-.64 1.277-.863.96-3.843-1.541-6.302-2.974-2.918-8.502-3.698-14.373-4.653-4.363-.71-6.333-2.319-8.627-3.046v-.004c-.19-.18-.403-6.74-.58-14.032.77 1.46 1.766 7.112 5.043 9.496 8.892 6.46 9.93 2.542 16.173 5.885 6.242 3.344 9.606 8.178 9.606 8.178h-.004zm-9.455 17.954c2.091-.399 4.19-.697 6.277-1.14 1.892-.402 3.853-.792 5.598-1.673 1.744-.881 3.082-2.235 4.45-3.545a268.705 268.705 0 004.636-4.545c.827-.828 1.65-1.66 2.472-2.498.875-.889 1.697-1.81 2.541-2.73.208-.227-.112-.552-.337-.341-3.044 2.87-5.97 5.867-8.97 8.79-1.385 1.346-2.749 2.814-4.39 3.848-1.64 1.034-3.571 1.46-5.45 1.893-1.134.263-2.273.526-3.394.841-1.121.316-2.29.723-3.45 1.034-.043.014-.026.08.017.07v-.004z" fill="#173B91"/></svg>