<svg width="88" height="88" fill="none" xmlns="http://www.w3.org/2000/svg"><g clip-path="url(#clip0_558_18952)"><path fill="#2EAC6A" d="M0 0h88v88H0z"/><path d="M45.075 69.31c-3.29 0-7.305-.454-10.134-.84h-.018a135.58 135.58 0 01-7.073-1.165 75.666 75.666 0 01-3.608-.782 7.69 7.69 0 00-.735-.144c-2.158-.324-4.217.238-5.87.692-2.004.55-3.585.98-4.38-.36-.324-.545-.34-1.102-.057-1.703.182-.386.48-.795 1.004-1.36l.022-.019.024-.024.024-.024a40.3 40.3 0 01.6-.625c.158-.162.321-.327.487-.5l.056-.06c.457-.478.817-.89 1.13-1.29l.021-.024a11.825 11.825 0 00.807-1.165c.216-.365.411-.752.569-1.138l.021-.052a7.768 7.768 0 00.433-1.414l.005-.03c.072-.348.126-.694.174-1.078l.005-.052.03-.27c.034-.317.06-.65.085-1.052l.013-.273c.014-.325.024-.66.03-1l.005-.3c0-.3.005-.614 0-.925v-.295c0-.276 0-.549-.003-.822v-.362l.011-1.728c0-.127.005-.252.01-.376.006-.178.011-.362.02-.543.015-.346.037-.703.069-1.09l.008-.057c.25-2.76.983-4.829 2.291-6.473-.593-.362-1.858-1.322-1.987-2.99-.045-.603.112-1.095.473-1.466.393-.403.95-.57 1.392-.638-.422-.46-.973-1.314-1.248-2.807-.128-.692 0-1.287.377-1.773.961-1.236 3.403-1.517 5.665-1.633l.489-.025c2.817-.138 4.853-.235 8.55-2.109 1.711-.865 2.745-2.274 3.744-3.634 1.28-1.741 2.602-3.544 5.32-4.25 5.131-1.336 8.812 2.666 12.142 6.878 2.754 3.488 4.96 3.134 7.752 2.683.804-.13 1.637-.263 2.54-.317 1.455-.084 2.521.306 3.004 1.095.42.687.358 1.617-.168 2.55-.9 1.603-1.314 2.669.532 3.964.379.265.566.551.571.873.008.592-.62 1.063-1.285 1.56-.552.414-1.177.882-1.23 1.312-.02.151.037.305.17.47 1.183 1.463 4.234 7.303 2.8 14.706-.9 4.646-.094 5.049 1.244 5.714.644.322 1.448.722 2.203 1.638.716.868.935 1.523.67 1.998-.523.941-2.724.693-5.33.295-1.731-.262-2.279.135-3.366.928-.75.546-1.685 1.227-3.344 1.968-3.758 1.676-9.762 1.703-15.566 1.728-.638.002-1.277.005-1.91.01h-.261l-.019-.005zm-10.099-1.382h.022c2.887.4 7.019.866 10.336.841a400.62 400.62 0 011.912-.01c5.751-.025 11.7-.05 15.356-1.682 1.608-.717 2.518-1.38 3.248-1.912 1.13-.822 1.81-1.32 3.758-1.025 1.428.217 4.401.668 4.786-.027.08-.143.104-.51-.615-1.384-.683-.83-1.397-1.187-2.027-1.5-1.602-.801-2.465-1.488-1.533-6.303 1.397-7.198-1.546-12.846-2.687-14.258-.227-.281-.323-.578-.286-.881.08-.66.775-1.18 1.443-1.68.502-.375 1.073-.802 1.068-1.116 0-.133-.118-.279-.342-.435-2.203-1.544-1.616-3.031-.692-4.678.428-.754.492-1.482.18-1.995-.375-.614-1.272-.912-2.52-.839-.875.052-1.695.184-2.486.311-2.847.457-5.304.855-8.253-2.88-3.932-4.972-7.241-7.827-11.592-6.694-2.535.66-3.745 2.306-5.024 4.05-1.036 1.412-2.11 2.875-3.934 3.797-3.796 1.922-5.989 2.03-8.764 2.165l-.486.025c-2.016.102-4.439.356-5.272 1.427-.283.363-.371.8-.27 1.339.422 2.282 1.523 2.887 1.533 2.893l1.103.584-1.242-.073s-1.121-.06-1.685.519c-.248.257-.353.598-.318 1.044.139 1.828 1.96 2.698 1.98 2.706l.323.152-.233.273c-1.375 1.606-2.131 3.66-2.38 6.473l-.005.054a24.766 24.766 0 00-.083 1.557c-.005.125-.008.246-.01.365l-.011 1.715v.365c.002.27.002.546.002.816v1.239l-.005.302c-.005.341-.016.682-.03 1.014l-.013.279c-.024.41-.05.754-.085 1.076-.008.092-.021.186-.032.281l-.006.051c-.047.4-.106.76-.176 1.104l-.008.032a8.193 8.193 0 01-.449 1.482v.019l-.029.056c-.17.417-.38.839-.625 1.25-.027.04-.043.067-.059.094-.232.379-.486.744-.764 1.095-.015.022-.029.038-.04.052-.323.41-.691.832-1.161 1.325l-.056.06-.487.502c-.21.216-.41.422-.598.622l-.021.022a.66.66 0 01-.048.045c-.32.347-.708.796-.906 1.215-.205.438-.195.805.032 1.192.561.944 1.742.673 3.782.116 1.702-.465 3.82-1.044 6.087-.703.243.035.5.084.786.154 1.028.254 2.235.514 3.584.776l.417.082c1.485.28 3.1.556 4.807.816.593.09 1.197.173 1.8.257l.003-.005z" fill="#fff"/><path d="M23.984 32.132c1.325.47 2.69.79 4.062 1.081 1.37.292 2.746.57 4.13.792 2.759.441 5.534.78 8.322.99 5.617.427 11.272.422 16.883-.073a89.784 89.784 0 004.664-.527 48.82 48.82 0 002.323-.373c.364-.07.775-.092 1.125-.211.17-.06.339-.16.497-.246.23-.127.427-.19.686-.238.019-.003.01-.035-.008-.03-.395.068-.74-.019-1.127-.051-.347-.03-.705.064-1.05.105l-2.105.254c-1.37.165-2.743.317-4.118.444a110.412 110.412 0 01-25.003-.522 130.674 130.674 0 01-4.716-.703c-1.518-.26-3.03-.563-4.56-.746-.037-.006-.04.05-.008.062l.003-.008z" fill="#fff"/><path d="M26.645 33.124c.04-.243.123-.486.204-.722.08-.235.16-.476.27-.705a4.39 4.39 0 01.808-1.209c.34-.351.735-.638 1.176-.844.216-.1.446-.156.67-.235.243-.084.494-.173.737-.24.115-.033.118-.206 0-.238-.277-.079-.523-.109-.812-.079-.288.03-.571.146-.833.268-.497.23-.953.568-1.33.97a4.192 4.192 0 00-.884 1.41c-.094.259-.16.55-.171.827-.01.275.043.532.11.8.005.027.05.03.053 0l.002-.003zm34.085-3.658c.323-.176.708-.19 1.063-.192.315 0 .612-.003.924.054a2.275 2.275 0 011.448.909c.35.47.587 1.01.686 1.592.051.295.054.6.032.898-.01.149-.037.292-.064.438-.026.154-.008.284.03.435.032.13.181.149.272.073.283-.235.313-.595.347-.943a3.764 3.764 0 00-.061-1.052 3.754 3.754 0 00-.874-1.806 2.611 2.611 0 00-1.709-.868 2.974 2.974 0 00-.988.092c-.374.091-.724.297-1.111.348-.022.003-.011.036.008.025l-.003-.003zM20.218 39.605c.18.081.331.214.505.311.136.076.28.143.422.208.329.154.668.298 1.007.43a28.06 28.06 0 002.062.703c1.41.422 2.85.741 4.3.99 2.917.495 5.887.66 8.838.695 1.619.019 3.32.138 4.915-.179.077-.016.077-.146 0-.16-1.413-.245-2.888-.135-4.317-.145a98.888 98.888 0 01-4.364-.114c-2.892-.151-5.798-.476-8.61-1.203-.778-.2-1.55-.43-2.309-.695a54.45 54.45 0 01-1.108-.4l-.606-.227c-.235-.09-.497-.127-.721-.238-.017-.008-.03.016-.014.024zM44.9 43.01c3.12.364 6.36.202 9.431-.458.04-.008.032-.078-.01-.075-1.569.089-3.134.205-4.702.289-1.567.084-3.149.11-4.722.178-.04 0-.04.06 0 .063l.003.002zm13.818-.898c.785-.021 1.562-.203 2.331-.373.77-.17 1.558-.397 2.324-.633a31.02 31.02 0 002.27-.805c.748-.295 1.526-.557 2.196-.98.182-.113.067-.43-.15-.359-.74.24-1.44.62-2.16.909a48.24 48.24 0 01-4.503 1.532c-.751.223-1.56.401-2.308.682-.014.006-.01.024.002.024l-.002.003zM25.786 36.64c.702.37 1.335.789 2.1 1.04a14.16 14.16 0 002.326.541c1.68.257 3.381.357 5.077.462 3.673.233 7.348.509 11.028.53 1.045.006 2.09-.01 3.133-.065a43.17 43.17 0 001.563-.108c.52-.046 1.036-.056 1.509-.23a.313.313 0 00-.083-.61c-.43-.044-.868.04-1.298.08-.475.047-.953.082-1.431.109a51.79 51.79 0 01-2.674.086c-1.808.014-3.62-.054-5.425-.14-1.805-.087-3.597-.174-5.398-.252-1.693-.073-3.394-.086-5.088-.205a18.447 18.447 0 01-2.668-.357c-.876-.192-1.9-.42-2.658-.906-.013-.008-.029.016-.013.024zm11.105 17.42l-17.916.506c.013-.333.024-.67.029-1.011l17.887.505zm-2.43-1.27l-15.451.468c.002-.308.005-.622.002-.936l15.45.468zm-3.217-1.177l-12.235.409c0-.27 0-.544-.003-.817l12.238.408zm-2.888-4.08l-9.25.409c0-.27 0-.544-.003-.817l9.253.408zm1.279-1.125l-10.529.409c0-.27 0-.544-.003-.817l10.532.408zm1.255-.816L19.31 46c0-.27 0-.543-.002-.816l11.58.408zm1.336-.925l-12.633.408c0-.27 0-.543-.003-.816l12.636.408zm.728-.924l-13.28.408c0-.27 0-.543-.002-.816l13.282.408zm-3.937 6.733l-10.013.365v-.728l10.013.363zm-2.295-1.042l-7.716.31.008-.624 7.708.314zm-1.497-.954l-6.2.273c.006-.18.011-.362.02-.543l6.18.27zm13.255 6.889l-19.605.532c.037-.348.064-.703.085-1.062l19.52.53zm1.766 1.425l-21.592.57.011-.051c.072-.354.128-.714.174-1.082l21.407.563zm5.882 2.704l-26.383.622-2.222.051-.209.005v-.118l.273.008c.227-.382.435-.79.611-1.225l27.93.657zm-4.058-1.276l-23.865.605c.155-.378.289-.779.39-1.203l23.475.598zm2.028 3.69l-28.498.67c.382-.4.777-.835 1.15-1.313l27.348.643z" fill="#fff"/><path d="M16.785 61.226c.26-.33.508-.682.737-1.055l-.208.006v-.12l.272.009 2.159.054 27.093.514-30.053.592zm24.531 3.241l-27.877.657c.193-.41.537-.835.96-1.292l26.917.635z" fill="#fff"/><path d="M41.771 65.497l-22.796.582c.328-.352.702-.725 1.09-1.13l21.706.548zm2.213 1.131l-16.082.41a74.868 74.868 0 01-3.598-.778 7.909 7.909 0 00-.761-.149l20.44.517zm2.856.96l-13.705.351a135.2 135.2 0 01-4.819-.819l18.523.468zm-8.863-4.4l-23.52.582c.329-.352.702-.725 1.09-1.13l22.43.548z" fill="#fff"/><path d="M34.958 68.199c-4.054-.554-8.034-1.295-10.654-1.939-5.03-1.233-9.447 2.623-10.82.311-.294-.497-.273-.965-.046-1.446.193-.411.537-.836.96-1.293.02-.019.04-.04.06-.062.33-.352.703-.725 1.09-1.13l.054-.057c.382-.4.777-.835 1.151-1.314.013-.014.024-.03.035-.043a11.304 11.304 0 00.801-1.16c.227-.382.435-.79.612-1.225.002-.006.005-.008.005-.014a8.204 8.204 0 00.449-1.462c.002-.017.008-.036.01-.052.073-.354.129-.714.174-1.081.013-.111.027-.22.037-.33.038-.35.064-.703.086-1.063l.013-.273c.013-.333.024-.67.03-1.011 0-.1 0-.198.005-.298.003-.308.005-.621.003-.935 0-.1 0-.2-.003-.3 0-.27 0-.544-.003-.817v-1.46l.008-.625.01-.367c.006-.181.012-.363.02-.544.016-.362.04-.722.07-1.079v-.005c.466 4.099 1.596 7.4 1.113 10.199-.48 2.796-1.846 4.691-1.352 5.88.494 1.19 3.94.955 6.92 1.92 2.979.966 5.308 2.01 9.162 3.075zm3.372-38.695a1.818 1.818 0 00.747.219c.108.008.206-.005.31-.019l.089-.038.074-.056a.373.373 0 00.078-.403.38.38 0 00-.15-.176c-.28-.2-.694-.195-.983-.01l.495.648.01-.008-.083.065a.528.528 0 01.1-.06l-.1.04a.529.529 0 01.113-.029l-.11.014c.045-.006.093-.006.142-.008a.414.414 0 00.283-.12.402.402 0 00.11-.232.386.386 0 00-.049-.257l-.061-.08a.39.39 0 00-.177-.104.471.471 0 00-.203-.032.833.833 0 00-.203.03.94.94 0 00-.35.197.423.423 0 00-.12.292.413.413 0 00.088.249c.118.154.356.219.527.105a.937.937 0 01.115-.062l-.097.04a.721.721 0 01.15-.04l-.104.014a.764.764 0 01.192 0l-.101-.014a.8.8 0 01.139.032l-.089-.675-.013.005.086-.038a1.385 1.385 0 01-.33.095l.084-.011a.725.725 0 01-.217.003l.075.01a1.261 1.261 0 01-.264-.067.255.255 0 00-.198.027.248.248 0 00-.104.124.262.262 0 00.104.325l-.005.005zm8.995-6.422l.043.027-.128-.167a.4.4 0 00.061.121.317.317 0 00.163.114c.022.008.043.01.065.019.042.01.088.024.13.035l-.082-.035c.077.046.173.073.259.103.064.021.128.043.192.062l.23-.844a.56.56 0 01-.115-.035l.11.046c-.017-.005-.03-.013-.043-.019-.094-.043-.166-.078-.273-.078-.048 0-.115.016-.17.024-.02 0-.036.005-.052.008a.5.5 0 00-.285.222.36.36 0 00-.056.178.39.39 0 00.008.192c.037.117.11.23.219.29l.114.048a.502.502 0 00.254 0h.008a.357.357 0 00.16-.086.357.357 0 00.12-.133.51.51 0 00.049-.365v-.01c-.198.197-.393.394-.588.591.024.009.05.014.078.02.09.018.187.032.275.002l.037-.013a.746.746 0 01.152-.04.34.34 0 00.147-.08.349.349 0 00.112-.121l.043-.105a.32.32 0 00.008-.174.23.23 0 00-.03-.11.37.37 0 00-.087-.141.421.421 0 00-.305-.127c-.067.005-.136.008-.203.016l-.096.011c-.061.008-.128.008-.187.027l.09-.014c-.044 0-.09.003-.135.006h-.062a.351.351 0 00-.165.043.389.389 0 00-.12.127l.165-.13-.048.017a.258.258 0 00-.182.213c-.013.106.035.2.12.257v.008zm12.496 9.026l.02-.006h.007a.174.174 0 00.05-.021c.017-.009.036-.014.052-.022a.402.402 0 00.141-.543.402.402 0 00-.141-.144c-.038-.016-.073-.035-.11-.046l-.019-.005a.41.41 0 00-.213 0 .391.391 0 00-.18.105l-.063.084a.403.403 0 00-.056.206c0 .056.01.108.034.156a.326.326 0 00.083.133.41.41 0 00.393.105l.002-.002zm-28.922-.484l.409.17-.046-.019.145.081-.046-.038s.01.011.013.017c.024.03.073.054.107.062.054.013.11.008.158-.014.083-.035.157-.127.15-.224v-.016l-.075.18.048-.064a.217.217 0 00.034-.114.308.308 0 00-.034-.194 1.02 1.02 0 00-.209-.26c-.11-.1-.245-.16-.387-.205-.259-.081-.523.14-.523.405 0 .109.045.222.12.298a.404.404 0 00.403.108h.008c-.037.003-.072.008-.11.013a.769.769 0 01.158 0l-.101-.013a.87.87 0 01.197.046l-.08-.033a.81.81 0 01.107.057.293.293 0 00.305 0l.008-.005-.195.027.013.005v-.476s-.013.006-.021.006l.061-.008a3.29 3.29 0 01-.163-.006l.05.008-.435-.073a.17.17 0 00-.11.014.14.14 0 00-.063.086c-.019.084.024.146.099.176l.005.003zm15.24-.69l-.03-.03.072.176c.003-.018 0-.035-.002-.054a.217.217 0 00-.035-.113c0-.003-.003-.006-.005-.008l-.006-.009-.05-.064-.006-.006.093.23a.33.33 0 00-.013-.135l-.043-.1a.318.318 0 00-.106-.116.301.301 0 00-.142-.076.344.344 0 00-.166-.008.292.292 0 00-.155.048.316.316 0 00-.114.109.307.307 0 00-.075.143l-.016.11c0 .076.018.147.056.212l.064.084c.05.05.112.086.182.108l.11.016a.373.373 0 00.16-.035.31.31 0 00.133-.087.294.294 0 00.075-.105l-.193.148c.032-.008.062-.024.091-.037.003 0 .006-.003.008-.006l.062-.049a.233.233 0 00.053-.073l-.147.114.04-.01a.222.222 0 00.155-.158.229.229 0 00-.056-.219h.005zm.435-1.936l.187.033a.174.174 0 00.17-.046.188.188 0 00.054-.127.16.16 0 00-.016-.07.131.131 0 00-.038-.057.174.174 0 00-.17-.046l-.187.032-.035.014a.108.108 0 00-.04.038.064.064 0 00-.019.032.125.125 0 00-.013.057c0 .027.008.051.019.073.008.016.02.03.037.04a.1.1 0 00.048.027h.003zm-10.408-.003l.077-.005-.08-.021h.003s-.021-.017-.035-.025c0 0 .024.02.035.027a.13.13 0 00.064.022.07.07 0 00.045 0 .121.121 0 00.064-.022l.11-.067a.134.134 0 00.045-.041.152.152 0 00.03-.054l.005-.043a.124.124 0 00-.013-.063.07.07 0 00-.022-.035.095.095 0 00-.045-.04l-.037-.016a.152.152 0 00-.086 0l-.115.048-.04.016a.149.149 0 00-.048.044.077.077 0 00-.021.038.114.114 0 00-.014.065c0 .008.003.037.006.045l.016-.124.024-.03-.054.063a.149.149 0 00-.032.056l-.005.033c0 .016.003.032.01.048.003.011.009.02.017.027a.05.05 0 00.021.022c.021.016.048.03.075.027v.006zm2.907 2.602a.392.392 0 00.145.056c.034.006.072.014.11.011a.802.802 0 00.111-.016.996.996 0 00.125-.049s.006 0 .009-.005l.053-.043a.178.178 0 00.046-.063.456.456 0 00.056-.202.24.24 0 00-.03-.114.21.21 0 00-.08-.081.216.216 0 00-.224 0 .2.2 0 01-.032.019l.059-.024s-.022.008-.032.01c-.006 0-.011 0-.017.003-.053.01-.088.043-.128.076l.054-.043-.056.035.061-.027a.288.288 0 01-.067.019l.067-.008c-.021 0-.04.002-.061 0l.064.008c-.016 0-.032-.006-.048-.011a.194.194 0 00-.097-.006.165.165 0 00-.09.03l-.048.038a.188.188 0 00-.051.078.126.126 0 00-.016.063.173.173 0 00.005.097.252.252 0 00.11.146l.002.003zm5.319-8.463l.222.057.11.027c.018.005.037.01.056.013a.124.124 0 00.101-.016.085.085 0 00.03-.116.128.128 0 00-.078-.063l-.056-.013-.11-.027-.221-.054c-.048-.011-.107.016-.12.067-.014.052.016.109.066.122v.003zm4.013 1.236c.17-.05.344-.09.51-.152.016-.005.014-.032-.005-.032-.174.008-.35.037-.524.059-.037.005-.067.03-.061.073a.061.061 0 00.077.051h.003zm2.389 2.857l.365.05c.06.007.12.007.18.01.042 0 .087 0 .128-.019.04-.019.074-.03.104-.06a.261.261 0 00.061-.113l-.032.057.008-.008c.046-.04.046-.13 0-.17l-.008-.009.032.057c-.013-.035-.024-.065-.045-.092a.245.245 0 00-.115-.078.328.328 0 00-.136-.022c-.062 0-.12 0-.18.01l-.365.05c-.046.005-.083.013-.118.048a.165.165 0 00-.048.12.176.176 0 00.048.118.191.191 0 00.118.049l.003.002zm-.003-2.874l.294-.041.144-.019c.053-.008.107-.01.155-.03.07-.03.104-.075.15-.135l-.038.049.008-.008-.048.038c.056-.041.125-.076.168-.13.062-.076.054-.173-.03-.23-.06-.043-.138-.054-.207-.081l.058.024a.285.285 0 00-.165-.057c-.043 0-.088.014-.129.02l-.141.024-.286.046a.273.273 0 00-.16.124.277.277 0 00-.032.173c.008.057.03.116.072.154.048.043.12.09.187.079zm6.166 6.378l.302.006c.07 0 .142-.014.21-.025l.145-.021.062-.027a.194.194 0 00.072-.068.253.253 0 00.053-.157.278.278 0 00-.035-.13c-.026-.048-.096-.11-.152-.119l-.144-.021c-.07-.01-.142-.024-.211-.024l-.302.005a.288.288 0 00-.2.084.3.3 0 00-.083.202c.008.16.126.287.286.29l-.003.005zm5.49 1.385l.05.01h.014c.043.009.07.011.112 0h.006c.024-.008.05-.013.069-.026a.194.194 0 00.096-.17.187.187 0 00-.027-.1.193.193 0 00-.069-.071.199.199 0 00-.07-.027h-.008l-.056-.008a.201.201 0 00-.056.008h-.013l-.05.01-.046.02a.163.163 0 00-.054.05.079.079 0 00-.024.044.126.126 0 00-.016.076l.008.051.02.046c.012.022.028.04.05.054.018.017.04.03.067.035l-.003-.002zm-29.068.026l.048.022-.07-.092c0 .022.008.04.022.057l.03.04a.153.153 0 00.06.041.121.121 0 00.075.016.174.174 0 00.075-.016.137.137 0 00.062-.04.155.155 0 00.04-.063.126.126 0 00.016-.075l-.008-.052a.19.19 0 00-.051-.086l-.04-.03a.18.18 0 00-.099-.027l-.05.008a.16.16 0 00-.067.035.163.163 0 00-.051.054.124.124 0 00-.022.057l.07-.092-.048.022a.124.124 0 00-.046.046.141.141 0 00-.018.065.11.11 0 00.018.065.124.124 0 00.046.045h.008zm9.329 1.074c.03.009.059.017.088.022a.12.12 0 00.062.003.1.1 0 00.056-.02.158.158 0 00.07-.091v-.01a2.295 2.295 0 01-.08.083l.031-.01a.14.14 0 00.046-.023.099.099 0 00.04-.08.105.105 0 00-.03-.074.13.13 0 00-.053-.03l-.035-.01.083.084v-.011a.163.163 0 00-.03-.052.124.124 0 00-.042-.04l-.038-.016a.134.134 0 00-.08 0c-.029.005-.058.013-.088.021l-.032.014a.092.092 0 00-.037.035.142.142 0 00-.03.081.14.14 0 00.02.068.137.137 0 00.077.062l.002-.006zm6.274-.108l.195.038c.043.008.091.022.134.024.035 0 .072-.005.107-.008.048-.005.09-.016.123-.051a.18.18 0 00.05-.124c-.002-.044-.016-.095-.05-.125a.202.202 0 00-.123-.051c-.035-.003-.07-.008-.102-.008a.614.614 0 00-.139.024l-.195.038c-.053.01-.096.073-.093.124.002.052.037.114.093.125v-.006zm-4.565-6.43c.056 0 .056-.09 0-.09s-.056.09 0 .09zm-2.781-3.28l.163-.053.08-.028a.222.222 0 00.096-.051l.027-.03a.13.13 0 00.032-.127.13.13 0 00-.091-.092c-.01 0-.024-.005-.035-.008-.032-.005-.059-.01-.09 0-.009 0-.014.006-.022.008l-.08.027-.163.054a.16.16 0 00-.09.07.166.166 0 00-.017.12.15.15 0 00.07.092c.034.018.08.03.117.016l.003.002zm-2.208 3.054l.03.019-.08-.106a.21.21 0 00.112.143.289.289 0 00.088.041l.098.016c.054.008.105.014.158.014a.27.27 0 00.158-.044l.04-.03a.217.217 0 000-.372l-.038-.027a.267.267 0 00-.154-.046 1.07 1.07 0 00-.16.013c-.033.005-.065.008-.094.014a.28.28 0 00-.088.038.206.206 0 00-.115.145l.08-.105-.03.019a.158.158 0 000 .268h-.005zm13.141 4.076l.083.008-.062-.016h.003s-.016-.01-.027-.019a.155.155 0 00.06.038.175.175 0 00.04.005.164.164 0 00.085-.03l.056-.032.053-.03c.024-.013.05-.027.072-.045a.097.097 0 00.019-.103.082.082 0 00-.03-.038.107.107 0 00-.056-.019c-.018 0-.042.006-.06.008l-.062.008-.06.008c-.029.006-.06.006-.087.022a.141.141 0 00-.067.119l.005-.035a.435.435 0 00.032-.051l-.056.054a.093.093 0 00-.018.094c.013.033.042.049.077.052v.002zm3.378 1.595c-.038-.002-.072 0-.11 0-.037 0-.072 0-.11-.005l-.095.014a.261.261 0 00-.126.067.351.351 0 00-.13.192.49.49 0 000 .198c.02.097.093.167.168.221a.62.62 0 00.221.095l-.173-.103a.43.43 0 00.323.135c.016 0 .035 0 .05-.005.07-.008.142-.016.211-.038a.564.564 0 00.262-.149c.043-.048.083-.1.118-.156l.037-.087.013-.097-.013-.098a.264.264 0 00-.064-.124.184.184 0 00-.064-.065.17.17 0 00-.08-.046.183.183 0 00-.09-.024.29.29 0 00-.145.005c-.021.006-.043.008-.064.014l.101-.014c-.016 0-.03 0-.045.003-.075.005-.096.013-.152.03a.717.717 0 01-.105.024l.11-.014c-.024.003-.045.006-.07.006-.048 0-.077 0-.136.013a.47.47 0 00-.195.12l.28-.117a1.285 1.285 0 01-.144 0l.185.692c.019-.01.04-.019.059-.03l-.083.036.077-.022c.05-.014.096-.038.144-.06l.067-.05a.245.245 0 00.067-.106.325.325 0 00.016-.214.367.367 0 00-.083-.143.242.242 0 00-.104-.068.22.22 0 00-.126-.027l-.002-.003z" fill="#fff"/><path d="M19.56 50.113c.022-3.128 3.251-7.693 4.808-8.971-1.624-.517-2.812-.644-2.812-.644s-1.86 2.772-2.252 5.094c-.392 2.323.254 4.521.254 4.521h.003zm45.705-7.73c-.847.47-1.664.951-2.583 1.276-.857.303-1.741.519-2.63.687a31.84 31.84 0 01-1.333.216c-.358.051-.73.124-1.015.368-.519.44-.497 1.206-.22 1.776.372.763 1.19 1.12 1.897 1.482.708.362 1.378.86 1.926 1.49 1.079 1.244 1.693 2.86 1.917 4.485.332 2.412-.12 4.843-.552 7.209-.038.203.114.357.315.319 2.983-.57 4.68-3.634 5.56-6.303 1.058-3.212 1.355-6.884.08-10.08-.595-1.492-1.711-3.363-3.525-3.339-.371.005-.371.597 0 .584 1.56-.062 2.457 1.658 2.957 2.915.574 1.444.815 2.998.804 4.55-.01 1.552-.294 3.226-.75 4.775-.399 1.347-.936 2.65-1.716 3.818-.854 1.276-2.021 2.285-3.547 2.582l.316.32c.646-3.605 1.293-7.563-.604-10.91a7.144 7.144 0 00-1.464-1.84c-.622-.548-1.324-.883-2.05-1.26-.727-.375-1.515-.98-1.328-1.892.09-.449.47-.638.878-.733.43-.1.869-.157 1.304-.238 1.001-.184 2-.416 2.96-.776.88-.33 1.786-.738 2.462-1.414.035-.035-.01-.094-.054-.07l-.005.003z" fill="#fff"/></g><defs><clipPath id="clip0_558_18952"><path fill="#fff" d="M0 0h88v88H0z"/></clipPath></defs></svg>