<svg width="1024" height="142" fill="none" xmlns="http://www.w3.org/2000/svg"><path d="M54.078 142c-11.216 0-20.897-1.596-29.042-4.787-8.012-3.191-14.22-7.778-18.627-13.761C2.136 117.336 0 110.156 0 101.913c0-7.978 2.07-14.758 6.209-20.343 4.273-5.717 10.415-10.105 18.426-13.163 8.146-3.058 17.96-4.587 29.443-4.587 11.35 0 21.097 1.53 29.242 4.587 8.145 3.058 14.354 7.446 18.627 13.163 4.406 5.585 6.609 12.365 6.609 20.343 0 8.243-2.203 15.423-6.609 21.539-4.407 5.983-10.683 10.57-18.828 13.761-8.144 3.191-17.825 4.787-29.04 4.787zm0-12.166c12.418 0 22.098-2.526 29.041-7.578 7.077-5.053 10.616-11.9 10.616-20.543 0-8.642-3.539-15.423-10.615-20.342-6.944-5.053-16.624-7.579-29.042-7.579-12.418 0-22.099 2.526-29.042 7.579-6.943 4.92-10.415 11.7-10.415 20.342 0 8.643 3.472 15.49 10.415 20.543 6.943 5.052 16.624 7.578 29.042 7.578zm0-57.837c-10.415 0-19.295-1.396-26.639-4.188-7.21-2.792-12.751-6.78-16.623-11.966-3.873-5.319-5.809-11.634-5.809-18.947 0-7.712 2.003-14.293 6.009-19.744 4.14-5.585 9.88-9.84 17.225-12.764C35.584 1.463 44.197 0 54.078 0c9.88 0 18.493 1.463 25.837 4.388 7.477 2.925 13.286 7.18 17.425 12.764 4.139 5.451 6.209 12.032 6.209 19.744 0 7.313-1.936 13.628-5.809 18.947-3.872 5.185-9.546 9.174-17.024 11.966-7.344 2.792-16.223 4.188-26.638 4.188zm0-9.573c10.949 0 19.494-2.26 25.637-6.78 6.142-4.521 9.213-10.571 9.213-18.15 0-7.977-3.205-14.16-9.614-18.547-6.276-4.521-14.688-6.781-25.236-6.781-10.549 0-18.96 2.26-25.237 6.78-6.275 4.388-9.413 10.504-9.413 18.349 0 7.712 3.004 13.828 9.013 18.348 6.142 4.52 14.688 6.781 25.637 6.781zM168.381 142c-10.815 0-20.429-2.792-28.841-8.376-8.412-5.718-15.022-13.828-19.829-24.332-4.807-10.637-7.21-23.4-7.21-38.292 0-14.891 2.403-27.589 7.21-38.093 4.807-10.636 11.417-18.747 19.829-24.331C147.952 2.859 157.566 0 168.381 0c10.816 0 20.429 2.859 28.842 8.576 8.412 5.584 15.021 13.695 19.828 24.331 4.941 10.504 7.411 23.202 7.411 38.093 0 14.891-2.47 27.655-7.411 38.292-4.807 10.504-11.416 18.614-19.828 24.332-8.413 5.584-18.026 8.376-28.842 8.376zm0-13.163c8.279 0 15.489-2.194 21.631-6.581 6.142-4.521 10.949-11.036 14.421-19.545 3.472-8.643 5.207-19.213 5.207-31.711 0-12.498-1.735-23.002-5.207-31.511-3.472-8.643-8.279-15.157-14.421-19.545-6.142-4.52-13.352-6.781-21.631-6.781-8.011 0-15.155 2.26-21.431 6.78-6.275 4.388-11.149 10.903-14.621 19.546-3.471 8.51-5.207 19.013-5.207 31.511 0 12.498 1.736 23.068 5.207 31.711 3.472 8.509 8.346 15.024 14.621 19.545 6.276 4.387 13.42 6.581 21.431 6.581zM284.971 142c-10.816 0-20.43-2.792-28.842-8.376-8.412-5.718-15.021-13.828-19.828-24.332-4.807-10.637-7.211-23.4-7.211-38.292 0-14.891 2.404-27.589 7.211-38.093 4.807-10.636 11.416-18.747 19.828-24.331C264.541 2.859 274.155 0 284.971 0c10.815 0 20.429 2.859 28.841 8.576 8.412 5.584 15.022 13.695 19.829 24.331 4.94 10.504 7.41 23.202 7.41 38.093 0 14.891-2.47 27.655-7.41 38.292-4.807 10.504-11.417 18.614-19.829 24.332-8.412 5.584-18.026 8.376-28.841 8.376zm0-13.163c8.278 0 15.489-2.194 21.631-6.581 6.142-4.521 10.949-11.036 14.42-19.545 3.472-8.643 5.208-19.213 5.208-31.711 0-12.498-1.736-23.002-5.208-31.511-3.471-8.643-8.278-15.157-14.42-19.545-6.142-4.52-13.353-6.781-21.631-6.781-8.012 0-15.156 2.26-21.431 6.78-6.276 4.388-11.15 10.903-14.621 19.546-3.472 8.51-5.208 19.013-5.208 31.511 0 12.498 1.736 23.068 5.208 31.711 3.471 8.509 8.345 15.024 14.621 19.545 6.275 4.387 13.419 6.581 21.431 6.581zM401.56 142c-10.816 0-20.429-2.792-28.841-8.376-8.413-5.718-15.022-13.828-19.829-24.332-4.807-10.637-7.21-23.4-7.21-38.292 0-14.891 2.403-27.589 7.21-38.093 4.807-10.636 11.416-18.747 19.829-24.331C381.131 2.859 390.744 0 401.56 0c10.816 0 20.429 2.859 28.841 8.576 8.413 5.584 15.022 13.695 19.829 24.331 4.94 10.504 7.411 23.202 7.411 38.093 0 14.891-2.471 27.655-7.411 38.292-4.807 10.504-11.416 18.614-19.829 24.332-8.412 5.584-18.025 8.376-28.841 8.376zm0-13.163c8.279 0 15.489-2.194 21.631-6.581 6.142-4.521 10.949-11.036 14.421-19.545 3.472-8.643 5.207-19.213 5.207-31.711 0-12.498-1.735-23.002-5.207-31.511-3.472-8.643-8.279-15.157-14.421-19.545-6.142-4.52-13.352-6.781-21.631-6.781-8.011 0-15.155 2.26-21.431 6.78-6.275 4.388-11.149 10.903-14.621 19.546-3.471 8.51-5.207 19.013-5.207 31.511 0 12.498 1.736 23.068 5.207 31.711 3.472 8.509 8.346 15.024 14.621 19.545 6.276 4.387 13.42 6.581 21.431 6.581zM518.149 142c-10.815 0-20.429-2.792-28.841-8.376-8.412-5.718-15.022-13.828-19.828-24.332-4.807-10.637-7.211-23.4-7.211-38.292 0-14.891 2.404-27.589 7.211-38.093 4.806-10.636 11.416-18.747 19.828-24.331C497.72 2.859 507.334 0 518.149 0c10.816 0 20.43 2.859 28.842 8.576 8.412 5.584 15.022 13.695 19.828 24.331C571.76 43.411 574.23 56.11 574.23 71c0 14.891-2.47 27.655-7.411 38.292-4.806 10.504-11.416 18.614-19.828 24.332-8.412 5.584-18.026 8.376-28.842 8.376zm0-13.163c8.279 0 15.489-2.194 21.632-6.581 6.142-4.521 10.949-11.036 14.42-19.545 3.472-8.643 5.208-19.213 5.208-31.711 0-12.498-1.736-23.002-5.208-31.511-3.471-8.643-8.278-15.157-14.42-19.545-6.143-4.52-13.353-6.781-21.632-6.781-8.011 0-15.155 2.26-21.43 6.78-6.276 4.388-11.15 10.903-14.621 19.546-3.472 8.51-5.208 19.013-5.208 31.511 0 12.498 1.736 23.068 5.208 31.711 3.471 8.509 8.345 15.024 14.621 19.545 6.275 4.387 13.419 6.581 21.43 6.581zm126.949 11.966V44.674l3.605 3.79H605.24V36.098h93.935v12.366h-43.462l3.605-3.79v96.129h-14.22zm96.987.998c-10.147 0-19.294-2.261-27.439-6.781-8.012-4.654-14.354-10.969-19.027-18.947-4.674-8.11-7.01-17.351-7.01-27.722 0-10.504 2.336-19.744 7.01-27.722 4.673-7.977 11.015-14.226 19.027-18.747 8.012-4.52 17.158-6.78 27.439-6.78 10.415 0 19.629 2.26 27.64 6.78 8.145 4.52 14.488 10.77 19.028 18.747 4.673 7.978 7.01 17.218 7.01 27.722 0 10.37-2.337 19.612-7.01 27.722-4.54 7.978-10.883 14.293-19.028 18.947-8.145 4.52-17.358 6.781-27.64 6.781zm0-12.565c7.611 0 14.354-1.662 20.23-4.986 5.875-3.457 10.481-8.243 13.819-14.36 3.472-6.249 5.208-13.428 5.208-21.539 0-8.243-1.736-15.423-5.208-21.54-3.338-6.115-7.944-10.835-13.819-14.16-5.876-3.456-12.552-5.185-20.029-5.185-7.478 0-14.154 1.729-20.029 5.186-5.875 3.324-10.549 8.044-14.02 14.16-3.472 6.116-5.208 13.296-5.208 21.54 0 8.11 1.736 15.289 5.208 21.538 3.471 6.117 8.145 10.903 14.02 14.36 5.875 3.324 12.485 4.986 19.828 4.986zm68.047 11.567V36.098h14.22v46.27h66.295v-46.27h14.221v104.705h-14.221v-46.27h-66.295v46.27h-14.22zm119.132 0V36.098h14.22v46.27h66.296v-46.27H1024v104.705h-14.22v-46.27h-66.296v46.27h-14.22z" fill="#2EAC6A"/></svg>