<svg width="202" height="118" fill="none" xmlns="http://www.w3.org/2000/svg"><path d="M151.454 49.783c.447.17.93.383 1.356.603.281.146.557.312.825.482 3.017 1.915 4.994 5.086 5.189 8.765.258 4.877-.201 9.988 0 14.889-.509 6.836-6.102 10.541-12.407 10.817-15.25-.03-30.948-1.082-45.566 4.037-14.647-5.097-30.347-4.079-45.621-4.037-6.325-.277-11.937-4.011-12.407-10.877.2-4.882-.257-9.973 0-14.829.195-3.68 2.172-6.85 5.19-8.765.268-.17.543-.336.825-.482.384-.2.896-.45 1.296-.603 2.25-.863 4.204-.958 6.57-.961 14.807-.02 29.957.9 44.144-4.097 14.156 5.008 29.313 4.076 44.096 4.097 2.405.003 4.224.092 6.51.961zm-50.761.256c-.75.081-2.146.663-2.969.885-12.097 3.26-24.69 3.013-37.13 2.96-4.871-.02-11.543-.934-12.811 5.518.068 4.759-.315 9.777-.068 14.518.197 3.797 3 5.806 6.463 6.287 7.612.245 15.259-.196 22.86.13 8.023.345 16.083 1.293 23.755 3.739 7.035-2.264 14.452-3.12 21.808-3.5 7.659-.397 15.318.108 22.99-.003 3.89-.056 7.896-1.501 8.281-6.05-.209-4.876.27-9.981 0-14.83-.222-4-3.694-5.968-7.28-6.175-3.366-.196-7.044.092-10.432.125-11.245.108-22.557.055-33.465-3.033-.477-.135-1.608-.614-2.004-.571h.002z" fill="#E61F13"/><path d="M153.634 50.868a10.97 10.97 0 00-.825-.483c-3.462-15.07-15.775-26.2-29.515-31.56-14.176-5.53-30.765-5.515-44.942 0-13.735 5.343-26.058 16.507-29.515 31.56a10.97 10.97 0 00-.825.483c.16-2.125.592-4.282 1.136-6.34 5.578-21.089 25.901-34.31 46.46-36.082 23.99-2.068 50.296 11.151 56.89 36.082.544 2.056.978 4.216 1.136 6.34z" fill="#27358C"/><path d="M100.693 50.039c.396-.043 1.527.436 2.005.571 10.907 3.087 22.219 3.14 33.464 3.033 3.388-.033 7.067-.32 10.432-.126 3.586.208 7.058 2.176 7.28 6.176.27 4.849-.209 9.954 0 14.83-.385 4.549-4.391 5.994-8.281 6.05-7.672.11-15.331-.394-22.99.002-7.356.381-14.772 1.237-21.808 3.5-7.672-2.445-15.732-3.393-23.755-3.738-7.6-.326-15.248.114-22.86-.13-3.463-.481-6.266-2.49-6.463-6.287-.247-4.74.136-9.759.068-14.518 1.269-6.452 7.94-5.538 12.81-5.517 12.441.053 25.034.299 37.131-2.961.822-.221 2.22-.804 2.969-.885h-.002zm-43.721 7.94h-4.48V74.97h4.48v-6.568h3.241v6.478l.089.09h4.39V57.978h-4.479v5.846h-3.241v-5.846zm38.488 0h-4.42V74.97h4.42v-7.38c0-.3.211-.978.389-1.23.56-.796 2.183-.798 2.64.121.066.133.213.623.213.748v7.653l.088.09h4.332v-9.49c0-1.085-.789-2.462-1.655-3.069-1.481-1.035-4.39-.966-5.654.415-.13.141-.213.337-.352.454v-5.303zm14.028 0h-4.479V74.97h4.479V57.978zm40.08 0h-4.421v4.7l-.3-.326c-2.307-1.334-5.3-.84-6.724 1.55-2.402 4.034-.607 13.147 5.446 11.172.76-.248.947-.53 1.52-.978.059-.046.074-.116.177-.09v.965h4.273l.03-16.993h-.001zM131.532 74.97h4.391l.092-.208c-.125-2.917.155-5.962 0-8.863-.171-3.186-2.159-4.654-5.212-4.238-1.026.14-1.887.552-2.483 1.438l-.089-1.084h-4.42V74.97h4.42v-7.32c0-.418.157-1.054.399-1.4.518-.736 2.055-.816 2.574-.073.132.19.327.773.327.99v7.804h.001zM72.107 61.672c-4.599.168-6.74 4.29-5.863 8.61 1.328 6.538 10.48 6.744 12.047.304 1.1-4.523-1.26-9.094-6.184-8.914zm17.164 4.803v-4.068c-.69-.481-1.625-.618-2.446-.692-2.599-.235-5.167.322-6.464 2.852-1.364 2.66-1.149 7.786 1.37 9.706 1.63 1.242 3.812 1.135 5.742.939.578-.059 1.276-.137 1.798-.391v-3.706c-1.064.343-2.723.787-3.804.425-1.44-.484-1.748-2.522-1.379-3.827.623-2.203 3.554-2.16 5.183-1.239zm32.772 8.496V65.24c0-2.39-2.33-3.472-4.33-3.589-1.81-.105-3.998.133-5.365 1.45l-.266 3.253c1.538-.835 3.041-1.692 4.862-1.505.706.072 1.313.778.797 1.416-.477.588-3.208 1.167-4.108 1.585-2.069.961-2.927 2.616-2.384 4.93.426 1.818 1.987 2.499 3.689 2.555 1.308.043 2.232-.435 3.156-1.328v.964h3.949z" fill="#FEFEFE"/><path d="M150.628 47.012c.313.907.679 1.812.825 2.772-2.287-.87-4.106-.958-6.511-.962-14.781-.02-29.939.911-44.095-4.097-14.188 4.997-29.336 4.076-44.145 4.097-2.365.003-4.319.098-6.57.962.147-.505.32-1.006.472-1.507.088.086.304-.005.414-.03 8.522-1.911 17.05-3.847 25.628-5.495 6.432-1.235 11.381-2.183 18.008-1.276 3.414.468 6.776 1.456 10.155 1.912 3.898.525 6.466-.642 10.148-1.298 11.601-2.066 24.273 1.827 35.405 4.922.078.022.211.12.265 0h.001z" fill="#76B628"/><path d="M152.81 50.386a13.45 13.45 0 00-1.356-.603c-.146-.96-.511-1.864-.825-2.772a37.675 37.675 0 00-2.181-5.122c-1.653-3.193-3.686-6.03-6.071-8.677-1.697-1.883-3.501-3.695-5.54-5.182l-.298-.327c-1.527-1.216-3.119-2.264-4.771-3.288a52.838 52.838 0 00-6.484-3.435 57.468 57.468 0 00-7.426-2.712c-1.452-.423-2.835-.718-4.303-1.024-.018-.004-.142-.09-.295-.12-.053-.011-.123.01-.176 0-7.242-1.436-14.264-1.635-21.573-.543-1.526.228-3.033.5-4.538.844a59.043 59.043 0 00-5.894 1.687 55.393 55.393 0 00-8.075 3.495 51.254 51.254 0 00-5.246 3.194c-2.374 1.634-4.413 3.28-6.483 5.302-3.337 3.258-6.048 6.841-8.193 11.027-1.041 2.031-1.805 3.957-2.476 6.147-.153.5-.325 1.002-.471 1.506-.4.154-.912.403-1.297.603 3.457-15.053 15.78-26.217 29.515-31.56 14.177-5.516 30.765-5.53 44.942 0 13.74 5.359 26.053 16.49 29.515 31.56z" fill="#FCFCFD"/><path d="M56.972 57.978v5.846h3.242v-5.846h4.479v16.993h-4.391l-.088-.09v-6.478h-3.242v6.568h-4.48V57.978h4.48zm92.595 0l-.03 16.993h-4.273v-.964c-.103-.027-.118.043-.177.09-.573.448-.759.73-1.52.977-6.053 1.975-7.848-7.138-5.445-11.171 1.423-2.39 4.417-2.885 6.724-1.551l.3.326v-4.7h4.421zm-6.792 7.367c-2.863.382-2.656 6.573.628 6.126 2.532-.346 2.434-6.534-.628-6.126zM95.46 57.978v5.303c.14-.117.224-.313.352-.454 1.265-1.381 4.173-1.45 5.654-.414.867.606 1.656 1.983 1.656 3.067v9.491H98.79l-.089-.09v-7.653c0-.125-.146-.615-.212-.747-.458-.92-2.081-.917-2.64-.122-.178.252-.39.93-.39 1.23v7.381h-4.42V57.978h4.421zm36.071 16.993v-7.803c0-.218-.195-.801-.327-.991-.519-.744-2.056-.663-2.574.073-.243.345-.399.981-.399 1.4v7.321h-4.42V62.015h4.42l.089 1.085c.596-.886 1.457-1.298 2.483-1.438 3.052-.416 5.04 1.053 5.211 4.238.156 2.902-.123 5.946 0 8.863l-.091.208h-4.392zM72.106 61.672c4.925-.18 7.285 4.39 6.185 8.913-1.566 6.441-10.72 6.235-12.047-.303-.877-4.32 1.264-8.441 5.863-8.61zm-.058 3.796c-1.87.18-2.269 1.996-2.103 3.62.281 2.753 3.953 3.016 4.607.507.492-1.888-.204-4.347-2.504-4.127zm49.995 9.504h-3.949v-.965c-.923.894-1.848 1.372-3.156 1.328-1.702-.056-3.262-.736-3.689-2.555-.542-2.313.315-3.969 2.385-4.93.899-.417 3.63-.996 4.107-1.585.516-.637-.09-1.343-.797-1.416-1.821-.186-3.323.671-4.862 1.506l.266-3.253c1.367-1.317 3.555-1.555 5.365-1.45 2 .116 4.33 1.2 4.33 3.588v9.732zm-3.596-5.966c-.876.499-3.134.606-3.345 1.852-.204 1.2.955 1.598 1.919 1.3.8-.248 1.426-1.12 1.426-1.977v-1.175z" fill="#27368C"/><path d="M89.27 66.475c-1.63-.921-4.56-.965-5.183 1.24-.37 1.304-.062 3.342 1.378 3.825 1.081.363 2.741-.082 3.805-.424v3.706c-.523.254-1.22.332-1.798.39-1.93.197-4.113.304-5.742-.938-2.519-1.92-2.734-7.046-1.37-9.707 1.296-2.53 3.864-3.086 6.463-2.851.821.074 1.757.21 2.447.692v4.068z" fill="#27358C"/><path d="M109.487 57.978h-4.479v16.993h4.479V57.978z" fill="#28378D"/><path d="M148.448 41.89a37.539 37.539 0 012.18 5.122c-.054.119-.187.022-.265 0-11.131-3.096-23.804-6.99-35.405-4.923-3.682.656-6.25 1.824-10.148 1.298-3.379-.456-6.741-1.444-10.154-1.911-6.628-.908-11.578.04-18.01 1.275-8.577 1.647-17.105 3.584-25.627 5.496-.11.025-.326.115-.413.03.67-2.19 1.434-4.116 2.475-6.147l10.58-.483c5.495-.4 11.026-.675 16.495-1.393 3.752-.493 7.057-1.428 10.912-1.257 4.74.211 8.852 1.882 13.39 2.581 3.865.596 6.437-.811 10.039-1.648 4.824-1.12 9.742-.903 14.647-.511 6.467.516 12.896 1.514 19.304 2.47z" fill="#FDEC00"/><path d="M75.655 29.115c1 .07 2.028.272 3.006.482.508.109 1.032.225 1.533.361a41.83 41.83 0 012.475.784c.71.243 1.45.558 2.18.843 1.019.397 2.061.778 3.066 1.206 1.83.78 3.646 1.678 5.481 2.47 1.567.677 3.115 1.336 4.716 1.928 1.887.699 3.529 1.265 5.54 1.567 2.174.326 3.715.097 5.846-.26 4.884-.817 9.675-2.168 14.489-3.235.096-.022.195-.039.294-.06.603-.133 1.222-.234 1.828-.362 1.195-.253 2.393-.503 3.595-.723 1.351-.247 2.704-.486 4.067-.663a46.92 46.92 0 014.244-.361c.59-.024 1.198-.106 1.8-.063l2.561.183c2.385 2.647 4.418 5.484 6.071 8.677-6.408-.956-12.837-1.953-19.303-2.47-4.906-.391-9.824-.61-14.648.512-3.602.837-6.174 2.244-10.039 1.648-4.538-.7-8.65-2.37-13.39-2.581-3.855-.172-7.16.763-10.912 1.256-5.468.719-11 .994-16.496 1.394l-10.579.482c2.145-4.186 4.856-7.77 8.193-11.027 1.798-.233 3.578-.599 5.363-.904 1.394-.238 2.793-.496 4.185-.723 1.634-.267 3.179-.477 4.834-.361z" fill="#016A3A"/><path d="M113.083 17.124v.18c.197.022.192.007.177-.18.152.03.277.117.295.12-.453.156.11.27.288.398 2.564 1.853 4.843 3.838 6.633 6.537.071.497.662.934.826 1.265.206.416.384 1.001.598 1.376.451.792.969 1.842 1.208 2.743.072.273.156.716.242.957.037.105.183.1.216.2.056.174.038.55.083.76.22 1.031.555 2.083.633 3.149.014.19-.007.382.001.572-.099.021-.198.038-.295.06a77.555 77.555 0 00-2.357-1.688 1.06 1.06 0 00.057-.447c-.061-.436-.297-1.227-.428-1.675-.739-2.535-2.222-5.56-3.932-7.549-.214-.248-.545-.478-.731-.699-.186-.22-.348-.626-.568-.805-1.342-1.088-2.627-2.228-4.143-3.116-5.62-3.294-12.665-3.617-18.546-.803-4.076 1.952-7.684 5.512-9.64 9.668-.397.841-.674 1.736-1.029 2.594a41.885 41.885 0 00-2.476-.783c-.01-.26.359-.148.444-.3.059-.106.005-.262.042-.38.265-.843.844-2.108 1.245-2.821.404-.719.847-1.698 1.334-2.314.219-.277.141-.214.291-.486.07-.127.292-.226.38-.334.113-.137.216-.469.306-.591.141-.191.5-.423.639-.612 1.362-1.858 3.262-3.217 5.08-4.505.166-.118.59-.517.626-.537.12-.061.445-.026.651-.136.033-.017.296-.28.278-.361 7.309-1.092 14.33-.893 21.572.542z" fill="#D4EDFC"/><path d="M125.284 20.98c.057.34.24.522.202.908l.438.155.034.809.446.056.025.426.393.14.079.824.393.14.081.761c.064.13.488.144.554.404.03.12-.093.228-.108.352a2.913 2.913 0 00-.001.598c.059.315.403.135.462.31l.034 1.292.511.091c.125.429-.155.781-.065 1.261.051.277.398.048.463.25l.016 1.73.089.091.307.016c.144.088.03 2.193.068 2.523-1.203.22-2.401.47-3.596.724-.155-1.008-.267-2.031-.487-3.027-1.14-5.158-3.573-9.18-7.213-12.782-.176-.173-.509-.525-.552-.762a57.497 57.497 0 017.427 2.711v-.001zm.648 1.99h-.176v.119h.176v-.12zm.943 2.047l-.026-.606c-.084-.123-.429-.077-.386.124l.227.069c.056.094-.086.434.185.413zm1.414 3.254c-.18-.016-.192.152-.176.3h.176v-.3zm.944 4.339v-.934c0-.05-.147-.12-.205-.09-.24.078.099.756.072.95l.133.074z" fill="#C4E6FA"/><path d="M131.767 24.414c-.155.214.043.35.092.538.195.745.455 1.437.689 2.188.506 1.627.982 3.323 1.209 5.032.034.256.129.74.129.959 0 .137-.095.199-.115.322-1.363.177-2.716.416-4.067.663-.037-.33.076-2.435-.067-2.523l-.308-.016-.088-.091-.017-1.73c-.065-.203-.412.027-.463-.25-.09-.48.19-.832.065-1.26l-.511-.092-.033-1.292c-.059-.175-.404.004-.463-.31a2.846 2.846 0 01.002-.599c.014-.123.137-.232.107-.351-.066-.26-.489-.275-.554-.404l-.081-.76-.393-.141-.078-.824-.394-.14-.024-.427-.447-.056-.034-.809-.438-.154c.039-.386-.145-.569-.202-.909a52.91 52.91 0 016.484 3.435v.001zm-50.689-5.302c.009.361-.496.375-.687.562-.13.128-.155.376-.212.446-.037.046-.156.054-.217.108-.343.304-.37.653-.601 1.017-.091.144-.493.517-.55.64-.06.134-.015.273-.123.417-.123.162-.43.179-.472.24-.057.08-.01.373-.06.544-.038.132-.17.168-.218.259-.296.556-.51 1.265-.82 1.81-.15.263-.263.425-.384.752-.14.382-.4.64-.477.899-.047.157.033.346-.04.5-.05.106-.286.152-.319.283l.114.518c-.348.194-.22.669-.356 1.007-1.655-.117-3.2.094-4.833.361.069-.2-.139-.187-.168-.278-.095-.297.167-.762.245-1.059.358-1.366.801-2.604 1.32-3.892.135-.332.285-.896.445-1.173.123-.216.362-.233.338-.468a55.381 55.381 0 018.075-3.495v.002zm-3.344 3.734a.073.073 0 00-.073-.074.073.073 0 00-.072.074c0 .041.032.075.072.075.04 0 .073-.034.073-.075z" fill="#B9E2F9"/><path d="M86.972 17.425c-.11.348-.54.504-.795.724-2.598 2.243-4.661 5.083-6.23 8.153l-1.287 3.294c-.978-.21-2.007-.411-3.006-.482.136-.338.009-.812.356-1.007l-.114-.518c.034-.131.269-.176.319-.282.073-.154-.007-.343.04-.5.077-.26.337-.518.477-.899.121-.328.234-.49.384-.753.31-.544.525-1.252.82-1.81.049-.09.18-.127.22-.258.05-.172.002-.464.058-.544.043-.062.35-.079.472-.24.109-.144.063-.284.124-.417.057-.124.459-.497.55-.64.23-.365.257-.713.6-1.017.061-.055.18-.063.217-.108.058-.07.082-.318.212-.446.191-.188.696-.201.687-.563a59.077 59.077 0 015.894-1.687h.002z" fill="#C4E6FA"/><path d="M117.856 18.268c.043.237.377.59.551.762 3.64 3.602 6.074 7.625 7.214 12.782.219.996.331 2.019.487 3.027-.605.128-1.224.228-1.827.361-.008-.19.013-.382-.001-.571-.077-1.066-.413-2.117-.633-3.149-.045-.21-.027-.586-.083-.76-.032-.1-.179-.096-.216-.2-.086-.24-.17-.684-.242-.957-.239-.901-.757-1.95-1.208-2.743-.214-.375-.392-.96-.598-1.377-.164-.33-.755-.767-.826-1.264-1.79-2.7-4.069-4.684-6.633-6.537-.178-.128-.741-.242-.288-.398 1.468.306 2.85.6 4.303 1.024z" fill="#CCEAFC"/><path d="M131.767 24.415c1.652 1.024 3.244 2.073 4.771 3.289l.298.326c-.009.207.065.709.277.772.126.038.384-.037.433.051.079.399-.129 1.535.087 1.828.052.07.177.064.239.118.316.272.119 1.858.143 2.294a46.987 46.987 0 00-4.244.361c.02-.123.116-.185.116-.322 0-.22-.095-.703-.129-.96-.228-1.708-.704-3.404-1.209-5.03-.234-.752-.494-1.444-.689-2.188-.05-.189-.248-.324-.093-.538v-.001z" fill="#ADDDF7"/><path d="M91.51 16.581c.019.08-.245.344-.278.362-.206.11-.532.074-.65.136-.038.02-.462.42-.627.536-1.817 1.288-3.718 2.648-5.08 4.505-.139.19-.497.421-.639.612-.09.123-.193.453-.306.591-.088.109-.31.207-.38.335-.15.27-.072.209-.291.485-.487.617-.93 1.595-1.335 2.314-.4.713-.98 1.978-1.244 2.822-.038.118.017.274-.042.38-.085.151-.454.04-.443.3-.5-.137-1.025-.253-1.533-.362l1.287-3.295c1.569-3.07 3.632-5.91 6.23-8.152.255-.221.685-.377.794-.725a60.01 60.01 0 014.539-.843h-.002z" fill="#CCEAFC"/><path d="M73.004 22.606c.023.235-.215.252-.339.468-.159.278-.309.84-.443 1.173-.52 1.287-.963 2.526-1.321 3.892-.078.297-.34.762-.245 1.06.029.09.237.078.167.277-1.392.228-2.791.486-4.184.724l.073-1.281c-.02-.258.307-.522.338-.678.041-.213-.073-.462-.046-.588.015-.075.12-.143.14-.221.068-.277.178-1.048.38-1.237.126-.116.419-.093.234-.394a51.272 51.272 0 015.246-3.193v-.002z" fill="#ADDDF7"/><path d="M67.756 25.8c.185.301-.109.278-.233.395-.203.188-.313.958-.381 1.236-.02.078-.124.146-.14.221-.027.127.088.375.047.588-.031.156-.358.42-.339.678l-.073 1.28c-1.786.306-3.565.671-5.364.904 2.071-2.021 4.11-3.668 6.484-5.302zm74.621 7.412l-2.561-.183c-.602-.043-1.211.04-1.801.063-.023-.436.173-2.023-.143-2.294-.062-.054-.187-.047-.238-.118-.216-.293-.009-1.43-.087-1.828-.05-.089-.307-.013-.434-.05-.212-.065-.285-.566-.276-.773 2.038 1.487 3.843 3.299 5.54 5.183z" fill="#A4DAF6"/><path d="M113.259 17.123c.015.188.02.203-.177.181v-.18c.053.01.123-.012.177 0z" fill="#CCEAFC"/><path d="M142.775 65.346c3.062-.409 3.16 5.78.628 6.125-3.284.447-3.49-5.745-.628-6.126zm-70.726.123c2.3-.22 2.995 2.239 2.504 4.126-.654 2.51-4.326 2.247-4.607-.506-.165-1.624.234-3.441 2.103-3.62z" fill="#FDFDFD"/><path d="M118.447 69.006v1.175c0 .857-.626 1.729-1.426 1.976-.965.299-2.123-.099-1.919-1.299.211-1.246 2.469-1.353 3.345-1.852z" fill="#FCFCFD"/><path d="M84.85 31.586c-.059-.276.191-.398.257-.612.213-.695.34-1.15.646-1.81.141-.303.482-.695.535-.836.188-.501.243-.675.541-1.136.16-.246.355-.61.493-.808.052-.075.242-.11.359-.251.096-.117.123-.278.207-.392.701-.952 1.53-1.707 2.446-2.44.231-.185.468-.61.708-.782.166-.12.468-.197.64-.308.272-.174.562-.509.81-.68.248-.17 2.078-1.133 2.242-1.142.085-.004.316.197.49.11l-.053-.293c.275-.188.633-.189.926-.29 1.01-.352 2.055-.669 3.105-.803 2.981-.382 5.656-.211 8.469.803.415.149.888.256 1.286.433.169.075.601.256.728.34.126.085.079.2.105.223.033.03.627.12.838.26.117.078.077.188.109.218.018.017.328.065.442.122.31.154.637.512.907.7.121.083.412.155.521.25.108.095.124.272.268.389.107.087.243.093.321.154.898.698 1.623 1.565 2.362 2.405.193.22.396.58.555.759.091.1.251.108.3.175.053.075.047.264.102.378.123.262.278.309.455.74.07.17.227.292.178.507-.292-.051-.256.351.056.234l.005-.172c.066-.003.118-.012.179.028.034.022.396.625.435.7.264.527.526 1.158.664 1.731.059.247.228.457.137.794-.078.088-.547-.431-.471 0-2.596-1.563-4.268-2.478-7.368-1.687-1.023.26-1.91.588-2.886.996-1.154.48-2.418 1.246-3.539 1.655-.877.32-1.756.402-2.652.12-.941-.295-1.519-.94-2.299-1.265-.613-.465-1.407-.976-2.166-1.13-1.038-.21-2.575.362-3.596.692-1.936.625-3.827 1.41-5.73 2.125-1.005-.428-2.048-.808-3.066-1.205z" fill="#DDF0FC"/><path d="M82.669 30.742c.355-.858.632-1.753 1.028-2.594 1.957-4.157 5.564-7.717 9.64-9.668 5.881-2.815 12.926-2.491 18.547.802 1.516.888 2.8 2.028 4.142 3.117.221.178.392.595.568.805.187.22.519.45.731.699 1.71 1.988 3.193 5.014 3.933 7.549.131.448.366 1.239.427 1.674.022.156-.015.302-.057.448-1.128-.775-2.308-1.585-3.478-2.29-.075-.43.394.088.471 0 .092-.336-.077-.547-.136-.793-.138-.573-.401-1.205-.665-1.731-.037-.076-.4-.678-.435-.7-.06-.04-.112-.031-.178-.029l-.005.173c-.312.117-.348-.286-.056-.234.049-.215-.108-.337-.178-.508-.177-.43-.332-.477-.455-.74-.055-.114-.049-.303-.102-.377-.049-.067-.209-.075-.3-.176-.159-.178-.362-.54-.555-.758-.739-.84-1.464-1.708-2.362-2.405-.078-.06-.214-.068-.321-.155-.145-.117-.16-.292-.268-.388-.109-.097-.4-.167-.521-.251-.27-.187-.597-.546-.907-.7-.114-.056-.424-.105-.442-.121-.032-.03.008-.14-.11-.218-.211-.14-.804-.23-.837-.26-.026-.024.017-.141-.106-.223-.122-.081-.557-.265-.727-.34-.398-.177-.871-.285-1.286-.434-2.813-1.014-5.488-1.185-8.47-.803-1.05.135-2.094.451-3.104.803-.293.102-.651.104-.926.291l.053.292c-.175.088-.405-.113-.49-.11-.164.009-2.006.98-2.242 1.143-.248.171-.538.505-.81.68-.173.11-.474.19-.64.308-.24.172-.477.596-.709.782-.915.733-1.744 1.487-2.445 2.44-.084.114-.112.274-.207.392-.116.141-.308.176-.36.25-.136.199-.333.562-.492.808-.297.462-.353.636-.541 1.136-.053.142-.395.535-.535.837-.307.66-.434 1.114-.646 1.81-.066.213-.316.335-.256.611-.732-.285-1.47-.6-2.181-.843z" fill="#D8EEFC"/><path d="M118.152 31.285c1.17.704 2.349 1.514 3.477 2.29a76.365 76.365 0 012.358 1.686c-4.814 1.068-9.605 2.418-14.488 3.236-2.132.356-3.673.586-5.847.26.275-1.074.609-2.152 1.12-3.134 1.082-2.076 2.67-2.39 4.38-3.627.926-.669 1.358-1.245 1.632-2.399 3.101-.79 4.772.125 7.368 1.688z" fill="#FEFEFE"/><path d="M99.409 31.104c.779.324 1.357.97 2.298 1.265-.152.698-.467 1.423-.783 2.061-.725 1.467-1.303 1.725-2.548 2.638-.084.063-.155.116-.264.12-1.601-.591-3.149-1.25-4.715-1.927.212-.38.42-.767.6-1.165.99-2.21.954-4.353 4.056-3.444.381.111 1 .304 1.356.451z" fill="#FDFEFE"/><path d="M104.359 32.248c-.253.511-.067 1.2.029 1.748.094.54.234 1.1.384 1.627-.511.981-.846 2.06-1.12 3.133-2.011-.302-3.653-.868-5.54-1.567.108-.005.18-.059.264-.12 1.245-.914 1.822-1.172 2.547-2.638.316-.639.631-1.363.784-2.062.896.282 1.774.199 2.652-.12v-.001z" fill="#E8F6FC"/><path d="M99.41 31.104c-.355-.148-.975-.34-1.356-.452-3.102-.909-3.066 1.234-4.056 3.445-.179.398-.388.785-.6 1.164-1.836-.793-3.651-1.69-5.482-2.47 1.904-.715 3.795-1.5 5.73-2.126 1.021-.33 2.559-.903 3.597-.692.759.155 1.552.665 2.166 1.13z" fill="#17BAEE"/><path d="M129.233 32.61l-.133-.075c.027-.193-.312-.871-.072-.948.059-.032.205.04.205.089v.934zm-2.358-7.593c-.271.021-.129-.32-.185-.414l-.227-.069c-.043-.2.302-.246.386-.123l.026.605zm1.414 3.255v.3h-.176c-.016-.148-.005-.317.176-.3zm-2.357-5.303h-.176v.12h.176v-.12z" fill="#B9E2F9"/><path d="M77.66 22.92c.04 0 .073-.033.073-.073a.073.073 0 00-.073-.075.073.073 0 00-.072.075c0 .04.032.074.072.074z" fill="#C4E6FA"/><path d="M110.784 29.597c-.274 1.154-.706 1.73-1.632 2.399-1.71 1.236-3.298 1.55-4.38 3.627a16.417 16.417 0 01-.383-1.627c-.096-.549-.283-1.237-.029-1.748 1.121-.408 2.385-1.174 3.538-1.655.977-.408 1.863-.735 2.886-.996z" fill="#93D4F5"/></svg>