<svg width="202" height="118" viewBox="0 0 202 118" fill="none" xmlns="http://www.w3.org/2000/svg">
<path d="M62.8 48C62.4 48.4 62.4 49 62.8 49.3C63.2 49.7 63.8 49.7 64.1 49.3C64.5 48.9 64.5 48.3 64.1 48C63.7 47.6 63.1 47.6 62.8 48Z" fill="#FEFEFE"/>
<path d="M72 47.4H68L67 48.6C66.8 48.8 66.9 48.9 67.1 49L68.4 49.6L72.1 47.9C72.4 47.8 72.3 47.4 72 47.4ZM57.1 67H52.2C50.9 67.8 50.5 68 48.8 68.7C48.7 68.7 48.6 68.9 48.7 69L53.1 81.3H55.6L51.6 70C54.2 70 60.5 69.3 63.9 63.8C62.8 65.4 60.3 67 57.1 67ZM64.1 49.3C63.7 49.7 63.1 49.7 62.8 49.3C62.4 48.9 62.4 48.3 62.8 48C63.2 47.6 63.8 47.6 64.1 48C63.3 47.2 62 47.2 61.3 48C60.6 48.8 60.5 50 61.3 50.8C62.1 51.6 63.4 51.6 64.1 50.8C64.8 50 64.9 48.8 64.1 48C64.4 48.4 64.4 48.9 64.1 49.3ZM54.4 71.7L57.8 81.3H60.3L56.7 71.2C56.1 71.4 55.3 71.5 54.4 71.7ZM57.8 59.7C58.1 59.3 58.3 58.9 58.6 58.4C58.5 58.3 58.4 58.4 58.3 58.5C53.2 63.9 48.3 64.6 44.5 64.6H38.7C38.5 64.6 38.4 64.4 38.5 64.2C43 58 47.9 53.1 51.6 50L41.9 58.1C41.1 58.7 40.2 59.1 39 59.1H26.8C26.5 59.1 26.6 59.4 26.6 59.6C27.4 62.2 29.8 64.6 33.8 64.6L30.9 67.5C30.8 67.6 30.8 67.9 31.1 67.9H42C49.8 67.9 54.7 64.5 57.8 59.7Z" fill="#00985F"/>
<path d="M166.6 81.3H175.5V53.8H166.6V63.9H158.2V53.8H149.3V81.3H158.2V70.9H166.6V81.3ZM61.3 50.8C60.5 50 60.5 48.8 61.3 48C62.1 47.2 63.4 47.2 64.1 48C64.8 48.8 64.9 50 64.1 50.8C63.3 51.6 62 51.6 61.3 50.8ZM63.8 63.8C67.2 58.3 68.4 49.6 68.4 49.6L67.1 49C66.9 48.9 66.9 48.8 67 48.6L68 47.4C67.4 46.2 65.2 44.2 62 44.2C60.1 44.2 58.4 44.7 56.9 45.7C56.9 45.7 54.7 47.2 51.6 49.9C47.9 53.1 43 57.9 38.5 64.1C38.4 64.3 38.5 64.5 38.7 64.5H44.5C48.3 64.5 53.2 63.8 58.3 58.4C58.4 58.3 58.5 58.3 58.6 58.3C58.7 58.4 58.7 58.5 58.7 58.6C57.9 60.6 55.9 64.5 52.2 66.9H57.1C60.4 66.9 62.8 65.4 63.8 63.8ZM58.8 70.4L62.6 81.2H73.4C71.2 74.5 68.8 68.3 66.5 62.6C64.7 66.5 63 68.4 58.8 70.4ZM26 81.3H36.9L40.6 69.8H30C28.7 73.2 27.4 77 26 81.3ZM40.7 56.6L46.2 52.1C47.4 48.9 48.6 45.7 49.8 43C50.4 44.4 51 45.9 51.6 47.4C54.6 44.9 56.5 43.4 59 42.7C57.5 39.4 56.4 37 55.9 36H43.7C42.7 38.2 38.8 46.3 34.2 57.2H38.6C39.5 57.2 40.2 57.1 40.7 56.6ZM108.1 78.2L108.7 81.2H115.9V53.8H107V72.9C106.2 73.8 104.7 74.8 103.3 74.8C100.8 74.8 99.5 73.4 99.5 70.8V53.8H90.6V72.9C89.8 73.8 88.1 74.8 86.6 74.8C84.3 74.8 83 73.4 83 70.8V53.8H74.1V72C74.1 78.6 77 81.9 83 81.9C87.3 81.9 89.9 80.3 91.9 78.2C93.3 80.7 95.8 81.9 99.5 81.9C103.8 81.8 106.2 80.3 108.1 78.2ZM136.4 72.8C135.6 73.7 134.3 74.7 132.1 74.7C129.7 74.7 128.4 72.5 128.4 68.2C128.4 62.9 129.8 60.3 132.7 60.3C134.4 60.3 135.2 60.4 136.4 60.7V72.8ZM129 81.8H129.3C133.3 81.8 136 80.4 137.5 78.2L138 81.2H145.3V54.9C142.4 54 139 53.2 132.8 53.2C123.9 53.2 119.1 58.6 119.1 68.6C119.1 77.8 122.5 81.8 129 81.8Z" fill="#DC000F"/>
</svg>
