<svg width="202" height="118" fill="none" xmlns="http://www.w3.org/2000/svg"><path fill-rule="evenodd" clip-rule="evenodd" d="M65.265 40.001c-1.376 0-3.135 1.021-3.135 3.366 0 .942.28 1.777.9 2.417.332.346.978.87 2.21.87 1.172 0 1.98-.4 2.438-.63v-2.745h-2.302v.87h1.12v1.448c-.28.115-.585.24-1.044.24-1.402 0-2.03-1.422-2.03-2.576 0-1.466.934-2.425 2.183-2.425.382 0 .688.089.977.284.348.222.467.436.56.596l.332-.134c-.05-.213-.127-.55-.46-.906-.45-.488-1.103-.675-1.749-.675zm28.8 0c-2.235 0-2.932 1.821-2.932 3.393 0 1.457.697 3.26 2.923 3.26 2.328 0 2.982-1.91 2.982-3.34 0-1.367-.603-3.304-2.974-3.313zm40.822.186v6.28h4.112v-.852h-2.897v-1.963h2.225v-.862h-2.225v-1.74h2.54v-.863h-3.755zm-13.446 0v6.281h1.215v-2.79c.196.028.417.063.654.063 1.3 0 2.362-.702 2.362-1.901 0-.649-.365-1.652-1.954-1.652h-2.277zm-44.07.01v6.27h1.215v-2.771c.34.071.407.072.705.072l1.529 2.7h1.36l-1.674-2.976c.246-.133.527-.285.773-.675.23-.364.272-.72.272-.95 0-.445-.162-1.013-.646-1.35-.348-.24-.764-.32-1.402-.32H77.37zm29.164 0v3.89c0 1.146.178 1.635.543 2.025.349.365.833.552 1.471.552.212 0 .696-.036 1.121-.311.264-.169.442-.392.621-.623v.738h1.206v-6.271h-1.206v4.93c-.196.213-.655.701-1.36.701-.459 0-.824-.222-1.02-.675-.068-.16-.152-.426-.152-.986v-3.97h-1.224zm-12.462.639c.884-.01 1.665.658 1.665 2.514 0 .426 0 2.47-1.665 2.47-1.614 0-1.623-2.114-1.623-2.603 0-1.395.56-2.372 1.623-2.381zm28.918.21c.309 0 .543.019.753.092.425.152.654.507.654.968 0 .427-.221.773-.671.978-.382.177-.731.186-1.071.186v-2.22c.121-.003.232-.004.335-.004zm-43.904.012c.238 0 .518.018.765.16.424.24.45.701.45.843 0 .605-.408.915-.714 1.049-.331.142-.67.142-1.002.151v-2.194c.153 0 .34-.009.501-.009zm72.591 9.929c-1.52 0-2.751.94-2.751 2.1 0 1.161 1.231 2.101 2.751 2.101 1.52 0 2.752-.94 2.752-2.1 0-1.16-1.232-2.101-2.752-2.101zm-74.728.81c-8.396.119-11.795 4.794-11.869 8.287-.113 5.364 4.88 8.534 11.339 8.668 7.801.162 9.977-3.487 10.283-3.963 0 0-.93-.315-1.361-.414-.63.6-2.764 2.49-6.936 2.403-5.801-.12-8.301-3.58-8.234-6.76.065-3.093 3.092-6.338 8.593-6.224 4.286.09 6.169 1.648 6.956 2.26l1.105-.854c-2.444-2.641-6.647-3.35-9.048-3.4a23.663 23.663 0 00-.828-.003zm90.792.018c-4.592.045-8.552 1.698-8.552 4.892 0 6.476 12.78 3.203 12.78 7.46 0 1.906-2.611 2.765-5.716 2.674-3.509-.104-6.189-1.543-6.577-3.15-.378-.058-1.357-.03-1.591-.03-.004 2.062 2.257 4.85 8.708 5.099 7.597.292 10.126-2.806 10.126-4.905 0-6.863-13.026-3.775-12.893-7.549.063-1.787 2.237-2.623 5.722-2.5 2.147.076 4.191.668 5.64 1.83l.949-.973c-1.203-1.312-3.836-2.696-7.67-2.836a20.09 20.09 0 00-.926-.012zm-142.863.484v16.006l11.507-.003c2.118.016 3.752-1.091 4.286-2.241H29.775V52.298h-4.896zm27.748 0l-11.47 16.006 1.426-.003c2.385-.048 3.599-1.145 4.096-1.879l1.12-1.655h9.998l1.085 1.602c1.04 1.573 3.016 1.932 4.105 1.932l2.41.003-11.092-16.006h-1.678zm35.349 0v2.2h6.615v13.806h4.897V54.498l2.932-.002c2.112.048 3.857-1.247 4.223-2.197H87.976zm27.182 0l-11.469 16.006 1.426-.003c2.385-.048 3.598-1.145 4.096-1.879l1.121-1.655h9.997l1.085 1.602c1.04 1.573 3.015 1.932 4.104 1.932l2.411.003-11.093-16.006h-1.678zm15.546 0v16.006l11.508-.003c2.117.016 3.75-1.091 4.286-2.241H135.6V52.298h-4.896zm23.426 3.663l-4.898.028.001 12.312h4.896l.001-12.34zm-101.4 1.506l3.594 5.191h-7.087l3.493-5.191zm62.532 0l3.594 5.191h-7.087l3.493-5.191z" fill="#003A80"/><path fill-rule="evenodd" clip-rule="evenodd" d="M96.02 30.445c-46.907-.184-84.21 11.283-84.21 26.234 0 5.396 4.288 8.154 4.288 4.189 0-14.433 35.453-28.2 86.444-27.186 23.542.468 42.747 2.363 57.015 5.771 3.168.757 3.971.495 1.09-.396-15.807-4.887-36.896-8.098-60.058-8.558a286.6 286.6 0 00-4.568-.054zm90.947 24.34c-.575.05-.994.634-.994 1.873 0 14.432-35.453 28.198-86.445 27.185-23.541-.468-42.746-2.363-57.014-5.771-3.168-.757-3.97-.494-1.09.397 15.808 4.886 36.897 8.097 60.058 8.557 49.032.974 88.778-10.747 88.778-26.18 0-3.71-2.026-6.173-3.293-6.061z" fill="#84D0F0"/></svg>