<svg width="202" height="118" fill="none" xmlns="http://www.w3.org/2000/svg"><g clip-path="url(#clip0_558_19410)"><mask id="a" style="mask-type:luminance" maskUnits="userSpaceOnUse" x="7" y="42" width="188" height="35"><path d="M195 42H7v35h188V42z" fill="#fff"/></mask><g mask="url(#a)" fill="#E30613"><path d="M107.371 71.13V47.872h14.601v5.402h-8.512v17.858h-6.089zm32.971 0v-9.11h-9.045v9.11h-6.088V47.87h6.088v8.68h9.045v-8.68h6.089v23.26h-6.089zm41.421 0V53.275h-7.111V47.87h20.349v5.402h-7.146V71.13h-6.092zm-16.07-.004V57.873l-9.692 13.253h-5.091V47.873h6.089v13.115l9.529-13.115h5.256v23.253h-6.091zm-93.31.004V57.307l-6.08 7.302-6.078-7.302V71.13h-6.088V47.87h6.008l6.159 7.998 6.158-7.998h6.009v23.26h-6.088zm17.647-8.18h5.658l-2.83-7.294-2.829 7.293zm8.83 8.177l-1.273-3.26H88.12l-1.274 3.26h-6.12L90.09 47.87h5.63l9.366 23.257h-6.225zM6.994 52.596a10.65 10.65 0 013.094-7.487A10.528 10.528 0 0117.533 42h24.331v5.386H17.54a5.19 5.19 0 00-3.658 1.533 5.251 5.251 0 00-1.526 3.678l-.032 9.042a5.281 5.281 0 01-1.392 3.097 5.23 5.23 0 01-2.982 1.597l-.956.148V52.597zM6.996 77v-5.386h24.331a5.195 5.195 0 003.658-1.535 5.255 5.255 0 001.526-3.679v-8.58a5.266 5.266 0 011.26-3.392 5.211 5.211 0 013.143-1.764l.956-.145V66.4a10.653 10.653 0 01-3.094 7.489A10.531 10.531 0 0131.33 77H6.996z"/><path d="M27.608 66.5v-6.963l-3.173 3.81-3.17-3.81V66.5h-4.203V52.8h3.98l3.393 4.406 3.393-4.406h3.98v13.7h-4.2z"/></g></g><defs><clipPath id="clip0_558_19410"><path fill="#fff" transform="translate(7 42)" d="M0 0h188v35H0z"/></clipPath></defs></svg>