<svg width="50" height="50" fill="none" xmlns="http://www.w3.org/2000/svg"><mask id="d" style="mask-type:luminance" maskUnits="userSpaceOnUse" x="0" y="0" width="50" height="50"><mask id="c" style="mask-type:luminance" maskUnits="userSpaceOnUse" x="0" y="0" width="50" height="50"><mask id="b" style="mask-type:luminance" maskUnits="userSpaceOnUse" x="0" y="0" width="50" height="50"><mask id="a" style="mask-type:luminance" maskUnits="userSpaceOnUse" x="0" y="0" width="50" height="50"><path d="M50 0H0v50h50V0z" fill="#fff"/></mask><g mask="url(#a)"><path d="M25 50c13.807 0 25-11.193 25-25S38.807 0 25 0 0 11.193 0 25s11.193 25 25 25z" fill="#fff"/></g></mask><g mask="url(#b)"><path d="M-118.5-637.5h500v1670h-500v-1670z" fill="#fff"/></g></mask><g mask="url(#c)"><path d="M153-148H0V50h153v-198z" fill="#fff"/></g></mask><g mask="url(#d)"><path d="M52.5-2.5h-55v55h55v-55z" fill="#DF0016"/></g><mask id="f" style="mask-type:luminance" maskUnits="userSpaceOnUse" x="9" y="13" width="15" height="23"><mask id="e" style="mask-type:luminance" maskUnits="userSpaceOnUse" x="0" y="0" width="50" height="50"><path d="M50 0H0v50h50V0z" fill="#fff"/></mask><g mask="url(#e)"><path d="M13.972 13.217v8.505c1.295-1.542 2.845-2.32 4.645-2.32.927 0 1.757.178 2.502.528.748.35 1.305.797 1.683 1.34.38.55.635 1.15.772 1.813.138.66.208 1.684.208 3.077v9.092h-4.023v-8.19c0-1.625-.072-2.655-.225-3.092a1.991 1.991 0 00-.807-1.04c-.388-.262-.87-.39-1.453-.39-.665 0-1.265.168-1.785.498-.53.332-.912.832-1.155 1.497-.245.668-.367 1.65-.362 2.955l-.005 7.765H9.949V13.22h4.023" fill="#fff"/></g></mask><g mask="url(#f)"><path d="M26.278 10.717H7.445v27.035h18.833V10.717z" fill="#fff"/></g><mask id="h" style="mask-type:luminance" maskUnits="userSpaceOnUse" x="25" y="13" width="15" height="23"><mask id="g" style="mask-type:luminance" maskUnits="userSpaceOnUse" x="0" y="0" width="50" height="50"><path d="M50 0H0v50h50V0z" fill="#fff"/></mask><g mask="url(#g)"><path d="M29.81 13.217v8.505c1.294-1.542 2.844-2.32 4.644-2.32.923 0 1.76.178 2.505.528.743.35 1.303.797 1.678 1.34.38.55.637 1.15.772 1.813.138.66.208 1.684.208 3.077v9.092h-4.018v-8.19c0-1.625-.075-2.655-.23-3.092a1.971 1.971 0 00-.81-1.04c-.382-.262-.87-.39-1.452-.39a3.28 3.28 0 00-1.785.498c-.525.332-.908.832-1.153 1.497-.24.668-.362 1.65-.362 2.955v7.765h-4.018V13.22h4.018" fill="#fff"/></g></mask><g mask="url(#h)"><path d="M42.113 10.717H23.285v27.035h18.828V10.717z" fill="#fff"/></g></svg>