<svg width="132" height="87" viewBox="0 0 132 87" fill="none" xmlns="http://www.w3.org/2000/svg">
<path d="M34.578 11.7196C30.19 12.5259 30.6191 15.2507 30.9098 17.0441C31.0482 17.8782 31.2005 18.8236 31.1451 19.9914C31.1451 20.1026 31.1451 20.1999 31.1313 20.2972C31.0482 20.2416 30.9513 20.1999 30.8683 20.1443C30.2454 19.7828 29.4702 19.338 28.5566 18.9348C27.56 18.4899 26.6879 18.2675 25.8989 18.2675C21.9954 18.2675 21.3033 23.0777 20.7357 26.9425C20.6527 27.5125 20.5696 27.9295 20.4866 28.2493C20.2374 27.9991 19.9744 27.721 19.7668 27.4986C19.4069 27.1232 19.047 26.7339 18.6594 26.3725C17.8012 25.5662 16.9568 25.3993 16.3893 25.3993C15.7802 25.3993 14.8943 25.594 14.0499 26.4976C12.4996 28.1798 11.9736 31.3912 12.1535 33.685C12.195 34.1577 12.1535 34.2689 10.9631 34.9501C9.80033 35.6175 7.69631 36.8409 8.16695 39.7603H3.16988C2.29782 39.7603 1.49496 40.1218 0.92743 40.6918C0.359897 41.2757 0 42.0681 0 42.9578C0 44.7234 1.41191 46.1553 3.16988 46.1553H8.18078C8.18078 55.6088 13.3855 65.6879 22.12 73.1117C29.5671 79.4511 43.2294 87 66 87C88.7706 87 102.433 79.4511 109.88 73.1117C118.601 65.6879 123.805 55.6088 123.805 46.1553H128.816C129.702 46.1553 130.491 45.7939 131.073 45.2239C131.64 44.64 132 43.8475 132 42.9578C132 41.1922 130.574 39.7603 128.816 39.7603H122.241C123.003 35.9789 120.594 33.5043 118.033 31.3912C118.656 31.0714 119.237 30.5709 119.597 29.7507C120.539 27.582 119.431 26.3308 118.767 25.58C118.296 25.0518 117.867 24.5513 117.576 23.4947C117.092 21.6457 116.151 20.7004 114.78 20.7004C113.922 20.7004 113.216 21.1313 112.607 21.5206C112.122 21.8265 111.624 22.1323 111.167 22.174C110.987 22.174 110.807 22.2018 110.641 22.2018C109.548 22.2018 108.98 21.9933 106.932 19.6021C105.935 18.4482 105.146 17.628 104.385 16.8356C103.36 15.779 102.405 14.778 101.062 13.0959C100.177 11.9698 99.0554 10.8298 97.422 10.8298C96.0931 10.8298 95.0273 11.5944 93.6846 12.5537C93.1032 12.9708 92.4526 13.4295 91.6774 13.93C90.5977 14.6112 90.0717 14.6946 89.8918 14.6946C89.5873 14.6946 89.255 14.2637 88.6045 13.36C88.3414 12.9986 88.0508 12.5815 87.7185 12.1783C86.0298 10.1486 84.2718 8.04938 80.4513 6.97891C80.0776 6.8677 79.7039 6.82599 79.344 6.82599C76.8247 6.82599 75.8834 9.21715 75.2467 10.7881C75.039 11.3303 74.7483 12.0671 74.4576 12.4981C74.25 11.4971 74.2223 9.70373 74.2085 8.74448C74.2085 8.06327 74.1946 7.40988 74.1531 6.82599C73.9732 3.97604 72.1598 3.48945 70.8448 3.14189C69.8897 2.89165 68.6854 2.57191 67.0382 1.39022C65.6678 0.417066 64.6988 0 63.7991 0C61.2106 0 61.0721 2.79434 61.0029 4.29578C60.9614 5.11601 60.9199 6.04746 60.7122 6.83988C60.6154 7.20134 60.5185 7.32645 60.4908 7.35426C60.4908 7.35426 60.4492 7.35426 60.4077 7.35426C59.8125 7.35426 58.4836 6.78427 56.518 5.18552C55.7013 4.51821 54.6908 3.837 53.4589 3.837C52.5176 3.837 51.784 4.21238 51.0227 4.61554C50.1367 5.08822 49.0155 5.65821 46.9392 6.04747C42.7311 6.83989 41.8314 8.34132 41.1116 10.2042C40.8486 10.8993 40.6133 11.4971 39.8658 12.1922C39.6028 12.4425 39.409 12.5815 39.2844 12.6649C39.2429 12.6371 39.1875 12.6093 39.146 12.5815C38.5508 12.22 37.5541 11.5944 35.9346 11.5944C35.5055 11.5944 35.0487 11.6362 34.578 11.7196ZM66 85.1927C62.1657 85.1927 58.5667 84.9703 55.1615 84.5671C54.6493 84.4142 54.151 84.2474 53.6665 84.0805C54.6632 84.0805 55.646 84.0805 56.6426 84.0805C60.7538 84.0249 64.8511 83.8998 68.9484 83.6635C73.0457 83.3993 77.143 83.1213 81.185 82.3706C77.1154 82.8849 73.018 82.9545 68.9346 82.9823C64.8511 82.9823 60.7538 82.885 56.6703 82.7042C54.0956 82.5791 51.521 82.4123 48.9463 82.2315C48.0466 81.8284 47.1607 81.3974 46.3163 80.9386C49.3477 81.0638 52.3653 81.1194 55.3968 81.1333C60.1447 81.1333 64.8926 81.0082 69.6128 80.7301C74.3331 80.4104 79.0948 80.0628 83.7181 79.0062C79.0533 79.8265 74.3054 79.9377 69.599 80.035C64.8788 80.0906 60.1586 79.9794 55.4383 79.743C51.1195 79.5206 46.8008 79.187 42.5096 78.7143C41.7068 78.1999 40.9455 77.6716 40.198 77.1294C44.7383 77.3936 49.2924 77.5465 53.8326 77.5743C59.2727 77.6021 64.6988 77.4909 70.125 77.2268C75.5373 76.907 80.9912 76.6011 86.3205 75.5446C80.9497 76.3648 75.5235 76.4343 70.1112 76.5316C64.6988 76.5733 59.2727 76.4482 53.8742 76.1841C48.4757 75.9199 43.0772 75.5168 37.7064 74.919C37.5818 74.9051 37.4434 74.8912 37.3188 74.8773C36.7928 74.4324 36.2806 73.9736 35.7685 73.5149C35.7961 73.5149 35.8238 73.5149 35.8653 73.5149C41.776 73.8763 47.6867 74.0293 53.5973 74.0571C59.508 74.0849 65.4048 73.9736 71.3016 73.6956C77.1846 73.3897 83.1091 73.0978 88.9228 72.0829C83.0814 72.8615 77.1707 72.9171 71.2878 73.0005C65.4048 73.0422 59.508 72.9171 53.625 72.6668C47.742 72.4166 41.8729 72.0273 36.0315 71.4295C35.1456 71.3461 34.2735 71.2349 33.3876 71.1376C33 70.7205 32.6124 70.3035 32.2525 69.8864C32.7508 69.9142 33.2492 69.9559 33.7475 69.9837C40.1841 70.3452 46.607 70.512 53.0436 70.5259C59.4664 70.5537 65.9031 70.4286 72.3121 70.1783C78.7211 69.8725 85.1577 69.5944 91.5113 68.6352C85.13 69.372 78.7072 69.4137 72.2982 69.4832C65.8893 69.511 59.4664 69.3998 53.0713 69.1357C46.6623 68.8854 40.2672 68.4962 33.8997 67.8984C32.7093 67.7871 31.505 67.662 30.3146 67.523C30.0101 67.1199 29.7055 66.7167 29.401 66.3135C30.2731 66.3691 31.1451 66.4247 32.031 66.4664C38.9383 66.8279 45.8456 66.9669 52.7529 66.9947C59.6602 67.0086 66.5675 66.8974 73.461 66.6333C80.3544 66.3413 87.2617 66.0633 94.0998 65.1457C87.2341 65.8269 80.3268 65.8687 73.4471 65.9382C66.5537 65.966 59.6602 65.8409 52.7806 65.6045C45.901 65.3543 39.0214 64.9789 32.1695 64.395C30.716 64.2699 29.2764 64.1309 27.8368 63.9918C27.5877 63.6026 27.3523 63.2272 27.1309 62.838C28.875 62.9353 30.6053 63.0187 32.3494 63.1021C39.5059 63.408 46.6762 63.5192 53.8326 63.5053C60.9891 63.5053 68.1456 63.3662 75.2882 63.116C82.4308 62.8241 89.5873 62.5599 96.6883 61.7119C89.5596 62.3236 82.4169 62.3653 75.2743 62.4209C68.1317 62.4487 60.9891 62.3375 53.8465 62.1151C46.7039 61.8926 39.5751 61.559 32.4601 61.0168C30.2315 60.85 28.0168 60.6553 25.7882 60.4468C25.5944 60.0853 25.4283 59.7239 25.2483 59.3485C27.4492 59.4597 29.6363 59.5709 31.8372 59.6405C39.3398 59.9046 46.8423 60.0019 54.3448 59.988C61.8473 59.9602 69.336 59.8212 76.8385 59.571C84.3272 59.2929 91.8297 59.0149 99.2768 58.2363C91.802 58.7785 84.3133 58.8202 76.8247 58.8758C69.336 58.8898 61.8473 58.7924 54.3725 58.5978C46.8838 58.3893 39.409 58.0556 31.948 57.5551C29.3595 57.3883 26.771 57.1798 24.1963 56.9573C24.0579 56.5959 23.9056 56.2483 23.781 55.8869C26.4249 56.012 29.0826 56.1093 31.7265 56.1927C39.5336 56.4151 47.3406 56.4986 55.1338 56.4569C62.927 56.4151 70.7341 56.2761 78.5273 56.0259C86.3205 55.7478 94.1137 55.4837 101.879 54.7747C94.0998 55.2613 86.3066 55.303 78.5134 55.3308C70.7202 55.3308 62.9409 55.2613 55.1476 55.0666C47.3683 54.872 39.5889 54.5662 31.8234 54.1074C28.875 53.9267 25.9266 53.7181 22.992 53.4957C22.8813 53.1342 22.7844 52.7728 22.6875 52.4113C25.1791 52.5086 27.6707 52.6059 30.1623 52.6755C38.4262 52.8979 46.69 52.9674 54.9539 52.9396C63.2177 52.8979 71.4677 52.7589 79.7315 52.5086C87.9815 52.2445 96.2454 51.9804 104.468 51.313C96.2177 51.744 87.9677 51.7857 79.7177 51.8135C71.4677 51.8135 63.2177 51.744 54.9677 51.5494C46.7177 51.3547 38.4815 51.0489 30.2454 50.5901C27.5461 50.4372 24.8469 50.2565 22.1477 50.0757C22.12 49.9089 22.0923 49.756 22.0646 49.5892C29.3041 49.7004 62.6363 49.6448 62.6363 49.6448C68.9207 49.5058 75.219 49.4919 81.5034 49.2277L100.37 48.5743C106.655 48.185 112.953 47.9487 119.237 47.4204C119.307 47.4204 119.376 47.3509 119.376 47.2814C119.376 47.198 119.32 47.1424 119.237 47.1424L21.7878 47.0451C21.7739 46.7531 21.7601 46.4612 21.7601 46.1831H122.034C122.034 62.3236 105.257 85.2205 66.0277 85.2205L66 85.1927ZM130.201 42.9578C130.201 43.4305 129.979 43.7641 129.813 43.931C129.619 44.1256 129.287 44.348 128.816 44.348H50.7043C49.9291 43.5 50.026 42.36 50.4136 41.5676H128.816C129.578 41.5676 130.201 42.1932 130.201 42.9578ZM39.2705 14.5417C39.7135 14.5417 40.2534 14.2776 41.0839 13.4991C43.9077 10.8298 41.6099 8.8835 47.2575 7.81303C51.2303 7.07622 52.2269 5.6304 53.4589 5.6304C53.9849 5.6304 54.5386 5.89453 55.383 6.57574C57.0856 7.96596 58.982 9.14765 60.4077 9.14765C61.3628 9.14765 62.0965 8.61938 62.4564 7.28476C63.1208 4.74066 62.3872 1.79338 63.7991 1.79338C64.2559 1.79338 64.948 2.11314 66 2.84996C70.2357 5.86673 72.1737 4.08724 72.3536 6.92329C72.5197 9.56471 72.0768 14.6529 74.1254 14.6529C74.2777 14.6529 74.4576 14.6251 74.6514 14.5556C77.1154 13.7354 76.8247 8.60547 79.3301 8.60547C79.5239 8.60547 79.7177 8.63326 79.953 8.70277C83.1367 9.59251 84.5487 11.1913 86.3205 13.3183C87.5524 14.8059 88.2307 16.488 89.8918 16.488C90.5977 16.488 91.4698 16.1822 92.6326 15.4454C95.0826 13.8883 96.2869 12.6232 97.422 12.6232C98.1003 12.6232 98.7647 13.082 99.6506 14.2081C102.045 17.2248 103.277 18.1146 105.575 20.7699C107.651 23.1889 108.703 23.9952 110.655 23.9952C110.863 23.9952 111.084 23.9952 111.306 23.9674C112.884 23.8423 113.977 22.5077 114.794 22.5077C115.223 22.5077 115.555 22.8691 115.846 23.9674C116.704 27.1649 118.836 26.9842 117.95 29.0278C117.064 31.0575 112.524 29.278 115.846 31.9473C119.182 34.6165 121.245 36.5628 120.4 39.7603H9.98028C9.09438 36.0345 14.216 37.0911 13.953 33.546C13.7315 30.6127 14.8389 27.1927 16.4031 27.1927C16.7353 27.1927 17.0814 27.3456 17.4413 27.6932C18.6594 28.8332 19.8914 30.571 20.888 30.571C21.5801 30.571 22.1615 29.7229 22.5214 27.2066C23.2135 22.4243 23.9195 20.0748 25.8989 20.0748C26.4388 20.0748 27.0617 20.2416 27.823 20.5892C29.8163 21.4928 31.1451 22.5772 31.948 22.5772C32.5709 22.5772 32.8754 21.9377 32.9446 20.0748C33.1246 15.8068 31.0067 14.2081 34.8964 13.4991C35.284 13.4295 35.63 13.4017 35.9346 13.4017C37.8171 13.4017 38.3431 14.5417 39.2705 14.5417ZM36.5436 27.2066C37.9971 28.2215 39.5059 29.278 40.5302 28.9305C41.4992 28.6107 42.0252 29 42.2605 29.2502C42.9664 30.0566 42.6342 31.558 42.0944 32.6841C41.3746 34.1855 39.935 35.7565 38.0386 35.7565C37.9832 35.7565 37.9279 35.7565 37.8725 35.7565C37.5264 35.7426 37.2634 35.4506 37.2773 35.1031C37.2911 34.7555 37.5818 34.4914 37.9279 34.5053C39.3259 34.5609 40.4195 33.268 40.9732 32.1419C41.513 31.0297 41.4576 30.2373 41.3192 30.0705C41.2915 30.0427 41.1669 30.0288 40.9178 30.0983C39.2982 30.6405 37.5264 29.4032 35.8238 28.2215C34.1074 27.0259 32.4878 25.8859 31.3251 26.6088C30.8129 26.9286 30.2869 27.2205 29.7886 27.5125C27.5461 28.7637 25.6082 29.848 24.5285 33.5321C24.4316 33.8658 24.0856 34.0465 23.7534 33.9492C23.4211 33.8519 23.2412 33.5043 23.3381 33.1707C24.5701 29 26.9232 27.6793 29.1934 26.4003C29.6778 26.1223 30.1762 25.8442 30.6745 25.5383C32.5294 24.3845 34.6611 25.872 36.5436 27.1927V27.2066ZM77.0323 33.0177C79.4132 33.6294 82.1263 34.3245 81.9878 36.3821C81.9601 36.7296 81.6556 36.9799 81.3234 36.966C80.9773 36.9382 80.7143 36.6462 80.742 36.2987C80.8112 35.2838 78.5411 34.6999 76.7139 34.2272C74.5961 33.685 72.6028 33.1707 72.2706 31.7943C72.1875 31.4468 71.9383 31.1966 71.4954 31.0297C70.0696 30.4736 67.3012 31.0019 65.5709 32.1697C62.8578 33.9909 62.0411 33.9909 58.7882 32.1975C57.8746 31.697 56.5457 31.2105 55.4107 31.7665C54.2341 32.3504 53.3897 33.9631 52.9883 36.4377L52.7529 37.9252L51.867 36.7157C51.2164 35.826 49.583 35.1726 47.9773 35.1587C47.0361 35.1309 45.4165 35.3533 44.3922 36.7157C44.1846 36.9938 43.797 37.0494 43.5201 36.8408C43.2433 36.6323 43.1879 36.243 43.3956 35.965C44.3922 34.6304 45.9979 33.9075 47.9358 33.9075H47.9912C49.5 33.9075 50.9673 34.3802 51.9916 35.1031C52.5315 32.8092 53.5004 31.3078 54.8708 30.6405C56.1581 30.0149 57.7223 30.1678 59.3972 31.0992C62.2211 32.6702 62.581 32.6702 64.8788 31.127C66.969 29.7229 70.1388 29.1529 71.9522 29.8619C72.7827 30.1817 73.3087 30.7517 73.4887 31.5024C73.6409 32.1419 75.5927 32.6424 77.0185 33.0177H77.0323ZM45.7903 30.3763C44.4891 26.2891 44.4337 23.9674 45.5965 23.0638C46.2609 22.5494 47.2022 22.5911 48.4065 23.1611C48.531 21.3816 49.4862 19.9219 51.1195 19.0599C52.6422 18.2536 54.4971 18.1563 55.5214 18.7819C55.7152 18.1702 56.0336 17.1414 57.0994 16.627C58.1653 16.1127 59.7156 16.2517 61.8058 17.0858C64.4635 18.1424 66.706 18.1841 68.3393 18.2119C69.8343 18.2397 71.0109 18.2675 71.7307 19.0738C72.2567 19.6716 72.4228 20.5753 72.2706 21.9933C72.0352 24.2733 72.9765 24.5652 73.8763 24.8571C74.3607 25.0101 74.9006 25.1908 75.0667 25.7469C75.2328 26.3169 74.8591 26.9286 74.25 27.6376C74.0285 27.9017 73.6271 27.9295 73.3779 27.7071C73.1149 27.4847 73.0872 27.0954 73.3087 26.8313C73.5994 26.4837 73.7378 26.2613 73.807 26.15C73.7102 26.1222 73.5994 26.0805 73.5025 26.0527C72.5197 25.733 70.7064 25.1491 71.0386 21.8682C71.1493 20.8533 71.0663 20.1999 70.8033 19.908C70.4572 19.5187 69.5159 19.4909 68.3255 19.477C66.5952 19.4492 64.2282 19.3936 61.3628 18.2536C59.6602 17.5724 58.3729 17.4056 57.6531 17.7531C57.0717 18.0312 56.8918 18.629 56.7257 19.1572C56.5872 19.616 56.435 20.0887 55.9505 20.2277C55.4799 20.3667 55.1061 20.0331 54.9815 19.9219C54.5386 19.5326 53.0852 19.4492 51.7148 20.1721C50.8427 20.6309 49.417 21.7709 49.6938 24.1759L49.8461 25.4827L48.7387 24.7737C47.6175 24.0508 46.7315 23.7867 46.3716 24.0508C46.2055 24.1898 45.4304 25.0935 46.9807 29.9871C47.0914 30.3207 46.9115 30.6683 46.5793 30.7795C46.5101 30.7934 46.4547 30.8073 46.3855 30.8073C46.1225 30.8073 45.8733 30.6405 45.7903 30.3763ZM77.6414 30.1678C77.3783 29.9453 77.3645 29.5422 77.586 29.278C79.4408 27.1649 81.3788 28.1381 82.9291 28.9166C84.3825 29.6534 85.6284 30.279 87.0403 29.1946C87.8154 28.5968 88.4799 28.3883 89.1028 28.5412C90.0579 28.7776 90.5424 29.7924 90.9992 30.7795C91.8159 32.5312 92.2865 33.1985 93.6707 32.6007C97.3251 31.0158 100.384 34.408 101.492 36.4238C101.658 36.7296 101.547 37.105 101.242 37.2718C101.146 37.3274 101.049 37.3552 100.938 37.3552C100.716 37.3552 100.509 37.244 100.398 37.0355C100.287 36.8408 97.6988 32.2253 94.169 33.7546C91.5529 34.8806 90.5424 32.7397 89.8779 31.3217C89.5596 30.6405 89.1997 29.8619 88.8121 29.7646C88.5906 29.709 88.2307 29.8619 87.8016 30.1956C85.7668 31.7665 83.8842 30.8073 82.3616 30.0427C80.6867 29.1946 79.6762 28.7776 78.5134 30.1122C78.292 30.3763 77.8905 30.4041 77.6275 30.1678H77.6414ZM82.5969 21.034C84.4102 19.616 88.0508 21.0062 89.6149 21.604C90.1963 21.8265 90.8192 21.6179 91.6082 21.3677C93.0617 20.895 95.0411 20.2555 97.5881 21.6874C103.679 25.1213 104.468 26.6783 104.537 27.5542C104.565 27.9434 104.44 28.291 104.177 28.5829C104.371 28.6663 104.62 28.7637 104.814 28.8332C105.769 29.2085 106.862 29.6256 107.056 30.5431C107.167 31.0853 106.945 31.6414 106.392 32.1975C106.115 32.4756 106.087 32.6146 106.087 32.6146C106.226 32.7258 107.125 32.9204 107.665 33.0316C108.745 33.268 109.755 33.4904 110.157 34.1716C110.323 34.4636 110.365 34.7972 110.268 35.1448C110.185 35.4089 109.935 35.5897 109.672 35.5897C109.617 35.5897 109.548 35.5896 109.492 35.5618C109.16 35.4645 108.98 35.117 109.077 34.7833C108.953 34.5887 107.942 34.3802 107.416 34.255C106.253 34.0048 105.146 33.7685 104.897 32.9065C104.675 32.1558 105.312 31.5163 105.52 31.3078C105.824 31.0019 105.866 30.8351 105.852 30.7934C105.797 30.5292 104.8 30.1539 104.385 29.9871C103.554 29.6673 102.848 29.3893 102.751 28.7498C102.71 28.4995 102.765 28.1242 103.236 27.7627C103.333 27.6932 103.319 27.6515 103.319 27.6237C103.305 27.4012 102.917 26.0944 97.0067 22.7579C94.9442 21.5901 93.3939 22.1045 92.0235 22.5355C91.0822 22.8413 90.1963 23.1333 89.3104 22.7996C88.0784 22.3269 84.6456 21.0201 83.3859 22.0072C82.9706 22.3408 82.8045 22.9665 82.9014 23.884C82.943 24.2316 82.6938 24.5374 82.3477 24.5791C82.0017 24.6069 81.6971 24.3706 81.6556 24.023C81.5034 22.6467 81.8217 21.6318 82.6107 21.0201L82.5969 21.034ZM38.8968 24.1481C38.2462 22.0489 38.3431 20.3945 39.1875 19.2406C40.0457 18.0729 41.6376 17.4751 43.9077 17.4751C44.2538 17.4751 44.5306 17.7531 44.5306 18.1007C44.5306 18.4482 44.2538 18.7263 43.9077 18.7263C42.0529 18.7263 40.807 19.1433 40.1841 19.9775C39.5889 20.7838 39.5474 22.0628 40.0734 23.7728C40.1703 24.1064 39.9904 24.454 39.6581 24.5513C39.6028 24.5652 39.5336 24.5791 39.4782 24.5791C39.2152 24.5791 38.966 24.4123 38.883 24.1342L38.8968 24.1481ZM52.31 15.1256C52.5453 14.0134 52.919 13.3322 53.4866 12.9847C54.151 12.5676 54.8847 12.7761 55.5214 12.9429C56.435 13.1932 56.9748 13.2905 57.57 12.5537C59.1342 10.5935 63.1208 11.5249 65.211 12.3869C66.2076 12.8039 68.5331 13.9022 68.3947 15.3063C68.3532 15.6539 68.0487 15.8902 67.7164 15.8624C67.3704 15.8346 67.1212 15.5149 67.1628 15.1812C67.1489 14.8754 66 13.9161 63.8683 13.221C61.4182 12.4147 59.2311 12.4703 58.539 13.3322C57.4039 14.7502 56.0751 14.3888 55.203 14.1525C54.7462 14.0273 54.3586 13.93 54.1372 14.0551C53.9987 14.1385 53.7496 14.4166 53.542 15.3898C53.4727 15.6817 53.2236 15.8763 52.9329 15.8763C52.8914 15.8763 52.8498 15.8763 52.7945 15.8624C52.4622 15.7929 52.2408 15.4592 52.3238 15.1117L52.31 15.1256ZM33.8305 32.0446C33.8305 32.7814 33.2353 33.3792 32.5017 33.3792C31.768 33.3792 31.1728 32.7814 31.1728 32.0446C31.1728 31.3078 31.768 30.71 32.5017 30.71C33.2353 30.71 33.8305 31.3078 33.8305 32.0446ZM67.3289 25.024C66.6921 25.024 66.1799 24.5096 66.1799 23.8701C66.1799 23.2306 66.6921 22.7162 67.3289 22.7162C67.9656 22.7162 68.4778 23.2306 68.4778 23.8701C68.4778 24.5096 67.9656 25.024 67.3289 25.024ZM81.0189 13.221C81.0189 12.5815 81.531 12.0671 82.1678 12.0671C82.8045 12.0671 83.3167 12.5815 83.3167 13.221C83.3167 13.8605 82.8045 14.3749 82.1678 14.3749C81.531 14.3749 81.0189 13.8605 81.0189 13.221ZM55.3138 27.5125C54.677 27.5125 54.1648 26.9981 54.1648 26.3586C54.1648 25.7191 54.677 25.2047 55.3138 25.2047C55.9505 25.2047 56.4627 25.7191 56.4627 26.3586C56.4627 26.9981 55.9505 27.5125 55.3138 27.5125ZM97.2697 25.8303C97.2697 26.8591 96.4392 27.6932 95.4148 27.6932C94.3905 27.6932 93.56 26.8591 93.56 25.8303C93.56 24.8015 94.3905 23.9674 95.4148 23.9674C96.4392 23.9674 97.2697 24.8015 97.2697 25.8303ZM21.4694 36.2152C21.4694 37.0911 20.7634 37.814 19.8775 37.814C18.9916 37.814 18.2857 37.105 18.2857 36.2152C18.2857 35.3255 18.9916 34.6165 19.8775 34.6165C20.7634 34.6165 21.4694 35.3255 21.4694 36.2152ZM113.008 36.1179C113.008 35.1865 113.756 34.4358 114.683 34.4358C115.611 34.4358 116.358 35.1865 116.358 36.1179C116.358 37.0494 115.611 37.8001 114.683 37.8001C113.756 37.8001 113.008 37.0494 113.008 36.1179ZM110.005 27.0676C110.005 26.8174 110.198 26.6227 110.448 26.6227C110.697 26.6227 110.891 26.8174 110.891 27.0676C110.891 27.3178 110.697 27.5125 110.448 27.5125C110.198 27.5125 110.005 27.3178 110.005 27.0676ZM98.8616 18.4621C98.8616 17.9755 99.263 17.5724 99.7475 17.5724C100.232 17.5724 100.633 17.9755 100.633 18.4621C100.633 18.9487 100.232 19.3519 99.7475 19.3519C99.263 19.3519 98.8616 18.9487 98.8616 18.4621ZM98.0172 76.8792C97.9341 76.7124 97.9895 76.5038 98.1695 76.4065C113.991 68.1764 118.919 57.0407 120.262 49.1582C120.289 48.9636 120.469 48.8385 120.663 48.8802C120.857 48.908 120.982 49.0887 120.94 49.2833C119.57 57.3327 114.559 68.6769 98.4878 77.0321C98.4325 77.0599 98.3771 77.0738 98.3217 77.0738C98.1972 77.0738 98.0726 77.0043 98.0172 76.8931V76.8792Z" fill="#424E67"/>
</svg>
