<svg width="192" height="109" viewBox="0 0 192 109" fill="none" xmlns="http://www.w3.org/2000/svg">
<path d="M56.3188 19.6503C53.4454 23.7229 48.1323 25.2245 47.9913 20.3848C47.6877 10.0466 37.5061 21.4435 45.2264 11.3429C47.3082 8.63142 48.913 8.63141 53.608 7.55113C58.3031 6.46005 53.7382 13.0498 58.1838 14.0544C62.6186 15.0591 59.1922 15.5668 56.3188 19.6503ZM174.801 67.5065C174.486 68.5544 176.644 70.4989 177.36 68.5004C176.959 67.6686 175.918 67.3769 174.801 67.5065ZM191.174 90.322C190.469 91.2079 188.561 93.2279 185.731 93.4332C184.809 94.2218 183.681 94.5351 182.532 94.5351C181.09 94.5351 179.604 94.049 178.433 93.4116C177.837 93.0983 177.23 92.6986 176.698 92.2341C173.153 88.1615 168.599 84.845 163.101 82.3064C158.417 80.5239 155.565 77.1426 154.416 72.0005C154.405 71.9357 154.383 71.8493 154.372 71.7736C151.445 68.5976 147.856 65.1731 145.655 64.1793C143.497 63.2178 142.532 63.7256 141.816 64.1037C141.719 64.1577 141.632 64.2009 141.545 64.2441C141.025 64.471 140.114 66.1022 139.507 67.1825C138.899 68.2735 138.325 69.2998 137.783 69.8292C137.718 69.894 137.631 69.948 137.555 70.0128C137.956 71.7088 138.477 73.6425 138.986 75.5438C139.409 77.1426 139.854 78.8062 140.211 80.243C140.45 81.1721 140.569 82.0039 140.548 82.7169C140.493 84.9962 142.25 87.8806 143.952 90.6677C145.557 93.3036 147.086 95.799 147.129 97.7975L151.13 103.458C151.185 103.545 151.195 103.653 151.152 103.739C151.109 103.825 151.011 103.879 150.914 103.879H142.402C142.315 103.879 142.239 103.836 142.185 103.771C142.131 103.707 142.12 103.62 142.142 103.534C142.142 103.534 142.304 102.918 142.369 102.194C142.445 101.319 142.369 100.217 141.567 99.8609C140.537 99.4179 139.767 98.3917 139.507 97.1169C138.249 91.3807 135.625 87.5025 133.51 84.3913C133.109 83.7971 132.719 83.2246 132.35 82.6628C132.329 82.6412 132.318 82.6196 132.307 82.598C131.624 81.5501 130.811 80.6751 129.824 79.9081C125.812 76.8077 125.573 72.8755 125.671 71.2335C124.196 71.2875 122.873 71.4172 121.681 71.644C118.048 72.3678 115.966 70.0776 113.96 67.863C113.245 67.0744 112.497 66.275 111.662 65.562C111.282 66.275 110.914 66.988 110.567 67.6902C109.146 70.5421 108.062 73.1024 107.531 74.8848C106.891 76.9806 106.598 78.601 106.349 80.0162C106.132 81.2045 105.947 82.2307 105.611 83.3002C105.384 84.0024 105.145 84.5965 104.863 85.1907C104.299 86.3466 103.529 87.5349 102.423 88.9068C100.862 92.3961 100.352 95.8206 99.9838 98.3377C99.7127 100.196 99.5067 101.535 99.0079 102.356C98.8127 102.67 98.8127 102.896 99.0079 103.264C99.1922 103.631 99.5392 104.063 99.9404 104.56C100.634 105.413 101.502 106.483 102.207 108.006C102.304 108.222 102.293 108.481 102.163 108.676C102.033 108.881 101.805 109 101.567 109H94.8442C93.9767 109 93.1743 108.73 92.5237 108.211C91.8732 107.671 91.4611 106.937 91.331 106.083C91.1467 104.787 90.8105 103.696 90.366 102.896C89.8997 102.075 89.8347 101.071 90.1816 100.153C90.9732 98.1 91.7647 96.2959 92.5237 94.5567C92.9466 93.606 93.3478 92.6878 93.7056 91.8128C94.9743 88.7448 95.7875 86.1629 95.6248 83.5271C95.5164 81.5826 96.0369 79.2708 96.6333 76.5917C96.861 75.5654 97.1104 74.496 97.3272 73.3725C97.9127 70.4341 98.4983 66.5343 97.8585 62.3644C97.8477 62.2564 97.8152 62.1592 97.8043 62.0511C83.73 58.8319 71.2822 70.931 57.5983 64.1901C57.5658 64.2549 57.5332 64.3089 57.4899 64.363C56.6549 65.2704 55.5598 66.113 54.302 66.8692C54.0526 67.7766 53.6406 68.63 53.1635 69.5807C52.3069 71.2659 51.2443 73.3725 50.7888 76.851C50.1166 81.8526 51.5587 90.0951 54.4538 97.8623C54.8225 98.2188 60.1681 103.372 60.1681 103.372C60.2548 103.458 60.2765 103.577 60.2331 103.696C60.1898 103.804 60.0813 103.879 59.9621 103.879L49.5202 103.836C48.9347 103.836 48.36 103.642 47.8721 103.285C47.2974 102.896 46.8528 102.313 46.636 101.633C46.5058 101.211 46.354 100.812 46.2131 100.466C45.8227 99.4828 45.4215 98.4349 45.3782 97.333C44.977 88.6368 42.4614 80.7508 37.5169 72.8215C37.4627 72.9511 37.4085 73.0808 37.3543 73.1996C37.0615 73.8262 36.4001 74.1503 35.717 74.0422C35.0231 73.9234 34.5134 73.3833 34.4375 72.6811C34.2857 71.2767 34.2749 69.9912 34.4158 68.8569C31.5424 67.8198 29.2654 66.5127 29.1678 66.4587L27.9968 65.7889C27.8775 65.9509 27.7799 66.1022 27.6606 66.2642C26.0667 68.4896 24.1258 70.8554 22.4343 72.9079L20.8187 74.8416C18.8669 77.1642 17.0344 79.3572 15.5489 81.3233C12.7948 84.9746 11.9599 89.6414 11.0816 94.5891C10.6587 96.9225 10.2033 99.4503 9.49851 101.881C9.86718 102.291 10.2142 102.724 10.5394 103.177C11.5478 104.506 12.3611 105.9 12.8056 106.645C12.9466 106.893 13.055 107.066 13.1093 107.142C13.3044 107.347 13.3261 107.617 13.2068 107.877C13.0442 108.255 12.9791 108.395 10.3985 108.395C9.34671 108.395 7.87206 108.373 5.80103 108.33C4.98781 108.319 4.21795 108.049 3.58905 107.563C2.74329 106.947 2.21198 105.943 2.15777 104.83C2.12524 103.728 2.04934 102.54 1.95175 101.287C1.88669 100.574 2.02765 99.8393 2.35294 99.1587C3.28545 97.171 4.31553 93.9733 5.24804 90.16C6.78775 83.9052 8.53348 72.195 8.70697 66.9556C8.75034 65.8429 9.25997 64.7951 10.1274 63.9849C10.637 63.4987 11.1141 63.099 11.5804 62.6993C13.4454 61.1113 14.9092 59.8582 17.4248 54.4352C18.1404 52.9012 18.7368 50.395 19.203 46.9597C19.9946 41.2234 20.2765 33.8451 20.3741 27.8496C20.1464 29.0919 19.8753 30.507 19.5392 32.1491C17.8477 40.4024 15.061 42.725 11.0274 45.3284C7.72025 47.4566 5.94199 51.54 5.37816 54.6945C5.71429 56.4877 5.75766 58.0001 5.05286 59.9122C4.26132 62.0187 1.23611 63.0558 0.88913 63.1638C0.813228 63.1854 0.748173 63.1962 0.672272 63.1962C0.563842 63.1962 0.466251 63.1638 0.368664 63.1206C0.346978 63.1206 0.336136 63.099 0.314449 63.0882C0.227705 63.0342 0.151805 62.9586 0.0867464 62.8722C0.0867464 62.8722 0.075901 62.8722 0.075901 62.8614C0.075901 62.8397 0.0759047 62.829 0.0542186 62.8074C0.0433755 62.7749 0.0216884 62.7533 0.0108454 62.7101C0.0108454 62.6885 0.0108454 62.6669 0.0108454 62.6561C2.31657e-06 62.6129 0 62.5589 0 62.5157C0 62.4724 0 62.4292 0 62.386C0 62.3428 0.0216889 62.2996 0.032532 62.2564C0.043375 62.2132 0.0650603 62.17 0.0867464 62.1376C0.108432 62.1051 0.140961 62.0727 0.162647 62.0403C0.195177 62.0079 0.227704 61.9755 0.271076 61.9431C0.281919 61.9323 0.292763 61.9107 0.314449 61.8999C0.412037 61.8351 1.29032 61.2301 1.03009 58.7023C0.715642 55.7531 2.30957 54.4244 3.06858 53.9599C3.36135 52.3395 4.90106 45.901 11.2551 42.3577C17.8477 38.6739 18.6067 26.6937 18.6067 17.9974C18.6067 14.022 19.897 10.9864 22.4451 8.96629C26.739 5.55261 33.0496 6.38445 33.1038 6.39526C35.4134 6.9354 36.7905 6.29801 38.5362 5.49861C40.4879 4.60198 42.9168 3.47851 47.2432 3.93223C48.1106 4.01865 48.9997 4.06183 49.8889 4.04023C53.6189 3.98621 58.3139 3.60812 63.7571 3.16521C66.5872 2.93835 69.569 2.70068 72.6267 2.48463C77.2893 2.02011 86.3324 1.04786 91.7322 0.464511C94.6454 0.154832 96.1236 0 96.167 0C99.4741 0 110.274 0.583338 120.499 3.26243H120.52C121.247 3.44607 122.082 3.53251 123.047 3.61894C128.154 4.11586 135.874 4.88284 144.852 22.1673C145.72 23.8093 147.303 26.3372 149.07 29.0487C149.168 29.0811 149.244 29.1459 149.265 29.2539C149.265 29.2863 149.265 29.3187 149.265 29.3512C152.442 34.1908 156.194 39.5057 157.669 41.245C159.892 43.8593 163.708 48.5369 166.603 52.1018C167.319 49.8872 168.338 48.5369 169.672 48.0939C171.461 47.4998 173.153 48.7097 174.009 49.4875C174.519 49.952 174.996 50.503 175.451 51.0431C176.926 52.7716 178.314 54.4028 181.274 54.0139C181.599 53.9815 181.892 54.1651 181.99 54.4676C182.087 54.7701 181.968 55.0942 181.686 55.2562C181.567 55.321 179.236 56.6282 176.644 56.6282C176.048 56.6282 175.441 56.5633 174.833 56.3905C173.738 56.0772 172.817 55.483 172.068 54.608C172.112 54.9537 172.264 55.2346 172.329 55.3426C173.532 56.4445 174.074 57.3952 174.606 58.3134C175.072 59.1344 175.506 59.9014 176.416 60.7872C178.574 62.8721 179.951 65.0759 180.504 67.3337C182.857 69.7319 184.657 71.8277 184.896 74.82C184.993 76.1704 186.522 78.6118 187.867 80.7832C188.669 82.0687 189.428 83.2786 189.862 84.2401C189.862 84.2401 189.862 84.2508 189.862 84.2617C190.068 84.7262 190.187 85.0611 190.241 85.3527C190.35 85.9577 190.708 86.325 191.098 86.7139C191.944 87.5889 192.583 88.5179 191.163 90.3004L191.174 90.322ZM176.265 66.2642C174.508 66.2102 172.86 67.1609 173.109 68.9757C173.348 70.8014 177.653 71.1687 178.043 69.6779C178.563 67.6902 178.021 66.329 176.265 66.2642ZM183.681 74.82C181.317 70.2613 178.563 70.5529 179.463 73.1888C180.352 75.8247 183.399 80.8696 185.351 83.1598C186.143 84.0996 188.42 83.1274 186.023 80.5995C183.627 78.0825 186.056 79.3788 183.692 74.8092L183.681 74.82ZM166.159 80.1134C166.408 80.1134 166.614 79.9081 166.625 79.6597C166.625 79.4004 166.419 79.1951 166.17 79.1951C161.963 79.1735 158.482 76.6781 157.701 73.1348C157.647 72.8863 157.409 72.7351 157.148 72.7783C156.899 72.8323 156.736 73.0808 156.79 73.3292C157.658 77.2939 161.507 80.081 166.159 80.1134ZM155.348 50.719C155.739 54.2516 157.604 57.7408 158.905 58.8967C159.761 58.5186 160.867 58.4106 161.355 58.3782C161.149 54.4568 159.393 52.199 155.348 50.719ZM159.523 45.5877C159.458 45.5121 153.136 38.1014 150.274 33.4886C150.198 33.359 150.024 33.3266 149.905 33.4022C149.775 33.4778 149.743 33.6507 149.818 33.7695C152.703 38.4255 159.057 45.8686 159.122 45.9334C159.176 45.9982 159.252 46.0306 159.328 46.0306C159.393 46.0306 159.458 46.009 159.501 45.9658C159.621 45.8686 159.631 45.6958 159.534 45.5877H159.523ZM179.463 54.6621C178.802 54.6621 176.742 54.0031 175.354 52.2854C172.936 49.3039 170.962 48.2776 169.499 49.2283C169.379 49.3039 169.347 49.4659 169.423 49.5847C169.499 49.7036 169.661 49.736 169.78 49.6604C170.995 48.8826 172.73 49.8656 174.953 52.6095C176.416 54.4244 178.618 55.1698 179.463 55.1698C179.474 55.1698 179.485 55.1698 179.507 55.1698C179.648 55.1698 179.756 55.051 179.756 54.9105C179.756 54.7701 179.637 54.6621 179.496 54.6621C179.496 54.6621 179.474 54.6621 179.463 54.6621ZM31.3581 57.1035C31.2171 57.0387 31.0653 57.1035 31.0003 57.2439C28.2353 63.4987 19.0946 74.5392 16.0802 77.8556C15.9827 77.9636 15.9935 78.1365 16.1019 78.2337C16.1561 78.2769 16.2212 78.2985 16.2863 78.2985C16.3622 78.2985 16.4381 78.2661 16.4814 78.2121C19.5175 74.874 28.7016 63.7688 31.4991 57.4492C31.5641 57.3087 31.4991 57.1575 31.3581 57.0927V57.1035ZM3.33966 101.2C3.43725 102.486 3.51315 103.696 3.54568 104.798C3.57821 105.424 3.86013 105.986 4.31554 106.375C5.20467 105.576 7.12388 104.009 8.94552 103.501C8.69613 103.188 8.44674 102.853 8.17566 102.572C8.00217 102.389 7.93711 102.129 8.01301 101.892C8.76118 99.418 9.22744 96.7821 9.65032 94.4487C9.68285 94.265 9.71537 94.0814 9.7479 93.8977C9.2708 93.0983 8.53348 92.8715 7.76363 92.6446C7.21063 92.4826 6.65763 92.3097 6.25644 91.9208C5.389 95.2373 4.48902 97.938 3.61074 99.7852C3.39388 100.25 3.29629 100.725 3.33966 101.2ZM29.8401 65.2812C29.8401 65.2812 31.3364 66.1454 33.3641 66.988C33.993 67.2581 34.6761 67.5173 35.3917 67.755C35.717 67.863 35.923 68.1979 35.858 68.5436C35.6519 69.6671 35.6411 71.0607 35.8038 72.573C35.8038 72.6054 35.8038 72.6703 35.923 72.6919C36.0206 72.7135 36.0423 72.6595 36.0531 72.6271C36.5411 71.6008 36.9206 70.3261 37.1266 69.0405C37.1591 68.8569 37.2567 68.6841 37.4194 68.576C37.582 68.468 37.7772 68.4248 37.9615 68.4572C38.6229 68.5868 39.241 68.6733 39.794 68.7165C40.4554 68.7597 41.1494 68.7705 41.8759 68.7597C42.1144 68.7597 42.3313 68.7597 42.5481 68.7597C42.7325 68.7597 42.9276 68.8245 43.0686 68.9541C43.2096 69.0838 43.2854 69.2674 43.2854 69.4618C43.2854 70.5745 43.4373 71.6332 43.73 72.6271C43.7517 72.7243 43.8168 72.7675 43.9143 72.7675C44.0119 72.7675 44.077 72.7243 44.1095 72.6271C44.3372 71.8385 44.5975 70.6286 44.5758 69.2458C44.5758 68.8893 44.8252 68.5868 45.1721 68.5436C45.7468 68.4572 46.3107 68.36 46.8528 68.2519C47.0371 68.2087 47.2323 68.2519 47.3841 68.3492C47.5468 68.4572 47.6552 68.6192 47.6877 68.8029C47.8612 69.6671 48.1865 70.931 48.7287 71.9789C48.7937 72.1085 48.9347 72.0977 48.9997 72.0869C49.1624 72.0545 49.1732 71.9357 49.1732 71.9033C49.26 70.6501 49.0756 69.289 48.9238 68.3816C48.8696 68.0359 49.0648 67.7118 49.4009 67.6038C51.0925 67.0528 52.6538 66.3182 53.9767 65.4864C54.9092 64.8923 55.7224 64.2549 56.3622 63.5852C53.9875 62.0512 52.3069 59.4477 49.5961 57.7948C41.9518 53.1497 36.4869 57.8057 31.3689 60.6036C31.0111 61.0573 30.6967 61.511 30.4473 61.9755C29.9919 62.8289 29.428 63.7364 28.7991 64.687L29.8726 65.3028L29.8401 65.2812ZM51.1575 93.2928C51.2009 93.4116 51.3093 93.4764 51.4286 93.4764C51.4611 93.4764 51.5045 93.4764 51.537 93.4548C51.6888 93.4008 51.7647 93.228 51.6997 93.0767C49.3792 87.146 48.6744 80.6535 49.7154 74.7876C49.7479 74.6256 49.6395 74.4743 49.4768 74.4527C49.325 74.4311 49.1624 74.5284 49.1407 74.6904C48.0781 80.6535 48.7937 87.2648 51.1575 93.2928ZM86.6577 60.1283C86.636 59.977 86.4842 59.8798 86.3432 59.9122C82.5481 60.5712 79.3928 61.5434 76.617 62.4076C72.2906 63.7472 68.8751 64.8059 64.9173 64.2225C64.7764 64.2009 64.6354 64.2981 64.6137 64.4494C64.592 64.6006 64.6896 64.7302 64.8414 64.7518C65.6113 64.8599 66.3595 64.9139 67.1076 64.9139C70.3172 64.9139 73.3532 63.974 76.7796 62.9154C79.5446 62.0619 82.6783 61.0897 86.4408 60.4415C86.5926 60.4199 86.6902 60.2795 86.6577 60.1283ZM100.396 90.16C98.5416 91.3915 96.1778 92.0072 95.0502 92.2557C95.0285 92.2989 94.2261 94.2002 93.8032 95.1616C93.0442 96.8901 92.2635 98.6725 91.4828 100.693C91.2876 101.222 91.3202 101.795 91.5804 102.259C92.1225 103.221 92.5021 104.452 92.7081 105.932C92.7731 106.343 92.9683 106.688 93.2285 106.98C94.0743 106.051 95.8526 104.268 97.5766 103.588C97.3489 102.929 97.3923 102.302 97.7718 101.676C98.1188 101.092 98.3248 99.742 98.5525 98.1756C98.8778 96.0043 99.3007 93.1739 100.396 90.16ZM136.514 71.3955C136.471 71.2551 136.308 71.1795 136.167 71.2227C136.026 71.2659 135.95 71.428 135.994 71.5684C137.934 77.2723 138.932 80.8588 139.149 82.8573C139.16 82.9977 139.279 83.095 139.42 83.095C139.42 83.095 139.442 83.095 139.452 83.095C139.604 83.0842 139.713 82.9437 139.691 82.7925C139.474 80.7292 138.498 77.2182 136.514 71.3955ZM126.549 49.682C126.658 49.5847 126.669 49.4119 126.571 49.3039C126.473 49.1959 126.3 49.185 126.191 49.2823C122.678 52.4583 120.933 56.0556 118.721 60.6036C118.102 61.8891 117.452 63.2179 116.715 64.6654C116.65 64.7951 116.704 64.9571 116.834 65.0327C116.877 65.0543 116.921 65.0651 116.953 65.0651C117.051 65.0651 117.148 65.0111 117.192 64.9139C117.94 63.4555 118.58 62.1268 119.208 60.8412C121.475 56.1636 123.112 52.7824 126.549 49.682ZM154.156 69.5159C154.156 68.9757 154.156 68.4032 154.199 67.809C151.814 65.346 149.016 62.7101 146.847 61.511C146.717 61.4354 146.663 61.2733 146.739 61.1437C146.815 61.0141 146.978 60.9709 147.108 61.0357C149.233 62.2024 151.922 64.687 154.253 67.0852C154.492 64.5682 155.197 61.8243 156.574 59.9878C154.091 58.0541 152.724 53.7438 152.692 50.3733C152.692 49.6172 153.028 48.9042 153.624 48.4289C154.232 47.9535 155.001 47.7807 155.739 47.9535C158.005 48.5045 161.941 49.9845 164.229 53.8518C164.489 53.517 164.771 53.3117 165.085 53.2145C165.194 53.1821 165.302 53.1821 165.4 53.1713C163.719 50.6758 161.073 48.6773 157.419 47.1325C153.993 45.6849 150.708 46.3655 148.311 46.8624C146.739 47.1865 145.6 47.4242 145.037 46.8733C144.711 46.56 144.635 46.0522 144.798 45.2744C145.188 43.3515 146.696 41.9364 147.91 40.7913C148.777 39.9811 149.526 39.2681 149.428 38.7712C149.374 38.4795 149.027 38.1986 148.376 37.9177C147.812 37.6693 147.14 37.41 146.425 37.1184C143.052 35.7788 138.856 34.1044 138.628 32.2247C138.552 31.6089 138.889 31.0364 139.615 30.5287C141.393 29.2647 143.714 30.0857 145.579 30.7555C146.782 31.1876 147.932 31.5981 148.409 31.2092C148.485 31.1444 148.55 31.058 148.604 30.9499C146.511 27.7847 144.581 24.7276 143.584 22.8371C134.963 6.22241 127.699 5.50942 122.895 5.0341C121.908 4.93687 120.987 4.85046 120.163 4.6344C120.163 4.6344 120.141 4.6344 120.13 4.6344C118.948 4.32112 117.756 4.05105 116.574 3.79178C114.969 3.75938 113.31 3.89979 111.629 4.10504C110.491 5.69305 113.028 5.85509 112.941 6.80574C112.833 8.00484 117.203 7.16224 117.506 8.81507C117.821 10.4679 121.355 8.29655 124.467 7.47554C127.579 6.64372 125.714 10.2626 124.467 11.0296C123.22 11.7966 125.812 15.9557 127.373 19.2181C128.924 22.4806 125.194 25.473 123.426 23.7121C121.659 21.9513 120.314 20.8169 120.206 24.0254C120.108 27.223 114.709 25.7754 115.121 24.7492C115.533 23.7121 114.503 21.638 111.9 19.1425C109.309 16.6363 108.897 20.1904 108.062 16.8847C107.227 13.5791 103.291 16.269 101.729 13.4602C100.168 10.6623 97.3706 14.1948 96.4381 17.9218C95.5056 21.638 93.3153 22.675 90.9298 19.1425C91.0383 14.0544 91.5587 14.5081 95.9176 10.0034C100.277 5.50943 99.6476 7.05422 103.941 5.50942C104.484 5.31497 105.069 5.1205 105.644 4.91525C104.126 5.1097 102.64 5.25017 101.22 5.25017C100.222 5.25017 99.2464 5.18533 98.3139 5.02328C97.2296 4.83964 96.0044 4.61277 94.6815 4.37511C91.678 3.82417 88.0781 3.16523 84.4674 2.6791C80.141 3.14362 75.6086 3.61892 72.7243 3.9106C69.6557 4.12666 66.6739 4.36432 63.8547 4.59118C58.5742 5.01249 53.9984 5.37978 50.2901 5.4662C50.2684 5.60664 50.2358 5.74709 50.1491 5.88753C49.7479 6.60051 48.6202 6.98938 46.7769 7.0434C44.2396 7.09741 43.0469 7.99407 41.8975 8.85829C41.1711 9.40923 40.4771 9.92776 39.5121 10.1762C39.1 10.2843 39.035 10.3923 39.035 10.4139C38.9916 10.5111 39.1976 10.8136 39.3494 11.0296C39.6747 11.4941 40.0759 12.0775 39.9024 12.7797C39.7615 13.3631 39.2518 13.8924 38.3302 14.4109C37.8206 14.6918 37.3651 14.8106 36.9423 14.8106C35.576 14.8106 34.611 13.5035 33.5267 12.0343C32.399 10.5111 31.1412 8.82588 29.1353 7.87523C27.2269 8.11289 24.9065 8.75026 23.0849 10.3059C22.9114 10.4463 22.7596 10.6083 22.6078 10.7704C21.4801 12.542 21.5885 14.8862 21.7295 17.803C21.8054 19.4774 21.8813 21.3571 21.7512 23.388C21.7837 23.9065 21.8162 24.4467 21.8379 24.9436C21.8379 24.9868 21.8271 25.0192 21.8162 25.0625C21.7728 31.4577 21.5343 40.4456 20.6018 47.1973C20.5476 47.5754 20.4934 47.9319 20.4391 48.2884C22.2933 51.5076 23.5077 44.4102 22.7162 39.7758C21.8379 34.7093 25.2426 41.0181 28.1377 46.0846C31.0437 51.1511 34.817 43.5676 32.2039 39.549C27.3353 32.041 38.7856 26.8233 42.1252 33.8127C42.8951 35.4331 43.4589 38.5011 39.7181 44.5075C36.1182 50.3085 36.682 50.8811 40.4446 49.0554C40.6831 48.7205 40.9108 48.3856 41.1385 48.0291C42.1686 46.4195 43.0144 44.7235 43.7192 42.8546C44.5107 40.7697 45.1071 38.4471 45.5083 35.9408C45.5733 35.5627 45.9312 35.2927 46.3107 35.3575C46.6902 35.4223 46.9612 35.7788 46.8962 36.1569C46.5167 38.5659 45.942 40.8021 45.2047 42.8438C45.736 45.9226 47.254 47.2513 50.019 48.5693C53.0659 50.0168 55.9935 45.3608 58.3139 47.2189C60.6235 49.0878 62.2608 38.5551 63.3993 42.6601C64.5378 46.7544 67.1402 39.0196 67.6606 41.9148C68.1702 44.8099 67.6932 46.7112 71.3256 47.6402C74.958 48.5693 77.7338 41.137 78.8723 44.8099C80.0109 48.4829 81.1169 49.7576 83.7842 48.4613C86.4842 47.1541 89.2491 42.3793 91.331 40.3052C93.4129 38.231 89.9431 55.5911 92.9575 50.7298C93.1635 50.3949 93.3478 50.1357 93.5213 49.9304C96.0477 43.4704 102.152 38.6091 105.503 37.3452C105.817 37.2264 106.175 37.3452 106.349 37.6261C106.522 37.907 106.479 38.285 106.229 38.5119C106.175 38.5659 100.927 43.546 98.7585 49.8224C97.6742 52.966 97.5441 55.9152 98.3898 58.5835C98.7693 59.761 99.0513 60.9709 99.2247 62.1916C99.8862 66.5775 99.279 70.6286 98.6826 73.6749C98.5416 74.3987 98.3898 75.0901 98.238 75.7707C98.4332 77.6288 99.0838 80.1134 100.385 82.0255C101.274 83.3326 102.358 84.1644 103.584 84.5209C103.822 84.024 104.028 83.5055 104.213 82.9221C104.516 81.9391 104.7 80.956 104.907 79.8109C105.167 78.3525 105.47 76.6889 106.132 74.5176C106.685 72.6595 107.802 70.0236 109.255 67.1068C110.436 64.6978 111.824 62.1916 113.266 59.869C114.253 58.2594 115.229 56.7902 116.162 55.5047C118.222 52.6203 121.29 48.8718 124.272 47.4134C130.008 44.5939 131.092 37.1724 131.96 31.1984C132.057 30.507 132.155 29.8481 132.253 29.2107C132.307 28.8542 132.621 28.6057 132.979 28.6165C133.337 28.6273 133.63 28.919 133.651 29.2755C134.508 42.1092 129.943 47.8671 126.614 52.0694C125.367 53.6358 124.305 55.0077 123.708 56.4661C124.435 58.2918 125.096 62.3968 121.973 63.65C118.601 65.0003 124.532 68.0683 126.354 68.0683C126.755 68.0683 127.222 67.9819 127.709 67.7766C130.409 66.6639 134.877 63.2611 136.124 64.9139C136.601 65.5512 137.132 66.0266 137.696 66.3507C137.88 66.4479 138.021 66.5883 138.13 66.7395C138.173 66.6639 138.206 66.5991 138.249 66.5235C139.301 64.6438 140.06 63.3799 140.916 62.991L141.122 62.8829C141.925 62.4616 143.421 61.673 146.197 62.9262C148.322 63.8768 151.402 66.7072 154.123 69.5267L154.156 69.5159ZM183.248 93.1523C181.946 92.7634 180.656 91.9964 179.366 90.8513C179.366 90.8513 179.344 90.8406 179.344 90.8298C179.322 90.8406 179.312 90.8513 179.29 90.8729C179.116 91.0674 178.943 91.4563 178.965 92.1909C178.997 92.2125 179.03 92.2341 179.062 92.2449C180.277 92.9039 181.87 93.3792 183.258 93.1523H183.248ZM190.144 87.6537C189.71 87.2108 189.124 86.595 188.94 85.612C188.908 85.4716 188.853 85.2879 188.756 85.0503C187.606 84.5965 187.184 85.1691 186.284 86.8867C185.438 88.5071 184.234 90.7757 181.133 90.5705C182.597 91.6615 184.061 92.1801 185.438 92.1261C187.845 92.0396 189.526 90.2572 190.133 89.501C190.946 88.4855 190.773 88.3127 190.155 87.6645L190.144 87.6537ZM187.27 87.967C186.923 88.5611 186.967 89.2201 187.357 89.447C187.747 89.6738 188.344 89.3714 188.68 88.7772C189.027 88.1831 188.984 87.5241 188.593 87.2972C188.203 87.0704 187.606 87.3728 187.27 87.967ZM91.5587 10.0682C90.8973 10.4679 90.3226 10.9864 89.6937 11.4401C89.3793 11.667 89.0973 11.9263 88.8263 12.2071L88.013 13.0281C87.4384 13.5575 86.9829 14.184 86.495 14.789C84.5866 17.2412 83.1987 20.0608 82.1795 22.9667C81.1819 25.8943 80.5313 28.9298 80.2602 31.987C80 35.0334 79.9133 38.1554 80.5964 41.1478C80.4663 39.6246 80.4879 38.1122 80.5964 36.5998C80.6723 35.0874 80.8458 33.5858 81.0843 32.095C81.5506 29.1135 82.212 26.1643 83.2096 23.3232C84.1746 20.4821 85.4866 17.7598 87.1781 15.2859C88.8696 12.8121 91.0274 10.6515 93.5755 8.9447C92.9032 9.31199 92.231 9.69011 91.5696 10.079L91.5587 10.0682ZM84.3264 14.4757C85.9203 12.2179 87.9154 10.241 90.2575 8.63141C89.6395 8.96629 89.0214 9.31201 88.4034 9.6685C87.7745 10.0142 87.254 10.5003 86.6685 10.9216C86.083 11.3321 85.6059 11.8722 85.0963 12.38C84.8469 12.6392 84.5866 12.8877 84.3372 13.147L83.665 13.9788C81.8542 16.215 80.5205 18.7968 79.5229 21.4651C78.5579 24.155 77.9182 26.9529 77.6037 29.7724C77.4519 31.1876 77.3652 32.6028 77.3326 34.0179C77.376 35.4331 77.3977 36.8591 77.6471 38.2526C77.6579 35.4331 77.9398 32.646 78.4278 29.8913C78.9266 27.1474 79.5771 24.4359 80.5422 21.8324C81.4855 19.2289 82.7433 16.7335 84.3264 14.4757ZM81.4855 13.6763C82.971 11.613 84.8143 9.80893 86.9613 8.31815C86.3866 8.62063 85.8119 8.9339 85.2372 9.25799C84.6734 9.58207 84.1637 10.0142 83.6216 10.3923C83.0686 10.7596 82.6457 11.2781 82.1578 11.7102C81.659 12.1531 81.247 12.6609 80.8241 13.1686C79.1217 15.1995 77.8639 17.5545 76.8989 19.9959C75.9556 22.459 75.3158 25.0084 74.9797 27.6119C74.6436 30.2046 74.5351 32.8296 74.817 35.4115C74.9146 34.1152 74.9905 32.8296 75.1857 31.5549C75.3375 30.2802 75.5435 29.0055 75.7929 27.7523C76.3134 25.2461 76.9748 22.7615 77.9073 20.3956C78.8181 18.019 80 15.7505 81.4747 13.6871L81.4855 13.6763ZM78.7964 12.6824C80.141 10.9 81.7891 9.3228 83.665 8.00486C83.1553 8.26413 82.6457 8.52338 82.1361 8.80426C81.6373 9.09593 81.1819 9.45244 80.694 9.76572C79.7832 10.4787 78.9266 11.2781 78.1567 12.1531C76.6061 13.8924 75.4134 15.9341 74.4809 18.0514C73.5701 20.1904 72.9195 22.4158 72.5292 24.6952C72.1388 26.9637 71.9545 29.2647 72.0738 31.5549C72.2581 30.4206 72.3882 29.2971 72.6267 28.1844C72.8111 27.0718 73.0496 25.9591 73.3424 24.868C73.9062 22.6858 74.5676 20.5361 75.4676 18.4836C76.3459 16.4202 77.4519 14.4649 78.7856 12.6824H78.7964ZM78.5362 8.87988C77.0724 9.7117 75.7495 10.846 74.6652 12.1639C73.5592 13.4711 72.6701 14.9402 71.9328 16.485C70.5015 19.5746 69.7208 22.9451 69.6774 26.3156C70.5774 23.0747 71.5208 19.9095 72.9195 16.9496C74.2966 13.9788 76.1182 11.2457 78.547 8.90148L78.5362 8.87988ZM73.6568 9.94935C71.8677 11.1052 70.5232 12.8337 69.5256 14.7026C68.5606 16.5823 67.91 18.624 67.7799 20.7305C68.7341 18.8508 69.5256 16.982 70.4798 15.1995C71.4123 13.3954 72.4749 11.6994 73.646 9.94935H73.6568ZM128.87 28.5625C128.718 28.5733 128.609 28.703 128.62 28.8542C129.076 34.0719 129.184 40.4672 125.899 43.6324C125.79 43.7405 125.79 43.9025 125.899 44.0105C125.953 44.0645 126.018 44.0969 126.094 44.0969C126.17 44.0969 126.235 44.0753 126.278 44.0213C129.726 40.6941 129.629 34.1476 129.162 28.811C129.152 28.6598 129.011 28.5409 128.87 28.5625ZM37.9398 67.2797C37.7989 67.2581 37.6579 67.3769 37.6471 67.5282C37.6362 67.6794 37.7447 67.809 37.8965 67.8198C38.5145 67.8738 39.5338 67.9387 40.7916 67.9387C44.2288 67.9387 49.4335 67.4525 53.1635 64.9355C53.2285 64.8923 53.3153 64.8491 53.3803 64.8058C53.4996 64.7194 53.5321 64.5466 53.4454 64.4278C53.3586 64.3089 53.1852 64.2765 53.0659 64.363C52.9358 64.4494 52.7948 64.5358 52.6647 64.6222C47.7203 67.809 40.1952 67.4741 37.9507 67.2797H37.9398Z" fill="#424E67"/>
</svg>
