<svg width="133" height="94" viewBox="0 0 133 94" fill="none" xmlns="http://www.w3.org/2000/svg">
<path d="M132.116 62.7368C132.116 62.7368 132.186 62.7086 132.214 62.6944C132.27 62.6803 132.327 62.6662 132.369 62.638C132.425 62.6097 132.467 62.5673 132.523 62.5249C132.551 62.4967 132.593 62.4684 132.621 62.4402C132.692 62.3554 132.748 62.2706 132.79 62.1717C132.79 62.1435 132.79 62.1294 132.804 62.1011C132.832 62.0305 132.846 61.9598 132.86 61.8892C133.927 45.6148 128.858 22.729 118.805 14.1256C98.9647 -2.84102 64.0163 -0.312256 53.7662 0.86029C20.6571 4.6746 4.60809 14.2103 1.71561 31.7844C0.255327 40.6279 -1.09261 52.1133 1.33651 62.4119C3.16186 70.2807 7.05125 76.5531 12.9064 81.0738L13.5804 81.5823C13.7489 81.7094 13.9314 81.8366 14.114 81.9638C15.1951 82.7549 16.2763 83.4895 17.4698 84.2382C17.9472 84.5349 18.4527 84.8316 18.9301 85.1C19.913 85.6792 20.966 86.2584 22.1595 86.8517C23.002 87.2755 23.8726 87.6852 24.7572 88.0808C25.7541 88.5187 26.7931 88.9425 27.8322 89.324C29.124 89.8325 30.4298 90.2846 31.8479 90.7084C32.8027 91.0051 33.7856 91.2876 34.7825 91.5419C36.5798 91.994 38.335 92.3754 40.034 92.6862C40.9607 92.8416 41.8874 92.997 42.8281 93.1383C44.9764 93.4491 47.2932 93.6892 49.7223 93.8305C50.6069 93.887 51.5196 93.9294 52.4182 93.9435C53.4573 93.9859 54.5244 94 55.6056 94C57.2905 94 59.0176 93.9576 60.7447 93.8729C61.6573 93.8305 62.57 93.774 63.4827 93.7033C68.6358 93.3219 73.9855 92.5732 79.3773 91.4854C79.7845 91.4006 80.0934 91.0474 80.1074 90.6377C80.1496 89.8043 81.1324 70.9305 80.5848 63.4291C95.0472 64.0507 123.467 64.3332 132.13 62.7368H132.116ZM53.7802 85.5661C53.3871 87.7841 52.8956 89.9597 52.3621 92.1211C51.5196 92.0929 50.6631 92.0646 49.8347 92.0081C49.6381 92.0081 49.4696 91.9798 49.273 91.9657L48.8939 83.0798L47.4477 91.8103C46.6052 91.7397 45.7768 91.6549 44.9764 91.556L44.4429 80.1696L43.0668 91.3159C42.3648 91.217 41.6768 91.104 40.9747 90.9768L40.2726 76.539L38.9668 90.5954C38.363 90.4682 37.7452 90.3411 37.1274 90.1998L36.2709 71.8205L34.9932 89.6771C34.3613 89.5076 33.7435 89.3239 33.1257 89.1403C32.6343 81.8083 32.4938 74.4058 32.3534 67.0173C31.7637 74.1373 31.1599 81.2715 30.8931 88.4481C30.2753 88.2362 29.6716 88.0243 29.0678 87.7982C28.3938 79.6611 28.2815 71.4109 28.3236 63.203C27.5513 71.0577 26.9054 78.9406 26.765 86.8941C26.3438 86.7246 25.9085 86.5692 25.5013 86.3855C25.389 86.3432 25.2907 86.2866 25.1784 86.2301C24.8274 82.6418 24.6027 79.0253 24.4763 75.3947C24.2938 70.0688 24.3078 64.7146 24.4763 59.3746C23.8445 64.6863 23.353 70.0264 23.0722 75.3805C22.9037 78.6156 22.8195 81.8507 22.8195 85.1141C22.5246 84.9587 22.2438 84.8174 21.963 84.662C21.5417 80.8619 21.2749 77.0334 21.1345 73.1908C20.938 67.6106 20.9801 62.0163 21.275 56.4361C20.5167 61.9881 19.9972 67.5683 19.7304 73.1908C19.576 76.5672 19.5198 79.9436 19.576 83.3482C19.3513 83.221 19.1266 83.0939 18.916 82.9526C18.4105 78.9123 18.1016 74.8296 17.9472 70.7469C17.7366 64.9265 17.8068 59.0779 18.2421 53.2434C17.3434 59.0214 16.7958 64.87 16.5431 70.7327C16.3886 74.2645 16.3746 77.8104 16.4729 81.3563C16.3325 81.2574 16.1921 81.1585 16.0516 81.0596C15.4619 76.8215 15.0828 72.5269 14.9143 68.2181C14.6756 62.2565 14.7599 56.2525 15.2794 50.2768C14.3105 56.196 13.7349 62.2 13.5102 68.2181C13.3838 71.8629 13.3979 75.5077 13.5523 79.1666C13.5102 79.1242 13.4681 79.096 13.4119 79.0536C12.7098 74.6036 12.2605 70.0829 12.0499 65.5622C11.7691 59.5582 11.8393 53.5119 12.3728 47.4937C11.3759 53.4554 10.8283 59.5017 10.6458 65.5764C10.5615 68.5854 10.5615 71.6086 10.6879 74.6318C10.0561 70.6339 9.62079 66.6076 9.38209 62.5391C9.0451 56.5633 9.08722 50.531 9.5927 44.527C8.62386 50.4745 8.10435 56.5068 7.97798 62.5673C7.93585 64.7852 7.97797 67.0032 8.03413 69.2353C7.43036 65.6752 6.967 62.087 6.67214 58.4705C6.1807 52.3817 6.08241 46.2505 6.63001 40.1335C5.61905 46.194 5.23994 52.3676 5.26802 58.527C5.28206 61.423 5.40843 64.3049 5.61905 67.201C4.79062 62.1152 4.2992 56.9588 4.14474 51.7883C3.94817 44.7248 4.29918 37.6048 5.46459 30.5977C3.83582 37.52 3.00741 44.64 2.74063 51.7883C2.64234 54.5431 2.67042 57.2979 2.74063 60.0527C0.9574 50.5734 2.22109 40.2042 3.555 32.067C6.29302 15.4394 21.8506 6.36984 54.0049 2.66855C59.3686 2.04696 64.606 1.7503 69.6608 1.7503C89.9082 1.7503 107.235 6.59587 117.639 15.51C121.248 18.5897 124.211 23.8309 126.457 30.0044C125.039 26.9812 123.438 24.7633 121.711 23.7602C116.839 20.9631 66.5577 19.8329 60.8429 19.7058C60.4919 19.6352 60.197 19.8753 60.0285 20.1579C59.8601 20.4545 59.8601 20.8077 60.0285 21.0903C60.1128 21.2315 68.5234 35.2456 72.6515 41.1648C76.6252 46.8721 77.6362 51.4917 78.6612 62.5108C79.3211 68.2887 78.4927 86.0041 78.3102 89.7901C73.2273 90.779 68.1865 91.4713 63.3282 91.8386C62.4296 91.9092 61.531 91.9657 60.6464 92.0081C58.4419 92.1211 56.2796 92.1352 54.1734 92.107C54.1032 89.9032 53.9768 87.6993 53.7802 85.5238V85.5661ZM80.3882 61.5925C79.3773 50.969 78.2119 46.0104 74.1399 40.1618C70.8262 35.4151 64.7043 25.3566 62.4436 21.627C84.7129 22.1215 117.485 23.506 120.785 25.399C125.671 28.2103 130.375 44.7531 130.993 61.0698C121.585 62.5108 94.2749 62.2 80.3882 61.5925ZM71.9074 54.2747C66.2488 56.083 60.3796 56.8882 54.5946 56.8882C39.2196 56.8882 24.4202 51.2656 15.8972 44.075C9.35401 38.5513 6.19474 32.1094 7.00913 25.9076C7.07934 25.399 7.52865 25.0458 8.03413 25.1164C8.53961 25.1871 8.89064 25.6392 8.82043 26.1477C8.09029 31.6997 11.0109 37.5624 17.0626 42.6623C28.4219 52.2404 51.309 58.9367 71.3457 52.523C71.8231 52.3676 72.3427 52.636 72.4971 53.1163C72.6516 53.5966 72.3848 54.1193 71.9074 54.2747ZM110.661 35.9095C112.332 35.9095 113.68 34.5533 113.68 32.8722C113.68 31.1911 112.332 29.8349 110.661 29.8349C108.99 29.8349 107.642 31.1911 107.642 32.8722C107.642 34.5533 108.99 35.9095 110.661 35.9095ZM108.695 33.0135C108.878 32.9429 109.074 33.0417 109.145 33.2254C109.257 33.5362 109.79 34.1013 110.45 34.2849C110.844 34.3979 111.181 34.3556 111.461 34.1436C111.616 34.0306 111.84 34.0589 111.953 34.2143C112.065 34.3697 112.037 34.5957 111.883 34.7087C111.574 34.9348 111.223 35.0619 110.844 35.0619C110.647 35.0619 110.45 35.0336 110.24 34.9771C109.383 34.7229 108.667 34.0165 108.471 33.4797C108.4 33.296 108.499 33.0982 108.681 33.0276L108.695 33.0135ZM99.5825 40.4726C99.5825 37.8167 97.2657 35.6553 94.4153 35.6553C91.565 35.6553 89.2482 37.8167 89.2482 40.4726C89.2482 43.1285 91.565 45.2899 94.4153 45.2899C97.2657 45.2899 99.5825 43.1285 99.5825 40.4726ZM96.3671 43.75C95.8476 44.0608 95.2157 44.2163 94.5558 44.2163C93.7554 44.2163 92.8989 43.9902 92.1407 43.5664C90.9051 42.8601 90.189 41.7299 90.189 40.4867C90.189 40.2889 90.3434 40.1335 90.54 40.1335C90.7366 40.1335 90.891 40.2889 90.891 40.4867C90.891 41.4756 91.4667 42.3797 92.4777 42.9589C93.6431 43.6229 95.0893 43.7077 96.002 43.1567C96.1705 43.0578 96.3811 43.1143 96.4794 43.2839C96.5777 43.4534 96.5215 43.6653 96.353 43.7642L96.3671 43.75ZM112.936 51.3645C112.936 52.3393 111.925 53.1446 110.675 53.1446C109.425 53.1446 108.414 52.3534 108.414 51.3645C108.414 50.3756 109.425 49.5845 110.675 49.5845C111.925 49.5845 112.936 50.3756 112.936 51.3645ZM117.204 42.8883C117.204 42.1254 117.934 41.4897 118.847 41.4897C119.76 41.4897 120.49 42.1113 120.49 42.8883C120.49 43.6653 119.76 44.2869 118.847 44.2869C117.934 44.2869 117.204 43.6653 117.204 42.8883ZM78.6752 27.9277C78.6752 28.8319 77.9451 29.5806 77.0324 29.5806C76.1197 29.5806 75.3896 28.846 75.3896 27.9277C75.3896 27.0095 76.1197 26.2749 77.0324 26.2749C77.9451 26.2749 78.6752 27.0095 78.6752 27.9277ZM89.0095 47.3101C87.6195 47.3101 86.4961 48.4402 86.4961 49.8388C86.4961 51.2374 87.6195 52.3675 89.0095 52.3675C90.3996 52.3675 91.5229 51.2374 91.5229 49.8388C91.5229 48.4402 90.3996 47.3101 89.0095 47.3101ZM90.0766 51.0679C89.6413 51.308 89.2623 51.4211 88.9112 51.4211C88.7147 51.4211 88.5181 51.3787 88.3496 51.308C87.9003 51.0961 87.5773 50.644 87.4229 49.9377C87.3807 49.754 87.4931 49.5563 87.6897 49.5139C87.8862 49.4715 88.0687 49.5845 88.1109 49.7823C88.2232 50.2485 88.4057 50.5452 88.6444 50.6582C88.9674 50.7995 89.4308 50.6299 89.7537 50.4463C89.9222 50.3474 90.1328 50.418 90.2311 50.5875C90.3294 50.757 90.2592 50.969 90.0907 51.0679H90.0766ZM87.3667 29.5806C86.4681 29.5806 85.7239 29.0155 85.7239 28.3092C85.7239 27.6028 86.454 27.0377 87.3667 27.0377C88.2794 27.0377 89.0095 27.6028 89.0095 28.3092C89.0095 29.0155 88.2794 29.5806 87.3667 29.5806ZM84.7269 37.3081C84.7269 37.9438 84.1653 38.4524 83.4632 38.4524C82.7612 38.4524 82.1996 37.9438 82.1996 37.3081C82.1996 36.6724 82.7612 36.1638 83.4632 36.1638C84.1653 36.1638 84.7269 36.6724 84.7269 37.3081ZM99.7089 53.6531C98.1082 53.6531 96.8164 55.0093 96.8164 56.6904C96.8164 58.3715 98.1082 59.7277 99.7089 59.7277C101.31 59.7277 102.601 58.3715 102.601 56.6904C102.601 55.0093 101.31 53.6531 99.7089 53.6531ZM100.692 58.3009L100.481 58.3716C100.172 58.4846 99.8212 58.6117 99.4421 58.6117C98.9226 58.6117 98.375 58.3716 97.8695 57.5098C97.7712 57.3403 97.8274 57.1284 97.9959 57.0295C98.1644 56.9306 98.375 56.9871 98.4733 57.1566C99.0489 58.1455 99.5263 57.976 100.256 57.7076L100.481 57.6228C100.664 57.5663 100.86 57.6652 100.93 57.8489C100.987 58.0325 100.888 58.2303 100.706 58.3009H100.692ZM19.0424 24.0145C18.3123 18.8723 21.1767 14.5211 27.5514 11.0883C46.0716 1.11456 92.6462 1.75031 104.202 12.1337C104.469 12.3739 104.483 12.7694 104.258 13.0378C104.02 13.3062 103.626 13.3204 103.36 13.0943C92.9411 3.72809 47.7285 1.67967 28.1411 12.2185C22.2859 15.3688 19.6462 19.282 20.2921 23.845C20.3482 24.1982 20.0955 24.509 19.7585 24.5655C19.7304 24.5655 19.7023 24.5655 19.6743 24.5655C19.3654 24.5655 19.0986 24.3394 19.0565 24.0145H19.0424ZM66.1224 43.8913C66.4594 43.8631 66.7824 44.1174 66.8105 44.4705C66.8385 44.8237 66.5858 45.1345 66.2348 45.1627C64.4234 45.3323 61.6152 45.5159 58.2453 45.5159C51.9409 45.5159 43.6425 44.8661 36.1305 42.2385C35.7935 42.1255 35.625 41.7581 35.7374 41.4332C35.8497 41.0942 36.2147 40.9246 36.5377 41.0377C48.1778 45.1063 62.1207 44.2586 66.1224 43.9055V43.8913ZM29.6856 20.3274C29.2503 22.5736 29.9103 24.8763 31.6093 26.9954C35.625 31.9963 44.6956 35.2455 55.2686 35.4575C55.6196 35.4575 55.9005 35.7541 55.8864 36.1073C55.8864 36.4605 55.5915 36.7289 55.2546 36.7289C44.148 36.5028 34.937 33.1689 30.6264 27.8006C28.6887 25.3849 27.9305 22.7148 28.4359 20.1013C28.5061 19.7482 28.8431 19.5363 29.1801 19.5928C29.5171 19.6634 29.7418 19.9883 29.6856 20.3415V20.3274ZM75.6844 55.419C75.6423 55.2212 75.7687 55.0376 75.9653 55.0093C76.1478 54.9669 76.3444 55.0941 76.3725 55.2919C77.5519 61.4795 77.7766 72.8659 77.0043 88.1938C77.0043 88.3775 76.8358 88.5328 76.6533 88.5328H76.6393C76.4427 88.5328 76.3022 88.3633 76.3022 88.1655C77.0605 72.8942 76.8499 61.5643 75.6844 55.4331V55.419Z" fill="#424E67"/>
</svg>
