<svg width="120" height="95" viewBox="0 0 120 95" fill="none" xmlns="http://www.w3.org/2000/svg">
<path d="M51.4685 0L33.007 67.0588L26.8531 41.9118C34.8718 41.9118 41.3986 44.2402 46.4336 48.8971C51.4685 53.5539 53.986 59.9804 53.986 68.1765C53.986 76.1863 51.3753 82.7059 46.1538 87.7353C41.1189 92.5784 34.7786 95 27.1329 95C19.3007 95 12.7739 92.5784 7.55245 87.7353C2.51748 82.7059 0 76.1863 0 68.1765C0 65.7549 0.18648 63.4265 0.559441 61.1912C0.932401 58.7696 1.67832 55.9755 2.7972 52.8088C3.91608 49.6421 5.50117 45.451 7.55245 40.2353L23.7762 0H51.4685ZM117.483 0L99.021 67.0588L92.8671 41.9118C100.886 41.9118 107.413 44.2402 112.448 48.8971C117.483 53.5539 120 59.9804 120 68.1765C120 76.1863 117.389 82.7059 112.168 87.7353C107.133 92.5784 100.793 95 93.1469 95C85.3147 95 78.7879 92.5784 73.5664 87.7353C68.5315 82.7059 66.014 76.1863 66.014 68.1765C66.014 65.7549 66.2005 63.4265 66.5734 61.1912C66.9464 58.7696 67.6923 55.9755 68.8112 52.8088C69.9301 49.6421 71.5152 45.451 73.5664 40.2353L89.7902 0H117.483Z" fill="#EAECF7"/>
</svg>
