<svg width="206" height="25" fill="none" xmlns="http://www.w3.org/2000/svg"><path d="M43.25 3.813v15.344h-3.836V7.65h-.17l-5.593 5.593-5.593-5.593h-.161v11.508H24.06V3.813h5.593L33.65 7.81l4.006-3.997h5.593zm16.957 7.672a7.675 7.675 0 01-7.672 7.672 7.675 7.675 0 01-7.673-7.672 7.675 7.675 0 017.673-7.672 7.675 7.675 0 017.672 7.672zm-3.845 0a3.832 3.832 0 00-3.836-3.836 3.832 3.832 0 00-3.836 3.836 3.838 3.838 0 003.836 3.836 3.838 3.838 0 003.836-3.836zm20.54-7.672v15.344h-3.837V7.65h-5.754v4.795a6.712 6.712 0 01-6.713 6.713v-3.836a2.88 2.88 0 002.877-2.877V3.813H76.91h-.008zm17.058 7.256a7.675 7.675 0 01-7.671 7.672 7.675 7.675 0 01-7.673-7.672 7.675 7.675 0 017.673-7.672 7.675 7.675 0 017.672 7.672zm-3.835 0a3.832 3.832 0 00-3.836-3.836 3.832 3.832 0 00-3.837 3.836 3.832 3.832 0 003.837 3.836 3.832 3.832 0 003.836-3.836zm20.232-7.256V24.92H96.922v-3.836h9.591V18.13a7.63 7.63 0 01-3.836 1.036 7.675 7.675 0 01-7.673-7.673 7.675 7.675 0 017.673-7.672c1.4 0 2.707.382 3.836 1.035V3.821h3.836l.008-.008zm-3.836 7.672a3.832 3.832 0 00-3.836-3.836 3.832 3.832 0 00-3.836 3.836 3.832 3.832 0 003.836 3.836 3.832 3.832 0 003.836-3.836zm20.803-7.672v15.344h-3.836v-4.871a7.63 7.63 0 01-3.836 1.035 7.675 7.675 0 01-7.672-7.672V3.813h3.836v3.836a3.838 3.838 0 003.836 3.836 3.838 3.838 0 003.836-3.836V3.813h3.836zm17.848 0v15.344h-3.836v-1.035a7.63 7.63 0 01-3.836 1.035 7.675 7.675 0 01-7.673-7.672V3.813h3.836v7.672a3.833 3.833 0 003.837 3.836 3.833 3.833 0 003.836-3.836V3.813h3.836zm17.842 0v15.344h-3.837v-5.754h-7.672v5.754h-3.836V3.813h3.836v5.754h7.672V3.813h3.837zm17.838 5.754v9.59h-3.837v-5.754h-7.672v5.754h-3.836V3.813h3.836v5.423a5.757 5.757 0 003.836-5.423h3.836c0 2.164-.721 4.15-1.935 5.754h5.772zm17.339-5.754v15.344h-3.836v-1.035a7.63 7.63 0 01-3.836 1.035 7.675 7.675 0 01-7.672-7.672 7.675 7.675 0 017.672-7.672c1.4 0 2.707.381 3.836 1.035V3.813h3.836zm-3.836 7.672a3.832 3.832 0 00-3.836-3.836 3.832 3.832 0 00-3.836 3.836 3.832 3.832 0 003.836 3.836 3.832 3.832 0 003.836-3.836z" fill="#164194"/><path d="M18.07 2.548v4.464a4.574 4.574 0 01-4.269 4.558h-2.495A2.273 2.273 0 009.04 9.32V7.123a4.562 4.562 0 014.566-4.566h4.464v-.008zM9.04 13.844v2.182a4.57 4.57 0 01-4.576 4.566H0v-4.465a4.562 4.562 0 014.27-4.557c.101.008.203.008.296.008h2.199a2.267 2.267 0 002.274 2.266z" fill="#4292CF"/><path d="M13.801 11.57h-2.495A2.273 2.273 0 009.04 9.32V7.123a4.57 4.57 0 00-4.575-4.566H.001v4.465a4.574 4.574 0 004.27 4.557c.101.009.203.009.296.009h2.198a2.267 2.267 0 002.275 2.266v2.181a4.562 4.562 0 004.566 4.566h4.464v-4.464a4.562 4.562 0 00-4.269-4.558v-.008z" fill="#2EAC6A"/><path d="M203.14.375h.254c.238.009.467.051.688.128.484.152.9.424 1.239.814A2.71 2.71 0 01206 2.93v.339a2.726 2.726 0 01-.968 1.96 2.78 2.78 0 01-1.06.561 2.93 2.93 0 01-.476.085.87.87 0 00-.144.008h-.246c-.119-.017-.238-.017-.348-.042a2.69 2.69 0 01-.832-.289 2.69 2.69 0 01-.959-.865 2.747 2.747 0 01-.475-1.341v-.348c.008-.255.059-.51.144-.747A2.7 2.7 0 01202.13.62a2.6 2.6 0 01.908-.229h.102V.375zm.119.459a2.295 2.295 0 102.291 2.291 2.293 2.293 0 00-2.291-2.291z" fill="#164194"/><path d="M202.529 3.397v1.256h-.475V1.69h.017c.424 0 .848 0 1.281.008.144 0 .28.017.424.06.221.06.382.203.484.407a.787.787 0 01-.178.917.874.874 0 01-.458.229c-.043 0-.077.008-.128.017.026.008.043.017.06.025a.835.835 0 01.297.246c.144.17.263.357.382.552.102.161.195.314.297.475 0 0 0 .017.017.026h-.56c-.017 0-.026 0-.034-.017-.136-.238-.263-.467-.399-.705a4.016 4.016 0 00-.221-.314.56.56 0 00-.458-.22h-.348zm0-.408h.492c.144 0 .289 0 .433-.025a.441.441 0 00.204-.085.396.396 0 00.161-.348.378.378 0 00-.153-.314.62.62 0 00-.339-.11c-.263 0-.518 0-.781-.009h-.017v.891z" fill="#164194"/><path d="M6.756 11.578a2.275 2.275 0 104.549 0 2.275 2.275 0 00-4.55 0z" fill="#FDCC68"/></svg>