<svg width="170" height="113" viewBox="0 0 170 113" fill="none" xmlns="http://www.w3.org/2000/svg">
<path d="M38.4979 33.9701L37.8664 34.6268C37.3865 34.1468 36.7802 33.5659 36.0729 32.8839C35.3656 32.2019 34.9362 31.7724 34.7846 31.6209L34.7341 31.6713C34.8604 31.924 35.0878 32.4292 35.3909 33.187C36.0224 34.8795 36.4013 35.8141 36.5529 35.9657L36.0476 36.4961C35.8203 36.2688 34.9614 35.8646 33.4458 35.2836C33.0922 35.132 32.587 34.9047 31.9049 34.5763L31.8544 34.6268C32.0312 34.7784 32.486 35.2836 33.269 36.1172C34.0521 36.9508 34.5573 37.4813 34.8099 37.7339L34.2542 38.3149C34.2542 38.3149 33.6732 37.6581 32.7638 36.5719C31.8544 35.4857 31.2229 34.7784 30.8945 34.4752L31.8039 33.5406C32.107 33.8437 32.8143 34.2227 33.9006 34.6521C34.9868 35.0815 35.593 35.3594 35.694 35.4604L35.7445 35.4099C35.7445 35.4099 35.3656 34.7026 34.9615 33.5912C34.532 32.4797 34.1531 31.7723 33.85 31.4692L34.7341 30.5599C35.0625 30.8883 35.7445 31.4945 36.7802 32.4291C37.8159 33.3638 38.3969 33.869 38.4979 33.9701Z" fill="#F2F3FA"/>
<path d="M42.7649 30.6357L42.1081 31.1661C41.9566 31.0651 41.8555 30.9388 41.7545 30.8125H41.704C41.6029 31.4188 41.2493 31.9492 40.6683 32.4291C40.3399 32.6818 39.9862 32.8081 39.6073 32.7828C39.2284 32.7828 38.9 32.606 38.6222 32.2524C38.2938 31.823 38.1927 31.3177 38.3695 30.7872C38.5211 30.2315 39.1021 29.5747 40.0873 28.7916C40.0367 28.7158 39.9862 28.6401 39.9104 28.5391C39.6325 28.1854 39.38 28.0338 39.1021 28.0591C38.8243 28.0844 38.4958 28.2359 38.1169 28.5391C37.6875 28.8927 37.2833 29.2716 36.9297 29.7263L36.5508 29.0948C36.8792 28.6401 37.3086 28.2106 37.8643 27.7812C38.3695 27.4023 38.8242 27.2003 39.2789 27.2003C39.7083 27.2003 40.1125 27.4275 40.5167 27.9328C40.6178 28.0591 40.7946 28.3117 41.0472 28.6653C41.2998 29.019 41.4766 29.2716 41.5776 29.3726C41.9818 29.8778 42.3607 30.3073 42.7649 30.6609V30.6357ZM41.3756 30.383C41.0219 29.9536 40.7188 29.5747 40.4661 29.2464C39.9357 29.6505 39.5568 30.0041 39.3547 30.3073C39.001 30.8125 38.9758 31.2672 39.2789 31.6461C39.582 32.025 39.9862 31.9998 40.5419 31.5956C40.9966 31.2419 41.2745 30.8377 41.3756 30.383Z" fill="#F2F3FA"/>
<path d="M46.7578 27.0487L47.0862 27.6803C46.9347 27.9834 46.6567 28.2613 46.2273 28.5139C45.4442 29.0191 44.7117 29.1707 44.0296 28.9939C43.3476 28.817 42.8172 28.4381 42.413 27.8319C42.0088 27.1751 41.8573 26.4931 42.0088 25.7605C42.1604 25.0279 42.5646 24.4217 43.2971 23.967C43.6508 23.7397 43.9792 23.588 44.2318 23.5123L44.5602 24.2953C44.1813 24.3711 43.8023 24.5227 43.4739 24.7248C43.0445 25.0027 42.7919 25.3563 42.7414 25.811C42.6909 26.2657 42.7919 26.7204 43.0697 27.1751C43.3729 27.655 43.7771 27.9834 44.3075 28.1097C44.8128 28.236 45.3432 28.135 45.899 27.7813C46.1263 27.6298 46.4042 27.3772 46.7325 27.0235L46.7578 27.0487Z" fill="#F2F3FA"/>
<path d="M51.7853 25.3311L50.9518 25.7605C50.6992 25.1795 50.3707 24.4722 49.9413 23.6386C49.6129 23.0071 49.2846 22.3756 48.9562 21.8199L48.0215 22.2998C48.1226 22.704 48.1984 23.1082 48.2489 23.4871C48.2994 23.8912 48.3499 24.2701 48.3751 24.6238C48.3751 24.9774 48.4004 25.3311 48.3751 25.6595C48.3751 25.9878 48.3246 26.2657 48.2741 26.5183C48.2236 26.7709 48.1478 26.973 48.0467 27.1498C47.9457 27.3266 47.8194 27.4529 47.6931 27.5287L47.2637 26.7962C47.2637 26.7962 47.4153 26.6447 47.4658 26.4931C47.5163 26.3415 47.5668 26.1394 47.5921 25.9121C47.6173 25.6847 47.6426 25.4068 47.6426 25.1037C47.6426 24.8006 47.6426 24.4722 47.6174 24.1438C47.5921 23.7901 47.5415 23.4365 47.491 23.0576C47.4405 22.6787 47.3647 22.2998 47.2637 21.9209L48.8298 21.1126L49.4361 20.6831C49.7393 21.3651 50.1434 22.1988 50.6234 23.1587C51.0275 23.9165 51.4065 24.6238 51.8106 25.3058L51.7853 25.3311Z" fill="#F2F3FA"/>
<path d="M56.6099 20.3294C56.9636 21.163 56.9888 21.9208 56.6857 22.6029C56.4078 23.2849 55.9279 23.7396 55.2711 24.0175C54.6649 24.2701 54.0333 24.2701 53.4271 24.0175C52.8208 23.7901 52.3409 23.2849 52.0378 22.5271C51.6841 21.6682 51.6588 20.9104 51.9367 20.2284C52.2146 19.5463 52.6945 19.0664 53.3513 18.8138C53.9575 18.5612 54.5891 18.5612 55.1953 18.8138C55.8016 19.0664 56.2815 19.5716 56.5847 20.3294H56.6099ZM55.8269 20.8599C55.6248 20.3547 55.2964 19.9505 54.8669 19.6473C54.4375 19.3442 53.9828 19.2937 53.5029 19.4958C53.0229 19.6979 52.745 20.0262 52.644 20.5062C52.543 20.9862 52.5935 21.4914 52.7956 21.9966C52.9976 22.527 53.326 22.9312 53.7555 23.2091C54.1849 23.5122 54.6396 23.5375 55.1196 23.3607C55.5995 23.1586 55.8774 22.8302 55.9784 22.3503C56.0795 21.8703 56.0289 21.3651 55.8269 20.8852V20.8599Z" fill="#F2F3FA"/>
<path d="M63.6069 20.203C63.6574 20.3798 63.7585 20.8093 63.8848 21.4913C64.0111 22.1734 64.1374 22.7038 64.2384 23.0575L63.6322 23.2595C63.5059 22.8301 63.2786 22.1229 62.9502 21.1124C62.4702 21.2387 61.8135 21.4408 60.9799 21.6934C60.4494 21.8702 59.8683 22.0471 59.2621 22.2744C59.4136 23.3101 59.5652 24.0679 59.6915 24.4974L59.0853 24.6994C58.9843 24.3963 58.858 23.9669 58.6811 23.4112C58.5043 22.8554 58.3527 22.3754 58.2012 21.946L58.7063 21.7945C58.6558 20.4556 58.8074 18.8642 59.1611 17.0454L60.6262 16.5908L61.283 16.2877C61.4598 17.0202 61.7124 17.8791 62.0408 18.9148C62.1671 19.319 62.3691 19.8747 62.6723 20.5567L63.6322 20.2536L63.6069 20.203ZM61.8639 20.7335C61.6113 20.0767 61.4345 19.521 61.283 19.0663C61.0809 18.3843 60.8535 17.7527 60.6515 17.197L59.7673 17.4749C59.6663 17.9296 59.5905 18.5106 59.4894 19.2431C59.4136 19.9757 59.3884 20.7335 59.4136 21.4913L61.8639 20.7335Z" fill="#F2F3FA"/>
<path d="M68.4311 16.5403C68.4563 16.6919 68.5069 16.894 68.5574 17.1466L64.9957 18.0307C65.1472 18.5359 65.4503 18.9148 65.8797 19.1674C66.3092 19.42 66.8397 19.4958 67.4207 19.3442C67.9511 19.2179 68.4311 19.0411 68.8605 18.8138L68.9363 19.5716C68.6332 19.7989 68.1532 19.9757 67.4964 20.1273C66.5871 20.3294 65.8545 20.2536 65.2482 19.8747C64.6672 19.4958 64.2884 18.9401 64.1115 18.2328C63.9347 17.4749 64.0105 16.7677 64.3136 16.1362C64.6167 15.4794 65.1472 15.0752 65.8545 14.8983C66.5366 14.7468 67.0923 14.8226 67.5217 15.1257C67.9512 15.4289 68.2542 15.9088 68.4058 16.5403H68.4311ZM67.5469 16.7424C67.3196 15.7572 66.7891 15.3783 65.9808 15.5551C65.1472 15.7572 64.7683 16.3635 64.8693 17.4244L67.5469 16.7424Z" fill="#F2F3FA"/>
<path d="M74.4442 18.7128L73.5348 18.8644C73.4843 18.2328 73.3832 17.4498 73.2317 16.5404C73.1054 15.8331 73.0043 15.1511 72.8528 14.4943L71.7919 14.6711C71.7414 15.0753 71.6908 15.4795 71.6402 15.8836C71.5645 16.2878 71.4887 16.6415 71.4129 16.9951C71.3119 17.3487 71.2108 17.6771 71.1098 17.9802C70.9835 18.2834 70.8825 18.536 70.7309 18.7633C70.6046 18.9906 70.453 19.1675 70.3014 19.2938C70.1499 19.4201 69.9983 19.5212 69.8468 19.5464L69.6699 18.7128C69.6699 18.7128 69.8468 18.6118 69.9478 18.4855C70.0489 18.3592 70.1499 18.1823 70.2509 17.9802C70.352 17.7781 70.453 17.5256 70.5541 17.2224C70.6551 16.9446 70.7309 16.6162 70.832 16.2878C70.933 15.9594 70.9835 15.6057 71.0593 15.2268C71.1351 14.8479 71.1603 14.4691 71.2109 14.0901L72.9538 13.8122L73.6611 13.5849C73.7369 14.3175 73.8632 15.2268 74.0148 16.313C74.1411 17.1466 74.2927 17.955 74.4695 18.7128H74.4442Z" fill="#F2F3FA"/>
<path d="M79.8499 16.4393C79.9004 16.9951 79.7237 17.4245 79.2942 17.7781C78.8648 18.1318 78.3848 18.3086 77.8038 18.3844C77.5259 18.4096 76.8945 18.4601 75.9598 18.5359C75.9346 17.8286 75.8588 17.0203 75.783 16.0856C75.6819 15.05 75.5303 14.2164 75.3535 13.5091L76.364 13.2565C76.364 13.7112 76.4145 14.3932 76.5156 15.2774C76.8692 15.1763 77.1724 15.1005 77.3997 15.1005C78.9153 14.949 79.7237 15.4036 79.8247 16.4393H79.8499ZM79.0416 16.6162C78.9658 15.9594 78.4606 15.6563 77.4755 15.7573C77.2987 15.7573 76.9955 15.833 76.5661 15.9341C76.6166 16.5656 76.6924 17.1719 76.7682 17.7781C77.1218 17.7781 77.4502 17.7781 77.7533 17.7529C78.6627 17.6771 79.0921 17.2982 79.0163 16.6414L79.0416 16.6162Z" fill="#F2F3FA"/>
<path d="M85.4084 17.9298H84.4738C84.499 17.273 84.499 16.4899 84.4738 15.6058L81.9224 15.6816C81.9224 16.4899 81.9982 17.273 82.074 18.0309H81.1393C81.1646 17.3488 81.1899 16.5152 81.1393 15.6058C81.1141 14.5701 81.013 13.7113 80.8867 13.0292L81.9224 12.8524C81.9224 13.105 81.9224 13.8376 81.9224 14.9996L84.4738 14.9238C84.4232 14.1154 84.3475 13.4586 84.2464 12.9282L85.2821 12.7514C85.2569 13.5092 85.2569 14.4186 85.2821 15.4795C85.2821 16.3384 85.3579 17.1467 85.4337 17.9298H85.4084Z" fill="#F2F3FA"/>
<path d="M90.8902 16.3637C90.8902 16.9194 90.6376 17.3236 90.1829 17.6267C89.7282 17.9046 89.2229 18.0308 88.6672 18.0056C88.3893 18.0056 87.8083 17.955 87 17.9045C87.0758 17.1972 87.1263 16.3889 87.1516 15.4542C87.2021 14.4185 87.1516 13.5597 87.0758 12.8524L88.0862 12.7514C88.0357 13.2061 87.9852 13.8628 87.9599 14.7722C88.2125 14.7217 88.4651 14.6964 88.6924 14.6964C90.2081 14.7722 90.9659 15.3027 90.9154 16.3384L90.8902 16.3637ZM90.0565 16.4141C90.0818 15.7574 89.6018 15.4038 88.6419 15.3532C88.4651 15.3532 88.2125 15.3532 87.9093 15.4037C87.8841 16.0353 87.8589 16.6415 87.8589 17.2478C88.1115 17.2983 88.3893 17.3235 88.6924 17.3488C89.5765 17.374 90.0313 17.0709 90.0565 16.4141ZM92.5574 18.1319L91.6227 18.0814C91.6984 17.3741 91.7742 16.5657 91.7995 15.6311C91.85 14.5954 91.7995 13.7365 91.7237 13.0292L92.7594 12.9282C92.6836 13.6607 92.6078 14.5702 92.5826 15.6564C92.5573 16.5152 92.5321 17.3236 92.5826 18.1066L92.5574 18.1319Z" fill="#F2F3FA"/>
<path d="M98.3662 18.8139L97.4063 18.6875C97.5326 18.0813 97.6589 17.273 97.7852 16.2625C97.8104 15.9847 97.8863 15.5552 97.9873 14.9742H97.9367C97.8357 15.2016 97.28 15.7826 96.2443 16.7172C95.2844 17.6013 94.7792 18.1571 94.754 18.3592L93.9961 18.2581C94.1224 17.5508 94.2487 16.7425 94.375 15.8331C94.5013 14.7975 94.5519 13.9386 94.5013 13.2313H95.5622C95.4359 13.8628 95.3096 14.6964 95.1833 15.7068C95.1328 16.0604 95.0823 16.5152 94.9813 17.0709H95.0318C95.1328 16.8688 95.6886 16.2878 96.699 15.3279C97.6589 14.4438 98.1388 13.8881 98.1641 13.686L98.9472 13.6354C98.8209 14.368 98.6946 15.2774 98.5431 16.3383C98.442 17.1972 98.3662 18.0055 98.3157 18.7633L98.3662 18.8139ZM98.7956 11.4377C98.7451 11.8167 98.5936 12.1703 98.2904 12.4482C98.0126 12.726 97.5579 12.8271 96.9769 12.7766C96.3707 12.7008 95.9412 12.4987 95.7391 12.145C95.537 11.7914 95.4359 11.4377 95.4865 11.0336H96.2695C96.1938 11.7409 96.4464 12.1198 97.0527 12.1956C97.4063 12.2461 97.6589 12.1956 97.8105 12.0188C97.962 11.8419 98.063 11.5893 98.0883 11.2609L98.7956 11.463V11.4377Z" fill="#F2F3FA"/>
<path d="M106.549 20.4557L105.614 20.2284C105.614 20.2284 105.563 20.0768 105.538 19.9253C105.488 19.1422 105.361 18.5864 105.159 18.2581C104.957 17.9297 104.679 17.7023 104.25 17.6013C104.098 17.576 103.921 17.5255 103.694 17.475C103.517 18.2833 103.366 19.0159 103.265 19.6979L102.33 19.4958C102.532 18.8138 102.76 18.0307 102.962 17.1213C103.189 16.1109 103.315 15.252 103.34 14.5447L104.401 14.6458C104.199 15.3026 104.023 16.0351 103.82 16.8435C104.023 16.894 104.199 16.9445 104.376 16.9697C105.159 17.1466 105.841 16.6413 106.422 15.4541C106.473 15.3783 106.523 15.3025 106.599 15.2267L107.458 15.4289C107.458 15.4289 107.306 15.631 107.18 15.8331C106.523 16.8435 105.942 17.3739 105.412 17.4497V17.5002C105.715 17.677 105.942 17.9296 106.094 18.3085C106.245 18.6622 106.347 19.1674 106.422 19.8242C106.422 20.0263 106.473 20.2284 106.523 20.4557H106.549Z" fill="#F2F3FA"/>
<path d="M113.094 19.6221C112.816 20.5062 112.361 21.0871 111.704 21.4155C111.048 21.7439 110.391 21.8197 109.709 21.5924C109.077 21.3903 108.597 21.0113 108.269 20.4303C107.941 19.8493 107.915 19.1673 108.168 18.3842C108.446 17.5001 108.901 16.8938 109.557 16.5655C110.214 16.2371 110.871 16.1613 111.553 16.3887C112.184 16.5908 112.664 16.9697 112.968 17.5507C113.271 18.1317 113.321 18.8137 113.069 19.5968L113.094 19.6221ZM112.159 19.5463C112.336 19.0158 112.336 18.5105 112.21 18.0053C112.083 17.5001 111.755 17.1718 111.275 17.0202C110.795 16.8686 110.34 16.9444 109.961 17.2475C109.583 17.5507 109.305 17.9801 109.128 18.4853C108.951 19.0158 108.951 19.5462 109.077 20.0262C109.204 20.5314 109.532 20.8598 110.037 21.0114C110.517 21.1629 110.972 21.0871 111.351 20.784C111.73 20.4809 112.008 20.0515 112.159 19.5463Z" fill="#F2F3FA"/>
<path d="M119.077 25.0029L118.243 24.6493C118.496 24.043 118.824 23.2599 119.228 22.3505C119.607 21.4412 119.835 20.8854 119.936 20.6833H119.86C119.658 20.8601 119.279 21.2643 118.698 21.8201C117.334 23.0073 116.627 23.7146 116.526 23.9167L115.843 23.6388C115.97 23.361 116.02 22.401 116.046 20.7591C116.046 20.3802 116.071 19.8245 116.147 19.0667H116.096C115.995 19.2435 115.717 19.875 115.212 20.9107C114.707 21.9463 114.404 22.6284 114.252 22.9316L113.52 22.6032C113.52 22.6032 113.924 21.8453 114.606 20.5823C115.288 19.3445 115.717 18.5109 115.894 18.0815L117.106 18.5867C116.93 18.9909 116.854 19.774 116.829 20.9359C116.829 22.0979 116.778 22.7547 116.728 22.9063H116.778C116.778 22.9063 117.309 22.3253 118.167 21.5422C119.052 20.7591 119.582 20.1528 119.759 19.7234L120.921 20.2287C120.744 20.6581 120.416 21.5169 119.91 22.8052C119.431 24.1188 119.153 24.8261 119.077 24.9777V25.0029Z" fill="#F2F3FA"/>
<path d="M125.973 25.912C125.518 26.6951 124.963 27.1497 124.255 27.3013C123.548 27.4528 122.891 27.3518 122.26 26.9982C121.426 26.5182 121.022 25.8615 121.073 25.0531C121.098 24.4216 121.426 23.588 122.007 22.5271C122.664 21.3651 123.397 20.6577 124.23 20.4304C124.887 20.2283 125.67 20.3293 126.579 20.7335C127.085 20.9609 127.666 21.1883 128.272 21.4409L127.817 22.1734C127.539 22.0471 126.958 21.7692 126.099 21.3903C125.417 21.1124 124.887 21.0114 124.508 21.0872C124.003 21.1882 123.523 21.6177 123.093 22.3755H123.144C123.775 22.1734 124.432 22.2491 125.089 22.6281C125.695 22.9564 126.074 23.4112 126.302 23.9921C126.504 24.5731 126.403 25.2047 125.998 25.912H125.973ZM125.064 25.6089C125.342 25.1289 125.443 24.6742 125.392 24.2195C125.342 23.7648 125.089 23.4112 124.609 23.1586C123.978 22.7797 123.346 22.7291 122.74 22.9817C122.209 23.9164 121.931 24.6742 121.931 25.23C121.931 25.7857 122.184 26.1899 122.664 26.493C123.093 26.7456 123.548 26.7708 124.003 26.594C124.458 26.4172 124.811 26.0888 125.064 25.6341V25.6089Z" fill="#F2F3FA"/>
<path d="M129.16 31.3683L128.376 30.8126C128.781 30.3579 129.286 29.7011 129.892 28.8927C130.069 28.6654 130.321 28.3118 130.7 27.8823H130.65C130.448 28.0086 129.665 28.236 128.326 28.5391C127.038 28.8423 126.356 29.0696 126.229 29.2464L125.623 28.7917C126.078 28.2359 126.583 27.6045 127.139 26.8719C127.745 26.0383 128.2 25.3058 128.528 24.6743L129.463 25.1794C129.033 25.6846 128.528 26.3414 127.922 27.175C127.72 27.4529 127.417 27.8318 127.088 28.2612H127.139C127.341 28.1602 128.099 27.9328 129.463 27.6044C130.726 27.3013 131.433 27.0487 131.534 26.8971L132.241 27.2255C131.761 27.8065 131.206 28.5139 130.574 29.398C130.069 30.08 129.614 30.762 129.185 31.4188L129.16 31.3683Z" fill="#F2F3FA"/>
<path d="M133.328 35.2332L132.646 34.5764C133.151 34.1217 133.707 33.566 134.338 32.9345L132.494 31.1662C131.939 31.7472 131.408 32.3283 130.928 32.9345L130.246 32.2777C130.777 31.7978 131.358 31.2168 131.989 30.56C132.696 29.8022 133.252 29.1454 133.631 28.5392L134.49 29.1454C134.288 29.3222 133.783 29.8275 132.949 30.6611L134.793 32.4293C135.323 31.8483 135.753 31.3178 136.056 30.8631L136.915 31.4693C136.359 31.9746 135.728 32.6314 134.97 33.4145C134.389 34.0207 133.833 34.6522 133.328 35.2332Z" fill="#F2F3FA"/>
<path d="M136.739 39.4265L136.183 38.795C136.284 38.6435 136.41 38.5424 136.537 38.4413V38.3908C135.93 38.2898 135.4 37.9361 134.92 37.3551C134.667 37.0268 134.541 36.6731 134.541 36.2942C134.541 35.9153 134.718 35.5869 135.071 35.309C135.501 34.9807 136.006 34.8796 136.537 35.0311C137.092 35.1827 137.749 35.7638 138.557 36.7489C138.633 36.6984 138.709 36.6479 138.81 36.5721C139.164 36.2942 139.315 36.0163 139.29 35.7637C139.265 35.4858 139.088 35.1574 138.81 34.8038C138.456 34.3744 138.078 33.9702 137.623 33.6418L138.254 33.2629C138.709 33.5913 139.138 34.0207 139.568 34.5765C139.972 35.0817 140.149 35.5364 140.174 35.9658C140.174 36.3953 139.947 36.8247 139.442 37.2036C139.315 37.3046 139.063 37.4815 138.709 37.7593C138.355 38.0119 138.128 38.1887 138.002 38.2898C137.496 38.6939 137.067 39.0729 136.713 39.477L136.739 39.4265ZM136.966 38.0372C137.37 37.6835 137.749 37.3804 138.103 37.1025C137.699 36.5721 137.345 36.1931 137.042 35.9911C136.537 35.6374 136.082 35.6122 135.703 35.9406C135.324 36.2437 135.349 36.6479 135.753 37.2036C136.107 37.6583 136.511 37.9361 136.966 38.0372Z" fill="#F2F3FA"/>
<path d="M143.785 41.422L143.078 41.7757C142.85 41.2452 142.598 40.7399 142.32 40.2347C141.89 40.4621 141.309 40.7653 140.627 41.1694C139.87 41.5989 139.188 42.003 138.531 42.4325L138.051 41.5735C138.708 41.2704 139.415 40.8915 140.223 40.4368C140.88 40.0579 141.436 39.7295 141.89 39.4516C141.613 38.9717 141.309 38.4665 140.981 37.9866L141.688 37.6329L143.81 41.3968L143.785 41.422Z" fill="#F2F3FA"/>
<path d="M140.45 77.5702C141.005 78.2017 141.586 78.8332 142.142 79.49C142.319 79.6921 142.319 79.97 142.066 80.1721C140.93 81.1825 139.742 82.1424 138.53 83.0265C138.201 83.2538 137.772 83.2034 137.393 83.1528C136.56 83.0771 136.206 82.4961 135.802 81.9656C134.716 80.5763 133.655 79.1617 132.568 77.7723C132.467 77.6208 132.265 77.5702 132.114 77.4439C132.088 77.4692 132.038 77.4944 132.013 77.5197C132.013 78.4796 132.013 79.4143 131.962 80.3742C131.962 80.9804 131.937 81.612 131.886 82.2182C131.836 83.0266 131.735 83.8096 131.659 84.6179C131.583 85.4768 131.558 86.3104 131.482 87.1693C131.482 87.3714 131.507 87.5735 131.432 87.7503C131.331 88.0029 131.23 88.306 131.002 88.4576C130.093 89.0891 129.133 89.6448 128.173 90.1753C127.744 90.4279 127.466 90.3268 127.238 89.9732C125.47 86.8914 123.702 83.8096 121.934 80.7278C121.681 80.2731 121.681 80.2984 121.252 80.5257C120.974 80.6773 120.696 81.0057 120.342 80.7531C120.115 80.6015 119.837 80.4499 119.685 80.2226C119.357 79.7426 119.13 79.2122 118.827 78.7069C118.498 78.1765 118.599 77.5702 119.18 77.2924C120.014 76.8882 120.797 76.4082 121.605 75.9536C122.161 75.6252 122.793 75.7767 123.323 76.004C123.651 76.1556 123.98 76.5093 124.182 76.8377C125.293 78.5049 126.354 80.1973 127.44 81.8898C127.516 82.0161 127.617 82.0919 127.693 82.2182C127.744 82.2182 127.769 82.2182 127.819 82.1929C127.87 81.713 127.92 81.2077 127.971 80.7278C128.047 79.8184 128.072 78.8838 128.097 77.9744C128.097 77.2671 128.072 76.5598 128.097 75.8525C128.097 75.1957 128.148 74.5642 128.148 73.9074C128.148 73.2001 128.097 72.4929 128.072 71.7856C128.072 71.6593 128.123 71.5077 128.224 71.4319C128.956 70.8509 129.689 70.2194 130.447 69.6384C130.75 69.3858 131.23 69.5121 131.533 69.8657C133.453 72.1139 135.372 74.3621 137.292 76.6356C137.646 77.065 138.025 77.4692 138.378 77.9239C138.58 78.2017 138.757 78.1512 139.035 77.9239C139.262 77.7471 139.54 77.5702 139.793 77.4439C140.046 77.3176 140.298 77.3681 140.475 77.5702H140.45ZM154.343 61.6055C153.863 61.555 153.459 61.6813 153.206 62.2371C152.954 62.7423 152.676 62.8433 152.322 62.5907C149.493 60.5698 146.689 58.549 143.86 56.5281C143.355 56.1745 142.799 56.3008 142.471 56.7807C141.991 57.4628 141.46 58.1195 140.98 58.8016C140.879 58.9531 140.829 59.1805 140.854 59.3573C140.879 59.6352 140.98 59.9383 141.056 60.2162C141.233 60.8729 141.435 61.5045 141.586 62.1613C141.713 62.717 141.763 63.298 141.89 63.879C142.066 64.6873 142.243 65.4956 142.395 66.304C142.445 66.5061 142.395 66.7334 142.445 66.9355C142.622 67.7944 142.799 68.628 142.976 69.5121C142.622 69.6637 142.445 69.6132 142.243 69.4363C140.879 68.1228 139.49 66.7839 138.1 65.4956C137.848 65.2683 137.545 65.1167 137.242 64.9652C136.585 64.662 135.903 64.7883 135.423 65.1925C134.589 65.8998 133.806 66.6829 133.023 67.4407C132.745 67.7186 132.745 67.9712 133.023 68.2743C133.579 68.9058 134.135 69.5121 134.69 70.1184C134.842 70.2952 135.019 70.3457 135.297 70.3204C135.65 70.2699 135.827 70.0425 136.029 69.8404C136.383 69.5121 136.383 69.5121 136.711 69.8404C139.136 72.417 141.561 74.9936 143.986 77.5702C144.289 77.8986 144.668 77.8986 145.072 77.5197C145.881 76.7619 146.689 75.9788 147.447 75.12C147.624 74.9179 147.75 74.5389 147.75 74.2863C147.75 73.6548 147.624 73.0485 147.548 72.4423C147.472 71.8613 147.371 71.2804 147.295 70.6994C147.169 69.7647 147.043 68.83 146.891 67.8954C146.664 66.6071 146.386 65.3693 146.083 64.1063C146.083 64.0305 146.083 63.9043 146.159 63.8285C146.184 63.778 146.31 63.8285 146.386 63.8285C146.462 63.8285 146.537 63.9042 146.588 63.9548C148.003 65.0915 149.417 66.2534 150.832 67.3902C151.185 67.668 151.514 67.9712 152.044 67.9965C152.802 68.047 153.535 67.9712 154.116 67.2386C155 66.1524 155.833 64.9904 156.642 63.8032C156.869 63.4748 156.819 63.2222 156.541 63.0453C156.137 62.7927 155.732 62.5402 155.379 62.2371C155.076 62.0097 154.899 61.6055 154.419 61.555L154.343 61.6055ZM35.6686 64.8136C35.9465 64.5105 36.2496 64.1821 36.5275 63.879C36.7296 63.6516 36.8054 63.3738 36.6538 63.197C36.3254 62.7675 35.9212 62.3886 35.5676 61.9844C35.4413 61.8329 35.2897 61.7065 35.1382 61.555C34.8856 61.3529 34.6582 61.1256 34.3803 60.974C34.254 60.9235 34.0267 61.0245 33.8751 61.1003C33.6983 61.2013 33.572 61.3529 33.4205 61.5045C31.728 63.1464 30.0356 64.7883 28.3684 66.4555C28.1915 66.6324 28.0147 66.7587 27.7368 66.6324C27.3832 66.4808 27.0295 66.3545 26.6759 66.1777C26.3222 66.0009 25.9433 65.8493 25.6402 65.5967C25.1097 65.1167 24.655 64.5358 24.1751 63.98C23.7456 63.5001 23.6193 62.9191 23.6193 62.3633C23.6193 61.5045 24.0993 60.873 24.6802 60.3425C25.236 59.8373 25.8423 59.4079 26.398 58.9279C27.1306 58.3217 27.8884 57.7406 28.5957 57.0839C29.2272 56.5281 29.4293 55.4672 28.9999 54.8104C28.4189 53.8758 27.762 52.9411 27.1305 52.0065C26.9032 51.6528 26.398 51.5265 26.1454 51.6781C25.3876 52.1833 24.655 52.6885 23.9225 53.1937C23.8214 53.2695 23.7709 53.4716 23.7456 53.5979C23.6951 54.0273 23.9982 54.3052 24.2256 54.6083C24.4277 54.8609 24.4024 55.0125 24.1245 55.2398C22.8615 56.225 21.3711 56.9323 20.3354 58.2206C20.0828 58.549 19.805 58.9026 19.5776 59.2815C19.2745 59.8625 19.0724 60.4688 19.0472 61.1761C18.9967 61.9086 18.9966 62.6412 19.2745 63.3737C19.3756 63.6011 19.4261 63.8537 19.5271 64.081C19.704 64.5105 19.8555 64.9904 20.1334 65.3693C21.068 66.5566 21.9522 67.8196 23.2404 68.628C23.5688 68.8301 23.8972 69.0069 24.2509 69.1584C24.7055 69.3605 24.8823 69.7647 24.6045 70.0426C22.912 71.6845 21.2196 73.3517 19.5271 74.9936C19.0977 75.3978 19.1229 75.6757 19.6281 76.1809C20.3607 76.9387 21.1185 77.6713 21.8764 78.3785C22.4573 78.909 22.71 78.9091 23.1394 78.4291C25.3371 76.0546 27.5095 73.6548 29.6819 71.2803C31.6522 69.1332 33.6225 66.986 35.5928 64.8389L35.6686 64.8136ZM37.8158 90.2258C36.6285 89.5437 35.4413 88.8112 34.3045 88.0281C33.7993 87.6745 33.6983 87.144 33.572 86.6388C33.5215 86.4873 33.5215 86.3357 33.471 86.1336C32.3342 86.2346 31.2986 86.0073 30.2376 85.5273C29.404 85.1484 28.6967 84.6179 28.0147 84.0117C27.7621 83.8096 27.5852 83.5064 27.3832 83.2538C26.6759 82.395 26.2212 81.4351 26.0443 80.3994C25.9938 80.0205 25.918 79.6163 25.9686 79.2627C26.0443 78.7322 26.1201 78.1512 26.3727 77.6965C26.8527 76.8377 27.5095 76.1051 28.4188 75.6756C28.8988 75.4483 29.404 75.221 29.9092 75.1452C30.4144 75.0694 30.9702 75.1452 31.5006 75.221C31.9806 75.2968 32.4606 75.3978 32.9405 75.5241C33.2184 75.5999 33.4962 75.7514 33.7741 75.8525C34.6329 76.1809 35.3655 76.7114 36.1739 77.0903C36.8559 77.4187 37.4622 77.7975 38.0684 78.2017C38.2452 78.3027 38.3463 78.2523 38.4473 78.1007C38.8515 77.4439 38.9525 76.3072 38.1442 75.7767C37.6137 75.4231 37.1337 75.0442 36.6033 74.6905C36.1991 74.4127 36.0475 74.4632 35.7444 74.8421C35.5423 75.0947 35.3655 75.3978 34.9866 75.322C34.6077 75.2463 34.2793 75.0694 33.9762 74.7663C33.7236 74.4884 33.3952 74.2611 33.0668 74.059C32.6121 73.7559 32.2837 73.3769 32.2079 72.8465C32.2079 72.7707 32.2332 72.6444 32.309 72.5686C32.7132 72.0887 33.0668 71.5834 33.5215 71.1793C33.7993 70.9267 34.2036 70.8257 34.5319 70.6994C35.1129 70.4468 35.6939 70.5225 36.2749 70.7499C36.4012 70.8004 36.578 70.7498 36.7043 70.8004C37.159 70.9772 37.639 71.1793 38.0684 71.3814C38.801 71.735 39.5083 72.114 40.1145 72.6697C40.7966 73.3265 41.5544 73.9074 42.0344 74.741C42.5901 75.7009 42.9184 76.7366 42.7921 77.9239C42.7416 78.4543 42.5648 78.909 42.4385 79.4142C42.1101 80.6015 41.327 81.5108 40.746 82.5465C40.1145 83.6833 39.4072 84.7947 38.7251 85.881C38.5483 86.1588 38.6241 86.3104 38.902 86.4873C39.2051 86.6893 39.483 86.9167 39.7356 87.1693C39.9377 87.3714 39.9882 87.5987 39.8366 87.8513C39.4072 88.5586 39.0283 89.2659 38.5989 89.9732C38.422 90.2763 38.1442 90.3521 37.7905 90.15L37.8158 90.2258ZM36.1233 81.5614C36.3506 81.2078 36.3507 81.0815 35.9717 80.8541C34.9361 80.2479 33.9257 79.6163 32.7637 79.2374C31.9301 78.9848 31.2228 79.0101 30.8438 79.6669C30.5407 79.9447 30.3134 80.3994 30.4902 80.8288C30.6671 81.2835 30.9955 81.7382 31.3744 82.0414C32.3848 82.9002 33.5215 83.077 34.6582 82.5718C35.214 82.3192 35.7949 82.0666 36.1486 81.5361L36.1233 81.5614ZM90.9136 96.2883C91.2167 96.8188 91.242 97.3746 91.242 97.905C91.242 98.385 91.0147 98.8397 90.8631 99.3196C90.6863 99.9511 90.2569 100.456 89.7769 100.911C89.4233 101.265 88.8928 101.442 88.4381 101.694C87.4024 102.275 86.2404 102.326 85.0784 102.351C83.2849 102.401 81.4662 102.401 79.6727 102.3C79.2432 102.3 78.8138 102.149 78.4096 102.048C77.9044 101.896 77.7276 101.467 77.576 101.088C77.4244 100.709 77.3992 100.305 77.4244 99.9006C77.5002 98.4355 77.6013 96.9704 77.7023 95.5052C77.8034 93.9896 77.9044 92.4487 78.0055 90.9331C78.0307 90.4026 78.0054 90.4027 77.5255 90.3521C77.2224 90.3269 76.8435 90.4531 76.6666 90.0742C76.5403 89.8721 76.414 89.6196 76.414 89.3922C76.414 88.6849 76.5151 88.0028 76.5909 87.2955C76.6414 86.7903 76.9698 86.4872 77.4497 86.5125C78.4349 86.563 79.42 86.6388 80.4052 86.664C82.0218 86.7398 83.6385 86.7399 85.2299 86.7146C85.7604 86.7146 86.2909 86.7903 86.7709 87.0429C87.1245 87.2197 87.5287 87.245 87.8571 87.4724C88.5139 87.9018 89.0443 88.4576 89.4232 89.2407C89.7769 89.948 89.7516 90.6805 89.8527 91.4383C89.9032 91.893 89.7517 92.2972 89.5496 92.7014C89.4233 92.9792 89.2464 93.2066 89.1454 93.4844C89.0696 93.6865 89.0191 93.9138 89.297 94.0907C90.08 94.6211 90.5347 95.379 90.9642 96.1873L90.9136 96.2883ZM82.0472 92.4487C82.0472 92.7013 82.1482 92.8024 82.4008 92.8024C82.8555 92.8024 83.3355 92.7772 83.7902 92.8024C84.2954 92.8277 84.75 92.7014 85.2299 92.5498C85.5331 92.4487 85.8615 91.5393 85.7099 91.2362C85.6594 91.1352 85.6089 91.0089 85.5836 90.8826C85.5584 90.6047 85.3816 90.4026 85.129 90.3268C84.6237 90.2005 84.0932 90.1247 83.5627 90.0489C83.5627 90.0742 83.5627 90.0995 83.5627 90.1247C83.2091 90.1247 82.8302 90.1247 82.4766 90.1247C82.2492 90.1247 82.0977 90.2006 82.0977 90.5037C82.0977 91.1605 82.0977 91.792 82.0977 92.4487H82.0472ZM86.3667 96.7178C85.8615 96.1115 85.1542 96.0862 84.4975 95.9852C83.8659 95.8842 83.1838 95.9852 82.5523 95.9852C82.2239 95.9852 82.0471 96.1621 82.0219 96.4904C82.0219 97.223 82.0219 97.9808 81.9966 98.7134C81.9966 98.9913 82.1229 99.067 82.3755 99.067C82.8302 99.067 83.2849 99.067 83.7649 99.067C84.0933 99.067 84.3964 99.067 84.7248 99.067C85.4321 99.067 86.0131 98.8902 86.4678 98.3344C86.7962 97.9302 86.7204 97.1472 86.392 96.7431L86.3667 96.7178ZM56.5592 97.9303C56.6855 97.6777 56.8118 97.4503 56.837 97.1472C56.837 96.8946 57.0392 96.642 57.1907 96.3894C57.4181 96.0357 57.5444 95.0253 56.9381 94.697C56.7613 94.5959 56.5592 94.5201 56.3824 94.4695C56.0456 94.3517 55.9276 94.1412 56.0287 93.838C57.1149 90.5541 58.2264 87.2703 59.3126 83.9864C59.5147 83.3802 59.3126 82.9507 58.7821 82.7487C58.1253 82.4961 57.4685 82.2687 56.8118 82.0414C56.1045 81.7635 55.8519 81.8645 55.5487 82.6223C55.0182 83.9864 54.4626 85.3505 53.9321 86.7146C53.831 86.9925 53.6795 87.0934 53.4016 86.9671C51.8607 86.3356 50.3198 85.6789 48.8042 84.9716C48.4758 84.82 48.4505 84.6432 48.6021 84.3401C48.8799 83.7844 49.1578 83.2286 49.4104 82.6476C49.663 82.0919 49.9662 81.5614 50.0672 80.9299C50.1683 80.3994 50.1683 79.97 49.9157 79.5406C49.7641 79.288 49.6378 78.9848 49.4104 78.8585C48.4505 78.3028 47.4906 77.7975 46.5307 77.2671C46.1266 77.0397 45.7729 77.1913 45.5203 77.6208C45.1413 78.2523 44.7624 78.8838 44.4088 79.5406C44.3583 79.6416 44.333 79.7931 44.333 79.9447C44.3077 80.5257 44.7625 80.6773 45.1414 80.8794C45.5203 81.1067 45.5455 81.1067 45.3182 81.4856C44.4593 83.0518 43.6005 84.5927 42.7416 86.1589C41.8828 87.725 41.0239 89.2659 40.1903 90.832C40.1145 90.9583 40.1145 91.1352 40.1145 91.2868C40.1145 91.6404 40.4682 91.7667 40.746 91.9183C41.5796 92.373 42.4385 92.8276 43.3226 93.2318C43.9036 93.5097 44.2067 93.4339 44.4594 92.9034C45.1666 91.4635 45.8739 89.9984 46.556 88.5586C46.6823 88.2807 46.8338 88.205 47.137 88.3565C48.6779 89.1143 50.244 89.7711 51.8354 90.4026C52.3659 90.6047 52.3659 90.6047 52.1638 91.1099C51.7344 92.1709 51.3302 93.257 50.9008 94.318C50.5471 95.1516 51.0523 96.5662 52.0627 96.9451C53.3005 97.4251 54.5636 97.8545 55.8266 98.2334C56.1298 98.3345 56.3571 98.2334 56.5086 97.9303H56.5592ZM73.4585 99.2691C72.928 99.7743 72.2208 100.178 71.5135 100.507C70.8062 100.835 70.0484 101.037 69.2653 101.239C68.9622 101.315 68.6085 101.315 68.3054 101.315C67.497 101.315 66.6634 101.265 65.8551 101.214C64.9205 100.987 64.0363 100.684 63.2027 100.204C62.8996 100.027 62.5459 99.9259 62.2681 99.7238C61.586 99.2944 60.9293 98.8397 60.4999 98.1577C60.1715 97.6272 59.6915 97.1725 59.4136 96.642C59.1105 96.0105 58.9589 95.3284 58.7821 94.6717C58.6558 94.1917 58.6305 93.6865 58.5547 93.1813C58.5547 93.156 58.5547 93.1055 58.5547 93.0802C58.7821 92.1709 58.7316 91.211 59.161 90.3521C59.3631 89.948 59.4894 89.4932 59.7673 89.1396C60.3483 88.4323 60.8788 87.6745 61.6113 87.0682C62.1671 86.6388 62.7228 86.2346 63.3038 85.9062C63.9605 85.5273 64.6678 85.2999 65.4256 85.1484C66.7897 84.8705 68.1033 84.8958 69.4169 85.1989C69.7958 85.2747 70.1746 85.4515 70.5535 85.6283C70.9324 85.8052 71.3366 85.9567 71.6903 86.1841C72.1197 86.4619 72.5492 86.7651 72.9533 87.1188C73.307 87.4219 73.6353 87.7503 73.9385 88.1039C74.2416 88.5081 74.5448 88.9375 74.7721 89.3922C75.05 89.948 75.2773 90.5542 75.4794 91.1604C75.9088 92.3729 76.0098 93.636 75.7572 94.899C75.6057 95.7074 75.3278 96.4904 74.9489 97.2482C74.5448 98.0313 74.0143 98.6881 73.408 99.2691H73.4585ZM71.5892 92.1456C71.5892 91.792 71.463 91.3878 71.2356 91.1099C70.8315 90.6047 70.6293 89.948 70.0231 89.6448C69.6442 89.4428 69.2652 89.2154 68.8863 89.0133C68.7853 88.9628 68.659 88.988 68.558 88.9123C68.0528 88.5839 67.4717 88.6849 66.916 88.7101C66.5371 88.7101 66.1329 88.8112 65.8045 88.988C65.2488 89.2912 64.7184 89.5943 64.2637 90.0995C63.8342 90.5542 63.5564 91.0341 63.329 91.5646C62.8238 92.7013 62.8238 93.8886 63.3795 95.0506C63.9605 96.2378 64.8952 97.0967 66.6129 97.4756C67.3202 97.6777 68.2801 97.5514 69.1642 97.1977C70.4525 96.6673 71.1598 95.6063 71.5387 94.3686C71.7661 93.636 71.6398 92.9035 71.5892 92.1709V92.1456ZM124.788 91.413C124.485 90.8068 124.131 90.2258 123.853 89.6196C123.525 88.8365 122.565 88.9628 122.009 89.3922C121.58 89.7206 121.075 89.7964 120.721 89.4427C120.595 89.3164 120.443 89.2407 120.292 89.1649C119.231 88.6597 118.22 88.0534 117.361 87.3208C116.654 87.2198 116.781 86.7904 116.932 86.3104C117.033 85.982 117.033 85.6536 117.109 85.3252C117.26 84.5421 117.437 83.7844 117.538 83.0013C117.639 82.3445 117.69 81.6624 117.766 81.0057C117.816 80.5257 117.917 80.071 117.942 79.5911C117.942 79.3637 117.942 79.1111 117.841 78.9343C117.715 78.6817 117.21 78.5806 116.957 78.7069C116.073 79.1364 115.189 79.5658 114.305 80.0205C114.153 80.0963 114.002 80.2984 113.951 80.4752C113.85 80.9552 113.774 81.4351 113.699 81.915C113.572 82.6476 113.446 83.3801 113.295 84.138C113.219 84.5674 113.067 85.0221 113.067 85.4516C113.067 86.1589 112.764 86.7398 112.107 87.0177C111.653 87.1945 111.627 87.1945 111.45 86.7398C111.072 85.7294 110.642 84.7442 110.289 83.7338C110.137 83.3044 109.859 83.0265 109.455 82.8244C108.95 82.5971 108.419 82.4455 107.889 82.6223C106.929 82.9507 105.969 83.2791 104.984 83.5822C104.706 83.6833 104.554 83.9864 104.63 84.3148C104.858 85.1231 105.085 85.9315 105.363 86.7398C105.489 87.144 105.843 87.2703 106.222 87.1693C106.424 87.1187 106.6 87.0682 106.777 86.9924C107.08 86.8661 107.232 86.9924 107.358 87.2955C107.914 88.988 108.47 90.7058 109.025 92.3982C109.556 94.0402 110.112 95.7074 110.642 97.3493C110.844 97.9303 111.046 98.0313 111.728 97.804C112.537 97.5514 113.37 97.2987 114.179 96.9956C115.063 96.6925 115.189 96.4399 114.886 95.6568C114.28 94.1159 113.699 92.575 113.118 91.0341C113.067 90.9078 113.092 90.7057 113.168 90.63C113.572 90.2511 114.305 90.3016 114.709 90.63C115.265 91.0847 115.846 91.5141 116.427 91.9435C116.882 92.2719 117.311 92.575 117.791 92.8529C118.347 93.2066 118.827 93.636 119.458 93.8633C119.989 94.0401 120.544 94.1917 121.1 93.9644C122.237 93.4844 123.348 92.9287 124.46 92.3225C124.889 92.0951 124.965 91.8172 124.763 91.4383L124.788 91.413ZM105.944 94.217C105.59 93.9391 104.959 94.0149 104.706 94.4443C104.352 95.0506 103.872 95.5305 103.317 96.0105C102.66 96.5662 101.877 96.7935 101.094 97.0714C100.765 97.1977 100.386 97.1219 100.033 97.1725C99.1233 97.2988 98.2897 96.9957 97.5824 96.5915C97.0014 96.2631 96.6478 95.6821 96.2941 95.1263C95.8899 94.4948 95.89 93.8128 95.7637 93.1307C95.6374 92.4234 95.7637 91.7414 95.991 91.1099C96.3194 90.2005 96.9257 89.4427 97.7593 88.988C98.2392 88.7102 98.7949 88.5586 99.3506 88.4576C99.8053 88.3818 100.285 88.4828 100.74 88.5839C101.068 88.6596 101.144 88.988 101.22 89.2912C101.397 90.049 101.624 90.1753 102.382 90.0237C102.988 89.8974 103.544 89.5943 104.175 89.6953C104.251 89.6953 104.378 89.6195 104.453 89.569C104.554 89.5185 104.655 89.4175 104.782 89.3669C105.06 89.2406 105.186 88.9628 105.11 88.7354C104.832 87.9271 104.807 87.0177 104.251 86.2851C103.898 85.8304 103.493 85.4516 103.013 85.1989C102.18 84.7948 101.296 84.5927 100.386 84.6685C99.9821 84.6938 99.5527 84.6432 99.1486 84.6685C98.6181 84.7443 98.0624 84.82 97.5571 84.9716C97.0267 85.1232 96.5467 85.3758 96.0415 85.6031C95.6373 85.8052 95.2079 86.0326 94.829 86.3104C94.3996 86.6388 93.9702 86.9924 93.6418 87.4724C93.3639 87.8766 93.0102 88.2302 92.7576 88.6596C92.3535 89.3669 91.9745 90.1248 91.7977 90.9584C91.6967 91.4636 91.4441 91.9688 91.4946 92.4487C91.5957 93.6107 91.4946 94.8233 91.9999 95.96C92.3788 96.7683 92.6061 97.6524 93.2881 98.3092C93.6165 98.6123 93.8691 98.9912 94.248 99.2438C94.6774 99.5722 95.2332 99.7743 95.6626 100.103C96.2941 100.557 97.0519 100.684 97.8098 100.835C98.1382 100.911 98.5171 100.861 98.8708 100.911C99.8307 101.037 100.765 100.962 101.75 100.81C102.382 100.583 102.988 100.355 103.62 100.128C104.479 99.7996 105.262 99.3702 105.893 98.7892C106.575 98.1577 107.131 97.4504 107.712 96.7431C107.99 96.4147 107.965 95.8589 107.661 95.581C107.106 95.0758 106.575 94.5706 105.994 94.1159L105.944 94.217ZM136.458 62.7675C136.938 62.7422 137.418 62.7675 137.873 62.4897C138.328 62.2118 138.58 61.8329 138.808 61.3782C139.06 60.8982 139.035 60.393 138.934 59.9383C138.858 59.5594 138.555 59.2057 138.328 58.8773C138.252 58.7763 138.126 58.6752 137.999 58.6247C137.797 58.4984 137.57 58.3974 137.343 58.2964C137.292 58.2711 137.216 58.2206 137.141 58.2206C136.433 58.2459 135.701 58.069 135.17 58.6753C135.069 58.8016 134.791 58.8268 134.741 58.9531C134.564 59.4078 134.311 59.8373 134.337 60.393C134.362 61.1003 134.589 61.656 135.145 62.136C135.499 62.4896 135.878 62.7928 136.433 62.7675H136.458Z" fill="#F2F3FA"/>
<path d="M95.9649 80.9045C96.3944 80.7529 96.8996 80.9045 97.3543 80.7025C97.7837 80.5256 98.2889 80.5509 98.7689 80.4751C99.1983 80.4246 99.6277 80.4246 100.057 80.2478C100.537 80.0457 101.118 80.0456 101.649 79.9446C101.775 79.9446 101.876 79.9194 102.002 79.8941C102.886 79.692 103.745 79.49 104.629 79.2879C104.68 79.2879 104.73 79.2879 104.781 79.2879C105.311 79.1616 105.817 79.01 106.347 78.8837C106.398 78.8837 106.448 78.8837 106.473 78.8584C106.852 78.7068 107.256 78.5806 107.635 78.429C108.039 78.3027 108.444 78.2016 108.848 78.0753C109.328 77.9238 109.783 77.7469 110.262 77.5701C110.591 77.4691 110.945 77.4186 111.248 77.2923C111.778 77.0902 112.283 76.8628 112.789 76.6355C113.546 76.3323 114.304 76.0545 115.037 75.7261C115.567 75.4988 116.098 75.1956 116.603 74.9178C117.866 74.2357 119.129 73.5537 120.367 72.8717C120.973 72.5433 121.529 72.1391 122.11 71.7855C122.312 71.6592 122.489 71.4824 122.691 71.3308C123.373 70.8256 124.055 70.3708 124.712 69.8404C125.52 69.1583 126.303 68.451 127.061 67.7438C127.541 67.2891 128.021 66.8344 128.45 66.3545C129.082 65.6472 129.713 64.9146 130.244 64.1062C130.471 63.7526 130.724 63.3989 130.951 63.02C131.128 62.7422 131.305 62.4643 131.456 62.1864C131.709 61.7317 131.987 61.3023 132.214 60.8224C132.517 60.1656 132.795 59.5088 133.022 58.8268C133.3 58.0689 133.578 57.2858 133.755 56.5027C133.906 55.7702 134.007 55.0124 134.007 54.2799C134.007 52.8653 134.21 51.4254 133.831 50.036C133.679 49.5056 133.654 48.9499 133.578 48.4194C133.578 48.3689 133.578 48.3183 133.553 48.293C133.351 47.7626 133.149 47.2322 132.947 46.7017C132.77 46.2217 132.618 45.7165 132.391 45.2618C132.062 44.605 131.683 43.9735 131.33 43.342C131.102 42.9378 130.875 42.5084 130.623 42.1294C130.37 41.7505 130.042 41.3969 129.764 41.0433C129.284 40.4623 128.804 39.856 128.299 39.3003C127.869 38.8203 127.414 38.3909 126.934 37.9615C126.126 37.2289 125.318 36.4711 124.484 35.7638C123.979 35.3344 123.423 34.9807 122.893 34.6018C122.665 34.4503 122.463 34.2481 122.236 34.0966C121.579 33.6924 120.922 33.2883 120.266 32.8588C119.963 32.682 119.685 32.4799 119.356 32.3031C118.775 31.9747 118.169 31.6716 117.588 31.3685C117.083 31.0906 116.603 30.7875 116.072 30.5601C115.365 30.2317 114.607 29.9286 113.9 29.6255C113.673 29.5244 113.445 29.4739 113.218 29.3729C112.763 29.1708 112.334 28.9687 111.879 28.7666C111.096 28.4635 110.288 28.1604 109.505 27.8825C109.176 27.7815 108.848 27.7057 108.519 27.6299C108.191 27.5541 107.863 27.4783 107.534 27.3773C106.852 27.1752 106.17 26.9479 105.488 26.7205C105.059 26.5942 104.629 26.4931 104.2 26.3668C103.922 26.2911 103.644 26.1647 103.341 26.1142C102.76 26.0132 102.204 25.9375 101.623 25.8617C101.623 25.8617 101.573 25.8617 101.548 25.8617C101.017 25.7354 100.512 25.5837 99.9814 25.4827C99.1478 25.3311 98.3142 25.2048 97.4806 25.0785C96.3439 24.9017 95.1819 24.8512 94.0452 24.6239C93.1611 24.4218 92.2264 24.5481 91.317 24.4218C89.6245 24.1945 87.8815 24.4976 86.1638 24.1945C85.7091 24.1187 85.2039 24.2955 84.6987 24.3207C82.8547 24.447 80.9854 24.245 79.1413 24.4976C78.0551 24.6491 76.9184 24.6997 75.8322 24.826C74.8723 24.927 73.9377 25.1291 72.9778 25.2302C72.119 25.3312 71.2601 25.4069 70.4265 25.6595C69.9465 25.8111 69.3907 25.8364 68.8855 25.9122C68.7845 25.9122 68.7087 25.9374 68.6077 25.9627C68.153 26.089 67.6983 26.2658 67.2436 26.3668C66.5111 26.5689 65.7532 26.7205 65.0207 26.8973C64.3639 27.0741 63.7072 27.2762 63.0251 27.4783C62.7473 27.5541 62.4441 27.6299 62.1662 27.7309C61.8125 27.8572 61.4842 28.0088 61.1306 28.1351C60.7769 28.2614 60.4233 28.3624 60.0949 28.4887C59.4128 28.7413 58.756 28.9939 58.074 29.2718C57.6698 29.4234 57.2909 29.5749 56.8867 29.7518C56.4826 29.9286 56.0784 30.156 55.6743 30.3328C54.967 30.6612 54.2344 30.939 53.5524 31.2927C52.8198 31.6716 52.1125 32.1263 51.4052 32.5557C50.9505 32.8083 50.4706 32.9852 50.0411 33.263C49.4854 33.6167 48.9549 34.0208 48.3992 34.425C47.8687 34.8039 47.3383 35.1828 46.8331 35.587C46.2015 36.0922 45.5952 36.6226 44.9637 37.1531C44.6353 37.431 44.2817 37.6836 43.9786 37.9867C43.5744 38.3909 43.1955 38.8203 42.8418 39.2498C42.3114 39.8813 41.7304 40.4876 41.2504 41.1696C40.9473 41.6243 40.4926 41.9527 40.2906 42.5084C40.139 42.9126 39.8358 43.241 39.6085 43.6199C39.3559 44.0241 39.078 44.4282 38.8507 44.8576C38.6486 45.2618 38.5223 45.6912 38.3454 46.1207C38.2444 46.3733 38.2192 46.6764 38.0676 46.9037C37.6887 47.4847 37.6381 48.1668 37.4613 48.7983C37.2845 49.4045 37.0572 50.036 37.0319 50.6675C37.0319 52.3347 36.8551 54.002 37.1835 55.6945C37.4361 56.9828 37.7644 58.2458 38.1686 59.4836C38.2444 59.6856 38.3202 59.8877 38.4212 60.0898C38.598 60.4687 38.8254 60.8476 39.0022 61.2013C39.3812 61.9086 39.7853 62.6158 40.1642 63.3231C40.2905 63.5505 40.4168 63.7525 40.5684 63.9294C40.922 64.3841 41.3009 64.8135 41.6546 65.2682C41.9577 65.6471 42.2608 66.0513 42.5892 66.4049C43.1449 67.0112 43.7007 67.5922 44.307 68.1479C44.8627 68.6531 45.4437 69.1331 46.0247 69.613C46.5299 70.0424 47.0351 70.4971 47.5656 70.876C48.1213 71.3055 48.7528 71.6592 49.3338 72.0381C49.6622 72.2654 49.9906 72.4927 50.319 72.6948C50.7737 72.9727 51.2032 73.2506 51.6578 73.5285C52.0873 73.7811 52.5167 74.0336 52.9714 74.261C53.6281 74.5893 54.3354 74.9178 54.9922 75.2462C55.4974 75.4988 55.9774 75.8019 56.5078 76.0039C57.3414 76.3576 58.2003 76.6607 59.0592 76.9639C59.2865 77.0396 59.5392 77.0902 59.7918 77.1912C60.2717 77.3933 60.7264 77.6207 61.2064 77.7975C62.0147 78.0501 62.8483 78.2775 63.6566 78.5048C63.9598 78.5806 64.2376 78.7069 64.5407 78.8079C64.8691 78.909 65.1722 79.0352 65.5006 79.111C65.9553 79.2121 66.41 79.2878 66.8647 79.3889C67.3952 79.5152 67.9257 79.692 68.4561 79.8183C69.2897 79.9951 70.1486 80.1214 70.9822 80.273C71.0327 80.273 71.1085 80.2983 71.1591 80.3236C71.6895 80.4499 72.1947 80.6014 72.7252 80.7025C73.1294 80.7782 73.5588 80.7025 73.9629 80.7782C74.5439 80.8793 75.125 81.0561 75.7312 81.1319C76.5648 81.2329 77.3731 81.1572 78.232 81.334C79.2424 81.5361 80.2781 81.5361 81.2885 81.5866C82.6526 81.6371 84.042 81.6624 85.987 81.7382C87.048 81.6876 88.6899 81.5866 90.3066 81.4855C91.3675 81.4098 92.4032 81.4855 93.4642 81.2329C94.2725 81.0308 95.1566 81.2834 95.9649 81.0056V80.9045ZM64.5407 46.8785C64.5154 46.1964 64.8438 45.666 65.0964 45.085C65.3238 44.5798 65.728 44.2261 66.1321 43.8977C66.4605 43.6451 66.89 43.5188 67.2942 43.3673C67.5973 43.241 67.9257 43.1904 68.3046 43.0894C68.7845 43.2409 69.2644 43.3925 69.7444 43.5188C70.8053 43.822 71.4622 44.6555 72.1695 45.3881C72.4978 45.7417 72.7252 46.1964 73.003 46.6258C73.3314 47.1563 73.6851 47.6615 73.9882 48.2173C74.3419 48.874 74.6198 49.5561 74.9481 50.2382C75.1502 50.6423 75.3523 51.0465 75.5291 51.4506C75.6301 51.678 75.7059 51.9306 75.7817 52.1579C76.0091 52.84 76.2364 53.522 76.4637 54.1788C76.6153 54.583 76.7669 54.9871 76.9185 55.3913C76.9185 55.4418 76.9184 55.5176 76.9437 55.5681C77.07 56.0228 77.2216 56.4775 77.3479 56.9322C77.3731 57.0333 77.3984 57.1343 77.3731 57.2353C77.3731 57.3364 77.3226 57.488 77.2468 57.5132C77.171 57.5385 77.0195 57.4879 76.9437 57.4122C76.5648 57.1343 76.2111 56.8311 75.8322 56.5785C75.2765 56.1996 74.6955 55.8712 74.1398 55.4923C73.6346 55.1639 73.1546 54.785 72.6241 54.4566C72.321 54.2798 71.9926 54.1535 71.6895 54.002C71.2853 53.8251 70.9064 53.6231 70.5023 53.4462C70.1233 53.2694 69.7697 53.1179 69.4161 52.9158C68.6077 52.4611 67.7993 52.0317 67.0668 51.5012C66.511 51.097 66.0564 50.516 65.5512 50.0108C65.0207 49.4804 64.7933 48.7983 64.566 48.1415C64.4397 47.7373 64.5155 47.2827 64.4902 46.828L64.5407 46.8785ZM78.0804 66.1776C78.0804 66.1776 77.9036 66.2787 77.8531 66.2787C77.5247 66.2029 77.1963 66.0765 76.8679 66.0008C76.4637 65.8745 76.0343 65.7481 75.6049 65.6724C74.9734 65.5461 74.3166 65.546 73.7356 65.344C73.1294 65.1419 72.4725 65.2682 71.8916 65.1166C70.9822 64.864 70.0728 64.9903 69.1634 64.9398C68.1783 64.9145 67.1679 64.9398 66.1827 64.9398C65.1218 64.9903 64.0608 64.9903 63.0251 65.1924C61.6863 65.445 60.3474 65.5714 59.0086 65.6472C58.3013 65.6977 57.5688 65.7987 56.8615 65.7481C55.8258 65.6724 54.7649 65.546 53.7544 65.344C52.9966 65.1924 52.2893 64.8135 51.5568 64.5609C50.8747 64.3083 50.3695 63.8536 49.7885 63.4494C49.2328 63.0452 48.9044 62.4895 48.5255 61.9843C48.2223 61.5549 48.1214 60.9991 47.8688 60.5192C47.5404 59.8624 47.6666 59.1551 47.6666 58.4731C47.6666 58.1952 47.7929 57.9174 47.894 57.6648C48.1466 57.0333 48.3487 56.4018 48.8034 55.846C49.2581 55.2903 49.738 54.8103 50.3442 54.4314C51.0515 53.9767 51.7588 53.522 52.6177 53.3705C53.1482 53.2694 53.6534 53.0926 54.2091 53.0421C54.7396 52.9915 55.2701 53.0421 55.8005 53.0421C55.8005 52.9915 55.8005 52.9663 55.8005 52.9158C56.811 53.0168 57.8214 53.1178 58.8319 53.2694C59.4128 53.3452 59.9685 53.4715 60.5243 53.6231C60.9284 53.7241 61.3326 53.9262 61.7368 54.0525C61.9894 54.1535 62.2673 54.2041 62.5199 54.2799C63.0504 54.482 63.6061 54.7093 64.1366 54.9366C64.6671 55.1639 65.1975 55.3913 65.7027 55.6692C66.0059 55.8207 66.2837 56.0481 66.5868 56.2249C67.1425 56.528 67.6983 56.8311 68.2288 57.1343C68.5825 57.3363 68.9361 57.5889 69.2645 57.8416C69.6434 58.1194 70.0476 58.3973 70.4265 58.6752C71.058 59.1552 71.6642 59.6351 72.2704 60.1403C72.8262 60.595 73.3567 61.0749 73.8872 61.5802C74.5187 62.1611 75.1249 62.7674 75.7564 63.3736C76.1353 63.7525 76.5143 64.1567 76.8679 64.5609C77.2468 64.9903 77.6258 65.445 78.0047 65.8997C78.0552 65.9755 78.0804 66.1018 78.0552 66.2028L78.0804 66.1776ZM92.1253 80.5003C90.9381 80.8035 89.7003 80.5003 88.5383 80.7277C87.6794 80.8792 86.8206 80.8288 85.987 80.854C85.5576 80.854 85.4565 80.7529 85.4565 80.273C85.4565 78.4037 85.4565 76.5344 85.4565 74.6651C85.4565 72.8464 85.4565 71.0276 85.4565 69.2088C85.4565 68.8299 85.2292 68.5773 85.1534 68.2742C85.0271 67.8448 84.9008 67.4406 84.7492 67.0112C84.6482 66.7333 84.5724 66.4302 84.4714 66.1523C84.3451 65.8239 84.2188 65.4703 84.0925 65.1419C83.7894 64.3841 83.4862 63.601 83.1578 62.8432C82.9052 62.2369 82.6021 61.6307 82.3495 61.0244C82.0211 60.2413 81.7432 59.433 81.4149 58.6499C81.1623 58.0184 80.8338 57.4122 80.5812 56.7807C80.2528 55.9471 79.9497 55.0882 79.6213 54.2293C79.495 53.9009 79.3434 53.5978 79.2171 53.2947C79.1161 53.0673 79.0656 52.8147 78.9898 52.5874C78.6361 51.4507 78.2573 50.3392 77.9289 49.2025C77.7773 48.672 77.7773 48.1162 77.5752 47.611C77.3479 47.0048 77.4994 46.348 77.3479 45.7923C77.1458 45.1355 77.2216 44.4787 77.2216 43.8472C77.2216 43.1652 77.2468 42.4579 77.4489 41.8011C77.7268 40.816 77.9288 39.8308 78.434 38.9214C78.9645 38.012 79.5203 37.1278 80.3286 36.4458C80.9096 35.9659 81.5411 35.5112 82.2484 35.2081C82.7789 34.9807 83.3346 34.8544 83.8904 34.6776C84.2945 34.5513 84.6735 34.5261 85.0524 34.5261C85.305 34.5261 85.4313 34.425 85.4313 34.1724C85.4313 33.8692 85.4313 33.5661 85.4313 33.2377C85.4313 30.6359 85.4313 28.0341 85.4313 25.4322C85.4313 25.0028 85.4818 24.9523 85.9365 24.9523C87.25 24.9523 88.5888 24.9523 89.9024 25.028C90.837 25.0533 91.7969 25.1543 92.7316 25.2554C93.2873 25.3059 93.8683 25.2807 94.3735 25.4575C95.0303 25.6596 95.6618 25.6091 96.3186 25.6848C96.748 25.7354 97.1775 25.7858 97.5816 25.8869C98.0869 25.9879 98.5668 26.1395 99.072 26.2658C99.1225 26.2658 99.1983 26.2658 99.2489 26.2658C100.285 26.4679 101.32 26.67 102.356 26.8721C102.861 26.9731 103.366 27.0741 103.872 27.2257C104.478 27.4025 105.084 27.6046 105.716 27.8067C106.701 28.1098 107.686 28.4129 108.671 28.7161C108.848 28.7666 109.025 28.8929 109.202 28.9687C109.682 29.1708 110.161 29.3729 110.641 29.5497C111.248 29.8023 111.879 30.0044 112.485 30.257C112.738 30.358 112.965 30.5349 113.193 30.6612C113.445 30.7875 113.723 30.8633 114.001 30.9643C114.127 31.0148 114.254 31.0906 114.355 31.1411C114.91 31.4443 115.466 31.7221 115.997 32.0252C116.451 32.2778 116.931 32.5305 117.361 32.8083C118.017 33.1873 118.649 33.5914 119.281 34.0208C119.887 34.425 120.493 34.8797 121.099 35.3091C121.68 35.7386 122.186 36.2185 122.766 36.6479C123.726 37.3552 124.535 38.2141 125.368 39.0982C125.874 39.654 126.379 40.2096 126.833 40.7906C127.238 41.2958 127.591 41.8011 127.92 42.3316C128.526 43.342 129.132 44.3777 129.688 45.4134C129.966 45.9438 130.092 46.5501 130.294 47.1311C130.345 47.3079 130.42 47.4847 130.496 47.6615C130.623 48.0404 130.749 48.4194 130.875 48.7983C130.875 48.8235 130.875 48.8741 130.875 48.8994C130.976 49.5814 131.103 50.2634 131.153 50.9707C131.229 51.9558 131.305 52.941 131.279 53.9262C131.279 54.583 131.077 55.265 130.976 55.9218C130.976 56.0228 130.976 56.1238 130.926 56.1996C130.774 56.7806 130.648 57.3363 130.496 57.9173C130.42 58.2457 130.345 58.5994 130.218 58.9278C130.117 59.2562 129.941 59.5341 129.814 59.8624C129.814 59.8877 129.789 59.9383 129.789 59.9635C129.612 60.595 129.309 61.1255 128.955 61.6559C128.677 62.0601 128.501 62.5401 128.248 62.9947C128.046 63.3484 127.793 63.702 127.541 64.0304C126.934 64.8135 126.303 65.5713 125.671 66.3292C125.191 66.9102 124.686 67.4912 124.131 67.9964C123.221 68.83 122.261 69.613 121.327 70.3961C120.948 70.6992 120.493 70.9013 120.089 71.2297C119.129 71.9875 118.068 72.5685 117.058 73.2001C116.754 73.3769 116.502 73.579 116.199 73.7558C116.022 73.8568 115.82 73.9326 115.643 74.0084C114.986 74.3115 114.355 74.6399 113.698 74.943C113.193 75.1704 112.662 75.3977 112.132 75.6251C111.399 75.9534 110.667 76.2818 109.934 76.585C109.378 76.8123 108.823 77.0144 108.267 77.1912C107.686 77.3933 107.08 77.6206 106.473 77.8227C105.968 77.9995 105.438 78.1259 104.932 78.2775C104.2 78.4795 103.493 78.7322 102.76 78.909C102.305 79.0353 101.825 79.0605 101.345 79.1615C100.815 79.2878 100.285 79.4142 99.7288 79.5405C99.6783 79.5405 99.6025 79.5657 99.552 79.591C98.8447 79.692 98.1626 79.7931 97.4553 79.8941C96.3186 80.0457 95.1819 80.0962 94.0704 80.3488C93.3883 80.5003 92.7064 80.3741 92.0748 80.5509L92.1253 80.5003Z" fill="#F2F3FA"/>
<path d="M101.169 64.7375C102.103 64.6365 103.063 64.6618 104.023 64.8386C105.16 65.0407 106.347 64.7881 107.484 65.0659C108.09 65.2175 108.722 65.0912 109.353 65.268C110.111 65.4953 110.97 65.4954 111.778 65.5206C113.218 65.5711 114.658 65.6722 116.098 65.3943C116.679 65.268 117.285 65.1922 117.866 65.0659C118.144 65.0154 118.422 64.9396 118.649 64.8133C119.154 64.586 119.634 64.3081 120.114 64.0302C120.569 63.7524 120.998 63.4493 121.403 63.1209C121.933 62.6915 122.312 62.1105 122.615 61.5295C122.817 61.1506 123.07 60.7716 123.12 60.3927C123.272 58.9781 123.322 57.5383 122.464 56.3258C122.009 55.669 121.428 55.0374 120.771 54.5322C120.266 54.1281 119.609 53.8502 118.978 53.6229C118.371 53.3955 117.715 53.2439 117.058 53.1934C115.517 53.0671 113.976 52.9913 112.435 53.345C111.728 53.4965 110.995 53.6481 110.288 53.8249C109.606 54.0018 108.924 54.2291 108.267 54.4817C107.787 54.6586 107.307 54.8606 106.852 55.088C106.499 55.2395 106.145 55.4417 105.792 55.6185C105.286 55.8711 104.781 56.0732 104.276 56.3258C103.973 56.4774 103.72 56.7047 103.442 56.8815C102.786 57.2857 102.103 57.6646 101.472 58.094C101.017 58.3971 100.638 58.776 100.209 59.1044C99.6532 59.5338 99.0722 59.8875 98.567 60.3674C97.4302 61.4284 96.3188 62.4893 95.2326 63.6008C94.4495 64.4091 93.7422 65.268 92.9844 66.1016C92.9844 66.1269 93.0349 66.1774 93.0349 66.2026C93.1359 66.2026 93.2622 66.2279 93.3633 66.2026C93.7422 66.0763 94.0958 65.8995 94.4747 65.7732C94.98 65.6217 95.5105 65.5206 96.0157 65.3943C96.3441 65.3186 96.6724 65.167 97.0261 65.1164C97.506 65.0407 98.0112 65.0154 98.5165 64.9396C99.4006 64.788 100.31 64.8133 101.194 64.7375H101.169Z" fill="#F2F3FA"/>
<path d="M93.5675 46.1712C93.5928 45.5649 93.5675 44.9586 93.5675 44.3524C93.5928 44.3524 93.6432 44.3524 93.6685 44.3524C93.5675 43.3167 93.4664 42.2558 93.3654 41.2201C93.3654 41.1696 93.3654 41.0938 93.3149 41.0433C93.1128 40.5633 92.8854 40.0833 92.7339 39.6034C92.4307 38.6687 91.875 37.9109 91.2435 37.1784C90.6373 36.4711 89.8795 35.9154 89.0711 35.4607C88.3386 35.0565 87.5807 34.7787 86.7471 34.7029C86.6461 34.7029 86.545 34.6523 86.444 34.6018C85.8883 34.324 85.5346 34.5513 85.5346 35.1576C85.5346 36.2943 85.5346 37.431 85.5346 38.5678C85.5346 46.348 85.5346 54.1283 85.5346 61.9338C85.5346 63.98 85.4589 66.0513 85.4336 68.0974C85.4336 68.2237 85.5347 68.3248 85.6104 68.4511C85.6862 68.35 85.7872 68.2237 85.8125 68.1227C85.9135 67.7437 85.9893 67.3396 86.1156 66.9607C86.2166 66.6323 86.343 66.3039 86.4693 65.9755C86.4945 65.8997 86.4945 65.7987 86.5451 65.6977C86.6714 65.4451 86.8229 65.1925 86.924 64.9146C87.2523 64.081 87.5302 63.2221 87.8586 62.3885C88.0607 61.8833 88.3133 61.4034 88.5406 60.8982C88.8437 60.1909 89.1216 59.4836 89.4247 58.7763C89.5005 58.5742 89.551 58.372 89.6521 58.17C89.8542 57.7153 90.1068 57.2606 90.3089 56.7807C90.612 56.0481 90.8899 55.3156 91.193 54.583C91.2941 54.3556 91.3699 54.103 91.4456 53.8757C91.5467 53.5978 91.6982 53.32 91.7992 53.0168C91.9255 52.6379 92.0518 52.259 92.1781 51.8548C92.4307 51.0717 92.7087 50.2887 92.936 49.5056C93.0876 48.9751 93.2391 48.4194 93.3402 47.8637C93.4412 47.3079 93.517 46.7522 93.5675 46.1964V46.1712Z" fill="#F2F3FA"/>
<path d="M93.6421 57.5889C94.1473 57.21 94.5515 56.9068 94.9809 56.6037C95.3093 56.3511 95.6377 56.0732 95.9913 55.8459C96.547 55.4922 97.1028 55.1386 97.6838 54.8102C98.1385 54.5576 98.5931 54.2797 99.0478 54.0523C99.6036 53.7745 100.185 53.5219 100.715 53.2441C101.448 52.8651 102.18 52.4862 102.887 52.0568C103.519 51.6526 104.125 51.2232 104.681 50.7432C105.161 50.3138 105.616 49.8338 105.843 49.1771C105.969 48.8487 106.222 48.5203 106.247 48.1666C106.323 47.6614 106.399 47.1562 106.323 46.6005C106.247 45.969 105.994 45.4385 105.666 44.9333C105.338 44.4028 104.883 43.9734 104.277 43.746C103.898 43.5945 103.519 43.4177 103.115 43.3671C102.534 43.3166 101.953 43.2409 101.397 43.544C101.018 43.7461 100.614 43.8218 100.26 44.1249C99.3762 44.8575 98.6436 45.7164 98.0121 46.6763C97.6585 47.232 97.3301 47.813 97.027 48.3687C96.6481 49.0507 96.3702 49.7833 96.0166 50.4654C95.7135 51.0464 95.5366 51.6779 95.3093 52.2841C95.1577 52.663 95.0314 53.0419 94.9051 53.4208C94.8293 53.6734 94.7535 53.9261 94.6525 54.1787C94.5262 54.5576 94.3746 54.9365 94.2483 55.3154C94.0462 55.9216 93.8442 56.5532 93.6421 57.1594C93.6168 57.2605 93.6421 57.3615 93.6421 57.5383V57.5889Z" fill="#F2F3FA"/>
</svg>
