<svg width="117" height="77" viewBox="0 0 117 77" fill="none" xmlns="http://www.w3.org/2000/svg">
<g opacity="0.1">
<path d="M115.641 38.3918C115.641 48.7722 109.277 58.2329 98.8567 65.1218C88.4407 72.008 74.022 76.2835 58.0704 76.2835C42.1188 76.2835 27.7001 72.008 17.2842 65.1218C6.86431 58.2329 0.5 48.7722 0.5 38.3918C0.5 28.0113 6.86431 18.5506 17.2842 11.6618C27.7001 4.77553 42.1188 0.5 58.0704 0.5C74.022 0.5 88.4407 4.77553 98.8567 11.6618C109.277 18.5506 115.641 28.0113 115.641 38.3918Z" stroke="white"/>
<path d="M26.3039 23.2077L25.8724 23.6564C25.5445 23.3285 25.1304 22.9316 24.6472 22.4657C24.1639 21.9997 23.8706 21.7063 23.767 21.6028L23.7325 21.6373C23.8188 21.8098 23.9741 22.155 24.1812 22.6727C24.6127 23.829 24.8715 24.4675 24.9751 24.5711L24.6299 24.9335C24.4746 24.7782 23.8878 24.502 22.8524 24.1051C22.6107 24.0015 22.2656 23.8462 21.7997 23.6219L21.7651 23.6564C21.8859 23.7599 22.1966 24.1051 22.7316 24.6746C23.2666 25.2441 23.6117 25.6065 23.7843 25.7791L23.4046 26.176C23.4046 26.176 23.0077 25.7273 22.3864 24.9852C21.7651 24.2432 21.3337 23.7599 21.1094 23.5528L21.7306 22.9143C21.9377 23.1214 22.421 23.3803 23.163 23.6737C23.9051 23.967 24.3193 24.1569 24.3883 24.2259L24.4228 24.1914C24.4228 24.1914 24.1639 23.7082 23.8878 22.9489C23.5944 22.1895 23.3356 21.7063 23.1285 21.4992L23.7325 20.8779C23.9569 21.1023 24.4228 21.5164 25.1304 22.155C25.8379 22.7935 26.2348 23.1387 26.3039 23.2077Z" fill="white"/>
<path d="M29.22 20.93L28.7713 21.2924C28.6678 21.2234 28.5987 21.1371 28.5297 21.0508H28.4952C28.4261 21.465 28.1845 21.8274 27.7876 22.1553C27.5633 22.3279 27.3216 22.4142 27.0628 22.3969C26.8039 22.3969 26.5796 22.2761 26.3897 22.0345C26.1654 21.7411 26.0964 21.396 26.2172 21.0336C26.3207 20.6539 26.7176 20.2052 27.3907 19.6702C27.3561 19.6184 27.3216 19.5667 27.2698 19.4977C27.08 19.2561 26.9075 19.1525 26.7176 19.1698C26.5278 19.187 26.3034 19.2906 26.0446 19.4977C25.7512 19.7393 25.4751 19.9981 25.2335 20.3088L24.9746 19.8773C25.199 19.5667 25.4923 19.2733 25.872 18.9799C26.2171 18.721 26.5278 18.583 26.8384 18.583C27.1318 18.583 27.4079 18.7383 27.6841 19.0834C27.7531 19.1697 27.8739 19.3423 28.0465 19.5839C28.219 19.8255 28.3398 19.9981 28.4089 20.0671C28.685 20.4123 28.9438 20.7057 29.22 20.9473V20.93ZM28.2708 20.7574C28.0292 20.4641 27.8221 20.2052 27.6495 19.9809C27.2871 20.257 27.0282 20.4986 26.8902 20.7057C26.6486 21.0508 26.6313 21.3614 26.8384 21.6203C27.0455 21.8792 27.3216 21.8619 27.7013 21.5858C28.0119 21.3442 28.2018 21.0681 28.2708 20.7574Z" fill="white"/>
<path d="M31.9479 18.4795L32.1722 18.911C32.0687 19.1181 31.8788 19.3079 31.5854 19.4805C31.0505 19.8257 30.55 19.9292 30.084 19.8084C29.6181 19.6876 29.2557 19.4287 28.9796 19.0146C28.7035 18.5659 28.5999 18.0999 28.7034 17.5994C28.807 17.099 29.0831 16.6848 29.5836 16.3742C29.8252 16.2188 30.0495 16.1152 30.2221 16.0635L30.4465 16.5985C30.1876 16.6502 29.9287 16.7538 29.7044 16.8919C29.411 17.0817 29.2384 17.3233 29.2039 17.6339C29.1694 17.9446 29.2384 18.2552 29.4282 18.5658C29.6353 18.8937 29.9115 19.1181 30.2739 19.2044C30.619 19.2907 30.9815 19.2216 31.3611 18.98C31.5165 18.8765 31.7063 18.7039 31.9306 18.4623L31.9479 18.4795Z" fill="white"/>
<path d="M35.3801 17.3058L34.8107 17.5992C34.6381 17.2022 34.4137 16.719 34.1203 16.1495C33.896 15.7181 33.6716 15.2867 33.4473 14.907L32.8088 15.2349C32.8778 15.511 32.9296 15.7871 32.9641 16.046C32.9986 16.3221 33.0331 16.5809 33.0504 16.8226C33.0504 17.0642 33.0676 17.3058 33.0504 17.5301C33.0504 17.7545 33.0158 17.9443 32.9813 18.1169C32.9468 18.2894 32.895 18.4275 32.826 18.5483C32.757 18.6691 32.6707 18.7554 32.5844 18.8072L32.291 18.3067C32.291 18.3067 32.3946 18.2032 32.4291 18.0997C32.4636 17.9961 32.4981 17.858 32.5154 17.7027C32.5326 17.5474 32.5499 17.3575 32.5499 17.1505C32.5499 16.9434 32.5499 16.719 32.5326 16.4947C32.5154 16.253 32.4808 16.0115 32.4463 15.7526C32.4118 15.4937 32.36 15.2348 32.291 14.976L33.361 14.4238L33.7752 14.1304C33.9823 14.5963 34.2584 15.1658 34.5863 15.8216C34.8624 16.3394 35.1213 16.8226 35.3974 17.2885L35.3801 17.3058Z" fill="white"/>
<path d="M38.677 13.8895C38.9186 14.459 38.9359 14.9767 38.7288 15.4427C38.539 15.9086 38.2111 16.2193 37.7624 16.4091C37.3482 16.5817 36.9167 16.5817 36.5025 16.4091C36.0884 16.2538 35.7605 15.9086 35.5534 15.3909C35.3118 14.8042 35.2945 14.2864 35.4844 13.8205C35.6742 13.3545 36.0021 13.0266 36.4508 12.854C36.865 12.6815 37.2964 12.6815 37.7106 12.854C38.1248 13.0266 38.4527 13.3718 38.6597 13.8895H38.677ZM38.142 14.2519C38.004 13.9068 37.7796 13.6306 37.4862 13.4235C37.1929 13.2164 36.8822 13.1819 36.5543 13.32C36.2264 13.458 36.0366 13.6824 35.9676 14.0103C35.8985 14.3382 35.933 14.6833 36.0711 15.0285C36.2092 15.3909 36.4335 15.667 36.7269 15.8568C37.0203 16.0639 37.3309 16.0812 37.6588 15.9604C37.9867 15.8223 38.1766 15.598 38.2456 15.2701C38.3146 14.9422 38.2801 14.5971 38.142 14.2692V14.2519Z" fill="white"/>
<path d="M43.4568 13.8023C43.4913 13.9232 43.5603 14.2165 43.6466 14.6825C43.7329 15.1485 43.8192 15.5109 43.8882 15.7525L43.474 15.8905C43.3878 15.5971 43.2325 15.114 43.0081 14.4236C42.6802 14.5099 42.2315 14.648 41.662 14.8205C41.2996 14.9413 40.9026 15.0622 40.4885 15.2175C40.592 15.925 40.6956 16.4428 40.7819 16.7362L40.3677 16.8742C40.2987 16.6671 40.2124 16.3738 40.0916 15.9941C39.9708 15.6144 39.8672 15.2865 39.7637 14.9931L40.1088 14.8896C40.0743 13.9749 40.1779 12.8877 40.4195 11.6451L41.4204 11.3345L41.8691 11.1274C41.9899 11.6279 42.1625 12.2147 42.3868 12.9222C42.4731 13.1984 42.6112 13.578 42.8182 14.044L43.474 13.8369L43.4568 13.8023ZM42.266 14.1647C42.0934 13.716 41.9726 13.3364 41.8691 13.0258C41.731 12.5598 41.5757 12.1284 41.4377 11.7487L40.8336 11.9386C40.7646 12.2492 40.7128 12.6461 40.6438 13.1466C40.592 13.647 40.5747 14.1648 40.592 14.6825L42.266 14.1647Z" fill="white"/>
<path d="M46.7535 11.3C46.7708 11.4036 46.8053 11.5416 46.8398 11.7142L44.4065 12.3182C44.51 12.6634 44.7171 12.9222 45.0105 13.0948C45.3038 13.2673 45.6663 13.3191 46.0632 13.2156C46.4256 13.1293 46.7535 13.0085 47.0469 12.8532L47.0987 13.3709C46.8916 13.5262 46.5637 13.647 46.115 13.7506C45.4937 13.8886 44.9932 13.8368 44.579 13.578C44.1821 13.3191 43.9233 12.9395 43.8025 12.4562C43.6817 11.9385 43.7334 11.4553 43.9405 11.0239C44.1476 10.5752 44.51 10.299 44.9932 10.1782C45.4592 10.0747 45.8389 10.1265 46.1323 10.3336C46.4256 10.5407 46.6327 10.8686 46.7362 11.3H46.7535ZM46.1495 11.438C45.9942 10.765 45.6318 10.5061 45.0795 10.6269C44.51 10.765 44.2511 11.1792 44.3202 11.904L46.1495 11.438Z" fill="white"/>
<path d="M50.8613 12.7841L50.24 12.8876C50.2055 12.4562 50.1365 11.9212 50.0329 11.2999C49.9466 10.8167 49.8776 10.3508 49.7741 9.90206L49.0493 10.0228C49.0148 10.2989 48.9802 10.5751 48.9457 10.8512C48.8939 11.1273 48.8422 11.3689 48.7904 11.6105C48.7214 11.8522 48.6523 12.0765 48.5833 12.2836C48.497 12.4907 48.428 12.6632 48.3245 12.8185C48.2382 12.9739 48.1346 13.0947 48.031 13.181C47.9275 13.2673 47.824 13.3363 47.7204 13.3536L47.5996 12.7841C47.5996 12.7841 47.7204 12.715 47.7895 12.6287C47.8585 12.5425 47.9275 12.4216 47.9966 12.2836C48.0656 12.1455 48.1346 11.973 48.2036 11.7659C48.2727 11.576 48.3245 11.3517 48.3935 11.1273C48.4625 10.903 48.497 10.6614 48.5488 10.4025C48.6006 10.1436 48.6178 9.8848 48.6523 9.62593L49.8431 9.43607L50.3263 9.28076C50.3781 9.78123 50.4644 10.4025 50.5679 11.1446C50.6542 11.7141 50.7578 12.2663 50.8786 12.7841H50.8613Z" fill="white"/>
<path d="M54.5543 11.2306C54.5888 11.6103 54.468 11.9037 54.1747 12.1453C53.8813 12.3869 53.5533 12.5077 53.1564 12.5594C52.9666 12.5767 52.5352 12.6112 51.8966 12.663C51.8794 12.1798 51.8276 11.6275 51.7758 10.989C51.7068 10.2814 51.6032 9.71195 51.4824 9.22874L52.1728 9.05615C52.1728 9.36679 52.2073 9.83278 52.2763 10.4368C52.5179 10.3678 52.725 10.316 52.8803 10.316C53.9158 10.2124 54.468 10.5231 54.5371 11.2306H54.5543ZM54.0021 11.3514C53.9503 10.9027 53.6052 10.6957 52.9321 10.7647C52.8113 10.7647 52.6042 10.8164 52.3108 10.8855C52.3453 11.3169 52.3971 11.7311 52.4489 12.1453C52.6905 12.1453 52.9148 12.1453 53.1219 12.128C53.7432 12.0762 54.0366 11.8174 53.9848 11.3687L54.0021 11.3514Z" fill="white"/>
<path d="M58.3508 12.2492H57.7123C57.7296 11.8005 57.7296 11.2655 57.7123 10.6615L55.9693 10.7133C55.9693 11.2655 56.0211 11.8005 56.0728 12.3183H55.4343C55.4516 11.8523 55.4688 11.2828 55.4343 10.6615C55.417 9.95393 55.348 9.36719 55.2617 8.90123L55.9693 8.78042C55.9693 8.95299 55.9693 9.45347 55.9693 10.2473L57.7123 10.1956C57.6778 9.64331 57.626 9.1946 57.557 8.83219L58.2646 8.71143C58.2473 9.22915 58.2473 9.8504 58.2646 10.5752C58.2646 11.162 58.3163 11.7142 58.3681 12.2492H58.3508Z" fill="white"/>
<path d="M62.0952 11.1792C62.0952 11.5589 61.9226 11.835 61.612 12.0421C61.3013 12.232 60.9562 12.3182 60.5765 12.301C60.3867 12.301 59.9897 12.2665 59.4375 12.2319C59.4893 11.7487 59.5238 11.1965 59.541 10.5579C59.5756 9.85039 59.541 9.26363 59.4893 8.78042L60.1796 8.71143C60.145 9.02206 60.1106 9.47074 60.0933 10.092C60.2659 10.0575 60.4384 10.0402 60.5937 10.0402C61.6292 10.092 62.1469 10.4544 62.1124 11.162L62.0952 11.1792ZM61.5257 11.2137C61.5429 10.765 61.215 10.5235 60.5592 10.489C60.4384 10.489 60.2658 10.4889 60.0587 10.5235C60.0415 10.9549 60.0243 11.3691 60.0243 11.7833C60.1968 11.8178 60.3866 11.835 60.5937 11.8523C61.1977 11.8695 61.5084 11.6624 61.5257 11.2137ZM63.2342 12.3872L62.5956 12.3528C62.6474 11.8695 62.6992 11.3173 62.7164 10.6788C62.7509 9.9712 62.7164 9.38445 62.6647 8.90123L63.3722 8.83219C63.3205 9.33266 63.2687 9.95396 63.2514 10.696C63.2342 11.2828 63.2169 11.835 63.2514 12.37L63.2342 12.3872Z" fill="white"/>
<path d="M67.2043 12.8535L66.5485 12.7671C66.6348 12.353 66.7211 11.8007 66.8074 11.1104C66.8246 10.9206 66.8764 10.6272 66.9455 10.2303H66.9109C66.8419 10.3856 66.4623 10.7825 65.7547 11.421C65.0989 12.0251 64.7538 12.4048 64.7365 12.5428L64.2188 12.4738C64.305 11.9906 64.3913 11.4383 64.4776 10.8171C64.5639 10.1095 64.5984 9.52275 64.5639 9.03954H65.2887C65.2024 9.47098 65.1161 10.0404 65.0299 10.7308C64.9953 10.9724 64.9609 11.283 64.8918 11.6627H64.9263C64.9953 11.5246 65.375 11.1277 66.0653 10.4719C66.7211 9.86788 67.049 9.48823 67.0662 9.35017L67.6013 9.31562C67.515 9.81609 67.4287 10.4374 67.3251 11.1622C67.2561 11.749 67.2044 12.3012 67.1698 12.8189L67.2043 12.8535ZM67.4977 7.81421C67.4632 8.07308 67.3597 8.31467 67.1526 8.50451C66.9627 8.69434 66.6521 8.76338 66.2552 8.72886C65.841 8.67709 65.5476 8.53903 65.4095 8.29742C65.2715 8.05582 65.2024 7.81421 65.2369 7.53809H65.7719C65.7202 8.0213 65.8928 8.2802 66.307 8.33197C66.5486 8.36649 66.7211 8.33196 66.8247 8.21116C66.9282 8.09035 66.9972 7.91775 67.0145 7.6934L67.4977 7.83149V7.81421Z" fill="white"/>
<path d="M72.7961 13.9748L72.1575 13.8195C72.1575 13.8195 72.123 13.7159 72.1058 13.6124C72.0712 13.0774 71.985 12.6977 71.8469 12.4734C71.7088 12.249 71.519 12.0937 71.2256 12.0247C71.1221 12.0074 71.0013 11.9729 70.8459 11.9384C70.7251 12.4907 70.6216 12.9911 70.5526 13.4571L69.9141 13.319C70.0521 12.853 70.2074 12.3181 70.3455 11.6968C70.5008 11.0065 70.5871 10.4197 70.6044 9.93652L71.3291 10.0056C71.1911 10.4543 71.0703 10.9547 70.9323 11.507C71.0703 11.5415 71.1911 11.576 71.3119 11.5932C71.8469 11.714 72.3129 11.3689 72.7098 10.5578C72.7443 10.506 72.7788 10.4542 72.8306 10.4025L73.4174 10.5405C73.4174 10.5405 73.3138 10.6786 73.2275 10.8167C72.7788 11.507 72.3819 11.8694 72.0195 11.9211V11.9556C72.2266 12.0764 72.3819 12.249 72.4854 12.5079C72.589 12.7495 72.658 13.0947 72.7098 13.5434C72.7098 13.6814 72.7443 13.8195 72.7788 13.9748H72.7961Z" fill="white"/>
<path d="M77.2665 13.4057C77.0766 14.0097 76.766 14.4066 76.3173 14.631C75.8686 14.8553 75.4199 14.9071 74.954 14.7518C74.5225 14.6137 74.1946 14.3548 73.9703 13.9579C73.7459 13.561 73.7287 13.095 73.9013 12.56C74.0911 11.956 74.4017 11.5418 74.8504 11.3175C75.2991 11.0931 75.7478 11.0414 76.2138 11.1967C76.6452 11.3348 76.9731 11.5936 77.1802 11.9905C77.3873 12.3875 77.4218 12.8534 77.2492 13.3884L77.2665 13.4057ZM76.6279 13.3539C76.7487 12.9915 76.7488 12.6463 76.6625 12.3012C76.5762 11.956 76.3518 11.7317 76.0239 11.6282C75.696 11.5246 75.3854 11.5764 75.1265 11.7835C74.8677 11.9906 74.6779 12.2839 74.5571 12.6291C74.4363 12.9915 74.4362 13.3539 74.5225 13.6818C74.6088 14.0269 74.8332 14.2513 75.1783 14.3548C75.5062 14.4584 75.8168 14.4066 76.0757 14.1995C76.3346 13.9924 76.5244 13.6991 76.6279 13.3539Z" fill="white"/>
<path d="M81.3553 17.0816L80.7858 16.84C80.9583 16.4258 81.1827 15.8908 81.4588 15.2696C81.7177 14.6483 81.873 14.2686 81.942 14.1306H81.8903C81.7522 14.2514 81.4933 14.5275 81.0964 14.9072C80.1645 15.7183 79.6813 16.2015 79.6123 16.3395L79.1463 16.1497C79.2326 15.9599 79.2671 15.3041 79.2844 14.1823C79.2844 13.9235 79.3016 13.5438 79.3534 13.0261H79.3188C79.2498 13.1469 79.06 13.5783 78.7148 14.2859C78.3697 14.9934 78.1626 15.4594 78.0591 15.6665L77.5586 15.4422C77.5586 15.4422 77.8347 14.9244 78.3007 14.0615C78.7666 13.2159 79.06 12.6464 79.1808 12.353L80.0091 12.6982C79.8883 12.9743 79.8366 13.5093 79.8193 14.3031C79.8193 15.097 79.7848 15.5457 79.7503 15.6492H79.7848C79.7848 15.6492 80.1472 15.2523 80.734 14.7173C81.338 14.1823 81.7004 13.7681 81.8212 13.4748L82.6151 13.8199C82.4943 14.1133 82.2699 14.7001 81.9248 15.5802C81.5969 16.4776 81.4071 16.9608 81.3553 17.0644V17.0816Z" fill="white"/>
<path d="M86.0657 17.7026C85.7551 18.2376 85.3754 18.5482 84.8922 18.6518C84.409 18.7553 83.9603 18.6863 83.5288 18.4447C82.9593 18.1168 82.6832 17.6681 82.7177 17.1159C82.735 16.6844 82.9593 16.1149 83.3562 15.3901C83.8049 14.5963 84.3054 14.113 84.8749 13.9577C85.3236 13.8196 85.8586 13.8887 86.4799 14.1648C86.825 14.3201 87.222 14.4755 87.6361 14.6481L87.3255 15.1485C87.1357 15.0622 86.7388 14.8724 86.152 14.6135C85.6861 14.4237 85.3236 14.3546 85.0648 14.4064C84.7196 14.4754 84.3917 14.7688 84.0984 15.2866H84.1329C84.5643 15.1485 85.013 15.2002 85.4617 15.4591C85.8759 15.6835 86.1347 15.9941 86.2901 16.391C86.4281 16.788 86.3591 17.2194 86.083 17.7026H86.0657ZM85.4445 17.4955C85.6343 17.1676 85.7033 16.857 85.6688 16.5463C85.6343 16.2357 85.4617 15.9941 85.1338 15.8216C84.7023 15.5627 84.2709 15.5282 83.8567 15.7007C83.4943 16.3393 83.3045 16.857 83.3045 17.2367C83.3045 17.6164 83.4771 17.8925 83.805 18.0996C84.0983 18.2721 84.409 18.2894 84.7196 18.1686C85.0302 18.0478 85.2719 17.8234 85.4445 17.5128V17.4955Z" fill="white"/>
<path d="M88.2422 21.4307L87.7072 21.051C87.9834 20.7404 88.3285 20.2917 88.7427 19.7394C88.8635 19.5841 89.036 19.3425 89.2949 19.0491H89.2604C89.1224 19.1354 88.5873 19.2907 87.6727 19.4978C86.7926 19.7049 86.3266 19.8602 86.2403 19.981L85.8262 19.6704C86.1368 19.2907 86.4819 18.8593 86.8616 18.3588C87.2758 17.7893 87.5864 17.2889 87.8108 16.8574L88.4493 17.2025C88.1559 17.5477 87.8108 17.9964 87.3966 18.5659C87.2586 18.7557 87.0514 19.0146 86.8271 19.308H86.8616C86.9996 19.2389 87.5174 19.0836 88.4493 18.8593C89.3122 18.6522 89.7954 18.4796 89.8644 18.376L90.3477 18.6004C90.0198 18.9973 89.6401 19.4806 89.2086 20.0846C88.8635 20.5505 88.5529 21.0165 88.2595 21.4652L88.2422 21.4307Z" fill="white"/>
<path d="M91.0898 24.0703L90.6239 23.6216C90.969 23.311 91.3487 22.9313 91.7801 22.4999L90.5203 21.2918C90.1407 21.6887 89.7782 22.0857 89.4503 22.4999L88.9844 22.0512C89.3468 21.7233 89.7437 21.3264 90.1752 20.8777C90.6584 20.3599 91.038 19.9113 91.2969 19.4971L91.8836 19.9112C91.7456 20.032 91.4005 20.3772 90.831 20.9467L92.0907 22.1547C92.4531 21.7578 92.7465 21.3954 92.9536 21.0847L93.5404 21.4989C93.1607 21.8441 92.7293 22.2928 92.2115 22.8278C91.8146 23.242 91.435 23.6734 91.0898 24.0703Z" fill="white"/>
<path d="M93.4194 26.935L93.0397 26.5035C93.1087 26.4 93.195 26.3309 93.2813 26.2619V26.2274C92.8671 26.1584 92.5047 25.9168 92.1768 25.5198C92.0042 25.2955 91.918 25.0539 91.918 24.795C91.918 24.5361 92.0388 24.3118 92.2804 24.122C92.5737 23.8976 92.9189 23.8286 93.2813 23.9321C93.6609 24.0357 94.1097 24.4326 94.6619 25.1057C94.7137 25.0712 94.7655 25.0366 94.8345 24.9849C95.0761 24.795 95.1797 24.6052 95.1624 24.4326C95.1451 24.2428 95.0243 24.0184 94.8345 23.7768C94.5929 23.4834 94.334 23.2073 94.0234 22.983L94.4548 22.7241C94.7655 22.9485 95.0588 23.2418 95.3522 23.6215C95.6283 23.9666 95.7491 24.2773 95.7664 24.5707C95.7664 24.8641 95.6111 25.1574 95.2659 25.4163C95.1797 25.4853 95.0071 25.6061 94.7655 25.796C94.5239 25.9685 94.3685 26.0893 94.2823 26.1584C93.9371 26.4345 93.6437 26.6934 93.4021 26.9695L93.4194 26.935ZM93.5747 25.9858C93.8508 25.7442 94.1097 25.5371 94.3513 25.3473C94.0752 24.9848 93.8335 24.726 93.6265 24.5879C93.2813 24.3463 92.9707 24.3291 92.7118 24.5534C92.4529 24.7605 92.4702 25.0366 92.7463 25.4163C92.9879 25.7269 93.264 25.9167 93.5747 25.9858Z" fill="white"/>
<path d="M98.2339 28.2991L97.7507 28.5407C97.5954 28.1783 97.4228 27.8331 97.2329 27.488C96.9396 27.6433 96.5427 27.8504 96.0767 28.1266C95.559 28.4199 95.093 28.6961 94.6443 28.9894L94.3164 28.4026C94.7651 28.1955 95.2483 27.9367 95.8006 27.6261C96.2493 27.3672 96.629 27.1428 96.9396 26.953C96.7498 26.6251 96.5426 26.28 96.3183 25.9521L96.8015 25.7104L98.2511 28.2819L98.2339 28.2991Z" fill="white"/>
<path d="M95.9556 52.9948C96.3353 53.4263 96.7322 53.8577 97.1118 54.3064C97.2326 54.4445 97.2326 54.6343 97.0601 54.7724C96.2835 55.4627 95.4724 56.1184 94.644 56.7225C94.4196 56.8778 94.1263 56.8433 93.8674 56.8088C93.2979 56.757 93.0563 56.3601 92.7802 55.9977C92.0381 55.0485 91.3133 54.0821 90.5712 53.1329C90.5022 53.0294 90.3641 52.9948 90.2606 52.9085C90.2433 52.9258 90.2088 52.9431 90.1916 52.9603C90.1916 53.6161 90.1915 54.2546 90.157 54.9104C90.157 55.3246 90.1398 55.7561 90.1052 56.1703C90.0707 56.7225 90.0017 57.2575 89.9499 57.8097C89.8982 58.3965 89.8809 58.966 89.8291 59.5527C89.8291 59.6908 89.8464 59.8289 89.7946 59.9497C89.7256 60.1223 89.6565 60.3293 89.5012 60.4329C88.8799 60.8643 88.2242 61.244 87.5684 61.6064C87.275 61.779 87.0852 61.7099 86.9298 61.4683C85.7218 59.3629 84.5138 57.2574 83.3057 55.152C83.1332 54.8414 83.1332 54.8587 82.8398 55.014C82.65 55.1175 82.4602 55.3419 82.2186 55.1693C82.0632 55.0657 81.8734 54.9622 81.7698 54.8069C81.5455 54.479 81.3902 54.1166 81.1831 53.7714C80.9587 53.409 81.0277 52.9948 81.4247 52.805C81.9942 52.5289 82.5292 52.201 83.0814 51.8904C83.4611 51.666 83.8925 51.7695 84.2549 51.9249C84.4793 52.0284 84.7036 52.27 84.8417 52.4944C85.601 53.6334 86.3259 54.7896 87.0679 55.9459C87.1197 56.0322 87.1887 56.084 87.2405 56.1703C87.275 56.1703 87.2923 56.1702 87.3268 56.153C87.3613 55.8251 87.3958 55.4799 87.4303 55.152C87.4821 54.5307 87.4993 53.8922 87.5166 53.2709C87.5166 52.7877 87.4993 52.3045 87.5166 51.8213C87.5166 51.3726 87.5511 50.9412 87.5511 50.4925C87.5511 50.0093 87.5166 49.5261 87.4994 49.0429C87.4994 48.9566 87.5339 48.853 87.6029 48.8012C88.1034 48.4043 88.6039 47.9729 89.1216 47.576C89.3287 47.4034 89.6566 47.4897 89.8637 47.7313C91.1752 49.2672 92.4868 50.8031 93.7984 52.3563C94.04 52.6497 94.2989 52.9258 94.5405 53.2364C94.6785 53.4263 94.7993 53.3918 94.9892 53.2364C95.1445 53.1156 95.3343 52.9948 95.5069 52.9085C95.6795 52.8223 95.852 52.8568 95.9728 52.9948H95.9556ZM105.447 42.0881C105.119 42.0535 104.843 42.1398 104.671 42.5195C104.498 42.8646 104.308 42.9337 104.067 42.7611C102.134 41.3805 100.218 39.9999 98.2854 38.6193C97.9402 38.3777 97.5605 38.464 97.3362 38.7918C97.0083 39.2578 96.6459 39.7065 96.318 40.1724C96.249 40.276 96.2145 40.4313 96.2317 40.5521C96.249 40.7419 96.318 40.949 96.3698 41.1389C96.4906 41.5876 96.6286 42.019 96.7321 42.4677C96.8184 42.8474 96.853 43.2443 96.9393 43.6412C97.0601 44.1935 97.1809 44.7457 97.2844 45.2979C97.3189 45.436 97.2844 45.5913 97.319 45.7294C97.4398 46.3161 97.5605 46.8857 97.6814 47.4897C97.4397 47.5932 97.3189 47.5587 97.1809 47.4379C96.249 46.5405 95.2998 45.6258 94.3506 44.7457C94.1781 44.5904 93.9709 44.4868 93.7638 44.3833C93.3151 44.1762 92.8492 44.2625 92.5213 44.5386C91.9518 45.0218 91.4168 45.5568 90.8819 46.0746C90.692 46.2644 90.692 46.4369 90.8819 46.644C91.2615 47.0755 91.6412 47.4897 92.0209 47.9039C92.1244 48.0247 92.2452 48.0592 92.435 48.0419C92.6766 48.0074 92.7974 47.8521 92.9355 47.714C93.1771 47.4896 93.1771 47.4896 93.4014 47.714C95.0582 49.4743 96.7149 51.2345 98.3716 52.9948C98.5787 53.2192 98.8376 53.2192 99.1137 52.9603C99.6659 52.4426 100.218 51.9076 100.736 51.3209C100.857 51.1828 100.943 50.9239 100.943 50.7513C100.943 50.3199 100.857 49.9057 100.805 49.4915C100.753 49.0946 100.684 48.6977 100.632 48.3008C100.546 47.6623 100.46 47.0237 100.356 46.3852C100.201 45.505 100.011 44.6594 99.804 43.7965C99.804 43.7448 99.804 43.6585 99.8558 43.6067C99.873 43.5722 99.9594 43.6067 100.011 43.6067C100.063 43.6067 100.115 43.6585 100.149 43.693C101.116 44.4696 102.082 45.2634 103.048 46.04C103.29 46.2298 103.514 46.437 103.877 46.4542C104.395 46.4887 104.895 46.4369 105.292 45.9365C105.896 45.1944 106.465 44.4006 107.018 43.5895C107.173 43.3651 107.139 43.1925 106.949 43.0717C106.673 42.8991 106.396 42.7266 106.155 42.5195C105.948 42.3642 105.827 42.088 105.499 42.0535L105.447 42.0881ZM24.3711 44.2798C24.5609 44.0727 24.768 43.8483 24.9578 43.6412C25.0959 43.4859 25.1477 43.2961 25.0441 43.1753C24.8198 42.8819 24.5436 42.623 24.302 42.3469C24.2157 42.2434 24.1122 42.1571 24.0087 42.0535C23.8361 41.9154 23.6808 41.7602 23.4909 41.6566C23.4046 41.6221 23.2493 41.6911 23.1458 41.7429C23.025 41.8119 22.9387 41.9155 22.8352 42.019C21.6789 43.1408 20.5227 44.2625 19.3837 45.4015C19.2629 45.5223 19.142 45.6086 18.9522 45.5223C18.7106 45.4188 18.469 45.3325 18.2274 45.2117C17.9858 45.0909 17.7269 44.9873 17.5198 44.8147C17.1574 44.4868 16.8468 44.0899 16.5189 43.7103C16.2255 43.3824 16.1392 42.9854 16.1392 42.6058C16.1392 42.019 16.4671 41.5876 16.864 41.2252C17.2437 40.88 17.6579 40.5866 18.0376 40.2588C18.538 39.8446 19.0558 39.4476 19.539 38.9989C19.9704 38.6193 20.1085 37.8945 19.8151 37.4458C19.4182 36.8072 18.9694 36.1687 18.538 35.5301C18.3827 35.2885 18.0376 35.2022 17.865 35.3058C17.3473 35.6509 16.8468 35.9961 16.3463 36.3412C16.2773 36.393 16.2427 36.5311 16.2255 36.6174C16.191 36.9108 16.3981 37.1006 16.5534 37.3077C16.6914 37.4802 16.6742 37.5838 16.4843 37.7391C15.6215 38.4122 14.6033 38.8954 13.8957 39.7755C13.7231 39.9999 13.5333 40.2415 13.378 40.5003C13.1709 40.8973 13.0329 41.3114 13.0156 41.7947C12.9811 42.2951 12.9811 42.7956 13.1709 43.2961C13.2399 43.4514 13.2745 43.6239 13.3435 43.7793C13.4643 44.0726 13.5678 44.4006 13.7577 44.6594C14.3962 45.4705 15.0002 46.3334 15.8804 46.8857C16.1047 47.0237 16.3291 47.1445 16.5707 47.2481C16.8813 47.3861 17.0021 47.6623 16.8122 47.8521C15.656 48.9738 14.4998 50.1128 13.3435 51.2346C13.0501 51.5107 13.0673 51.7005 13.4125 52.0457C13.913 52.5634 14.4307 53.0639 14.9484 53.5471C15.3454 53.9095 15.5179 53.9095 15.8113 53.5816C17.3127 51.9594 18.7969 50.3199 20.281 48.6977C21.6271 47.2308 22.9732 45.7639 24.3193 44.297L24.3711 44.2798ZM25.838 61.6409C25.0269 61.1749 24.2157 60.6745 23.4391 60.1395C23.094 59.8979 23.025 59.5355 22.9387 59.1903C22.9042 59.0868 22.9042 58.9832 22.8697 58.8452C22.0931 58.9142 21.3855 58.7589 20.6607 58.431C20.0912 58.1721 19.608 57.8097 19.142 57.3955C18.9694 57.2575 18.8486 57.0504 18.7106 56.8778C18.2274 56.291 17.9167 55.6353 17.7959 54.9277C17.7614 54.6688 17.7096 54.3927 17.7442 54.1511C17.7959 53.7887 17.8477 53.3918 18.0203 53.0811C18.3482 52.4944 18.7969 51.9939 19.4182 51.7005C19.746 51.5452 20.0912 51.3899 20.4363 51.3381C20.7815 51.2863 21.1612 51.3381 21.5236 51.3899C21.8515 51.4416 22.1794 51.5107 22.5073 51.597C22.6971 51.6487 22.8869 51.7523 23.0768 51.8213C23.6635 52.0457 24.164 52.4081 24.7162 52.667C25.1822 52.8913 25.5964 53.1501 26.0106 53.4263C26.1314 53.4953 26.2004 53.4608 26.2694 53.3573C26.5455 52.9086 26.6146 52.132 26.0623 51.7695C25.6999 51.5279 25.372 51.2691 25.0096 51.0275C24.7335 50.8376 24.6299 50.8722 24.4228 51.131C24.2848 51.3036 24.164 51.5107 23.9051 51.4589C23.6463 51.4071 23.4219 51.2863 23.2148 51.0792C23.0423 50.8894 22.8179 50.7341 22.5935 50.596C22.2829 50.3889 22.0586 50.1301 22.0068 49.7677C22.0068 49.7159 22.0241 49.6296 22.0758 49.5778C22.352 49.25 22.5935 48.9048 22.9042 48.6286C23.094 48.4561 23.3702 48.3871 23.5945 48.3008C23.9914 48.1282 24.3883 48.18 24.7852 48.3353C24.8715 48.3698 24.9924 48.3353 25.0786 48.3698C25.3893 48.4906 25.7172 48.6287 26.0106 48.7667C26.511 49.0083 26.9942 49.2672 27.4084 49.6469C27.8744 50.0956 28.3921 50.4925 28.72 51.062C29.0997 51.7178 29.324 52.4253 29.2377 53.2364C29.2032 53.5989 29.0824 53.9095 28.9961 54.2546C28.7717 55.0657 28.2368 55.687 27.8399 56.3946C27.4084 57.1712 26.9252 57.9305 26.4592 58.6726C26.3384 58.8624 26.3902 58.966 26.58 59.0868C26.7871 59.2249 26.977 59.3802 27.1496 59.5527C27.2876 59.6908 27.3221 59.8461 27.2186 60.0187C26.9252 60.5019 26.6663 60.9851 26.373 61.4683C26.2522 61.6754 26.0623 61.7272 25.8207 61.5891L25.838 61.6409ZM24.6817 55.7215C24.837 55.4799 24.837 55.3937 24.5782 55.2383C23.8706 54.8242 23.1803 54.3927 22.3865 54.1338C21.817 53.9612 21.3337 53.9785 21.0749 54.4272C20.8678 54.6171 20.7125 54.9277 20.8333 55.2211C20.9541 55.5317 21.1784 55.8424 21.4373 56.0494C22.1276 56.6362 22.9042 56.757 23.6808 56.4118C24.0604 56.2393 24.4574 56.0667 24.699 55.7043L24.6817 55.7215ZM62.1134 65.7827C62.3205 66.1451 62.3378 66.5248 62.3378 66.8872C62.3378 67.2151 62.1825 67.5257 62.0789 67.8536C61.9581 68.2851 61.6648 68.6302 61.3369 68.9409C61.0953 69.1825 60.7328 69.3033 60.4222 69.4758C59.7147 69.8728 58.9208 69.9073 58.1269 69.9246C56.9016 69.9591 55.6591 69.959 54.4338 69.89C54.1404 69.89 53.8471 69.7865 53.5709 69.7174C53.2258 69.6139 53.105 69.3205 53.0014 69.0617C52.8979 68.8028 52.8806 68.5267 52.8979 68.2506C52.9496 67.2496 53.0187 66.2487 53.0877 65.2477C53.1568 64.2123 53.2258 63.1596 53.2948 62.1241C53.3121 61.7617 53.2948 61.7617 52.9669 61.7272C52.7598 61.7099 52.501 61.7962 52.3802 61.5373C52.2939 61.3993 52.2076 61.2267 52.2076 61.0714C52.2076 60.5882 52.2766 60.1222 52.3284 59.639C52.3629 59.2938 52.5873 59.0868 52.9151 59.104C53.5882 59.1385 54.2612 59.1903 54.9343 59.2076C56.0387 59.2593 57.1432 59.2594 58.2305 59.2421C58.5929 59.2421 58.9553 59.2938 59.2832 59.4664C59.5248 59.5872 59.8009 59.6045 60.0253 59.7598C60.474 60.0532 60.8364 60.4329 61.0952 60.9679C61.3368 61.4511 61.3196 61.9515 61.3886 62.4693C61.4231 62.7799 61.3196 63.056 61.1816 63.3321C61.0953 63.522 60.9745 63.6773 60.9054 63.8671C60.8537 64.0052 60.8191 64.1605 61.009 64.2813C61.5439 64.6437 61.8546 65.1615 62.148 65.7137L62.1134 65.7827ZM56.056 63.1596C56.056 63.3321 56.125 63.4012 56.2976 63.4012C56.6083 63.4012 56.9362 63.3839 57.2468 63.4012C57.592 63.4185 57.9026 63.3322 58.2305 63.2286C58.4376 63.1596 58.6619 62.5383 58.5584 62.3312C58.5238 62.2622 58.4894 62.1759 58.4721 62.0896C58.4548 61.8998 58.334 61.7617 58.1615 61.7099C57.8163 61.6236 57.4539 61.5718 57.0915 61.5201C57.0915 61.5373 57.0915 61.5546 57.0915 61.5718C56.8499 61.5718 56.591 61.5718 56.3494 61.5718C56.1941 61.5718 56.0905 61.6237 56.0905 61.8307C56.0905 62.2794 56.0905 62.7109 56.0905 63.1596H56.056ZM59.0071 66.0761C58.6619 65.6619 58.1787 65.6446 57.73 65.5756C57.2986 65.5066 56.8326 65.5756 56.4012 65.5756C56.1768 65.5756 56.056 65.6964 56.0388 65.9208C56.0388 66.4213 56.0388 66.939 56.0215 67.4395C56.0215 67.6293 56.1078 67.681 56.2803 67.681C56.591 67.681 56.9017 67.681 57.2295 67.681C57.4539 67.681 57.661 67.681 57.8853 67.681C58.3686 67.681 58.7655 67.5602 59.0761 67.1806C59.3005 66.9044 59.2487 66.3695 59.0244 66.0934L59.0071 66.0761ZM38.6431 66.9045C38.7294 66.7319 38.8157 66.5765 38.8329 66.3694C38.8329 66.1969 38.971 66.0243 39.0746 65.8517C39.2299 65.6101 39.3162 64.9199 38.902 64.6955C38.7812 64.6265 38.6431 64.5747 38.5223 64.5401C38.2922 64.4596 38.2117 64.3158 38.2807 64.1087C39.0228 61.8652 39.7821 59.6217 40.5242 57.3783C40.6623 56.9641 40.5242 56.6707 40.1618 56.5327C39.7131 56.3601 39.2644 56.2048 38.8157 56.0494C38.3325 55.8596 38.1599 55.9286 37.9528 56.4463C37.5904 57.3782 37.2107 58.3102 36.8483 59.2421C36.7793 59.4319 36.6758 59.5009 36.4859 59.4146C35.4332 58.9832 34.3805 58.5345 33.345 58.0513C33.1207 57.9478 33.1034 57.827 33.207 57.6199C33.3968 57.2402 33.5866 56.8605 33.7592 56.4636C33.9318 56.0839 34.1389 55.7215 34.2079 55.2901C34.277 54.9277 34.277 54.6343 34.1044 54.341C34.0008 54.1684 33.9145 53.9613 33.7592 53.875C33.1034 53.4953 32.4477 53.1501 31.7919 52.7877C31.5157 52.6324 31.2741 52.736 31.1015 53.0294C30.8427 53.4608 30.5838 53.8923 30.3422 54.341C30.3077 54.41 30.2904 54.5135 30.2904 54.617C30.2732 55.014 30.5838 55.1175 30.8427 55.2556C31.1015 55.4109 31.1188 55.4109 30.9635 55.6698C30.3767 56.7397 29.79 57.7925 29.2032 58.8624C28.6165 59.9324 28.0297 60.9851 27.4602 62.0551C27.4084 62.1413 27.4084 62.2622 27.4084 62.3657C27.4084 62.6073 27.65 62.6936 27.8399 62.7972C28.4094 63.1078 28.9961 63.4184 29.6001 63.6945C29.997 63.8844 30.2042 63.8326 30.3767 63.4702C30.8599 62.4865 31.3431 61.4856 31.8091 60.5019C31.8954 60.312 31.9989 60.2603 32.206 60.3638C33.2587 60.8816 34.3287 61.3303 35.4159 61.7617C35.7783 61.8998 35.7783 61.8998 35.6403 62.2449C35.3469 62.9697 35.0708 63.7118 34.7774 64.4366C34.5358 65.0061 34.8809 65.9725 35.5712 66.2314C36.4169 66.5593 37.2798 66.8527 38.1427 67.1116C38.3497 67.1806 38.505 67.1116 38.6086 66.9045H38.6431ZM50.1884 67.8191C49.826 68.1643 49.3428 68.4404 48.8596 68.6647C48.3764 68.8891 47.8587 69.0272 47.3237 69.1652C47.1166 69.217 46.875 69.217 46.6679 69.217C46.1157 69.217 45.5462 69.1825 44.9939 69.1479C44.3554 68.9926 43.7513 68.7856 43.1818 68.4577C42.9748 68.3369 42.7332 68.2678 42.5433 68.1298C42.0774 67.8364 41.6287 67.5258 41.3353 67.0598C41.111 66.6974 40.783 66.3867 40.5932 66.0243C40.3861 65.5929 40.2826 65.1269 40.1618 64.6782C40.0755 64.3503 40.0582 64.0052 40.0064 63.66C40.0064 63.6428 40.0064 63.6083 40.0064 63.591C40.1618 62.9697 40.1273 62.314 40.4207 61.7272C40.5587 61.4511 40.645 61.1404 40.8348 60.8988C41.2318 60.4156 41.5942 59.8979 42.0947 59.4837C42.4743 59.1903 42.854 58.9142 43.2509 58.6899C43.6996 58.431 44.1828 58.2756 44.7005 58.1721C45.6324 57.9823 46.5299 57.9996 47.4272 58.2066C47.6861 58.2584 47.9449 58.3792 48.2038 58.5C48.4627 58.6208 48.7388 58.7243 48.9804 58.8797C49.2738 59.0695 49.5672 59.2766 49.8433 59.5182C50.0849 59.7253 50.3092 59.9496 50.5163 60.1913C50.7234 60.4674 50.9305 60.7608 51.0858 61.0714C51.2757 61.4511 51.431 61.8652 51.5691 62.2794C51.8624 63.1078 51.9314 63.9707 51.7589 64.8336C51.6553 65.3858 51.4655 65.9208 51.2067 66.4385C50.9305 66.9735 50.5681 67.4222 50.1539 67.8191H50.1884ZM48.9114 62.9525C48.9114 62.7109 48.8251 62.4347 48.6698 62.2449C48.3937 61.8998 48.2556 61.4511 47.8414 61.244C47.5826 61.1059 47.3237 60.9506 47.0648 60.8126C46.9958 60.778 46.9095 60.7953 46.8405 60.7435C46.4953 60.5192 46.0984 60.5882 45.7187 60.6054C45.4598 60.6054 45.1837 60.6745 44.9594 60.7953C44.5797 61.0024 44.2173 61.2095 43.9067 61.5546C43.6133 61.8653 43.4235 62.1931 43.2682 62.5555C42.923 63.3321 42.923 64.1432 43.3027 64.9371C43.6996 65.7482 44.3381 66.3349 45.5116 66.5938C45.9948 66.7319 46.6506 66.6456 47.2547 66.404C48.1348 66.0416 48.618 65.3168 48.8769 64.4712C49.0322 63.9707 48.9459 63.4702 48.9114 62.9698V62.9525ZM85.2559 62.452C85.0488 62.0378 84.8072 61.6409 84.6173 61.2267C84.393 60.6917 83.7372 60.778 83.3575 61.0714C83.0641 61.2958 82.719 61.3475 82.4774 61.1059C82.3911 61.0196 82.2876 60.9679 82.184 60.9161C81.4592 60.5709 80.7689 60.1567 80.1821 59.6563C79.6989 59.5872 79.7852 59.2939 79.8888 58.966C79.9578 58.7416 79.9578 58.5173 80.0095 58.2929C80.1131 57.7579 80.2339 57.2402 80.3029 56.7052C80.372 56.2565 80.4065 55.7906 80.4583 55.3419C80.4928 55.014 80.5618 54.7034 80.5791 54.3755C80.5791 54.2201 80.5791 54.0475 80.51 53.9267C80.4237 53.7542 80.0786 53.6851 79.906 53.7714C79.302 54.0648 78.698 54.3582 78.094 54.6688C77.9904 54.7206 77.8869 54.8587 77.8523 54.9795C77.7833 55.3074 77.7316 55.6352 77.6798 55.9631C77.5935 56.4636 77.5072 56.9641 77.4037 57.4818C77.3519 57.7752 77.2484 58.0859 77.2484 58.3792C77.2484 58.8624 77.0413 59.2594 76.5926 59.4492C76.2819 59.57 76.2647 59.57 76.1439 59.2593C75.885 58.569 75.5916 57.896 75.35 57.2057C75.2465 56.9123 75.0566 56.7225 74.7805 56.5844C74.4353 56.4291 74.0729 56.3255 73.7105 56.4463C73.0547 56.6707 72.399 56.895 71.7259 57.1021C71.5361 57.1712 71.4326 57.3783 71.4843 57.6026C71.6397 58.1549 71.7949 58.7071 71.9848 59.2593C72.0711 59.5355 72.3127 59.6218 72.5715 59.5527C72.7096 59.5182 72.8304 59.4837 72.9512 59.4319C73.1583 59.3456 73.2618 59.4319 73.3481 59.639C73.7278 60.7953 74.1075 61.9688 74.4871 63.1251C74.8495 64.2468 75.2292 65.3858 75.5916 66.5075C75.7297 66.9045 75.8678 66.9735 76.3337 66.8182C76.886 66.6456 77.4555 66.473 78.0077 66.2659C78.6117 66.0588 78.698 65.8862 78.4909 65.3513C78.0767 64.2985 77.6798 63.2459 77.2829 62.1931C77.2483 62.1069 77.2656 61.9688 77.3174 61.917C77.5935 61.6582 78.094 61.6927 78.3701 61.917C78.7498 62.2277 79.1467 62.521 79.5436 62.8144C79.8542 63.0387 80.1476 63.2459 80.4755 63.4357C80.8552 63.6773 81.1831 63.9707 81.6145 64.126C81.9769 64.2468 82.3566 64.3503 82.7363 64.195C83.5129 63.8671 84.2722 63.4875 85.0315 63.0733C85.3249 62.918 85.3767 62.7281 85.2386 62.4693L85.2559 62.452ZM72.3817 64.3676C72.1401 64.1778 71.7087 64.2295 71.5361 64.5229C71.2945 64.9371 70.9666 65.265 70.5869 65.5929C70.1382 65.9726 69.6032 66.1278 69.0682 66.3177C68.8439 66.404 68.585 66.3522 68.3434 66.3867C67.7222 66.473 67.1527 66.266 66.6695 65.9898C66.2725 65.7655 66.0309 65.3685 65.7893 64.9889C65.5132 64.5574 65.5132 64.0915 65.4269 63.6255C65.3406 63.1423 65.4269 62.6764 65.5822 62.2449C65.8066 61.6236 66.2208 61.1059 66.7903 60.7953C67.1182 60.6054 67.4978 60.5019 67.8775 60.4329C68.1881 60.3811 68.516 60.4501 68.8266 60.5192C69.051 60.5709 69.1028 60.7953 69.1545 61.0024C69.2754 61.5201 69.4307 61.6064 69.9484 61.5028C70.3626 61.4166 70.7422 61.2095 71.1737 61.2785C71.2254 61.2785 71.3117 61.2267 71.3635 61.1922C71.4325 61.1577 71.5016 61.0887 71.5879 61.0541C71.7777 60.9678 71.864 60.778 71.8122 60.6227C71.6223 60.0705 71.6051 59.4492 71.2254 58.9487C70.9838 58.6381 70.7077 58.3792 70.3798 58.2066C69.8103 57.9305 69.2063 57.7925 68.585 57.8442C68.3089 57.8615 68.0155 57.827 67.7394 57.8442C67.377 57.896 66.9973 57.9478 66.6522 58.0513C66.2898 58.1549 65.9619 58.3275 65.6167 58.4828C65.3406 58.6208 65.0472 58.7761 64.7884 58.966C64.495 59.1903 64.2016 59.4319 63.9773 59.7598C63.7874 60.0359 63.5458 60.2775 63.3732 60.5709C63.0971 61.0541 62.8383 61.5719 62.7174 62.1414C62.6484 62.4865 62.4759 62.8317 62.5104 63.1596C62.5794 63.9534 62.5104 64.7818 62.8555 65.5584C63.1144 66.1106 63.2697 66.7146 63.7356 67.1633C63.96 67.3704 64.1326 67.6293 64.3914 67.8019C64.6848 68.0262 65.0645 68.1643 65.3579 68.3886C65.7893 68.6992 66.307 68.7856 66.8248 68.8891C67.0491 68.9409 67.308 68.9064 67.5496 68.9409C68.2054 69.0272 68.8439 68.9754 69.5169 68.8718C69.9484 68.7165 70.3625 68.5612 70.794 68.4059C71.3807 68.1815 71.9158 67.8882 72.3472 67.4912C72.8132 67.0598 73.1928 66.5766 73.5898 66.0934C73.7796 65.869 73.7623 65.4893 73.5552 65.2995C73.1755 64.9543 72.8131 64.6092 72.4162 64.2986L72.3817 64.3676ZM93.2289 42.8819C93.5568 42.8646 93.8846 42.8819 94.1953 42.6921C94.5059 42.5022 94.6785 42.2434 94.8339 41.9327C95.0064 41.6048 94.9892 41.2597 94.9201 40.949C94.8683 40.6902 94.6613 40.4486 94.506 40.2242C94.4542 40.1552 94.3679 40.0861 94.2816 40.0516C94.1435 39.9653 93.9882 39.8963 93.8329 39.8273C93.7984 39.8101 93.7466 39.7755 93.6948 39.7755C93.2116 39.7928 92.7112 39.672 92.3488 40.0862C92.2797 40.1725 92.0899 40.1897 92.0554 40.276C91.9346 40.5866 91.762 40.88 91.7792 41.2597C91.7965 41.7429 91.9518 42.1226 92.3315 42.4505C92.5731 42.6921 92.832 42.8991 93.2116 42.8819H93.2289Z" fill="white"/>
<path d="M65.5659 55.2727C65.8593 55.1691 66.2045 55.2727 66.5151 55.1346C66.8085 55.0138 67.1536 55.0311 67.4815 54.9793C67.7749 54.9448 68.0683 54.9448 68.3616 54.824C68.6895 54.686 69.0865 54.6859 69.4489 54.6169C69.5352 54.6169 69.6042 54.5996 69.6905 54.5824C70.2945 54.4443 70.8813 54.3063 71.4853 54.1682C71.5198 54.1682 71.5543 54.1682 71.5889 54.1682C71.9513 54.0819 72.2964 53.9784 72.6588 53.8921C72.6933 53.8921 72.7278 53.8921 72.7451 53.8748C73.004 53.7713 73.2801 53.685 73.5389 53.5815C73.815 53.4952 74.0912 53.4261 74.3673 53.3398C74.6952 53.2363 75.0058 53.1155 75.3337 52.9947C75.5581 52.9256 75.7997 52.8911 76.0068 52.8049C76.3692 52.6668 76.7143 52.5115 77.0595 52.3561C77.5772 52.1491 78.095 51.9592 78.5954 51.7349C78.9578 51.5796 79.3203 51.3725 79.6654 51.1826C80.5283 50.7167 81.3911 50.2507 82.2368 49.7848C82.651 49.5604 83.0306 49.2843 83.4275 49.0427C83.5656 48.9564 83.6864 48.8356 83.8245 48.7321C84.2904 48.3869 84.7564 48.0763 85.2051 47.7138C85.7573 47.2479 86.2923 46.7647 86.81 46.2815C87.1379 45.9709 87.4658 45.6602 87.7592 45.3323C88.1907 44.8491 88.6221 44.3486 88.9845 43.7964C89.1398 43.5548 89.3124 43.3132 89.4677 43.0543C89.5885 42.8645 89.7093 42.6746 89.8129 42.4848C89.9855 42.1742 90.1753 41.8808 90.3306 41.5529C90.5377 41.1042 90.7275 40.6555 90.8828 40.1896C91.0727 39.6718 91.2625 39.1368 91.3833 38.6018C91.4869 38.1014 91.5559 37.5837 91.5559 37.0832C91.5559 36.1168 91.694 35.1331 91.4351 34.1839C91.3316 33.8215 91.3143 33.4418 91.2625 33.0794C91.2625 33.0449 91.2625 33.0104 91.2452 32.9931C91.1072 32.6307 90.9691 32.2683 90.8311 31.9059C90.7103 31.578 90.6067 31.2329 90.4514 30.9222C90.2271 30.4735 89.9682 30.0421 89.7266 29.6106C89.5712 29.3345 89.4159 29.0411 89.2433 28.7823C89.0708 28.5234 88.8464 28.2818 88.6566 28.0402C88.3287 27.6433 88.0008 27.2291 87.6557 26.8494C87.3623 26.5215 87.0516 26.2281 86.7238 25.9348C86.1715 25.4343 85.6193 24.9166 85.0498 24.4334C84.7046 24.14 84.3249 23.8984 83.9625 23.6395C83.8072 23.536 83.6692 23.3979 83.5139 23.2944C83.0652 23.0182 82.6164 22.7421 82.1677 22.4488C81.9606 22.3279 81.7708 22.1899 81.5465 22.0691C81.1495 21.8447 80.7353 21.6377 80.3384 21.4306C79.9933 21.2407 79.6654 21.0336 79.303 20.8783C78.8198 20.654 78.302 20.4469 77.8188 20.2398C77.6635 20.1708 77.5082 20.1362 77.3529 20.0672C77.0423 19.9291 76.7489 19.7911 76.4382 19.653C75.9033 19.4459 75.351 19.2388 74.816 19.049C74.5917 18.98 74.3673 18.9282 74.1429 18.8764C73.9186 18.8246 73.6943 18.7729 73.4699 18.7038C73.004 18.5658 72.538 18.4105 72.0721 18.2552C71.7787 18.1689 71.4853 18.0998 71.1919 18.0135C71.0021 17.9618 70.8123 17.8755 70.6052 17.841C70.2082 17.7719 69.8286 17.7202 69.4317 17.6684C69.4317 17.6684 69.3971 17.6684 69.3799 17.6684C69.0175 17.5821 68.6723 17.4785 68.3099 17.4095C67.7404 17.306 67.1709 17.2197 66.6014 17.1334C65.8248 17.0126 65.031 16.9781 64.2544 16.8228C63.6504 16.6847 63.0118 16.771 62.3905 16.6847C61.2343 16.5294 60.0435 16.7365 58.87 16.5294C58.5593 16.4776 58.2142 16.5984 57.869 16.6157C56.6092 16.702 55.3322 16.5639 54.0724 16.7365C53.3303 16.84 52.5537 16.8746 51.8116 16.9608C51.1558 17.0299 50.5173 17.1679 49.8615 17.237C49.2748 17.306 48.688 17.3577 48.1185 17.5303C47.7906 17.6339 47.4109 17.6511 47.0658 17.7029C46.9967 17.7029 46.945 17.7202 46.876 17.7374C46.5653 17.8237 46.2547 17.9445 45.944 18.0135C45.4436 18.1516 44.9258 18.2551 44.4254 18.3759C43.9767 18.4967 43.528 18.6348 43.062 18.7729C42.8722 18.8246 42.6651 18.8764 42.4752 18.9455C42.2336 19.0317 42.0093 19.1353 41.7677 19.2216C41.5261 19.3079 41.2845 19.3769 41.0602 19.4632C40.5942 19.6357 40.1455 19.8083 39.6795 19.9981C39.4034 20.1017 39.1445 20.2052 38.8684 20.326C38.5923 20.4469 38.3162 20.6022 38.0401 20.723C37.5569 20.9473 37.0564 21.1372 36.5905 21.3788C36.09 21.6377 35.6068 21.9483 35.1235 22.2417C34.8129 22.4142 34.485 22.535 34.1916 22.7249C33.812 22.9665 33.4496 23.2426 33.0699 23.5187C32.7075 23.7776 32.3451 24.0364 31.9999 24.3125C31.5685 24.6577 31.1543 25.0201 30.7228 25.3825C30.4985 25.5723 30.2569 25.745 30.0498 25.952C29.7737 26.2282 29.5148 26.5215 29.2732 26.8149C28.9108 27.2464 28.5138 27.6606 28.186 28.1265C27.9789 28.4372 27.6683 28.6615 27.5302 29.0412C27.4267 29.3173 27.2195 29.5416 27.0642 29.8005C26.8916 30.0766 26.7018 30.3527 26.5465 30.6461C26.4085 30.9222 26.3221 31.2156 26.2013 31.509C26.1323 31.6816 26.1151 31.8887 26.0115 32.044C25.7527 32.4409 25.7181 32.9069 25.5973 33.3383C25.4765 33.7525 25.3212 34.1839 25.304 34.6153C25.304 35.7543 25.1832 36.8934 25.4075 38.0496C25.5801 38.9298 25.8044 39.7927 26.0805 40.6383C26.1323 40.7763 26.1841 40.9144 26.2531 41.0524C26.3739 41.3113 26.5293 41.5702 26.6501 41.8118C26.9089 42.295 27.185 42.7782 27.4439 43.2614C27.5302 43.4167 27.6165 43.5548 27.72 43.6756C27.9616 43.9862 28.2205 44.2796 28.4621 44.5902C28.6692 44.8491 28.8763 45.1252 29.1006 45.3668C29.4803 45.781 29.86 46.1779 30.2742 46.5576C30.6538 46.9028 31.0507 47.2306 31.4477 47.5585C31.7928 47.8519 32.1379 48.1625 32.5004 48.4214C32.88 48.7148 33.3115 48.9564 33.7084 49.2153C33.9328 49.3706 34.1571 49.5259 34.3815 49.664C34.6921 49.8538 34.9855 50.0437 35.2961 50.2335C35.5895 50.4061 35.8829 50.5786 36.1935 50.7339C36.6422 50.9583 37.1254 51.1826 37.5741 51.407C37.9192 51.5796 38.2472 51.7866 38.6096 51.9247C39.1791 52.1663 39.7658 52.3734 40.3526 52.5805C40.5079 52.6323 40.6805 52.6668 40.8531 52.7358C41.181 52.8739 41.4916 53.0292 41.8195 53.15C42.3717 53.3226 42.9412 53.4779 43.4935 53.6332C43.7006 53.685 43.8904 53.7713 44.0975 53.8403C44.3218 53.9094 44.5289 53.9956 44.7533 54.0474C45.0639 54.1164 45.3745 54.1682 45.6852 54.2372C46.0476 54.3235 46.41 54.4443 46.7724 54.5306C47.3419 54.6514 47.9287 54.7377 48.4982 54.8412C48.5327 54.8412 48.5845 54.8585 48.619 54.8758C48.9814 54.9621 49.3266 55.0656 49.689 55.1346C49.9651 55.1864 50.2584 55.1346 50.5346 55.1864C50.9315 55.2554 51.3284 55.3762 51.7426 55.428C52.3121 55.497 52.8643 55.4453 53.4511 55.5661C54.1414 55.7041 54.849 55.7042 55.5393 55.7387C56.4712 55.7732 57.4204 55.7904 58.7492 55.8422C59.474 55.8077 60.5957 55.7387 61.7002 55.6696C62.4251 55.6179 63.1326 55.6696 63.8574 55.497C64.4097 55.359 65.0137 55.5316 65.5659 55.3417V55.2727ZM44.0975 32.0267C44.0802 31.5607 44.3046 31.1983 44.4771 30.8014C44.6325 30.4563 44.9086 30.2147 45.1847 29.9903C45.409 29.8177 45.7025 29.7315 45.9786 29.6279C46.1857 29.5416 46.41 29.5071 46.6689 29.4381C46.9968 29.5416 47.3246 29.6452 47.6525 29.7315C48.3773 29.9385 48.8261 30.508 49.3093 31.0085C49.5336 31.2501 49.6889 31.5607 49.8788 31.8541C50.1031 32.2165 50.3447 32.5617 50.5518 32.9413C50.7934 33.39 50.9833 33.856 51.2076 34.322C51.3457 34.5981 51.4837 34.8742 51.6045 35.1503C51.6736 35.3056 51.7253 35.4782 51.7771 35.6335C51.9324 36.0995 52.0877 36.5655 52.2431 37.0142C52.3466 37.2903 52.4502 37.5664 52.5537 37.8425C52.5537 37.877 52.5537 37.9288 52.571 37.9633C52.6572 38.274 52.7608 38.5846 52.8471 38.8952C52.8643 38.9643 52.8816 39.0333 52.8644 39.1023C52.8644 39.1714 52.8298 39.2749 52.778 39.2922C52.7263 39.3094 52.6227 39.2749 52.571 39.2231C52.3121 39.0333 52.0705 38.8262 51.8116 38.6536C51.4319 38.3947 51.035 38.1704 50.6554 37.9115C50.3102 37.6872 49.9823 37.4283 49.6199 37.204C49.4128 37.0832 49.1885 36.9969 48.9814 36.8934C48.7053 36.7725 48.4464 36.6345 48.1703 36.5137C47.9114 36.3929 47.6698 36.2893 47.4282 36.1513C46.876 35.8407 46.3237 35.5473 45.8232 35.1849C45.4436 34.9087 45.133 34.5118 44.7878 34.1667C44.4254 33.8043 44.2701 33.3383 44.1147 32.8896C44.0285 32.6135 44.0802 32.3028 44.063 31.9922L44.0975 32.0267ZM53.3476 45.2115C53.3476 45.2115 53.2268 45.2806 53.1923 45.2806C52.9679 45.2288 52.7435 45.1425 52.5192 45.0907C52.2431 45.0044 51.9497 44.9181 51.6563 44.8664C51.2249 44.7801 50.7762 44.7801 50.3793 44.642C49.9651 44.5039 49.5164 44.5902 49.1194 44.4867C48.4982 44.3141 47.8769 44.4004 47.2556 44.3659C46.5826 44.3486 45.8923 44.3659 45.2192 44.3659C44.4944 44.4004 43.7696 44.4004 43.062 44.5385C42.1474 44.711 41.2327 44.7974 40.318 44.8491C39.8348 44.8836 39.3344 44.9526 38.8512 44.9181C38.1436 44.8664 37.4188 44.7801 36.7285 44.642C36.2108 44.5385 35.7276 44.2796 35.2271 44.107C34.7611 43.9344 34.416 43.6238 34.019 43.3477C33.6394 43.0716 33.415 42.6919 33.1562 42.3468C32.9491 42.0534 32.8801 41.6737 32.7075 41.3458C32.4831 40.8971 32.5694 40.4139 32.5694 39.9479C32.5694 39.7581 32.6557 39.5683 32.7247 39.3957C32.8973 38.9643 33.0354 38.5328 33.346 38.1532C33.6567 37.7735 33.9845 37.4456 34.3987 37.1868C34.8819 36.8761 35.3651 36.5655 35.9519 36.4619C36.3143 36.3929 36.6594 36.2721 37.0391 36.2376C37.4015 36.203 37.7639 36.2376 38.1263 36.2376C38.1263 36.203 38.1263 36.1858 38.1263 36.1513C38.8167 36.2203 39.507 36.2893 40.1973 36.3929C40.5942 36.4446 40.9738 36.531 41.3535 36.6345C41.6296 36.7035 41.9058 36.8416 42.1819 36.9278C42.3545 36.9969 42.5443 37.0314 42.7169 37.0832C43.0793 37.2213 43.459 37.3766 43.8214 37.5319C44.1838 37.6872 44.5462 37.8425 44.8914 38.0324C45.0984 38.1359 45.2882 38.2912 45.4953 38.412C45.875 38.6191 46.2547 38.8262 46.6171 39.0333C46.8587 39.1713 47.1003 39.3439 47.3247 39.5165C47.5835 39.7063 47.8596 39.8962 48.1185 40.086C48.55 40.4139 48.9641 40.7418 49.3783 41.0869C49.758 41.3976 50.1204 41.7255 50.4828 42.0706C50.9142 42.4676 51.3284 42.8817 51.7598 43.2959C52.0187 43.5548 52.2776 43.8309 52.5192 44.107C52.778 44.4004 53.0369 44.711 53.2958 45.0217C53.3303 45.0734 53.3475 45.1597 53.3303 45.2287L53.3476 45.2115ZM62.9428 54.9966C62.1317 55.2036 61.286 54.9965 60.4922 55.1519C59.9054 55.2554 59.3187 55.2209 58.7492 55.2382C58.4558 55.2382 58.3868 55.1691 58.3868 54.8412C58.3868 53.5642 58.3868 52.2871 58.3868 51.0101C58.3868 49.7675 58.3868 48.525 58.3868 47.2824C58.3868 47.0235 58.2314 46.851 58.1797 46.6439C58.0934 46.3505 58.0071 46.0744 57.9035 45.781C57.8345 45.5912 57.7828 45.3841 57.7137 45.1943C57.6274 44.9699 57.5412 44.7283 57.4549 44.504C57.2478 43.9862 57.0407 43.4512 56.8164 42.9335C56.6438 42.5193 56.4367 42.1051 56.2641 41.691C56.0398 41.156 55.8499 40.6037 55.6256 40.0687C55.453 39.6373 55.2286 39.2231 55.056 38.7917C54.8317 38.2222 54.6246 37.6354 54.4003 37.0487C54.314 36.8243 54.2104 36.6172 54.1241 36.4101C54.0551 36.2548 54.0206 36.0822 53.9688 35.9269C53.7272 35.1503 53.4684 34.391 53.244 33.6144C53.1405 33.252 53.1405 32.8723 53.0024 32.5272C52.8471 32.113 52.9506 31.6643 52.8471 31.2846C52.709 30.8359 52.7608 30.3873 52.7608 29.9558C52.7608 29.4899 52.7781 29.0067 52.9161 28.558C53.106 27.8849 53.244 27.2118 53.5891 26.5906C53.9516 25.9693 54.3312 25.3653 54.8835 24.8993C55.2804 24.5714 55.7118 24.2608 56.1951 24.0537C56.5575 23.8984 56.9371 23.8121 57.3168 23.6913C57.5929 23.605 57.8518 23.5878 58.1107 23.5878C58.2833 23.5878 58.3695 23.5187 58.3695 23.3461C58.3695 23.139 58.3695 22.932 58.3695 22.7076C58.3695 20.9301 58.3695 19.1525 58.3695 17.375C58.3695 17.0816 58.404 17.0471 58.7147 17.0471C59.612 17.0471 60.5267 17.0471 61.4241 17.0989C62.0626 17.1161 62.7184 17.1852 63.3569 17.2542C63.7366 17.2887 64.1335 17.2715 64.4787 17.3923C64.9274 17.5303 65.3589 17.4958 65.8076 17.5476C66.1009 17.5821 66.3943 17.6166 66.6704 17.6856C67.0156 17.7547 67.3435 17.8582 67.6886 17.9445C67.7231 17.9445 67.7749 17.9445 67.8094 17.9445C68.517 18.0826 69.2245 18.2206 69.9321 18.3587C70.2772 18.4277 70.6224 18.4967 70.9676 18.6003C71.3817 18.7211 71.7959 18.8592 72.2274 18.9972C72.9004 19.2043 73.5734 19.4114 74.2465 19.6185C74.3673 19.653 74.4881 19.7393 74.6089 19.7911C74.9368 19.9291 75.2647 20.0672 75.5926 20.188C76.0068 20.3606 76.4382 20.4986 76.8524 20.6712C77.025 20.7403 77.1803 20.8611 77.3356 20.9473C77.5082 21.0336 77.698 21.0854 77.8879 21.1544C77.9742 21.1889 78.0604 21.2407 78.1295 21.2752C78.5091 21.4823 78.8888 21.6721 79.2512 21.8792C79.5619 22.0518 79.8897 22.2244 80.1831 22.4143C80.6318 22.6731 81.0633 22.9492 81.4947 23.2426C81.9089 23.5187 82.3231 23.8294 82.7373 24.1227C83.1342 24.4161 83.4793 24.744 83.8763 25.0374C84.532 25.5206 85.0843 26.1074 85.6538 26.7114C85.9989 27.091 86.3441 27.4707 86.6547 27.8676C86.9308 28.2128 87.1725 28.5579 87.3968 28.9204C87.811 29.6107 88.2252 30.3182 88.6048 31.0258C88.7947 31.3882 88.8809 31.8024 89.019 32.1993C89.0535 32.3201 89.1053 32.4409 89.1571 32.5617C89.2434 32.8205 89.3296 33.0794 89.4159 33.3383C89.4159 33.3555 89.4159 33.3901 89.4159 33.4073C89.485 33.8733 89.5713 34.3392 89.6058 34.8224C89.6576 35.4955 89.7093 36.1685 89.6921 36.8416C89.6921 37.2903 89.554 37.7562 89.485 38.2049C89.485 38.274 89.4849 38.343 89.4504 38.3948C89.3469 38.7917 89.2606 39.1713 89.1571 39.5683C89.1053 39.7926 89.0535 40.0343 88.9672 40.2586C88.8982 40.483 88.7774 40.6728 88.6911 40.8971C88.6911 40.9144 88.6739 40.9489 88.6739 40.9662C88.5531 41.3976 88.3459 41.76 88.1043 42.1224C87.9145 42.3985 87.7937 42.7264 87.6211 43.0371C87.4831 43.2787 87.3105 43.5203 87.1379 43.7446C86.7237 44.2796 86.2923 44.7973 85.8609 45.3151C85.533 45.712 85.1879 46.1089 84.8082 46.4541C84.1869 47.0236 83.5311 47.5585 82.8926 48.0935C82.6337 48.3006 82.3231 48.4387 82.047 48.663C81.3912 49.1808 80.6663 49.5777 79.976 50.0091C79.7689 50.1299 79.5964 50.268 79.3893 50.3888C79.2685 50.4578 79.1304 50.5096 79.0096 50.5614C78.5609 50.7685 78.1295 50.9928 77.6808 51.1999C77.3356 51.3552 76.9732 51.5105 76.6108 51.6659C76.1104 51.8902 75.6098 52.1146 75.1094 52.3216C74.7297 52.477 74.35 52.615 73.9704 52.7358C73.5734 52.8739 73.1593 53.0292 72.7451 53.1673C72.3999 53.2881 72.0376 53.3744 71.6924 53.4779C71.1919 53.616 70.7087 53.7886 70.2082 53.9094C69.8976 53.9957 69.5697 54.0129 69.2418 54.0819C68.8794 54.1682 68.517 54.2545 68.1373 54.3408C68.1028 54.3408 68.051 54.358 68.0165 54.3753C67.5333 54.4443 67.0673 54.5134 66.5841 54.5824C65.8075 54.6859 65.0309 54.7204 64.2716 54.893C63.8056 54.9966 63.3397 54.9103 62.9083 55.0311L62.9428 54.9966Z" fill="white"/>
<path d="M69.1188 44.2282C69.7573 44.1592 70.4131 44.1765 71.0689 44.2973C71.8455 44.4353 72.6566 44.2628 73.4332 44.4526C73.8474 44.5561 74.2788 44.4698 74.7103 44.5906C75.228 44.746 75.8148 44.746 76.367 44.7632C77.3507 44.7977 78.3344 44.8668 79.318 44.677C79.715 44.5907 80.1292 44.5389 80.5261 44.4526C80.7159 44.4181 80.9058 44.3663 81.0611 44.28C81.4062 44.1247 81.7341 43.9349 82.062 43.745C82.3726 43.5552 82.666 43.3481 82.9421 43.1238C83.3045 42.8304 83.5634 42.4335 83.7705 42.0365C83.9086 41.7777 84.0811 41.5188 84.1156 41.2599C84.2192 40.2935 84.2537 39.3098 83.667 38.4815C83.3563 38.0328 82.9594 37.6013 82.5107 37.2562C82.1655 36.98 81.7169 36.7902 81.2854 36.6349C80.8712 36.4796 80.4225 36.376 79.9738 36.3415C78.9211 36.2552 77.8684 36.2034 76.8157 36.445C76.3325 36.5486 75.832 36.6521 75.3488 36.7729C74.8829 36.8937 74.4169 37.0491 73.9682 37.2217C73.6403 37.3425 73.3124 37.4805 73.0017 37.6358C72.7601 37.7394 72.5186 37.8775 72.277 37.9983C71.9318 38.1708 71.5866 38.3089 71.2415 38.4815C71.0344 38.585 70.8618 38.7403 70.672 38.8612C70.2233 39.1373 69.7574 39.3961 69.3259 39.6895C69.0153 39.8966 68.7564 40.1554 68.463 40.3798C68.0834 40.6732 67.6864 40.9148 67.3413 41.2427C66.5647 41.9675 65.8054 42.6923 65.0633 43.4516C64.5283 44.0039 64.0451 44.5907 63.5273 45.1602C63.5273 45.1774 63.5618 45.2119 63.5618 45.2292C63.6309 45.2292 63.7172 45.2464 63.7862 45.2292C64.0451 45.1429 64.2867 45.0221 64.5455 44.9358C64.8907 44.8323 65.2531 44.7632 65.5983 44.677C65.8226 44.6252 66.047 44.5216 66.2886 44.4871C66.6165 44.4353 66.9616 44.418 67.3068 44.3663C67.9108 44.2627 68.532 44.28 69.1361 44.2282H69.1188Z" fill="white"/>
<path d="M63.9261 31.5432C63.9433 31.1291 63.9261 30.7149 63.9261 30.3007C63.9433 30.3007 63.9778 30.3007 63.9951 30.3007C63.9261 29.5931 63.857 28.8683 63.788 28.1608C63.788 28.1262 63.788 28.0745 63.7535 28.0399C63.6154 27.7121 63.4601 27.3841 63.3566 27.0563C63.1495 26.4177 62.7698 25.9 62.3384 25.3995C61.9242 24.9163 61.4065 24.5367 60.8542 24.226C60.3538 23.9499 59.836 23.7601 59.2665 23.7083C59.1975 23.7083 59.1285 23.6738 59.0594 23.6393C58.6798 23.4494 58.4381 23.6048 58.4381 24.019C58.4381 24.7955 58.4381 25.5721 58.4381 26.3487C58.4381 31.6641 58.4381 36.9794 58.4381 42.312C58.4381 43.7099 58.3864 45.125 58.3691 46.5228C58.3691 46.6091 58.4382 46.6782 58.49 46.7645C58.5417 46.6954 58.6107 46.6091 58.628 46.5401C58.697 46.2812 58.7488 46.0051 58.8351 45.7463C58.9041 45.5219 58.9904 45.2975 59.0767 45.0732C59.094 45.0214 59.094 44.9524 59.1285 44.8834C59.2148 44.7108 59.3183 44.5382 59.3873 44.3484C59.6117 43.7789 59.8015 43.1921 60.0259 42.6226C60.1639 42.2775 60.3365 41.9496 60.4918 41.6045C60.6989 41.1212 60.8887 40.638 61.0958 40.1548C61.1476 40.0168 61.1821 39.8787 61.2511 39.7406C61.3892 39.43 61.5618 39.1193 61.6998 38.7915C61.9069 38.291 62.0968 37.7905 62.3039 37.29C62.3729 37.1347 62.4247 36.9622 62.4765 36.8068C62.5455 36.617 62.649 36.4272 62.718 36.2201C62.8043 35.9612 62.8906 35.7023 62.9769 35.4262C63.1495 34.8912 63.3393 34.3562 63.4946 33.8213C63.5982 33.4588 63.7017 33.0792 63.7708 32.6995C63.8398 32.3199 63.8916 31.9402 63.9261 31.5605V31.5432Z" fill="white"/>
<path d="M63.9784 39.3444C64.3235 39.0855 64.5996 38.8784 64.893 38.6713C65.1174 38.4987 65.3417 38.3089 65.5833 38.1536C65.963 37.912 66.3427 37.6704 66.7396 37.446C67.0502 37.2735 67.3608 37.0836 67.6715 36.9283C68.0511 36.7384 68.4481 36.5659 68.8105 36.3761C69.3109 36.1172 69.8114 35.8583 70.2947 35.565C70.7261 35.2888 71.1403 34.9954 71.5199 34.6675C71.8478 34.3742 72.1585 34.0463 72.3138 33.5976C72.4001 33.3732 72.5726 33.1489 72.5899 32.9073C72.6417 32.5621 72.6934 32.217 72.6417 31.8373C72.5899 31.4059 72.4173 31.0435 72.193 30.6983C71.9686 30.3359 71.658 30.0425 71.2438 29.8872C70.9849 29.7837 70.7261 29.6629 70.45 29.6284C70.053 29.5938 69.6561 29.5421 69.2765 29.7492C69.0176 29.8872 68.7415 29.939 68.4999 30.1461C67.8958 30.6465 67.3953 31.2333 66.9639 31.8891C66.7223 32.2688 66.498 32.6657 66.2909 33.0453C66.032 33.5113 65.8422 34.0118 65.6006 34.4777C65.3935 34.8747 65.2727 35.3061 65.1174 35.7203C65.0138 35.9791 64.9275 36.238 64.8413 36.4968C64.7895 36.6694 64.7377 36.842 64.6687 37.0146C64.5824 37.2735 64.4788 37.5323 64.3925 37.7912C64.2545 38.2053 64.1164 38.6368 63.9784 39.051C63.9611 39.12 63.9784 39.189 63.9784 39.3098V39.3444Z" fill="white"/>
</g>
</svg>
