<svg width="118" height="106" fill="none" xmlns="http://www.w3.org/2000/svg"><path d="M34.648 8.62v.795h-.131c-3.882.056-7.192 2.1-9.286 3.81-1.617 1.32-2.619 2.536-3.147 3.832-3.834 9.418 4.713 16.54 8.567 19.163a25.457 25.457 0 006.437 3.173c.961.314 1.764.465 2.456.465.69 0 1.267-.155 1.728-.477 1.184-.831 1.415-2.644 1.538-4.278l.719-9.57c.19-2.509.385-5.105.155-7.625-.151-1.654-.465-2.91-.982-3.956-1.347-2.712-4.581-4.537-8.05-4.537V8.62m-.004 0c3.54 0 7.188 1.805 8.762 4.978.651 1.312.93 2.779 1.06 4.238.235 2.58.04 5.177-.15 7.757l-.72 9.57c-.135 1.797-.4 3.832-1.875 4.87-.644.453-1.399.624-2.186.624-.901 0-1.843-.222-2.702-.505a26.4 26.4 0 01-6.64-3.272c-6.52-4.44-12.265-11.744-8.852-20.121.68-1.67 1.983-3.01 3.377-4.151 2.782-2.266 6.191-3.936 9.78-3.984h.142l.004-.004z" fill="#173B91"/><path d="M44.407 15.057c-2.452.883-3.66.994-5.738.998-1.855 0-3.941-.596-5.408.533-1.224.942-1.43 2.667-1.64 4.198a34.662 34.662 0 01-.827 4.119c-.1.382-.318.843-.711.823-.485-.024-.565-.692-.58-1.177-.056-1.626-1.149-3.169-2.663-3.761-1.275-.497-2.988-.179-3.588 1.054-.711 1.463.441 3.089 1.323 4.453.664 1.025 1.224 2.23 1.014 3.435-.211 1.204-1.506 2.262-2.643 1.809-.421-3.113-2.44-5.622-4.057-8.314-1.621-2.691-2.865-6.055-1.557-8.914.468-1.03 1.235-1.892 2.002-2.727.95-1.034 1.923-2.044 2.897-3.057.95-.99 1.967-2.02 3.294-2.378 1.041-.282 2.146-.107 3.219.028 5.662.724 11.392.394 17.101.374.565 0 1.165.008 1.65.298.905.537 1.048 1.809.818 2.835-.473 2.127-1.808 4.763-3.902 5.37h-.004z" fill="#173B91"/><path d="M33.567 49.487c.076 0 .151-.004.23-.016 1.141-.166 1.737-1.391 1.602-3.272-.083-1.157-.242-2.54-.397-3.876-.155-1.328-.314-2.7-.394-3.84l-.79.055c.083 1.157.242 2.54.397 3.876.155 1.328.314 2.7.393 3.841.076 1.046-.119 2.314-.921 2.43-.445.063-.926-.267-1.351-.561-.283-.2-.573-.398-.863-.605-2.094-1.467-4.454-3.125-6.85-4.003.691-4.358.437-8.155-.823-12.274l-.759.231c1.252 4.1 1.479 7.872.744 12.242l-.056.333.322.108c2.4.807 4.824 2.509 6.965 4.011l.867.609c.44.306 1.025.711 1.688.711h-.004z" fill="#173B91"/><path d="M24.174 43.782c-1.454-.008-2.627 1.157-3.513 2.314-.886 1.157-1.76 2.457-3.13 2.946 4.998 2.04 8.145 6.93 10.966 11.538a39.786 39.786 0 005.988-9.45c2.062 2.083 4.784 4.075 6.215 6.635-.223-2.914-.6-4.52-1.478-6.763-.87-2.214-3.08-3.972-4.328-6 0 0 .863 3.925-1.156 4.076-2.145-.986-6.091-3.682-7.017-4.159-.926-.477-2.547-1.14-2.547-1.14v.003z" fill="#173B91"/><path d="M28.803 60.834a39.898 39.898 0 005.81-9.025c.48.465.989.93 1.481 1.384 1.61 1.47 3.27 2.99 4.264 4.767l.743-.223c-.218-2.85-.584-4.524-1.506-6.874-.536-1.372-1.557-2.564-2.539-3.713-.68-.795-1.323-1.547-1.816-2.35l-.727.294c.143.648.382 2.5-.19 3.268a.758.758 0 01-.513.314c-1.363-.644-3.437-1.956-4.963-2.918-.89-.565-1.594-1.01-1.94-1.185-.93-.477-2.51-1.125-2.578-1.153l-.147-.032h-.016c-1.72 0-3 1.408-3.81 2.47l-.263.345c-.767 1.018-1.561 2.068-2.686 2.465l-.016.744c4.697 1.916 7.661 6.286 10.776 11.375l.64.051-.004-.004zm5.968-9.987l-.643.115a39.186 39.186 0 01-5.575 8.938c-2.917-4.731-5.758-8.798-10.077-10.878.914-.576 1.59-1.47 2.249-2.341l.258-.342c1.105-1.444 2.098-2.131 3.12-2.16.325.136 1.652.692 2.443 1.098.314.16 1.037.616 1.876 1.149 1.581.998 3.747 2.37 5.157 3.018l.195.035a1.582 1.582 0 001.188-.644c.449-.604.544-1.53.52-2.33.314.394.644.784.97 1.161.942 1.102 1.915 2.239 2.404 3.487.707 1.805 1.077 3.193 1.303 5.073-1.005-1.312-2.28-2.48-3.524-3.618-.66-.6-1.28-1.172-1.86-1.757l-.004-.004z" fill="#173B91"/><path d="M59.98 69.903c.301 0 .6-.02.893-.063 4.554-.676 8.523-4.68 10.284-8.115 1.033-2.012 2.296-4.119 3.635-6.353 1.618-2.7 3.29-5.491 4.868-8.604l-.707-.358c-1.566 3.09-3.23 5.864-4.844 8.552-1.347 2.242-2.615 4.365-3.66 6.397-1.724 3.364-5.61 7.081-9.695 7.69-1.935.286-4.124-.53-6.004-2.239-1.311-1.197-2.38-2.688-3.413-4.127-.298-.417-.596-.83-.898-1.24-1.1-1.483-1.999-2.843-2.794-4.044-2.53-3.828-4.363-6.596-9.755-9.088l-.333.72c5.19 2.4 6.874 4.95 9.425 8.806.799 1.208 1.705 2.576 2.817 4.075.302.405.596.819.89 1.228 1.057 1.475 2.15 3.002 3.525 4.254 1.78 1.619 3.834 2.501 5.761 2.501l.004.008zM39.54 28.976c.103 0 .21-.012.317-.036 1.884-.417 1.967-2.977 2.03-4.85.005-.179.013-.354.02-.52.025-.558.013-1.38-.38-2.084-.426-.764-1.248-1.2-2-1.066l-.083.024c-.075.032-1.824.807-1.867 4.266 0 .306-.008 3.034 1.124 3.956.25.203.536.306.842.306l-.004.004zm.27-7.784c.42 0 .822.326 1.025.683.294.53.302 1.201.282 1.662-.008.167-.012.346-.02.53-.052 1.61-.123 3.816-1.407 4.098a.528.528 0 01-.488-.111c-.569-.461-.847-2.024-.83-3.328.035-2.652 1.124-3.4 1.346-3.526.032 0 .06-.004.092-.004v-.004zm4.601 8.298c.06 0 .12-.005.179-.02.445-.092.735-.43.957-.744A8.227 8.227 0 0047.05 24.5c.068-.979-.155-1.698-.655-2.132-.322-.278-.672-.401-1.025-.365-.505.051-1.01.413-1.55 1.117l.632.485c.489-.636.81-.791.997-.807.087-.008.223 0 .425.175.302.262.43.76.382 1.475a7.447 7.447 0 01-1.36 3.82c-.126.18-.293.39-.468.426-.052.012-.135-.032-.151-.06l-.771-.143a.746.746 0 00.21.708c.183.187.442.29.696.29z" fill="#173B91"/><path d="M37.926 22.643l.171-.776a33.006 33.006 0 00-6.779-.779l-.008.795c2.222.024 4.447.283 6.62.764l-.004-.004zm6.481 1.117v-.795c-.366 0-.826-.076-1.275-.151-.481-.08-.974-.163-1.403-.163v.795c.365 0 .826.075 1.275.151.481.08.974.163 1.403.163zm-.227-5.578c.446-.187.767-.58 1.03-.99a7.067 7.067 0 001.108-3.61c-.417-.318-.755-.47-1.26-.608-.544-.148-1.211-.143-1.565.294-.23.286-.262.692-.183 1.05.08.357.247.691.386 1.03.377.925.592 1.84.485 2.834zM28.763 100c1.093 0 2.154-.056 3.191-.167 4.808-.513 9.14-2.354 12.199-5.184l-.54-.585c-2.937 2.716-7.105 4.48-11.746 4.978-3.807.41-7.931.052-12.986-1.125l-.365-.084a32.47 32.47 0 01-.545-.127 32.48 32.48 0 01-1.26-.322 16.524 16.524 0 01-1.27-.41 10.168 10.168 0 01-1.495-.672 19.343 19.343 0 01-1.975-1.24c-.445-.31-.894-.648-1.33-1.014a21.573 21.573 0 01-1.014-.882c-.29-.263-.58-.545-.862-.84-.326-.33-.6-.62-.839-.898a21.64 21.64 0 01-.687-.803 27.092 27.092 0 01-.664-.85c-.19-.251-.373-.502-.552-.764-.167-.243-.338-.49-.497-.736a27.87 27.87 0 01-.504-.81c-.127-.215-.259-.43-.378-.649a27.73 27.73 0 01-.429-.787c-.1-.183-.19-.358-.274-.537a14.606 14.606 0 01-.366-.76 9.08 9.08 0 01-.21-.464c-3.549-7.976-3.413-17.12.341-23.306 3.501-5.773 8.301-9.833 13.51-11.423.131-.044.255-.083.378-.115l-.21-.767c-.14.04-.279.079-.414.127-5.384 1.646-10.339 5.824-13.943 11.768-3.89 6.401-4.041 15.836-.393 24.038.067.159.143.326.218.485.111.254.239.513.374.775.083.179.182.366.286.557.139.266.282.537.437.803.123.223.254.445.39.664.17.282.341.56.52.835a28.056 28.056 0 001.08 1.543 23.508 23.508 0 001.39 1.706c.252.285.534.587.868.925.294.303.596.597.894.867.37.346.715.644 1.045.915.453.377.918.727 1.378 1.045a20.553 20.553 0 002.051 1.284c.5.279 1.04.521 1.601.72.41.155.862.298 1.331.43.398.11.823.222 1.288.33l.548.13.362.084c3.774.879 7.044 1.308 10.06 1.308l.008.004zM82.41 67.017c.476 0 .921-.132 1.299-.39 1.105-.755 1.275-2.17 1.3-3.586.11-6.99.257-22.507.222-29.966h-.795c.036 7.459-.111 22.964-.223 29.954-.02 1.205-.146 2.393-.953 2.946-.445.302-.934.278-1.268.203a2.688 2.688 0 01-1.657-1.217c-.548-.93-.667-8.488-.623-11.482l.29-20.312-.795-.012-.29 20.312c0 .104-.1 10.484.731 11.896a3.494 3.494 0 002.17 1.59c.198.044.397.068.591.068v-.004z" fill="#173B91"/><path d="M78.798 33.556h6.774c.64 0 1.16-.52 1.16-1.16v-.792c0-.64-.52-1.16-1.16-1.16h-6.77c-.64 0-1.16.52-1.16 1.16v.791c0 .64.52 1.161 1.16 1.161h-.004zm6.774-2.321c.203 0 .366.163.366.365v.791a.365.365 0 01-.366.366h-6.77a.365.365 0 01-.366-.366v-.79c0-.203.163-.366.366-.366h6.77z" fill="#173B91"/><path d="M84.488 52.012c1.653 1.507 2.4-7.176 1.919-8.325-.477-1.15-1.335-3.093-2.619-2.668-.75.25-.631 2.286-.73 3.336-.1 1.05.27 6.604 1.426 7.657h.004z" fill="#EAECF7"/><path d="M84.865 52.644a.904.904 0 00.52-.17c1.479-1.042 1.892-7.889 1.443-8.962-.473-1.133-1.454-3.499-3.183-2.926-.894.294-.95 1.717-.997 2.974-.012.278-.02.536-.04.755-.087.958.215 6.794 1.574 8.035.214.195.453.294.687.294h-.004zm-.731-11.224c.731 0 1.367 1.285 1.852 2.442.254.616.047 5.331-.783 7.307-.175.414-.31.529-.346.557-.004-.008-.028-.024-.06-.052-.921-.843-1.394-6.011-1.279-7.276.02-.23.032-.505.044-.799.02-.505.083-2.047.373-2.147a.598.598 0 01.203-.032h-.004zM50.347 95.253c2.202 0 4.252-.123 4.856-.461 1.18-.648 1.653-2.97 1.999-4.668.063-.31.119-.592.175-.819.047-.207.09-.489.135-.839.11-1.07.147-2.675-.088-3.987-.353-2.032-1.204-2.517-1.855-2.565-.25-.02-.708.044-1.49.16-.648.094-1.789.258-2.245.23.055-.318.246-1.03.4-1.618.346-1.293.772-2.903.772-3.865 0-.58-.14-1.16-.398-1.686l-.04-.067c-.33-.628-.798-1.07-1.299-1.217a1.256 1.256 0 00-1.013.123c-.064.04-.107.064-.151.1-.942.656-1.291 2.008-1.597 3.196-.1.394-.195.764-.302 1.062-.06.167-.116.294-.175.394l-.12.202c-.58.986-1.235 2.103-2.606 3.932-1.16 1.543-1.808 2.203-2.309 2.354l-.238.072-.04.246c0 .02-.083.529-.075 1.527.004.795.063 1.681.17 2.628l.144 1.28c.226 2.06.341 3.093.576 3.566.091.18.27.255.421.302.72.223 3.675.418 6.397.418h-.004zm5.122-12.544h.04c.703.052 1.013 1.22 1.132 1.913.219 1.232.187 2.747.08 3.757a8.6 8.6 0 01-.12.747c-.055.23-.115.517-.178.84-.278 1.367-.747 3.657-1.605 4.13-1.026.564-9.47.386-10.622-.012-.154-.433-.278-1.563-.456-3.205l-.144-1.28a24.121 24.121 0 01-.162-2.54 12.5 12.5 0 01.04-1.173c.623-.29 1.295-.994 2.463-2.54 1.399-1.865 2.066-3.002 2.658-4.008l.115-.199c.088-.143.163-.314.243-.533.119-.334.218-.723.325-1.133.27-1.058.58-2.254 1.296-2.755a.714.714 0 01.071-.048.47.47 0 01.402-.055c.298.087.62.42.846.866l.036.064c.187.393.29.843.29 1.272 0 .855-.413 2.41-.747 3.658-.378 1.415-.493 1.892-.417 2.17.155.585.985.525 3.143.207.496-.071 1.057-.155 1.275-.155l-.004.012zm23.253-35.746l.676-.613c-.855-.942-1.677-1.956-1.558-3.053.075-.676.803-1.32 1.446-1.892.187-.163.366-.322.525-.477l-.636-.656c-.15.147-.322.298-.497.453-.766.68-1.637 1.45-1.748 2.477-.163 1.475.838 2.72 1.788 3.769l.004-.008z" fill="#173B91"/><path d="M58.74 85.059c3.293 0 7.025-1.105 9.107-2.795 4.47-3.63 7.633-9.971 10.418-15.565l.127-.255a165.43 165.43 0 011.574-3.109l-.703-.37a149.78 149.78 0 00-1.554 3.07l-.155.306C74.8 71.863 71.68 78.12 67.346 81.644c-2.313 1.88-6.815 2.985-10.252 2.508l-.182-.023-.14.783c.076.012.148.024.223.032.56.075 1.144.115 1.748.115h-.004zm-24.855 3.693c3.596 0 6.902-.982 9.457-2.826l-.465-.644c-2.825 2.043-6.64 2.966-10.744 2.596-.413-.036-.799-.072-1.172-.1-3.111-.266-4.828-.41-7.868-1.876-1.895-.915-3.87-2.437-5.157-3.976a10.96 10.96 0 01-.819-1.113c-1.248-2.012-2.086-4.712-2.3-7.4l-.009-.047c-.103-1.36-.04-2.66.18-3.793l-.78-.15c-.238 1.232-.302 2.58-.19 4.01 0 0 0 .028.008.068.226 2.803 1.108 5.622 2.416 7.737.258.41.556.815.886 1.205 1.37 1.642 3.397 3.204 5.42 4.182 3.17 1.531 5.042 1.69 8.145 1.953.37.031.76.063 1.168.099a20.24 20.24 0 001.824.083v-.008z" fill="#173B91"/><path d="M37.406 87.937c1.192-9.386-.334-31.492-2.551-36.959l-.735.298c2.185 5.392 3.68 27.259 2.499 36.562l.787.1zm-7.371.203l.795-.024c-.175-6.198-2.241-25.298-6.076-33.611l-.723.334c3.735 8.095 5.833 27.35 6.004 33.301zm11.229-1.073c1.01-12.027.862-28.507-1.387-35.357l-.755.246C41.34 58.707 41.475 75.048 40.473 87l.791.068zm38.189-44.219h3.704v.914h-3.704v-.914zm-.123 17.597l.362-.708a14.84 14.84 0 01-5.094-4.306l-.636.477a15.617 15.617 0 005.368 4.54v-.003zm-2.968 3.498c-.421 1.201-.854 2.382-1.43 3.515-.577 1.133-1.296 2.274-2.035 3.344a30.196 30.196 0 01-2.309 2.962c-.834.938-1.74 2-2.853 2.62-.139.075-.33-.084-.23-.23.691-1.015 1.653-1.854 2.464-2.776a38.103 38.103 0 002.38-2.99 43.195 43.195 0 003.838-6.512c.044-.096.207-.028.17.071l.005-.004zm-59.086 10.31c1.943-.151 3.886-.235 5.833-.318.453-.02.91-.036 1.363-.068.43-.032.87-.107 1.295-.036.791.127.958.974 1.037 1.646.235 1.968.342 3.988.2 5.964-.06.83-.24 1.65-.816 2.282-.508.557-1.247.91-1.962 1.105a6.978 6.978 0 01-2.615.187c-.795-.091-1.657-.242-2.205-.879-.135-.158-.064-.5.195-.469.58.072 1.128.255 1.7.346.664.104 1.367.1 2.027-.02.611-.11 1.22-.31 1.736-.667.648-.45.838-1.134.89-1.885.111-1.662.036-3.352-.107-5.01a37.573 37.573 0 00-.115-1.149c-.052-.425-.104-.763-.592-.819-.752-.087-1.546-.02-2.301-.011-1.856.023-3.707.067-5.559-.072a.066.066 0 010-.131l-.004.004z" fill="#173B91"/><path d="M30.937 12.473c-.254.159-.39.612-.445.89-.064.33-.044.68.028 1.006.135.608.492 1.165.981 1.555.54.429 1.212.648 1.896.7.357.027.715.055 1.076.043.167-.008.338-.016.505-.032.258-.02.425 0 .592.219.08.103.048.25 0 .358-.151.326-.648.286-.95.282-.337 0-.671-.036-1.005-.087-.6-.092-1.192-.366-1.7-.692-.918-.593-1.518-1.59-1.526-2.696 0-.282.04-.564.127-.835.035-.115.083-.226.139-.33.071-.139.198-.258.254-.405.016-.036.06 0 .028.024z" fill="#EAECF7"/><path d="M7.628 91.69c.274.315.56.617.855.915l15.933-.445-16.788-.47zm-1.371-1.681c.219.294.446.584.676.867l14.177-.422-14.853-.445zM5.193 88.49c.162.25.333.501.504.748l11.043-.366-11.547-.382zm-.898-1.483c.123.223.254.441.385.66l9.032-.322-9.417-.338zm-.715-1.344c.087.183.182.366.281.549l6.732-.267-7.014-.282zm-.585-1.24c.068.159.14.318.215.473l5.344-.23-5.559-.243zm6.365 9.033c.335.31.676.612 1.03.898l16.184-.433-17.213-.465zm2.385 1.928c.429.306.87.593 1.323.867l15.906-.418-17.23-.449zm3.56 1.96c.425.16.862.298 1.303.422.422.119.847.226 1.272.326l13.573-.342-16.148-.406zm6.203-90.923c-.171.251-.227.525-.346.8a6.85 6.85 0 00-.278.787 5.758 5.758 0 00-.21 1.705c.015 1.09.413 2.191 1.163 2.99.608.652-.35 1.618-.98.982-1.046-1.05-1.563-2.5-1.515-3.972a5.02 5.02 0 01.525-2.087c.155-.314.341-.592.572-.855.23-.262.536-.413.81-.612.155-.111.366.107.263.262h-.004z" fill="#173B91"/></svg>