<svg width="118" height="106" fill="none" xmlns="http://www.w3.org/2000/svg"><path d="M58.34 61.31c-2.275.815-4.332 2.102-5.834 3.955-1.078 1.33-1.82 2.892-2.837 4.269-1.022 1.373-2.432 2.613-4.148 2.827-1.353.172-2.698-.313-4.047-.528-.855-.133-1.807-.12-2.593.185l-2.14-8.554c.119-.206.237-.408.359-.61.672-1.124 1.38-2.235 2.248-3.217l17.511-4.234 1.48 5.907zm-42.593-4.87l19.183 4.638-.838 3.355-9.382 37.448-6.95-10.416-.446-.67-.711.386L5.527 97.24l10.22-40.803m-.637-1.033l-.485 1.926-2.257 9.013L4.2 98.951l12.826-7.014L25.076 104l8.946-35.71.917-3.651 1.048-4.187-20.877-5.05z" fill="#173B91"/><path d="M34.939 64.639l-.917 3.65c-1.227.078-2.519.554-3.68 1.009-1.694.67-3.445 1.291-5.274 1.373-1.825.086-3.759-.438-4.994-1.76-.49-.523-.856-1.149-1.363-1.655-1.3-1.304-3.37-1.609-5.186-1.231a9.576 9.576 0 00-1.157.317l2.257-9.013c1.127-.142 2.318.09 3.384.515 1.506.6 2.833 1.553 4.221 2.385a29.658 29.658 0 0010.78 3.865c.65.099 1.33.185 1.898.524.009.008.022.013.03.021zm21.283-8.199l10.22 40.803-11.076-6.057-.712-.386-.445.669-6.95 10.416-10.216-40.802 19.179-4.638m.637-1.042l-17.51 4.234-3.362.815.755 3.012 2.14 8.554L46.891 104l8.05-12.064 12.827 7.015-9.43-37.641-1.48-5.907z" fill="#173B91"/><path d="M44.181 68.483c-1.366 0-2.825-.438-4.374-.897-1.585-.472-3.227-.965-4.807-.965-1.58 0-3.222.49-4.807.965-1.545.464-3.008.897-4.374.897a4.858 4.858 0 01-1.502-.215c-1.838-.587-3.187-2.355-4.488-4.062-.965-1.262-1.96-2.57-3.17-3.437-1.23-.883-2.82-1.415-4.352-1.934-2.135-.721-4.147-1.399-5.27-2.909-.881-1.197-1.07-2.788-1.135-4.191-.026-.528-.034-1.06-.048-1.596-.03-1.605-.06-3.26-.537-4.706-.454-1.369-1.397-2.686-2.309-3.956C1.746 39.718.441 37.904.441 35.956s1.305-3.762 2.567-5.517c.912-1.274 1.86-2.591 2.31-3.964.475-1.441.506-3.102.536-4.706.04-2.205.079-4.29 1.184-5.779 1.117-1.506 3.134-2.188 5.269-2.908 1.537-.52 3.121-1.056 4.353-1.935 1.209-.863 2.2-2.167 3.165-3.424.646-.845 1.314-1.724 2.034-2.44.817-.829 1.624-1.365 2.462-1.63a4.71 4.71 0 011.502-.22c1.367 0 2.825.438 4.37.897 1.585.472 3.227.965 4.811.965 1.585 0 3.222-.489 4.807-.965 1.545-.463 3.008-.897 4.374-.897.56 0 1.048.073 1.502.22 1.843.583 3.187 2.35 4.493 4.062.96 1.261 1.956 2.57 3.17 3.436 1.23.88 2.82 1.416 4.352 1.935 2.135.72 4.152 1.398 5.27 2.909 1.1 1.488 1.139 3.573 1.182 5.778.03 1.605.061 3.265.542 4.706.45 1.373 1.397 2.69 2.314 3.969 1.261 1.754 2.562 3.573 2.562 5.512 0 1.94-1.305 3.763-2.567 5.517-.912 1.274-1.86 2.587-2.31 3.96-.475 1.441-.51 3.102-.54 4.706-.044 2.21-.084 4.29-1.184 5.783-1.117 1.51-3.134 2.192-5.27 2.909-1.532.519-3.12 1.05-4.352 1.934-1.21.867-2.205 2.175-3.17 3.437-1.305 1.712-2.65 3.479-4.492 4.067a4.961 4.961 0 01-1.497.214l-.009-.004z" fill="#EAECF7"/><path d="M44.181 3.858c.51 0 .956.064 1.367.197 1.707.54 2.95 2.18 4.274 3.909.982 1.287 1.995 2.62 3.26 3.526 1.284.918 2.904 1.467 4.471 1.995 2.07.7 4.021 1.356 5.056 2.754 1.021 1.381 1.06 3.398 1.1 5.534.03 1.635.066 3.325.559 4.826.471 1.438 1.436 2.78 2.37 4.084 1.28 1.78 2.484 3.463 2.484 5.269s-1.209 3.492-2.488 5.272c-.934 1.3-1.9 2.643-2.37 4.076-.498 1.505-.529 3.196-.56 4.83-.039 2.137-.078 4.157-1.1 5.539-1.034 1.402-2.99 2.059-5.06 2.758-1.562.528-3.182 1.073-4.465 1.99-1.267.906-2.28 2.24-3.262 3.527-1.323 1.733-2.567 3.372-4.278 3.917-.402.129-.86.193-1.362.193-1.301 0-2.733-.43-4.244-.88-1.615-.484-3.287-.982-4.937-.982-1.65 0-3.318.498-4.938.982-1.515.45-2.947.88-4.244.88-.506 0-.956-.064-1.366-.193-1.707-.545-2.956-2.18-4.274-3.913-.982-1.287-2-2.62-3.266-3.526-1.283-.918-2.903-1.467-4.47-1.995-2.065-.7-4.02-1.356-5.056-2.754-.816-1.107-.99-2.621-1.052-3.96a45.614 45.614 0 01-.043-1.578c-.03-1.635-.061-3.325-.56-4.831-.47-1.433-1.435-2.771-2.365-4.071-1.28-1.78-2.489-3.467-2.489-5.277s1.21-3.488 2.484-5.273c.935-1.3 1.895-2.642 2.37-4.075.499-1.502.53-3.196.56-4.83.039-2.137.078-4.153 1.095-5.535 1.04-1.398 2.991-2.059 5.06-2.754 1.568-.528 3.187-1.077 4.47-1.995 1.262-.9 2.275-2.23 3.258-3.513.637-.837 1.296-1.7 2-2.403.763-.776 1.51-1.274 2.287-1.518a4.343 4.343 0 011.362-.198c1.3 0 2.729.43 4.243.88 1.616.485 3.288.982 4.938.982s3.318-.497 4.938-.982c1.514-.45 2.947-.88 4.243-.88m0-.862C41.291 3 38.008 4.862 35 4.862 31.992 4.862 28.709 3 25.819 3c-.563 0-1.109.069-1.637.24-1.013.322-1.869.953-2.641 1.738-1.808 1.81-3.188 4.423-5.143 5.821-2.82 2.02-7.658 2.162-9.718 4.938-2.035 2.75-.69 7.306-1.782 10.605C3.846 29.53 0 32.425 0 35.956c0 3.53 3.846 6.426 4.898 9.61.612 1.849.459 4.088.564 6.186.078 1.651.323 3.209 1.218 4.423 2.06 2.776 6.897 2.917 9.718 4.938 2.798 2.003 4.422 6.49 7.784 7.563a5.379 5.379 0 001.637.236c2.89 0 6.173-1.862 9.181-1.862 3.008 0 6.291 1.862 9.181 1.862a5.35 5.35 0 001.633-.236c3.366-1.073 4.986-5.56 7.784-7.563 2.825-2.021 7.662-2.158 9.718-4.938 2.034-2.75.694-7.306 1.786-10.61C66.149 42.383 70 39.492 70 35.957s-3.85-6.427-4.898-9.614c-1.092-3.299.248-7.855-1.786-10.605-2.056-2.776-6.893-2.917-9.718-4.938-2.798-2.003-4.418-6.49-7.78-7.559A5.253 5.253 0 0044.181 3z" fill="#173B91"/><path d="M35 14.88c11.827 0 21.449 9.454 21.449 21.076 0 6.718-3.305 13.089-8.836 17.048-3.685 2.635-8.047 4.029-12.613 4.029-11.827 0-21.449-9.455-21.449-21.077 0-7.508 4.117-14.505 10.74-18.267A21.704 21.704 0 0135 14.879zm0-.859c-4.06 0-7.867 1.064-11.146 2.926-6.68 3.792-11.176 10.884-11.176 19.009 0 12.115 9.993 21.935 22.322 21.935 4.907 0 9.443-1.557 13.128-4.191 5.575-3.99 9.194-10.451 9.194-17.744 0-12.115-9.993-21.935-22.322-21.935z" fill="#173B91"/><path d="M50.463 51.778c-.733.69-1.51 1.334-2.335 1.922A22.503 22.503 0 0135 57.89c-12.329 0-22.322-9.819-22.322-21.934 0-7.714 4.052-14.496 10.18-18.404-4.238 3.99-6.875 9.605-6.875 15.83 0 12.115 9.993 21.935 22.322 21.935 4.483 0 8.661-1.3 12.158-3.54zM47.425 8.826c.375.85.642 1.703 1.109 2.518.436.76.969 1.463 1.584 2.094 1.214 1.252 2.76 2.252 4.427 2.81.97.326 2.013.493 2.934.943.921.45 1.485 1.137 1.838 2.03.681 1.729.428 3.607.58 5.414.154 1.806.669 3.595 2.463 4.38.087.038.144-.065.074-.12-1.397-1.06-1.755-3.076-1.833-4.707-.079-1.63.126-3.462-.454-5.113-.612-1.733-2.07-2.643-3.82-3.063-.922-.223-1.882-.344-2.768-.683a10.18 10.18 0 01-2.45-1.35 10.726 10.726 0 01-2.244-2.27c-.628-.858-1.235-1.875-1.392-2.896 0-.03-.053-.013-.04.017l-.008-.004zM16.638 65.48l-4.012 11.943 2.322-12.368 1.69.425z" fill="#173B91"/><path d="M15.053 65.338l-4.012 11.94 2.322-12.364 1.69.424zm3.61.537l-4.012 11.939 2.323-12.368 1.69.429zm1.913 1.064l-4.012 11.939 2.318-12.364 1.694.425zm1.947.188l-4.012 11.94 2.322-12.364 1.69.424zm3.392 1.673l-3.846 11.04 2.252-11.46 1.594.421zm2.148.155l-3.846 11.038 2.252-11.454 1.594.416zm2.274-.648l-3.846 11.038 2.253-11.454 1.593.416zm2.275-.734l-3.846 11.043 2.253-11.459 1.593.416z" fill="#173B91"/><path d="M24.108 67.86L20.09 79.8l2.323-12.368 1.694.429zm17.759 1.704l1.878 12.437-3.585-12.072 1.707-.365zm1.987-.549l1.881 12.44-3.584-12.071 1.703-.37zm2.196.111l1.877 12.437-3.584-12.072 1.707-.365zm1.824-.695l1.882 12.442L46.172 68.8l1.703-.369zm3-2.659l2.348 14.092-3.955-13.74 1.607-.352zm1.58-1.395l2.349 14.093-3.96-13.74 1.611-.353zm1.803-1.398l2.349 14.093-3.955-13.741 1.606-.352zm1.668-1.137l2.349 14.093-3.96-13.741 1.61-.352zm1.641-.523l2.35 14.092-3.956-13.74 1.606-.352zm-7.989 6.585L51.46 80.34l-3.585-12.068 1.703-.37zM31.058 33.21c.755-.223.982-.446 2.27-2.53 1.288-2.086 3.331-2.978 4.09-4.244.76-1.265 1.214-2.007 1.136-3.05-.079-1.042.074-2.454 1.44-2.53 1.367-.078 3.257.964 3.257 2.9 0 1.934-1.742 5.508-1.589 6.065.153.558 3.785.558 4.545.708.76.15 1.969 1.116 1.816 3.128-.153 2.012.406 3.573.013 5.208-.393 1.634-.921 2.308-1.3 3.496-.38 1.188.379 2.008-1.136 2.827-1.515.82-4.693 1.489-7.269.82-2.576-.67-5.453-.15-5.754-.743-.301-.592-1.135-2.604-1.515-5.877-.38-3.273 0-6.178 0-6.178h-.004zm-1.585-.223s-5.907-.446-6.435-.373c-.528.073-1.214.892-1.214 2.23 0 1.34.755 9.379 1.668 10.64.912 1.261 2.122 1.416 2.877 1.193.755-.223 4.545-.82 4.545-1.339s-1.384-2.968-1.515-6.473c-.105-2.828.074-5.878.074-5.878z" fill="#173B91"/><path d="M25.422 36.454c.598 0 1.082-.477 1.082-1.064 0-.588-.484-1.064-1.082-1.064-.598 0-1.083.476-1.083 1.064 0 .587.485 1.064 1.083 1.064z" fill="#EAECF7"/><path d="M5.265 33.262c-.816 1.368-1.52 2.998-1.24 4.616.262 1.497 1.423 2.621 2.366 3.74.568.679 1.057 1.395 1.328 2.236.27.84.37 1.802.397 2.72.052 1.853-.122 3.796.572 5.568.576 1.467 1.781 2.699 3.436 2.832.152.013.179-.22.034-.258-1.462-.382-2.492-1.69-2.938-3.063-.55-1.699-.366-3.513-.475-5.268-.092-1.51-.389-3.012-1.301-4.264-.826-1.141-1.987-2.034-2.698-3.252-1.074-1.845-.402-3.853.585-5.569.026-.047-.044-.085-.07-.038h.004z" fill="#173B91"/></svg>