<svg width="88" height="88" fill="none" xmlns="http://www.w3.org/2000/svg"><g clip-path="url(#clip0_558_18920)"><path fill="#2EAC6A" d="M0 0h88v88H0z"/><path d="M37.427 55.652l-.038-.249-.145.206L22.776 45.24a3.334 3.334 0 01-.698-.671 3.28 3.28 0 01-.652-1.535c-.01-.045-.016-.1-.023-.156a2.813 2.813 0 01-.02-.342V29.379c0-.156.025-.305.075-.448a1.402 1.402 0 011.153-.946l30.002-3.812a3.14 3.14 0 011.863.34L69.44 32.4a.977.977 0 01.523.868v15.476A2.263 2.263 0 0168.026 51l-30.602 4.65.002.002zm15.582-31c-.11 0-.22.007-.334.02l-30.002 3.811a.899.899 0 00-.788.896v13.154c0 .106.005.199.015.287.005.045.008.086.018.126a2.791 2.791 0 001.147 1.882l14.385 10.31 30.501-4.634a1.769 1.769 0 001.51-1.759V33.27a.475.475 0 00-.257-.423l-14.962-7.888a2.64 2.64 0 00-1.235-.304l.002-.003z" fill="#fff"/><path d="M21.633 29.736c.899.667 1.873 1.24 2.815 1.845.941.604 1.852 1.187 2.782 1.779a997.243 997.243 0 015.571 3.578c.836.54 1.652 1.132 2.21 1.977.484.737.763 1.585.929 2.446.366 1.922.288 3.938.339 5.885l.195 7.581c.008.274.435.277.427 0l-.18-6.892c-.03-1.16-.06-2.32-.093-3.48-.026-.893-.063-1.786-.196-2.671-.128-.861-.35-1.714-.744-2.494-.394-.78-1.019-1.472-1.75-2.015-.86-.64-1.81-1.168-2.721-1.731a702.222 702.222 0 01-2.913-1.802c-1.092-.68-2.184-1.361-3.279-2.038-1.107-.687-2.2-1.43-3.352-2.038-.045-.025-.08.038-.04.068v.002zm16.563 25.392c.158-1.404.218-2.823.309-4.232.09-1.391.18-2.78.268-4.171l.269-4.172c.043-.677.07-1.356.14-2.033.068-.662.28-1.158.892-1.47 1.12-.573 2.388-.832 3.623-1.016 1.356-.201 2.72-.342 4.078-.513 2.704-.34 5.408-.7 8.102-1.127a151.1 151.1 0 004.595-.808c.763-.146 1.527-.3 2.287-.46.761-.162 1.534-.29 2.263-.562.213-.08.206-.455-.058-.43-.696.065-1.371.244-2.051.388-.68.143-1.404.291-2.107.427-1.386.27-2.777.516-4.17.748-2.825.467-5.658.883-8.495 1.26-1.373.184-2.75.342-4.122.538-1.276.182-2.547.44-3.732.964-.512.227-1.009.506-1.258 1.032-.228.485-.238 1.041-.268 1.567-.086 1.455-.189 2.907-.284 4.358-.105 1.598-.208 3.196-.314 4.794-.108 1.635-.256 3.278-.286 4.918-.003.207.291.197.314 0h.005zM23.668 28.926c.716.32 1.399.78 2.074 1.175.686.4 1.369.808 2.054 1.21 1.334.785 2.664 1.57 3.998 2.358 1.333.787 2.568 1.522 3.899 2.184 1.235.614 2.53 1.054 3.912 1.147 1.501.1 3.008-.118 4.494-.302 1.487-.184 2.958-.392 4.432-.621 2.953-.458 5.893-.994 8.838-1.51 3.294-.579 6.593-1.13 9.918-1.525.268-.033.27-.458 0-.425-5.83.702-11.588 1.874-17.383 2.813-2.963.48-5.94.923-8.933 1.162-1.474.119-2.88-.015-4.256-.576-1.346-.548-2.599-1.333-3.862-2.05-1.509-.856-3.046-1.669-4.567-2.499-.771-.42-1.542-.84-2.313-1.263-.366-.201-.73-.405-1.094-.611-.397-.224-.824-.426-1.198-.687-.013-.01-.028.015-.013.022v-.002zm9.112 21.022l-9.646-6.036-1.462-.916-.108-.068.063-.095.025.017a2.693 2.693 0 01-.017-.317v-.652l-.043-.027.038-.058h.005l.695.513 10.45 7.64z" fill="#fff"/><path d="M34.284 51.896l-12.009-7.483a3.04 3.04 0 01-.603-1.416l-.108-.068.063-.096.025.018 1.482 1.061 11.15 7.984zm-3.437-4.349L22.33 42.31l-.695-.428-.043-.028.038-.058.005.003v-1.074l-.013-.008.008-.01.005.003.11.083 9.102 6.755z" fill="#fff"/><path d="M30.406 46.038l-8.66-5.246-.11-.068-.013-.008.008-.01.005.003v-1.067l-.048-.028.04-.06.008.005.472.347 8.298 6.132z" fill="#fff"/><path d="M29.58 44.116l-7.473-4.21-.472-.264-.047-.028.04-.06.007.005v-.943l-.073-.04.056-.089.017.013.789.556 7.156 5.06z" fill="#fff"/><path d="M29.17 42.83l-6.746-3.774-.789-.44-.073-.041.056-.088.017.012v-.946l-.055-.03.038-.06.017.012.51.363 7.025 4.992zm-.412-1.318l-6.613-3.673-.51-.285-.056-.03.038-.06.018.012v-.95l-.07-.039.052-.083.018.013.685.49 6.438 4.605zm-.323-2.27l-6.202-3.425-.597-.33-.066-.035.048-.075.018.013v-.994l-.04-.023.022-.035.018.012.258.187 6.54 4.705z" fill="#fff"/><path d="M28.758 40.486l-6.438-3.578-.685-.383-.07-.038.052-.083.018.013v-.928l-.066-.036.048-.075.018.013.597.427 6.526 4.668zm-.748-2.6l-6.116-3.35-.258-.14-.04-.023.022-.035.018.013v-1.087l6.375 4.622zm-6.373-4.643v-1.056l-.053-.03.035-.058.018.012.416.302 5.959 4.32-6.375-3.49z" fill="#fff"/><path d="M28.01 35.674l-5.958-3.261-.417-.227-.053-.03.035-.058.018.013v-.951l-.07-.038.052-.083.018.013.6.435 5.775 4.187z" fill="#fff"/><path d="M27.819 34.53l-5.584-3.042-.6-.327-.07-.038.052-.083.018.012v-1.024l6.184 4.502z" fill="#fff"/><path d="M30.106 34.919l-8.471-4.806v-.735c0-.125.02-.249.06-.364l8.411 5.905zm5.464 25.6a8.989 8.989 0 01-5.24-1.686L11.453 45.216c-1.072-.624-1.62-1.794-1.408-3.042.21-1.248 1.112-2.174 2.35-2.416l9.747-1.394.07.498-9.734 1.392c-1.218.236-1.803 1.19-1.939 2.003-.135.812.103 1.904 1.188 2.536l18.896 13.63a8.474 8.474 0 006.3 1.482l39.362-6.567c1.356-.224 2.01-1.253 2.167-2.144.159-.888-.097-2.08-1.293-2.763l-7.572-4.305.248-.438 7.573 4.305a3.115 3.115 0 011.541 3.289 3.106 3.106 0 01-2.58 2.551L37.005 60.4a8.895 8.895 0 01-1.436.119z" fill="#fff"/><path d="M35.567 63.512a9.016 9.016 0 01-5.24-1.683L11.453 48.212c-1.413-.823-1.418-1.8-1.441-4.69 0-.343-.005-.712-.01-1.115l.502-.008c.005.403.008.775.01 1.118.02 2.823.028 3.58 1.213 4.272l18.896 13.63a8.486 8.486 0 006.3 1.48l39.362-6.565c1.939-.322 2.268-2.127 2.198-5.342l.502-.01c.063 2.843-.09 5.432-2.617 5.85l-39.362 6.564a8.896 8.896 0 01-1.436.119l-.003-.003z" fill="#fff"/><path d="M38.05 57.952a7.69 7.69 0 01-4.484-1.444l-16.29-11.172c-.93-.54-1.401-1.552-1.22-2.631.18-1.08.961-1.88 2.03-2.089l3.785-.54.07.497-3.771.539c-1.017.199-1.507.996-1.62 1.676-.115.679.086 1.595.992 2.12l16.31 11.19a7.184 7.184 0 005.344 1.258l31.207-5.216c1.137-.189 1.682-1.05 1.815-1.797.133-.744-.083-1.743-1.085-2.312l-1.549-.88.249-.438 1.549.88a2.691 2.691 0 011.33 2.838 2.685 2.685 0 01-2.226 2.205L39.278 57.85a7.45 7.45 0 01-1.23.101h.003z" fill="#fff"/><path d="M78.628 50.743c.07 3.195-.251 5.238-2.408 5.595l-39.365 6.565a8.675 8.675 0 01-6.488-1.522L11.493 47.764c-1.466-.856-1.298-1.862-1.345-5.604v.166l.002.003a2.09 2.09 0 00.002.279v.02a2.64 2.64 0 001.341 2.139L30.37 58.384a8.665 8.665 0 006.488 1.525l39.365-6.567c1.443-.24 2.295-1.382 2.408-2.6h-.003zM43.017 34.205c-3.701-2.506-7.626-4.63-11.475-6.894l-.06-.036-.027-.055c-.857-1.474-.31-2.788 1.37-3.148 2.187-.43 4.048 1.155 5.818 2.172 2.802 1.776 5.554 3.673 7.967 5.963l-.108.116a44.505 44.505 0 00-3.884-3.08 71.923 71.923 0 00-6.293-3.955c-.718-.39-1.466-.725-2.25-.836-1.639-.206-3.283.745-2.186 2.516 3.274 1.918 7.753 4.607 11.248 7.06l-.12.177z" fill="#fff"/><path d="M41.846 35.837c1.37-.272 2.88.159 4.178-.47.625-.242 1.132-.763 1.112-1.46-.02-1.358-1.542-2.322-2.785-2.38-1.335-.1-2.485 1.55-1.11 2.368.518.266 1.163-.25 1.126-.79l.502-.023c.015.684-.52 1.28-1.185 1.349-.658.068-1.246-.453-1.426-1.047-.407-1.245.951-2.363 2.106-2.247 1.459.108 3.068 1.198 3.08 2.77-.034 1.681-2.1 2.111-3.447 2.066l-1.064-.015c-.352 0-.708.005-1.032.078l-.053-.204-.002.005zm-8.851-9.004c-.166-.222.007-.607.125-.813.156-.267.42-.347.688-.463.269-.116.513-.244.809-.246.296-.003.56.093.843.115.161.013.164-.211.035-.261a2.199 2.199 0 00-1.011-.119c-.342.043-.626.22-.912.398-.125.078-.266.148-.374.254a.957.957 0 00-.2.332 1.46 1.46 0 00-.104.393c-.017.16.03.269.088.415.003.01.018 0 .013-.005zm2.049 1.255c-.068-.282.236-.596.452-.732.246-.156.537-.287.816-.375.304-.096.615-.134.932-.136.153 0 .306.003.457.013.15.01.296.037.424-.068.048-.04.04-.119 0-.162-.12-.128-.319-.1-.48-.1a3.791 3.791 0 00-1.617.332c-.288.126-.612.262-.84.488-.23.227-.252.456-.156.742.002.008.015.005.012-.002zm2.74 1.736c.086-.264.214-.48.444-.642.214-.148.462-.229.706-.304.259-.078.525-.138.791-.171s.547-.033.821-.043c.208-.008.206-.31 0-.325-.61-.042-1.265.131-1.823.373-.424.184-1.054.556-.997 1.105.003.03.046.04.056.007h.002zm2.513 1.407c.092-.234.364-.41.567-.54a2.87 2.87 0 01.728-.328 3.041 3.041 0 011.13-.13c.146.01.269.022.377-.099a.134.134 0 00.02-.156c-.083-.16-.234-.173-.397-.176a3.204 3.204 0 00-2.11.77c-.2.169-.41.372-.37.657.004.032.05.025.06 0l-.005.002z" fill="#fff"/></g><defs><clipPath id="clip0_558_18920"><path fill="#fff" d="M0 0h88v88H0z"/></clipPath></defs></svg>