<svg width="88" height="88" fill="none" xmlns="http://www.w3.org/2000/svg"><g clip-path="url(#clip0_558_19043)"><path fill="#2EAC6A" d="M0 0h88v88H0z"/><path d="M44.114 23.43a3.065 3.065 0 01-3.075-3.085 3.037 3.037 0 012.465-3.022 3.082 3.082 0 013.687 3.022c0 1.7-1.379 3.083-3.074 3.083l-.003.003z" fill="#2EAC6A"/><path d="M44.114 17.525a2.816 2.816 0 012.813 2.82 2.816 2.816 0 01-3.258 2.784 2.818 2.818 0 01-2.368-2.787c0-1.406.968-2.505 2.253-2.765.18-.037.369-.055.56-.055m0-.522c-.22 0-.442.021-.66.066a3.356 3.356 0 00-2.677 3.282c0 1.587 1.183 3.046 2.811 3.303a3.345 3.345 0 003.863-3.303A3.347 3.347 0 0044.114 17zm5.144 12.49H38.971c.12-2.833 2.19-5.112 4.789-5.304.118-.008.235-.013.353-.013 2.764 0 5.017 2.359 5.145 5.318z" fill="#fff"/><path d="M52.837 32.04c-.259 0-.51-.02-.751-.06a4.73 4.73 0 01-3.996-4.698c0-2.356 1.599-4.222 3.802-4.668.314-.063.631-.091.945-.091 2.617 0 4.747 2.135 4.747 4.759 0 2.623-2.13 4.759-4.747 4.759z" fill="#2EAC6A"/><path d="M52.838 22.782a4.49 4.49 0 014.485 4.497 4.49 4.49 0 01-5.194 4.44 4.494 4.494 0 01-3.777-4.442 4.443 4.443 0 013.593-4.41c.288-.058.59-.087.893-.087m0-.522c-.33 0-.665.034-.995.097a5.034 5.034 0 00-4.017 4.924c0 2.383 1.774 4.57 4.219 4.959.251.042.518.063.79.063 2.761 0 5.009-2.254 5.009-5.022 0-2.767-2.245-5.021-5.009-5.021h.003zm8.719 19.575c-.215-5.035-4.049-8.98-8.723-8.98a7.49 7.49 0 00-.601.023c-4.423.326-7.912 4.177-8.116 8.957l-.023.549h17.49l-.025-.549h-.002z" fill="#fff"/><path d="M35.353 32.04c-.26 0-.51-.02-.751-.06a4.73 4.73 0 01-3.996-4.698c0-2.356 1.598-4.222 3.802-4.668a4.8 4.8 0 01.945-.091c2.617 0 4.747 2.135 4.747 4.759 0 2.623-2.13 4.759-4.747 4.759z" fill="#2EAC6A"/><path d="M35.353 22.782a4.49 4.49 0 014.486 4.497 4.49 4.49 0 01-5.195 4.44 4.494 4.494 0 01-3.776-4.442 4.442 4.442 0 013.593-4.41c.288-.058.589-.087.892-.087m0-.522c-.33 0-.664.034-.994.097a5.034 5.034 0 00-4.017 4.924c0 2.383 1.774 4.57 4.218 4.959.252.042.518.063.79.063 2.762 0 5.01-2.254 5.01-5.022 0-2.767-2.246-5.021-5.01-5.021h.003zm8.719 19.575c-.214-5.035-4.048-8.98-8.722-8.98-.201 0-.403.007-.602.023-4.422.326-7.91 4.177-8.115 8.957l-.024.549H44.1l-.024-.549h-.003z" fill="#fff"/><path d="M25.81 49.307c4.809 0 8.707-3.908 8.707-8.729 0-4.82-3.898-8.728-8.707-8.728-4.808 0-8.706 3.908-8.706 8.728 0 4.821 3.898 8.729 8.706 8.729z" fill="#2EAC6A"/><path d="M44.097 52.673c5.606 0 10.15-4.556 10.15-10.177 0-5.62-4.544-10.177-10.15-10.177-5.607 0-10.152 4.557-10.152 10.177 0 5.62 4.545 10.177 10.152 10.177z" fill="#2EAC6A"/><path d="M62.234 49.355c4.835 0 8.754-3.93 8.754-8.776 0-4.847-3.92-8.776-8.754-8.776s-8.754 3.929-8.754 8.776c0 4.846 3.92 8.776 8.754 8.776z" fill="#2EAC6A"/><path d="M62.234 47.57c-.38 0-.751-.028-1.104-.089-3.4-.54-5.87-3.442-5.87-6.902s2.35-6.2 5.584-6.856c.461-.091.93-.136 1.387-.136 3.845 0 6.972 3.135 6.972 6.992 0 3.856-3.127 6.992-6.972 6.992h.003z" fill="#2EAC6A"/><path d="M62.234 33.849c3.706 0 6.71 3.012 6.71 6.73 0 3.717-3.004 6.729-6.71 6.729a6.722 6.722 0 01-6.71-6.727c0-3.353 2.308-5.976 5.375-6.598.432-.084.88-.131 1.335-.131m0-.528c-.476 0-.96.047-1.437.142-3.36.68-5.799 3.67-5.799 7.112 0 3.443 2.562 6.601 6.092 7.163.364.06.749.092 1.144.092 3.988 0 7.233-3.253 7.233-7.255 0-4-3.245-7.254-7.233-7.254z" fill="#fff"/><path d="M62.318 44.49c-1.154 0-2.078-1.128-2.117-1.175l.406-.33s.809.98 1.711.98c.903 0 1.52-.95 1.526-.96l.437.289c-.031.05-.793 1.196-1.963 1.196z" fill="#fff"/><path d="M49.692 62.648l.01-.273c.296-6.89 5.31-12.436 11.665-12.903.282-.021.573-.032.86-.032 6.718 0 12.222 5.683 12.53 12.935l.011.273H49.69h.002z" fill="#2EAC6A"/><path d="M62.23 49.7c6.59 0 11.968 5.623 12.271 12.686H49.967c.29-6.759 5.22-12.198 11.42-12.654.28-.021.56-.032.843-.032zm0-.524c-.296 0-.591.01-.882.034-6.485.477-11.604 6.131-11.904 13.152l-.024.548h25.626l-.024-.548c-.317-7.393-5.935-13.186-12.792-13.186z" fill="#fff"/><path d="M61.385 49.732c-1.62 1.283-3.039 2.516-4.002 4.568-.557 1.186-.814 2.492-.96 3.79a24.253 24.253 0 00-.105 4.293h-6.351c.29-6.758 5.22-12.197 11.42-12.654l-.002.003zm-5.863-9.154a6.73 6.73 0 015.375-6.599c-.547.402-1.07.84-1.5 1.472-1.408 2.078-1.69 4.822-.976 7.231.51 1.713 1.49 3.261 2.75 4.539a6.722 6.722 0 01-5.65-6.643z" fill="#fff"/><path d="M25.81 47.57c-.38 0-.75-.028-1.104-.089-3.4-.54-5.87-3.442-5.87-6.902s2.35-6.2 5.585-6.856a7.18 7.18 0 011.387-.136c3.844 0 6.971 3.135 6.971 6.992 0 3.856-3.127 6.992-6.971 6.992h.002z" fill="#2EAC6A"/><path d="M25.814 33.849c3.706 0 6.71 3.012 6.71 6.73 0 3.717-3.004 6.729-6.71 6.729a6.722 6.722 0 01-6.71-6.727c0-3.353 2.308-5.976 5.375-6.598.432-.084.88-.131 1.335-.131m0-.528c-.476 0-.96.047-1.437.142-3.36.68-5.799 3.67-5.799 7.112 0 3.443 2.562 6.601 6.093 7.163.363.06.748.092 1.143.092 3.988 0 7.233-3.253 7.233-7.255 0-4-3.245-7.254-7.233-7.254z" fill="#fff"/><path d="M25.896 44.49c-1.154 0-2.077-1.128-2.117-1.175l.406-.33s.809.98 1.711.98c.903 0 1.52-.95 1.526-.96l.437.289c-.031.05-.793 1.196-1.963 1.196z" fill="#fff"/><path d="M13.273 62.648l.01-.273c.297-6.89 5.31-12.436 11.662-12.903.283-.021.573-.032.864-.032 6.718 0 12.221 5.683 12.53 12.935l.01.273H13.273z" fill="#2EAC6A"/><path d="M25.81 49.7c6.59 0 11.968 5.623 12.271 12.686H13.547c.29-6.759 5.22-12.198 11.42-12.654.28-.021.56-.032.843-.032zm0-.524c-.296 0-.591.01-.882.034-6.485.475-11.604 6.131-11.904 13.152L13 62.91h25.626l-.024-.548c-.317-7.393-5.935-13.186-12.792-13.186z" fill="#fff"/><path d="M24.967 49.732c-1.62 1.283-3.038 2.516-4.001 4.568-.557 1.186-.814 2.492-.96 3.79a24.244 24.244 0 00-.105 4.293h-6.354c.29-6.758 5.22-12.197 11.42-12.654v.003zm-5.865-9.153a6.729 6.729 0 015.375-6.599c-.547.402-1.07.84-1.5 1.472-1.408 2.078-1.69 4.823-.976 7.231.51 1.713 1.49 3.261 2.75 4.539a6.722 6.722 0 01-5.65-6.643z" fill="#fff"/><path d="M44.116 51.174c-.466 0-.924-.036-1.355-.107-4.182-.664-7.218-4.232-7.218-8.488 0-4.255 2.89-7.621 6.867-8.427a8.977 8.977 0 011.706-.168c4.727 0 8.57 3.857 8.57 8.595 0 4.739-3.843 8.595-8.57 8.595z" fill="#2EAC6A"/><path d="M44.116 34.247c4.59 0 8.31 3.73 8.31 8.333 0 4.601-3.72 8.332-8.31 8.332a8.325 8.325 0 01-8.312-8.333c0-4.153 2.858-7.4 6.658-8.17a8.585 8.585 0 011.654-.162zm0-.525c-.58 0-1.172.058-1.753.173-4.104.83-7.082 4.484-7.082 8.685a8.87 8.87 0 002.138 5.777 8.823 8.823 0 006.697 3.077c4.87 0 8.833-3.972 8.833-8.857s-3.963-8.857-8.833-8.857v.002z" fill="#fff"/><path d="M44.217 47.36c-1.397 0-2.525-1.372-2.572-1.433l.405-.33s1.02 1.238 2.167 1.238c1.146 0 1.934-1.204 1.942-1.215l.437.286c-.04.06-.963 1.454-2.379 1.454z" fill="#fff"/><path d="M28.65 69.847l.01-.273c.365-8.5 6.549-15.343 14.386-15.917.349-.027.707-.04 1.063-.04 8.283 0 15.071 7.01 15.456 15.96l.01.272H28.65v-.002z" fill="#2EAC6A"/><path d="M44.11 53.877c8.16 0 14.82 6.963 15.194 15.708h-30.38c.358-8.37 6.467-15.104 14.142-15.668.345-.027.694-.04 1.044-.04zm0-.525c-.36 0-.727.014-1.083.043-7.969.585-14.255 7.537-14.627 16.169l-.023.548h31.475l-.024-.548c-.39-9.091-7.294-16.209-15.718-16.209v-.002z" fill="#fff"/><path d="M43.066 53.917c-2.007 1.59-3.763 3.117-4.957 5.657-.688 1.466-1.007 3.085-1.19 4.696a29.805 29.805 0 00-.128 5.315h-7.867c.358-8.37 6.466-15.104 14.142-15.668zM35.805 42.58a8.33 8.33 0 016.657-8.17c-.678.499-1.324 1.04-1.855 1.824-1.743 2.573-2.094 5.97-1.21 8.954.632 2.122 1.843 4.038 3.406 5.62a8.325 8.325 0 01-6.998-8.228z" fill="#fff"/><path d="M37.299 61.092c.112-.42.23-.823.353-1.225l6.582.596-6.935.627v.002zm-.807 1.839c.092-.393.183-.782.28-1.16l5.857.565-6.137.595zm-.449 1.574c.068-.335.139-.671.21-1l4.56.491-4.77.512v-.002zm-.234 1.42c.05-.299.104-.59.16-.884l3.731.43-3.891.451v.003zm.041 1.254c.036-.244.075-.49.117-.735l2.782.357-2.897.378h-.002zm-.504 1.273c.029-.213.057-.425.089-.633l2.208.31-2.297.325v-.002zm2.607-9.149c.139-.414.28-.818.424-1.201l6.686.58-7.11.621zm.479-1.726c.178-.41.358-.793.547-1.16l6.57.559-7.117.6zM39.7 56.01c.175-.212.355-.398.538-.564.173-.16.351-.304.526-.435l5.608.456-6.67.543h-.003z" fill="#fff"/></g><defs><clipPath id="clip0_558_19043"><path fill="#fff" d="M0 0h88v88H0z"/></clipPath></defs></svg>