<svg width="202" height="118" fill="none" xmlns="http://www.w3.org/2000/svg"><path d="M22.591 28.86l46.992-.032c3.734.232 6.605 2.935 6.967 6.647v47.246c-.217 3.316-2.693 6.02-5.954 6.617-15.928.28-31.902.036-47.848.123a7.304 7.304 0 01-6.871-6.46l.005-47.71a7.249 7.249 0 016.709-6.432v.001zm25.138 20.242c.419-2.442.64-4.985.013-7.412-1.444-5.586-6.99-8.433-12.421-8.89-.778 3.357-.4 7.105 1.337 10.109 2.254 3.898 6.713 5.786 11.07 6.192v.001zM24.6 71.732v.282l.324-.196 2.709.008v-8.863H38.63c.075 2.76-.102 5.54 0 8.297.005.157-.004.315 0 .472.01.126.137.092.232.098.908.06 1.885-.052 2.801-.006l-.095-.093.048-3.395c2.06 4.552 7.845 4.461 11.296 1.522l1.88 1.967h2.701c.042-.166-.07-.188-.142-.283-.703-.925-2.699-3.328-3.554-3.96-.033-.024-.058-.07-.095-.094-.12-.297-.404-.602-.615-.85-1.848-2.178-4.132-4.41-5.83-6.648-1.5-1.978-2.1-5.18 1.041-5.702v-1.886c-3.048.026-5.216 2.93-4.36 5.846.005.061-.008.128 0 .189.126.948.844 1.818 1.232 2.639-.878.416-1.957 1.038-2.464 1.886-.033.004-.07-.008-.095 0-.227.077-.844 1.238-.948 1.509-.017.043.012.13 0 .188l-.095-.094V52.307l-2.8-.002-.138.097v7.732H27.633c-.106-.91.18-7.457-.094-7.732-.092-.091-.095-.085-.227-.099-.85-.085-1.845.075-2.712.005v19.424zm25.688-19.329c-.126.126-.088.17-.1.322-.205 2.542.165 5.356.004 7.928l.095-.047c1 1 1.853 2.149 2.816 3.183.067.073.029.167.218.117l.095-6.033.568.376 11.991 13.577h2.228V52.31H65.17v14.332L52.638 52.33c-.427.027-2.128-.147-2.35.073h.001z" fill="#0163B4"/><path d="M85.834 82.195V62.59h2.417c.01.195.082.37.185.532 2.942 4.629 6.14 9.103 9 13.771.072.118.375.219.325.48.12.096.319-.326.319-.4v-13.98c0-.046.166-.375.272-.409l1.985.005-.163 19.768c-.675-.085-1.567.232-2.1-.236L88.708 68l-.456-.268-.16 14.465h-2.257v-.002z" fill="#0663B3"/><path d="M187.742 48.174l-2.904 4.727 4.033 4.56h-2.822l-2.742-2.719c-6.332 7.34-15.682-1.118-7.35-7.471-1.753-2.228-3.815-4.03-2.332-7.11 1.787-3.715 7.409-3.53 8.684.519.979 3.11-1.389 4.703-3.113 6.768l3.8 3.762c.217.057.267-.124.367-.26.615-.828 1.012-1.98 1.718-2.776h2.661zm-10.2-8.453c-3.509.503-2.059 4.861.258 6.038 1.491-.985 3.267-3.002 2.178-4.847-.507-.856-1.436-1.334-2.434-1.191h-.002zm3.644 12.88c-.518-.547-3.005-3.636-3.524-3.633-5.816 3.933-.56 9.482 4.203 4.487.221-.434-.474-.64-.679-.855v.001z" fill="#0C65B0"/><path d="M100.502 46.084v-8.676h2.583V57.25l-.255.223-2.328-.143v-8.756l-.242-.24h-9.284c.052.157-.162.348-.162.4v8.757l-2.421-.16V37.407h2.34c.081 0 .267.265.248.4l-.171 7.866c-.015.137.158.41.247.41h9.445z" fill="#0864AF"/><path d="M119.336 51.382h-10.457c.428 3.198 4.011 5.102 6.742 3.126.206-.15.837-.872.899-.872h2.494c-1.765 4.979-8.864 5.237-11.551.854-3.056-4.985.248-12.202 6.466-11.466 3.853.456 6.184 4.735 5.407 8.358zm-2.253-2.094c-.828-5.372-7.385-5.369-8.204 0h8.204z" fill="#0A65B0"/><path d="M133.038 57.423l-1.781-.074-.479-1.366c-.787.229-1.347.869-2.146 1.15-3.139 1.105-7.195-.366-7.058-4.11.153-4.185 5.927-4.37 9.046-4.396.54-3.6-4.918-4.895-5.808-1.279h-2.34c-.382-.237-.119-.752.007-1.115 1.389-4.01 7.336-4.29 9.727-1.017.25.343.834 1.364.834 1.732v10.475h-.002zm-2.418-6.559c-1.549.033-5.65-.054-6.416 1.556-.588 1.235.121 2.396 1.377 2.719 2.609.668 5.626-1.457 5.039-4.275z" fill="#0B64AF"/><path d="M162.737 48.477c-.65-2.17-1.938-3.587-4.405-3.17-1.209.204-2.867 1.882-2.867 3.09v9.064c-.766-.106-1.816.258-2.424-.24V37.407h2.424v7.38c2.749-2.922 7.451-2.216 9.078 1.495.96 2.19.732 7.665.617 10.215l-.321.644h-1.941l.002-9.226-.162.561h-.001z" fill="#0A65B2"/><path d="M166.602 67.903c9.678-.945 9.728 15.312.116 14.548-8.014-.636-8.199-13.759-.116-14.548zm.155 2.235c-5.329.741-4.72 10.383.76 10.072 5.656-.32 5.035-10.877-.76-10.072z" fill="#0B65B0"/><path d="M188.68 82.263c-.492-.097-2.23.248-2.398-.26-.292-2.749.32-6.053-.036-8.732-.342-2.576-3.337-4.002-5.555-2.485-.457.313-1.532 1.635-1.532 2.153v9.325h-2.421V68.077l1.753.022.591 1.413c2.811-2.407 7.029-2.055 8.856 1.292.197.36.744 1.642.744 1.975v9.483h-.002z" fill="#0864B1"/><path d="M104.861 68.052h2.265v9.051c0 .07.401 1.141.477 1.29 1.417 2.763 5.685 2.216 6.563-.726.115-.387-.035-.85.24-1.124.003.099-.078.67.161.4-.027-2.563.034-5.128.002-7.691-.003-.271.103-.713-.165-.88 0-.01-.218-.046-.091-.16l2.518-.16V82.31l-1.924-.02-.584-1.419c-3.087 2.873-7.849 1.743-9.267-2.2-.095-.268-.351-1.105-.359-1.327 0-.03.18-.25.173-.542-.066-2.916.026-5.836-.011-8.75h.002z" fill="#0B66B3"/><path d="M124.005 68.055h3.062v2.24h-3.062v8.241c0 .056.475.928.533.992.495.554 1.831.863 2.529.529l-.021 1.977c-1.402 1.06-3.715.052-4.626-1.285-.188-.275-.831-1.641-.831-1.894v-8.562h-2.579v-2.24c.754-.03 1.984.186 2.496-.481.07-.09.405-.831.405-.879v-2.48c.669.092 1.583-.24 2.095.24v3.6l-.001.002z" fill="#0A65B1"/><path d="M149.059 64.31v3.693h3.223v2.248h-3.062c-.074.294-.145.567-.169.876-.131 1.646-.111 4.3 0 5.958.142 2.107.819 3.553 3.229 2.965l-.021 1.985c-1.727 1.214-4.272-.28-5.053-1.987-.223-.486-.564-1.84-.564-2.328v-7.47h-2.417v-2.248c.646.1 2.739.029 2.739-.883v-2.73l.234-.204 1.861.123z" fill="#0864B1"/><path d="M142.298 45.455c.185-.427-.293-.482-.317-.59-.093-.429.054-1.029-.005-1.49 1.054.01 2.212.234 2.612-.914.047-.07.269-.03.269-.045v-2.878c2.387-.417 1.403 1.607 1.592 3.125.036.296.355 1.244.644 1.03.02-.015-.033-.226.036-.276.105-.075 1.702-.086 1.977-.054.296.035.238.497.71.333.003.107-.003.212 0 .32-.288.153-.096.596-.17.84-.219.727-1.441.217-1.91.599-.105.005-.214-.01-.32 0v-.48l-.539-.006c-.174.041-.216.486-.26.647-.045.162-.143.218-.172.54-.215 2.443.192 5.205.004 7.681.028.19.289.061.328.095.251.206.232.472.368.592.878.775 1.521.756 2.671.686l-.022 2.056c-1.654.521-3.315.14-4.463-1.177-.117-.134-.106-.33-.154-.4.262-.577-.306-.857-.318-.908-.053-.241.052-.524 0-.747-.04-.17-.324-.086-.324-.104v-8.635l-1.919.16c-.106-.007-.216.013-.32 0h.002z" fill="#0764B2"/><path d="M137.116 67.87v2.403c-1.435-.123-2.972.412-3.809 1.612-.115.167-.578 1.085-.578 1.192v9.212h-2.438V68.031l1.765.022.593 1.423c1.329-.971 2.745-1.702 4.467-1.604v-.001z" fill="#0864B1"/><path d="M137.396 37.408l1.641.164v19.596l-1.864.003c-.172-.02-.041-.713-.437-.003v-19.76h2.465v20.083h-2.465V37.893l.169.643h.161l.002-1.128h.328z" fill="#0A67B5"/><path d="M157.686 68.052h-2.37v14.237h2.37V68.052z" fill="#0D67B2"/><path d="M139.391 68.052h2.559v14.237h-2.559V68.052zm.32.32v13.757h1.919V69.012c-.883-.044.218-.4 0-.639-.233-.254-1.544-.176-1.919-.001z" fill="#337BA8"/><path d="M97.398 76.822c.498.09.32-.246.33-.553.158-4.584-.137-9.192.023-13.777l.132-.192 2.577.08c-.063 6.392.331 12.965.072 19.34-.013.31.172.642-.329.554l.166-19.726-2.03-.004c-.11.032-.28.362-.28.407v13.951c0 .074-.202.494-.326.4.053-.262-.259-.363-.333-.48h-.002z" fill="#4F7DA3"/><path d="M156.595 65.6a1.56 1.56 0 001.564-1.556c0-.86-.7-1.556-1.564-1.556a1.56 1.56 0 00-1.564 1.556c0 .86.701 1.556 1.564 1.556zm-15.925 0a1.56 1.56 0 001.564-1.556 1.56 1.56 0 00-1.564-1.556 1.56 1.56 0 00-1.565 1.556c0 .86.701 1.556 1.565 1.556z" fill="#1166AB"/><path d="M142.284 45.422c-.246-.03-.512.06-.618-.264l.048-2.004c.245-.355 1.823.108 2.45-.518.038-.038.364-.642.364-.68v-2.662l2.164.153.092 3.544 3.033.012c.005.214-.007.43 0 .645-.473.168-.415-.3-.712-.336-.275-.032-1.874-.02-1.98.055-.067.049-.016.263-.035.278-.29.217-.609-.74-.646-1.04-.191-1.53.796-3.574-1.594-3.151v2.903c0 .015-.223-.025-.269.046-.399 1.158-1.561.932-2.617.922.059.465-.088 1.07.005 1.502.024.11.503.166.317.596h-.002z" fill="#337BA8"/><path d="M137.396 37.408h1.805V57.49l-2.465.002v-.323c.396-.708.265-.017.437.003l1.864-.003V37.572l-1.641-.164z" fill="#226188"/><path d="M142.613 45.395l1.937-.16v8.694c0 .018.286-.068.327.105.051.223-.055.508 0 .752.011.053.586.333.321.914-.501-.715-.867-1.23-.97-2.172-.268-2.452.195-5.36.008-7.864-.083-.352-1.322-.248-1.621-.269h-.002z" fill="#337BA8"/><path d="M88.297 67.674l.002 14.614-2.465-.162 2.3.001.163-14.453z" fill="#226188"/><path d="M162.712 48.438l.164-.564v9.269h1.967l.326-.646c-.005.106.013.217 0 .322l-.164.484h-2.296v-8.866l.003.001zm-58.015 28.854l.177-9.24c.041 2.896-.06 5.802.013 8.701.007.29-.191.512-.19.539z" fill="#2B5779"/><path d="M146.783 53.896c-.038-.032-.287.095-.313-.094.18-2.47-.21-5.221-.004-7.652.028-.322.123-.38.164-.539l.153 8.285zm-32.387 14.438c.233.167.14.61.143.883.028 2.572-.027 5.146-.001 7.719-.21.271-.14-.3-.141-.402-.06-2.72-.02-5.478 0-8.2h-.001z" fill="#226188"/><path d="M149.813 44.009c.016.468-.012.942 0 1.41-.689.018-1.391-.029-2.081 0 .469-.373 1.691.126 1.91-.587.073-.24-.119-.671.169-.822l.002-.001zm-3.217 1.602c.047-.164.092-.617.278-.66l.575.007v.489c-.299.024-.577-.03-.853.162v.002z" fill="#337BA8"/><path d="M137.115 37.408l-.001 1.132h-.184l-.194-.645v-.487h.379z" fill="#226188"/><path d="M164.984 57.303l.187-.472c-.024.171.088.388-.187.471z" fill="#0A65B2"/><path d="M27.54 52.404v7.827l11.09-.095v-7.732h2.655l-.006 12.111.29.052.094.094c.013-.058-.015-.145.001-.188h.758c-.084-.37.159-.427.38-.633l-.19-.876c.025-.008.062.004.095 0 .416-.053.823.06 1.232.093v-.281h-.474v-.377c.557.248 1.094-.942 1.416-1.002.272-.05.249.14.388.198.348.144.935 0 1.325.05.008-.062-.008-.13 0-.19.125-.006.253.006.378 0v-.187h-.378c-.008.061.008.128 0 .188-.376.02-.76-.014-1.137 0-.177-.276.214-1.075.184-1.125-.007-.012-.112 0-.145-.04-.355-.458-.435-.291-.974-.45-.122-.283.127-.481.173-.7.136-.654-.06-.428-.3-.517-.092-.034-.134-.312-.453-.186-.008-.06.005-.127 0-.188-.019-.242-.044-.873.017-1.068.064-.205.302-.206.34-.273.055-.096 0-.268.045-.376.117-.28.349-.366.166-.735.39.04.426.446.379.755h-.381l.008.368.56.102.191-1.603h-.76c-.11-.267.173-.273.189-.346.038-.183-.018-.406 0-.597.668.184.604-.585 1.112-.734.342-.1.083.227.405.167-.385-1.451.703-.66 1.518-.754v.566l-.67.04c-.184.129.063 1.315-.847.903v.754h-.76c-.122.406.272.808.191 1.164-.018.08-.208.028-.2.202.013.323.56.985-.179 1.181.032-.247-.06-.577-.379-.566-.107.363-.284.561-.19 1.038h1.517c.043.04-.042.623 0 .786.02.076.194.053.194.11-.004.16-.297.356-.193.612l.425-.377c.043.344.19.354.522.378.09.097-.344.398-.149.666l.719.086c-.017.16.034.356 0 .506-.021.099-.29.003-.19.249h.948c-.199.862.652.627.948 1.274-.427.109-.072.542-.092.745-.004.038-.475.231-.287.62h.378c.023-.157-.039-.359-.002-.503.028-.104.18-.05.192-.062.013-.013-.02-.122.013-.17l.276.023.089.901.528.088.041.948.364-.109c.042-.072-.025-1.02.204-.738l-.095.753.433.09.178.582.605.1.017 1.115.757-.376v.565c-.06.06-.47-.148-.378.188h.663l.046-.189c.058.29.27.15.333.19.037.023.062.07.095.094.016.177-.05.374.03.542.038.08.254.013.064.495h.852l-.379.377c.469-.185.421.39.598.533.108.088.395.157.54.224.098.26-.325.133-.187.373.047.082.605.272.664.33.21.21.284.951-.22.8-.062-.02-.12-.281-.351-.186l.095-.375-.33.186c-.361-.634-.615-.329-1.186-.187v-.38l-.38.002c-.001-.156.002-.314 0-.472.052.012.128-.006.19 0v-.471h-.19v.471c-.218-.053-.182-.286-.193-.468l-.753-.003.378.376c-.215.03-.49-.046-.692.003-.06.014-.047.128-.142.18-.06.033-.222-.03-.285.021-.074.06-.016.37-.471.522-.69.23-.985-.124-1.632-.16l.19.333.378-.052c-.101.408.264.234.38.471-.626-.14-.818.544-1.518.379v-.567h-.663v.38l-.839-.014c-.35-.552.357-.534.367-.788l-.38-.236c.276.076.642-.284.808-.284.13 0 .582.53.898.188.18-.193-.328-.153-.19-.375.337.161.408-.302.567-.186.04.03-.014.322.52.192l.241-.29.19.283v-.754h1.518v.186c.289.06.289-.241 0-.186v-1.509l-.758.189c.041-.195-.152-.303-.2-.367a.117.117 0 11-.167.165.116.116 0 010-.165.118.118 0 01.166 0c-.027-.083.046-.314-.137-.387l-.516.188c-.028-.033-.065-.06-.095-.094.34-.189.17-.832.19-1.226.06-.009.128.008.19 0v-.376h-.189c-.006.124.007.251 0 .376-.382.05-.196.492-.426.376-.215-.108-.04-.645-.52-.573l-.004-.745-.567-.002.094-.376-.764-.042-.099-.61-.747-.104v-.943c-.463.095-.782-.114-.856-.566-.648.13-1.773-.2-1.8.755l-.567-.188c-.06.37.397.002.283.423-.42.12-.337.3-.5.493-.062.074-.245.09-.306.212-.18.356.37 1.37-.616 1.323-.086.32.156.517.196.797.076.541-.188 1.239.183 1.703-.48.196-.273.678.19.422v.661c-.168-.045-.187.173-.255.187-.152.03-.384-.045-.488.017-.018.01-.2.342-.204.362h-.569c-.089-.339.159-.255.182-.288.139-.192-.152-.164-.18-.249-.048-.147.057-.375-.144-.5l-.05.184c-.256.107-.156-.205-.338-.265-.591-.195-.573.188-.985.366l.047.189.33-.096v1.98h-1.231c-.081.378.324.356.357.393.054.061.065.424.116.549-.447.151-.378-.28-.634-.36-.327-.1-.897.035-1.262-.017-.102-2.757.075-5.538 0-8.297l-11.09-.094v8.863h-2.94V52.306c.867.07 1.862-.09 2.712-.005.132.014.135.008.227.1l-.003.003zm17.014 6.034v.095c.062-.031.062-.064 0-.095zm1.66 1.697v.566h.189v-.566h-.19zm-.76 1.698l-.807-.093c.133.372-.21.205-.14.563.367-.145.549-.183.947-.094v-.376zm-1.138.565h-.14c-.149.1-.165.203-.143.377h.283v-.377zm-1.468.755v.094c.062-.031.062-.063 0-.094zm.332.376v.944h.19v-.944h-.19zm7.962 1.886v.378h.189v-.378h-.189zm-7.962.565v.378h.188v-.378h-.188zm-.19 2.075v.566h.19v-.566h-.19zm9.883 1.036a.116.116 0 00-.116-.116.116.116 0 100 .232.116.116 0 00.116-.116zm.165-.093v.188h.38v-.189h-.38zm.783.093a.116.116 0 00-.116-.116.116.116 0 100 .232.116.116 0 00.116-.116zm-1.327.377a.116.116 0 00-.117-.116.116.116 0 100 .232.116.116 0 00.117-.116zm-2.679.472v.189h.38v-.189h-.38zm.973.094a.116.116 0 00-.117-.116.116.116 0 100 .232.116.116 0 00.117-.116z" fill="#FBFDFC"/><path d="M50.29 52.404c.22-.221 1.921-.048 2.349-.074l12.532 14.31V52.31h3.034v19.516h-2.228L53.986 58.25l-.663-.847v6.505c-.19.05-.152-.045-.219-.117-.962-1.035-1.814-2.183-2.815-3.184v-8.202z" fill="#F9FCFB"/><path d="M47.729 49.103c-4.358-.407-8.817-2.295-11.071-6.193-1.738-3.004-2.115-6.752-1.337-10.108 5.43.456 10.977 3.303 12.421 8.889.628 2.427.406 4.97-.013 7.413v-.001zm-.759-1.036c.49-2.953.384-5.971-1.155-8.609-1.961-3.36-5.977-5.162-9.734-5.617-.507 2.858-.087 6.108 1.394 8.632 1.97 3.36 5.733 5.1 9.495 5.593z" fill="#EDF8F4"/><path d="M43.938 68.81v-.661c-.464.255-.67-.227-.19-.422-.372-.465-.108-1.162-.184-1.703-.04-.28-.282-.475-.196-.797.986.047.435-.967.615-1.323.062-.12.245-.137.308-.212.162-.192.078-.373.5-.493.113-.421-.343-.053-.284-.423l.568.188c.026-.954 1.151-.626 1.799-.755.075.452.393.66.856.566v.943l.748.104.098.61.764.042-.094.376.567.002.005.745c.479-.072.304.464.52.573.229.116.043-.325.425-.376.007-.125-.006-.252 0-.376h.189v.376c-.062.008-.13-.008-.19 0-.02.394.15 1.037-.19 1.225-1.175-1.354-2.513-2.972-3.743-4.243-.09-.094-.219-.283-.364-.27-2.281 1.162-3.905 4.53-1.63 6.496 1.917 1.657 5.013.76 6.778-.71-.244-.347-.584-.623-.856-.943-.07-.083-.069-.21-.09-.235l.515-.188c.183.072.11.304.137.387a.118.118 0 00-.165 0 .116.116 0 000 .165.117.117 0 00.165 0 .116.116 0 000-.165c.049.064.242.172.201.366l.757-.188v1.508c.29-.054.29.248 0 .187V69H50.76v.755l-.19-.283-.24.29c-.535.13-.48-.163-.52-.192-.16-.116-.23.347-.567.186-.139.222.368.182.19.375-.316.341-.77-.19-.898-.189-.166 0-.533.36-.81.285l.381.236c-.01.253-.718.236-.367.788l.841.013v-.379h.663v.567c.7.166.892-.519 1.516-.38-.115-.235-.48-.062-.379-.47l-.377.052-.19-.334c.646.038.941.39 1.63.16.457-.151.399-.461.472-.52.063-.053.225.01.285-.022.095-.052.082-.166.142-.18.201-.05.476.026.692-.003l-.378-.377.754.004c.011.182-.026.414.193.468v-.472h.189v.472c-.061-.007-.138.012-.19 0 0 .157-.002.315 0 .472l.381-.002v.38c.57-.142.825-.447 1.186.187l.33-.187-.095.376c.23-.095.29.167.352.185.503.152.43-.59.219-.8-.058-.058-.617-.247-.664-.33-.138-.24.285-.111.187-.373-.146-.066-.433-.135-.54-.223-.176-.142-.13-.718-.598-.533l.38-.376h-.853c.19-.484-.026-.417-.064-.496-.082-.168-.014-.365-.03-.542.856.632 2.85 3.034 3.554 3.96.072.094.184.118.142.283h-2.701l-1.88-1.967c-3.452 2.939-9.236 3.03-11.296-1.523l-.047 3.396h-2.94c-.003-.157.007-.315 0-.472.366.053.936-.084 1.264.017.255.08.186.511.633.36-.05-.125-.062-.489-.116-.55-.033-.036-.438-.014-.357-.392h1.232v-1.98l-.33.096-.047-.189c.411-.178.392-.56.984-.366.18.06.082.372.34.265l.048-.184c.202.124.096.352.144.5.028.085.319.057.18.249-.024.034-.27-.051-.181.287h.568c-.073.315.215.759.28 1.09l1.9.042c.105-.349-.406-.119-.474-.189v-.376l.555-.015.11-.362-.652-.013-.012-.554c-.085-.087-.834.197-.758-.187l.002-.003z" fill="#F5FBFA"/><path d="M43.938 58.249c-.856-2.915 1.312-5.82 4.36-5.846v1.886c-3.14.521-2.54 3.724-1.04 5.702 1.698 2.239 3.981 4.47 5.83 6.648.21.248.493.553.614.85-.064-.04-.275.1-.333-.19l-.045.19h-.664c-.093-.337.319-.128.38-.189v-.565l-.76.376-.016-1.115-.605-.1-.178-.582-.432-.09.094-.753c-.229-.282-.162.666-.204.738l-.363.11-.042-.949-.528-.088-.09-.901-.275-.023c-.033.048 0 .156-.013.17-.013.012-.164-.042-.192.062-.038.145.024.347.002.505h-.378c-.188-.39.283-.584.287-.622.02-.203-.334-.637.092-.745-.296-.647-1.147-.41-.948-1.274h-.948c-.1-.246.169-.15.19-.25.034-.149-.017-.343 0-.505l-.719-.086c-.195-.268.24-.569.15-.666-.333-.024-.48-.034-.523-.378l-.425.377c-.104-.256.189-.452.193-.612 0-.056-.174-.033-.194-.11-.042-.163.043-.746 0-.787h-1.517c-.094-.475.083-.674.19-1.036.319-.012.412.318.38.565.739-.196.192-.858.178-1.181-.008-.174.182-.122.2-.202.081-.355-.314-.758-.19-1.163h.76v-.754c.908.412.662-.774.846-.902l.67-.04v-.567c-.815.094-1.903-.697-1.518.754-.322.06-.063-.267-.404-.167-.509.148-.444.918-1.113.734-.02.191.038.414 0 .597-.016.072-.299.079-.188.346h.76l-.191 1.603-.56-.102-.009-.37h.381c.047-.307.01-.714-.38-.754.184.37-.047.455-.165.735-.045.108.01.28-.045.376-.038.067-.276.068-.34.274-.06.194-.036.825-.017 1.067l-.005-.001zm6.778 5.94v.094c.062-.03.062-.063 0-.094zM38.629 52.404l.137-.097 2.802.002v12.258l-.29-.052.006-12.112h-2.655z" fill="#F5FBFA"/><path d="M43.938 58.438c.32-.126.361.152.452.186.243.09.437-.137.3.516-.045.22-.294.417-.172.7.54.16.62-.008.975.45.032.041.137.029.144.04.03.05-.36.85-.184 1.126.377-.015.761.02 1.137 0 .01-.06-.008-.127 0-.189h.379v.188c-.125.006-.253-.005-.379 0-.008.06.01.127 0 .189-.39-.05-.977.094-1.325-.05-.139-.057-.115-.248-.387-.197-.323.06-.86 1.249-1.416 1.002v.376h.474v.282c-.41-.033-.816-.147-1.233-.093.507-.849 1.586-1.471 2.465-1.887-.389-.821-1.106-1.69-1.233-2.639h.003z" fill="#F5FBFA"/><path d="M38.63 62.963H27.636v8.863l-2.71-.008-.323.196v-.282h2.938v-8.863l11.09.094z" fill="#2B5779"/><path d="M27.54 52.403c.274.275-.012 6.822.094 7.733H38.63l-11.092.094v-7.827h.001z" fill="#2D628E"/><path d="M42.612 62.964l.19.876c-.221.206-.464.263-.38.632h-.758c.104-.27.72-1.432.948-1.508z" fill="#F5FBFA"/><path d="M50.289 60.606l-.095.047c.159-2.57-.21-5.386-.005-7.928.012-.154-.026-.196.1-.322v8.203z" fill="#2B5779"/><path d="M53.322 63.906l.001-6.505.663.848-.568-.376-.096 6.033z" fill="#226188"/><path d="M41.567 71.732l.095.094c-.915-.047-1.893.065-2.8.005-.096-.006-.223.029-.233-.098h2.938z" fill="#2B5779"/><path d="M139.676 68.401c.382-.175 1.722-.252 1.96.002.224.239-.9.595 0 .64v13.151h-1.96V68.401z" fill="#0463B4"/><path d="M50.573 67.018c.03.034.066.061.095.094.02.025.02.153.09.236.271.32.611.596.857.943-1.765 1.469-4.861 2.366-6.779.71-2.275-1.965-.652-5.334 1.63-6.495.146-.014.275.175.365.268 1.23 1.27 2.568 2.89 3.743 4.244h-.001z" fill="#0564B2"/><path d="M43.937 68.81c-.076.384.674.1.759.188l.01.553.652.013-.109.362-.554.015v.376c.067.07.578-.16.474.19l-1.901-.043c-.065-.332-.353-.775-.28-1.09.005-.02.186-.351.204-.361.104-.063.337.013.488-.017.07-.014.087-.232.256-.187h.001z" fill="#FEFEFE"/><path d="M45.455 61.833v.376c-.399-.089-.58-.051-.948.094-.069-.36.274-.192.14-.563l.808.093zm-2.277 1.696v.944h.19v-.944h-.19zm-.181 4.528v.567h.19v-.566h-.19zm3.223-7.92l-.001.567h.19v-.566h-.19zm-1.903 2.261v.377h-.284c-.022-.174-.005-.277.143-.376h.14zm5.498 7.542v.189h.38v-.188h-.38zm-6.635-3.96v.378h.19v-.377h-.19zm7.963-.565v.378h.19v-.378h-.19zm1.895 3.582v.189h.38v-.188l-.38-.001zm.667.21a.116.116 0 100-.232.116.116 0 100 .232zm-.95 0a.116.116 0 100-.232.116.116 0 100 .232zm-2.085.942a.116.116 0 00.116-.116.116.116 0 00-.117-.116.116.116 0 00-.116.116c0 .064.052.116.116.116zm1.706-.565a.116.116 0 00.117-.117.116.116 0 00-.117-.115.116.116 0 00-.116.115c0 .065.052.117.116.117zm-7.821-11.146c.06.032.06.064 0 .095v-.095zm-1.707 4.714c.06.032.06.063 0 .095v-.095z" fill="#F5FBFA"/><path d="M46.97 48.067c-3.762-.493-7.525-2.234-9.495-5.593-1.481-2.524-1.902-5.773-1.395-8.632 3.758.455 7.772 2.257 9.734 5.617 1.54 2.637 1.646 5.656 1.156 8.609v-.001z" fill="#038A32"/><path d="M50.715 64.19c.06.03.06.063 0 .094v-.095z" fill="#FBFDFC"/></svg>