<svg width="202" height="118" fill="none" xmlns="http://www.w3.org/2000/svg"><g clip-path="url(#clip0_558_19377)"><path d="M187.69 55.016c.901-1.075 1.781-2.14 2.676-3.192.717-.841 1.411-1.708 2.189-2.491 1.039-1.047 3.523-1.034 4.555-.195.647.525.88 1.215.882 1.988.011 5.315.008 10.628-.002 15.943-.003 1.607-1.037 2.62-2.658 2.603-.595-.006-1.205-.031-1.78-.17-1.215-.291-1.723-1.213-1.73-2.422-.015-2.691-.009-5.383-.012-8.075v-.5l-.132-.06-4.029 4.707-4.094-4.767c-.014.298-.027.453-.028.609-.004 2.622.016 5.245-.024 7.867-.009.547-.161 1.123-.382 1.628-.342.784-1.115 1.086-1.884 1.16-.842.082-1.707.14-2.536-.254-.762-.363-1.356-1.102-1.356-1.947-.008-5.504-.015-11.008-.003-16.512.004-1.586 1.105-2.23 2.387-2.384 1.795-.215 3.071.592 4.134 1.971 1.113 1.443 2.317 2.814 3.486 4.212.084.101.205.171.341.28zm-22.614 15.077c-2.753.032-5.113-.504-7.18-1.982-1.971-1.41-3.329-3.276-3.975-5.638a12.736 12.736 0 01-.15-6.139c.62-2.82 2.192-5.036 4.666-6.562 2.361-1.457 4.952-1.796 7.672-1.565 2.11.18 4.016.853 5.696 2.133 1.87 1.427 3.124 3.257 3.709 5.563.507 1.996.565 3.995.12 5.98-.765 3.409-2.812 5.806-6.003 7.236-1.541.69-2.821.909-4.555.974zm4.818-11.054c.139-2.4-1.503-4.86-3.933-5.284-1.415-.247-2.773-.163-4.021.62-1.576.991-2.294 2.485-2.424 4.289-.08 1.11.063 2.199.583 3.201.743 1.434 1.892 2.364 3.501 2.637 1.603.273 3.123.07 4.413-1.012 1.353-1.137 1.916-2.63 1.881-4.45zM10.178 55.7c1.742 0 3.412.016 5.083-.004 3.603-.04 6.048 2.06 6.88 5.309.747 2.911.077 5.539-2.323 7.556-1.065.894-2.32 1.193-3.683 1.187-3.036-.013-6.072-.003-9.109-.009-.723-.002-1.439-.063-2.065-.494-.82-.566-.96-1.409-.96-2.315 0-4.865-.002-9.73 0-14.595 0-.483.035-.966.027-1.448-.014-.876.7-1.747 1.506-2.004.534-.171 1.11-.29 1.668-.294 3.725-.025 7.453-.041 11.179-.002 2.152.023 2.715 1.476 2.353 3.378-.19 1.004-1.014 1.596-2.15 1.582-2.604-.033-5.21 0-7.815-.033-.507-.006-.623.168-.597.618.028.496.006.994.006 1.568zm2.54 9.041v.004c.242 0 .483.011.724-.001.65-.036 1.33.025 1.942-.147 1.017-.285 1.435-.996 1.465-2.157.027-1.023-.288-1.883-1.296-2.3-.386-.16-.836-.21-1.259-.22-1.205-.028-2.412-.001-3.617-.015-.342-.005-.502.081-.499.459a160.98 160.98 0 01-.007 3.98c-.004.333.132.407.429.401.705-.013 1.412-.004 2.119-.004zm128.263-3.118c0 1.822.008 3.598-.003 5.373-.005.7-.121 1.403-.677 1.879-.364.31-.822.605-1.279.694-1.155.226-2.327.276-3.359-.48-.585-.429-.864-1.046-.866-1.733-.017-5.472-.017-10.944-.006-16.415.002-1.271.92-2.257 2.268-2.363a7.859 7.859 0 012.144.152c1.29.26 1.751 1.331 1.768 2.394.025 1.588.011 3.176.013 4.764v.646c.177.021.309.05.442.05 1.329.004 2.659-.008 3.987.011.403.006.541-.124.536-.536-.02-1.587.006-3.175-.01-4.763-.016-1.578.665-2.397 2.08-2.68.965-.196 1.968-.163 2.881.289.655.323 1.02.907 1.146 1.62.063.354.091.718.092 1.079.007 5.023.009 10.046.005 15.07 0 .967-.136 1.907-1.019 2.504a2.59 2.59 0 01-1.034.42c-1.113.162-2.227.223-3.226-.461a1.977 1.977 0 01-.888-1.647c-.04-1.777-.029-3.555-.038-5.332v-.535h-4.957zM29.965 54.89c.738 0 1.408-.019 2.075.004 1.274.044 2.558.021 3.815.194 1.798.248 3.136 1.301 4.034 2.847 1.076 1.852 1.467 3.9 1.237 6.007-.262 2.418-1.98 4.982-4.63 5.57-.43.096-.878.158-1.318.16-2.916.014-5.833.05-8.749-.009-1.775-.036-2.641-.975-2.654-2.628-.04-5.263-.023-10.526-.011-15.79.003-1.66 1.07-2.677 2.727-2.699.886-.011 1.755.002 2.52.535.64.445.94 1.08.95 1.842.015 1.292.004 2.584.004 3.967zm.028 9.816c1.152 0 2.253.001 3.354-.004.117 0 .237-.032.352-.063 1.968-.53 2.215-2.726 1.643-4.22-.276-.722-.885-1.209-1.618-1.266-1.228-.097-2.468-.026-3.731-.026v5.578zm59.745-5.644c0-2.604-.005-5.209.003-7.813.005-1.9 1.097-2.62 2.613-2.667 3.05-.094 6.108-.112 9.157.003 2.041.077 3.538 1.254 4.592 2.979.925 1.514 1.164 3.157.945 4.903-.187 1.483-.57 2.901-1.396 4.146-1.333 2.006-3.3 2.792-5.653 2.766-1.172-.014-2.346.012-3.517-.016-.465-.01-.575.157-.571.602a65.703 65.703 0 01-.075 3.665c-.034.687-.394 1.23-1.006 1.563-1.285.703-2.616.674-3.906.076-.838-.388-1.176-1.177-1.18-2.083-.01-2.708-.003-5.416-.003-8.124h-.003zm6.183-6.394c0 1.896.005 3.617-.004 5.339-.002.297.123.392.401.387.982-.014 1.968.027 2.945-.04.852-.057 1.588-.405 1.977-1.241.443-.953.429-1.917.051-2.888-.247-.631-.701-1.19-1.314-1.279-1.316-.191-2.658-.194-4.056-.278zM62.586 70.17c-2.688-.124-4.94-.428-7.044-1.418-2.003-.942-3.468-2.428-4.476-4.404-.874-1.715-1.21-3.55-1.163-5.431.087-3.515 1.304-6.525 4.262-8.646 1.3-.932 2.765-1.485 4.318-1.83 1.912-.427 3.85-.404 5.76-.157 1.681.218 3.305.739 4.484 2.12 1.313 1.535.898 3.717-.883 4.447-.328.135-.757.19-1.096.106-1.229-.302-2.434-.692-3.655-1.023-1.887-.512-3.708-.44-5.333.78-.957.719-1.337 1.78-1.556 2.913a8.016 8.016 0 00.188 3.783c.447 1.545 1.546 2.672 3.244 2.982.573.106 1.172.258 1.734.187.96-.121 1.905-.385 2.849-.62.91-.228 1.803-.527 2.717-.735.695-.158 1.725.497 2.173 1.3.749 1.344.547 2.398-.712 3.616-.937.905-2.097 1.401-3.343 1.668-.936.2-1.898.281-2.468.362zm20.071-16.629v.668c-.002 4.227-.006 8.455-.007 12.682 0 .923-.124 1.819-1.024 2.312-.435.24-.949.418-1.44.454-.777.057-1.569.115-2.33-.252-.746-.36-1.198-.901-1.28-1.707a20.331 20.331 0 01-.085-2.066c-.008-3.83-.012-7.66.007-11.49.003-.492-.12-.658-.627-.638-.93.038-1.866.043-2.794-.015-.789-.048-1.531-.29-1.932-1.068-.501-.97-.481-2.4.257-3.199.325-.352.919-.637 1.394-.642 4.52-.048 9.04-.036 13.56-.025 1.09.003 1.955.887 2 2.086.02.536-.057 1.11-.241 1.612-.34.928-1.18 1.2-2.074 1.244-.964.047-1.931.016-2.897.02-.135.001-.27.013-.487.024zm-40.273 5.574c0-2.62.023-5.242-.009-7.863-.017-1.461.642-2.323 1.96-2.605 1.02-.217 2.06-.212 3.018.271.877.443 1.152 1.287 1.209 2.188.056.876.028 1.758.028 2.637 0 4.38.007 8.76-.012 13.14-.005.914-.213 1.808-1.076 2.313a3.476 3.476 0 01-1.434.461c-.778.061-1.566.096-2.328-.264-.72-.34-1.342-1.099-1.344-1.898-.008-2.793-.003-5.586-.003-8.38h-.009z" fill="#264796"/><path d="M114.755 57.497a4.748 4.748 0 100-9.497 4.748 4.748 0 000 9.497z" fill="#E31E24"/><path d="M126.783 57.582a4.749 4.749 0 100-9.497 4.749 4.749 0 000 9.497z" fill="#F6B511"/><path d="M114.489 70.103a4.748 4.748 0 100-9.496 4.748 4.748 0 000 9.496z" fill="#264796"/><path d="M126.815 70.071a4.748 4.748 0 100-9.497 4.748 4.748 0 000 9.497z" fill="#722E85"/></g><defs><clipPath id="clip0_558_19377"><path fill="#fff" transform="translate(4 48)" d="M0 0h194v23H0z"/></clipPath></defs></svg>