<svg width="202" height="118" fill="none" xmlns="http://www.w3.org/2000/svg"><path fill="#012D72" d="M20 27h162v64H20z"/><path fill-rule="evenodd" clip-rule="evenodd" d="M55.4 71l4.672-15.1V71h7.056V47h-9.535l-4.577 12-4.481-12H39v24h7.056V55.9L50.823 71H55.4zm75.612-9.3c2.193-.2 4.386-1.8 4.386-4.4v-5.9c-.286-2.7-2.193-4.2-4.386-4.4h-18.117v24h7.056v-9.3h2.765l4.577 9.3h8.105l-5.435-9.3h1.049zm-1.907-6.3c0 .5-.096 1-.954 1h-8.2v-4.7h8.2c.954 0 .954.7.954 1.1v2.6zm-40.81-3.7V47H69.988v24h18.498v-4.7H77.044v-5.1h11.251v-4.7h-11.25v-4.8h11.25zm8.772 0h-6.674V47h20.405v4.7h-6.675V71h-7.056V51.7zm60.547-4.7h-14.97c-2.288.2-4.1 1.4-4.386 4.1v15.5c.286 2.7 2.193 4.2 4.386 4.3h14.97c2.288-.2 4.1-1.6 4.386-4.3V51.1c-.286-2.7-2.193-3.9-4.386-4.1zm-2.67 18.2c0 .3-.095 1-.953 1.1h-7.628a1.12 1.12 0 01-1.049-1.1V52.7c0-.3.191-.8 1.049-.9h7.628c.858.1.953.7.953.9v12.5z" fill="#FFE500"/></svg>