<svg width="216" height="57" fill="none" xmlns="http://www.w3.org/2000/svg"><g clip-path="url(#clip0_115_247)"><path d="M57.348 0H0v56.64h57.348V0z" fill="#C32420"/><path fill-rule="evenodd" clip-rule="evenodd" d="M46.518 18.596c-3.459-2.913-9.125-6.997-12.985-9.36-4.615-2.826-4.96-2.922-9.731 0-3.86 2.363-9.528 6.448-12.986 9.36-4.134 3.481-4.333 3.775-3.007 9.181 1.073 4.373 3.237 10.982 4.96 15.146 2.06 4.977 2.28 5.255 7.873 5.675 4.523.339 11.528.339 16.05 0 5.408-.406 5.743-.529 7.873-5.675 1.723-4.164 3.887-10.773 4.96-15.146 1.282-5.227 1.269-5.581-3.007-9.181zm-1.636 7.919c-1.02 4.154-3.1 10.51-4.737 14.465-.944 2.28-1.13 2.547-3.813 2.748-4.298.322-11.032.322-15.33 0-2.478-.186-2.79-.279-3.813-2.748-1.637-3.956-3.718-10.31-4.737-14.466-.588-2.395-.595-2.719 1.456-4.446 3.286-2.767 8.734-6.695 12.403-8.94 2.115-1.295 2.422-1.402 4.713 0 3.667 2.245 9.116 6.173 12.402 8.94 1.894 1.596 2.092 1.852 1.456 4.447z" fill="#fff"/><path d="M122.88 0h-62.4v26.88h62.4V0z" fill="#0C359C"/><path fill-rule="evenodd" clip-rule="evenodd" d="M63.443 3.37h8.907c1.236 0 2.287.187 3.154.561.867.375 1.572.869 2.116 1.483.544.615.94 1.32 1.19 2.117a8.151 8.151 0 010 4.882 5.755 5.755 0 01-1.19 2.103c-.544.614-1.25 1.109-2.116 1.483-.867.375-1.918.562-3.154.562h-4.564v7.373h-4.343V3.37zm7.718 9.677c.498 0 .977-.038 1.439-.115a3.26 3.26 0 001.217-.447c.35-.22.631-.532.843-.936.212-.403.318-.93.318-1.584 0-.653-.106-1.18-.318-1.584a2.395 2.395 0 00-.843-.936c-.35-.22-.756-.37-1.217-.446a8.742 8.742 0 00-1.439-.116h-3.375v6.164h3.375zm19 11.348c-1.552 0-2.935-.273-4.15-.82a8.904 8.904 0 01-3.086-2.262c-.842-.96-1.487-2.088-1.935-3.384-.45-1.296-.674-2.693-.674-4.19 0-1.518.225-2.939.674-4.263.448-1.325 1.093-2.477 1.935-3.457a8.896 8.896 0 013.085-2.304c1.216-.557 2.6-.835 4.151-.835 1.534 0 2.913.278 4.138.835a8.862 8.862 0 013.099 2.304c.842.98 1.487 2.132 1.935 3.457.45 1.324.674 2.745.674 4.262 0 1.498-.225 2.895-.674 4.191-.448 1.296-1.093 2.424-1.935 3.384a8.872 8.872 0 01-3.1 2.261c-1.224.548-2.603.821-4.136.821zm0-3.773c.992 0 1.833-.197 2.525-.59a4.864 4.864 0 001.683-1.57c.43-.653.743-1.387.94-2.203.196-.816.294-1.657.294-2.52 0-.903-.098-1.777-.295-2.622a7.042 7.042 0 00-.94-2.26 4.816 4.816 0 00-1.682-1.585c-.692-.393-1.534-.59-2.525-.59-.99 0-1.832.197-2.524.59a4.816 4.816 0 00-1.683 1.584 7.044 7.044 0 00-.94 2.261 11.545 11.545 0 00-.294 2.621c0 .864.098 1.705.294 2.52.197.817.51 1.551.94 2.204.43.653.991 1.176 1.683 1.57.692.393 1.533.59 2.525.59zm20.906 3.773c-1.531 0-2.895-.273-4.094-.82a8.79 8.79 0 01-3.043-2.262c-.83-.96-1.466-2.088-1.909-3.384-.442-1.296-.663-2.693-.663-4.19 0-1.518.221-2.939.663-4.263.443-1.325 1.079-2.477 1.909-3.457a8.784 8.784 0 013.043-2.304c1.199-.557 2.563-.835 4.094-.835a9.61 9.61 0 013.07.49 8.202 8.202 0 012.614 1.425 7.623 7.623 0 011.895 2.319c.498.921.812 1.978.941 3.168h-4.205a3.797 3.797 0 00-.498-1.426 4.494 4.494 0 00-.968-1.137 4.412 4.412 0 00-2.849-1.037c-.977 0-1.807.197-2.49.59a4.777 4.777 0 00-1.659 1.584 7.084 7.084 0 00-.927 2.261c-.194.845-.29 1.719-.29 2.621 0 .864.096 1.705.29 2.52.194.817.502 1.551.927 2.204a4.823 4.823 0 001.659 1.57c.683.393 1.513.59 2.49.59 1.328 0 2.365-.422 3.112-1.267.747-.845 1.203-1.959 1.369-3.341h4.205c-.111 1.305-.397 2.472-.858 3.5a8.39 8.39 0 01-1.825 2.635 7.721 7.721 0 01-2.656 1.67c-1.014.384-2.13.576-3.347.576z" fill="#fff"/><path d="M216 0h-90.24v26.88H216V0z" fill="#C32420"/><path fill-rule="evenodd" clip-rule="evenodd" d="M128.88 2.95h2.486c.345 0 .638.05.88.15.242.1.439.233.591.397.151.165.262.354.332.568a2.11 2.11 0 010 1.308 1.55 1.55 0 01-.332.564 1.649 1.649 0 01-.591.397c-.242.1-.535.15-.88.15h-1.274v1.977h-1.212V2.949zm2.154 2.593c.139 0 .273-.01.402-.03a.936.936 0 00.339-.12.658.658 0 00.236-.251.884.884 0 00.088-.425.884.884 0 00-.088-.424.658.658 0 00-.236-.251.936.936 0 00-.339-.12 2.548 2.548 0 00-.402-.03h-.942v1.651h.942zm7.109 3.018c-.314 0-.597-.049-.849-.146a1.822 1.822 0 01-.648-.421 1.88 1.88 0 01-.417-.66 2.413 2.413 0 01-.147-.865c0-.319.049-.608.147-.868.098-.26.237-.481.417-.664.18-.183.396-.324.648-.424.252-.1.535-.151.849-.151.314 0 .599.05.853.15.255.1.473.242.653.425.18.183.319.404.416.664.098.26.147.55.147.868 0 .32-.049.608-.147.865a1.864 1.864 0 01-.416.66 1.8 1.8 0 01-.653.42 2.36 2.36 0 01-.853.147zm0-.818a.927.927 0 00.467-.108.829.829 0 00.301-.29 1.24 1.24 0 00.159-.409 2.386 2.386 0 000-.938 1.197 1.197 0 00-.159-.409.873.873 0 00-.301-.29.9.9 0 00-.467-.111.883.883 0 00-.463.112.896.896 0 00-.297.29 1.196 1.196 0 00-.158.408 2.386 2.386 0 000 .938c.031.152.083.289.158.41a.85.85 0 00.297.289.908.908 0 00.463.108zm6.963.818c-.304 0-.579-.05-.826-.15a1.831 1.831 0 01-1.042-1.065 2.23 2.23 0 01-.147-.823c0-.308.045-.595.135-.86.09-.265.223-.494.398-.687.175-.193.388-.344.641-.452.252-.108.54-.162.864-.162.237 0 .465.03.683.093.219.061.415.155.587.281.172.126.313.285.421.475.108.19.169.412.185.664h-1.073c-.072-.458-.342-.687-.811-.687a.771.771 0 00-.44.12.958.958 0 00-.289.308 1.326 1.326 0 00-.158.421 2.161 2.161 0 000 .888c.031.149.081.284.15.405.07.121.164.22.282.297a.772.772 0 00.432.116c.263 0 .465-.073.606-.22.142-.147.23-.343.266-.59h1.058c-.072.53-.278.934-.618 1.211-.339.278-.774.417-1.304.417zm6.723 0c-.303 0-.579-.05-.826-.15a1.831 1.831 0 01-1.042-1.065 2.23 2.23 0 01-.147-.823c0-.308.045-.595.136-.86a1.822 1.822 0 011.038-1.139c.252-.108.54-.162.864-.162.237 0 .465.03.684.093.218.061.414.155.586.281.173.126.313.285.421.475.108.19.17.412.185.664h-1.073c-.072-.458-.342-.687-.81-.687a.769.769 0 00-.44.12.95.95 0 00-.29.308 1.35 1.35 0 00-.158.421 2.159 2.159 0 000 .888c.031.149.081.284.15.405.07.121.164.22.282.297a.777.777 0 00.432.116c.263 0 .465-.073.606-.22.142-.147.231-.343.267-.59h1.057c-.072.53-.278.934-.617 1.211-.34.278-.775.417-1.305.417zm4.832-4.09h1.05v2.7l1.505-2.7h1.243v3.99h-1.05V5.759l-1.505 2.702h-1.243V4.47zm6.924 0h1.05v2.7l1.505-2.7h1.243v3.99h-1.05V5.759l-1.505 2.702h-1.243V4.47zm1.891-.48c-.18 0-.348-.02-.505-.061a1.156 1.156 0 01-.413-.197.969.969 0 01-.282-.344 1.137 1.137 0 01-.104-.51h.818c.01.176.052.305.124.387.072.082.193.123.362.123.165 0 .286-.04.363-.12.077-.08.119-.209.124-.39h.818c0 .202-.035.371-.104.51a.98.98 0 01-.282.344 1.15 1.15 0 01-.417.197 2 2 0 01-.502.061zm6.924 4.57c-.303 0-.579-.05-.826-.15a1.831 1.831 0 01-1.042-1.065 2.251 2.251 0 01-.146-.823c0-.308.045-.595.135-.86a1.822 1.822 0 011.038-1.139c.252-.108.54-.162.865-.162.236 0 .464.03.683.093.218.061.414.155.586.281.173.126.313.285.421.475.108.19.17.412.185.664h-1.073c-.072-.458-.342-.687-.81-.687a.769.769 0 00-.44.12.96.96 0 00-.29.308 1.35 1.35 0 00-.158.421 2.159 2.159 0 000 .888c.031.149.081.284.151.405.069.121.163.22.281.297a.778.778 0 00.433.116c.262 0 .464-.073.606-.22.141-.147.23-.343.266-.59h1.058c-.073.53-.278.934-.618 1.211-.34.278-.775.417-1.305.417zm4.832-4.09h1.097v1.628l1.466-1.629h1.289l-1.667 1.76 1.884 2.23h-1.328l-1.413-1.659-.231.255v1.405h-1.097V4.47zm7.913 4.09c-.191 0-.368-.023-.533-.07a1.211 1.211 0 01-.432-.215 1.008 1.008 0 01-.29-.37 1.26 1.26 0 01-.104-.533c0-.227.04-.413.12-.56a.992.992 0 01.308-.351c.126-.088.271-.153.433-.197a4.59 4.59 0 01.49-.104c.164-.026.327-.047.486-.062.16-.016.301-.039.425-.07a.742.742 0 00.293-.135c.072-.059.106-.145.1-.258a.581.581 0 00-.058-.278.416.416 0 00-.154-.166.606.606 0 00-.224-.077 1.83 1.83 0 00-.274-.02c-.216 0-.386.047-.509.14-.124.092-.196.246-.216.462h-1.097c.016-.252.08-.464.193-.636a1.31 1.31 0 01.433-.413c.175-.103.37-.177.586-.22a3.35 3.35 0 01.664-.066c.201 0 .404.014.61.042.206.029.394.084.564.166a1.1 1.1 0 01.416.348c.108.149.163.342.163.579v2.076c0 .18.01.353.03.517a.95.95 0 00.108.37h-1.111a1.522 1.522 0 01-.077-.385c-.175.18-.381.306-.618.378a2.476 2.476 0 01-.725.108zm.409-.725c.216 0 .383-.036.501-.108a.723.723 0 00.263-.259.84.84 0 00.104-.305c.013-.103.019-.185.019-.247v-.409a.498.498 0 01-.169.096 1.589 1.589 0 01-.224.058 3.904 3.904 0 01-.255.039c-.088.01-.175.023-.263.039a1.778 1.778 0 00-.247.061.726.726 0 00-.204.104.498.498 0 00-.143.166.534.534 0 00-.054.255.51.51 0 00.054.251.421.421 0 00.147.154.622.622 0 00.216.082c.082.015.167.023.255.023zm5.974-.873a1.07 1.07 0 01-.691-.409 1.313 1.313 0 01-.266-.833 1.198 1.198 0 01.37-.888 1.31 1.31 0 01.417-.266c.16-.065.337-.097.533-.097h2.416v3.99h-1.096V7.057h-.517l-1.089 1.405h-1.343l1.266-1.498zm1.683-1.698h-.872c-.252 0-.425.045-.518.135a.48.48 0 00-.138.36c0 .154.045.277.135.37.09.092.263.139.521.139h.872V5.265zm-62.555 11.016c-.304 0-.579-.05-.826-.15a1.832 1.832 0 01-1.042-1.066 2.23 2.23 0 01-.147-.822c0-.31.045-.596.135-.861.09-.265.223-.494.398-.687.175-.193.388-.344.64-.452.253-.108.541-.162.865-.162.237 0 .464.031.683.093.219.062.414.156.587.282.172.126.312.284.421.474.108.19.169.412.185.664h-1.073c-.072-.458-.342-.687-.811-.687a.77.77 0 00-.44.12.947.947 0 00-.289.309 1.302 1.302 0 00-.158.42 2.16 2.16 0 000 .888c.03.15.081.284.15.405.07.121.164.22.282.298a.772.772 0 00.432.115c.263 0 .465-.073.606-.22.142-.146.23-.343.266-.59h1.058c-.072.53-.278.934-.618 1.212-.339.278-.774.417-1.304.417zm4.832-4.092h1.05v2.702l1.505-2.702h1.243v3.991h-1.05v-2.7l-1.505 2.701h-1.243v-3.99zm8.815 4.092c-.304 0-.579-.05-.826-.15a1.832 1.832 0 01-1.042-1.066 2.23 2.23 0 01-.147-.822c0-.31.045-.596.135-.861.091-.265.223-.494.398-.687.175-.193.389-.344.641-.452.252-.108.54-.162.864-.162.237 0 .465.031.683.093.219.062.415.156.587.282.173.126.313.284.421.474.108.19.17.412.185.664h-1.073c-.072-.458-.342-.687-.81-.687a.769.769 0 00-.44.12.95.95 0 00-.29.309 1.325 1.325 0 00-.158.42 2.158 2.158 0 000 .888c.031.15.081.284.15.405.07.121.164.22.282.298a.774.774 0 00.432.115c.263 0 .465-.073.606-.22.142-.146.231-.343.267-.59h1.057c-.072.53-.278.934-.617 1.212-.34.278-.775.417-1.305.417zm5.805-3.266h-1.312v-.826h3.72v.826h-1.312v3.165h-1.096v-3.165zm7.04 3.266c-.314 0-.597-.05-.85-.15a1.765 1.765 0 01-.64-.43 1.94 1.94 0 01-.406-.663 2.435 2.435 0 01-.142-.85c0-.298.049-.576.146-.833.098-.257.237-.48.417-.668a1.97 1.97 0 01.645-.444c.249-.108.526-.162.83-.162.319 0 .6.06.845.178.244.118.448.276.61.475.162.198.284.428.366.69.083.263.124.536.124.819v.104a.76.76 0 01-.008.104h-2.879c.015.355.105.612.27.772.165.16.401.24.71.24a.976.976 0 00.571-.167c.16-.11.258-.227.294-.35h.965c-.155.478-.391.82-.711 1.026-.319.206-.705.309-1.157.309zm.841-2.525c-.051-.277-.143-.489-.274-.633-.131-.144-.331-.216-.598-.216a.95.95 0 00-.44.089.828.828 0 00-.421.498 1.268 1.268 0 00-.05.262h1.783zm4.037-1.567h1.59l.826 2.903h.031l.826-2.903h1.59v3.991h-1.034v-3.033h-.023l-.857 3.033h-1.035l-.857-3.033h-.023v3.033h-1.034v-3.99zm9.178 4.092a1.98 1.98 0 01-.533-.07 1.228 1.228 0 01-.432-.216 1.005 1.005 0 01-.289-.37 1.244 1.244 0 01-.105-.533c0-.227.04-.413.12-.56.08-.146.183-.264.309-.351a1.38 1.38 0 01.432-.197c.162-.044.326-.078.49-.104a8.65 8.65 0 01.487-.062c.159-.015.301-.038.424-.07a.736.736 0 00.293-.134c.072-.06.106-.146.101-.259a.593.593 0 00-.058-.278.423.423 0 00-.154-.166.612.612 0 00-.224-.077 1.849 1.849 0 00-.274-.02c-.217 0-.386.047-.51.14-.123.092-.195.247-.216.463h-1.096a1.28 1.28 0 01.193-.637c.113-.172.257-.31.432-.413.175-.103.371-.176.587-.22.216-.044.437-.066.664-.066.2 0 .404.014.609.043.206.028.394.083.564.166.17.082.309.198.417.347.108.15.162.342.162.579v2.077c0 .18.01.352.031.517.02.164.056.288.108.37h-1.112a1.717 1.717 0 01-.077-.386 1.43 1.43 0 01-.617.378 2.481 2.481 0 01-.726.109zm.409-.726c.216 0 .383-.036.502-.108a.719.719 0 00.262-.259.804.804 0 00.104-.305c.013-.102.02-.185.02-.247v-.409a.503.503 0 01-.17.097 1.578 1.578 0 01-.224.058 3.671 3.671 0 01-.255.038c-.087.01-.175.023-.262.039-.088.015-.17.036-.247.062a.746.746 0 00-.205.104.495.495 0 00-.142.166.522.522 0 00-.055.255.5.5 0 00.055.25.419.419 0 00.146.155.622.622 0 00.216.08c.083.016.168.024.255.024zm-42.848 4.354h1.096v1.628l1.466-1.628h1.29l-1.668 1.76 1.884 2.23h-1.328l-1.413-1.66-.231.256v1.404h-1.096v-3.99zm7.912 4.09c-.191 0-.368-.022-.533-.069a1.213 1.213 0 01-.432-.216 1.008 1.008 0 01-.29-.37 1.26 1.26 0 01-.104-.533c0-.226.04-.413.12-.56a.994.994 0 01.309-.35 1.38 1.38 0 01.432-.198c.162-.043.325-.078.49-.104.165-.026.327-.046.486-.062a2.86 2.86 0 00.425-.069.743.743 0 00.293-.135c.072-.06.106-.145.101-.259a.593.593 0 00-.058-.278.418.418 0 00-.155-.166.606.606 0 00-.224-.077 1.825 1.825 0 00-.274-.02c-.216 0-.386.047-.509.14-.124.093-.196.247-.216.463h-1.096a1.27 1.27 0 01.193-.637c.113-.172.257-.31.432-.413.175-.103.37-.176.587-.22.216-.043.437-.065.663-.065.201 0 .404.014.61.042.206.028.394.084.564.166a1.1 1.1 0 01.417.347c.108.15.162.343.162.58v2.076c0 .18.01.352.031.517a.91.91 0 00.108.37h-1.112a1.52 1.52 0 01-.077-.385c-.175.18-.381.306-.618.378a2.47 2.47 0 01-.725.108zm.409-.725c.216 0 .383-.036.502-.108a.727.727 0 00.262-.258.822.822 0 00.104-.305c.013-.103.02-.186.02-.247v-.41a.503.503 0 01-.17.097 1.578 1.578 0 01-.224.058 3.671 3.671 0 01-.255.039c-.087.01-.175.023-.262.038-.088.016-.17.036-.247.062a.719.719 0 00-.205.104.497.497 0 00-.143.166.534.534 0 00-.054.255c0 .103.018.186.054.25a.421.421 0 00.147.155.622.622 0 00.216.081c.082.016.167.023.255.023zm7.626-.841c-.103.03-.254.068-.455.112a2.932 2.932 0 01-.625.065c-.546 0-.937-.126-1.174-.378-.237-.252-.355-.594-.355-1.026v-1.297h1.089v1.073c0 .293.056.496.169.61.114.113.299.17.556.17.16 0 .309-.014.448-.04a4.09 4.09 0 00.347-.077V19.91h1.096v3.99h-1.096v-1.466zM150.779 24c-.314 0-.597-.05-.849-.15a1.765 1.765 0 01-.64-.43 1.926 1.926 0 01-.406-.663 2.435 2.435 0 01-.143-.849c0-.299.049-.576.147-.834.098-.257.237-.48.417-.668a1.96 1.96 0 01.645-.443c.249-.108.526-.162.829-.162.319 0 .601.059.846.177.244.118.447.277.609.475.163.198.285.428.367.69.082.263.124.536.124.819v.104a.76.76 0 01-.008.104h-2.879c.015.355.105.613.27.772.164.16.401.24.71.24a.976.976 0 00.571-.166c.16-.111.258-.228.294-.352h.964c-.154.479-.391.821-.71 1.027-.319.206-.705.309-1.158.309zm.842-2.524c-.052-.278-.143-.49-.274-.633-.131-.144-.331-.216-.598-.216a.945.945 0 00-.44.088.807.807 0 00-.421.498 1.205 1.205 0 00-.05.263h1.783zM157.549 24c-.304 0-.579-.05-.826-.15a1.832 1.832 0 01-1.042-1.066 2.23 2.23 0 01-.147-.822c0-.309.045-.596.135-.86.09-.266.223-.495.398-.688a1.81 1.81 0 01.641-.451c.252-.108.54-.162.864-.162.237 0 .465.03.683.092.219.062.415.156.587.282.172.126.313.284.421.475.108.19.169.411.185.664h-1.073c-.072-.458-.342-.687-.811-.687a.77.77 0 00-.44.12.958.958 0 00-.289.308 1.325 1.325 0 00-.158.42 2.16 2.16 0 000 .888c.031.15.081.285.15.406.07.12.164.22.282.297a.772.772 0 00.432.116c.263 0 .465-.074.606-.22a1.04 1.04 0 00.267-.59h1.057c-.072.53-.278.933-.617 1.211-.34.278-.775.417-1.305.417zm5.805-3.265h-1.313v-.826h3.721v.826h-1.312V23.9h-1.096v-3.165zm5.225-.826h2.293c.175 0 .34.019.494.058.154.038.29.097.405.177.116.08.207.184.274.313a.97.97 0 01.101.455.866.866 0 01-.541.826c.206.057.379.163.518.32.138.157.208.375.208.653 0 .195-.035.366-.104.513a1.05 1.05 0 01-.29.37 1.258 1.258 0 01-.432.228c-.165.052-.34.078-.525.078h-2.401v-3.991zm1.892 3.28c.092 0 .182-.006.27-.019a.702.702 0 00.231-.073.413.413 0 00.162-.159.525.525 0 00.062-.274.536.536 0 00-.065-.277.424.424 0 00-.174-.163.791.791 0 00-.247-.073 2.076 2.076 0 00-.286-.02h-.764v1.058h.811zm-.085-1.675c.082 0 .162-.005.239-.015a.593.593 0 00.208-.066.38.38 0 00.147-.139.467.467 0 00.054-.243.45.45 0 00-.054-.235.362.362 0 00-.143-.135.613.613 0 00-.208-.062 1.901 1.901 0 00-.243-.016h-.726v.911h.726zM176.515 24c-.191 0-.368-.023-.533-.07a1.213 1.213 0 01-.432-.216 1.008 1.008 0 01-.29-.37 1.26 1.26 0 01-.104-.533c0-.226.04-.413.12-.56a.992.992 0 01.308-.35c.126-.088.271-.154.433-.198.162-.043.325-.078.49-.104.165-.026.327-.046.486-.062a2.86 2.86 0 00.425-.069.743.743 0 00.293-.135c.072-.06.106-.145.1-.259a.594.594 0 00-.057-.278.425.425 0 00-.155-.166.606.606 0 00-.224-.077 1.825 1.825 0 00-.274-.02c-.216 0-.386.047-.509.14-.124.093-.196.247-.216.463h-1.097c.016-.252.08-.464.193-.637a1.31 1.31 0 01.433-.413c.175-.103.37-.176.586-.22.217-.043.438-.065.664-.065.201 0 .404.014.61.042.206.028.394.084.564.166.169.082.308.198.416.347.109.15.163.343.163.58v2.076c0 .18.01.352.03.517a.931.931 0 00.109.37h-1.112a1.52 1.52 0 01-.077-.385c-.175.18-.381.306-.618.378a2.474 2.474 0 01-.725.108zm.409-.726c.216 0 .383-.036.501-.108a.722.722 0 00.263-.258.822.822 0 00.104-.305c.013-.103.019-.186.019-.247v-.41a.489.489 0 01-.169.097 1.578 1.578 0 01-.224.058 3.863 3.863 0 01-.255.039c-.087.01-.175.023-.262.038-.088.016-.17.036-.247.062a.719.719 0 00-.205.104.497.497 0 00-.143.166.534.534 0 00-.054.255c0 .103.018.186.054.25a.421.421 0 00.147.155.622.622 0 00.216.081c.082.016.167.023.255.023z" fill="#fff"/><path d="M216 29.76H60.48v26.88H216V29.76z" fill="#C32420"/><path fill-rule="evenodd" clip-rule="evenodd" d="M81.114 53.132l.485.628h-5.452l-6.975-9.164-1.467 1.648v7.516h-4.346V33.12h4.346v8.268l7.722-8.268h5.425l-8.525 8.644 8.787 11.368 7.47-20.012h4.596l7.619 20.64h-4.651l-1.541-4.596h-7.62l-1.599 4.596H80.88l.235-.628zm12.322-7.35l-2.568-7.574h-.057l-2.654 7.574h5.28zm17.775.144c-.494.116-1.091.241-1.793.376s-1.433.202-2.192.202c-1.233 0-2.324-.125-3.273-.375-.948-.251-1.745-.66-2.39-1.229-.645-.569-1.134-1.31-1.466-2.226-.332-.915-.498-2.038-.498-3.368V33.12h4.44v6.244c0 1.253.346 2.13 1.038 2.63.693.502 1.589.752 2.69.752.721 0 1.394-.058 2.021-.173.626-.116 1.1-.212 1.423-.29V33.12h4.468v20.64h-4.468v-7.834zm7.822-12.806h15.376v3.816h-10.855v4.423h9.962v3.526h-9.962v5.06h11.085v3.815h-15.606V33.12zm23.24 20.296a8.94 8.94 0 01-3.096-2.27c-.845-.964-1.492-2.096-1.943-3.397-.45-1.302-.675-2.704-.675-4.208 0-1.523.225-2.949.675-4.28.451-1.33 1.098-2.486 1.943-3.47a8.93 8.93 0 013.096-2.312c1.22-.56 2.609-.839 4.167-.839 1.088 0 2.13.164 3.124.492a8.394 8.394 0 012.661 1.431 7.7 7.7 0 011.928 2.328c.507.925.826 1.985.957 3.18h-4.279a3.767 3.767 0 00-.507-1.43 4.513 4.513 0 00-2.322-1.91 4.484 4.484 0 00-1.562-.274c-.995 0-1.84.198-2.534.593a4.841 4.841 0 00-1.689 1.59 7.06 7.06 0 00-.943 2.27 11.594 11.594 0 00-.296 2.631c0 .868.099 1.711.296 2.53.197.82.511 1.557.943 2.212a4.89 4.89 0 001.689 1.576c.694.396 1.539.593 2.534.593 1.351 0 2.407-.424 3.167-1.272.76-.848 1.224-1.966 1.393-3.354h4.279c-.113 1.31-.404 2.482-.873 3.513a8.41 8.41 0 01-1.858 2.646 7.857 7.857 0 01-2.702 1.677c-1.032.385-2.168.578-3.406.578-1.558 0-2.947-.275-4.167-.824zm19.784-16.48h-6.058V33.12h16.56v3.816h-6.058V53.76h-4.444V36.936zm12.182-3.816h9.574c.969 0 1.852.087 2.65.26.798.174 1.482.458 2.052.853a3.95 3.95 0 011.325 1.576c.313.655.47 1.464.47 2.428 0 1.04-.233 1.908-.698 2.602-.466.693-1.154 1.262-2.066 1.705 1.254.366 2.189 1.007 2.807 1.922.617.916.926 2.02.926 3.31 0 1.04-.2 1.942-.599 2.703a5.237 5.237 0 01-1.609 1.865 7.08 7.08 0 01-2.309 1.07c-.864.23-1.752.346-2.664.346h-9.859V33.12zm9.261 17.113c.437 0 .855-.043 1.254-.13.398-.086.75-.23 1.054-.433a2.17 2.17 0 00.726-.824c.181-.347.271-.79.271-1.33 0-1.06-.294-1.816-.883-2.27-.589-.452-1.368-.678-2.337-.678h-4.872v5.665h4.787zm-.257-8.759c.798 0 1.454-.192 1.966-.578.513-.385.77-1.011.77-1.879 0-.482-.086-.877-.257-1.185a1.912 1.912 0 00-.684-.723 2.845 2.845 0 00-.983-.361 6.432 6.432 0 00-1.154-.101h-4.188v4.827h4.53zm19.38 12.766c-1.562 0-2.954-.275-4.176-.824a8.952 8.952 0 01-3.104-2.27c-.847-.964-1.495-2.096-1.947-3.397-.451-1.302-.677-2.704-.677-4.208 0-1.523.226-2.949.677-4.28.452-1.33 1.1-2.486 1.947-3.47a8.941 8.941 0 013.104-2.312c1.222-.56 2.614-.839 4.176-.839 1.542 0 2.93.28 4.162.839a8.92 8.92 0 013.118 2.313c.846.983 1.495 2.14 1.946 3.47.452 1.33.678 2.756.678 4.28 0 1.503-.226 2.905-.678 4.207-.451 1.3-1.1 2.433-1.946 3.397a8.932 8.932 0 01-3.118 2.27c-1.232.55-2.62.824-4.162.824zm0-3.788c.997 0 1.843-.197 2.539-.593a4.885 4.885 0 001.693-1.576 6.905 6.905 0 00.945-2.212c.198-.819.297-1.662.297-2.53 0-.906-.099-1.783-.297-2.631a7.041 7.041 0 00-.945-2.27 4.836 4.836 0 00-1.693-1.59c-.696-.395-1.542-.593-2.539-.593-.997 0-1.844.198-2.54.593a4.845 4.845 0 00-1.693 1.59 7.086 7.086 0 00-.945 2.27 11.594 11.594 0 00-.296 2.631c0 .868.099 1.711.296 2.53a6.95 6.95 0 00.945 2.212 4.886 4.886 0 001.693 1.576c.696.396 1.543.593 2.54.593z" fill="#fff"/></g><defs><clipPath id="clip0_115_247"><path fill="#fff" d="M0 0h216v57H0z"/></clipPath></defs></svg>